<svg xmlns="http://www.w3.org/2000/svg" xmlns:xlink="http://www.w3.org/1999/xlink" viewBox="0 0 517.32 195.26"><defs><style>.cls-1{opacity:0.7;}.cls-2{fill:#bcbcbc;}.cls-3{font-size:16px;fill:#a5781e;font-family:Ebrima;}.cls-4{fill:#e2c477;}.cls-5,.cls-7{opacity:0.8;}.cls-6{fill:#131111;}.cls-8{fill:#010101;}.cls-10,.cls-11,.cls-9{fill:none;stroke-miterlimit:10;}.cls-9{stroke:url(#未命名的渐变_7);}.cls-10{stroke:url(#未命名的渐变_7-2);}.cls-11{stroke:url(#未命名的渐变_7-3);}.cls-12{fill:url(#未命名的渐变_7-4);}</style><linearGradient id="未命名的渐变_7" x1="289.32" y1="79.5" x2="351.32" y2="79.5" gradientUnits="userSpaceOnUse"><stop offset="0" stop-color="#e5cc8a"/><stop offset="1" stop-color="#bd9f4d"/></linearGradient><linearGradient id="未命名的渐变_7-2" x1="156.32" y1="142.5" x2="196.82" y2="142.5" xlink:href="#未命名的渐变_7"/><linearGradient id="未命名的渐变_7-3" x1="147.32" y1="42.22" x2="235.55" y2="42.22" xlink:href="#未命名的渐变_7"/><linearGradient id="未命名的渐变_7-4" x1="199.99" y1="106.48" x2="310.01" y2="106.48" gradientTransform="matrix(-1, 0, 0, 1, 511.81, 0)" xlink:href="#未命名的渐变_7"/></defs><title>temp_how</title><g id="图层_2" data-name="图层 2"><g id="图层_1-2" data-name="图层 1"><g class="cls-1"><path d="M245.91,106.43l-.15-65.92a63.68,63.68,0,0,0-30.93,7.78Z" transform="translate(-0.59)"/></g><path class="cls-2" d="M246.41,106.4l-31-58.15a65.93,65.93,0,0,0-27.1,89.2,60.64,60.64,0,0,0,14.13,18Z" transform="translate(-0.59)"/><text class="cls-3" transform="translate(386.49 83.67)">%</text><circle class="cls-4" cx="53.24" cy="32" r="32"/><path class="cls-5" d="M42.56,19.29l-.29-2.23c-.35.25-.64.46-.94.66a4.11,4.11,0,0,1-3.72.71A3,3,0,0,1,36,17.1c-.21-.34-.21-.62.29-.8A13,13,0,0,0,41,13.69c.28-.26.38-.46.19-.8-.28-.5-.54-1-.81-1.52.54-.34.87-.13,1.9,1.19l4.66-4c.49.18.6.35.31.86-.43.77-.94,1.49-1.42,2.22-.11.17-.24.34-.38.53,2.05,2.26,2.1,4.71.72,7.33a3,3,0,0,0,2.41,1c1.5.17,3,.24,4.51.36A25,25,0,0,1,62,23.31c1.55.74,3.15,1.37,4.71,2.1,2.61,1.23,4.8,3.11,7.15,4.74.57,1,1.47.92,2.43.86,1.6-.09,3.22-.09,4.83-.12a4.57,4.57,0,0,1,3.59,1.29c-.05.1-.16.21-.14.28a2.87,2.87,0,0,1-.36,2.37c.3.53.27.74-.31,1s-1.15.42-1.83.66c.1.35.19.74.31,1.11a1.25,1.25,0,0,1-1,1.79c-2.52.54-5,1.19-7.56,1.64s-4.89.7-7.34,1c-1.47.18-2.95.27-4.42.43-1.15.13-1.46,0-1.61-1.19a16,16,0,0,1,0-2.08l-1.61.21a2.07,2.07,0,0,1-2.38-2.18A21.68,21.68,0,0,1,56.56,35,.73.73,0,0,1,57,34.5c1.46-.57,2.93-1.12,4.4-1.67l.52-.16c-.81-1-1.52-1.91-2.34-2.75a2.07,2.07,0,0,0-1.35-.58,32.62,32.62,0,0,0-3.4.26c-.68.07-1.37.18-2,.3a2.83,2.83,0,0,0-.78.29,5.88,5.88,0,0,1-3.34.78,5.1,5.1,0,0,1-3.72-2.16c-.25-.32-.48-.66-.72-1a2.62,2.62,0,0,0-1.92,2,1.45,1.45,0,0,0,.17.63,7,7,0,0,0,2.32,2.63c.73.53,1.48,1,2.2,1.55,2.36,1.74,2.45,3.76.22,5.66a16.1,16.1,0,0,1-7.51,3.35c-.81.16-1.63.23-2.44.35a2.23,2.23,0,0,0-.59.16l-8.24,3.73c-.16.08-.3.25-.47.28a1.08,1.08,0,0,1-.76,0,.76.76,0,0,1-.2-.7,5.26,5.26,0,0,1,.89-1.59A17.36,17.36,0,0,1,35,41.3a10.28,10.28,0,0,1,1.86-.23,1.16,1.16,0,0,0,.47-.1c.85-.58,1.7-1.16,2.52-1.78a2,2,0,0,0,.51-.66c.33-.64.24-.87-.34-1.28s-1.4-1-2.09-1.53a4.12,4.12,0,0,1-1.09-5.08,5.28,5.28,0,0,0,.67-3.52,7.65,7.65,0,0,1,.87-4.56,1.11,1.11,0,0,1,.28-.42c1-.82,1.95-1.63,2.95-2.41A4.72,4.72,0,0,1,42.56,19.29Zm29.22,11.9a9,9,0,0,0-1.06-.92c-.86-.57-1.76-1.07-2.62-1.64-1.3-.85-2.57-1.75-3.87-2.59a26.25,26.25,0,0,0-7.67-3.4,35.27,35.27,0,0,0-8.93-.71.71.71,0,0,0-.52.26,2.45,2.45,0,0,0-.4,2.13,8.55,8.55,0,0,0,1.85,2.79,4,4,0,0,0,4,1.26c1.2-.21,2.39-.46,3.59-.67a5.14,5.14,0,0,1,5.34,1.79c.68.85,1.4,1.67,2.12,2.48a.83.83,0,0,0,.61.21c.83-.1,1.66-.27,2.49-.38C68.31,31.59,70,31.41,71.78,31.19ZM62.5,41.46l2.68-.54,10.95-2.15c1.16-.23,2.31-.44,3.46-.68a.7.7,0,0,0,.47-.36,4.19,4.19,0,0,0,.11-1c-6,.6-11.88,1-17.67,2.05Zm-.24-4.75c-.14-.36-.31-.85-.52-1.32-.77-1.69-1-1.3-2.11-1-1.71.39-1.83,1.18-2,2.52a1.35,1.35,0,0,0,.35.81,3.12,3.12,0,0,0,.71.74.89.89,0,0,0,.67.17c.73-.22,1.43-.57,2.17-.75C62.09,37.7,62.14,37.3,62.26,36.71Zm6.32-.5c-.12-.73-.22-1.41-.34-2.09a.59.59,0,0,0-.17-.28,1.87,1.87,0,0,0-2-.63,10.41,10.41,0,0,1-1.38.18c-.71.08-.76.18-.84.89a5,5,0,0,0,.85,2.65Zm5.24-.67a12.93,12.93,0,0,0-.08-1.45,6.16,6.16,0,0,0-.43-1.25.41.41,0,0,0-.34-.21c-1.26.08-2.52.19-3.79.29.31.92.58,1.79.9,2.65,0,.15.27.38.39.37C71.58,35.83,72.68,35.68,73.82,35.54ZM81.63,32l0,.13h-.73a3.33,3.33,0,0,0-.78.08c-.14,0-.35.19-.36.3a6.92,6.92,0,0,0,.06,1.51c.13.74.45.94,1.19.88l.9-.07a1.78,1.78,0,0,0,1.56-2.19.47.47,0,0,0-.23-.28C82.69,32.25,82.16,32.14,81.63,32Zm-6.53.45.7,2.88,2.38-.21c-.06-.81-.08-1.59-.19-2.36a.67.67,0,0,0-.48-.46C76.73,32.33,76,32.42,75.1,32.48Z" transform="translate(-0.59)"/><path class="cls-6" d="M5.69,78.14c-.26-.9-.66-1.89-1.95-1.89a1.33,1.33,0,0,0-1.39,1.42c0,.84.55,1.31,1.76,1.92,1.56.79,2.43,1.49,2.43,2.86,0,1.59-1.33,2.76-3.27,2.76A7.39,7.39,0,0,1,1,84.77c-.09-.35-.31-1.63-.4-2.32l.5-.12c.28.9,1,2.32,2.41,2.32A1.38,1.38,0,0,0,5,83.15c0-.9-.53-1.36-1.72-2C1.77,80.35.87,79.66.87,78.26S2,75.7,4,75.7a9.65,9.65,0,0,1,2,.26c0,.51.14,1.18.25,2.07Z" transform="translate(-0.59)"/><path class="cls-6" d="M10.4,85a1.47,1.47,0,0,1-.57.17c-1,0-1.61-.52-1.61-1.74v-4H7.3l-.07-.17.4-.49h.59V77.64c.41-.32,1-.74,1.41-1l.19.08c0,.45,0,1.22,0,2.13h1.47a.55.55,0,0,1-.11.66H9.79V83c0,1.1.44,1.26.75,1.26a1.78,1.78,0,0,0,.73-.17l.14.46Z" transform="translate(-0.59)"/><path class="cls-6" d="M15.45,85H11.92v-.45c.79-.08.86-.15.86-1v-3c0-.78,0-.84-.77-1v-.41a10.66,10.66,0,0,0,2.33-.55v1.53c.58-.89,1.12-1.49,1.74-1.49a.8.8,0,0,1,.87.78,1.2,1.2,0,0,1-.63,1,.34.34,0,0,1-.41,0c-.23-.2-.4-.4-.65-.4s-.64.27-.92.87v2.65c0,.87.09.92,1.11,1Z" transform="translate(-0.59)"/><path class="cls-6" d="M17.63,85v-.45c.8-.09.89-.15.89-1.13V80.63c0-.91-.06-1-.78-1.07v-.42a13.39,13.39,0,0,0,2.34-.52v4.8c0,1,.07,1,.92,1.13V85Zm1.58-7.42a.91.91,0,1,1,0-1.82.9.9,0,0,1,.91.92A.91.91,0,0,1,19.21,77.58Z" transform="translate(-0.59)"/><path class="cls-6" d="M25.69,85v-.45c.67-.08.73-.15.73-1.11V81.07c0-1-.45-1.42-1.09-1.42a1.94,1.94,0,0,0-1.22.53v3.35c0,.89.06.94.72,1V85H21.66v-.45c.8-.11.88-.14.88-1.06v-2.9c0-.87-.1-.91-.77-1v-.42a13,13,0,0,0,2.35-.54c0,.24,0,.71,0,1,.28-.2.57-.41.91-.62a2,2,0,0,1,1.12-.38c1.13,0,1.84.82,1.84,2.23v2.65c0,.9.08.94.8,1V85Z" transform="translate(-0.59)"/><path class="cls-6" d="M31.52,82.86a.91.91,0,0,0-.33.56c0,.23.26.52.82.52h1.58c.87,0,2.08.33,2.08,1.71S33.81,88.48,32,88.48s-2.58-.9-2.59-1.69a.91.91,0,0,1,.39-.78c.35-.28.78-.59,1.09-.81a2,2,0,0,1-1.05-.78,1.2,1.2,0,0,1-.21-.71,3.76,3.76,0,0,0,1.44-1Zm.67.14c-1.49,0-2.55-.83-2.55-2.11a2.45,2.45,0,0,1,2.65-2.27,3.22,3.22,0,0,1,1.5.36,9.94,9.94,0,0,0,1.92-.2l.07.12a1.7,1.7,0,0,1-.52.82c-.23,0-.64,0-.84-.07a1.87,1.87,0,0,1,.36,1.19C34.78,82.29,33.5,83,32.19,83Zm.22,2.24a1.86,1.86,0,0,0-1.26.28,1.2,1.2,0,0,0-.49.9c0,.75.73,1.33,1.89,1.33s1.87-.57,1.87-1.38a1,1,0,0,0-.72-1A4,4,0,0,0,32.41,85.24Zm-.21-6.11c-.5,0-1,.53-1,1.58s.4,1.79,1.1,1.79,1-.56,1-1.62S32.91,79.13,32.2,79.13Z" transform="translate(-0.59)"/><path class="cls-6" d="M39.28,85v-.45c.8-.09.89-.15.89-1.13V80.63c0-.91-.07-1-.79-1.07v-.42a13.72,13.72,0,0,0,2.35-.52v4.8c0,1,.07,1,.91,1.13V85Zm1.57-7.42a.91.91,0,1,1,0-1.82.9.9,0,0,1,.91.92A.91.91,0,0,1,40.85,77.58Z" transform="translate(-0.59)"/><path class="cls-6" d="M47.34,85v-.45c.66-.08.72-.15.72-1.11V81.07c0-1-.44-1.42-1.08-1.42a2,2,0,0,0-1.23.53v3.35c0,.89.06.94.73,1V85H43.31v-.45c.79-.11.88-.14.88-1.06v-2.9c0-.87-.11-.91-.78-1v-.42a13.26,13.26,0,0,0,2.36-.54c0,.24,0,.71,0,1,.28-.2.58-.41.92-.62a2,2,0,0,1,1.11-.38c1.13,0,1.84.82,1.84,2.23v2.65c0,.9.09.94.81,1V85Z" transform="translate(-0.59)"/><path class="cls-6" d="M54.92,80.57c-.32-.92-.76-1.41-1.48-1.41a.77.77,0,0,0-.79.8c0,.53.37.8,1.12,1.14,1.16.53,1.87,1,1.87,2a2.23,2.23,0,0,1-2.46,2,4.29,4.29,0,0,1-1.74-.41c-.06-.35-.19-1.25-.23-1.73l.44-.08c.28.89.82,1.68,1.76,1.68a.79.79,0,0,0,.86-.81c0-.5-.27-.82-1.09-1.22s-1.81-.94-1.81-2,.9-1.91,2.32-1.91a6.68,6.68,0,0,1,1.46.2c0,.36.16,1.25.22,1.62Z" transform="translate(-0.59)"/><path class="cls-6" d="M59.25,85a1.51,1.51,0,0,1-.58.17c-1,0-1.6-.52-1.6-1.74v-4h-.92l-.08-.17.4-.49h.6V77.64c.4-.32,1-.74,1.4-1l.19.08c0,.45,0,1.22,0,2.13H60.1a.54.54,0,0,1-.1.66H58.63V83c0,1.1.45,1.26.75,1.26a1.86,1.86,0,0,0,.74-.17l.13.46Z" transform="translate(-0.59)"/><path class="cls-6" d="M64.29,85H60.76v-.45c.79-.08.87-.15.87-1v-3c0-.78-.06-.84-.77-1v-.41a10.94,10.94,0,0,0,2.33-.55v1.53c.58-.89,1.11-1.49,1.73-1.49a.81.81,0,0,1,.88.78,1.21,1.21,0,0,1-.63,1,.33.33,0,0,1-.41,0c-.23-.2-.41-.4-.65-.4s-.65.27-.92.87v2.65c0,.87.09.92,1.1,1Z" transform="translate(-0.59)"/><path class="cls-6" d="M73.55,84.67a24.76,24.76,0,0,0-2.48.5v-1a3.25,3.25,0,0,1-2,1c-1.09,0-1.81-.69-1.81-2V80.29c0-.68-.09-.75-.46-.84l-.33-.08V79c.68,0,1.72-.14,2.4-.24,0,.54,0,1.25,0,2.09v2c0,1,.52,1.35,1.06,1.35a1.57,1.57,0,0,0,1.19-.5V80.3c0-.68-.11-.79-.53-.86l-.43-.07V79a25.12,25.12,0,0,0,2.53-.24v4.61c0,.72.09.85.57.89l.34,0Z" transform="translate(-0.59)"/><path class="cls-6" d="M81.92,85v-.45c.66-.08.75-.14.75-1V81.12c0-1.1-.47-1.46-1-1.46a2,2,0,0,0-1.22.54c0,.17,0,.36,0,.59v2.79c0,.82.07.89.76,1V85h-3.1v-.45c.71-.08.79-.13.79-1v-2.5c0-1-.37-1.42-1-1.42a2.14,2.14,0,0,0-1.24.53v3.39c0,.83.09.9.71,1V85H74.2v-.45c.82-.09.88-.15.88-1V80.59c0-.82,0-.93-.73-1v-.41a11.91,11.91,0,0,0,2.28-.54v1.07c.31-.21.57-.41.92-.62a2,2,0,0,1,1.16-.41,1.62,1.62,0,0,1,1.56,1.09c.35-.27.66-.48,1-.72a2.11,2.11,0,0,1,1.12-.37c1.17,0,1.83.81,1.83,2.22v2.71c0,.83.07.88.8,1V85Z" transform="translate(-0.59)"/><path class="cls-6" d="M91.22,83.69a3.2,3.2,0,0,1-2.48,1.48,2.83,2.83,0,0,1-2.87-3,3.68,3.68,0,0,1,1-2.5,3,3,0,0,1,2.15-1,2.25,2.25,0,0,1,2.25,2.24c0,.25,0,.45-.21.5s-2.19.17-3.65.23c0,1.62,1,2.38,2,2.38A2.39,2.39,0,0,0,91,83.33Zm-2.5-4.49c-.59,0-1.12.64-1.24,1.75l1.94,0c.21,0,.3,0,.3-.28C89.73,79.91,89.35,79.2,88.72,79.2Z" transform="translate(-0.59)"/><path class="cls-6" d="M96.13,85v-.45c.66-.08.72-.15.72-1.11V81.07c0-1-.44-1.42-1.08-1.42a2,2,0,0,0-1.23.53v3.35c0,.89.06.94.73,1V85H92.1v-.45c.79-.11.88-.14.88-1.06v-2.9c0-.87-.11-.91-.77-1v-.42a13.36,13.36,0,0,0,2.35-.54c0,.24,0,.71,0,1,.28-.2.58-.41.92-.62a2,2,0,0,1,1.11-.38c1.13,0,1.84.82,1.84,2.23v2.65c0,.9.09.94.81,1V85Z" transform="translate(-0.59)"/><path class="cls-6" d="M102.76,85a1.51,1.51,0,0,1-.58.17c-1,0-1.6-.52-1.6-1.74v-4h-.92l-.07-.17.39-.49h.6V77.64c.4-.32,1-.74,1.4-1l.2.08c0,.45-.05,1.22,0,2.13h1.47a.54.54,0,0,1-.1.66h-1.37V83c0,1.1.45,1.26.75,1.26a1.83,1.83,0,0,0,.74-.17l.13.46Z" transform="translate(-0.59)"/><path class="cls-6" d="M108.12,80.57c-.32-.92-.76-1.41-1.49-1.41a.77.77,0,0,0-.78.8c0,.53.37.8,1.12,1.14,1.16.53,1.87,1,1.87,2a2.23,2.23,0,0,1-2.46,2,4.25,4.25,0,0,1-1.74-.41c-.06-.35-.19-1.25-.23-1.73l.44-.08c.28.89.82,1.68,1.76,1.68a.79.79,0,0,0,.86-.81c0-.5-.27-.82-1.09-1.22s-1.81-.94-1.81-2,.9-1.91,2.32-1.91a6.68,6.68,0,0,1,1.46.2c0,.36.15,1.25.22,1.62Z" transform="translate(-0.59)"/><circle class="cls-4" cx="49.24" cy="139" r="32"/><path class="cls-5" d="M64.07,118.59c-.63-.53-1-.46-1.44.16a14.15,14.15,0,0,1-2.5,3,3.89,3.89,0,0,1-3.83,1c-.3-.09-.45-.18-.45-.52a4.55,4.55,0,0,0-1-2.68c-.22-.3-.1-.45.1-.68a6.12,6.12,0,0,0,1.75-3,3.74,3.74,0,0,1,.31-1.29,19.66,19.66,0,0,1-3.69,2.18c-.19.12-.41.32-.63,0a24.35,24.35,0,0,1-2-2.91c-.1-.22-.1-.54-.43-.5s-.4.36-.4.62c0,.72.06,1.43.15,2.14.25,2.17.27,2.2-1.92,2.46a3.17,3.17,0,0,1-2.22-.19c-.29-.18-.43.07-.55.3a6.4,6.4,0,0,0-.58,2.72,1.42,1.42,0,0,0,1,1.48,6,6,0,0,0,2.48.26c.47,0,1.06-.45,1.32-.19s.19.93.26,1.42.35,1.1,0,1.71c-1,1.85-1.85,3.77-2.92,5.58a28.48,28.48,0,0,0-4,14.16,10.91,10.91,0,0,1-.53,3,21,21,0,0,1-4.54,7.72c-1.62,1.8-3.26,3.57-4.9,5.35-.13.13-.39.15-.3.42a.51.51,0,0,0,.45.33c.47.07.93.16,1.4.2a59.35,59.35,0,0,0,12.71-.21c3.27-.42,6.55-.8,9.63-2.21A2.55,2.55,0,0,0,58.21,159a3.27,3.27,0,0,0,.25-1.44c.06-2.92-1.31-5.11-3.34-7.06a11.14,11.14,0,0,1-3.69-7.3c-.17-2.43.24-4.73,2.19-6.49.33-.3.55-.39.9,0a4.86,4.86,0,0,0,1.58,1.07,3.81,3.81,0,0,0,5.26-2,9.51,9.51,0,0,0,.56-4.93,17.49,17.49,0,0,1,.14-3.76.86.86,0,0,1,.86-.88,6.21,6.21,0,0,0,2.75-.8.64.64,0,0,1,.28-.06c.85-.08,1-.26,1-1.09A7.19,7.19,0,0,0,64.07,118.59ZM45.41,154.16c-.12,1.35-.22,2.71-.36,4.06-.07.69-.41.91-1.2.83s-1-.35-.86-1.08c.17-1.37.47-2.72.76-4.07.13-.55.24-1.11.33-1.67.06-.37.18-.69.62-.69s.59.33.59.7A17.83,17.83,0,0,1,45.41,154.16Zm1.06,6.93c.28-.38.55-.36,1-.3C47.13,161.14,46.82,161,46.47,161.09Zm2.41-2.57a.72.72,0,0,1-.81-.69c0-1.29,0-2.6,0-3.89a.54.54,0,0,1,.61-.52.56.56,0,0,1,.55.59c0,.66,0,1.33,0,2h0c0,.56.05,1.13.09,1.69C49.42,158.09,49.37,158.47,48.88,158.52Zm.55-9.37a6.21,6.21,0,0,1-3.54-.41c-.53-.25-.72-1-.61-2a42,42,0,0,0,4.23,1.28.44.44,0,0,1,.35.49A.52.52,0,0,1,49.43,149.15Zm4.13,4.24c.4-.36.57.06.79.32a22.37,22.37,0,0,0,2.18,2.38.69.69,0,0,1,.28.54c-.08.35-.32.4-.65.27s-.62-.54-.9-.85c-.52-.58-1-1.18-1.54-1.78C53.5,154,53.2,153.7,53.56,153.39Zm-1.9.89c.58.86,1.15,1.72,1.71,2.59.14.22.2.47-.07.65s-.49,0-.67-.24c-.69-.87-1.14-1.9-1.85-2.75-.23-.27-.12-.57.26-.63A.71.71,0,0,1,51.66,154.28Zm8.24-19.92c-.15.43-.28.54-.71.27a9.06,9.06,0,0,1-4.29-7.8c0-.5.08-.67.61-.44a8.07,8.07,0,0,0,3.92.53c.49,0,.62.1.68.56a22.47,22.47,0,0,1,.27,3.57A10,10,0,0,1,59.9,134.36Z" transform="translate(-0.59)"/><path class="cls-6" d="M8.46,182.89a4.36,4.36,0,0,1,2.46.59,2.34,2.34,0,0,1,1,2.06,3,3,0,0,1-3.18,2.89,2.25,2.25,0,0,1-.4,0l-.87-.22v2c0,1.18.1,1.22,1.34,1.35V192H4.6v-.47c1.11-.13,1.22-.19,1.22-1.36v-5.42c0-1.2-.14-1.3-1.22-1.38v-.48Zm-1,4.73a2,2,0,0,0,.84.16c.75,0,1.84-.41,1.84-2.23,0-1.56-.91-2.11-1.91-2.11a1,1,0,0,0-.63.14c-.1.09-.14.24-.14.51Z" transform="translate(-0.59)"/><path class="cls-6" d="M12.83,192v-.45c.8-.09.89-.15.89-1.13v-2.79c0-.91-.06-1-.78-1.07v-.42a13.39,13.39,0,0,0,2.34-.52v4.8c0,1,.07,1,.92,1.13V192Zm1.58-7.42a.91.91,0,1,1,0-1.82.9.9,0,0,1,.91.92A.91.91,0,0,1,14.41,184.58Z" transform="translate(-0.59)"/><path class="cls-6" d="M16.77,186.12a18.28,18.28,0,0,0,2.38-.62v1l1.07-.61a1.81,1.81,0,0,1,.87-.29,2.56,2.56,0,0,1,2.44,2.73,4,4,0,0,1-3.46,3.8,2.69,2.69,0,0,1-.92-.17v1.75c0,.88.09,1,1.09,1.08v.43h-3.6v-.43c.87-.09.95-.2.95-1v-6.29c0-.79-.07-.86-.82-1ZM19.15,191a2,2,0,0,0,1.21.53c.91,0,1.54-1,1.54-2.48s-.86-2.38-1.67-2.38a2,2,0,0,0-1.08.41Z" transform="translate(-0.59)"/><path class="cls-6" d="M30,190.69a3.2,3.2,0,0,1-2.48,1.48,2.83,2.83,0,0,1-2.87-3,3.63,3.63,0,0,1,1-2.5,3,3,0,0,1,2.15-1A2.25,2.25,0,0,1,30,187.88c0,.25,0,.45-.22.5s-2.18.17-3.64.23c0,1.62,1,2.38,2,2.38a2.39,2.39,0,0,0,1.61-.66Zm-2.5-4.49c-.59,0-1.12.64-1.24,1.75l1.93,0c.22,0,.3,0,.3-.28C28.47,186.91,28.09,186.2,27.46,186.2Z" transform="translate(-0.59)"/><path class="cls-6" d="M33.92,192v-.45c.8-.09.89-.15.89-1.13v-2.79c0-.91-.07-1-.79-1.07v-.42a13.72,13.72,0,0,0,2.35-.52v4.8c0,1,.07,1,.91,1.13V192Zm1.57-7.42a.91.91,0,1,1,0-1.82.9.9,0,0,1,.91.92A.91.91,0,0,1,35.49,184.58Z" transform="translate(-0.59)"/><path class="cls-6" d="M42,192v-.45c.66-.08.72-.15.72-1.11v-2.37c0-1-.44-1.42-1.08-1.42a2,2,0,0,0-1.23.53v3.35c0,.89.06.94.73,1V192H38v-.45c.79-.11.88-.14.88-1.06v-2.9c0-.87-.11-.91-.77-1v-.42a13.36,13.36,0,0,0,2.35-.54c0,.24,0,.71,0,1,.28-.2.58-.41.92-.62a2,2,0,0,1,1.11-.38c1.13,0,1.84.82,1.84,2.23v2.65c0,.9.09.94.81,1V192Z" transform="translate(-0.59)"/><path class="cls-6" d="M49.56,187.57c-.32-.92-.76-1.41-1.49-1.41a.77.77,0,0,0-.78.8c0,.53.37.8,1.12,1.14,1.15.53,1.87,1,1.87,2a2.23,2.23,0,0,1-2.46,2,4.25,4.25,0,0,1-1.74-.41c-.06-.35-.19-1.25-.23-1.73l.44-.08c.28.89.82,1.68,1.76,1.68a.79.79,0,0,0,.86-.81c0-.5-.27-.82-1.09-1.22s-1.81-.94-1.81-2,.9-1.91,2.32-1.91a6.68,6.68,0,0,1,1.46.2c0,.36.15,1.25.22,1.62Z" transform="translate(-0.59)"/><path class="cls-6" d="M53.89,192a1.51,1.51,0,0,1-.58.17c-1,0-1.6-.52-1.6-1.74v-4h-.92l-.08-.17.4-.49h.6v-1.16c.4-.32,1-.74,1.4-1l.19.08c0,.45,0,1.22,0,2.13h1.47a.54.54,0,0,1-.1.66H53.27V190c0,1.1.45,1.26.75,1.26a1.86,1.86,0,0,0,.74-.17l.13.46Z" transform="translate(-0.59)"/><path class="cls-6" d="M58.93,192H55.4v-.45c.79-.08.87-.15.87-1v-3c0-.78-.06-.84-.77-1v-.41a10.94,10.94,0,0,0,2.33-.55v1.53c.58-.89,1.11-1.49,1.73-1.49a.81.81,0,0,1,.88.78,1.21,1.21,0,0,1-.63,1,.33.33,0,0,1-.41-.05c-.23-.2-.41-.4-.65-.4s-.65.27-.92.87v2.65c0,.87.09.92,1.1,1Z" transform="translate(-0.59)"/><path class="cls-6" d="M68.19,191.67a24.76,24.76,0,0,0-2.48.5v-1a3.25,3.25,0,0,1-2,1c-1.1,0-1.81-.69-1.81-2v-2.84c0-.68-.09-.75-.46-.84l-.33-.08V186c.68,0,1.72-.14,2.4-.24,0,.54,0,1.25,0,2.09v2c0,1,.53,1.35,1.07,1.35a1.57,1.57,0,0,0,1.19-.5V187.3c0-.68-.11-.79-.53-.86l-.43-.07V186a25.12,25.12,0,0,0,2.53-.24v4.61c0,.72.09.85.57.89l.34,0Z" transform="translate(-0.59)"/><path class="cls-6" d="M76.56,192v-.45c.66-.08.75-.14.75-1v-2.39c0-1.1-.47-1.46-1.06-1.46a1.93,1.93,0,0,0-1.21.54c0,.17,0,.36,0,.59v2.79c0,.82.07.89.76,1V192h-3.1v-.45c.71-.08.79-.13.79-1v-2.5c0-1-.37-1.42-1-1.42a2.14,2.14,0,0,0-1.24.53v3.39c0,.83.09.9.71,1V192H68.84v-.45c.82-.09.88-.15.88-1v-2.94c0-.82,0-.93-.73-1v-.41a11.91,11.91,0,0,0,2.28-.54v1.07c.31-.21.57-.41.92-.62a2,2,0,0,1,1.16-.41,1.62,1.62,0,0,1,1.56,1.09c.35-.27.66-.48,1-.72a2.11,2.11,0,0,1,1.12-.37c1.17,0,1.83.81,1.83,2.22v2.71c0,.83.07.88.8,1V192Z" transform="translate(-0.59)"/><path class="cls-6" d="M85.86,190.69a3.2,3.2,0,0,1-2.48,1.48,2.83,2.83,0,0,1-2.87-3,3.68,3.68,0,0,1,1-2.5,3,3,0,0,1,2.15-1,2.25,2.25,0,0,1,2.25,2.24c0,.25,0,.45-.21.5s-2.19.17-3.65.23c0,1.62,1,2.38,2,2.38a2.39,2.39,0,0,0,1.61-.66Zm-2.5-4.49c-.59,0-1.12.64-1.24,1.75l1.94,0c.21,0,.3,0,.3-.28C84.37,186.91,84,186.2,83.36,186.2Z" transform="translate(-0.59)"/><path class="cls-6" d="M90.77,192v-.45c.66-.08.72-.15.72-1.11v-2.37c0-1-.44-1.42-1.09-1.42a2,2,0,0,0-1.22.53v3.35c0,.89.06.94.73,1V192H86.73v-.45c.8-.11.89-.14.89-1.06v-2.9c0-.87-.11-.91-.78-1v-.42a13.26,13.26,0,0,0,2.36-.54c0,.24,0,.71,0,1,.28-.2.58-.41.91-.62a2,2,0,0,1,1.12-.38c1.13,0,1.84.82,1.84,2.23v2.65c0,.9.08.94.81,1V192Z" transform="translate(-0.59)"/><path class="cls-6" d="M97.4,192a1.51,1.51,0,0,1-.58.17c-1,0-1.6-.52-1.6-1.74v-4H94.3l-.07-.17.39-.49h.6v-1.16c.4-.32,1-.74,1.4-1l.19.08c0,.45,0,1.22,0,2.13h1.47a.54.54,0,0,1-.1.66H96.78V190c0,1.1.45,1.26.75,1.26a1.86,1.86,0,0,0,.74-.17l.13.46Z" transform="translate(-0.59)"/><path class="cls-6" d="M102.76,187.57c-.32-.92-.76-1.41-1.49-1.41a.77.77,0,0,0-.78.8c0,.53.37.8,1.12,1.14,1.16.53,1.87,1,1.87,2a2.23,2.23,0,0,1-2.46,2,4.25,4.25,0,0,1-1.74-.41c-.06-.35-.19-1.25-.23-1.73l.44-.08c.28.89.82,1.68,1.76,1.68a.79.79,0,0,0,.86-.81c0-.5-.27-.82-1.09-1.22s-1.81-.94-1.81-2,.9-1.91,2.32-1.91a6.68,6.68,0,0,1,1.46.2c0,.36.16,1.25.22,1.62Z" transform="translate(-0.59)"/><circle class="cls-4" cx="444.31" cy="72.5" r="32"/><g class="cls-7"><path d="M437.6,76.9a7.18,7.18,0,0,1-1-5.51,13.67,13.67,0,0,1,2.07-4.93c.39-.63.8-1.24,1.2-1.86a2,2,0,0,1,.35-.92,1.9,1.9,0,0,0,.3-1.33,1.21,1.21,0,0,1,.39-1,6.63,6.63,0,0,0,.34-3.12,1.55,1.55,0,0,0-.79-1.34c1.79-.13,2.57-1.38,3.44-2.5a2.59,2.59,0,0,0,.43-1.48c0-.23-.18-.4-.23-.62-.19.15-.52,0-.64.24-.25.46-.71.55-1.11.73a24.08,24.08,0,0,1-3.84,1.46c-.27.07-.4,0-.46-.25-.11-.51-.26-1-.37-1.51-.31-1.46-.61-2.93-.92-4.39-.05-.25-.16-.45-.45-.48a.62.62,0,0,0-.69.34,2.3,2.3,0,0,0-.23.76,22.52,22.52,0,0,0,0,5.19c.06.86.1.92-.74.94a17,17,0,0,1-3,.18c-.12,0-.2.09-.25.19a1.79,1.79,0,0,0,.84,2.25,4.56,4.56,0,0,0,1.68.23,14.42,14.42,0,0,0,2.61-.3,2,2,0,0,0-.15,1.82,4.76,4.76,0,0,1,.1,1.46.84.84,0,0,1-.33.69,52.23,52.23,0,0,0-7.36,8.49,7.21,7.21,0,0,0-1.43,3.51,16.52,16.52,0,0,0-.1,3.06,15.32,15.32,0,0,1-.57,5.43,9.43,9.43,0,0,1-2.31,4.58,2.39,2.39,0,0,0-.5.68A3.57,3.57,0,0,1,422.43,89c-.75.48-1.32,1.16-2.08,1.62a13.13,13.13,0,0,0,2.81.53c.74,0,1.47.12,2.21.22a56.51,56.51,0,0,0,8.72.55,18,18,0,0,0,4.67-.67c.38-.11.85-.21,1-.61a13.76,13.76,0,0,0,.92-2.41,6.57,6.57,0,0,1,.21-1.16,5.66,5.66,0,0,0,0-3.31A26,26,0,0,0,437.6,76.9Zm-9.35,7.34c-.77,1.32-1.26,2.77-1.95,4.13a1.65,1.65,0,0,1-.2.31.38.38,0,0,1-.52.08.35.35,0,0,1-.17-.45c.73-1.49,1.28-3.07,2.14-4.51a.41.41,0,0,1,.52-.2c.17.06.24.19.25.41A1.83,1.83,0,0,1,428.25,84.24Zm2.38,2.45a6.17,6.17,0,0,0-.15,1.22c0,.24,0,.48-.27.6a.36.36,0,0,1-.44-.06.72.72,0,0,1-.23-.73c.28-1,.44-2.11.64-3.17a.85.85,0,0,1,.21-.46.39.39,0,0,1,.47-.09.36.36,0,0,1,.22.38Zm3.29.82c0,.3-.08.6-.46.58s-.41-.3-.41-.58c0-1,0-2,0-2.93,0-.28.07-.56.42-.56s.42.27.41.56V86h0C433.92,86.5,433.93,87,433.92,87.51ZM431,81.22c-.33,0-.58-.21-.55-.58a.5.5,0,0,1,.55-.45,46.88,46.88,0,0,0,5,.28,1,1,0,0,1,.86.72c.18.49-.18.86-.73.76s-1.26-.26-1.9-.35C433.2,81.45,432.12,81.35,431,81.22Zm5.77,7.61c-.29,0-.44-.13-.48-.4a37,37,0,0,0-.92-3.59c-.07-.27-.07-.56.27-.65s.45.11.51.36c.32,1.21.74,2.39,1,3.62,0,0,0,.09,0,.16C437.17,88.56,437.09,88.79,436.81,88.83Z" transform="translate(-0.59)"/><path class="cls-8" d="M465.75,88.45c-.18-.21-.13-.32,0-.5a11.22,11.22,0,0,0,1.16-1.49,4.69,4.69,0,0,0-1.4-6.59c-.42-.29-1.09-.24-1.28-.75a6.58,6.58,0,0,1-.16-1.55c0-.12,0-.25,0-.37-.1-1.89-.3-3.77-.54-5.65,0-.33,0-.48.36-.59a7.68,7.68,0,0,0,5.54-7.74,7.59,7.59,0,0,0-6.48-7c-.15,0-.45,0-.44-.16a4.85,4.85,0,0,0-.34-1.41,31.09,31.09,0,0,0-.7-3.71c-.1-.32-.23-.58-.59-.54s-.41.37-.4.64c.05,1.61-.06,3.22.08,4.82,0,.3,0,.41-.34.47a7.54,7.54,0,0,0,.5,14.82c.31,0,.42.13.41.46a72.4,72.4,0,0,0,.27,7.51c0,.27-.07.35-.32.41a9.13,9.13,0,0,0-2.06.82,1,1,0,0,1-.67.14,15.08,15.08,0,0,0-3.29-.07,3.59,3.59,0,0,0-2.69,1.46c-.55.72-.55,1.21.05,2.21a1.37,1.37,0,0,0,1.56.47,3,3,0,0,0,.84-.32,7.14,7.14,0,0,0,1.59-1.18,10.71,10.71,0,0,1,1.64-1.24,11.29,11.29,0,0,1,3-1.31c.35-.1.46,0,.48.34.06,1.61.11,3.22.24,4.82a6,6,0,0,0,.24,2.15c.06.13,0,.2-.09.28a28.35,28.35,0,0,1-3.35,3.13c-.82.57-.87.87-.45,1.78a.8.8,0,0,0,.71.46,37.49,37.49,0,0,0,7,.38q.94,0,1.89,0c.38,0,.73.07,1-.32.38-.67.38-1,0-1.48C467.71,90.84,466.74,89.64,465.75,88.45ZM462,69.36a5.67,5.67,0,1,1,5.68-5.69A5.67,5.67,0,0,1,462,69.36Zm2.42,11a3.14,3.14,0,0,1,1.86,2.19c.51,1.68-.41,2.89-1.4,4.13C464.69,84.6,464.54,82.53,464.39,80.41Z" transform="translate(-0.59)"/><path class="cls-8" d="M453,72a1.6,1.6,0,0,0-1.41-1.89,1.58,1.58,0,0,0-1.74,1.71c.1.28-.08.43-.34.58-.48.26-1,.57-1.41.87-1.12.73-2.21,1.5-3.36,2.19a.47.47,0,0,1-.74-.18c-.08-.11-.13-.25-.2-.37-.58-1.17-1.16-2.34-1.75-3.51-.69-1.34-1.46-2.64-2.25-3.93-.07-.12-.13-.28-.31-.21s-.16.22-.13.36a2.53,2.53,0,0,0,.14.49L442.82,76a2.91,2.91,0,0,0,.54.89.71.71,0,0,0,1.24-.14.53.53,0,0,1,.32-.3,14.31,14.31,0,0,0,2.73-1.39l2.73-1.7a.82.82,0,0,1,.67-.11A1.57,1.57,0,0,0,453,72Z" transform="translate(-0.59)"/><path class="cls-8" d="M440.56,62.93c.06.51-.35.82-.49,1.24-.05.15-.17.27-.21.43l.53-.76c.18.22.35.44.53.65a37.44,37.44,0,0,0,5.2,4.79,1,1,0,0,0,1.56-.51,4.3,4.3,0,0,1,.31-1.13c.44-1.22.89-2.44,1.35-3.68a1.71,1.71,0,0,0,1.39.27,1.61,1.61,0,0,0,1.17-1.86,1.6,1.6,0,0,0-3.17.3,1.47,1.47,0,0,1,0,.69c-.67,1.36-1.33,2.71-2,4.09a16.67,16.67,0,0,1-2.23-1.4,29,29,0,0,0-3.77-2.64c-.14-.06-.06-.15-.08-.23-.13-.65.24-1.22.29-1.84A2.68,2.68,0,0,0,440.56,62.93Z" transform="translate(-0.59)"/><path class="cls-8" d="M440.51,62.35a1.9,1.9,0,0,1-.3,1.33,2,2,0,0,0-.35.92c0-.16.16-.28.21-.43.14-.42.55-.73.49-1.24a2.68,2.68,0,0,1,.34-1.59A1.21,1.21,0,0,0,440.51,62.35Z" transform="translate(-0.59)"/><path d="M461.93,58.88a4.7,4.7,0,1,0,4.8,4.67A4.68,4.68,0,0,0,461.93,58.88Z" transform="translate(-0.59)"/></g><path class="cls-6" d="M385.51,117.89a4.4,4.4,0,0,1,2.47.59,2.35,2.35,0,0,1,1,2.06,2.94,2.94,0,0,1-3.17,2.89,2.29,2.29,0,0,1-.41,0l-.87-.22v2c0,1.18.1,1.22,1.35,1.35V127h-4.25v-.47c1.1-.13,1.21-.19,1.21-1.36v-5.42c0-1.2-.14-1.3-1.21-1.38v-.48Zm-.95,4.73a2,2,0,0,0,.85.16c.74,0,1.83-.41,1.83-2.23,0-1.56-.91-2.11-1.91-2.11a1,1,0,0,0-.63.14c-.1.09-.14.24-.14.51Z" transform="translate(-0.59)"/><path class="cls-6" d="M394.94,125.69a3.2,3.2,0,0,1-2.48,1.48,2.84,2.84,0,0,1-2.87-3,3.68,3.68,0,0,1,1-2.5,3.05,3.05,0,0,1,2.15-1,2.27,2.27,0,0,1,2.26,2.24c0,.25,0,.45-.22.5s-2.18.17-3.65.23c0,1.62,1,2.38,2,2.38a2.39,2.39,0,0,0,1.61-.66Zm-2.5-4.49c-.59,0-1.12.64-1.24,1.75l1.94,0c.22,0,.3,0,.3-.28C393.45,121.91,393.07,121.2,392.44,121.2Z" transform="translate(-0.59)"/><path class="cls-6" d="M399.36,127h-3.53v-.45c.79-.08.87-.15.87-1v-3c0-.78-.06-.84-.77-1v-.41a10.94,10.94,0,0,0,2.33-.55v1.53c.58-.89,1.11-1.49,1.73-1.49a.81.81,0,0,1,.88.78,1.21,1.21,0,0,1-.63,1,.33.33,0,0,1-.41,0c-.23-.2-.41-.4-.65-.4s-.65.27-.92.87v2.65c0,.87.08.92,1.1,1Z" transform="translate(-0.59)"/><path class="cls-6" d="M406.76,125.68a3.3,3.3,0,0,1-2.43,1.49,2.91,2.91,0,0,1-3-3,3.34,3.34,0,0,1,1.42-2.7,3.93,3.93,0,0,1,2.33-.84,2.18,2.18,0,0,1,1.26.35.52.52,0,0,1,.25.48.82.82,0,0,1-.58.73.45.45,0,0,1-.3-.15,2.29,2.29,0,0,0-1.44-.68c-.68,0-1.39.62-1.39,2.11a2.24,2.24,0,0,0,2,2.51,2.11,2.11,0,0,0,1.57-.65Z" transform="translate(-0.59)"/><path class="cls-6" d="M414.48,126.67c-.78.11-1.63.29-2.48.5v-1a3.25,3.25,0,0,1-2,1c-1.09,0-1.8-.69-1.8-2v-2.84c0-.68-.1-.75-.46-.84l-.33-.08V121c.67,0,1.72-.14,2.39-.24,0,.54,0,1.25,0,2.09v2c0,1,.53,1.35,1.07,1.35a1.57,1.57,0,0,0,1.18-.5V122.3c0-.68-.1-.79-.53-.86l-.43-.07V121a24.84,24.84,0,0,0,2.53-.24v4.61c0,.72.1.85.57.89l.34,0Z" transform="translate(-0.59)"/><path class="cls-6" d="M419,122.57c-.33-.92-.76-1.41-1.49-1.41a.77.77,0,0,0-.79.8c0,.53.37.8,1.12,1.14,1.16.53,1.87,1,1.87,2a2.23,2.23,0,0,1-2.46,2,4.23,4.23,0,0,1-1.73-.41c-.06-.35-.19-1.25-.24-1.73l.44-.08c.28.89.83,1.68,1.76,1.68a.79.79,0,0,0,.87-.81c0-.5-.27-.82-1.1-1.22s-1.8-.94-1.8-2,.89-1.91,2.32-1.91a6.57,6.57,0,0,1,1.45.2c0,.36.16,1.25.22,1.62Z" transform="translate(-0.59)"/><path class="cls-6" d="M424.36,122.57c-.32-.92-.76-1.41-1.49-1.41a.77.77,0,0,0-.78.8c0,.53.37.8,1.12,1.14,1.15.53,1.87,1,1.87,2a2.23,2.23,0,0,1-2.46,2,4.25,4.25,0,0,1-1.74-.41c-.06-.35-.19-1.25-.23-1.73l.44-.08c.28.89.82,1.68,1.76,1.68a.79.79,0,0,0,.86-.81c0-.5-.27-.82-1.09-1.22s-1.81-.94-1.81-2,.9-1.91,2.32-1.91a6.68,6.68,0,0,1,1.46.2c0,.36.15,1.25.22,1.62Z" transform="translate(-0.59)"/><path class="cls-6" d="M425.91,127v-.45c.8-.09.88-.15.88-1.13v-2.79c0-.91-.06-1-.78-1.07v-.42a13.72,13.72,0,0,0,2.35-.52v4.8c0,1,.07,1,.91,1.13V127Zm1.57-7.42a.91.91,0,1,1,0-1.82.9.9,0,0,1,.91.92A.91.91,0,0,1,427.48,119.58Z" transform="translate(-0.59)"/><path class="cls-6" d="M433.3,120.64a3.08,3.08,0,0,1,3.17,3.15A3.23,3.23,0,1,1,430,124,3.26,3.26,0,0,1,433.3,120.64Zm-.16.53c-.69,0-1.35.7-1.35,2.39s.65,3.06,1.63,3.06c.65,0,1.28-.45,1.28-2.45C434.7,122.33,434.13,121.17,433.14,121.17Z" transform="translate(-0.59)"/><path class="cls-6" d="M441.36,127v-.45c.67-.08.72-.15.72-1.11v-2.37c0-1-.44-1.42-1.08-1.42a2,2,0,0,0-1.23.53v3.35c0,.89.07.94.73,1V127h-3.17v-.45c.8-.11.88-.14.88-1.06v-2.9c0-.87-.11-.91-.77-1v-.42a13.15,13.15,0,0,0,2.35-.54c0,.24,0,.71,0,1,.28-.2.58-.41.92-.62a2,2,0,0,1,1.11-.38c1.13,0,1.84.82,1.84,2.23v2.65c0,.9.09.94.81,1V127Z" transform="translate(-0.59)"/><path class="cls-6" d="M448.35,127v-.45c.8-.09.89-.15.89-1.13v-2.79c0-.91-.06-1-.79-1.07v-.42a13.51,13.51,0,0,0,2.35-.52v4.8c0,1,.07,1,.91,1.13V127Zm1.57-7.42a.91.91,0,1,1,0-1.82.89.89,0,0,1,.9.92A.91.91,0,0,1,449.92,119.58Z" transform="translate(-0.59)"/><path class="cls-6" d="M456.41,127v-.45c.66-.08.72-.15.72-1.11v-2.37c0-1-.44-1.42-1.08-1.42a2,2,0,0,0-1.23.53v3.35c0,.89.07.94.73,1V127h-3.17v-.45c.79-.11.88-.14.88-1.06v-2.9c0-.87-.11-.91-.77-1v-.42a13.36,13.36,0,0,0,2.35-.54c0,.24,0,.71,0,1,.28-.2.58-.41.92-.62a2,2,0,0,1,1.11-.38c1.13,0,1.84.82,1.84,2.23v2.65c0,.9.09.94.81,1V127Z" transform="translate(-0.59)"/><path class="cls-6" d="M464,122.57c-.33-.92-.77-1.41-1.49-1.41a.77.77,0,0,0-.79.8c0,.53.37.8,1.12,1.14,1.16.53,1.87,1,1.87,2a2.23,2.23,0,0,1-2.46,2,4.29,4.29,0,0,1-1.74-.41c-.06-.35-.18-1.25-.23-1.73l.44-.08c.28.89.83,1.68,1.76,1.68a.79.79,0,0,0,.86-.81c0-.5-.27-.82-1.09-1.22s-1.81-.94-1.81-2,.9-1.91,2.32-1.91a6.68,6.68,0,0,1,1.46.2c0,.36.16,1.25.22,1.62Z" transform="translate(-0.59)"/><path class="cls-6" d="M468.32,127a1.51,1.51,0,0,1-.58.17c-1,0-1.6-.52-1.6-1.74v-4h-.92l-.07-.17.39-.49h.6v-1.16c.4-.32,1-.74,1.4-1l.2.08c0,.45-.05,1.22,0,2.13h1.47a.54.54,0,0,1-.1.66H467.7V125c0,1.1.45,1.26.75,1.26a1.83,1.83,0,0,0,.74-.17l.13.46Z" transform="translate(-0.59)"/><path class="cls-6" d="M473.36,127h-3.53v-.45c.79-.08.87-.15.87-1v-3c0-.78-.06-.84-.77-1v-.41a10.94,10.94,0,0,0,2.33-.55v1.53c.58-.89,1.12-1.49,1.73-1.49a.81.81,0,0,1,.88.78,1.21,1.21,0,0,1-.63,1,.33.33,0,0,1-.41,0c-.23-.2-.41-.4-.65-.4s-.65.27-.92.87v2.65c0,.87.09.92,1.1,1Z" transform="translate(-0.59)"/><path class="cls-6" d="M482.62,126.67c-.78.11-1.63.29-2.48.5v-1a3.25,3.25,0,0,1-2,1c-1.09,0-1.8-.69-1.8-2v-2.84c0-.68-.1-.75-.47-.84l-.33-.08V121c.68,0,1.72-.14,2.4-.24,0,.54,0,1.25,0,2.09v2c0,1,.52,1.35,1.06,1.35a1.57,1.57,0,0,0,1.19-.5V122.3c0-.68-.11-.79-.53-.86l-.43-.07V121a25.12,25.12,0,0,0,2.53-.24v4.61c0,.72.09.85.57.89l.34,0Z" transform="translate(-0.59)"/><path class="cls-6" d="M491,127v-.45c.66-.08.76-.14.76-1v-2.39c0-1.1-.48-1.46-1.06-1.46a2,2,0,0,0-1.22.54c0,.17,0,.36,0,.59v2.79c0,.82.07.89.76,1V127h-3.1v-.45c.71-.08.79-.13.79-1v-2.5c0-1-.37-1.42-1-1.42a2.09,2.09,0,0,0-1.24.53v3.39c0,.83.08.9.7,1V127h-3.14v-.45c.82-.09.88-.15.88-1v-2.94c0-.82,0-.93-.73-1v-.41a12.18,12.18,0,0,0,2.29-.54v1.07c.3-.21.56-.41.91-.62a2,2,0,0,1,1.16-.41,1.62,1.62,0,0,1,1.56,1.09c.35-.27.66-.48,1-.72a2.11,2.11,0,0,1,1.12-.37c1.17,0,1.83.81,1.83,2.22v2.71c0,.83.07.88.8,1V127Z" transform="translate(-0.59)"/><path class="cls-6" d="M500.29,125.69a3.2,3.2,0,0,1-2.48,1.48,2.83,2.83,0,0,1-2.87-3,3.68,3.68,0,0,1,1-2.5,3,3,0,0,1,2.15-1,2.25,2.25,0,0,1,2.25,2.24c0,.25,0,.45-.21.5s-2.19.17-3.65.23c0,1.62,1,2.38,2,2.38a2.39,2.39,0,0,0,1.61-.66Zm-2.5-4.49c-.59,0-1.12.64-1.24,1.75l1.94,0c.21,0,.3,0,.3-.28C498.8,121.91,498.42,121.2,497.79,121.2Z" transform="translate(-0.59)"/><path class="cls-6" d="M505.2,127v-.45c.66-.08.72-.15.72-1.11v-2.37c0-1-.44-1.42-1.08-1.42a2,2,0,0,0-1.23.53v3.35c0,.89.07.94.73,1V127h-3.17v-.45c.79-.11.88-.14.88-1.06v-2.9c0-.87-.11-.91-.77-1v-.42a13.36,13.36,0,0,0,2.35-.54c0,.24,0,.71,0,1,.28-.2.58-.41.92-.62a2,2,0,0,1,1.11-.38c1.13,0,1.84.82,1.84,2.23v2.65c0,.9.09.94.81,1V127Z" transform="translate(-0.59)"/><path class="cls-6" d="M511.83,127a1.46,1.46,0,0,1-.58.17c-1,0-1.6-.52-1.6-1.74v-4h-.92l-.07-.17.39-.49h.6v-1.16c.4-.32,1-.74,1.4-1l.2.08c0,.45,0,1.22,0,2.13h1.47a.54.54,0,0,1-.1.66h-1.37V125c0,1.1.45,1.26.75,1.26a1.79,1.79,0,0,0,.74-.17l.13.46Z" transform="translate(-0.59)"/><path class="cls-6" d="M517.2,122.57c-.33-.92-.77-1.41-1.49-1.41a.77.77,0,0,0-.79.8c0,.53.37.8,1.12,1.14,1.16.53,1.87,1,1.87,2a2.23,2.23,0,0,1-2.46,2,4.29,4.29,0,0,1-1.74-.41c-.06-.35-.18-1.25-.23-1.73l.44-.08c.28.89.83,1.68,1.76,1.68a.79.79,0,0,0,.86-.81c0-.5-.27-.82-1.09-1.22s-1.81-.94-1.81-2,.9-1.91,2.32-1.91a6.68,6.68,0,0,1,1.46.2c0,.36.16,1.25.22,1.62Z" transform="translate(-0.59)"/><line class="cls-9" x1="289.32" y1="79.5" x2="351.32" y2="79.5"/><line class="cls-10" x1="156.32" y1="142.5" x2="196.82" y2="142.5"/><path d="M365.86,74.33a3.49,3.49,0,0,1,1.6-.43,4.44,4.44,0,0,1,4.47,4.63,5.27,5.27,0,0,1-5.15,5.52c-2.95,0-5.2-2.42-5.2-6.25a10.21,10.21,0,0,1,6.93-9.42,20.45,20.45,0,0,1,2.82-.65l.15.82a15.31,15.31,0,0,0-2.72.85,7.94,7.94,0,0,0-4.58,5.78Zm.6,1A5,5,0,0,0,364,76a8.38,8.38,0,0,0-.15,1.7c0,3.12,1.18,5.42,3.3,5.42,1.95,0,2.55-2.05,2.55-3.72C369.73,77.35,368.73,75.33,366.46,75.33Z" transform="translate(-0.59)"/><path d="M375.06,83.75v-.7c2.77-.17,2.92-.3,2.92-2.17v-9.6c0-1.28-.17-1.33-1.27-1.43l-1.23-.12V69.1a20.5,20.5,0,0,0,4.58-1.22v13c0,1.9.15,2,2.94,2.17v.7Z" transform="translate(-0.59)"/><text class="cls-3" transform="translate(136.49 149.67)">%</text><g class="cls-7"><path d="M112,136.88l1.18-1.58a4.36,4.36,0,0,1,3.22-1.42c2.28,0,3.78,1.42,3.78,3.32a2.72,2.72,0,0,1-.78,1.85,10.12,10.12,0,0,1-1.77,1.35c2.32.5,3.69,2,3.69,3.85,0,4.08-4.79,5.8-6.57,5.8a4,4,0,0,1-2.6-.88,1.08,1.08,0,0,1-.37-.82,1.49,1.49,0,0,1,.57-.95.47.47,0,0,1,.65,0,4.61,4.61,0,0,0,3.1,1.32c1.8,0,3.08-1.35,3.08-3.77a3.07,3.07,0,0,0-3.3-3.2,6.56,6.56,0,0,0-1.68.27l-.17-.75c2.22-.72,4-1.72,4-3.57a2.19,2.19,0,0,0-2.4-2.33,4,4,0,0,0-3.12,2Z" transform="translate(-0.59)"/><path d="M125.06,149.75v-.7c2.77-.17,2.92-.3,2.92-2.17v-9.6c0-1.28-.17-1.33-1.27-1.43l-1.23-.12v-.63a20.5,20.5,0,0,0,4.58-1.22v13c0,1.9.15,2,2.94,2.17v.7Z" transform="translate(-0.59)"/></g><text class="cls-3" transform="translate(127.49 41.67)">%</text><path d="M118.93,25.88a3.82,3.82,0,0,1,4.08,3.7,3.08,3.08,0,0,1-.7,2,22.23,22.23,0,0,1-2.08,1.6c1.73.95,3.42,2.15,3.42,4.33,0,2.92-2.64,4.52-5,4.52-2.77,0-4.82-1.6-4.82-4.12A3,3,0,0,1,115,35.45a22.69,22.69,0,0,1,2.25-1.55c-1.63-.95-2.78-2.15-2.78-3.92A4.22,4.22,0,0,1,118.93,25.88Zm0,15.32a2.6,2.6,0,0,0,2.7-2.92c0-2-1.67-3-3.7-4a3.82,3.82,0,0,0-2.1,3.42C115.83,40.05,117.28,41.2,118.93,41.2Zm-.32-14.5a2.31,2.31,0,0,0-2.28,2.58c0,1.82,1.23,2.5,3.18,3.52a3.65,3.65,0,0,0,1.65-3.1C121.16,27.6,119.91,26.7,118.61,26.7Z" transform="translate(-0.59)"/><polyline class="cls-11" points="235.32 49 209.65 35.5 147.32 35.5"/><path class="cls-12" d="M245.91,106.48l-44.11,49A65.91,65.91,0,1,0,290,57.5a64.1,64.1,0,0,0-44.1-16.94Z" transform="translate(-0.59)"/></g></g></svg>