<svg xmlns="http://www.w3.org/2000/svg" viewBox="0 0 282.58 102.37"><defs><style>.cls-1{fill:#fefefe;fill-rule:evenodd;}</style></defs><title>资源 1</title><g id="图层_2" data-name="图层 2"><g id="图层_1-2" data-name="图层 1"><path class="cls-1" d="M91.07,71.39c-13.26-5.57-14.69-14-4.17-18,12-4.61,27-.45,30.11,8.37,3.59,10.15-8.91,19.44-25.68,20-24.34.84-41.06-17-31.21-32C68,37.65,91.88,30.62,112.06,33.43c21.46,3,31.35,12.77,38.52,24.44,7,11.33,14.11,22.49,32.51,28.34,15.16,4.82,31.32,6.15,48,4.64,15.53-1.41,31.23-2,46.65-4,1.46-.19,3.44-1,4.48.17s-.66,2.25-2,3c-4.61,2.49-9.2,5.13-15,6.5-12.63,3-25.49,5.55-39.06,5.82-21.47.42-42.59-.56-61.93-7.49a20.66,20.66,0,0,0-11.51-.73c-14.06,2.78-27.62,1.2-40.4-3-3.91-1.28-5.47,0-7.68,1.37a60.79,60.79,0,0,1-32.71,9c-18.91-.17-35.33-4.23-45-15.39a19.16,19.16,0,0,1-4.86-11.21C22,72.44,20.41,70.81,17,69.63-2.35,62.82-4.17,47.52,6.42,37.32c6.36-6.12,16.27-7.74,26.72-8.65a51.92,51.92,0,0,1,6.72-.13c3.35.16,4.54-.73,5-2.84C46.19,20,49.25,14.89,55.4,10.44,68.62.88,85.77-1.08,104.05.48c12.62,1.07,22.35,6,29.09,13,2.44,2.54,4.84,2.88,8.86,1.37,23.74-9,50.79,1.69,52.63,17.34.51,4.3-2.18,6.93-7.53,8.91s-10.17.43-14.9-1.11a10.45,10.45,0,0,1-2.69-1.55c-3.29-2.28-6.31-4.87-3.37-7.95,2.55-2.68,6.57-3.88,11.9-.7-2.6-3.93-10.15-4.5-14.31-1.64-3.14,2.15-4.7,4.75-2.2,7.83,3.72,4.58,9.6,7.29,17.2,8.57,6.25,1.05,14.69-1.49,18.27-6,2.24-2.84,4.06-2.23,6.86-.79,8.21,4.23,11.42,9.81,9.66,16.28C211.64,61,205,65.63,194.33,67.65c-6,1.12-6.47,1.43-2,4.26,10.05,6.4,20.61,12.42,34.91,14.75,1.51.25,2.72.52,2.86,1.65-31.81,1.44-59.82-2.57-73-27.72-4.18-8-10.63-15.23-19.83-21.29C122.41,29.51,104.22,28.23,85,32.23,60.73,37.3,46.8,51.9,55.9,68.92,60,76.5,73.13,84.34,89.18,84.32c12.23,0,26.38-4.78,31.05-12.95,6-10.57-5.53-22.27-23.06-22.73-7.61-.2-17.42,4.52-19.7,9.48-2.37,5.14,1,10.08,8.46,12.94C87.41,71.63,88.48,71.53,91.07,71.39Zm1.69.36a3.19,3.19,0,0,0,1.09.22c.7-.13,2.26.16,1.8-.6C95.38,70.94,93.6,71,92.76,71.75Z"/></g></g></svg>