<svg xmlns="http://www.w3.org/2000/svg" viewBox="0 0 272.94 236.69"><defs><style>.cls-1{fill:#3b303f;}.cls-2{fill:#4b94ab;}.cls-3{fill:#eaaa26;}.cls-4{fill:#eef4d7;}</style></defs><title>七弦琴</title><g id="图层_2" data-name="图层 2"><g id="图层_1-2" data-name="图层 1"><path class="cls-1" d="M224,14.88c6,2.07,31.78,34.89,31.78,34.89L243.45,61.3c-4.07-2.69-9.61,1-9.61,1-24,17.19-22.53,26.42-22.53,26.42l-98.07,77-5.36,1.63L63.77,202.51l-1.18,2.8L28.16,232.5l-15.82-1.95c-.7-1-9-10.9-9-10.9l1.83-14.29,34.11-30.11,2.24-.62,42.87-36.94,2-3.61L180,51s7.22-.56,9.54-2.51S217,27.66,219,22.67a9.52,9.52,0,0,0,1.33-4.84Z"/><circle class="cls-2" cx="31.45" cy="194.3" r="1.61"/><circle class="cls-2" cx="41.23" cy="185.79" r="1.61"/><circle class="cls-2" cx="49.38" cy="178.7" r="1.61"/><circle class="cls-2" cx="59.33" cy="170.05" r="1.61"/><circle class="cls-2" cx="77.64" cy="153.55" r="1.61"/><circle class="cls-2" cx="92.97" cy="139.2" r="1.61"/><circle class="cls-2" cx="114.82" cy="119.68" r="1.61"/><circle class="cls-2" cx="136.91" cy="99.95" r="1.61"/><circle class="cls-2" cx="152.47" cy="85.89" r="1.61"/><circle class="cls-2" cx="171.28" cy="68.85" r="1.61"/><circle class="cls-2" cx="181.27" cy="59.87" r="1.61"/><circle class="cls-2" cx="190.38" cy="51.85" r="1.61"/><circle class="cls-2" cx="199.52" cy="43.73" r="1.61"/><rect class="cls-3" x="9.75" y="217.52" width="0.36" height="13.79" transform="translate(-142.21 59.15) rotate(-40.1)"/><path class="cls-4" d="M17.85,224.83l-6.91,6.06L13,233.61l7.76,3.08,3.12-.58,20-15.9s-4.3-2.39-12,2.63S23.39,228.7,17.85,224.83Z"/><path class="cls-4" d="M11.19,216.78,4,222.56l-2.33-2.49L0,211.9l1.1-3,19.08-17s1.62,4.64-4.63,11.34S8.33,210.66,11.19,216.78Z"/><path class="cls-1" d="M225.89,12.76s15.38,12.37,31.68,35.34l15.37-13S249.09,4,241.42,0"/><ellipse class="cls-4" cx="231.07" cy="15.77" rx="1.32" ry="1.96" transform="translate(44.16 152.54) rotate(-40.1)"/><ellipse class="cls-4" cx="235.24" cy="19.87" rx="1.32" ry="1.96" transform="translate(42.5 156.19) rotate(-40.1)"/><ellipse class="cls-4" cx="238.83" cy="24.13" rx="1.32" ry="1.96" transform="translate(40.6 159.51) rotate(-40.1)"/><ellipse class="cls-4" cx="242.53" cy="28.67" rx="1.32" ry="1.96" transform="translate(38.54 162.96) rotate(-40.1)"/><ellipse class="cls-4" cx="246.46" cy="33.05" rx="1.32" ry="1.96" transform="translate(36.65 166.52) rotate(-40.1)"/><ellipse class="cls-4" cx="249.26" cy="36.89" rx="1.32" ry="1.96" transform="translate(34.83 169.22) rotate(-40.1)"/><path class="cls-3" d="M5.74,222.53a.24.24,0,0,1-.14-.05.19.19,0,0,1,0-.26L230.71,16.16a.18.18,0,0,1,.25,0,.19.19,0,0,1,0,.26L5.86,222.49A.19.19,0,0,1,5.74,222.53Z"/><path class="cls-3" d="M10.48,228.19a.18.18,0,0,1-.11-.32L249.63,37.72a.18.18,0,0,1,.26,0,.19.19,0,0,1,0,.25L10.59,228.15A.15.15,0,0,1,10.48,228.19Z"/><path class="cls-3" d="M9.71,227.18a.17.17,0,0,1-.14-.07.19.19,0,0,1,0-.25L245.72,33.08a.18.18,0,1,1,.23.28L9.82,227.14A.15.15,0,0,1,9.71,227.18Z"/><path class="cls-3" d="M8.84,225.9a.18.18,0,0,1-.12-.32L242.16,28.75a.18.18,0,0,1,.23.28L9,225.86A.19.19,0,0,1,8.84,225.9Z"/><path class="cls-3" d="M7.67,224.63a.2.2,0,0,1-.14-.06.18.18,0,0,1,0-.25l230.76-200a.2.2,0,0,1,.26,0,.19.19,0,0,1,0,.26L7.79,224.59A.19.19,0,0,1,7.67,224.63Z"/><path class="cls-3" d="M6.64,223.35a.18.18,0,0,1-.12-.31L233.77,20.79l.89-.75a.19.19,0,0,1,.26,0,.18.18,0,0,1,0,.25l-.89.75L6.76,223.31A.16.16,0,0,1,6.64,223.35Z"/><ellipse class="cls-4" cx="252.23" cy="41.13" rx="1.32" ry="1.96" transform="translate(32.79 172.13) rotate(-40.1)"/><path class="cls-3" d="M11.48,229.47a.16.16,0,0,1-.14-.07.18.18,0,0,1,0-.25L252,41.25a.2.2,0,0,1,.26,0,.19.19,0,0,1,0,.26L11.59,229.43A.15.15,0,0,1,11.48,229.47Z"/></g></g></svg>