<svg xmlns="http://www.w3.org/2000/svg" viewBox="0 0 209.3 142.61"><defs><style>.cls-1{fill:#3b303f;}.cls-2{fill:#eef4d7;}.cls-3{fill:#4b94ab;}.cls-4{fill:none;stroke:#eef4d7;stroke-linecap:round;stroke-miterlimit:10;stroke-width:0.41px;}</style></defs><title>凤箫</title><g id="图层_2" data-name="图层 2"><g id="图层_1-2" data-name="图层 1"><ellipse class="cls-1" cx="59.59" cy="1.57" rx="1.59" ry="1.08"/><path class="cls-2" d="M60.35,0V2.08H58.88V0a2.18,2.18,0,0,0-2.15,1.45V18.88h5.7V1.45A2.1,2.1,0,0,0,60.35,0Z"/><ellipse class="cls-1" cx="47.14" cy="1.57" rx="1.59" ry="1.08"/><path class="cls-2" d="M47.9,0V2.08H46.43V0a2.18,2.18,0,0,0-2.15,1.45V18.88H50V1.45A2.1,2.1,0,0,0,47.9,0Z"/><ellipse class="cls-1" cx="34.69" cy="1.57" rx="1.59" ry="1.08"/><path class="cls-2" d="M35.45,0V2.08H34V0a2.18,2.18,0,0,0-2.15,1.45V18.88h5.71V1.45A2.11,2.11,0,0,0,35.45,0Z"/><ellipse class="cls-1" cx="72.04" cy="1.57" rx="1.59" ry="1.08"/><path class="cls-2" d="M72.8,0V2.08H71.33V0a2.18,2.18,0,0,0-2.15,1.45V18.88h5.7V1.45A2.1,2.1,0,0,0,72.8,0Z"/><ellipse class="cls-1" cx="84.49" cy="1.57" rx="1.59" ry="1.08"/><path class="cls-2" d="M85.24,0V2.08H83.78V0a2.18,2.18,0,0,0-2.15,1.45V18.88h5.7V1.45A2.11,2.11,0,0,0,85.24,0Z"/><ellipse class="cls-1" cx="96.94" cy="1.57" rx="1.59" ry="1.08"/><path class="cls-2" d="M97.69,0V2.08H96.23V0a2.18,2.18,0,0,0-2.15,1.45V18.88h5.7V1.45A2.11,2.11,0,0,0,97.69,0Z"/><ellipse class="cls-1" cx="53.37" cy="1.57" rx="1.59" ry="1.08"/><path class="cls-2" d="M54.12,0V2.08H52.66V0A2.19,2.19,0,0,0,50.5,1.45V18.88h5.71V1.45A2.11,2.11,0,0,0,54.12,0Z"/><ellipse class="cls-1" cx="40.92" cy="1.57" rx="1.59" ry="1.08"/><path class="cls-2" d="M41.67,0V2.08H40.21V0a2.19,2.19,0,0,0-2.16,1.45V18.88h5.71V1.45A2.11,2.11,0,0,0,41.67,0Z"/><ellipse class="cls-1" cx="28.47" cy="1.57" rx="1.59" ry="1.08"/><path class="cls-2" d="M29.22,0V2.08H27.76V0A2.19,2.19,0,0,0,25.6,1.45V18.88h5.71V1.45A2.11,2.11,0,0,0,29.22,0Z"/><ellipse class="cls-1" cx="65.82" cy="1.57" rx="1.59" ry="1.08"/><path class="cls-2" d="M66.57,0V2.08H65.11V0A2.19,2.19,0,0,0,63,1.45V18.88h5.71V1.45A2.11,2.11,0,0,0,66.57,0Z"/><ellipse class="cls-1" cx="78.26" cy="1.57" rx="1.59" ry="1.08"/><path class="cls-2" d="M79,0V2.08H77.56V0A2.19,2.19,0,0,0,75.4,1.45V18.88h5.71V1.45A2.11,2.11,0,0,0,79,0Z"/><ellipse class="cls-1" cx="90.71" cy="1.57" rx="1.59" ry="1.08"/><path class="cls-2" d="M91.47,0V2.08H90V0a2.19,2.19,0,0,0-2.16,1.45V18.88h5.71V1.45A2.11,2.11,0,0,0,91.47,0Z"/><ellipse class="cls-1" cx="143.83" cy="1.57" rx="1.59" ry="1.08"/><path class="cls-2" d="M144.59,0V2.08h-1.47V0A2.18,2.18,0,0,0,141,1.45V18.88h5.7V1.45A2.1,2.1,0,0,0,144.59,0Z"/><ellipse class="cls-1" cx="131.38" cy="1.57" rx="1.59" ry="1.08"/><path class="cls-2" d="M132.14,0V2.08h-1.47V0a2.18,2.18,0,0,0-2.15,1.45V18.88h5.7V1.45A2.1,2.1,0,0,0,132.14,0Z"/><ellipse class="cls-1" cx="118.93" cy="1.57" rx="1.59" ry="1.08"/><path class="cls-2" d="M119.69,0V2.08h-1.47V0a2.18,2.18,0,0,0-2.15,1.45V18.88h5.71V1.45A2.11,2.11,0,0,0,119.69,0Z"/><ellipse class="cls-1" cx="156.28" cy="1.57" rx="1.59" ry="1.08"/><path class="cls-2" d="M157,0V2.08h-1.47V0a2.18,2.18,0,0,0-2.15,1.45V18.88h5.7V1.45A2.1,2.1,0,0,0,157,0Z"/><ellipse class="cls-1" cx="168.73" cy="1.57" rx="1.59" ry="1.08"/><path class="cls-2" d="M169.49,0V2.08H168V0a2.18,2.18,0,0,0-2.15,1.45V18.88h5.7V1.45A2.1,2.1,0,0,0,169.49,0Z"/><ellipse class="cls-1" cx="181.18" cy="1.57" rx="1.59" ry="1.08"/><path class="cls-2" d="M181.93,0V2.08h-1.46V0a2.18,2.18,0,0,0-2.15,1.45V18.88H184V1.45A2.11,2.11,0,0,0,181.93,0Z"/><ellipse class="cls-1" cx="137.61" cy="1.57" rx="1.59" ry="1.08"/><path class="cls-2" d="M138.36,0V2.08H136.9V0a2.19,2.19,0,0,0-2.16,1.45V18.88h5.71V1.45A2.11,2.11,0,0,0,138.36,0Z"/><ellipse class="cls-1" cx="125.16" cy="1.57" rx="1.59" ry="1.08"/><path class="cls-2" d="M125.91,0V2.08h-1.46V0a2.19,2.19,0,0,0-2.16,1.45V18.88H128V1.45A2.11,2.11,0,0,0,125.91,0Z"/><ellipse class="cls-1" cx="112.71" cy="1.57" rx="1.59" ry="1.08"/><path class="cls-2" d="M113.46,0V2.08H112V0a2.19,2.19,0,0,0-2.16,1.45V18.88h5.71V1.45A2.11,2.11,0,0,0,113.46,0Z"/><ellipse class="cls-1" cx="150.06" cy="1.57" rx="1.59" ry="1.08"/><path class="cls-2" d="M150.81,0V2.08h-1.46V0a2.19,2.19,0,0,0-2.16,1.45V18.88h5.71V1.45A2.11,2.11,0,0,0,150.81,0Z"/><ellipse class="cls-1" cx="162.51" cy="1.57" rx="1.59" ry="1.08"/><path class="cls-2" d="M163.26,0V2.08H161.8V0a2.19,2.19,0,0,0-2.16,1.45V18.88h5.71V1.45A2.11,2.11,0,0,0,163.26,0Z"/><ellipse class="cls-1" cx="174.95" cy="1.57" rx="1.59" ry="1.08"/><path class="cls-2" d="M175.71,0V2.08h-1.46V0a2.19,2.19,0,0,0-2.16,1.45V18.88h5.71V1.45A2.11,2.11,0,0,0,175.71,0Z"/><path class="cls-3" d="M186.26,18.88H23a8.34,8.34,0,0,0-5.16,1.79H191.43A8.35,8.35,0,0,0,186.26,18.88Z"/><rect class="cls-3" x="22.23" y="29.07" width="165.49" height="4.77"/><path class="cls-1" d="M191.43,20.67H17.87a8.38,8.38,0,0,0-3.23,6.6h0A3.76,3.76,0,0,0,18.39,31H190.9a3.77,3.77,0,0,0,3.76-3.75h0A8.38,8.38,0,0,0,191.43,20.67Z"/><rect class="cls-2" x="11.33" y="33.52" width="184.95" height="22.12" rx="1.88"/><path class="cls-1" d="M209.3,61.82V57.05a20.46,20.46,0,0,0-20.39-20.39H20.39A20.45,20.45,0,0,0,0,57.05v4.77A20.29,20.29,0,0,0,6.32,76.53c1.47,1.82,9.82,12.79,8.92,27-1,15.62-3,14.53-4.54,17.68,0,0-1.28,1.08-5.44,2.49S.65,127.86.65,129.16s.55,2,1.86,3.15c0,0-2.7,3.08-.1,5.11s4.68,1,4.68,1,0,2.36,3.42,1.1c0,0,5.44,6.59,13.56.63A4.53,4.53,0,0,0,28,138.65s10.86-1.57,5.16-11c0,0,11.68-22.24,23-32.32,0,0,23.37.32,16.65-9.87,0,0-2-3.25,6.63-3.25,0,0,7.15.51,4.77,3.36s2.13,6.51,2.13,6.51S98.2,96.52,105,97.82h0c6.74-1.3,18.48-5.74,18.48-5.74s4.5-3.66,2.13-6.51,4.74-3.36,4.74-3.36c8.58,0,6.59,3.25,6.59,3.25-6.68,10.19,16.55,9.87,16.55,9.87,11.28,10.08,22.89,32.32,22.89,32.32-5.67,9.43,5.12,11,5.12,11a4.52,4.52,0,0,0,3.93,1.47c8.07,6,13.48-.63,13.48-.63,3.39,1.26,3.39-1.1,3.39-1.1s2.08,1.06,4.66-1-.11-5.11-.11-5.11c1.31-1.19,1.85-1.85,1.85-3.15s-.43-4-4.58-5.42-5.41-2.49-5.41-2.49c-1.48-3.15-3.53-2.06-4.51-17.68s9.07-27.29,9.09-27.3A20.35,20.35,0,0,0,209.3,61.82Z"/><path class="cls-4" d="M107,42.14H30.66c-12.36-.6-13.44,4.18-13.44,4.18C6.76,47,4.94,54.45,5.5,61.27a29.27,29.27,0,0,0,5.84,15,58.92,58.92,0,0,1,10.21,24C24.59,126.9,8.27,127,8.27,127"/><path class="cls-4" d="M200.86,127s-16.32-.1-13.29-26.76a59,59,0,0,1,10.22-24,29.27,29.27,0,0,0,5.84-15c.56-6.82-1.26-14.31-11.72-15,0,0-1.08-4.78-13.44-4.18H102.12"/><ellipse class="cls-2" cx="104.65" cy="63.45" rx="10.63" ry="12.28" transform="translate(23.97 155.47) rotate(-79.99)"/></g></g></svg>