<svg xmlns="http://www.w3.org/2000/svg" viewBox="0 0 283.25 60.15"><defs><style>.cls-1{fill:#3b303f;}.cls-2{fill:#eef4d7;}.cls-3{fill:#eaaa26;}</style></defs><title>大瑟</title><g id="图层_2" data-name="图层 2"><g id="图层_1-2" data-name="图层 1"><polygon class="cls-1" points="279.25 16.89 277.27 7.7 273.71 3.65 218.96 2.06 223.24 56.17 273.69 54.52 278.8 51.92 282.21 42.37 279.25 16.89"/><polygon class="cls-1" points="47.55 2.22 45.78 0 12.44 0 6.37 5.04 0 52.15 8.15 60.15 43.55 59.33 46.23 57.77 49.21 2.24 47.55 2.22"/><polygon class="cls-2" points="218.96 2.06 214.51 1.93 211.62 3.7 209.77 3.63 49.21 2.24 46.23 57.77 46.74 57.48 211 54.37 213.32 54.42 216.43 56.39 223.24 56.17 218.96 2.06"/><path class="cls-2" d="M249.12,1.14l4.74,4.09,2.08.7,2.86.49L262,6l4,.15,2.62,1.14,3.06,2.86.29,2.46s.11,3.67,6.25,4.55l2.3-2.14s.45-4.37-2.81-9.93l-7.11-3.26Z"/><path class="cls-2" d="M256.36,56.37,261,52.81l4.15-.66,5,.37,4-2,2.82-2.89,1.11-3s-2.23-2.37-1.71-4,3.63-2.51,5.34-1.55l1.63,1.55v8.6l-3.39,5.26-5.43,1.85-18.66.37"/><polygon class="cls-3" points="226.16 49.63 221.18 3.09 223.42 3.06 228.8 49.65 226.16 49.63"/><rect class="cls-3" x="16.86" y="27.27" width="53.78" height="0.85" transform="translate(13.68 69.85) rotate(-86.83)"/><rect class="cls-3" x="274.89" y="22.62" width="2.96" height="7.23" rx="0.37" transform="translate(-0.72 43.24) rotate(-8.93)"/><polygon class="cls-3" points="44.24 18.86 44.23 18.51 224.41 15.12 224.41 15.47 44.24 18.86"/><polygon class="cls-3" points="44.14 20.71 44.13 20.36 224.55 16.97 224.55 17.32 44.14 20.71"/><polygon class="cls-3" points="44.04 22.56 44.03 22.21 224.69 18.82 224.69 19.16 44.04 22.56"/><polygon class="cls-3" points="43.94 24.41 43.93 24.06 224.83 20.66 224.83 21.01 43.94 24.41"/><polygon class="cls-3" points="43.84 26.26 43.83 25.91 224.97 22.5 224.97 22.85 43.84 26.26"/><polygon class="cls-3" points="43.73 28.06 43.73 27.81 225.11 24.4 225.11 24.65 43.73 28.06"/><polygon class="cls-3" points="43.38 29.91 43.38 29.66 225.25 26.24 225.25 26.49 43.38 29.91"/><polygon class="cls-3" points="43.38 31.76 43.38 31.51 225.43 28.09 225.43 28.34 43.38 31.76"/><polygon class="cls-3" points="43.43 33.61 43.43 33.36 225.97 29.93 225.97 30.18 43.43 33.61"/><polygon class="cls-3" points="43.33 35.46 43.33 35.21 226 31.77 226.01 32.02 43.33 35.46"/><polygon class="cls-3" points="43.23 37.31 43.23 37.06 226.04 33.62 226.04 33.87 43.23 37.31"/><polygon class="cls-3" points="43.13 39.16 43.13 38.91 226.07 35.47 226.08 35.72 43.13 39.16"/><polygon class="cls-3" points="43.03 41.01 43.03 40.76 226.11 37.31 226.11 37.56 43.03 41.01"/><polygon class="cls-3" points="42.93 42.86 42.93 42.61 226.14 39.16 226.15 39.41 42.93 42.86"/><polygon class="cls-3" points="42.83 44.71 42.83 44.46 226.18 41.01 226.18 41.26 42.83 44.71"/><polygon class="cls-3" points="42.73 46.56 42.73 46.31 226.21 42.85 226.22 43.1 42.73 46.56"/><polygon class="cls-3" points="42.63 48.41 42.63 48.16 226.25 44.7 226.25 44.95 42.63 48.41"/><polygon class="cls-3" points="42.53 50.25 42.52 50 226.28 46.55 226.28 46.8 42.53 50.25"/><polygon class="cls-3" points="42.1 52.11 42.1 51.86 226.31 48.39 226.32 48.64 42.1 52.11"/><rect class="cls-3" x="44.72" y="7.56" width="179" height="0.4" transform="translate(-0.13 2.62) rotate(-1.12)"/><rect class="cls-3" x="44.62" y="9.41" width="179.24" height="0.4" transform="translate(-0.16 2.62) rotate(-1.12)"/><rect class="cls-3" x="44.52" y="11.25" width="179.48" height="0.4" transform="translate(-0.2 2.62) rotate(-1.12)"/><rect class="cls-3" x="44.42" y="13.1" width="179.72" height="0.4" transform="translate(-0.23 2.62) rotate(-1.12)"/><polygon class="cls-3" points="44.34 17.01 44.33 16.66 224.27 13.28 224.27 13.63 44.34 17.01"/><rect class="cls-3" x="44.82" y="5.71" width="178.76" height="0.4" transform="translate(-0.09 2.62) rotate(-1.12)"/><polygon class="cls-2" points="6.2 53.55 2.89 51.57 2.77 51.79 6.1 53.79 6.16 53.68 6.16 53.8 39.99 53.97 40 53.72 6.2 53.55"/><polygon class="cls-2" points="228.85 53.8 228.85 53.55 260.95 52.69 260.95 52.94 228.85 53.8"/></g></g></svg>