<svg xmlns="http://www.w3.org/2000/svg" viewBox="0 0 43.42 227.51"><defs><style>.cls-1{fill:#3b303f;}.cls-2{fill:#eaaa26;}.cls-3{fill:#eef4d7;}</style></defs><title>干</title><g id="图层_2" data-name="图层 2"><g id="图层_1-2" data-name="图层 1"><polygon class="cls-1" points="21.71 0 21.71 0 21.71 0 21.71 0 21.71 0 0 20.95 1.49 227.51 20.06 227.51 20.06 227.51 41.93 227.51 43.42 20.95 21.71 0"/><path class="cls-2" d="M42.49,65.8H1.32v-.12L1.2,21.51l0,0L21.8.91l.09.09L42.4,21.62v.06ZM1.57,65.55H42.24l-.09-43.82L21.8,1.26,1.45,21.61Z"/><rect class="cls-3" x="17.29" y="65.02" width="10.48" height="5.76" transform="translate(0.89 -0.29) rotate(0.75)"/><polygon class="cls-2" points="36.77 222.9 7.05 222.9 7.05 222.65 5.66 68.1 17.28 68.08 17.28 68.58 6.17 68.6 7.55 222.4 36.28 222.4 37.67 68.16 27.77 68.36 27.76 67.86 38.17 67.65 38.17 67.91 36.77 222.9"/><path class="cls-2" d="M38.29,63.83H5.78v-.24l-1-38.15L22.15,8.06,38.76,25.44v.1Zm-32-.5H37.8l.46-37.69L22.14,8.77,5.28,25.64Z"/></g></g></svg>