<svg xmlns="http://www.w3.org/2000/svg" viewBox="0 0 172.25 234.87"><defs><style>.cls-1{fill:#3b303f;}.cls-2{fill:#4b94ab;}.cls-3{fill:#eef4d7;}</style></defs><title>戚</title><g id="图层_2" data-name="图层 2"><g id="图层_1-2" data-name="图层 1"><path class="cls-1" d="M0,27.21c4.12,23.48,12.87,38,32.29,53.67,8-21,37.85-36.58,50.38-42.33a5.43,5.43,0,0,0,2.38-7.75L68.12,2.64a5.44,5.44,0,0,0-8-1.51C49.34,9.44,22,27.81,0,27.21Z"/><path class="cls-2" d="M60.13,1.13c-1.56,1.2-3.47,2.62-5.65,4.15a5.41,5.41,0,0,1,4.89,2.63L76.31,36.06a5.42,5.42,0,0,1,0,5.55c2.39-1.21,4.55-2.24,6.34-3.06a5.43,5.43,0,0,0,2.38-7.75L68.12,2.64A5.44,5.44,0,0,0,60.13,1.13Z"/><path class="cls-3" d="M12.86,25.72A50.25,50.25,0,0,1,0,27.21c4.12,23.48,12.87,38,32.29,53.67A43,43,0,0,1,39,69.51C24.5,56.69,16.92,44,12.86,25.72Z"/><path class="cls-1" d="M54.17,58.81l105.1,174.71a2.81,2.81,0,0,0,3.84.95l7.78-4.68a2.81,2.81,0,0,0,1-3.84L66.23,50.39A40.55,40.55,0,0,0,54.17,58.81Z"/></g></g></svg>