<svg xmlns="http://www.w3.org/2000/svg" viewBox="0 0 113.81 241.21"><defs><style>.cls-1{fill:#3b303f;}.cls-2{fill:#575045;}.cls-3{fill:none;stroke:#3b303f;stroke-miterlimit:10;stroke-width:2.16px;}.cls-4{fill:#4b94ab;}.cls-5{fill:#eef4d7;}.cls-6{fill:#eaaa26;}</style></defs><title>搏拊鼓</title><g id="图层_2" data-name="图层 2"><g id="图层_1-2" data-name="图层 1"><path class="cls-1" d="M113.32,29.73c-2.45-14.89-13.52-25.86-26.08-27-18.59-5.17-43.94-2-57.92.75C12,6.92,6.17,16.45,6.17,16.45L16,72c6.13,3.75,24,6.64,42.74,4.94C72,75.69,86,68.91,93.16,65,107.1,61.72,116.05,46.32,113.32,29.73Z"/><rect class="cls-1" x="35.79" y="81.49" width="7.26" height="135.98" rx="0.77"/><rect class="cls-1" x="23.37" y="74" width="6.41" height="135.98" rx="0.68"/><rect class="cls-1" x="69.5" y="54.42" width="6.41" height="135.98" rx="0.68"/><rect class="cls-1" x="83.64" y="71.34" width="6.41" height="127.22" rx="0.68"/><path class="cls-2" d="M84.8,73.1a13,13,0,0,1-4.12-.67C73.07,69.94,68.74,61.35,68.56,61A1.37,1.37,0,0,1,71,59.77c0,.08,4,7.94,10.52,10.06a11.15,11.15,0,0,0,8.82-.93c.84-.58,2.88-2.28,3.31-3.79a1.37,1.37,0,0,1,2.63.75c-.79,2.78-4.08,5.1-4.46,5.35l-.14.09A14.89,14.89,0,0,1,84.8,73.1Z"/><path class="cls-1" d="M69.67,74.34s13.11-2,19.92-7.49S77.17,42.33,77.17,42.33,61.67,50.5,61.5,51.18,69.67,74.34,69.67,74.34Z"/><rect class="cls-1" x="26.26" y="89.77" width="47.5" height="2.16" transform="translate(-22.32 16.53) rotate(-15.39)"/><rect class="cls-1" x="41.24" y="95.22" width="47.5" height="2.16" transform="translate(-23.23 20.7) rotate(-15.39)"/><rect class="cls-1" x="30.51" y="139.41" width="2.16" height="14.01" transform="translate(-113.22 108.14) rotate(-63.02)"/><rect class="cls-1" x="77.5" y="122.87" width="2.16" height="13.71" transform="translate(-72.03 147.58) rotate(-65.55)"/><line class="cls-3" x1="27.4" y1="190.68" x2="71.21" y2="170.25"/><path class="cls-4" d="M42.45,74.86a.8.8,0,0,1-.59-.26.77.77,0,0,1,0-1.1,15.86,15.86,0,0,0,1.57-1.6.8.8,0,0,1,1.12-.11.77.77,0,0,1,.11,1.1A17,17,0,0,1,43,74.66.84.84,0,0,1,42.45,74.86Zm3-3.57a.82.82,0,0,1-.43-.12.77.77,0,0,1-.24-1.08c.39-.61.78-1.27,1.14-2A.8.8,0,0,1,47,67.79a.77.77,0,0,1,.36,1c-.39.73-.8,1.44-1.22,2.09A.82.82,0,0,1,45.49,71.29Zm2.17-4.14a.8.8,0,0,1-.3-.06.77.77,0,0,1-.44-1c.28-.68.56-1.39.81-2.13a.81.81,0,0,1,1-.5.78.78,0,0,1,.51,1c-.27.77-.55,1.52-.85,2.23A.79.79,0,0,1,47.66,67.15Zm1.52-4.41-.21,0a.78.78,0,0,1-.56-1c.2-.72.39-1.47.56-2.23a.81.81,0,0,1,1-.59.77.77,0,0,1,.6.93c-.18.79-.37,1.56-.58,2.3A.79.79,0,0,1,49.18,62.74Zm1-4.55h-.14a.79.79,0,0,1-.65-.91c.14-.73.27-1.5.38-2.27a.8.8,0,0,1,1.59.22c-.12.79-.25,1.58-.39,2.33A.8.8,0,0,1,50.22,58.19Zm.68-4.61h-.09a.78.78,0,0,1-.7-.86c.08-.75.16-1.52.23-2.3a.8.8,0,0,1,1.59.13c-.06.79-.14,1.58-.23,2.34A.8.8,0,0,1,50.9,53.58Zm.4-4.64h0a.78.78,0,0,1-.75-.82c0-.76.08-1.53.1-2.31a.82.82,0,0,1,.83-.76.81.81,0,0,1,.78.81c0,.79-.07,1.58-.11,2.35A.81.81,0,0,1,51.3,48.94Zm.15-4.66h0a.8.8,0,0,1-.8-.79c0-.34,0-.66,0-1s0-.91,0-1.33a.8.8,0,0,1,1.6,0c0,.43,0,.88,0,1.35v1A.81.81,0,0,1,51.45,44.28Zm-.06-4.66a.79.79,0,0,1-.8-.75c0-.81-.07-1.58-.11-2.31a.79.79,0,0,1,.75-.83.8.8,0,0,1,.85.73c0,.75.08,1.54.11,2.35a.79.79,0,0,1-.77.81ZM50.9,35a.8.8,0,0,1-.78-.58c-.2-.75-.42-1.5-.64-2.21a.8.8,0,0,1,.54-1,.82.82,0,0,1,1,.53c.22.73.44,1.49.65,2.26a.78.78,0,0,1-.56,1A.75.75,0,0,1,50.9,35Zm-1.36-4.45a.8.8,0,0,1-.76-.54c-.26-.74-.52-1.47-.79-2.17a.78.78,0,0,1,.48-1,.81.81,0,0,1,1,.46c.27.72.54,1.46.8,2.22a.78.78,0,0,1-.51,1A1.18,1.18,0,0,1,49.54,30.55Zm-1.67-4.36a.82.82,0,0,1-.74-.49c-.3-.71-.62-1.42-1-2.09a.78.78,0,0,1,.39-1,.8.8,0,0,1,1.06.37c.34.7.67,1.43,1,2.16a.78.78,0,0,1-.43,1A.81.81,0,0,1,47.87,26.19Zm-2-4.21a.79.79,0,0,1-.7-.42c-.37-.68-.76-1.35-1.16-2a.78.78,0,0,1,.28-1.07.82.82,0,0,1,1.1.27c.4.66.81,1.35,1.19,2.06a.76.76,0,0,1-.33,1.05A.75.75,0,0,1,45.84,22Zm-2.47-4a.79.79,0,0,1-.65-.34c-.45-.63-.92-1.24-1.4-1.81a.77.77,0,0,1,.12-1.1.82.82,0,0,1,1.13.12c.5.6,1,1.24,1.46,1.9a.78.78,0,0,1-.2,1.09A.86.86,0,0,1,43.37,18Zm-3-3.61a.78.78,0,0,1-.58-.24c-.54-.56-1.1-1.08-1.67-1.57a.77.77,0,0,1-.08-1.1.81.81,0,0,1,1.13-.07c.61.51,1.2,1.07,1.78,1.66a.77.77,0,0,1,0,1.1A.8.8,0,0,1,40.38,14.39Zm-3.59-3.05a.82.82,0,0,1-.47-.15c-.63-.43-1.28-.83-1.94-1.19a.76.76,0,0,1-.31-1.06.81.81,0,0,1,1.09-.31,24,24,0,0,1,2.09,1.29A.77.77,0,0,1,37.44,11,.82.82,0,0,1,36.79,11.34ZM32.62,9.09a.79.79,0,0,1-.3-.05,17.23,17.23,0,0,0-2.17-.72.77.77,0,0,1-.56-1,.8.8,0,0,1,1-.55,19,19,0,0,1,2.35.78.77.77,0,0,1,.44,1A.81.81,0,0,1,32.62,9.09Zm-11.72-1a.78.78,0,0,1-.78-.62.77.77,0,0,1,.63-.92,22.23,22.23,0,0,1,2.45-.35.79.79,0,0,1,.86.71.79.79,0,0,1-.73.85,19.37,19.37,0,0,0-2.27.32ZM28,7.87h-.12a21.68,21.68,0,0,0-2.28-.19.78.78,0,1,1,0-1.56,20.23,20.23,0,0,1,2.47.21.78.78,0,0,1,.68.88A.8.8,0,0,1,28,7.87Z"/><path class="cls-4" d="M39.49,76.87a.8.8,0,0,1-.71-.43.77.77,0,0,1,.35-1c.33-.16.66-.35,1-.54a.79.79,0,0,1,1.1.24A.77.77,0,0,1,41,76.17c-.36.22-.74.43-1.11.61A.84.84,0,0,1,39.49,76.87Z"/><path class="cls-2" d="M34.8,83.83a13.36,13.36,0,0,1-4.12-.67c-7.61-2.49-11.94-11.09-12.12-11.45A1.37,1.37,0,0,1,21,70.49c0,.08,4,8,10.52,10.07a11.19,11.19,0,0,0,8.82-.93c.84-.59,2.88-2.28,3.31-3.8a1.37,1.37,0,0,1,2.64.76c-.8,2.77-4.09,5.09-4.46,5.35L41.7,82A14.91,14.91,0,0,1,34.8,83.83Z"/><ellipse class="cls-5" cx="19.13" cy="42.47" rx="18.67" ry="31.6" transform="translate(-6.64 3.67) rotate(-9.35)"/><path class="cls-6" d="M21.88,70.93C13.5,70.93,5.16,60.18,2.8,45.87.3,30.65,5.49,17.09,14.38,15.63S32.53,25.35,35,40.56,32.35,69.34,23.46,70.8A9.36,9.36,0,0,1,21.88,70.93ZM16,15.9a9.83,9.83,0,0,0-1.52.12C5.77,17.45.73,30.81,3.19,45.8s11.54,26,20.2,24.61S37.11,55.62,34.64,40.63C32.32,26.51,24.15,15.9,16,15.9Z"/><path class="cls-4" d="M97.56,63.12a.77.77,0,0,1-.51-.19A.75.75,0,0,1,97,61.85l.06-.08a.81.81,0,0,1,1.11-.09.77.77,0,0,1,.1,1.09l-.07.07A.81.81,0,0,1,97.56,63.12Zm1.56-1.87a.83.83,0,0,1-.49-.17A.76.76,0,0,1,98.5,60c.49-.61,1-1.22,1.42-1.82A.82.82,0,0,1,101,58a.77.77,0,0,1,.16,1.08c-.46.62-1,1.25-1.45,1.87A.81.81,0,0,1,99.12,61.25Zm2.81-3.73a.82.82,0,0,1-.45-.14.75.75,0,0,1-.2-1.07c.44-.64.87-1.28,1.27-1.91a.79.79,0,0,1,1.09-.25.77.77,0,0,1,.25,1.06c-.42.65-.86,1.32-1.31,2A.8.8,0,0,1,101.93,57.52Zm2.5-3.94a.78.78,0,0,1-.39-.1.76.76,0,0,1-.3-1c.39-.67.75-1.34,1.1-2a.79.79,0,0,1,1-.34.75.75,0,0,1,.35,1c-.35.69-.73,1.39-1.13,2.08A.78.78,0,0,1,104.43,53.58Zm2.11-4.14a.7.7,0,0,1-.31-.07.76.76,0,0,1-.41-1c.31-.7.61-1.41.87-2.11a.8.8,0,0,1,1-.46.76.76,0,0,1,.46,1c-.27.73-.57,1.47-.9,2.2A.78.78,0,0,1,106.54,49.44Zm1.64-4.35a.91.91,0,0,1-.23,0,.77.77,0,0,1-.53-1c.23-.73.42-1.47.59-2.19a.78.78,0,0,1,.94-.58.77.77,0,0,1,.6.92c-.18.76-.39,1.53-.62,2.29A.78.78,0,0,1,108.18,45.09Zm1-4.52h-.12a.77.77,0,0,1-.66-.87c.12-.75.21-1.51.26-2.25a.8.8,0,0,1,.85-.71.77.77,0,0,1,.72.83c-.06.78-.15,1.57-.27,2.36A.78.78,0,0,1,109.22,40.57Zm.35-4.62a.77.77,0,0,1-.78-.76c0-.75,0-1.51-.11-2.26a.79.79,0,0,1,1.57-.13c.07.79.11,1.59.11,2.38a.77.77,0,0,1-.78.77Zm-.4-4.61a.78.78,0,0,1-.78-.64c-.12-.74-.28-1.48-.47-2.21a.77.77,0,0,1,.57-.93.79.79,0,0,1,1,.56c.2.77.36,1.55.5,2.32a.78.78,0,0,1-.65.89ZM108,26.85a.79.79,0,0,1-.75-.52c-.24-.7-.52-1.41-.82-2.11a.76.76,0,0,1,.42-1,.78.78,0,0,1,1,.41c.32.73.61,1.48.86,2.22a.76.76,0,0,1-.49,1A.73.73,0,0,1,108,26.85Zm-1.84-4.26a.78.78,0,0,1-.7-.42c-.35-.66-.72-1.33-1.12-2a.75.75,0,0,1,.27-1.05.8.8,0,0,1,1.08.26c.41.69.81,1.38,1.17,2.08a.76.76,0,0,1-.34,1A.8.8,0,0,1,106.18,22.59Zm-2.42-4a.78.78,0,0,1-.65-.34c-.43-.61-.89-1.23-1.37-1.83a.76.76,0,0,1,.14-1.09.79.79,0,0,1,1.1.14c.5.63,1,1.27,1.42,1.91a.75.75,0,0,1-.2,1.07A.82.82,0,0,1,103.76,18.61Zm-2.9-3.67a.8.8,0,0,1-.6-.27c-.5-.56-1-1.13-1.56-1.68a.75.75,0,0,1,0-1.09.79.79,0,0,1,1.11,0c.56.57,1.1,1.16,1.62,1.74a.76.76,0,0,1-.08,1.09A.77.77,0,0,1,100.86,14.94Zm-3.28-3.35a.8.8,0,0,1-.54-.21c-.56-.52-1.14-1-1.73-1.53a.77.77,0,0,1-.08-1.09.8.8,0,0,1,1.11-.08c.61.52,1.21,1.05,1.78,1.58a.76.76,0,0,1,0,1.09A.78.78,0,0,1,97.58,11.59ZM94,8.56a.83.83,0,0,1-.49-.17c-.61-.47-1.24-.94-1.86-1.38a.77.77,0,0,1-.18-1.08.8.8,0,0,1,1.1-.17c.64.45,1.29.93,1.92,1.42a.76.76,0,0,1,.13,1.08A.79.79,0,0,1,94,8.56ZM90.15,5.84a.88.88,0,0,1-.43-.12c-1.21-.77-2-1.18-2-1.18a.75.75,0,0,1-.32-1,.79.79,0,0,1,1.06-.32s.82.44,2.09,1.25a.75.75,0,0,1,.23,1.06A.78.78,0,0,1,90.15,5.84Z"/><path class="cls-2" d="M57.48,231.73a6.49,6.49,0,0,0,.6-9.95,1,1,0,0,0-.39-.45l-40-23.07a1,1,0,0,0-1.39.37l-.66,1.14A4.86,4.86,0,0,0,13,204.09c0,.08,0,.16,0,.23l-.5.88a1,1,0,0,0,.37,1.39l.65.38c.24,2.46.66,6.12,1,6.29.51.25,3.08,1.8,3.34,1.88A36,36,0,0,0,22,212.83a8,8,0,0,1-.68-1.38l25.79,14.9v.15a6.38,6.38,0,0,0,.62,2.76c.29,3.14.92,9.19,1.43,9.44.68.34,4.1,2.39,4.44,2.51s5.48-3.08,5.48-3.08A10.86,10.86,0,0,1,57.48,231.73Z"/><path class="cls-2" d="M104.11,204.27a5.71,5.71,0,0,0-4-5.45l-37.93-21.9a1,1,0,0,0-.92,0,4.23,4.23,0,0,0-1.13-.16,4.57,4.57,0,0,0-3.25,7.77,1,1,0,0,0,.49.75l.87.51c.26,2.56.66,5.85,1,6,.54.27,3.28,1.92,3.56,2a40,40,0,0,0,4.38-2.47s-.14-.22-.34-.59l24.16,14c.31,3.22.91,8.81,1.4,9,.68.34,4.1,2.4,4.44,2.51s5.48-3.08,5.48-3.08a11.54,11.54,0,0,1-1.48-3.74A5.68,5.68,0,0,0,104.11,204.27Z"/><rect class="cls-1" x="38.11" y="187.44" width="49.85" height="2.16" transform="translate(-75.34 45.81) rotate(-25.63)"/></g></g></svg>