<svg xmlns="http://www.w3.org/2000/svg" viewBox="0 0 237.84 83.19"><defs><style>.cls-1{fill:#eef4d7;}.cls-2{fill:#575045;}.cls-3{fill:#3b303f;}.cls-4{fill:#eaaa26;}.cls-5{fill:#4b94ab;}</style></defs><title>敔</title><g id="图层_2" data-name="图层 2"><g id="图层_1-2" data-name="图层 1"><path class="cls-1" d="M18.85,45.15H63.39a.66.66,0,0,1,.66.66v9.84a2.43,2.43,0,0,1-2.43,2.43H17.08a.66.66,0,0,1-.66-.66V47.58a2.43,2.43,0,0,1,2.43-2.43Z" transform="translate(6.31 -4.35) rotate(6.71)"/><path class="cls-1" d="M64.14,7s7.75-1.89,14.35,6.56c0,0,6.24,5,9.08,4.07S87.16,28.28,83.42,30,64.14,7,64.14,7Z"/><rect class="cls-2" x="9.6" y="5.85" width="25" height="26.25" rx="2.99" transform="translate(4.28 -4.07) rotate(11.63)"/><rect class="cls-2" x="210.49" y="31.05" width="27.2" height="24.74" rx="2.96" transform="translate(-0.63 3.37) rotate(-0.86)"/><path class="cls-3" d="M209.6,17.66a44.59,44.59,0,0,0-25-5.48h0a33,33,0,0,0-11.83,3.25C107.2,32.82,85.44,27.3,78.42,22.91c-2.66-8-9.33-15.4-18.69-19.6C44-3.77,26.5.89,20.74,13.72s2.36,29,18.13,36.06a35,35,0,0,0,3.54,1.38l9.25,12.68,9.24-1.67-.47.51s.85,15.9,4.1,16.27,86-1.06,86-1.06l36.95-2.36-.08-1.65c16.84,6.08,34.46,1.64,41.5-11.36C236.82,47.81,228.2,27.73,209.6,17.66Z"/><path class="cls-1" d="M152.34,65.74h70.16a.85.85,0,0,1,.85.85V81.46a.85.85,0,0,1-.85.85H150.07a.85.85,0,0,1-.85-.85V68.85A3.11,3.11,0,0,1,152.34,65.74Z" transform="translate(1.85 -4.5) rotate(1.39)"/><path class="cls-1" d="M39.22,26.3S50,11.84,64.62,30.18c0,0,7.39,14.13-5.78,16.92L53.2,45"/><path class="cls-4" d="M56.83,42.94c-2.41-.19-7.6-2.77-9.24-11.2a6.62,6.62,0,0,0-.3-2h0a7.66,7.66,0,0,0-.42-1.05c-1.4-2.86-4.35-4.3-6.59-3.2s-2.92,4.31-1.52,7.17a6.6,6.6,0,0,0,3,3.09h0a8.75,8.75,0,0,1,2.87,6.8c-.25,4.22,10.85,4.81,13.21,4.91a7.45,7.45,0,0,0,6.31-2.87A47.42,47.42,0,0,0,56.83,42.94Z"/><path class="cls-1" d="M81.47,52.42C76.89,47.61,67.6,49,60.74,55.55a23,23,0,0,0-4.5,5.88l-51.31-6a3.11,3.11,0,0,0-3.45,2.72L0,70.64a.85.85,0,0,0,.74,1l61,7.18a12.55,12.55,0,0,0,1.53.18l7.12.84a3.12,3.12,0,0,0,3.45-2.73l.17-1.46A24.22,24.22,0,0,0,77.34,73C84.21,66.44,86.06,57.23,81.47,52.42Z"/><polygon class="cls-5" points="89.19 30.2 86.62 34.28 85.85 37.62 88.96 39.38 91.84 38.85 93.28 36.12 92.18 33.04 89.19 30.2"/><polygon class="cls-5" points="84.92 22.92 82.38 26.13 81.62 28.77 84.75 30.17 87.62 29.77 89.05 27.62 87.92 25.18 84.92 22.92"/><polygon class="cls-5" points="77.94 20.17 74.53 22.45 73 24.73 75.54 27.02 78.4 27.52 80.42 25.92 80.1 23.24 77.94 20.17"/><polygon class="cls-5" points="95.28 23.17 92.73 26.38 91.98 29.02 95.1 30.42 97.97 30.02 99.41 27.87 98.28 25.43 95.28 23.17"/><polygon class="cls-5" points="107.31 23.46 104.77 26.68 104.01 29.31 107.14 30.71 110.01 30.31 111.44 28.16 110.32 25.72 107.31 23.46"/><polygon class="cls-5" points="118.59 22.25 116.05 25.47 115.29 28.1 118.42 29.5 121.29 29.11 122.72 26.96 121.6 24.51 118.59 22.25"/><polygon class="cls-5" points="129.22 20.54 126.67 23.75 125.92 26.39 129.04 27.79 131.91 27.39 133.35 25.24 132.22 22.8 129.22 20.54"/><polygon class="cls-5" points="142.13 17.22 139.58 20.44 138.83 23.07 141.95 24.47 144.82 24.08 146.26 21.93 145.13 19.48 142.13 17.22"/><polygon class="cls-5" points="153.09 13.86 150.55 17.08 149.79 19.71 152.92 21.11 155.79 20.71 157.22 18.57 156.1 16.12 153.09 13.86"/><polygon class="cls-5" points="165.18 11.79 162.64 15 161.88 17.64 165.01 19.04 167.88 18.64 169.31 16.49 168.19 14.04 165.18 11.79"/><polygon class="cls-5" points="178.17 9.24 175.63 12.46 174.87 15.09 178 16.49 180.87 16.09 182.3 13.94 181.18 11.5 178.17 9.24"/><polygon class="cls-5" points="188.25 8.72 185.71 11.94 184.95 14.57 188.08 15.97 190.95 15.57 192.38 13.42 191.26 10.98 188.25 8.72"/><polygon class="cls-5" points="100.82 28.46 98.26 32.54 97.49 35.88 100.6 37.63 103.48 37.11 104.92 34.38 103.81 31.3 100.82 28.46"/><polygon class="cls-5" points="112.41 26.77 109.85 30.85 109.07 34.19 112.19 35.94 115.06 35.42 116.51 32.69 115.4 29.6 112.41 26.77"/><polygon class="cls-5" points="124.39 25.28 121.82 29.36 121.05 32.7 124.17 34.45 127.04 33.93 128.49 31.2 127.38 28.12 124.39 25.28"/><polygon class="cls-5" points="136.19 23.2 133.62 27.28 132.85 30.62 135.96 32.37 138.84 31.85 140.29 29.12 139.18 26.04 136.19 23.2"/><polygon class="cls-5" points="148.11 20.03 145.54 24.12 144.77 27.45 147.88 29.21 150.76 28.68 152.21 25.96 151.1 22.87 148.11 20.03"/><polygon class="cls-5" points="160.42 16.98 157.85 21.06 157.08 24.4 160.2 26.15 163.07 25.63 164.52 22.9 163.41 19.81 160.42 16.98"/><polygon class="cls-5" points="173.63 13.65 171.06 17.73 170.29 21.07 173.4 22.82 176.28 22.3 177.73 19.57 176.62 16.48 173.63 13.65"/></g></g></svg>