<svg xmlns="http://www.w3.org/2000/svg" viewBox="0 0 123.12 191.35"><defs><style>.cls-1{fill:#3b303f;}.cls-2{fill:#4b94ab;}.cls-3{fill:#eef4d7;}.cls-4{fill:#eaaa26;}</style></defs><title>洞箫</title><g id="图层_2" data-name="图层 2"><g id="图层_1-2" data-name="图层 1"><path class="cls-1" d="M112.2,11.71a23.39,23.39,0,0,1,10.92,6.79L19.86,190.6l-.51.73a9.85,9.85,0,0,1-9.68-5.92"/><circle class="cls-2" cx="70.2" cy="95.17" r="2.09"/><circle class="cls-2" cx="62.62" cy="108.05" r="2.09"/><circle class="cls-2" cx="55.43" cy="120.58" r="2.09"/><circle class="cls-2" cx="47.85" cy="132.91" r="2.09"/><circle class="cls-2" cx="40.42" cy="145.2" r="2.09"/><path class="cls-3" d="M92.46,0a23.32,23.32,0,0,1,11.29,6.16L10.47,183.86l-.47.75a9.85,9.85,0,0,1-10-5.35"/><circle class="cls-1" cx="55.28" cy="85.72" r="2.09"/><circle class="cls-1" cx="48.45" cy="99.01" r="2.09"/><circle class="cls-1" cx="41.98" cy="111.92" r="2.09"/><circle class="cls-1" cx="35.12" cy="124.67" r="2.09"/><circle class="cls-1" cx="28.4" cy="137.36" r="2.09"/><path class="cls-1" d="M101.36,4.09s-3.55,0-4.57-2.57c0,0-3,4.06-1,6.21s4.88-2.38,4.88-2.38Z"/><path class="cls-4" d="M119.92,15.69s-3.55,0-4.56-2.59c0,0-3,4-1,6.2s4.88-2.36,4.88-2.36Z"/></g></g></svg>