<svg xmlns="http://www.w3.org/2000/svg" viewBox="0 0 210.54 231.63"><defs><style>.cls-1{fill:#3b303f;}.cls-2{fill:#eaaa26;}.cls-3{fill:#e1a62d;}</style></defs><title>特磬</title><g id="图层_2" data-name="图层 2"><g id="图层_1-2" data-name="图层 1"><polygon class="cls-1" points="106.77 189.98 149.57 231.63 158.77 231.63 210.54 176.17 210.54 170.42 137.37 100.7 130.24 100.7 0 192.74 0 201.02 39.35 226.33 51.43 225.41 99.4 189.95 106.77 189.98"/><path class="cls-2" d="M150.33,216.19l-45.11-42.5L47.45,214.15,18.19,194.49l113.33-78.3,60.66,56.62Zm-45-43.79.29.28,44.69,42.11,40.45-41.94-59.32-55.38L20,194.48l27.47,18.46Z"/><path class="cls-2" d="M131.48,99.51a1.65,1.65,0,0,1-1.65-1.58L128.7,71.8a1.66,1.66,0,0,1,1.58-1.72l6.3-.27a1.65,1.65,0,0,1,1.72,1.58l1.13,26.13a1.67,1.67,0,0,1-1.58,1.72h0l-6.3.27Zm-.77-27.44,1.1,25.43,5.6-.25-1.1-25.43Z"/><path class="cls-2" d="M128.08,53.86a1.65,1.65,0,0,1-1.65-1.58l-.75-17.23a1.67,1.67,0,0,1,1.58-1.72l6.3-.27a1.65,1.65,0,0,1,1.72,1.58L136,51.87a1.65,1.65,0,0,1-.44,1.18,1.62,1.62,0,0,1-1.14.54h0l-6.3.27Zm-.38-18.54.71,16.53,5.6-.25-.71-16.53Zm6.66,16.27Z"/><path class="cls-2" d="M128.08,20.8a1.65,1.65,0,0,1-1.65-1.58L125.68,2a1.61,1.61,0,0,1,.44-1.18,1.6,1.6,0,0,1,1.14-.54l6.3-.27a1.65,1.65,0,0,1,1.72,1.58L136,18.81a1.65,1.65,0,0,1-.44,1.18,1.62,1.62,0,0,1-1.14.54h0l-6.3.27ZM127.7,2.26l.71,16.53,5.6-.24L133.3,2Zm6.66,16.27Z"/><rect class="cls-2" x="123.94" y="106.01" width="18.91" height="2" transform="translate(6.36 221.49) rotate(-80.76)"/><rect class="cls-2" x="131.89" y="52.22" width="2" height="18.9" transform="translate(-4.68 11.29) rotate(-4.78)"/><path class="cls-1" d="M119.87,24.8s-15.31,5.59-14.45-2.89c0,0,3.54-.17,4.16-3.24s-5.41-6.21-7.44-2.28c0,0-6,10.44,6.71,20.67,0,0,8.52,3,11.88.82,0,0-8.5-4.52,5-6.16s-4-7.6-4-7.6"/><path class="cls-1" d="M141.58,24.09s14.39,7.64,14.71-.88c0,0-3.49-.65-3.68-3.78s6.21-5.41,7.68-1.23c0,0,4.52,11.16-9.48,19.55,0,0-8.85,1.83-11.88-.82,0,0,9-3.31-4.14-6.79s5-7,5-7"/><polygon class="cls-1" points="115.01 17.87 130.66 11.17 146.22 18.93 140.18 22.68 136.88 36.37 130.37 41.71 124.09 35.67 121.39 22.47 115.01 17.87"/><circle class="cls-1" cx="132.1" cy="117.69" r="4.78"/><path class="cls-3" d="M132.1,124a6.28,6.28,0,1,1,6.28-6.28A6.29,6.29,0,0,1,132.1,124Zm0-9.56a3.28,3.28,0,1,0,3.28,3.28A3.28,3.28,0,0,0,132.1,114.41Z"/></g></g></svg>