<svg xmlns="http://www.w3.org/2000/svg" viewBox="0 0 131.32 256.43"><defs><style>.cls-1{fill:#3b303f;}.cls-2{fill:#564f46;}.cls-3{fill:#eaaa26;}.cls-4{fill:#4b94ab;}.cls-5{fill:#eef4d7;}.cls-6{fill:none;stroke:#eaaa26;stroke-miterlimit:10;stroke-width:0.5px;}</style></defs><title>特钟</title><g id="图层_2" data-name="图层 2"><g id="图层_1-2" data-name="图层 1"><path class="cls-1" d="M128.27,256.3C66.54,235,16.53,249.65,3.06,254.46A2.29,2.29,0,0,1,0,252L19.13,116.2a2.3,2.3,0,0,1,1.61-1.87c7.78-2.39,47-13,92.32.12a2.28,2.28,0,0,1,1.63,1.93L131.3,253.86A2.3,2.3,0,0,1,128.27,256.3Z"/><path class="cls-1" d="M66.87,5c-.25-3-.69-5-1.2-5s-1,2.05-1.23,5.12c0,.06,0,.13,0,.2V16.05c.24,3.18.7,5.32,1.23,5.33s1-2.17,1.24-5.38V5.38Z"/><path class="cls-2" d="M84.36,31.45,82.77,18.38a4.73,4.73,0,0,0-6.35-2.67s-1.17-2.94-6.36-1.28a7.5,7.5,0,0,0-8.77,0c-5.18-1.67-6.35,1.26-6.35,1.26a4.75,4.75,0,0,0-6.36,2.67L47,31.41l.08,0A11.59,11.59,0,0,0,47,32.72c0,7.93,8.35,14.38,18.68,14.39s18.71-6.42,18.72-14.35a12.3,12.3,0,0,0-.08-1.37Z"/><path class="cls-1" d="M51.15,39.73V53.41l0,50.54a4.75,4.75,0,0,0,4.73,4.74l19.61,0A4.75,4.75,0,0,0,80.16,104l.06-50.54V39.76C64.25,27.23,51.15,39.73,51.15,39.73Z"/><path class="cls-2" d="M48.85,99.73a1.53,1.53,0,0,0,1.67.45,47,47,0,0,1,14.84-2.05c6.21,0,11.73.88,15.25,2.23a1.52,1.52,0,0,0,1.68-.42,13,13,0,0,0,3.44-8.63c0-8.53-9-15.45-20.06-15.46S45.6,82.74,45.59,91.27A13,13,0,0,0,48.85,99.73Z"/><path class="cls-3" d="M108.76,130.14h-.06a123.66,123.66,0,0,0-59.86-6.51C33.52,125.73,24.73,130,24.63,130a.18.18,0,0,1-.24-.09.18.18,0,0,1,.1-.24c.09,0,8.92-4.33,24.29-6.45a124.19,124.19,0,0,1,60,6.53.19.19,0,0,1,.11.24A.18.18,0,0,1,108.76,130.14Z"/><circle class="cls-4" cx="51.28" cy="137.43" r="4.76"/><circle class="cls-5" cx="50.25" cy="137.17" r="3.73"/><circle class="cls-4" cx="49.73" cy="136.88" r="3.21"/><circle class="cls-5" cx="49.12" cy="136.66" r="2.23"/><circle class="cls-4" cx="38.01" cy="139.16" r="4.03"/><circle class="cls-5" cx="37.14" cy="138.94" r="3.16"/><circle class="cls-4" cx="36.7" cy="138.7" r="2.72"/><circle class="cls-5" cx="36.18" cy="138.51" r="1.88"/><circle class="cls-4" cx="26.49" cy="141.64" r="3.5"/><circle class="cls-5" cx="25.73" cy="141.45" r="2.75"/><circle class="cls-4" cx="25.35" cy="141.24" r="2.37"/><circle class="cls-5" cx="24.9" cy="141.08" r="1.64"/><circle class="cls-4" cx="49.28" cy="209.43" r="4.76"/><circle class="cls-5" cx="48.25" cy="209.17" r="3.73"/><circle class="cls-4" cx="47.73" cy="208.88" r="3.21"/><circle class="cls-5" cx="47.12" cy="208.66" r="2.23"/><circle class="cls-4" cx="33.01" cy="211.16" r="4.03"/><circle class="cls-5" cx="32.14" cy="210.94" r="3.16"/><circle class="cls-4" cx="31.7" cy="210.7" r="2.72"/><circle class="cls-5" cx="31.18" cy="210.51" r="1.88"/><circle class="cls-4" cx="18.49" cy="213.64" r="3.5"/><circle class="cls-5" cx="17.73" cy="213.45" r="2.75"/><circle class="cls-4" cx="17.35" cy="213.24" r="2.37"/><circle class="cls-5" cx="16.9" cy="213.08" r="1.64"/><circle class="cls-4" cx="80.74" cy="171.43" r="4.76"/><circle class="cls-5" cx="81.76" cy="171.17" r="3.73"/><circle class="cls-4" cx="82.29" cy="170.88" r="3.21"/><circle class="cls-5" cx="82.9" cy="170.66" r="2.23"/><circle class="cls-4" cx="96.01" cy="173.16" r="4.03"/><circle class="cls-5" cx="96.88" cy="172.94" r="3.16"/><circle class="cls-4" cx="97.32" cy="172.7" r="2.72"/><circle class="cls-5" cx="97.84" cy="172.51" r="1.88"/><circle class="cls-4" cx="109.53" cy="175.64" r="3.5"/><circle class="cls-5" cx="110.28" cy="175.45" r="2.75"/><circle class="cls-4" cx="110.67" cy="175.24" r="2.37"/><circle class="cls-5" cx="111.12" cy="175.08" r="1.64"/><circle class="cls-3" cx="82.74" cy="209.43" r="4.76"/><circle class="cls-5" cx="83.76" cy="209.17" r="3.73"/><circle class="cls-3" cx="84.29" cy="208.88" r="3.21"/><circle class="cls-5" cx="84.9" cy="208.66" r="2.23"/><circle class="cls-3" cx="100.01" cy="211.16" r="4.03"/><circle class="cls-5" cx="100.88" cy="210.94" r="3.16"/><circle class="cls-3" cx="101.32" cy="210.7" r="2.72"/><circle class="cls-5" cx="101.84" cy="210.51" r="1.88"/><circle class="cls-3" cx="115.53" cy="213.64" r="3.5"/><circle class="cls-5" cx="116.28" cy="213.45" r="2.75"/><circle class="cls-3" cx="116.67" cy="213.24" r="2.37"/><circle class="cls-5" cx="117.12" cy="213.08" r="1.64"/><circle class="cls-3" cx="50.28" cy="171.43" r="4.76"/><circle class="cls-5" cx="49.25" cy="171.17" r="3.73"/><circle class="cls-3" cx="48.73" cy="170.88" r="3.21"/><circle class="cls-5" cx="48.12" cy="170.66" r="2.23"/><circle class="cls-3" cx="35.01" cy="173.16" r="4.03"/><circle class="cls-5" cx="34.14" cy="172.94" r="3.16"/><circle class="cls-3" cx="33.7" cy="172.7" r="2.72"/><circle class="cls-5" cx="33.18" cy="172.51" r="1.88"/><circle class="cls-3" cx="21.49" cy="175.64" r="3.5"/><circle class="cls-5" cx="20.73" cy="175.45" r="2.75"/><circle class="cls-3" cx="20.35" cy="175.24" r="2.37"/><circle class="cls-5" cx="19.9" cy="175.08" r="1.64"/><circle class="cls-3" cx="81.74" cy="137.43" r="4.76"/><circle class="cls-5" cx="82.76" cy="137.17" r="3.73"/><circle class="cls-3" cx="83.29" cy="136.88" r="3.21"/><circle class="cls-5" cx="83.9" cy="136.66" r="2.23"/><circle class="cls-3" cx="95.01" cy="139.16" r="4.03"/><circle class="cls-5" cx="95.88" cy="138.94" r="3.16"/><circle class="cls-3" cx="96.32" cy="138.7" r="2.72"/><circle class="cls-5" cx="96.84" cy="138.51" r="1.88"/><circle class="cls-3" cx="106.53" cy="141.64" r="3.5"/><circle class="cls-5" cx="107.28" cy="141.45" r="2.75"/><circle class="cls-3" cx="107.67" cy="141.24" r="2.37"/><circle class="cls-5" cx="108.12" cy="141.08" r="1.64"/><path class="cls-6" d="M119.53,225.05c-53.12-15.62-96.14-4.88-107.73-1.36-1.4.43-2.83-.56-2.62-1.81l16.43-99.45A1.77,1.77,0,0,1,27,121.06c6.7-1.75,40.43-9.5,79.45.1a1.78,1.78,0,0,1,1.41,1.41l14.3,100.7C122.32,224.5,120.91,225.46,119.53,225.05Z"/><path class="cls-3" d="M112.46,153.9h-.07a134.47,134.47,0,0,0-65.12-7.09c-16.66,2.29-26.23,6.94-26.33,7a.2.2,0,0,1-.26-.1.19.19,0,0,1,.1-.26c.1-.05,9.71-4.72,26.42-7a135,135,0,0,1,65.33,7.11.19.19,0,0,1,.12.25A.21.21,0,0,1,112.46,153.9Z"/><path class="cls-3" d="M118.81,205.05l-.08,0a174.25,174.25,0,0,0-75.57-7.32c-19.33,2.37-30.43,7.17-30.55,7.22a.25.25,0,0,1-.31-.1.2.2,0,0,1,.12-.27c.12-.05,11.27-4.87,30.67-7.25a174.73,174.73,0,0,1,75.8,7.34.2.2,0,0,1,.13.26A.23.23,0,0,1,118.81,205.05Z"/><path class="cls-3" d="M116.47,186.84h-.08a166.57,166.57,0,0,0-72.2-7c-18.47,2.27-29.08,6.86-29.19,6.91a.24.24,0,0,1-.29-.1.19.19,0,0,1,.11-.26c.12,0,10.77-4.66,29.3-6.93a166.91,166.91,0,0,1,72.43,7,.18.18,0,0,1,.12.25A.2.2,0,0,1,116.47,186.84Z"/><path class="cls-3" d="M114.68,170.63h-.07A158.36,158.36,0,0,0,46,164c-17.57,2.15-27.66,6.52-27.77,6.56a.21.21,0,0,1-.27-.1.17.17,0,0,1,.1-.24c.11,0,10.24-4.43,27.87-6.59a158.76,158.76,0,0,1,68.87,6.67.19.19,0,0,1,.13.24A.22.22,0,0,1,114.68,170.63Z"/></g></g></svg>