<svg xmlns="http://www.w3.org/2000/svg" viewBox="0 0 136.06 185.67"><defs><style>.cls-1{fill:#3b303f;}.cls-2{fill:#edc168;}.cls-3{fill:#4b94ab;}.cls-4{fill:#eef4d7;}</style></defs><title>瓷埙</title><g id="图层_2" data-name="图层 2"><g id="图层_1-2" data-name="图层 1"><path class="cls-1" d="M136.06,99.92c0-2.1-.05-4.19-.17-6.25-2.92-18.47-8.2-35.19-15.23-49.09-10-19.83-23.58-33.91-38.92-39.13-.91-.3-1.82-.57-2.73-.82,0,0,0-.09,0-.13,0-2.22-4.93-4-11-4s-11,1.8-11,4a1.49,1.49,0,0,0,.05.36c-1.13.33-2.25.7-3.36,1.12C40.38,11,28.44,22.84,19.1,39.29,9.67,55.89,2.9,77.22,0,101.11A108.25,108.25,0,0,0,6,136H6l0,.11q1.23,3.48,2.69,6.77l9,22.79,18.58,16.15,8.45,1.75A101.92,101.92,0,0,0,68,185.64a101.84,101.84,0,0,0,23.21-2.1l8.45-1.75,18.59-16.15,9-22.79q1.46-3.28,2.69-6.77l0-.11h0A108.42,108.42,0,0,0,136.06,99.92Z"/><ellipse class="cls-2" cx="68.03" cy="7.11" rx="14.24" ry="7.11"/><ellipse class="cls-2" cx="115.01" cy="117.94" rx="13.66" ry="10.03" transform="translate(-28.04 199.65) rotate(-75.45)"/><ellipse class="cls-2" cx="19.98" cy="117.83" rx="9.43" ry="13.81" transform="matrix(0.96, -0.3, 0.3, 0.96, -33.91, 11.16)"/><ellipse class="cls-2" cx="68.64" cy="146.37" rx="10.73" ry="14.62" transform="translate(-81.12 207.26) rotate(-87)"/><path class="cls-3" d="M69.59,154.85c-6.69,0-12.12-3.8-12.12-8.49s5.43-8.5,12.12-8.5c.25,0,.49,0,.73,0a17.16,17.16,0,0,0-2.29-.15c-7,0-12.69,4-12.69,8.89S61,155.52,68,155.52a16.34,16.34,0,0,0,7.77-1.87A16.17,16.17,0,0,1,69.59,154.85Z"/><path class="cls-3" d="M22.73,127.34c-3.68,1.14-8-2.31-9.7-7.71s0-10.71,3.66-11.85a5.13,5.13,0,0,1,2.83,0,5.77,5.77,0,0,0-4-.33c-3.92,1.22-5.66,6.86-3.88,12.61s6.39,9.42,10.32,8.21a5.65,5.65,0,0,0,3-2.28A5,5,0,0,1,22.73,127.34Z"/><path class="cls-3" d="M119,107.42a5.31,5.31,0,0,0-1.17-.2c3.8,1.32,5.47,6.87,3.72,12.54-1.6,5.18-5.52,8.67-9.15,8.41l.16.07c3.93,1.21,8.55-2.47,10.32-8.21S122.87,108.64,119,107.42Z"/><ellipse class="cls-4" cx="69.77" cy="146.32" rx="12.12" ry="8.5"/><ellipse class="cls-4" cx="19.89" cy="117.53" rx="6.99" ry="10.23" transform="translate(-33.83 11.12) rotate(-17.18)"/><ellipse class="cls-4" cx="114.57" cy="117.53" rx="10.89" ry="7.44" transform="translate(-31.55 192.28) rotate(-72.82)"/><ellipse class="cls-3" cx="68.19" cy="7.44" rx="12.34" ry="4.51"/></g></g></svg>