<svg xmlns="http://www.w3.org/2000/svg" viewBox="0 0 140.35 215.61"><defs><style>.cls-1{fill:#eef4d7;}.cls-2{fill:#4b94ab;}.cls-3{fill:#3b303f;}.cls-4{fill:#eaaa26;}</style></defs><title>笙</title><g id="图层_2" data-name="图层 2"><g id="图层_1-2" data-name="图层 1"><path class="cls-1" d="M47.51,191.17,31.38,182.6,15.6,173.38S-.13,190.86,7.84,207.29a22.63,22.63,0,0,0,6.67,5.57,22.69,22.69,0,0,0,8.25,2.75C40.92,213.74,47.51,191.17,47.51,191.17Z"/><path class="cls-2" d="M44.06,190.09l.46.25a1.68,1.68,0,0,0,2.28-.64l2.22-4a.13.13,0,0,0-.05-.17l-3.28-1.83-2.27,4.09A1.66,1.66,0,0,0,44.06,190.09Z"/><path class="cls-2" d="M39.67,187.64l.46.25a1.68,1.68,0,0,0,2.28-.64l2.21-4a.12.12,0,0,0,0-.17l-3.28-1.83L39,185.36A1.68,1.68,0,0,0,39.67,187.64Z"/><path class="cls-2" d="M35.3,185.2l.46.26a1.68,1.68,0,0,0,2.28-.65l2.21-4a.11.11,0,0,0,0-.16l-3.28-1.83-2.28,4.08A1.68,1.68,0,0,0,35.3,185.2Z"/><path class="cls-2" d="M31,182.78l.46.26a1.68,1.68,0,0,0,2.28-.65l2.22-4a.12.12,0,0,0,0-.16l-3.28-1.83L30.3,180.5A1.68,1.68,0,0,0,31,182.78Z"/><path class="cls-2" d="M26.58,180.35l.46.25a1.68,1.68,0,0,0,2.28-.65l2.22-4a.13.13,0,0,0-.05-.17L28.21,174l-2.28,4.08A1.69,1.69,0,0,0,26.58,180.35Z"/><path class="cls-2" d="M22.19,177.9l.46.25a1.68,1.68,0,0,0,2.28-.65l2.21-4a.12.12,0,0,0,0-.17l-3.29-1.83-2.27,4.08A1.69,1.69,0,0,0,22.19,177.9Z"/><path class="cls-2" d="M17.82,175.46l.46.26a1.68,1.68,0,0,0,2.28-.65l2.22-4a.12.12,0,0,0-.05-.16l-3.28-1.83-2.27,4.08A1.66,1.66,0,0,0,17.82,175.46Z"/><path class="cls-3" d="M71.21-11.5h3.85a.21.21,0,0,1,.21.21V185.52a0,0,0,0,1,0,0H71a0,0,0,0,1,0,0V-11.29a.21.21,0,0,1,.21-.21Z" transform="translate(51.62 -24.6) rotate(29.13)"/><rect class="cls-3" x="56.47" y="25.15" width="4.27" height="155.29" transform="translate(57.46 -15.53) rotate(29.13)"/><rect class="cls-3" x="65.22" y="30.03" width="4.27" height="155.29" transform="translate(60.94 -19.17) rotate(29.13)"/><path class="cls-3" d="M88.78-1.75h3.71a.28.28,0,0,1,.28.28V195.27a0,0,0,0,1,0,0H88.5a0,0,0,0,1,0,0V-1.47a.28.28,0,0,1,.28-.28Z" transform="translate(58.58 -31.88) rotate(29.13)"/><rect class="cls-3" x="73.97" y="34.9" width="4.27" height="155.29" transform="translate(64.42 -22.81) rotate(29.13)"/><rect class="cls-3" x="82.71" y="39.78" width="4.27" height="155.29" transform="translate(67.9 -26.45) rotate(29.13)"/><rect class="cls-3" x="59.51" y="71.25" width="4.27" height="113.89" transform="translate(70.21 -13.79) rotate(29.13)"/><rect class="cls-1" x="44.12" y="123.91" width="37.81" height="2.71" rx="0.32" transform="translate(68.96 -14.84) rotate(29.13)"/><rect class="cls-1" x="32.33" y="145.51" width="4.6" height="0.35" rx="0.04" transform="translate(75.31 1.57) rotate(29.13)"/><rect class="cls-1" x="36.87" y="147.56" width="4.6" height="0.35" rx="0.04" transform="translate(76.88 -0.38) rotate(29.13)"/><rect class="cls-1" x="41.12" y="150.48" width="4.6" height="0.35" rx="0.04" transform="translate(78.84 -2.08) rotate(29.13)"/><rect class="cls-1" x="49.81" y="155.26" width="4.6" height="0.35" rx="0.04" transform="translate(82.27 -5.7) rotate(29.13)"/><rect class="cls-1" x="45.08" y="153.27" width="4.6" height="0.35" rx="0.04" transform="translate(80.7 -3.65) rotate(29.13)"/><rect class="cls-1" x="54.35" y="157.3" width="4.6" height="0.35" rx="0.04" transform="translate(83.84 -7.66) rotate(29.13)"/><rect class="cls-1" x="58.6" y="160.23" width="4.6" height="0.35" rx="0.04" transform="translate(85.8 -9.36) rotate(29.13)"/><rect class="cls-1" x="68.38" y="80.83" width="4.6" height="0.35" rx="0.04" transform="translate(48.38 -24.16) rotate(29.13)"/><rect class="cls-1" x="72.92" y="82.87" width="4.6" height="0.35" rx="0.04" transform="translate(49.95 -26.12) rotate(29.13)"/><rect class="cls-1" x="77.18" y="85.8" width="4.6" height="0.35" rx="0.04" transform="translate(51.91 -27.82) rotate(29.13)"/><rect class="cls-1" x="85.86" y="90.57" width="4.6" height="0.35" rx="0.04" transform="translate(55.33 -31.44) rotate(29.13)"/><rect class="cls-1" x="81.13" y="88.58" width="4.6" height="0.35" rx="0.04" transform="translate(53.77 -29.39) rotate(29.13)"/><rect class="cls-1" x="90.41" y="92.61" width="4.6" height="0.35" rx="0.04" transform="translate(56.9 -33.4) rotate(29.13)"/><rect class="cls-1" x="94.66" y="95.54" width="4.6" height="0.35" rx="0.04" transform="translate(58.87 -35.1) rotate(29.13)"/><rect class="cls-1" x="88.77" y="44.24" width="4.6" height="0.35" rx="0.04" transform="translate(33.15 -38.72) rotate(29.13)"/><rect class="cls-1" x="93.32" y="46.28" width="4.6" height="0.35" rx="0.04" transform="translate(34.72 -40.68) rotate(29.13)"/><rect class="cls-1" x="97.57" y="49.21" width="4.6" height="0.35" rx="0.04" transform="translate(36.68 -42.38) rotate(29.13)"/><rect class="cls-1" x="106.25" y="53.98" width="4.6" height="0.35" rx="0.04" transform="translate(40.1 -46) rotate(29.13)"/><rect class="cls-1" x="110.8" y="56.03" width="4.6" height="0.35" rx="0.04" transform="translate(41.67 -47.95) rotate(29.13)"/><rect class="cls-1" x="110.18" y="16.03" width="4.6" height="0.35" rx="0.04" transform="translate(22.12 -52.71) rotate(29.13)"/><rect class="cls-1" x="127.66" y="25.78" width="4.6" height="0.35" rx="0.04" transform="translate(29.08 -59.99) rotate(29.13)"/><rect class="cls-1" x="115.05" y="58.95" width="4.6" height="0.35" rx="0.04" transform="translate(43.63 -49.65) rotate(29.13)"/><circle class="cls-4" cx="22.46" cy="167.68" r="0.78"/><circle class="cls-4" cx="26.77" cy="170.08" r="0.78"/><circle class="cls-4" cx="31.21" cy="172.56" r="0.78"/><circle class="cls-4" cx="35.46" cy="174.93" r="0.78"/><circle class="cls-4" cx="39.97" cy="177.44" r="0.78"/><circle class="cls-4" cx="44.26" cy="179.83" r="0.78"/><circle class="cls-4" cx="48.66" cy="182.28" r="0.78"/><path class="cls-3" d="M14.3,134.05c.39,17-10.57,35.35-13.75,42.12s8.52,13,8.52,13a11.63,11.63,0,0,0,4.44-8c-5.13-1.09-4.85-7.41-4.85-7.41s6.76-23.49,9.38-35.58c2.23-10.32-8.34-15.76-11.49-17.14a1,1,0,0,0-1.3.44l-.54,1a.79.79,0,0,0,.3,1.09c2,1.17,8,4.91,9.29,9.84Z"/><ellipse class="cls-4" cx="5.77" cy="122.31" rx="1.04" ry="0.41" transform="translate(-103.87 67.8) rotate(-60.87)"/></g></g></svg>