<svg xmlns="http://www.w3.org/2000/svg" viewBox="0 0 127.77 257.94"><defs><style>.cls-1{fill:#3b303f;}.cls-2{fill:#4b94ab;}.cls-3{fill:#eaaa26;}.cls-4{fill:none;stroke:#eaaa26;stroke-miterlimit:10;stroke-width:0.17px;}</style></defs><title>篪</title><g id="图层_2" data-name="图层 2"><g id="图层_1-2" data-name="图层 1"><path class="cls-1" d="M0,216.7,105.39,0s13.45-1.38,22.38,12.16L23.84,227.87S10.16,224.56,0,216.7Z"/><ellipse class="cls-2" cx="100.85" cy="26.42" rx="3.6" ry="2.62" transform="translate(29.49 102.43) rotate(-61.49)"/><ellipse class="cls-2" cx="67.23" cy="121.34" rx="2.94" ry="2.68" transform="translate(-71.31 128.28) rotate(-63.88)"/><ellipse class="cls-2" cx="75.76" cy="103.94" rx="2.94" ry="2.68" transform="translate(-50.92 126.2) rotate(-63.88)"/><ellipse class="cls-2" cx="58.57" cy="138.99" rx="2.94" ry="2.68" transform="translate(-92.02 130.39) rotate(-63.88)"/><ellipse class="cls-2" cx="50.69" cy="155.07" rx="2.94" ry="2.68" transform="translate(-110.86 132.31) rotate(-63.88)"/><ellipse class="cls-2" cx="41.38" cy="174.05" rx="2.94" ry="2.68" transform="translate(-133.11 134.57) rotate(-63.88)"/><ellipse class="cls-3" cx="29.63" cy="212.15" rx="3.08" ry="1.1" transform="translate(-170.94 136.92) rotate(-61.49)"/><ellipse class="cls-4" cx="115.74" cy="255.2" rx="1.9" ry="2.65"/></g></g></svg>