<svg xmlns="http://www.w3.org/2000/svg" viewBox="0 0 214.31 153.03"><defs><style>.cls-1{fill:#3b303f;}.cls-2{fill:#e1a62d;}.cls-3{fill:#eef4d7;}.cls-4{fill:#eaaa26;}.cls-5{fill:#4b94ab;}</style></defs><title>编磬</title><g id="图层_2" data-name="图层 2"><g id="图层_1-2" data-name="图层 1"><polygon class="cls-1" points="133.24 0 4.88 98.9 0 108.19 14.54 153.03 20.26 152.48 119.57 100.45 157.74 139.15 162.65 138.67 214.31 80.8 133.24 0"/><path class="cls-2" d="M15.85,148.33l-.13-.38L2.06,107.7l.19-.15L132.92,6.79l75,75.54-.22.24L161.39,134,119.94,93.5Zm-13-40.39,13.39,39.41L120.07,92.66,161.38,133,207,82.36,132.8,8.86Z"/><path class="cls-3" d="M22.57,139.91,11.74,109.83,133.91,19.41l63.38,63.87-.15.17-37.78,42-.18-.18L122.37,87.2ZM12.49,110.14l10.58,28.77,99.39-52.29,36.88,38.17L196.65,83.3,133.79,20.61Z"/><circle class="cls-4" cx="130.13" cy="30.41" r="5.12"/><path class="cls-4" d="M101.25,12.93a.86.86,0,0,1-1.18.79L95,11.6a1.34,1.34,0,0,1-.83-1.23s0-.6.25-.79A.48.48,0,0,1,95,9.51l5.72,2.65a.86.86,0,0,1,.5.77Z"/><circle class="cls-5" cx="130.4" cy="30.34" r="1.25"/><path class="cls-4" d="M129.58,31.06,99,17.38a.57.57,0,0,1-.33-.45L97.8,8.32a.55.55,0,0,1,.79-.55l14.21,7a.56.56,0,0,1,.1.94l-.8.61a.57.57,0,0,1-.58.06l-10.59-5.2a.54.54,0,0,0-.79.54l.37,3.88a.56.56,0,0,0,.33.45L130.4,29.23a.56.56,0,0,1,.28.73l-.37.82A.55.55,0,0,1,129.58,31.06Z"/></g></g></svg>