<svg xmlns="http://www.w3.org/2000/svg" viewBox="0 0 152.12 218.83"><defs><style>.cls-1{fill:#3b303f;}.cls-2{fill:#eef4d7;}</style></defs><title>编钟</title><g id="图层_2" data-name="图层 2"><g id="图层_1-2" data-name="图层 1"><path class="cls-1" d="M74.76,0c-14,0-25.28,18.79-25.22,41.89S61,83.68,75,83.65s25.28-18.79,25.22-41.89S88.75,0,74.76,0Zm.9,79.32c-8.76,0-15.9-13.17-15.94-29.45s7-29.5,15.8-29.52,15.9,13.16,15.94,29.44S84.43,79.29,75.66,79.32Z"/><path class="cls-1" d="M142,63.54l-9.23-14A203.07,203.07,0,0,0,84.1,39.82a65.78,65.78,0,0,0-16.51,0,202.84,202.84,0,0,0-48.66,10l-9.16,14C-.74,89.53-.13,126.07.09,133.15h0c0,.78.05,1.21.05,1.21H.22c1.43,28.36,14,53.17,32.61,68.42v0l.1.07q2.91,2.37,6,4.43l15.6,11.52,21.65-.05,21.65-.05L112,208.14c22.69-14.4,38.45-42,39.91-74.15H152S153.86,92,142,63.54Z"/><path class="cls-2" d="M75.94,80c28.55-.07,53.41-6.4,66.39-15.71l-.29-.72-9.23-14A203.07,203.07,0,0,0,84.1,39.82a65.78,65.78,0,0,0-16.51,0,202.84,202.84,0,0,0-48.66,10l-9.16,14c-.1.24-.2.48-.29.72C22.51,73.83,47.4,80,75.94,80Z"/><ellipse class="cls-1" cx="32.43" cy="58.59" rx="5.33" ry="4.42" transform="translate(-0.15 0.08) rotate(-0.14)"/><ellipse class="cls-1" cx="117.38" cy="58.38" rx="5.33" ry="4.42" transform="translate(-0.14 0.29) rotate(-0.14)"/><polyline class="cls-1" points="49.54 41.89 49.88 51.04 53.63 53.03 59.73 53.02 61.12 49.87 60.35 40.27 53.59 37.04"/><polyline class="cls-1" points="100.12 41.76 99.87 50.92 96.62 52.93 91.34 52.94 90.12 49.8 90.74 40.2 96.58 36.93"/></g></g></svg>