<svg xmlns="http://www.w3.org/2000/svg" viewBox="0 0 140.9 217.31"><defs><style>.cls-1{fill:#eef4d7;}.cls-2{fill:#3b303f;}.cls-3{fill:#eaaa26;}.cls-4{fill:#4b94ab;}</style></defs><title>镛钟</title><g id="图层_2" data-name="图层 2"><g id="图层_1-2" data-name="图层 1"><path class="cls-1" d="M93.11,33s-3-.29-2.73-3.87-1.72-4-1.72-4S94,21,91.53,17.83c0,0-3.59,1.86-3.59-3.73s-6.31-5.73-6.31-5.73c-1.29-4.88-8-5.17-8-5.17A2.58,2.58,0,0,0,72.65,1,6.21,6.21,0,0,0,69,0a5.68,5.68,0,0,0-3.88,1.15,3,3,0,0,0-.69,2.05s-6.74.29-8,5.17c0,0-6.31.14-6.31,5.73s-3.59,3.73-3.59,3.73c-2.44,3.16,2.87,7.31,2.87,7.31s-2,.43-1.72,4S44.92,33,44.92,33c-6.59,2.87-4.59,10.33-4.59,10.33S54.82,35.9,57,34.18s1.15-5,1.15-5c5.16-.14,6-4.16,6-7.17s2.44-.72,2.44-.72S69,24.14,68.73,21s1.22-1.15,1.15.35,1.23,1.73,1.57-.16v.09S73.89,19,73.89,22s.86,7,6,7.17c0,0-1,3.3,1.15,5S97.7,43.36,97.7,43.36,99.7,35.9,93.11,33Z"/><path class="cls-2" d="M140.73,176.29c-25-13.84-27.41-66.8-27.56-82.67V90.34c0-.81,0-1.24,0-1.24l0,0V73.9A42.28,42.28,0,0,0,71,31.74H69.86A42.29,42.29,0,0,0,27.7,73.9V95.22c-.29,17.56-3.29,67.66-27.53,81.07,0,0-6.56,36.92,61.75,40.8h0l.48,0c1.5.08,3,.15,4.6.2v-.07c2,0,4.4,0,6.9,0v.06C147.61,215,140.73,176.29,140.73,176.29Z"/><ellipse class="cls-3" cx="114.8" cy="128.32" rx="1.28" ry="3.5"/><path class="cls-1" d="M115.5,126.42l6,.29s2.37,1.58.29,4.58l-6.41.07S113.42,128.42,115.5,126.42Z"/><path class="cls-1" d="M114.88,124.83h-3.79s-3.2,2.66,0,7h3.53S112.62,128,114.88,124.83Z"/><path class="cls-1" d="M72.14,143.9a137.65,137.65,0,0,1-18.66-1.3,125.76,125.76,0,0,1-28.2-7,.1.1,0,0,1-.06-.13.1.1,0,0,1,.13-.05,125.62,125.62,0,0,0,28.16,7c15.45,2.13,38.81,2.65,62.4-7a.1.1,0,0,1,.08.18,112.74,112.74,0,0,1-33.48,7.92Q77.39,143.9,72.14,143.9Z"/><path class="cls-1" d="M111,62.53h0a135.57,135.57,0,0,0-57.74-6.9c-14.26,1.49-23,5-23.07,5a.1.1,0,0,1-.13-.06.11.11,0,0,1,.06-.13c.08,0,8.83-3.51,23.11-5A135.9,135.9,0,0,1,111,62.33a.1.1,0,0,1,.06.13A.1.1,0,0,1,111,62.53Z"/><ellipse class="cls-3" cx="106.92" cy="131.19" rx="1.28" ry="3.5"/><path class="cls-4" d="M107.61,129.28l6,.29s2.37,1.59.29,4.59l-6.4.07S105.54,131.28,107.61,129.28Z"/><path class="cls-4" d="M107,127.7h-3.8s-3.2,2.66,0,7h3.53S104.73,130.89,107,127.7Z"/><ellipse class="cls-3" cx="97.85" cy="132.95" rx="1.37" ry="3.76"/><path class="cls-1" d="M98.6,130.89l6.41.32s2.56,1.7.32,4.94l-6.9.07S96.37,133.05,98.6,130.89Z"/><path class="cls-1" d="M97.94,129.19H93.85s-3.44,2.86,0,7.52h3.8S95.5,132.63,97.94,129.19Z"/><ellipse class="cls-3" cx="114.8" cy="73.27" rx="1.28" ry="3.5"/><path class="cls-1" d="M115.5,75.18l6-.29s2.37-1.58.29-4.59l-6.41-.07S113.42,73.18,115.5,75.18Z"/><path class="cls-1" d="M114.88,76.77h-3.79s-3.2-2.66,0-7h3.53S112.62,73.57,114.88,76.77Z"/><ellipse class="cls-3" cx="106.92" cy="70.41" rx="1.28" ry="3.5"/><path class="cls-4" d="M107.61,72.31l6-.29s2.37-1.58.29-4.58l-6.4-.07S105.54,70.31,107.61,72.31Z"/><path class="cls-4" d="M107,73.9h-3.8s-3.2-2.66,0-7h3.53S104.73,70.7,107,73.9Z"/><ellipse class="cls-3" cx="97.85" cy="68.65" rx="1.37" ry="3.76"/><path class="cls-1" d="M98.6,70.7l6.41-.31s2.56-1.71.32-4.94l-6.9-.07S96.37,68.55,98.6,70.7Z"/><path class="cls-1" d="M97.94,72.41H93.85s-3.44-2.87,0-7.53h3.8S95.5,69,97.94,72.41Z"/><ellipse class="cls-3" cx="27.55" cy="71.84" rx="1.28" ry="3.5"/><path class="cls-1" d="M26.86,73.75l-6-.29s-2.37-1.59-.29-4.59L27,68.8S28.94,71.75,26.86,73.75Z"/><path class="cls-1" d="M27.48,75.34h3.79s3.2-2.67,0-7H27.74S29.74,72.14,27.48,75.34Z"/><ellipse class="cls-3" cx="35.44" cy="68.97" rx="1.28" ry="3.5"/><path class="cls-4" d="M34.75,70.88l-6-.29S26.42,69,28.5,66l6.4-.07S36.82,68.88,34.75,70.88Z"/><path class="cls-4" d="M35.36,72.47h3.8s3.2-2.67,0-7H35.63S37.63,69.27,35.36,72.47Z"/><ellipse class="cls-3" cx="44.51" cy="67.21" rx="1.37" ry="3.76"/><path class="cls-1" d="M43.76,69.27,37.34,69S34.79,67.25,37,64l6.89-.08S46,67.12,43.76,69.27Z"/><path class="cls-1" d="M44.42,71h4.09s3.44-2.87,0-7.53h-3.8S46.86,67.54,44.42,71Z"/><ellipse class="cls-3" cx="27.55" cy="128.32" rx="1.28" ry="3.5"/><path class="cls-1" d="M26.86,126.42l-6,.29s-2.37,1.58-.29,4.58l6.4.07S28.94,128.42,26.86,126.42Z"/><path class="cls-1" d="M27.48,124.83h3.79s3.2,2.66,0,7H27.74S29.74,128,27.48,124.83Z"/><ellipse class="cls-3" cx="35.44" cy="131.19" rx="1.28" ry="3.5"/><path class="cls-4" d="M34.75,129.28l-6,.29s-2.37,1.59-.29,4.59l6.4.07S36.82,131.28,34.75,129.28Z"/><path class="cls-4" d="M35.36,127.7h3.8s3.2,2.66,0,7H35.63S37.63,130.89,35.36,127.7Z"/><ellipse class="cls-3" cx="44.51" cy="132.95" rx="1.37" ry="3.76"/><path class="cls-1" d="M43.76,130.89l-6.42.32s-2.55,1.7-.31,4.94l6.89.07S46,133.05,43.76,130.89Z"/><path class="cls-1" d="M44.42,129.19h4.09s3.44,2.86,0,7.52h-3.8S46.86,132.63,44.42,129.19Z"/><ellipse class="cls-3" cx="112.65" cy="100.43" rx="1.28" ry="3.5"/><path class="cls-4" d="M113.35,98.52l6,.29s2.37,1.59.29,4.59l-6.41.07S111.27,100.52,113.35,98.52Z"/><path class="cls-4" d="M112.73,96.94h-3.8s-3.19,2.66,0,7h3.53S110.47,100.13,112.73,96.94Z"/><ellipse class="cls-3" cx="105.5" cy="100.28" rx="1.37" ry="3.76"/><path class="cls-1" d="M106.25,98.22l6.41.31s2.55,1.71.32,4.94l-6.9.08S104,100.37,106.25,98.22Z"/><path class="cls-1" d="M105.58,96.51H101.5s-3.44,2.87,0,7.53h3.8S103.15,100,105.58,96.51Z"/><ellipse class="cls-3" cx="97.45" cy="100.43" rx="1.28" ry="3.5"/><path class="cls-4" d="M98.15,98.52l6,.29s2.37,1.59.29,4.59l-6.41.07S96.07,100.52,98.15,98.52Z"/><path class="cls-4" d="M97.53,96.94h-3.8s-3.19,2.66,0,7h3.53S95.27,100.13,97.53,96.94Z"/><ellipse class="cls-3" cx="29.02" cy="100.43" rx="1.28" ry="3.5"/><path class="cls-4" d="M28.32,98.52l-5.95.29s-2.37,1.59-.29,4.59l6.4.07S30.4,100.52,28.32,98.52Z"/><path class="cls-4" d="M28.94,96.94h3.8s3.19,2.66,0,7H29.21S31.21,100.13,28.94,96.94Z"/><ellipse class="cls-3" cx="36.17" cy="100.28" rx="1.37" ry="3.76"/><path class="cls-1" d="M35.42,98.22,29,98.53s-2.55,1.71-.31,4.94l6.89.08S37.66,100.37,35.42,98.22Z"/><path class="cls-1" d="M36.09,96.51h4.08s3.45,2.87,0,7.53h-3.8S38.53,100,36.09,96.51Z"/><ellipse class="cls-3" cx="44.22" cy="100.43" rx="1.28" ry="3.5"/><path class="cls-4" d="M43.52,98.52l-6,.29s-2.37,1.59-.29,4.59l6.4.07S45.6,100.52,43.52,98.52Z"/><path class="cls-4" d="M44.14,96.94h3.8s3.2,2.66,0,7H44.41S46.41,100.13,44.14,96.94Z"/><path class="cls-1" d="M73.12,201.09H73c-14.66,0-30.73-3.41-40.94-8.62C15.92,184.2,8.47,172.34,8.4,172.22a.12.12,0,1,1,.21-.13c.08.12,7.49,11.92,23.61,20.15,10.17,5.2,26.2,8.57,40.82,8.6h.08c10.68,0,27.71-2.81,40.72-10.74,7.24-4.41,11.78-9.95,17.17-18a.13.13,0,0,1,.17,0,.12.12,0,0,1,0,.17c-5.42,8.1-10,13.65-17.25,18.09C100.92,198.27,83.83,201.09,73.12,201.09Z"/></g></g></svg>