<svg xmlns="http://www.w3.org/2000/svg" viewBox="0 0 45.24 228.35"><defs><style>.cls-1{fill:#3b303f;}.cls-2{fill:#4b94ab;}.cls-3{fill:#eef4d7;}.cls-4{fill:#575045;}</style></defs><title>鼗鼓</title><g id="图层_2" data-name="图层 2"><g id="图层_1-2" data-name="图层 1"><path class="cls-1" d="M43.94,211.68V172.23H45V170H43.94v-1.29h-2.2V170H25.53V7.33a.47.47,0,0,0-.47-.47h-2.8a.47.47,0,0,0-.47.47V170H1.21v2.19H21.79v30.41a.48.48,0,0,0,.47.47h2.8a.48.48,0,0,0,.47-.47V172.23H41.74v30.92H2.3v4.59H41.74v1.72l-1.65.07.38,9.16H5.05l.38-9.16-3.15-.14-.39,9.3H1.21v2.2H1.8l-.3,7.33,3.15.13L5,220.89h35.6l.31,7.46,3.16-.13-.31-7.33H45v-2.2H43.63l-.29-7Z"/><rect class="cls-2" x="22.07" y="5.96" width="3.16" height="1.66" rx="0.19"/><ellipse class="cls-1" cx="23.25" cy="27.88" rx="21.01" ry="19.05" transform="translate(-4.35 4.29) rotate(-9.66)"/><ellipse class="cls-3" cx="29.95" cy="26.6" rx="14.06" ry="16.49" transform="translate(-4.39 5.97) rotate(-10.62)"/><path class="cls-2" d="M31,39.26a10.48,10.48,0,0,1-6.57-2.43,13.93,13.93,0,0,1-4.8-8.3,13.9,13.9,0,0,1,1.47-9.48,9.89,9.89,0,0,1,15.26-2.86,13.94,13.94,0,0,1,4.81,8.3h0A13.87,13.87,0,0,1,39.7,34a10.17,10.17,0,0,1-6.93,5.14A9.6,9.6,0,0,1,31,39.26Zm-1.2-25a9.43,9.43,0,0,0-1.67.15,9.71,9.71,0,0,0-6.59,4.89,13.35,13.35,0,0,0-1.41,9.12,13.38,13.38,0,0,0,4.62,8,9.37,9.37,0,0,0,14.5-2.72,13.43,13.43,0,0,0,1.42-9.13h0a13.4,13.4,0,0,0-4.63-8A9.94,9.94,0,0,0,29.81,14.27Z"/><path class="cls-1" d="M23.7,0a1.85,1.85,0,0,0-1.85,1.85V6.12h3.69V1.85A1.85,1.85,0,0,0,23.7,0Z"/><rect class="cls-1" x="1.66" y="168.75" width="2.21" height="42.93"/><polyline class="cls-4" points="40.01 168.88 40.95 163.03 43.87 163.03 45.24 168.76"/><polyline class="cls-4" points="44.76 157.29 43.84 163.06 40.95 163.06 39.61 157.31"/><polyline class="cls-4" points="0.41 168.88 1.34 163.03 4.27 163.03 5.63 168.76"/><polyline class="cls-4" points="5.15 157.29 4.23 163.06 1.35 163.06 0 157.31"/><path class="cls-2" d="M7.7,16.05a.2.2,0,0,1-.11,0,.21.21,0,0,1-.06-.28c.15-.23.24-.35.24-.35a.2.2,0,0,1,.33.23,2.82,2.82,0,0,0-.23.34A.21.21,0,0,1,7.7,16.05Z"/><path class="cls-2" d="M15.36,45.64a.19.19,0,0,1-.1,0c-.25-.13-.5-.26-.74-.4a.2.2,0,0,1,.2-.35l.73.4a.19.19,0,0,1,.08.27A.18.18,0,0,1,15.36,45.64Zm-1.47-.82a.19.19,0,0,1-.1,0l-.72-.44a.2.2,0,0,1-.06-.27.19.19,0,0,1,.27-.07l.72.44a.2.2,0,0,1,.07.27A.22.22,0,0,1,13.89,44.82Zm-1.42-.89a.3.3,0,0,1-.11,0l-.69-.48a.2.2,0,0,1-.05-.28.19.19,0,0,1,.28,0l.69.47a.2.2,0,0,1,.05.28A.22.22,0,0,1,12.47,43.93Zm-1.36-1a.17.17,0,0,1-.12,0l-.67-.52a.21.21,0,0,1,0-.28.21.21,0,0,1,.29,0l.65.51a.21.21,0,0,1,0,.28A.18.18,0,0,1,11.11,43Zm-1.3-1.06a.17.17,0,0,1-.13,0c-.22-.18-.43-.37-.63-.56A.22.22,0,0,1,9,41a.21.21,0,0,1,.29,0l.61.55a.22.22,0,0,1,0,.29A.2.2,0,0,1,9.81,41.89ZM8.59,40.74a.2.2,0,0,1-.14-.06c-.2-.2-.4-.41-.58-.61a.21.21,0,0,1,0-.29.2.2,0,0,1,.28,0l.57.6a.21.21,0,0,1,0,.29A.24.24,0,0,1,8.59,40.74ZM7.47,39.5a.24.24,0,0,1-.16-.07c-.18-.22-.35-.45-.52-.67a.2.2,0,0,1,.32-.24c.16.22.33.44.51.65a.2.2,0,0,1,0,.28A.24.24,0,0,1,7.47,39.5Zm-1-1.34a.19.19,0,0,1-.16-.09c-.16-.23-.32-.47-.46-.71a.21.21,0,0,1,.06-.28.22.22,0,0,1,.28.07c.14.23.29.47.45.7a.19.19,0,0,1-.06.27A.15.15,0,0,1,6.46,38.16Zm-.87-1.43a.22.22,0,0,1-.18-.1L5,35.87a.2.2,0,0,1,.09-.27.21.21,0,0,1,.27.1c.12.24.24.49.37.73a.2.2,0,0,1-.08.28Zm-.72-1.51a.21.21,0,0,1-.19-.13c-.11-.26-.21-.52-.3-.79a.2.2,0,1,1,.37-.13c.09.25.19.51.3.77a.2.2,0,0,1-.11.26Zm-.56-1.58a.21.21,0,0,1-.2-.15C4,33.22,4,33,3.89,32.67A.22.22,0,0,1,4,32.43a.2.2,0,0,1,.24.15c.07.27.14.53.22.8a.2.2,0,0,1-.14.25ZM3.92,32a.2.2,0,0,1-.2-.17c-.05-.28-.1-.56-.13-.83a.2.2,0,0,1,.17-.23A.2.2,0,0,1,4,31c0,.28.08.55.13.82A.2.2,0,0,1,4,32Zm-.23-1.66a.19.19,0,0,1-.19-.19c0-.28,0-.56,0-.84a.19.19,0,0,1,.19-.21.2.2,0,0,1,.21.19c0,.28,0,.55,0,.83a.2.2,0,0,1-.18.22Zm0-1.68h0a.19.19,0,0,1-.19-.2c0-.29,0-.57,0-.85a.19.19,0,0,1,.2-.19h0a.21.21,0,0,1,.19.21c0,.28,0,.56,0,.83A.2.2,0,0,1,3.64,28.67ZM3.73,27h0a.18.18,0,0,1-.17-.21c0-.29.06-.57.1-.85A.2.2,0,1,1,4,26c0,.27-.07.55-.1.83A.2.2,0,0,1,3.73,27ZM4,25.34h0a.2.2,0,0,1-.16-.23c.06-.28.11-.56.17-.83a.2.2,0,0,1,.24-.15.19.19,0,0,1,.15.24c-.06.26-.11.54-.16.81A.2.2,0,0,1,4,25.34Zm.36-1.64h0a.2.2,0,0,1-.14-.24c.07-.28.15-.55.23-.82a.2.2,0,1,1,.38.12c-.08.26-.15.53-.22.8A.21.21,0,0,1,4.33,23.7Zm.48-1.61H4.75a.2.2,0,0,1-.13-.25c.09-.28.19-.54.28-.8a.21.21,0,0,1,.26-.12.2.2,0,0,1,.12.26c-.1.25-.19.51-.28.78A.19.19,0,0,1,4.81,22.09Zm.58-1.58H5.32a.2.2,0,0,1-.11-.26q.17-.4.33-.78a.2.2,0,0,1,.36.16l-.32.77A.2.2,0,0,1,5.39,20.51ZM6.07,19,6,19a.2.2,0,0,1-.1-.26c.13-.27.25-.52.38-.76a.2.2,0,0,1,.27-.09.21.21,0,0,1,.08.27l-.37.75A.19.19,0,0,1,6.07,19Zm.77-1.49a.19.19,0,0,1-.1,0,.21.21,0,0,1-.08-.27l.42-.73a.2.2,0,0,1,.28-.07.2.2,0,0,1,.07.27c-.13.21-.27.46-.42.73A.19.19,0,0,1,6.84,17.49Z"/><path class="cls-2" d="M16.51,46.22l-.09,0L16,46a.2.2,0,0,1,.18-.36l.38.19a.21.21,0,0,1,.1.26A.2.2,0,0,1,16.51,46.22Z"/><rect class="cls-4" x="19.93" y="47.49" width="7.37" height="0.88" rx="0.11"/><path class="cls-2" d="M21.8,47a27.32,27.32,0,0,0,3.69-.18l0,.74-3.75,0Z"/></g></g></svg>