<svg xmlns="http://www.w3.org/2000/svg" viewBox="0 0 118.46 180.48"><defs><style>.cls-1{fill:#3b303f;}.cls-2{fill:#eef4d7;}.cls-3{fill:#eaaa26;}</style></defs><title>龙笛</title><g id="图层_2" data-name="图层 2"><g id="图层_1-2" data-name="图层 1"><path class="cls-1" d="M104.35,20.36a30.53,30.53,0,0,0,1.42-6.85,3,3,0,0,1,.33-1.35c.58-1.15,1.86-3.25,3.8-3.88a2.32,2.32,0,0,0,.86-2.19c-.16-1.52.47-5.87,1.93-5.35a1.74,1.74,0,0,1,1,1.14,1.07,1.07,0,0,0,.37-.35c.22-.3,1.7-2.18,2.28-1.3s0,.88.59.89,2.44-.72,1,3.14-1.85,3.48-1.86,4.35a7.3,7.3,0,0,1-3.85,4.84,2.08,2.08,0,0,0,0,2.42c.89,1.23,2.08,3.23-.94,8.72"/><path class="cls-2" d="M104,20.19,20.41,164.31l7.66,4.44L111.65,24.63a5.93,5.93,0,0,0-2.87-3.9A5.39,5.39,0,0,0,104,20.19Z"/><ellipse class="cls-1" cx="39.29" cy="135.99" rx="1.38" ry="1.16" transform="translate(-98.06 101.76) rotate(-59.89)"/><ellipse class="cls-1" cx="60.65" cy="99.17" rx="1.38" ry="1.16" transform="translate(-55.57 101.88) rotate(-59.89)"/><ellipse class="cls-1" cx="65.44" cy="90.91" rx="1.38" ry="1.16" transform="translate(-46.03 101.91) rotate(-59.89)"/><ellipse class="cls-1" cx="69.97" cy="83.09" rx="1.38" ry="1.16" transform="matrix(0.5, -0.87, 0.87, 0.5, -37.01, 101.93)"/><ellipse class="cls-1" cx="74.32" cy="75.59" rx="1.38" ry="1.16" transform="translate(-28.36 101.96) rotate(-59.89)"/><ellipse class="cls-1" cx="78.92" cy="67.66" rx="1.38" ry="1.16" transform="translate(-19.21 101.99) rotate(-59.89)"/><ellipse class="cls-1" cx="83.51" cy="59.75" rx="1.38" ry="1.16" transform="translate(-10.07 102.01) rotate(-59.89)"/><ellipse class="cls-1" cx="93.62" cy="42.31" rx="1.38" ry="1.16" transform="translate(10.05 102.07) rotate(-59.89)"/><ellipse class="cls-3" cx="96.9" cy="49.37" rx="1.38" ry="1.16" transform="translate(5.58 108.43) rotate(-59.89)"/><ellipse class="cls-1" cx="97.41" cy="35.79" rx="1.38" ry="1.16" transform="translate(17.58 102.09) rotate(-59.89)"/><path class="cls-1" d="M16.89,167.12,17,167S16.79,167,16.89,167.12Z"/><path class="cls-1" d="M20.41,164.31s-1.23,4.44-2.63,3.52a3.5,3.5,0,0,1-.89-.71l-.56.95A26.52,26.52,0,0,0,17,156.74s-.53-1.54-1.28-.21-.9.56-.9.56c.93-5.23-1.23-5-1.32-3.9a14.55,14.55,0,0,1-1,3.55c-.27.54-.41-.47-.41-.47-1-2.25-1.54-.31-1.54-.31-.53,2.9-4.65,9.18-8.1,13.2s.34,4.55.34,4.55S3,175,1.12,175.87a1.81,1.81,0,0,0-.87,2.59c1.55,1.86,4.48-.9,4.48-.9.7-.54.23,1,.23,1-1.15,2.71,1.14,1.69,1.14,1.69,5.89-2.33,4.14-3.09,4.14-3.09C9.05,177.07,9.7,176,9.7,176a5.9,5.9,0,0,0,2.55-1.14l-.19.33s5.56,5.24,8,3.69a18.33,18.33,0,0,0,5.9-6.37c2-3.12,2.07-3.8,2.07-3.8Z"/><circle class="cls-3" cx="6.58" cy="172.99" r="1.04"/></g></g></svg>