<svg xmlns="http://www.w3.org/2000/svg" xmlns:xlink="http://www.w3.org/1999/xlink" viewBox="0 0 446.85 262.98"><defs><style>.cls-1{fill:none;}.cls-2{stroke:#000;stroke-miterlimit:10;stroke-width:0.29px;}.cls-3{clip-path:url(#clip-path);}.cls-4{fill:#e5cc8a;}.cls-5{fill:#e4cb89;}.cls-6{fill:#e4cb88;}.cls-7{fill:#e3ca87;}.cls-8{fill:#e2c986;}.cls-9{fill:#e2c885;}.cls-10{fill:#e1c884;}.cls-11{fill:#e0c783;}.cls-12{fill:#e0c682;}.cls-13{fill:#dfc581;}.cls-14{fill:#dec580;}.cls-15{fill:#dec47f;}.cls-16{fill:#ddc37e;}.cls-17{fill:#dcc27d;}.cls-18{fill:#dcc27c;}.cls-19{fill:#dbc17b;}.cls-20{fill:#dac07a;}.cls-21{fill:#dabf79;}.cls-22{fill:#d9bf78;}.cls-23{fill:#d8be77;}.cls-24{fill:#d8bd76;}.cls-25{fill:#d7bc75;}.cls-26{fill:#d6bc74;}.cls-27{fill:#d6bb73;}.cls-28{fill:#d5ba72;}.cls-29{fill:#d4b971;}.cls-30{fill:#d4b970;}.cls-31{fill:#d3b86f;}.cls-32{fill:#d2b76e;}.cls-33{fill:#d2b66d;}.cls-34{fill:#d1b66c;}.cls-35{fill:#d0b56a;}.cls-36{fill:#d0b469;}.cls-37{fill:#cfb368;}.cls-38{fill:#ceb367;}.cls-39{fill:#ceb266;}.cls-40{fill:#cdb165;}.cls-41{fill:#ccb064;}.cls-42{fill:#ccb063;}.cls-43{fill:#cbaf62;}.cls-44{fill:#caae61;}.cls-45{fill:#caad60;}.cls-46{fill:#c9ad5f;}.cls-47{fill:#c8ac5e;}.cls-48{fill:#c8ab5d;}.cls-49{fill:#c7aa5c;}.cls-50{fill:#c6aa5b;}.cls-51{fill:#c6a95a;}.cls-52{fill:#c5a859;}.cls-53{fill:#c4a758;}.cls-54{fill:#c4a757;}.cls-55{fill:#c3a656;}.cls-56{fill:#c2a555;}.cls-57{fill:#c2a454;}.cls-58{fill:#c1a453;}.cls-59{fill:#c0a352;}.cls-60{fill:#c0a251;}.cls-61{fill:#bfa150;}.cls-62{fill:#bea14f;}.cls-63{fill:#bea04e;}.cls-64{fill:#bd9f4d;}.cls-65{fill:#bcbcbc;}.cls-66{fill:#131111;}.cls-67{fill:#e2c477;}.cls-68{opacity:0.8;}.cls-69{fill:#010101;}.cls-70{fill:url(#未命名的渐变_7);}.cls-71{fill:url(#未命名的渐变_7-2);}.cls-72{fill:url(#未命名的渐变_7-3);}.cls-73{fill:url(#未命名的渐变_7-4);}</style><clipPath id="clip-path"><path class="cls-1" d="M205.58,102.48l-44.11,49a65.92,65.92,0,0,0,88.22-98,64.14,64.14,0,0,0-44.11-16.94Z"/></clipPath><linearGradient id="未命名的渐变_7" x1="249.41" y1="75.5" x2="311.41" y2="75.5" gradientUnits="userSpaceOnUse"><stop offset="0" stop-color="#e5cc8a"/><stop offset="1" stop-color="#bd9f4d"/></linearGradient><linearGradient id="未命名的渐变_7-2" x1="108.91" y1="138.5" x2="156.91" y2="138.5" xlink:href="#未命名的渐变_7"/><linearGradient id="未命名的渐变_7-3" x1="112.41" y1="31" x2="152.91" y2="31" xlink:href="#未命名的渐变_7"/><linearGradient id="未命名的渐变_7-4" x1="152.69" y1="43.5" x2="168.12" y2="43.5" gradientTransform="matrix(1.01, 0.03, -0.01, 1.02, -1.07, -6.56)" xlink:href="#未命名的渐变_7"/></defs><title>temp_how</title><g id="图层_2" data-name="图层 2"><g id="图层_1-2" data-name="图层 1"><path class="cls-2" d="M153.22,232.41l.7.31L151.15,239l2.75,6.23-.68.31L150.34,239Zm2.17,0,.68.31L153.31,239l2.76,6.23-.68.31L152.51,239Z"/><path class="cls-2" d="M157.52,237h2.89v6.48a21.57,21.57,0,0,0,1.73-1.55l.21.81a20.36,20.36,0,0,1-2.62,2.11l-.3-.67a.75.75,0,0,0,.23-.49v-5.95h-2.14Zm1.54-4.21a16.65,16.65,0,0,1,2.41,2.22l-.52.53a16.45,16.45,0,0,0-2.43-2.24Zm2.91,6.72h5.6v-1.22h.76v1.22h2v.71h-2v4a1,1,0,0,1-1.19,1.17h-1.57l-.17-.72c.7,0,1.19,0,1.49,0a.6.6,0,0,0,.68-.68v-3.81H162Zm3.9-6.91h.75v1.6h3.12v.71h-3.12v1.93h3.59v.73h-8.07v-.73h3.73v-1.93h-3.13v-.71h3.13ZM164,240.81a18.92,18.92,0,0,1,1.71,2.23l-.61.43a14.58,14.58,0,0,0-1.7-2.28Z"/><path class="cls-2" d="M176.14,243.12a19.67,19.67,0,0,1-4.44,1.63l-.09-.75a19.24,19.24,0,0,0,4.53-1.58ZM174.8,232.9a22.38,22.38,0,0,1-2.23,4.41c.74-.08,1.5-.18,2.28-.29.38-.72.66-1.25.86-1.6l.7.25a30.07,30.07,0,0,1-3.43,5.27,22,22,0,0,0,3.19-.84v.7a22.56,22.56,0,0,1-4.12,1l-.21-.7a1.51,1.51,0,0,0,.37-.22,17.4,17.4,0,0,0,2.24-3.15l-2.59.35-.18-.7a1.18,1.18,0,0,0,.32-.27,21.6,21.6,0,0,0,2.07-4.47Zm1.89,6.19-.49-.61a10.11,10.11,0,0,0,5.61-4.44h-4.94v-.75h5.87v.61a8.89,8.89,0,0,1-1.63,2.36,22.69,22.69,0,0,1,3.14,2.38l-.53.55a20.93,20.93,0,0,0-3.1-2.45A12.36,12.36,0,0,1,176.69,239.09Zm3.13,1.61H177V240h6.53v.73h-2.9v3.43h3.54v.76h-7.81v-.76h3.51Z"/><path class="cls-2" d="M186.42,232.41,189.3,239l-2.88,6.54-.67-.31L188.5,239l-2.75-6.23Zm2.17,0,2.88,6.54-2.88,6.54-.67-.31,2.74-6.23-2.77-6.23Z"/><path class="cls-2" d="M205.51,232.53h.79v2.59h5.07v6.44h-.77v-.94h-4.3v4.84h-.79v-4.84h-4.28v.94h-.77v-6.44h5Zm-4.28,7.35h4.28v-4h-4.28Zm5.07,0h4.3v-4h-4.3Z"/><path class="cls-2" d="M223.85,237.55v-3.92h.76v4.65H220.3v5.38h4.21v-3.91h.74v5.52h-.74v-.87H215.3v.87h-.74v-5.52h.74v3.91h4.21v-5.38H215.2v-4.65H216v3.92h3.55v-5h.79v5Z"/><path class="cls-2" d="M227.83,237.86h1.71v-3.53h-1.91v-.71h4.54v.71h-1.88v3.53H232v.73h-1.68v3.5c.64-.22,1.27-.46,1.91-.72v.75a30.2,30.2,0,0,1-4.43,1.38l-.18-.73c.66-.14,1.3-.29,1.95-.46v-3.72h-1.71Zm7.84-2.84h.71v3.47a8.48,8.48,0,0,1-1.07,4.45,6.71,6.71,0,0,1-3.35,2.42l-.43-.64a6.2,6.2,0,0,0,3.22-2.31,8.13,8.13,0,0,0,.92-3.92Zm3.43-1.82v7.66h-.76v-6.94h-4.5v6.94h-.76V233.2Zm-1.68,11.94a.9.9,0,0,1-1-1V240.8h.75V244c0,.31.17.46.49.46h1.1a.64.64,0,0,0,.57-.22,4.05,4.05,0,0,0,.31-1.71l.7.24a4.53,4.53,0,0,1-.46,2.09,1.36,1.36,0,0,1-1,.32Z"/><path class="cls-2" d="M246.45,235.09v9.41h-.73v-.86h-2.83v1.25h-.72v-9.8h1.26a12.81,12.81,0,0,0,.63-2.51l.77.1a12,12,0,0,1-.68,2.41Zm-3.56,3.85h2.83v-3.12h-2.83Zm0,4h2.83v-3.32h-2.83Zm10.81-7.84q0,6.74-.19,8.39a1.74,1.74,0,0,1-1.95,1.68l-1.37,0-.18-.7c.56,0,1.05,0,1.47,0a1.23,1.23,0,0,0,1.3-1.24c.1-.77.17-3.23.19-7.38h-4.13a11.81,11.81,0,0,1-1.41,2.45l-.45-.59a12.38,12.38,0,0,0,2.06-5.15l.74.08a16.68,16.68,0,0,1-.64,2.45Zm-4.87,3.15a24.38,24.38,0,0,1,2.44,3.08l-.61.44a21.5,21.5,0,0,0-2.45-3.13Z"/><path class="cls-2" d="M259,240.44a18.48,18.48,0,0,1-2.62,4.29l-.66-.46a16.4,16.4,0,0,0,2.61-4.16Zm-2.51-1.53a52.48,52.48,0,0,0,.95-5.24,4.51,4.51,0,0,0,.61.06,28.26,28.26,0,0,0,8.2-1l.38.66a33.27,33.27,0,0,1-8.57,1c-.25,1.53-.49,2.8-.73,3.8h4.3v-2.79h.76v2.79h5.22v.74H262.4V244c0,.86-.4,1.29-1.19,1.29h-1.87l-.16-.72,1.76.05c.47,0,.7-.27.7-.81v-4.9Zm8.65,1.12a37.51,37.51,0,0,1,2.52,4.45l-.7.36a33.89,33.89,0,0,0-2.49-4.49Z"/><path class="cls-2" d="M269.76,238h4.76a5.3,5.3,0,0,0,.7-1.24l.71.09a8.05,8.05,0,0,1-.6,1.15h4a8.6,8.6,0,0,0-.72-1.07l.67-.21a7,7,0,0,1,.8,1.28h2v.7h-4a9.44,9.44,0,0,0,4.33,2.31l-.31.64c-.31-.1-.68-.25-1.13-.43v4.17h-.7v-.66h-2.87v.66h-.7v-4.3h4a8.54,8.54,0,0,1-3.34-2.39h-2.45a9.1,9.1,0,0,1-3.44,2.39h3.79v4.3h-.7v-.66h-2.64v.66h-.69v-4.2c-.38.16-.82.31-1.31.46l-.35-.63a11.11,11.11,0,0,0,4.42-2.32h-4.13Zm1.16-4.82H275v3.23h-4.1Zm3.4,2.58v-1.92h-2.68v1.92Zm-2.5,8.31h2.64v-2.31h-2.64Zm5-10.89H281v3.23h-4.16Zm.56,10.89h2.87v-2.31h-2.87Zm2.88-8.31v-1.92h-2.74v1.92Z"/><g class="cls-3"><rect class="cls-4" x="271.5" y="36.56" width="7.43" height="139.26"/><rect class="cls-4" x="269.69" y="36.56" width="1.8" height="139.26"/><rect class="cls-5" x="267.89" y="36.56" width="1.8" height="139.26"/><rect class="cls-6" x="266.09" y="36.56" width="1.8" height="139.26"/><rect class="cls-7" x="264.28" y="36.56" width="1.8" height="139.26"/><rect class="cls-8" x="262.48" y="36.56" width="1.8" height="139.26"/><rect class="cls-9" x="260.67" y="36.56" width="1.8" height="139.26"/><rect class="cls-10" x="258.87" y="36.56" width="1.8" height="139.26"/><rect class="cls-11" x="257.07" y="36.56" width="1.8" height="139.26"/><rect class="cls-12" x="255.26" y="36.56" width="1.8" height="139.26"/><rect class="cls-13" x="253.46" y="36.56" width="1.8" height="139.26"/><rect class="cls-14" x="251.66" y="36.56" width="1.8" height="139.26"/><rect class="cls-15" x="249.85" y="36.56" width="1.8" height="139.26"/><rect class="cls-16" x="248.05" y="36.56" width="1.8" height="139.26"/><rect class="cls-17" x="246.25" y="36.56" width="1.8" height="139.26"/><rect class="cls-18" x="244.44" y="36.56" width="1.8" height="139.26"/><rect class="cls-19" x="242.64" y="36.56" width="1.8" height="139.26"/><rect class="cls-20" x="240.83" y="36.56" width="1.8" height="139.26"/><rect class="cls-21" x="239.03" y="36.56" width="1.8" height="139.26"/><rect class="cls-22" x="237.23" y="36.56" width="1.8" height="139.26"/><rect class="cls-23" x="235.42" y="36.56" width="1.8" height="139.26"/><rect class="cls-24" x="233.62" y="36.56" width="1.8" height="139.26"/><rect class="cls-25" x="231.82" y="36.56" width="1.8" height="139.26"/><rect class="cls-26" x="230.01" y="36.56" width="1.8" height="139.26"/><rect class="cls-27" x="228.21" y="36.56" width="1.8" height="139.26"/><rect class="cls-28" x="226.4" y="36.56" width="1.8" height="139.26"/><rect class="cls-29" x="224.6" y="36.56" width="1.8" height="139.26"/><rect class="cls-30" x="222.8" y="36.56" width="1.8" height="139.26"/><rect class="cls-31" x="220.99" y="36.56" width="1.8" height="139.26"/><rect class="cls-32" x="219.19" y="36.56" width="1.8" height="139.26"/><rect class="cls-33" x="217.39" y="36.56" width="1.8" height="139.26"/><rect class="cls-34" x="215.58" y="36.56" width="1.8" height="139.26"/><rect class="cls-35" x="213.78" y="36.56" width="1.8" height="139.26"/><rect class="cls-36" x="211.98" y="36.56" width="1.8" height="139.26"/><rect class="cls-37" x="210.17" y="36.56" width="1.8" height="139.26"/><rect class="cls-38" x="208.37" y="36.56" width="1.8" height="139.26"/><rect class="cls-39" x="206.56" y="36.56" width="1.8" height="139.26"/><rect class="cls-40" x="204.76" y="36.56" width="1.8" height="139.26"/><rect class="cls-41" x="202.96" y="36.56" width="1.8" height="139.26"/><rect class="cls-42" x="201.15" y="36.56" width="1.8" height="139.26"/><rect class="cls-43" x="199.35" y="36.56" width="1.8" height="139.26"/><rect class="cls-44" x="197.55" y="36.56" width="1.8" height="139.26"/><rect class="cls-45" x="195.74" y="36.56" width="1.8" height="139.26"/><rect class="cls-46" x="193.94" y="36.56" width="1.8" height="139.26"/><rect class="cls-47" x="192.13" y="36.56" width="1.8" height="139.26"/><rect class="cls-48" x="190.33" y="36.56" width="1.8" height="139.26"/><rect class="cls-49" x="188.53" y="36.56" width="1.8" height="139.26"/><rect class="cls-50" x="186.72" y="36.56" width="1.8" height="139.26"/><rect class="cls-51" x="184.92" y="36.56" width="1.8" height="139.26"/><rect class="cls-52" x="183.12" y="36.56" width="1.8" height="139.26"/><rect class="cls-53" x="181.31" y="36.56" width="1.8" height="139.26"/><rect class="cls-54" x="179.51" y="36.56" width="1.8" height="139.26"/><rect class="cls-55" x="177.71" y="36.56" width="1.8" height="139.26"/><rect class="cls-56" x="175.9" y="36.56" width="1.8" height="139.26"/><rect class="cls-57" x="174.1" y="36.56" width="1.8" height="139.26"/><rect class="cls-58" x="172.29" y="36.56" width="1.8" height="139.26"/><rect class="cls-59" x="170.49" y="36.56" width="1.8" height="139.26"/><rect class="cls-60" x="168.69" y="36.56" width="1.8" height="139.26"/><rect class="cls-61" x="166.88" y="36.56" width="1.8" height="139.26"/><rect class="cls-62" x="165.08" y="36.56" width="1.8" height="139.26"/><rect class="cls-63" x="163.28" y="36.56" width="1.8" height="139.26"/><polygon class="cls-64" points="161.47 151.47 161.47 36.56 163.28 36.56 163.28 175.83 161.47 175.83 161.47 151.47"/><path class="cls-64" d="M161.47,36.56v0Z"/></g><path class="cls-65" d="M205.58,102.48,143.64,125a63.76,63.76,0,0,0,17.83,26.44Z"/><path class="cls-66" d="M205.58,102.48V36.56a65.92,65.92,0,0,0-65.92,65.92,60.54,60.54,0,0,0,4,22.55Z"/><path d="M88.84,27.88a2.29,2.29,0,0,1,.78,1.82,2,2,0,0,1-1.51,2.1,2.48,2.48,0,0,1,1.25.82A2.18,2.18,0,0,1,89.81,34a2.7,2.7,0,0,1-.87,2.06,3.62,3.62,0,0,1-4.33.14,3.08,3.08,0,0,1-1.12-2.35h.81a2.29,2.29,0,0,0,.83,1.8,2.36,2.36,0,0,0,1.54.51,2.49,2.49,0,0,0,1.73-.61A2.07,2.07,0,0,0,89,34a1.75,1.75,0,0,0-.6-1.38,2.31,2.31,0,0,0-1.57-.49H86v-.65h.74a2.37,2.37,0,0,0,1.53-.46,1.69,1.69,0,0,0,.52-1.31,1.73,1.73,0,0,0-.53-1.33,2.21,2.21,0,0,0-1.55-.5,2.09,2.09,0,0,0-1.54.55A2.39,2.39,0,0,0,84.5,30h-.8a3.08,3.08,0,0,1,1-2.07,3,3,0,0,1,2.08-.74A3.14,3.14,0,0,1,88.84,27.88Z"/><path d="M95.1,27.38v9.29h-.79v-8.3a4.83,4.83,0,0,1-2.22,1.37v-.81a4.85,4.85,0,0,0,2.38-1.55Z"/><path d="M102.83,28.14a3,3,0,0,1,.48,1.78,3.09,3.09,0,0,1-.48,1.78,1.8,1.8,0,0,1-1.55.77,1.77,1.77,0,0,1-1.54-.77,2.94,2.94,0,0,1-.48-1.78,2.94,2.94,0,0,1,.48-1.78,1.76,1.76,0,0,1,1.54-.76A1.82,1.82,0,0,1,102.83,28.14Zm-2.53.38a2.65,2.65,0,0,0-.3,1.4,2.65,2.65,0,0,0,.3,1.4,1,1,0,0,0,1,.58,1.07,1.07,0,0,0,1-.59,2.79,2.79,0,0,0,.29-1.39,2.62,2.62,0,0,0-.31-1.4,1,1,0,0,0-1-.56A1,1,0,0,0,100.3,28.52Zm6.52-1.32h.66l-5.19,9.65h-.66Zm2.56,5.14a3,3,0,0,1,.48,1.78,3.09,3.09,0,0,1-.48,1.78,1.8,1.8,0,0,1-1.55.77,1.78,1.78,0,0,1-1.55-.77,3.54,3.54,0,0,1,0-3.56,1.78,1.78,0,0,1,1.55-.76A1.82,1.82,0,0,1,109.38,32.34Zm-2.53.37a2.78,2.78,0,0,0-.31,1.41,2.67,2.67,0,0,0,.3,1.4,1.05,1.05,0,0,0,1,.57,1.11,1.11,0,0,0,1-.58,3.37,3.37,0,0,0,0-2.8,1.07,1.07,0,0,0-1-.55A1,1,0,0,0,106.85,32.71Z"/><path d="M323.5,72.65h-.8a1.92,1.92,0,0,0-2.09-1.76,2,2,0,0,0-1.86,1.19A5.62,5.62,0,0,0,318.1,75v.45h0a2.64,2.64,0,0,1,1-1.28,2.57,2.57,0,0,1,1.56-.47,2.79,2.79,0,0,1,2.12.84,3.41,3.41,0,0,1-.06,4.46,2.88,2.88,0,0,1-2.18.9,2.81,2.81,0,0,1-2.53-1.29,6,6,0,0,1-.76-3.3,6.92,6.92,0,0,1,.83-3.58,2.78,2.78,0,0,1,2.47-1.48A2.62,2.62,0,0,1,323.5,72.65ZM319,75a2.29,2.29,0,0,0-.68,1.69,2.52,2.52,0,0,0,.6,1.72,2.16,2.16,0,0,0,1.7.74,2.08,2.08,0,0,0,1.65-.7,2.56,2.56,0,0,0,.63-1.77,2.41,2.41,0,0,0-.61-1.72,2.18,2.18,0,0,0-1.65-.65A2.15,2.15,0,0,0,319,75Z"/><path d="M328.93,70.38v9.29h-.79v-8.3a4.81,4.81,0,0,1-2.23,1.37v-.81a5.12,5.12,0,0,0,1.29-.58,5,5,0,0,0,1.09-1Z"/><path d="M336.65,71.14a3,3,0,0,1,.48,1.78,3.09,3.09,0,0,1-.48,1.78,1.79,1.79,0,0,1-1.55.77,1.77,1.77,0,0,1-1.53-.77,3.54,3.54,0,0,1,0-3.56,1.76,1.76,0,0,1,1.53-.76A1.81,1.81,0,0,1,336.65,71.14Zm-2.52.38a3.42,3.42,0,0,0,0,2.8,1,1,0,0,0,1,.58,1.05,1.05,0,0,0,1-.59,2.78,2.78,0,0,0,.3-1.39,2.62,2.62,0,0,0-.31-1.4,1.13,1.13,0,0,0-1.95,0Zm6.51-1.32h.67l-5.19,9.65h-.66Zm2.56,5.14a3,3,0,0,1,.48,1.78,3.09,3.09,0,0,1-.48,1.78,1.78,1.78,0,0,1-1.54.77,1.77,1.77,0,0,1-1.55-.77,3.54,3.54,0,0,1,0-3.56,1.77,1.77,0,0,1,1.55-.76A1.8,1.8,0,0,1,343.2,75.34Zm-2.52.37a3.39,3.39,0,0,0,0,2.81,1.05,1.05,0,0,0,1,.57,1.08,1.08,0,0,0,1-.58,2.78,2.78,0,0,0,.3-1.39,2.68,2.68,0,0,0-.31-1.41,1.14,1.14,0,0,0-1.95,0Z"/><path d="M92.53,134.94a2.2,2.2,0,0,1,.73,1.67,2.24,2.24,0,0,1-.38,1.28,2.17,2.17,0,0,1-1.14.8v.05a2.27,2.27,0,0,1,1.3.82,2.41,2.41,0,0,1,.54,1.57,2.52,2.52,0,0,1-.83,2,4.27,4.27,0,0,1-4.89,0,2.49,2.49,0,0,1-.83-2,2.37,2.37,0,0,1,.55-1.57,2.12,2.12,0,0,1,1.31-.82v-.05a2.18,2.18,0,0,1-1.16-.8,2.34,2.34,0,0,1,.35-2.95,3.72,3.72,0,0,1,4.45,0Zm-4.1,4.74a2,2,0,0,0,0,2.91,2.71,2.71,0,0,0,1.89.6,2.75,2.75,0,0,0,1.89-.6,1.9,1.9,0,0,0,.6-1.46,1.85,1.85,0,0,0-.62-1.45,3.19,3.19,0,0,0-3.75,0Zm.2-4.26a1.59,1.59,0,0,0-.51,1.21,1.67,1.67,0,0,0,.47,1.24,2.95,2.95,0,0,0,3.43,0,1.67,1.67,0,0,0,.47-1.24,1.59,1.59,0,0,0-.51-1.21,2.87,2.87,0,0,0-3.35,0Z"/><path d="M98.68,135.14a3,3,0,0,1,.48,1.78,3.09,3.09,0,0,1-.48,1.78,1.8,1.8,0,0,1-1.55.77,1.74,1.74,0,0,1-1.53-.77,3.54,3.54,0,0,1,0-3.56,1.75,1.75,0,0,1,1.53-.76A1.82,1.82,0,0,1,98.68,135.14Zm-2.52.38a3.42,3.42,0,0,0,0,2.8,1,1,0,0,0,1,.58,1.07,1.07,0,0,0,1-.59,2.78,2.78,0,0,0,.3-1.39,2.72,2.72,0,0,0-.31-1.4,1,1,0,0,0-1-.56A1,1,0,0,0,96.16,135.52Zm6.51-1.32h.66l-5.18,9.65h-.67Zm2.56,5.14a3,3,0,0,1,.48,1.78,3.09,3.09,0,0,1-.48,1.78,1.79,1.79,0,0,1-1.55.77,1.76,1.76,0,0,1-1.54-.77,3.54,3.54,0,0,1,0-3.56,1.75,1.75,0,0,1,1.54-.76A1.81,1.81,0,0,1,105.23,139.34Zm-2.52.37a2.68,2.68,0,0,0-.31,1.41,2.78,2.78,0,0,0,.29,1.4,1.05,1.05,0,0,0,1,.57,1.08,1.08,0,0,0,1-.58,2.78,2.78,0,0,0,.3-1.39,2.68,2.68,0,0,0-.31-1.41,1.06,1.06,0,0,0-1-.55A1,1,0,0,0,102.71,139.71Z"/><path class="cls-66" d="M89.41,260v-.41c.93-.09,1-.17,1-1.32v-4.76c-.91,2.11-2.08,4.79-2.79,6.49h-.36c-.65-1.65-1.68-4.26-2.56-6.38-.18,3.92-.18,4.73-.18,5.09,0,.66.27.8,1.14.88V260H82.72v-.41c.68-.06,1-.2,1.08-.89.06-.42.09-1,.38-5.12,0-.59-.05-.87-1.09-1v-.41H85.5l2.43,5.57,2.51-5.57h2.38v.41c-1,.1-1.1.2-1.08,1.12l.08,4.54c0,1.15.07,1.2,1.07,1.32V260Z"/><path class="cls-66" d="M99.25,259.72a20.84,20.84,0,0,0-2.12.42v-.85a2.79,2.79,0,0,1-1.72.85c-.93,0-1.54-.59-1.54-1.74V256c0-.58-.08-.65-.4-.72l-.28-.07v-.36a20.34,20.34,0,0,0,2-.21c0,.46,0,1.07,0,1.79v1.71c0,.88.45,1.15.91,1.15a1.35,1.35,0,0,0,1-.42V256c0-.59-.09-.68-.45-.74l-.37-.06v-.36c.72,0,1.68-.13,2.17-.21v3.95c0,.61.08.73.49.76l.28,0Z"/><path class="cls-66" d="M103.1,256.21c-.28-.79-.66-1.21-1.28-1.21a.66.66,0,0,0-.67.69c0,.45.31.68.95,1,1,.46,1.61.85,1.61,1.74a1.91,1.91,0,0,1-2.11,1.74,3.69,3.69,0,0,1-1.49-.35c0-.3-.16-1.07-.2-1.48l.38-.07c.24.76.71,1.44,1.51,1.44a.68.68,0,0,0,.74-.69c0-.43-.23-.71-.94-1.05s-1.55-.8-1.55-1.75.77-1.64,2-1.64a5.94,5.94,0,0,1,1.25.17c0,.32.13,1.08.18,1.39Z"/><path class="cls-66" d="M104.42,260v-.38c.69-.08.76-.13.76-1v-2.39c0-.78-.05-.83-.67-.92V255a11,11,0,0,0,2-.44v4.11c0,.81.06.89.79,1V260Zm1.35-6.35a.8.8,0,0,1-.78-.78.78.78,0,0,1,.79-.78.77.77,0,0,1,.78.78A.79.79,0,0,1,105.77,253.65Z"/><path class="cls-66" d="M112.58,258.87a2.81,2.81,0,0,1-2.08,1.27,2.49,2.49,0,0,1-2.55-2.55,2.88,2.88,0,0,1,1.22-2.32,3.42,3.42,0,0,1,2-.72,1.88,1.88,0,0,1,1.08.3.47.47,0,0,1,.22.41.72.72,0,0,1-.51.63.37.37,0,0,1-.25-.13,2,2,0,0,0-1.23-.58c-.58,0-1.19.53-1.19,1.81a1.93,1.93,0,0,0,1.73,2.15,1.8,1.8,0,0,0,1.34-.56Z"/><path class="cls-66" d="M117.08,260.14a1,1,0,0,1-.68-.24,1.2,1.2,0,0,1-.3-.48,4.22,4.22,0,0,1-1.33.72,1.54,1.54,0,0,1-1.58-1.52c0-.62.3-.94,1-1.18a10.08,10.08,0,0,0,1.92-.79v-.43c0-.7-.3-1.1-.86-1.1a.6.6,0,0,0-.5.26,2.56,2.56,0,0,0-.31.78.41.41,0,0,1-.45.36.68.68,0,0,1-.65-.59c0-.2.15-.35.41-.53a5.9,5.9,0,0,1,1.86-.85,2,2,0,0,1,1.15.34,1.64,1.64,0,0,1,.64,1.45v2.16c0,.56.2.72.4.72a1,1,0,0,0,.39-.11l.13.38Zm-1-3-.83.42c-.4.19-.64.41-.64.83a.84.84,0,0,0,.78.92,1,1,0,0,0,.69-.28Z"/><path class="cls-66" d="M118.57,260v-.38c.72-.1.76-.16.76-.93v-5.55c0-.67-.06-.74-.74-.86v-.36a10.83,10.83,0,0,0,2.08-.4v7.17c0,.8,0,.85.77.93V260Z"/><path class="cls-66" d="M124.71,260v-.38c.69-.08.76-.13.76-1v-2.39c0-.78,0-.83-.67-.92V255a11,11,0,0,0,2-.44v4.11c0,.81.06.89.79,1V260Zm1.35-6.35a.8.8,0,0,1-.78-.78.78.78,0,0,1,.79-.78.77.77,0,0,1,.78.78A.79.79,0,0,1,126.06,253.65Z"/><path class="cls-66" d="M131.62,260v-.38c.57-.08.62-.14.62-1v-2c0-.85-.38-1.22-.93-1.22a1.72,1.72,0,0,0-1.05.45v2.87c0,.77.06.8.62.88V260h-2.71v-.38c.68-.1.75-.13.75-.91v-2.49c0-.74-.09-.77-.66-.88V255a10.57,10.57,0,0,0,2-.46c0,.2,0,.61,0,.89.24-.17.49-.35.78-.53a1.71,1.71,0,0,1,1-.33c1,0,1.58.71,1.58,1.91v2.27c0,.77.07.81.68.89V260Z"/><path class="cls-66" d="M138.12,256.21c-.28-.79-.65-1.21-1.27-1.21a.66.66,0,0,0-.68.69c0,.45.32.68,1,1,1,.46,1.6.85,1.6,1.74a1.9,1.9,0,0,1-2.1,1.74,3.64,3.64,0,0,1-1.49-.35c0-.3-.16-1.07-.2-1.48l.38-.07c.24.76.7,1.44,1.51,1.44a.67.67,0,0,0,.73-.69c0-.43-.23-.71-.93-1.05s-1.55-.8-1.55-1.75.77-1.64,2-1.64a5.72,5.72,0,0,1,1.24.17c0,.32.14,1.08.19,1.39Z"/><path class="cls-66" d="M141.83,260a1.31,1.31,0,0,1-.5.14c-.87,0-1.37-.44-1.37-1.49v-3.39h-.79l-.06-.15.34-.41H140v-1l1.21-.91.16.08c0,.38,0,1,0,1.83h1.26a.46.46,0,0,1-.09.56H141.3v3c0,.95.38,1.08.64,1.08a1.66,1.66,0,0,0,.63-.14l.12.39Z"/><path class="cls-66" d="M146.15,260h-3v-.38c.68-.08.74-.13.74-.87v-2.59c0-.66-.05-.71-.66-.82V255a9.51,9.51,0,0,0,2-.47v1.31c.5-.76.95-1.28,1.48-1.28a.69.69,0,0,1,.75.67,1.06,1.06,0,0,1-.54.9.31.31,0,0,1-.35-.05c-.19-.17-.35-.34-.55-.34s-.56.23-.79.74v2.27c0,.75.07.79.94.88Z"/><path class="cls-66" d="M154.08,259.72a20.32,20.32,0,0,0-2.12.42v-.85a2.79,2.79,0,0,1-1.72.85c-.94,0-1.55-.59-1.55-1.74V256c0-.58-.08-.65-.39-.72l-.28-.07v-.36c.57,0,1.47-.12,2-.21,0,.46,0,1.07,0,1.79v1.71c0,.88.45,1.15.91,1.15a1.37,1.37,0,0,0,1-.42V256c0-.59-.09-.68-.45-.74l-.37-.06v-.36a21.38,21.38,0,0,0,2.16-.21v3.95c0,.61.08.73.49.76l.29,0Z"/><path class="cls-66" d="M161.26,260v-.38c.56-.08.64-.12.64-.89v-2.05c0-1-.4-1.25-.9-1.25a1.67,1.67,0,0,0-1.05.46,3.68,3.68,0,0,1,0,.51v2.39c0,.7.06.75.65.83V260H158v-.38c.6-.08.67-.11.67-.84v-2.15c0-.86-.31-1.21-.86-1.21a1.79,1.79,0,0,0-1.06.45v2.91c0,.71.08.76.61.84V260h-2.69v-.38c.7-.08.75-.13.75-.87v-2.53c0-.7,0-.79-.62-.89V255a10.74,10.74,0,0,0,1.95-.46v.92c.26-.18.49-.36.79-.54a1.8,1.8,0,0,1,1-.35,1.38,1.38,0,0,1,1.33.94l.87-.62a1.83,1.83,0,0,1,1-.32c1,0,1.56.7,1.56,1.9v2.33c0,.71.07.75.69.84V260Z"/><path class="cls-66" d="M169.23,258.88a2.71,2.71,0,0,1-2.12,1.26,2.43,2.43,0,0,1-2.46-2.6,3.15,3.15,0,0,1,.86-2.14,2.61,2.61,0,0,1,1.84-.85,1.93,1.93,0,0,1,1.93,1.92c0,.22,0,.39-.19.43s-1.87.15-3.12.2c0,1.39.82,2,1.68,2a2,2,0,0,0,1.38-.57ZM167.09,255c-.5,0-1,.55-1.06,1.5l1.66,0c.18,0,.26-.05.26-.24C168,255.65,167.63,255,167.09,255Z"/><path class="cls-66" d="M173.44,260v-.38c.57-.08.62-.14.62-1v-2c0-.85-.38-1.22-.93-1.22a1.72,1.72,0,0,0-1,.45v2.87c0,.77.06.8.62.88V260H170v-.38c.68-.1.75-.13.75-.91v-2.49c0-.74-.09-.77-.66-.88V255a10.57,10.57,0,0,0,2-.46c0,.2,0,.61,0,.89.24-.17.5-.35.78-.53a1.71,1.71,0,0,1,1-.33c1,0,1.58.71,1.58,1.91v2.27c0,.77.07.81.68.89V260Z"/><path class="cls-66" d="M179.12,260a1.23,1.23,0,0,1-.49.14c-.87,0-1.37-.44-1.37-1.49v-3.39h-.79l-.06-.15.34-.41h.51v-1c.35-.27.85-.63,1.2-.91l.17.08c0,.38,0,1,0,1.83h1.26a.48.48,0,0,1-.09.56H178.6v3c0,.95.38,1.08.64,1.08a1.66,1.66,0,0,0,.63-.14l.12.39Z"/><path class="cls-66" d="M183.72,256.21c-.28-.79-.65-1.21-1.27-1.21a.66.66,0,0,0-.68.69c0,.45.32.68,1,1,1,.46,1.6.85,1.6,1.74a1.9,1.9,0,0,1-2.1,1.74,3.64,3.64,0,0,1-1.49-.35c-.05-.3-.16-1.07-.2-1.48l.38-.07c.24.76.71,1.44,1.51,1.44a.67.67,0,0,0,.73-.69c0-.43-.23-.71-.93-1.05s-1.55-.8-1.55-1.75.77-1.64,2-1.64a5.72,5.72,0,0,1,1.24.17c0,.32.14,1.08.19,1.39Z"/><path class="cls-66" d="M191.72,260.14a1,1,0,0,1-.68-.24,1.2,1.2,0,0,1-.3-.48,4.22,4.22,0,0,1-1.33.72,1.54,1.54,0,0,1-1.58-1.52c0-.62.3-.94.95-1.18a10.37,10.37,0,0,0,1.92-.79v-.43c0-.7-.3-1.1-.86-1.1a.63.63,0,0,0-.51.26,2.59,2.59,0,0,0-.3.78.41.41,0,0,1-.45.36.68.68,0,0,1-.65-.59c0-.2.15-.35.41-.53a5.9,5.9,0,0,1,1.86-.85,2,2,0,0,1,1.15.34,1.64,1.64,0,0,1,.64,1.45v2.16c0,.56.2.72.4.72a1,1,0,0,0,.39-.11l.13.38Zm-1-3-.83.42c-.4.19-.64.41-.64.83a.84.84,0,0,0,.78.92,1,1,0,0,0,.69-.28Z"/><path class="cls-66" d="M193.24,255a14.46,14.46,0,0,0,2-.53v.9l.91-.53a1.57,1.57,0,0,1,.75-.25,2.2,2.2,0,0,1,2.09,2.34,3.42,3.42,0,0,1-3,3.25,2,2,0,0,1-.79-.14v1.5c0,.75.07.82.93.92v.37h-3.08v-.37c.74-.08.81-.17.81-.88v-5.39c0-.67-.06-.73-.71-.82Zm2,4.15a1.62,1.62,0,0,0,1,.45c.77,0,1.31-.81,1.31-2.12s-.74-2-1.43-2a1.63,1.63,0,0,0-.92.36Z"/><path class="cls-66" d="M199.8,255a14,14,0,0,0,2-.53v.9l.91-.53a1.63,1.63,0,0,1,.75-.25,2.2,2.2,0,0,1,2.09,2.34,3.42,3.42,0,0,1-3,3.25,2.07,2.07,0,0,1-.79-.14v1.5c0,.75.07.82.93.92v.37h-3.08v-.37c.75-.08.81-.17.81-.88v-5.39c0-.67-.05-.73-.7-.82Zm2,4.15a1.64,1.64,0,0,0,1,.45c.78,0,1.32-.81,1.32-2.12s-.74-2-1.43-2a1.69,1.69,0,0,0-.93.36Z"/><path class="cls-66" d="M211.1,258.88a2.71,2.71,0,0,1-2.12,1.26,2.43,2.43,0,0,1-2.46-2.6,3.15,3.15,0,0,1,.86-2.14,2.61,2.61,0,0,1,1.84-.85,1.94,1.94,0,0,1,1.93,1.92c0,.22,0,.39-.19.43s-1.87.15-3.12.2c0,1.39.82,2,1.68,2a2,2,0,0,0,1.37-.57ZM209,255c-.5,0-1,.55-1.06,1.5l1.66,0c.18,0,.25-.05.25-.24C209.83,255.65,209.5,255,209,255Z"/><path class="cls-66" d="M215.79,260.14a1,1,0,0,1-.68-.24,1.2,1.2,0,0,1-.3-.48,4.12,4.12,0,0,1-1.33.72,1.54,1.54,0,0,1-1.57-1.52c0-.62.3-.94.94-1.18a9.8,9.8,0,0,0,1.92-.79v-.43c0-.7-.3-1.1-.85-1.1a.61.61,0,0,0-.51.26,2.35,2.35,0,0,0-.3.78.43.43,0,0,1-.46.36.68.68,0,0,1-.65-.59c0-.2.15-.35.42-.53a5.74,5.74,0,0,1,1.85-.85,1.93,1.93,0,0,1,1.15.34,1.65,1.65,0,0,1,.65,1.45v2.16c0,.56.19.72.39.72a1,1,0,0,0,.39-.11l.13.38Zm-1-3-.83.42c-.4.19-.64.41-.64.83a.84.84,0,0,0,.78.92,1,1,0,0,0,.69-.28Z"/><path class="cls-66" d="M220.46,260h-3v-.38c.68-.08.74-.13.74-.87v-2.59c0-.66,0-.71-.65-.82V255a9.43,9.43,0,0,0,2-.47v1.31c.5-.76,1-1.28,1.49-1.28a.69.69,0,0,1,.75.67,1.06,1.06,0,0,1-.54.9.32.32,0,0,1-.36-.05c-.19-.17-.34-.34-.55-.34s-.56.23-.79.74v2.27c0,.75.08.79,1,.88Z"/><path class="cls-66" d="M222.33,260v-.38c.69-.08.76-.13.76-1v-2.39c0-.78-.05-.83-.67-.92V255a11,11,0,0,0,2-.44v4.11c0,.81.06.89.79,1V260Zm1.35-6.35a.8.8,0,0,1-.78-.78.78.78,0,0,1,.79-.78.77.77,0,0,1,.78.78A.79.79,0,0,1,223.68,253.65Z"/><path class="cls-66" d="M229.24,260v-.38c.57-.08.62-.14.62-1v-2c0-.85-.38-1.22-.93-1.22a1.72,1.72,0,0,0-1.05.45v2.87c0,.77.06.8.62.88V260h-2.71v-.38c.68-.1.75-.13.75-.91v-2.49c0-.74-.09-.77-.66-.88V255a10.57,10.57,0,0,0,2-.46c0,.2,0,.61,0,.89.24-.17.5-.35.78-.53a1.71,1.71,0,0,1,1-.33c1,0,1.58.71,1.58,1.91v2.27c0,.77.07.81.68.89V260Z"/><path class="cls-66" d="M234.23,258.17a.77.77,0,0,0-.28.48c0,.2.22.44.71.44H236c.74,0,1.78.28,1.78,1.46S236.2,263,234.6,263s-2.21-.77-2.22-1.45a.81.81,0,0,1,.34-.67c.3-.23.66-.5.93-.69a1.72,1.72,0,0,1-.9-.66,1,1,0,0,1-.17-.61,3.32,3.32,0,0,0,1.22-.86Zm.58.12c-1.28,0-2.18-.71-2.18-1.81a2.09,2.09,0,0,1,2.27-1.94,2.75,2.75,0,0,1,1.28.31,8.11,8.11,0,0,0,1.64-.18l.06.11a1.52,1.52,0,0,1-.44.7c-.2,0-.55,0-.72-.06a1.59,1.59,0,0,1,.31,1A2,2,0,0,1,234.81,258.29Zm.19,1.92a1.66,1.66,0,0,0-1.09.23,1.06,1.06,0,0,0-.42.78c0,.64.63,1.13,1.63,1.13s1.6-.48,1.6-1.17a.85.85,0,0,0-.62-.85A3.52,3.52,0,0,0,235,260.21Zm-.19-5.24c-.43,0-.84.46-.84,1.36s.35,1.53.95,1.53.82-.48.82-1.38S235.42,255,234.81,255Z"/><path class="cls-66" d="M240.88,260v-.38c.69-.08.77-.13.77-1v-2.39c0-.78-.06-.83-.67-.92V255a11,11,0,0,0,2-.44v4.11c0,.81.06.89.79,1V260Zm1.35-6.35a.8.8,0,0,1-.78-.78.78.78,0,0,1,.79-.78.77.77,0,0,1,.78.78A.79.79,0,0,1,242.23,253.65Z"/><path class="cls-66" d="M247.79,260v-.38c.57-.08.62-.14.62-1v-2c0-.85-.38-1.22-.93-1.22a1.72,1.72,0,0,0-1,.45v2.87c0,.77.06.8.62.88V260h-2.71v-.38c.68-.1.75-.13.75-.91v-2.49c0-.74-.09-.77-.66-.88V255a10.57,10.57,0,0,0,2-.46c0,.2,0,.61,0,.89.24-.17.5-.35.78-.53a1.71,1.71,0,0,1,1-.33c1,0,1.58.71,1.58,1.91v2.27c0,.77.07.81.69.89V260Z"/><path class="cls-66" d="M256.32,260a1.32,1.32,0,0,1-.49.14c-.87,0-1.37-.44-1.37-1.49v-3.39h-.79l-.07-.15.34-.41h.52v-1c.34-.27.84-.63,1.2-.91l.16.08c0,.38,0,1,0,1.83h1.26a.46.46,0,0,1-.09.56h-1.17v3c0,.95.39,1.08.64,1.08a1.62,1.62,0,0,0,.63-.14l.12.39Z"/><path class="cls-66" d="M261,260v-.38c.59-.08.65-.16.65-.86V256.7c0-.95-.39-1.32-1-1.32a1.4,1.4,0,0,0-1,.44v2.94c0,.7.08.78.69.86V260h-2.77v-.38c.62-.07.75-.11.75-.89V253.1c0-.58-.06-.72-.78-.82v-.36a9.67,9.67,0,0,0,2.11-.4v3.85a2.57,2.57,0,0,1,1.67-.82c1,0,1.66.66,1.66,2v2.17c0,.77.09.79.71.88V260Z"/><path class="cls-66" d="M269,258.88a2.72,2.72,0,0,1-2.13,1.26,2.43,2.43,0,0,1-2.46-2.6,3.15,3.15,0,0,1,.86-2.14,2.65,2.65,0,0,1,1.84-.85,1.93,1.93,0,0,1,1.93,1.92c0,.22,0,.39-.18.43s-1.87.15-3.13.2c0,1.39.82,2,1.68,2a2,2,0,0,0,1.38-.57ZM266.85,255c-.51,0-1,.55-1.07,1.5.56,0,1.09,0,1.66,0,.19,0,.26-.05.26-.24C267.71,255.65,267.39,255,266.85,255Z"/><path class="cls-66" d="M277,255.73c1.23.22,2.13.8,2.13,2a2.11,2.11,0,0,1-1.15,1.83,4.48,4.48,0,0,1-2.21.49h-3.22v-.41c1-.09,1-.17,1-1.15v-4.66c0-1-.14-1.1-1-1.17v-.41H276a3.44,3.44,0,0,1,1.92.42,1.55,1.55,0,0,1,.73,1.34A1.94,1.94,0,0,1,277,255.73Zm-1.47-.15c1.2,0,1.67-.5,1.67-1.43a1.35,1.35,0,0,0-1.46-1.45,1.17,1.17,0,0,0-.6.1c-.12.08-.13.2-.13.5v2.28Zm-.52,2.83c0,.86.33,1.11,1.05,1.1a1.53,1.53,0,0,0,1.5-1.72c0-1.18-.69-1.73-2.07-1.73H275Z"/><path class="cls-66" d="M282.92,254.55a2.64,2.64,0,0,1,2.71,2.7,2.76,2.76,0,1,1-5.52.16A2.8,2.8,0,0,1,282.92,254.55Zm-.14.46c-.59,0-1.15.6-1.15,2s.55,2.63,1.39,2.63c.56,0,1.09-.39,1.09-2.11C284.11,256,283.63,255,282.78,255Z"/><path class="cls-66" d="M289.34,254.55a2.64,2.64,0,0,1,2.71,2.7,2.76,2.76,0,1,1-5.52.16A2.8,2.8,0,0,1,289.34,254.55Zm-.14.46c-.59,0-1.15.6-1.15,2s.55,2.63,1.39,2.63c.56,0,1.09-.39,1.09-2.11C290.53,256,290.05,255,289.2,255Z"/><path class="cls-66" d="M299,260c-.83,0-1.61,0-2,0l-1.71-2.38c-.13-.16-.2-.22-.28-.23a.33.33,0,0,0-.14,0v1.3c0,.79.06.82.75.91V260h-2.85v-.38c.7-.09.76-.14.76-.91v-5.56c0-.7-.07-.74-.74-.87v-.36a9,9,0,0,0,2.08-.4v5.55a1.47,1.47,0,0,0,.7-.45,7.33,7.33,0,0,0,.89-1.08c.19-.29,0-.41-.46-.47v-.37l2.53-.1V255a2.21,2.21,0,0,0-1.56.74c-.21.2-.57.63-.88,1,.28.42,1.44,1.9,1.8,2.31a1.41,1.41,0,0,0,1.1.62Z"/><path class="cls-66" d="M304.51,254.55a2.64,2.64,0,0,1,2.71,2.7,2.76,2.76,0,1,1-5.52.16A2.8,2.8,0,0,1,304.51,254.55Zm-.14.46c-.59,0-1.15.6-1.15,2s.55,2.63,1.39,2.63c.56,0,1.09-.39,1.09-2.11C305.7,256,305.22,255,304.37,255Z"/><path class="cls-66" d="M308.7,254.7v-.28a3,3,0,0,1,1.11-2.28,2.6,2.6,0,0,1,1.43-.62,1.46,1.46,0,0,1,1,.35.43.43,0,0,1,.09.5.92.92,0,0,1-.38.47.3.3,0,0,1-.41,0c-.27-.27-.62-.62-1-.62-.52,0-.55.64-.54,2v.54h1.16a.55.55,0,0,1-.15.56h-1v3.43c0,.79.1.83.91.93V260h-3v-.38c.7-.09.75-.15.75-.9v-3.46h-.81l-.06-.15.3-.41Z"/><path class="cls-66" d="M318.77,254.13c-.22-.78-.56-1.62-1.67-1.62a1.14,1.14,0,0,0-1.19,1.21c0,.72.47,1.13,1.51,1.65,1.33.67,2.08,1.27,2.08,2.44a2.51,2.51,0,0,1-2.8,2.37,6.08,6.08,0,0,1-1.95-.38c-.08-.3-.26-1.39-.35-2l.44-.1c.24.77.86,2,2.06,2a1.18,1.18,0,0,0,1.25-1.28c0-.78-.45-1.17-1.48-1.72-1.25-.68-2-1.27-2-2.47s.95-2.19,2.68-2.19a8.35,8.35,0,0,1,1.66.22c0,.44.12,1,.22,1.77Z"/><path class="cls-66" d="M323.24,254.55a2.64,2.64,0,0,1,2.71,2.7,2.76,2.76,0,1,1-5.52.16A2.8,2.8,0,0,1,323.24,254.55Zm-.14.46c-.59,0-1.15.6-1.15,2s.55,2.63,1.39,2.63c.56,0,1.09-.39,1.09-2.11C324.43,256,324,255,323.1,255Z"/><path class="cls-66" d="M330.15,260v-.38c.57-.08.62-.14.62-1v-2c0-.85-.38-1.22-.93-1.22a1.69,1.69,0,0,0-1,.45v2.87c0,.77,0,.8.62.88V260H326.7v-.38c.68-.1.75-.13.75-.91v-2.49c0-.74-.09-.77-.66-.88V255a10.3,10.3,0,0,0,2-.46c0,.2,0,.61,0,.89.24-.17.49-.35.78-.53a1.69,1.69,0,0,1,1-.33c1,0,1.57.71,1.57,1.91v2.27c0,.77.07.81.69.89V260Z"/><path class="cls-66" d="M335.14,258.17a.77.77,0,0,0-.28.48c0,.2.22.44.71.44h1.35c.74,0,1.78.28,1.78,1.46s-1.59,2.43-3.19,2.43-2.21-.77-2.22-1.45a.81.81,0,0,1,.34-.67c.3-.23.66-.5.93-.69a1.68,1.68,0,0,1-.9-.66,1,1,0,0,1-.17-.61,3.32,3.32,0,0,0,1.22-.86Zm.58.12c-1.28,0-2.18-.71-2.18-1.81a2.09,2.09,0,0,1,2.26-1.94,2.76,2.76,0,0,1,1.29.31,8.11,8.11,0,0,0,1.64-.18l.06.11a1.52,1.52,0,0,1-.44.7c-.2,0-.56,0-.72-.06a1.59,1.59,0,0,1,.31,1A2,2,0,0,1,335.72,258.29Zm.19,1.92a1.66,1.66,0,0,0-1.09.23,1.06,1.06,0,0,0-.42.78c0,.64.63,1.13,1.63,1.13s1.6-.48,1.6-1.17a.85.85,0,0,0-.62-.85A3.52,3.52,0,0,0,335.91,260.21Zm-.19-5.24c-.43,0-.84.46-.84,1.36s.35,1.53.95,1.53.82-.48.82-1.38S336.33,255,335.72,255Z"/><path class="cls-66" d="M342.36,256.21c-.28-.79-.65-1.21-1.27-1.21a.66.66,0,0,0-.68.69c0,.45.32.68,1,1,1,.46,1.6.85,1.6,1.74a1.9,1.9,0,0,1-2.1,1.74,3.64,3.64,0,0,1-1.49-.35c-.05-.3-.16-1.07-.2-1.48l.38-.07c.24.76.7,1.44,1.51,1.44a.67.67,0,0,0,.73-.69c0-.43-.23-.71-.93-1.05s-1.55-.8-1.55-1.75.77-1.64,2-1.64a5.72,5.72,0,0,1,1.24.17c0,.32.14,1.08.19,1.39Z"/><path class="cls-2" d="M20.23,186.61,20,189.1H23a28.56,28.56,0,0,1-.22,4.52c-.19.81-.9,1.22-2.13,1.25-.2,0-.51,0-.94-.06l-.2-.71a7,7,0,0,0,1,.07c.9,0,1.42-.28,1.58-.83a19,19,0,0,0,.21-3.57H19.19l.36-3.83h2.62v-2.4H19.36v-.67h3.57v3.74Zm4-2.07h4.09a18.72,18.72,0,0,0,1.12-2.4l.71.26a11.56,11.56,0,0,1-1.09,2.14H31V190H28v1.48h3.69v.73H28V195h-.76v-2.77H23.6v-.73h3.64V190h-3Zm.68,2.42h2.3v-1.75h-2.3Zm2.3,2.41v-1.74h-2.3v1.74Zm-1.48-7.17a12.5,12.5,0,0,1,1.1,1.88l-.64.29a12.27,12.27,0,0,0-1.16-1.93Zm2.24,3V187h2.33v-1.75Zm2.33,4.16v-1.74H28v1.74Z"/><path class="cls-2" d="M33.36,194.83l-.17-.72c.41,0,.8,0,1.16,0s.63-.24.63-.7V189.9c-.53.2-1.18.42-2,.66l-.19-.74c.71-.18,1.43-.4,2.15-.66v-3.54H33.05v-.75H35v-2.63h.76v2.63h1.43v.75H35.74v3.24c.49-.2,1.09-.49,1.79-.85v.74c-.63.33-1.22.61-1.79.84v4.06c0,.78-.38,1.18-1.12,1.18Zm4.41-8.66c.27-1.21.47-2.33.6-3.35l.71.06c-.14,1-.29,1.84-.46,2.57h1.6c.17-1,.29-2.14.38-3.31h.75c-.11,1.21-.25,2.31-.42,3.31h4.45v.72H40.81c-.13.7-.3,1.4-.49,2.11h4.34V189a11.52,11.52,0,0,1-1.95,3.51,11.51,11.51,0,0,0,3,2l-.4.66A12.19,12.19,0,0,1,42.26,193a9.62,9.62,0,0,1-3.12,2.13l-.41-.64a9.34,9.34,0,0,0,3.06-2,8.22,8.22,0,0,1-1.77-3.2l0,.15a16.27,16.27,0,0,1-3.14,5.38l-.47-.63a14.14,14.14,0,0,0,3.08-5.38,24.56,24.56,0,0,0,.64-2.62ZM43.9,189H40.6a7.23,7.23,0,0,0,1.63,3A9.33,9.33,0,0,0,43.9,189Zm-.73-6.81A18.27,18.27,0,0,1,45,184.34l-.58.42a18.3,18.3,0,0,0-1.8-2.22Z"/><path class="cls-2" d="M50.42,190.07a18.41,18.41,0,0,1-2.61,4.3l-.66-.47a16.49,16.49,0,0,0,2.6-4.15Zm-2.5-1.53a52,52,0,0,0,.95-5.24,4.25,4.25,0,0,0,.6.06,28,28,0,0,0,8.21-1l.37.66a32.75,32.75,0,0,1-8.56,1c-.26,1.54-.5,2.8-.73,3.8h4.3V185h.75v2.79H59v.74H53.81v5.1c0,.86-.39,1.28-1.19,1.28H50.76l-.17-.72c.82,0,1.41.05,1.77.05s.7-.27.7-.81v-4.9Zm8.65,1.12a37.51,37.51,0,0,1,2.52,4.45l-.7.37A33.42,33.42,0,0,0,55.9,190Z"/><path class="cls-2" d="M61.18,187.62h4.76a5.69,5.69,0,0,0,.7-1.24l.71.09a8.05,8.05,0,0,1-.6,1.15h4a8.62,8.62,0,0,0-.71-1.07l.67-.21a7.56,7.56,0,0,1,.8,1.28h2v.7h-4a9.39,9.39,0,0,0,4.33,2.31l-.31.64c-.31-.1-.69-.25-1.14-.43V195h-.7v-.66H68.76V195h-.7v-4.3h4a8.57,8.57,0,0,1-3.33-2.39H66.23a9.18,9.18,0,0,1-3.44,2.39h3.79V195h-.7v-.66H63.23V195h-.68v-4.2a13.27,13.27,0,0,1-1.32.46l-.35-.63a11.16,11.16,0,0,0,4.43-2.32H61.18Zm1.16-4.82h4.1V186h-4.1Zm3.4,2.58v-1.92H63.05v1.92Zm-2.51,8.31h2.65v-2.31H63.23Zm5-10.89h4.16V186H68.2Zm.56,10.89h2.87v-2.31H68.76Zm2.89-8.31v-1.92H68.9v1.92Z"/><circle class="cls-67" cx="46.32" cy="146" r="32"/><g class="cls-68"><path d="M35.05,133.29l-.29-2.23c-.34.25-.64.46-.94.66a4.08,4.08,0,0,1-3.71.71,3,3,0,0,1-1.61-1.33c-.21-.34-.21-.62.29-.8a13,13,0,0,0,4.7-2.61c.28-.26.37-.46.19-.8-.28-.5-.54-1-.81-1.52.54-.34.87-.13,1.9,1.19l4.65-4c.5.18.61.35.32.86-.43.77-.94,1.49-1.42,2.22-.11.17-.24.34-.38.53,2.05,2.26,2.1,4.71.72,7.33a3,3,0,0,0,2.41,1c1.5.17,3,.24,4.51.36a25,25,0,0,1,8.89,2.41c1.55.74,3.15,1.37,4.71,2.1,2.61,1.23,4.8,3.11,7.15,4.74.57,1,1.47.92,2.43.86,1.6-.09,3.22-.09,4.83-.12a4.59,4.59,0,0,1,3.59,1.29c-.06.1-.16.21-.14.28a2.87,2.87,0,0,1-.36,2.37c.3.53.27.74-.31,1s-1.16.42-1.83.66c.1.35.19.74.31,1.11a1.26,1.26,0,0,1-1,1.79c-2.52.54-5,1.19-7.56,1.64s-4.89.7-7.34,1c-1.47.18-2.95.27-4.42.43-1.15.13-1.46,0-1.61-1.19a16,16,0,0,1,0-2.08l-1.61.21a2.08,2.08,0,0,1-2.39-2.18,21.69,21.69,0,0,1,.2-2.28.73.73,0,0,1,.43-.45c1.46-.57,2.93-1.12,4.4-1.67l.52-.16c-.81-1-1.52-1.91-2.34-2.75a2.07,2.07,0,0,0-1.35-.58,32.42,32.42,0,0,0-3.4.26c-.69.07-1.37.18-2,.3a2.72,2.72,0,0,0-.78.29,5.88,5.88,0,0,1-3.34.78,5.1,5.1,0,0,1-3.72-2.16c-.25-.32-.48-.66-.72-1a2.62,2.62,0,0,0-1.92,2,1.45,1.45,0,0,0,.17.63,7,7,0,0,0,2.32,2.63c.73.53,1.48,1,2.2,1.55,2.35,1.74,2.45,3.76.22,5.66a16.1,16.1,0,0,1-7.51,3.35c-.81.16-1.63.23-2.45.35a2.46,2.46,0,0,0-.59.16l-8.23,3.73c-.16.08-.3.25-.47.28a1.08,1.08,0,0,1-.76,0,.74.74,0,0,1-.2-.7,5.26,5.26,0,0,1,.89-1.59,17.36,17.36,0,0,1,7.09-4.51,10.28,10.28,0,0,1,1.86-.23,1.16,1.16,0,0,0,.47-.1c.85-.58,1.7-1.16,2.52-1.78a2.09,2.09,0,0,0,.51-.66c.33-.64.24-.87-.34-1.28s-1.41-1-2.09-1.53a4.12,4.12,0,0,1-1.09-5.08,5.28,5.28,0,0,0,.67-3.52,7.65,7.65,0,0,1,.87-4.56,1.11,1.11,0,0,1,.28-.42c1-.82,1.95-1.63,2.95-2.41A4.87,4.87,0,0,1,35.05,133.29Zm29.23,11.9a9.85,9.85,0,0,0-1.06-.92c-.86-.57-1.76-1.07-2.62-1.64-1.3-.85-2.57-1.75-3.87-2.59a26.37,26.37,0,0,0-7.67-3.4,35.27,35.27,0,0,0-8.93-.71.71.71,0,0,0-.52.26,2.42,2.42,0,0,0-.4,2.13,8.55,8.55,0,0,0,1.85,2.79,4,4,0,0,0,4,1.26c1.2-.21,2.39-.46,3.59-.67A5.14,5.14,0,0,1,54,143.49c.68.85,1.4,1.67,2.12,2.48a.83.83,0,0,0,.61.21c.83-.1,1.66-.27,2.49-.38C60.81,145.59,62.45,145.41,64.28,145.19ZM55,155.46l2.69-.54,10.95-2.15c1.16-.23,2.31-.44,3.46-.68a.7.7,0,0,0,.47-.36,4.19,4.19,0,0,0,.11-1c-6,.6-11.88,1-17.68,2.05Zm-.23-4.75c-.14-.36-.31-.85-.52-1.32-.77-1.69-1-1.3-2.11-1-1.71.39-1.83,1.18-2,2.52a1.35,1.35,0,0,0,.35.81,3.12,3.12,0,0,0,.71.74.89.89,0,0,0,.67.17c.73-.22,1.43-.57,2.17-.75C54.59,151.7,54.64,151.3,54.76,150.71Zm6.32-.5c-.12-.73-.22-1.41-.34-2.09a.59.59,0,0,0-.17-.28,1.87,1.87,0,0,0-2-.63,10.35,10.35,0,0,1-1.39.18c-.7.08-.75.18-.83.89a5,5,0,0,0,.85,2.65Zm5.24-.67a12.93,12.93,0,0,0-.08-1.45,6.16,6.16,0,0,0-.43-1.25.41.41,0,0,0-.34-.21c-1.26.08-2.52.19-3.79.29.31.92.58,1.79.89,2.65.06.15.27.38.4.37C64.08,149.83,65.18,149.68,66.32,149.54ZM74.13,146l0,.13h-.73a3.39,3.39,0,0,0-.78.08c-.14,0-.34.19-.35.3a6.92,6.92,0,0,0,.06,1.51c.13.74.45.94,1.19.88l.9-.07a1.77,1.77,0,0,0,1.55-2.19.42.42,0,0,0-.22-.28C75.19,146.25,74.66,146.14,74.13,146Zm-6.53.45.7,2.88,2.38-.21c-.06-.81-.08-1.59-.19-2.36a.67.67,0,0,0-.48-.46C69.23,146.33,68.45,146.42,67.6,146.48Z"/></g><path class="cls-66" d="M4.37,199.13c-.23-.78-.56-1.62-1.67-1.62a1.14,1.14,0,0,0-1.19,1.21c0,.72.47,1.13,1.51,1.65,1.33.67,2.08,1.27,2.08,2.44a2.51,2.51,0,0,1-2.8,2.37,6.08,6.08,0,0,1-1.95-.38c-.08-.3-.27-1.39-.35-2l.43-.1c.24.77.87,2,2.07,2a1.18,1.18,0,0,0,1.25-1.28c0-.78-.46-1.17-1.48-1.72-1.25-.68-2-1.27-2-2.47s1-2.19,2.67-2.19a8.36,8.36,0,0,1,1.67.22c0,.44.12,1,.22,1.77Z"/><path class="cls-66" d="M8.41,205a1.28,1.28,0,0,1-.49.14c-.87,0-1.37-.44-1.37-1.49v-3.39H5.76l-.06-.15L6,199.7h.51v-1c.34-.27.85-.63,1.2-.91l.16.08c0,.38,0,1,0,1.83H9.14a.46.46,0,0,1-.08.56H7.88v3c0,.95.39,1.08.65,1.08a1.66,1.66,0,0,0,.63-.14l.11.39Z"/><path class="cls-66" d="M12.73,205h-3v-.38c.68-.08.74-.13.74-.87v-2.59c0-.66,0-.71-.66-.82V200a9.51,9.51,0,0,0,2-.47v1.31c.5-.76,1-1.28,1.48-1.28a.69.69,0,0,1,.75.67,1.06,1.06,0,0,1-.54.9.31.31,0,0,1-.35-.05c-.19-.17-.34-.34-.55-.34s-.56.23-.79.74v2.27c0,.75.08.79.94.88Z"/><path class="cls-66" d="M14.61,205v-.38c.69-.08.76-.13.76-1v-2.39c0-.78,0-.83-.67-.92V200a11,11,0,0,0,2-.44v4.11c0,.81.06.89.79,1V205ZM16,198.65a.8.8,0,0,1-.78-.78.78.78,0,0,1,.79-.78.77.77,0,0,1,.78.78A.79.79,0,0,1,16,198.65Z"/><path class="cls-66" d="M21.52,205v-.38c.57-.08.62-.14.62-1v-2c0-.85-.38-1.22-.93-1.22a1.69,1.69,0,0,0-1.05.45v2.87c0,.77.05.8.62.88V205H18.07v-.38c.68-.1.75-.13.75-.91v-2.49c0-.74-.09-.77-.66-.88V200a10.3,10.3,0,0,0,2-.46c0,.2,0,.61,0,.89.24-.17.49-.35.78-.53a1.69,1.69,0,0,1,1-.33c1,0,1.57.71,1.57,1.91v2.27c0,.77.08.81.69.89V205Z"/><path class="cls-66" d="M26.51,203.17a.77.77,0,0,0-.28.48c0,.2.22.44.71.44h1.35c.74,0,1.78.28,1.78,1.46S28.48,208,26.88,208s-2.21-.77-2.22-1.45a.81.81,0,0,1,.34-.67c.3-.23.66-.5.93-.69a1.68,1.68,0,0,1-.9-.66,1,1,0,0,1-.17-.61,3.32,3.32,0,0,0,1.22-.86Zm.58.12c-1.28,0-2.18-.71-2.18-1.81a2.09,2.09,0,0,1,2.26-1.94,2.76,2.76,0,0,1,1.29.31,8.11,8.11,0,0,0,1.64-.18l.06.11a1.52,1.52,0,0,1-.44.7c-.2,0-.55,0-.72-.06a1.59,1.59,0,0,1,.31,1A2,2,0,0,1,27.09,203.29Zm.19,1.92a1.66,1.66,0,0,0-1.09.23,1.06,1.06,0,0,0-.42.78c0,.64.63,1.13,1.63,1.13s1.6-.48,1.6-1.17a.85.85,0,0,0-.62-.85A3.52,3.52,0,0,0,27.28,205.21ZM27.09,200c-.43,0-.84.46-.84,1.36s.35,1.53.95,1.53.82-.48.82-1.38S27.7,200,27.09,200Z"/><path class="cls-66" d="M33.16,205v-.38c.69-.08.76-.13.76-1v-2.39c0-.78-.05-.83-.67-.92V200a11,11,0,0,0,2-.44v4.11c0,.81.06.89.79,1V205Zm1.35-6.35a.8.8,0,0,1-.78-.78.78.78,0,0,1,.79-.78.77.77,0,0,1,.78.78A.79.79,0,0,1,34.51,198.65Z"/><path class="cls-66" d="M40.07,205v-.38c.57-.08.62-.14.62-1v-2c0-.85-.38-1.22-.93-1.22a1.72,1.72,0,0,0-1,.45v2.87c0,.77.06.8.62.88V205H36.62v-.38c.68-.1.75-.13.75-.91v-2.49c0-.74-.09-.77-.66-.88V200a10.57,10.57,0,0,0,2-.46c0,.2,0,.61,0,.89.24-.17.5-.35.78-.53a1.71,1.71,0,0,1,1-.33c1,0,1.58.71,1.58,1.91v2.27c0,.77.07.81.68.89V205Z"/><path class="cls-66" d="M46.57,201.21c-.28-.79-.65-1.21-1.27-1.21a.66.66,0,0,0-.68.69c0,.45.32.68,1,1,1,.46,1.6.85,1.6,1.74a1.9,1.9,0,0,1-2.1,1.74,3.64,3.64,0,0,1-1.49-.35c-.05-.3-.16-1.07-.2-1.48l.38-.07c.24.76.7,1.44,1.51,1.44A.67.67,0,0,0,46,204c0-.43-.23-.71-.93-1.05s-1.55-.8-1.55-1.75.77-1.64,2-1.64a5.72,5.72,0,0,1,1.24.17c0,.32.14,1.08.19,1.39Z"/><path class="cls-66" d="M50.28,205a1.32,1.32,0,0,1-.49.14c-.87,0-1.37-.44-1.37-1.49v-3.39h-.79l-.07-.15.34-.41h.52v-1c.34-.27.84-.63,1.2-.91l.16.08c0,.38,0,1,0,1.83H51a.46.46,0,0,1-.09.56H49.75v3c0,.95.39,1.08.64,1.08a1.62,1.62,0,0,0,.63-.14l.12.39Z"/><path class="cls-66" d="M54.6,205h-3v-.38c.68-.08.74-.13.74-.87v-2.59c0-.66,0-.71-.66-.82V200a9.51,9.51,0,0,0,2-.47v1.31c.5-.76,1-1.28,1.48-1.28a.69.69,0,0,1,.75.67,1.06,1.06,0,0,1-.54.9.31.31,0,0,1-.35-.05c-.19-.17-.35-.34-.55-.34s-.56.23-.79.74v2.27c0,.75.07.79.94.88Z"/><path class="cls-66" d="M62.53,204.72a20.32,20.32,0,0,0-2.12.42v-.85a2.79,2.79,0,0,1-1.72.85c-.94,0-1.55-.59-1.55-1.74V201c0-.58-.08-.65-.39-.72l-.28-.07v-.36c.57,0,1.47-.12,2.05-.21,0,.46,0,1.07,0,1.79v1.71c0,.88.45,1.15.91,1.15a1.37,1.37,0,0,0,1-.42V201c0-.59-.09-.68-.45-.74l-.37-.06v-.36a21.38,21.38,0,0,0,2.16-.21v3.95c0,.61.08.73.49.76l.29,0Z"/><path class="cls-66" d="M69.71,205v-.38c.56-.08.64-.12.64-.89v-2c0-1-.4-1.25-.9-1.25a1.67,1.67,0,0,0-1,.46,3.68,3.68,0,0,1,0,.51v2.39c0,.7.06.75.65.83V205H66.43v-.38c.6-.08.67-.11.67-.84v-2.15c0-.86-.31-1.21-.86-1.21a1.79,1.79,0,0,0-1.06.45v2.91c0,.71.08.76.61.84V205H63.1v-.38c.7-.08.75-.13.75-.87v-2.53c0-.7,0-.79-.62-.89V200a10.74,10.74,0,0,0,2-.46v.92c.26-.18.49-.36.79-.54a1.8,1.8,0,0,1,1-.35,1.38,1.38,0,0,1,1.33.94l.87-.62a1.83,1.83,0,0,1,1-.32c1,0,1.56.7,1.56,1.9v2.33c0,.71.07.75.69.84V205Z"/><path class="cls-66" d="M77.68,203.88a2.71,2.71,0,0,1-2.12,1.26,2.43,2.43,0,0,1-2.46-2.6A3.15,3.15,0,0,1,74,200.4a2.61,2.61,0,0,1,1.84-.85,1.93,1.93,0,0,1,1.93,1.92c0,.22,0,.39-.19.43s-1.87.15-3.12.2c0,1.39.82,2,1.68,2a2,2,0,0,0,1.38-.57ZM75.54,200c-.5,0-1,.55-1.06,1.5l1.66,0c.18,0,.26-.05.26-.24C76.41,200.65,76.08,200,75.54,200Z"/><path class="cls-66" d="M81.89,205v-.38c.57-.08.62-.14.62-1v-2c0-.85-.38-1.22-.93-1.22a1.72,1.72,0,0,0-1,.45v2.87c0,.77.06.8.62.88V205H78.44v-.38c.68-.1.75-.13.75-.91v-2.49c0-.74-.09-.77-.66-.88V200a10.57,10.57,0,0,0,2-.46c0,.2,0,.61,0,.89.24-.17.5-.35.78-.53a1.71,1.71,0,0,1,1-.33c1,0,1.58.71,1.58,1.91v2.27c0,.77.07.81.69.89V205Z"/><path class="cls-66" d="M87.57,205a1.23,1.23,0,0,1-.49.14c-.87,0-1.37-.44-1.37-1.49v-3.39h-.79l-.06-.15.34-.41h.51v-1c.34-.27.85-.63,1.2-.91l.17.08c0,.38,0,1,0,1.83H88.3a.46.46,0,0,1-.08.56H87.05v3c0,.95.38,1.08.64,1.08a1.66,1.66,0,0,0,.63-.14l.11.39Z"/><path class="cls-66" d="M92.17,201.21c-.28-.79-.65-1.21-1.27-1.21a.66.66,0,0,0-.68.69c0,.45.32.68,1,1,1,.46,1.6.85,1.6,1.74a1.9,1.9,0,0,1-2.1,1.74,3.64,3.64,0,0,1-1.49-.35c0-.3-.16-1.07-.2-1.48l.38-.07c.24.76.7,1.44,1.51,1.44a.67.67,0,0,0,.73-.69c0-.43-.23-.71-.93-1.05s-1.55-.8-1.55-1.75.77-1.64,2-1.64a5.72,5.72,0,0,1,1.24.17c0,.32.14,1.08.19,1.39Z"/><path class="cls-2" d="M23.21,69.43v8.65h-2.9v1.09h-.76V69.43Zm-2.9,7.94h2.16V70.15H20.31Zm7.28-5.08c0,.59,0,1.26-.06,2a8.83,8.83,0,0,0,4.18,6l-.47.61a9.22,9.22,0,0,1-4-5.16,8.85,8.85,0,0,1-4,5.16l-.45-.66a7.76,7.76,0,0,0,4-6.49V72.29ZM25.64,71.1A9.52,9.52,0,0,1,24,74.3l-.65-.44a11.2,11.2,0,0,0,2.14-5.79l.76.13a20.6,20.6,0,0,1-.42,2.18h5.25v.49a27.77,27.77,0,0,1-1.2,3.84l-.76-.21a16,16,0,0,0,1.15-3.4Z"/><path class="cls-2" d="M34.21,69.11h4.71c0-.23.12-.58.19-1l.74.08-.18,1h5.14v.67H39.5c-.12.43-.26.85-.42,1.27h5v.63H38.82A13.79,13.79,0,0,1,38.15,73H45.3v.67H42a7.34,7.34,0,0,0,3.64,2.67l-.31.66a8.18,8.18,0,0,1-4.06-3.33h-3.6A11.06,11.06,0,0,1,33.5,77l-.42-.63a10.08,10.08,0,0,0,3.72-2.74H33.36V73h3.93A10.29,10.29,0,0,0,38,71.68H34.8v-.63h3.51a11.74,11.74,0,0,0,.44-1.27H34.21ZM36.65,75h5.53v.67H39.74v1.16a1.78,1.78,0,0,1,0,.3h4.36v.67H39.6a3.35,3.35,0,0,1-1.1,1.78,9.11,9.11,0,0,1-3.81,1.48l-.42-.64A8.86,8.86,0,0,0,38,79.08a3.14,3.14,0,0,0,.87-1.29H34.9v-.67H39l0-1.46H36.65ZM40,78.47a26.72,26.72,0,0,1,4.76,2l-.39.6a23.23,23.23,0,0,0-4.74-2Z"/><path class="cls-2" d="M50.42,76.07a18.75,18.75,0,0,1-2.61,4.3l-.66-.47a16.49,16.49,0,0,0,2.6-4.15Zm-2.5-1.53c.43-1.87.74-3.62.95-5.24a4.25,4.25,0,0,0,.6.06,28,28,0,0,0,8.21-1l.37.66a32.75,32.75,0,0,1-8.56,1c-.26,1.54-.5,2.8-.73,3.8h4.3V71h.75V73.8H59v.74H53.81v5.1c0,.86-.39,1.28-1.19,1.28H50.76l-.17-.72c.82,0,1.41,0,1.77,0s.7-.27.7-.81v-4.9Zm8.65,1.12a37.51,37.51,0,0,1,2.52,4.45l-.7.37A33.42,33.42,0,0,0,55.9,76Z"/><path class="cls-2" d="M61.18,73.62h4.76a5.69,5.69,0,0,0,.7-1.24l.71.09a8.05,8.05,0,0,1-.6,1.15h4A8.62,8.62,0,0,0,70,72.55l.67-.21a7.56,7.56,0,0,1,.8,1.28h2v.7h-4a9.39,9.39,0,0,0,4.33,2.31l-.31.64c-.31-.1-.69-.25-1.14-.43V81h-.7v-.66H68.76V81h-.7v-4.3h4a8.57,8.57,0,0,1-3.33-2.39H66.23a9.18,9.18,0,0,1-3.44,2.39h3.79V81h-.7v-.66H63.23V81h-.68v-4.2a13.27,13.27,0,0,1-1.32.46l-.35-.63a11.16,11.16,0,0,0,4.43-2.32H61.18Zm1.16-4.82h4.1V72h-4.1Zm3.4,2.58V69.46H63.05v1.92Zm-2.51,8.31h2.65V77.38H63.23Zm5-10.89h4.16V72H68.2Zm.56,10.89h2.87V77.38H68.76Zm2.89-8.31V69.46H68.9v1.92Z"/><circle class="cls-67" cx="46.32" cy="32" r="32"/><g class="cls-68"><path d="M60.57,11.59c-.63-.53-1-.46-1.44.16a14.46,14.46,0,0,1-2.5,3,3.89,3.89,0,0,1-3.83,1c-.3-.09-.45-.18-.45-.52a4.55,4.55,0,0,0-1-2.68c-.22-.3-.1-.45.1-.68a6.12,6.12,0,0,0,1.75-3,3.74,3.74,0,0,1,.31-1.29,19.66,19.66,0,0,1-3.69,2.18c-.2.12-.41.32-.63,0a24.35,24.35,0,0,1-2-2.91c-.1-.22-.1-.54-.44-.5s-.4.36-.39.62c0,.72.06,1.43.15,2.14.25,2.17.26,2.2-1.92,2.46a3.17,3.17,0,0,1-2.22-.19c-.29-.18-.43.07-.55.3a6.4,6.4,0,0,0-.58,2.72,1.42,1.42,0,0,0,1,1.48,6,6,0,0,0,2.48.26c.47,0,1.06-.45,1.32-.19s.19.93.26,1.42.35,1.1,0,1.71c-1,1.85-1.85,3.77-2.92,5.58a28.48,28.48,0,0,0-4,14.16,10.91,10.91,0,0,1-.53,3,21,21,0,0,1-4.54,7.72c-1.62,1.8-3.26,3.57-4.9,5.35-.13.13-.39.15-.3.42a.51.51,0,0,0,.45.33c.47.07.93.16,1.39.2a59.44,59.44,0,0,0,12.72-.21c3.27-.42,6.54-.8,9.63-2.21A2.58,2.58,0,0,0,54.71,52,3.27,3.27,0,0,0,55,50.54c.06-2.92-1.31-5.11-3.34-7.06a11.14,11.14,0,0,1-3.69-7.3c-.18-2.43.24-4.73,2.19-6.49.33-.3.55-.39.9,0a4.86,4.86,0,0,0,1.58,1.07,3.81,3.81,0,0,0,5.26-2,9.51,9.51,0,0,0,.56-4.93A17.49,17.49,0,0,1,58.56,20a.86.86,0,0,1,.86-.88,6.21,6.21,0,0,0,2.75-.8.61.61,0,0,1,.28-.06c.85-.08,1-.26,1-1.09A7.15,7.15,0,0,0,60.57,11.59ZM41.91,47.16c-.12,1.35-.23,2.71-.36,4.06-.07.69-.41.91-1.2.83s-1-.35-.86-1.08c.17-1.37.47-2.72.76-4.07.12-.55.24-1.11.33-1.67.06-.37.18-.69.62-.69s.59.33.59.7A17.83,17.83,0,0,1,41.91,47.16ZM43,54.09c.27-.38.55-.36,1-.3C43.62,54.14,43.32,54,43,54.09Zm2.41-2.57a.72.72,0,0,1-.81-.69c0-1.29,0-2.6,0-3.89a.54.54,0,0,1,.61-.52.54.54,0,0,1,.54.59c0,.66,0,1.33,0,2h0c0,.56.05,1.13.09,1.69C45.91,51.09,45.87,51.47,45.38,51.52Zm.55-9.37a6.21,6.21,0,0,1-3.54-.41c-.53-.25-.72-1-.61-2A42,42,0,0,0,46,41.06a.44.44,0,0,1,.35.49A.52.52,0,0,1,45.93,42.15Zm4.13,4.24c.39-.36.57.06.79.32A22.37,22.37,0,0,0,53,49.09a.69.69,0,0,1,.28.54c-.08.35-.32.4-.65.27s-.62-.54-.9-.85c-.52-.58-1-1.18-1.54-1.78C50,47,49.7,46.7,50.06,46.39Zm-1.9.89c.58.86,1.15,1.72,1.71,2.59.14.22.2.47-.07.65s-.5,0-.67-.24c-.69-.87-1.14-1.9-1.85-2.75-.23-.27-.12-.57.25-.63A.71.71,0,0,1,48.16,47.28ZM56.4,27.36c-.15.43-.28.54-.71.27a9.1,9.1,0,0,1-4.3-7.8c0-.5.09-.67.62-.44a8.07,8.07,0,0,0,3.92.53c.49,0,.62.1.68.56a23.71,23.71,0,0,1,.27,3.57A10,10,0,0,1,56.4,27.36Z"/></g><path class="cls-66" d="M7.32,83.2a3.7,3.7,0,0,1,2.11.51,2,2,0,0,1,.88,1.76A2.51,2.51,0,0,1,7.6,87.94l-.35,0-.74-.19v1.71c0,1,.08,1,1.15,1.15V91H4v-.41c1-.1,1-.15,1-1.16V84.79c0-1-.12-1.11-1-1.18V83.2Zm-.81,4a1.6,1.6,0,0,0,.72.14c.64,0,1.57-.36,1.57-1.92a1.57,1.57,0,0,0-1.64-1.8.9.9,0,0,0-.53.12c-.09.08-.12.21-.12.44Z"/><path class="cls-66" d="M11.07,91v-.38c.69-.08.76-.13.76-1V87.26c0-.78-.05-.83-.67-.92V86a11,11,0,0,0,2-.44v4.11c0,.81.06.89.79,1V91Zm1.35-6.35a.8.8,0,0,1-.78-.78.78.78,0,0,1,.79-.78.77.77,0,0,1,.78.78A.79.79,0,0,1,12.42,84.65Z"/><path class="cls-66" d="M14.44,86a14.46,14.46,0,0,0,2-.53v.9l.91-.53a1.57,1.57,0,0,1,.75-.25,2.2,2.2,0,0,1,2.09,2.34,3.42,3.42,0,0,1-3,3.25,2,2,0,0,1-.78-.14v1.5c0,.75.07.82.93.92v.37H14.34v-.37c.74-.08.81-.17.81-.88V87.15c0-.67-.06-.73-.71-.82Zm2,4.15a1.62,1.62,0,0,0,1,.45c.78,0,1.32-.81,1.32-2.12s-.74-2-1.43-2a1.63,1.63,0,0,0-.92.36Z"/><path class="cls-66" d="M25.75,89.88a2.72,2.72,0,0,1-2.13,1.26,2.43,2.43,0,0,1-2.46-2.6A3.15,3.15,0,0,1,22,86.4a2.65,2.65,0,0,1,1.84-.85,1.93,1.93,0,0,1,1.93,1.92c0,.22,0,.39-.18.43s-1.87.15-3.13.2c0,1.39.82,2,1.68,2a2,2,0,0,0,1.38-.57ZM23.61,86c-.51,0-1,.55-1.07,1.5.56,0,1.09,0,1.66,0,.19,0,.26,0,.26-.24C24.47,86.65,24.15,86,23.61,86Z"/><path class="cls-66" d="M29.14,91v-.38c.69-.08.76-.13.76-1V87.26c0-.78,0-.83-.67-.92V86a11,11,0,0,0,2-.44v4.11c0,.81.06.89.79,1V91Zm1.35-6.35a.8.8,0,0,1-.78-.78.78.78,0,0,1,.79-.78.77.77,0,0,1,.78.78A.79.79,0,0,1,30.49,84.65Z"/><path class="cls-66" d="M36.05,91v-.38c.57-.08.62-.14.62-1v-2c0-.85-.38-1.22-.93-1.22a1.72,1.72,0,0,0-1.05.45v2.87c0,.77.06.8.62.88V91H32.6v-.38c.68-.1.75-.13.75-.91V87.22c0-.74-.09-.77-.66-.88V86a10.57,10.57,0,0,0,2-.46c0,.2,0,.61,0,.89.24-.17.5-.35.78-.53a1.71,1.71,0,0,1,1-.33c1,0,1.58.71,1.58,1.91v2.27c0,.77.07.81.68.89V91Z"/><path class="cls-66" d="M42.55,87.21c-.28-.79-.65-1.21-1.27-1.21a.66.66,0,0,0-.68.69c0,.45.32.68,1,1,1,.46,1.6.85,1.6,1.74a1.9,1.9,0,0,1-2.1,1.74,3.64,3.64,0,0,1-1.49-.35c0-.3-.16-1.07-.2-1.48l.38-.07c.24.76.7,1.44,1.51,1.44A.67.67,0,0,0,42,90c0-.43-.23-.71-.93-1s-1.55-.8-1.55-1.75.77-1.64,2-1.64a5.72,5.72,0,0,1,1.24.17c0,.32.14,1.08.19,1.39Z"/><path class="cls-66" d="M46.26,91a1.32,1.32,0,0,1-.49.14c-.87,0-1.37-.44-1.37-1.49V86.26h-.79l-.07-.15.34-.41h.52v-1c.34-.27.84-.63,1.2-.91l.16.08c0,.38,0,1,0,1.83H47a.46.46,0,0,1-.09.56H45.73v3c0,1,.39,1.08.64,1.08a1.62,1.62,0,0,0,.63-.14l.12.39Z"/><path class="cls-66" d="M50.58,91h-3v-.38c.68-.08.74-.13.74-.87V87.16c0-.66,0-.71-.66-.82V86a9.51,9.51,0,0,0,2-.47v1.31c.5-.76,1-1.28,1.48-1.28a.69.69,0,0,1,.75.67,1.06,1.06,0,0,1-.54.9.31.31,0,0,1-.35-.05c-.19-.17-.35-.34-.55-.34s-.56.23-.79.74v2.27c0,.75.07.79.94.88Z"/><path class="cls-66" d="M58.51,90.72a20.32,20.32,0,0,0-2.12.42v-.85a2.79,2.79,0,0,1-1.72.85c-.94,0-1.55-.59-1.55-1.74V87c0-.58-.08-.65-.39-.72l-.28-.07v-.36c.57,0,1.47-.12,2-.21,0,.46,0,1.07,0,1.79v1.71c0,.88.45,1.15.91,1.15a1.37,1.37,0,0,0,1-.42V87c0-.59-.09-.68-.45-.74l-.37-.06v-.36a21.38,21.38,0,0,0,2.16-.21v4c0,.61.08.73.49.76l.29,0Z"/><path class="cls-66" d="M65.69,91v-.38c.56-.08.64-.12.64-.89v-2c0-1-.4-1.25-.9-1.25a1.67,1.67,0,0,0-1.05.46,3.68,3.68,0,0,1,0,.51v2.39c0,.7.06.75.65.83V91H62.41v-.38c.6-.08.67-.11.67-.84V87.63c0-.86-.31-1.21-.86-1.21a1.79,1.79,0,0,0-1.06.45v2.91c0,.71.08.76.61.84V91H59.08v-.38c.7-.08.75-.13.75-.87V87.22c0-.7,0-.79-.62-.89V86a10.74,10.74,0,0,0,1.95-.46v.92c.26-.18.49-.36.79-.54a1.8,1.8,0,0,1,1-.35,1.38,1.38,0,0,1,1.33.94l.87-.62a1.83,1.83,0,0,1,1-.32c1,0,1.56.7,1.56,1.9v2.33c0,.71.07.75.69.84V91Z"/><path class="cls-66" d="M73.66,89.88a2.71,2.71,0,0,1-2.12,1.26,2.43,2.43,0,0,1-2.46-2.6,3.15,3.15,0,0,1,.86-2.14,2.61,2.61,0,0,1,1.84-.85,1.93,1.93,0,0,1,1.93,1.92c0,.22,0,.39-.19.43s-1.87.15-3.12.2c0,1.39.82,2,1.68,2a2,2,0,0,0,1.38-.57ZM71.52,86c-.5,0-1,.55-1.06,1.5l1.66,0c.18,0,.26,0,.26-.24C72.39,86.65,72.06,86,71.52,86Z"/><path class="cls-66" d="M77.87,91v-.38c.57-.08.62-.14.62-1v-2c0-.85-.38-1.22-.93-1.22a1.72,1.72,0,0,0-1,.45v2.87c0,.77,0,.8.62.88V91H74.42v-.38c.68-.1.75-.13.75-.91V87.22c0-.74-.09-.77-.66-.88V86a10.3,10.3,0,0,0,2-.46c0,.2,0,.61,0,.89.24-.17.49-.35.78-.53a1.71,1.71,0,0,1,1-.33c1,0,1.57.71,1.57,1.91v2.27c0,.77.08.81.69.89V91Z"/><path class="cls-66" d="M83.55,91a1.23,1.23,0,0,1-.49.14c-.87,0-1.37-.44-1.37-1.49V86.26H80.9l-.06-.15.34-.41h.51v-1c.34-.27.85-.63,1.2-.91l.17.08c0,.38,0,1,0,1.83h1.25a.46.46,0,0,1-.08.56H83v3c0,1,.38,1.08.64,1.08a1.66,1.66,0,0,0,.63-.14l.11.39Z"/><path class="cls-66" d="M88.15,87.21c-.28-.79-.65-1.21-1.27-1.21a.66.66,0,0,0-.68.69c0,.45.32.68,1,1,1,.46,1.6.85,1.6,1.74a1.9,1.9,0,0,1-2.1,1.74,3.64,3.64,0,0,1-1.49-.35c0-.3-.16-1.07-.2-1.48l.38-.07c.24.76.7,1.44,1.5,1.44a.68.68,0,0,0,.74-.69c0-.43-.23-.71-.93-1s-1.55-.8-1.55-1.75.77-1.64,2-1.64a5.72,5.72,0,0,1,1.24.17c0,.32.14,1.08.19,1.39Z"/><path class="cls-2" d="M366.36,111.6c-.7.31-1.42.61-2.14.88v4.31a1,1,0,0,1-1.08,1.07h-1.49l-.16-.73,1.38.05a.51.51,0,0,0,.59-.57v-3.86c-.83.27-1.61.5-2.34.7l-.18-.73q1.37-.31,2.52-.69v-3.41h-2.31v-.75h2.31v-2.62h.76v2.62h1.93v.75h-1.93v3.14c.82-.31,1.53-.62,2.14-.9Zm.28-5.21h7v.76h-2.38v9.5c0,.8-.38,1.21-1.15,1.21h-2.27l-.16-.75c1,0,1.73.06,2.17.06s.65-.24.65-.71v-9.31h-3.83Z"/><path class="cls-2" d="M376.33,107.38H381v-2.07h.79v2.07h4.6v.72h-4.6v2.57h5.75v.73h-5.75v5.22h3.55v-3.83h.72V118h-.72v-.69h-7.88V118h-.71v-5.22h.71v3.83H381V111.4h-5.74v-.73H381V108.1h-4.67Z"/><path class="cls-2" d="M392.5,113.07a18.77,18.77,0,0,1-2.62,4.3l-.66-.47a16.21,16.21,0,0,0,2.6-4.15ZM390,111.54a52,52,0,0,0,.95-5.24,4.25,4.25,0,0,0,.6.06,28,28,0,0,0,8.21-1l.38.66a32.83,32.83,0,0,1-8.57,1c-.25,1.54-.5,2.8-.73,3.8h4.3V108h.75v2.79h5.23v.74h-5.23v5.1c0,.86-.39,1.28-1.19,1.28h-1.86l-.17-.72c.83,0,1.41,0,1.77,0s.7-.27.7-.81v-4.9Zm8.65,1.12a37.51,37.51,0,0,1,2.52,4.45l-.7.37A33.42,33.42,0,0,0,398,113Z"/><path class="cls-2" d="M403.25,110.62H408a5.3,5.3,0,0,0,.7-1.24l.71.09a8.05,8.05,0,0,1-.6,1.15h4a8.62,8.62,0,0,0-.71-1.07l.67-.21a7,7,0,0,1,.8,1.28h2v.7h-4a9.44,9.44,0,0,0,4.33,2.31l-.31.64c-.31-.1-.69-.25-1.13-.43V118h-.7v-.66h-2.87V118h-.7v-4.3h3.94a8.57,8.57,0,0,1-3.33-2.39H408.3a9.18,9.18,0,0,1-3.44,2.39h3.79V118H408v-.66h-2.64V118h-.69v-4.2a13.27,13.27,0,0,1-1.32.46l-.35-.63a11.09,11.09,0,0,0,4.43-2.32h-4.13Zm1.16-4.82h4.1V109h-4.1Zm3.4,2.58v-1.92h-2.69v1.92Zm-2.5,8.31H408v-2.31h-2.64Zm5-10.89h4.15V109h-4.15Zm.56,10.89h2.87v-2.31h-2.87Zm2.88-8.31v-1.92H411v1.92Z"/><circle class="cls-67" cx="388.39" cy="68.5" r="32"/><g class="cls-68"><path d="M381.1,72.9a7.18,7.18,0,0,1-1-5.51,13.67,13.67,0,0,1,2.07-4.93c.39-.63.8-1.24,1.2-1.86a2,2,0,0,1,.34-.92,1.91,1.91,0,0,0,.31-1.33,1.21,1.21,0,0,1,.39-1,6.76,6.76,0,0,0,.34-3.12,1.59,1.59,0,0,0-.79-1.34c1.79-.13,2.57-1.38,3.44-2.5a2.66,2.66,0,0,0,.43-1.48c0-.23-.18-.4-.24-.62-.19.15-.51,0-.63.24-.25.46-.71.55-1.11.73A24.08,24.08,0,0,1,382,50.71c-.27.07-.4,0-.46-.25-.11-.51-.26-1-.37-1.51-.31-1.46-.61-2.93-.92-4.39-.05-.25-.16-.45-.45-.48a.62.62,0,0,0-.69.34,2.3,2.3,0,0,0-.23.76,22.52,22.52,0,0,0,0,5.19c.06.86.1.92-.74.94a17.07,17.07,0,0,1-3,.18c-.11,0-.19.09-.24.19a1.79,1.79,0,0,0,.84,2.25,4.56,4.56,0,0,0,1.68.23,14.42,14.42,0,0,0,2.61-.3,2,2,0,0,0-.15,1.82,5.09,5.09,0,0,1,.1,1.46.87.87,0,0,1-.33.69,52.23,52.23,0,0,0-7.36,8.49,7.21,7.21,0,0,0-1.43,3.51,15.69,15.69,0,0,0-.1,3.06,15.32,15.32,0,0,1-.57,5.43,9.43,9.43,0,0,1-2.31,4.58,2.39,2.39,0,0,0-.5.68A3.57,3.57,0,0,1,365.93,85c-.75.48-1.33,1.16-2.08,1.62a13.13,13.13,0,0,0,2.81.53c.73,0,1.47.12,2.21.22a56.51,56.51,0,0,0,8.72.55,18,18,0,0,0,4.67-.67c.38-.11.85-.21,1-.61a13.76,13.76,0,0,0,.92-2.41,5.77,5.77,0,0,1,.21-1.16,5.66,5.66,0,0,0,0-3.31A26.27,26.27,0,0,0,381.1,72.9Zm-9.35,7.34c-.77,1.32-1.26,2.77-2,4.13a1,1,0,0,1-.2.31.37.37,0,0,1-.51.08.35.35,0,0,1-.17-.45c.73-1.49,1.28-3.07,2.14-4.51a.41.41,0,0,1,.52-.2c.17.06.24.19.25.41A1.83,1.83,0,0,1,371.75,80.24Zm2.38,2.45a7,7,0,0,0-.16,1.22c0,.24,0,.48-.26.6a.36.36,0,0,1-.44-.06.72.72,0,0,1-.23-.73c.28-1,.44-2.11.64-3.17a.73.73,0,0,1,.21-.46.38.38,0,0,1,.47-.09.36.36,0,0,1,.22.38Zm3.29.82c0,.3-.08.6-.46.58s-.42-.3-.42-.58c0-1,0-2,0-2.93,0-.28.07-.56.42-.56s.42.27.41.56V82h0C377.42,82.5,377.43,83,377.42,83.51Zm-2.88-6.29c-.33,0-.58-.21-.55-.58a.5.5,0,0,1,.55-.45,46.88,46.88,0,0,0,5,.28,1,1,0,0,1,.86.72c.18.49-.18.86-.73.76s-1.27-.26-1.9-.35C376.7,77.45,375.62,77.35,374.54,77.22Zm5.77,7.61c-.29,0-.44-.13-.48-.4a37,37,0,0,0-.92-3.59c-.07-.27-.08-.56.27-.65s.45.11.51.36c.32,1.21.74,2.39,1,3.62,0,0,0,.09,0,.16C380.67,84.56,380.59,84.79,380.31,84.83Z"/><path class="cls-69" d="M409.25,84.45c-.18-.21-.13-.32,0-.5a11.22,11.22,0,0,0,1.16-1.49,4.69,4.69,0,0,0-1.4-6.59c-.42-.29-1.09-.24-1.28-.75a6.58,6.58,0,0,1-.16-1.55c0-.12,0-.25,0-.37-.1-1.89-.3-3.77-.54-5.65,0-.33,0-.48.36-.59a7.69,7.69,0,0,0,5.54-7.74,7.59,7.59,0,0,0-6.48-7c-.15,0-.45,0-.44-.16.05-.52-.26-.93-.34-1.41a29.25,29.25,0,0,0-.71-3.71c-.09-.32-.22-.58-.58-.54s-.41.37-.4.64c.05,1.61-.06,3.22.08,4.82,0,.3,0,.41-.34.47a7.54,7.54,0,0,0,.5,14.82c.31,0,.42.13.41.46a72.4,72.4,0,0,0,.27,7.51c0,.27-.08.35-.32.41a9,9,0,0,0-2.06.82,1,1,0,0,1-.67.14,15.08,15.08,0,0,0-3.29-.07,3.59,3.59,0,0,0-2.69,1.46c-.55.72-.55,1.21.05,2.21a1.37,1.37,0,0,0,1.56.47,3.17,3.17,0,0,0,.84-.32,7.38,7.38,0,0,0,1.59-1.18,10.24,10.24,0,0,1,1.64-1.24,11.29,11.29,0,0,1,3-1.31c.35-.1.46,0,.48.34.06,1.61.11,3.22.24,4.82a6,6,0,0,0,.24,2.15c.06.13,0,.2-.1.28a27.5,27.5,0,0,1-3.34,3.13c-.82.57-.88.87-.46,1.78a.83.83,0,0,0,.72.46,37.44,37.44,0,0,0,7,.38q.94,0,1.89,0c.38,0,.73.07,1-.32.38-.67.38-1,0-1.48C411.21,86.84,410.24,85.64,409.25,84.45Zm-3.78-19.09a5.67,5.67,0,1,1,5.68-5.69A5.67,5.67,0,0,1,405.47,65.36Zm2.42,11a3.17,3.17,0,0,1,1.86,2.19c.51,1.68-.41,2.89-1.4,4.13C408.19,80.6,408,78.53,407.89,76.41Z"/><path class="cls-69" d="M396.53,68a1.6,1.6,0,0,0-1.41-1.89,1.58,1.58,0,0,0-1.74,1.71c.1.28-.08.43-.34.58-.48.26-1,.57-1.41.87-1.12.73-2.21,1.5-3.37,2.19-.35.21-.54.1-.73-.18a2.64,2.64,0,0,1-.2-.37c-.58-1.17-1.16-2.34-1.75-3.51-.69-1.34-1.46-2.64-2.25-3.93-.07-.12-.13-.28-.31-.21s-.16.22-.13.36a2.53,2.53,0,0,0,.14.49q1.64,3.94,3.29,7.89a3.09,3.09,0,0,0,.53.89.72.72,0,0,0,1.25-.14.53.53,0,0,1,.32-.3,14.31,14.31,0,0,0,2.73-1.39l2.73-1.7a.82.82,0,0,1,.67-.11A1.57,1.57,0,0,0,396.53,68Z"/><path class="cls-69" d="M384.06,58.93c.06.51-.35.82-.49,1.24-.05.15-.17.27-.21.43l.53-.76c.18.22.35.44.53.65a37.44,37.44,0,0,0,5.2,4.79,1,1,0,0,0,1.56-.51,3.65,3.65,0,0,1,.31-1.13c.44-1.22.89-2.44,1.35-3.68a1.71,1.71,0,0,0,1.39.27,1.62,1.62,0,0,0,1.17-1.86,1.6,1.6,0,0,0-3.17.3,1.47,1.47,0,0,1,0,.69c-.67,1.36-1.33,2.71-2,4.09a16.67,16.67,0,0,1-2.23-1.4,28.41,28.41,0,0,0-3.78-2.64c-.13-.06-.05-.15-.07-.23-.14-.65.24-1.22.29-1.84A2.68,2.68,0,0,0,384.06,58.93Z"/><path class="cls-69" d="M384,58.35a1.91,1.91,0,0,1-.31,1.33,2,2,0,0,0-.34.92c0-.16.16-.28.21-.43.14-.42.55-.73.49-1.24a2.68,2.68,0,0,1,.34-1.59A1.21,1.21,0,0,0,384,58.35Z"/><path d="M405.43,54.88a4.7,4.7,0,1,0,4.79,4.67A4.68,4.68,0,0,0,405.43,54.88Z"/></g><path class="cls-66" d="M333.37,120.2a3.7,3.7,0,0,1,2.11.51,2,2,0,0,1,.89,1.76,2.52,2.52,0,0,1-2.72,2.47l-.35,0-.74-.19v1.71c0,1,.09,1,1.15,1.15V128h-3.64v-.41c.95-.1,1-.15,1-1.16v-4.64c0-1-.12-1.11-1-1.18v-.41Zm-.81,4a1.63,1.63,0,0,0,.72.14c.64,0,1.57-.36,1.57-1.92,0-1.33-.77-1.8-1.63-1.8a.91.91,0,0,0-.54.12c-.09.08-.12.21-.12.44Z"/><path class="cls-66" d="M341.46,126.88a2.73,2.73,0,0,1-2.13,1.26,2.43,2.43,0,0,1-2.46-2.6,3.15,3.15,0,0,1,.86-2.14,2.63,2.63,0,0,1,1.84-.85,1.93,1.93,0,0,1,1.93,1.92c0,.22,0,.39-.18.43s-1.87.15-3.13.2c0,1.39.82,2,1.68,2a2,2,0,0,0,1.38-.57ZM339.32,123c-.51,0-1,.55-1.07,1.5.56,0,1.09,0,1.66,0,.19,0,.26,0,.26-.24C340.18,123.65,339.85,123,339.32,123Z"/><path class="cls-66" d="M345.24,128h-3v-.38c.68-.08.74-.13.74-.87v-2.59c0-.66,0-.71-.66-.82V123a9.51,9.51,0,0,0,2-.47v1.31c.5-.76.95-1.28,1.48-1.28a.69.69,0,0,1,.75.67,1.06,1.06,0,0,1-.54.9.31.31,0,0,1-.35-.05c-.19-.17-.35-.34-.55-.34s-.56.23-.79.74v2.27c0,.75.07.79.94.88Z"/><path class="cls-66" d="M351.58,126.87a2.8,2.8,0,0,1-2.07,1.27,2.49,2.49,0,0,1-2.56-2.55,2.88,2.88,0,0,1,1.22-2.32,3.42,3.42,0,0,1,2-.72,1.87,1.87,0,0,1,1.07.3.47.47,0,0,1,.22.41.71.71,0,0,1-.5.63.37.37,0,0,1-.26-.13,2,2,0,0,0-1.23-.58c-.58,0-1.19.53-1.19,1.81a1.93,1.93,0,0,0,1.73,2.15,1.8,1.8,0,0,0,1.34-.56Z"/><path class="cls-66" d="M358.2,127.72a20.32,20.32,0,0,0-2.12.42v-.85a2.79,2.79,0,0,1-1.72.85c-.94,0-1.55-.59-1.55-1.74V124c0-.58-.08-.65-.39-.72l-.28-.07v-.36c.57,0,1.47-.12,2.05-.21,0,.46,0,1.07,0,1.79v1.71c0,.88.45,1.15.91,1.15a1.37,1.37,0,0,0,1-.42V124c0-.59-.09-.68-.45-.74l-.37-.06v-.36a21.38,21.38,0,0,0,2.16-.21v4c0,.61.08.73.49.76l.29,0Z"/><path class="cls-66" d="M362,124.21c-.28-.79-.65-1.21-1.27-1.21a.66.66,0,0,0-.68.69c0,.45.32.68,1,1,1,.46,1.6.85,1.6,1.74a1.9,1.9,0,0,1-2.1,1.74,3.6,3.6,0,0,1-1.49-.35c-.05-.3-.16-1.07-.2-1.48l.38-.07c.24.76.7,1.44,1.5,1.44a.68.68,0,0,0,.74-.69c0-.43-.23-.71-.93-1s-1.55-.8-1.55-1.75.77-1.64,2-1.64a5.72,5.72,0,0,1,1.24.17c0,.32.14,1.08.19,1.39Z"/><path class="cls-66" d="M366.67,124.21c-.28-.79-.65-1.21-1.27-1.21a.66.66,0,0,0-.68.69c0,.45.32.68,1,1,1,.46,1.6.85,1.6,1.74a1.9,1.9,0,0,1-2.1,1.74,3.64,3.64,0,0,1-1.49-.35c-.05-.3-.16-1.07-.2-1.48l.38-.07c.24.76.71,1.44,1.51,1.44a.67.67,0,0,0,.73-.69c0-.43-.23-.71-.93-1s-1.55-.8-1.55-1.75.77-1.64,2-1.64a5.72,5.72,0,0,1,1.24.17c0,.32.14,1.08.19,1.39Z"/><path class="cls-66" d="M368,128v-.38c.68-.08.76-.13.76-1v-2.39c0-.78-.05-.83-.67-.92V123a11,11,0,0,0,2-.44v4.11c0,.81.06.89.78,1V128Zm1.35-6.35a.8.8,0,0,1-.79-.78.79.79,0,0,1,.8-.78.76.76,0,0,1,.77.78A.78.78,0,0,1,369.35,121.65Z"/><path class="cls-66" d="M374.34,122.55a2.64,2.64,0,0,1,2.71,2.7,2.76,2.76,0,1,1-5.52.16A2.8,2.8,0,0,1,374.34,122.55Zm-.15.46c-.59,0-1.15.6-1.15,2s.56,2.63,1.39,2.63c.56,0,1.1-.39,1.1-2.11C375.53,124,375.05,123,374.19,123Z"/><path class="cls-66" d="M381.24,128v-.38c.57-.08.62-.14.62-1v-2c0-.85-.38-1.22-.93-1.22a1.72,1.72,0,0,0-1.05.45v2.87c0,.77.06.8.62.88V128h-2.71v-.38c.68-.1.75-.13.75-.91v-2.49c0-.74-.09-.77-.66-.88V123a10.57,10.57,0,0,0,2-.46c0,.2,0,.61,0,.89.24-.17.5-.35.79-.53a1.66,1.66,0,0,1,.95-.33c1,0,1.58.71,1.58,1.91v2.27c0,.77.07.81.69.89V128Z"/><path class="cls-66" d="M387.23,128v-.38c.69-.08.77-.13.77-1v-2.39c0-.78-.06-.83-.67-.92V123a10.86,10.86,0,0,0,2-.44v4.11c0,.81.06.89.79,1V128Zm1.35-6.35a.8.8,0,0,1-.78-.78.78.78,0,0,1,.79-.78.77.77,0,0,1,.78.78A.79.79,0,0,1,388.58,121.65Z"/><path class="cls-66" d="M394.14,128v-.38c.57-.08.62-.14.62-1v-2c0-.85-.38-1.22-.93-1.22a1.72,1.72,0,0,0-1.05.45v2.87c0,.77.06.8.62.88V128h-2.71v-.38c.68-.1.75-.13.75-.91v-2.49c0-.74-.09-.77-.66-.88V123a10.57,10.57,0,0,0,2-.46c0,.2,0,.61,0,.89.24-.17.5-.35.79-.53a1.66,1.66,0,0,1,.95-.33c1,0,1.58.71,1.58,1.91v2.27c0,.77.07.81.69.89V128Z"/><path class="cls-66" d="M400.64,124.21c-.27-.79-.65-1.21-1.27-1.21a.65.65,0,0,0-.67.69c0,.45.31.68.95,1,1,.46,1.6.85,1.6,1.74a1.9,1.9,0,0,1-2.1,1.74,3.64,3.64,0,0,1-1.49-.35c-.05-.3-.16-1.07-.2-1.48l.38-.07c.24.76.71,1.44,1.51,1.44a.67.67,0,0,0,.73-.69c0-.43-.23-.71-.93-1s-1.55-.8-1.55-1.75.77-1.64,2-1.64a5.72,5.72,0,0,1,1.24.17c0,.32.14,1.08.19,1.39Z"/><path class="cls-66" d="M404.35,128a1.32,1.32,0,0,1-.49.14c-.87,0-1.37-.44-1.37-1.49v-3.39h-.79l-.07-.15.34-.41h.52v-1c.34-.27.84-.63,1.2-.91l.16.08c0,.38,0,1,0,1.83h1.26a.45.45,0,0,1-.09.56h-1.17v3c0,1,.39,1.08.64,1.08a1.58,1.58,0,0,0,.63-.14l.12.39Z"/><path class="cls-66" d="M408.67,128h-3v-.38c.68-.08.74-.13.74-.87v-2.59c0-.66-.05-.71-.66-.82V123a9.51,9.51,0,0,0,2-.47v1.31c.5-.76.95-1.28,1.48-1.28a.69.69,0,0,1,.75.67,1.06,1.06,0,0,1-.54.9.31.31,0,0,1-.35-.05c-.19-.17-.35-.34-.55-.34s-.56.23-.79.74v2.27c0,.75.07.79.94.88Z"/><path class="cls-66" d="M416.6,127.72a20.32,20.32,0,0,0-2.12.42v-.85a2.79,2.79,0,0,1-1.72.85c-.93,0-1.55-.59-1.55-1.74V124c0-.58-.08-.65-.39-.72l-.28-.07v-.36a20.34,20.34,0,0,0,2-.21c0,.46,0,1.07,0,1.79v1.71c0,.88.45,1.15.91,1.15a1.35,1.35,0,0,0,1-.42V124c0-.59-.09-.68-.45-.74l-.37-.06v-.36a21.38,21.38,0,0,0,2.16-.21v4c0,.61.08.73.49.76l.29,0Z"/><path class="cls-66" d="M423.78,128v-.38c.56-.08.65-.12.65-.89v-2c0-1-.41-1.25-.91-1.25a1.62,1.62,0,0,0-1,.46c0,.14,0,.31,0,.51v2.39c0,.7.07.75.65.83V128H420.5v-.38c.61-.08.67-.11.67-.84v-2.15c0-.86-.31-1.21-.85-1.21a1.79,1.79,0,0,0-1.07.45v2.91c0,.71.08.76.61.84V128h-2.69v-.38c.71-.08.75-.13.75-.87v-2.53c0-.7,0-.79-.62-.89V123a10.74,10.74,0,0,0,1.95-.46v.92c.26-.18.49-.36.79-.54a1.86,1.86,0,0,1,1-.35,1.38,1.38,0,0,1,1.33.94l.87-.62a1.83,1.83,0,0,1,1-.32c1,0,1.56.7,1.56,1.9v2.33c0,.71.07.75.69.84V128Z"/><path class="cls-66" d="M431.75,126.88a2.71,2.71,0,0,1-2.12,1.26,2.43,2.43,0,0,1-2.46-2.6,3.15,3.15,0,0,1,.86-2.14,2.63,2.63,0,0,1,1.84-.85,1.93,1.93,0,0,1,1.93,1.92c0,.22,0,.39-.19.43s-1.87.15-3.12.2c0,1.39.82,2,1.68,2a2,2,0,0,0,1.38-.57ZM429.61,123c-.5,0-1,.55-1.06,1.5l1.66,0c.18,0,.26,0,.26-.24C430.48,123.65,430.15,123,429.61,123Z"/><path class="cls-66" d="M436,128v-.38c.57-.08.62-.14.62-1v-2c0-.85-.38-1.22-.93-1.22a1.72,1.72,0,0,0-1,.45v2.87c0,.77.06.8.62.88V128h-2.71v-.38c.68-.1.75-.13.75-.91v-2.49c0-.74-.09-.77-.66-.88V123a10.57,10.57,0,0,0,2-.46c0,.2,0,.61,0,.89.24-.17.5-.35.79-.53a1.66,1.66,0,0,1,.95-.33c1,0,1.58.71,1.58,1.91v2.27c0,.77.07.81.69.89V128Z"/><path class="cls-66" d="M441.64,128a1.23,1.23,0,0,1-.49.14c-.87,0-1.37-.44-1.37-1.49v-3.39H439l-.06-.15.34-.41h.51v-1c.35-.27.85-.63,1.2-.91l.17.08c0,.38,0,1,0,1.83h1.26a.48.48,0,0,1-.09.56h-1.17v3c0,1,.38,1.08.64,1.08a1.66,1.66,0,0,0,.63-.14l.11.39Z"/><path class="cls-66" d="M446.24,124.21c-.28-.79-.65-1.21-1.27-1.21a.66.66,0,0,0-.68.69c0,.45.32.68,1,1,1,.46,1.6.85,1.6,1.74a1.9,1.9,0,0,1-2.1,1.74,3.64,3.64,0,0,1-1.49-.35c-.05-.3-.16-1.07-.2-1.48l.38-.07c.24.76.71,1.44,1.51,1.44a.67.67,0,0,0,.73-.69c0-.43-.23-.71-.93-1s-1.55-.8-1.55-1.75.77-1.64,2-1.64a5.72,5.72,0,0,1,1.24.17c0,.32.14,1.08.19,1.39Z"/><rect class="cls-70" x="249.41" y="75.25" width="62" height="0.5"/><rect class="cls-71" x="108.91" y="138.25" width="48" height="0.5"/><rect class="cls-72" x="112.41" y="30.75" width="40.5" height="0.5"/><polygon class="cls-73" points="167.69 55.63 152.69 30.63 153.12 30.37 168.12 55.37 167.69 55.63"/></g></g></svg>