<svg xmlns="http://www.w3.org/2000/svg" viewBox="0 0 569.14 191.02"><defs><style>.cls-1{stroke:#000;stroke-miterlimit:10;stroke-width:0.29px;}.cls-2{fill:#e2c477;}.cls-3{fill:none;}.cls-4{fill:#131111;}.cls-5{fill:#bcbcbc;}.cls-6{fill:#c9c9c9;}.cls-7{fill:#030303;}.cls-8{fill:#040404;}</style></defs><title>temp_function</title><g id="图层_2" data-name="图层 2"><g id="图层_1-2" data-name="图层 1"><path class="cls-1" d="M53.81,161.76l-.6-.79a10.27,10.27,0,0,0,4.4-4.83l1,.12A9.82,9.82,0,0,1,58,157.6h3.8v.83q-1.77,5.25-8.3,7.46L53,165a16.58,16.58,0,0,0,3.86-1.72,17.44,17.44,0,0,0-2.2-2.08Zm4.93,7.86a18.61,18.61,0,0,1-4.48,4l-.66-.83A17.82,17.82,0,0,0,58,168.94Zm-4.33-2.68H69.24v1H62.63v4.23A1.42,1.42,0,0,1,61,173.8H58.76l-.24-1c1,.05,1.72.07,2.14.07a.85.85,0,0,0,1-1v-4h-7.2Zm.93-6.28a17.2,17.2,0,0,1,2.23,2.11,10,10,0,0,0,1.24-1.1,21.51,21.51,0,0,0-2.34-2A12.72,12.72,0,0,1,55.34,160.66Zm2.08-2.15L57,159a18.18,18.18,0,0,1,2.35,2,10.59,10.59,0,0,0,1.41-2.5Zm1,5.12h7.66v1H58.46Zm12.24,1.28-.51.87q-6.4-3.32-7.69-9.17l.87-.25a7.46,7.46,0,0,0,.35,1.24h5.47v.68a6.75,6.75,0,0,1-2.54,3.81A16.83,16.83,0,0,0,70.7,164.91Zm-6.61-6.4A10.83,10.83,0,0,0,66,161.44a6.73,6.73,0,0,0,2.13-2.93Zm1.14,10.33a30.23,30.23,0,0,1,4.73,4l-.74.76a30.79,30.79,0,0,0-4.69-4.07Z"/><path class="cls-1" d="M75.54,165.43a31.66,31.66,0,0,1-2.84,2.65L72.37,167a18.37,18.37,0,0,0,5.56-6.88H72.85v-1H79V160a15,15,0,0,1-2.41,4.21v.09a18.1,18.1,0,0,1,3.1,2.35l-.58.91a16.39,16.39,0,0,0-2.52-2.17v8.53h-1Zm.32-9.33A17.78,17.78,0,0,1,77,158.64l-.91.33a20.15,20.15,0,0,0-1.2-2.6Zm13,1.3V165H81.65v6.59a.78.78,0,0,0,.87.9h4.87a1.32,1.32,0,0,0,1.22-.76A10.56,10.56,0,0,0,89,168.9l1,.33a13.08,13.08,0,0,1-.49,2.93,1.91,1.91,0,0,1-1.9,1.33H82.17a1.4,1.4,0,0,1-1.57-1.59V157.4ZM81.65,164H87.8v-5.54H81.65Z"/><circle class="cls-2" cx="71.51" cy="71.52" r="71.51"/><path class="cls-3" d="M108.91,61.93h0l0,0Z"/><path d="M89.81,25.87c-4.4.16-8.8.54-13.2.64-6.27.14-12.54,0-18.82.18-11.41.26-22.84-.06-34.25.67-1,.07-1.36.38-1.48,1.3-.3,2.22-.63,4.45-1,6.67-.26,1.69-.64,2-2.37,1.92a1.56,1.56,0,0,1-1.14-.48A12.5,12.5,0,0,0,16,35.44c-.75-.53-1.23-.23-1.37.61a7.49,7.49,0,0,0,.12,2.45,1.2,1.2,0,0,0,1.08,1.17c1.88.49,3.81.42,5.7.8-1.11.36-2.23.64-3.35.93-.66.17-1.52.25-1.45,1.16s1,1,1.72.95a28.41,28.41,0,0,0,4.79-.2c.46-.08.9-.11,1,.45a2.05,2.05,0,0,1-1.65,2A6,6,0,0,0,18.09,48a1,1,0,0,1-1.11.36,3.11,3.11,0,0,0-3.07,1.54c-.27.38-.68.88-.21,1.26s.69-.3,1-.51c.15-.09.26-.23.4-.33a1.78,1.78,0,0,1,2.27-.08,2.32,2.32,0,0,1,.76,2.58c-.16.86-1,1-1.73,1-.41,0-.83,0-1.29,0,.24.84.65,1.36,1.47,1.36a5.08,5.08,0,0,0,3.45-.83c.35-.3.64-.45,1.11-.12a5.08,5.08,0,0,0,3.5.61c.28,0,.66-.35.82,0a1.09,1.09,0,0,1-.2,1.09,5.89,5.89,0,0,1-2.5,1.79c-2.66,1.17-5.48,1.84-8.23,2.74a4.64,4.64,0,0,0-3.1,2.72,14.89,14.89,0,0,0-.88,8.27,12.73,12.73,0,0,0,2.31,5c-3.37,0-5.12.26-6.73,1.11a5.26,5.26,0,0,0-2.7,6.68c.27.65.42,1.8,1.42,1.55s.68-1.31.55-2.09c-.37-2.22.29-3.53,2.38-4.24a9.1,9.1,0,0,1,7.55.56c2.4,1.33,5.35,2.21,5.79,5.64a7.78,7.78,0,0,0,.63,1.83,3.67,3.67,0,0,0,.51,1,2.19,2.19,0,0,0,2.83.37c.88-.67.56-1.33.09-2.14a12.17,12.17,0,0,1-.83-2.44c2.92.28,5.5.84,7.25,3.26a1.18,1.18,0,0,0,2.11-.15,42.69,42.69,0,0,0,2.83-7.23A1.42,1.42,0,0,0,36,78.47a1.21,1.21,0,0,0-1.54.29c-1.9,1.67-4.26,2.06-6.62,2.24-4.26.31-5.93-2.78-5.75-6.09,0-.63.13-1.57.69-1.71,1.29-.31,2.69-.84,4,0a12.61,12.61,0,0,0,5.66,2.09,7.05,7.05,0,0,0,6-1.69c.77-.74.63-1.29-.32-1.78a13.46,13.46,0,0,1-5.95-5.94c-.58-1.12-1.18-2.21-.3-3.48a2.19,2.19,0,0,0,.25-1.13c.12-4.4-.55-8.62-3.14-12.33a1.4,1.4,0,0,1-.2-1.5,10.37,10.37,0,0,0,.84-5.82c-.15-.73-1.18-1.85.67-2,.14,0,.26-.5.36-.78.27-.82.53-1.65.79-2.47.44-1.35.05-1.86-1.36-1.71a8.62,8.62,0,0,0-3.84,1.45c-.43.27-.67.31-.78-.29-.37-2-.75-4.09-1.17-6.12-.14-.65.07-.71.63-.69,9.13.37,18.26.58,27.39.36a1.4,1.4,0,0,1,1.21.54c3.41,3.92,6.49,8.1,9.72,12.17.6.76.38,1.12-.5,1.32A13.6,13.6,0,0,0,58.68,45a.65.65,0,0,1-.45.16c-1.4-.15-1.54,0-1.44,1.44.05.73.08,1.47.12,2.2.24,5.1.46,10.2.73,15.3.12,2.35.67,2.79,3,2.54.52,0,1-.14,1.55-.2,3-.39,5.93-.86,8.68.9a2.57,2.57,0,0,0,1.08.42c.84.06,1.87.24,2.13-.9a6.38,6.38,0,0,0,.12-2.69c-.29-1.53-.47-3.08-.67-4.62-.57-4.67-1-9.37-2-14a2.28,2.28,0,0,0-1.36-1.7c-.84-.44-1.78-.54-3-1a14.2,14.2,0,0,0,1.21-.92c4.08-4,8.17-8,12.19-12.06a4.11,4.11,0,0,1,3.34-1.53,32.09,32.09,0,0,0,4.15-.24c2.26-.19,4.56-.3,6.51-2C92.91,26,91.35,25.81,89.81,25.87ZM22.41,51.79a1,1,0,0,1-1.08-.93.91.91,0,0,1,.93-1.13.94.94,0,0,1,1,1A1,1,0,0,1,22.41,51.79ZM25.85,64.2a5,5,0,0,1,3.21,1.15c1.59,1.12,2.54,2.81,3.79,4.24.15.17.27.37.12.57a.43.43,0,0,1-.68,0,8.62,8.62,0,0,1-.91-1.09,14.26,14.26,0,0,0-2.59-2.89,4.56,4.56,0,0,0-2.17-1.11c-.56-.07-1.45-.36-1.63.21s.55,1.23,1.21,1.43a11,11,0,0,1,4.52,3.16c.22.23.68.47.39.83s-.69,0-1-.23c-1-.78-2.07-1.57-3.1-2.36a3.74,3.74,0,0,0-3.46-.4c-.27.08-.64.16-.69.51s.28.52.52.69a9.1,9.1,0,0,0,3.2,1.33,14.47,14.47,0,0,1,2.94,1,4.12,4.12,0,0,1,1.51,1.39c.16.23.21.51,0,.69a.39.39,0,0,1-.56-.16c-.93-1.49-2.53-1.69-4-2.1A12.47,12.47,0,0,1,23.54,70c-.86-.48-1.69-1.07-1.63-2.15a3.54,3.54,0,0,1,1.69-3A4.1,4.1,0,0,1,25.85,64.2ZM60.64,51.37c-.11-1.25-.2-2.5-.34-3.75,0-.45.18-.62.53-.74l.37-.12c2.07-.71,2.42-.47,2.43,1.67v.65h0v.38c0,2.3-.19,2.5-2.47,2.43C60.72,51.88,60.66,51.69,60.64,51.37Zm4.21,8.84c-.34,1-2.2.75-3.13,1.59a4.45,4.45,0,0,1-.51.33L60.79,62c0-2.11,0-4.22,0-6.33,0-.81.13-1.11,1-1.08,2.1.07,2.06,0,2.39,2C64.39,57.83,65.19,59.21,64.85,60.21Zm5.22.95a2.61,2.61,0,0,1-.28,0c-1.34-.23-2.21-.69-1.86-2.4a14.46,14.46,0,0,0-.14-3.33c0-.34-.2-.9.48-.74.47.11,1.25-.31,1.33.58C69.78,57.23,69.92,59.2,70.07,61.16ZM67.56,46.65c.64.09,1.69-.12,1.8,1a20.39,20.39,0,0,1,0,2.07h.07a5.05,5.05,0,0,1,0,1C69.35,51.19,70,52,69,52c-.68,0-1.6.11-1.54-1.16,0-1.07-.16-2.15-.19-3.22C67.25,47.28,66.82,46.55,67.56,46.65Zm-.93-6.5a18.63,18.63,0,0,0-.85-4.36c-.32-.77-.68-1.47-1.7-1.08s-.85,1-.55,1.79a7.8,7.8,0,0,1,.12,2.91,91.26,91.26,0,0,0-9.09-10c8.12-.3,15.94-1,24-.66Z"/><path d="M136.11,65.63c-3.34-.35-6.68-.66-10.17-1a7.2,7.2,0,0,0,1.86-3.55c.53-3.84-2.15-7.49-6.37-8.53a17.44,17.44,0,0,0-9.57.66c-.89.29-1.85,1.3-2.53.91s-.62-1.7-.82-2.63-1.08-1.14-1.76-.42a4.38,4.38,0,0,0-.76,1.19c-.55,1.28-1.3,1.44-2.24.35-1.44-1.66-1.59-3.7-1.38-5.76.16-1.58,1.56-2.07,2.74-2.67a20.31,20.31,0,0,1,2.28-.89c.47-.18,1.17-.14,1.16-.81s-.71-.77-1.24-.93a5,5,0,0,0-2.18-.09c-.9.1-1.79.25-2.73.39.3-.92,1.08-1.34,1.76-1.84a49.29,49.29,0,0,0,5.62-4.38A4.89,4.89,0,0,0,111,34a1.59,1.59,0,0,0-.21-1.71,1.3,1.3,0,0,0-1.67-.23,10.54,10.54,0,0,0-1.88,1.13,33.37,33.37,0,0,0-6.8,7.62c-.13.19-.38.42,0,.57a51.64,51.64,0,0,1,7.11-7.52,10.16,10.16,0,0,1,1.5-1c.35-.2.81-.53,1.16-.06A1.07,1.07,0,0,1,110.2,34a7.6,7.6,0,0,1-2.07,2.12c-1.45,1.08-3,2.1-4.45,3.14a6.1,6.1,0,0,0-2.14,2.2c-.14.29-.53.44-.18.86s.48.32.87.24a11.1,11.1,0,0,1,4.45-.15,20.76,20.76,0,0,0-3.88,2,2.76,2.76,0,0,0-1.31,2.71c.14,1.63-.07,3.29.61,4.85a3.86,3.86,0,0,0,3.13,2.59c1.27.15,1.67-.19,1.71-1.47a1.58,1.58,0,0,1,.49-1.07c.32,1.07.61,2.06.9,3.05.1.34.18.73.6.75s.51-.26.55-.6.26-.42.51-.51c3.6-1.29,7.27-2,11.06-1.07a7,7,0,0,1,5.7,6.8A8.09,8.09,0,0,1,125.46,64c-.09.16-.18.29-.38.26-2.71-.42-5.44.07-8.14-.26,0,0-.06-.05-.16-.13,1-.6,1.86-1.24,3.18-1,.82.16,1.55-.85,2.58-.63a2.34,2.34,0,0,0-2.35-.62c-1.11.12-1.47-.47-1.62-1.38a3.39,3.39,0,0,1,2.19-3.59c.31-.11.7,0,.91-.39-2.49-.4-4.72,2.49-3.78,4.94.26.68.2,1-.48,1.2a3.9,3.9,0,0,0-1.36.73,3.92,3.92,0,0,1-3,.82c-2.57-.12-2.58-.09-4.11-2.07h0c-.39.66.07,1.2.26,1.81-.29,0-.54,0-.79,0a33.14,33.14,0,0,1-3.58-.13,20.44,20.44,0,0,1,4.68-2.43c.33-.11.76-.15.61-.63s-.54-.33-.87-.27a10,10,0,0,0-2.72,1.17c-1.19.62-2.36,1.27-3.54,1.89a1.3,1.3,0,0,1-1.47.06c-.51-.4-.26-1-.13-1.44a4.4,4.4,0,0,1,2.38-2.61,16.2,16.2,0,0,1,4.56-1.51c0-.34-.15-.38-.32-.39a7.37,7.37,0,0,0-7.72,5.58c-.07.36-.16.55-.55.53s-.52,0-.77,0c-.62-.11-1.57.31-1.79-.25s.48-1.31,1-1.85a12.14,12.14,0,0,1,4.47-3.25c.51-.21,1.3-.08,1.38-.88s-.75-.83-1.2-1.15a8.8,8.8,0,0,1-4.16-6.42,9,9,0,0,1,.65-4.07c.1-.26.41-.55,0-.79s-.57.07-.76.28c-1,1.12-2,2.26-3,3.37a14.46,14.46,0,0,1-3.38,3c-.64.36-1.42.83-2,.3s-.07-1.25.15-1.82a10,10,0,0,1,3.06-4.25,22.83,22.83,0,0,1,5.68-4c-.65,0-.86-.27-.73-.82s.15-.93.23-1.4a14.35,14.35,0,0,1,5.42-8.76A18.27,18.27,0,0,1,101.38,36l-1.17,2.3c-.2.88-.76,1.71-.25,3.06,1.28-3.65,3.4-6.52,4.65-9.83a2.77,2.77,0,0,0,.11-.64c0-.42.22-.91-.26-1.16s-.84.07-1.17.35c-3.26,2.83-5.55,6.18-5.44,10.7a1.28,1.28,0,0,1-.91,1.41,17.38,17.38,0,0,0-5.86,4.63,8.45,8.45,0,0,0-2,4.27c-.18,1.49.59,2.2,2.07,1.91A7.35,7.35,0,0,0,94.42,51c1.24-1.07,2.51-2.11,3.36-2.81C97,52,99,55,102.5,57.41a11.37,11.37,0,0,0-6.1,5,1.75,1.75,0,0,1-1.92,1.12c-1.78-.08-3.57,0-5.31,0,.22,2.12,1.55,2.4,3.2,2.31a27,27,0,0,1,3,.09c1.54.09,2.06,1.16,1.27,2.48a12.82,12.82,0,0,0-.8,1.62c-2.11,5.11-.79,9.69,2.32,13.87a5.88,5.88,0,0,1,1.24,4c-.11,4.83.85,9.41,4.12,13.29a7.48,7.48,0,0,1-4.65.42,18.26,18.26,0,0,0-4.37-.51c-4.24-.12-5.49,1.64-4,5.65.32.85.72,1.66,1.1,2.48s.92,1.77,1.26,2.7a10.82,10.82,0,0,1,1.06,4.22,13.07,13.07,0,0,1-1.09,4.63c-.38.83.16,1.12.49,1.39.49.39.84-.2,1.11-.53a31.14,31.14,0,0,0,2.91-4.75c1.29-2.44,1.85-4.94.27-7.69a13.09,13.09,0,0,0,7.3-.45c0,.6,0,1,0,1.47a19.07,19.07,0,0,0,.78,6.92,6.21,6.21,0,0,0,6,4.39,8.34,8.34,0,0,0,6.21-2.08c.57-.49,1.34-.95,2-.62s2,.64,1.48,2.08c-.18.54.3,1.08,1,1.12s.92-.39,1-1a7.36,7.36,0,0,1,1.58-3.36c.3-.4.62-.84.16-1.26s-1-.21-1.4.15a2.56,2.56,0,0,0-.54.55c-.3.43-.54.53-1,.17-3.12-2.33-6.41-3-10.13-.63.19-.42.23-.57.31-.7,2-3,3.66-6.08,3.49-9.83a.69.69,0,0,1,.12-.48c.64-.57.18-1-.08-1.57-1.1-2.41-1.67-4.85-.36-7.43A21.87,21.87,0,0,0,118.32,86a1.65,1.65,0,0,1,.79-1.38A24.73,24.73,0,0,0,125.26,77a39.3,39.3,0,0,0,2.22-5c.8-2.47,3-3.18,4.92-4.25.73-.41,1.7,0,2.56.05l.9.07c1.4.12.81-1.18,1.13-1.77S136.45,65.66,136.11,65.63Zm-12,7.88a27.69,27.69,0,0,1-7.61,9.87c-1.61,1.32-3.71,1.22-5.62,1.64-.59.12-.25-.48-.16-.74.79-2.45,2.47-4.33,4.12-6.21a18.43,18.43,0,0,1,1.48-1.45c1.32-1.23,1.22-2.07-.39-3a4.25,4.25,0,0,0-2.25-.47,19.48,19.48,0,0,0-5.19,1.06,2.54,2.54,0,0,0-1.49,1.69,4.41,4.41,0,0,0,0,3.18,9,9,0,0,0,.92,1.7c.44.73-.34,1.25-.47,1.9a18.21,18.21,0,0,1-.61,1.94c-3.43-3.08-6.75-6.09-7.5-10.9A6.39,6.39,0,0,1,100,69.1a3,3,0,0,0,.34-3l26.43,1.15C125.83,69.38,125.11,71.48,124.16,73.51Zm12-6.87c-.07.57-.57.36-.94.33-14.4-1.13-28.84-1.61-43.28-2.07-.55,0-1.58.4-1.57-.52,0-.52,1-.13,1.58-.13,3.51,0,7,0,10.51,0v.3c3.63.15,7.26.27,10.89.46,7,.35,14,.74,21.07,1.12a3.82,3.82,0,0,1,.9.09C135.64,66.28,136.24,66,136.17,66.64Z"/><path d="M78.65,84.35c-1.2-1.95-2.4-3.9-3.62-5.84-.54-.83-1.58-1.62-1.6-2.44s1.31-1.48,1.95-2.28a1.45,1.45,0,0,0,.17-.19,1.28,1.28,0,0,0-.32-1.93,2,2,0,0,0-2.32,0,39.94,39.94,0,0,0-4.63,2.85c-1.84,1.34-1.86,2.1-.19,3.63a1.8,1.8,0,0,0,2.34.43c.48-.27.79-1.13,1.27-.9s.59,1,.87,1.52.52,1.09.83,1.61.27.78-.31,1.07C71,82.91,69,84,66.89,85.11a6.57,6.57,0,0,1-7.63-.88,2.21,2.21,0,0,1-.87-1.89c0-2.47.39-4.92.66-7.37a1.85,1.85,0,0,0-1.43-2.26,2.32,2.32,0,0,0-2,.44c-.95.67-1.95,1.48-2.75-.21a.59.59,0,0,0-.76-.35.67.67,0,0,0-.42.85c.34,1-.3,1-1,1.1s-1.38,0-2.07.09a12.71,12.71,0,0,0-3.48.29,1.19,1.19,0,0,0-.94,1A1.09,1.09,0,0,0,45,77a20.92,20.92,0,0,1,4.65,4.11,4.14,4.14,0,0,1,.45,5.71,15.28,15.28,0,0,1-3.65,3.66c-2.19,1.7-4.61,3.05-6.92,4.58a11.32,11.32,0,0,0-4.77,6.11,4.31,4.31,0,0,0,1.56,5.09,10.19,10.19,0,0,0,4.92,2.17,6.32,6.32,0,0,1,2.85,1.38c-2,.41-3.88.81-5.78,1.18a36.94,36.94,0,0,0-5.77,1.46,1.88,1.88,0,0,1-1,.07,4.26,4.26,0,0,0-5,2.8,21.81,21.81,0,0,0-1.1,5.44,1.56,1.56,0,0,0,.83,1.86,1.62,1.62,0,0,0,2.08-.39c1.16-1.28,2.32-2.56,3.54-3.79a6.75,6.75,0,0,1,5.65-2.26c5.49.48,10.52-1.14,15.3-3.59,2.06-1.06,2.56-3.07,1.73-5.26a6.32,6.32,0,0,0-4.66-3.94,1.9,1.9,0,0,1-1.59-2.27c.12-1.19.35-2.37,1.73-2.72a66.65,66.65,0,0,0,16.85-7.22A30.63,30.63,0,0,0,75.4,84.5a10.93,10.93,0,0,0,1.76,2.35c.48.4,1,.73,1.64.3a1.31,1.31,0,0,0,.41-1.63A5.72,5.72,0,0,0,78.65,84.35Z"/><path class="cls-4" d="M44.17,180.93c-.38-1.29-.94-2.7-2.79-2.7a1.9,1.9,0,0,0-2,2c0,1.19.79,1.87,2.52,2.74,2.23,1.12,3.48,2.12,3.48,4.08,0,2.27-1.91,3.94-4.68,3.94a10.42,10.42,0,0,1-3.25-.63c-.14-.5-.44-2.32-.58-3.31l.72-.18c.4,1.29,1.44,3.32,3.44,3.32a2,2,0,0,0,2.09-2.13c0-1.3-.76-2-2.46-2.88-2.09-1.12-3.39-2.11-3.39-4.11s1.58-3.66,4.46-3.66a13.65,13.65,0,0,1,2.78.37c.08.73.2,1.69.36,3Z"/><path class="cls-4" d="M53.42,191a1.72,1.72,0,0,1-1.14-.4,2,2,0,0,1-.51-.8,6.65,6.65,0,0,1-2.22,1.2,2.57,2.57,0,0,1-2.62-2.54c0-1,.5-1.56,1.58-2a17,17,0,0,0,3.2-1.31v-.72c0-1.17-.5-1.83-1.42-1.83a1,1,0,0,0-.85.42,3.92,3.92,0,0,0-.51,1.31.71.71,0,0,1-.76.61,1.13,1.13,0,0,1-1.07-1c0-.33.24-.58.68-.89a9.44,9.44,0,0,1,3.09-1.41,3.3,3.3,0,0,1,1.93.56,2.74,2.74,0,0,1,1.07,2.41v3.6c0,.95.33,1.2.66,1.2a1.49,1.49,0,0,0,.66-.18l.21.64Zm-1.71-5-1.38.69c-.67.33-1.07.7-1.07,1.4a1.39,1.39,0,0,0,1.3,1.52,1.64,1.64,0,0,0,1.15-.46Z"/><path class="cls-4" d="M63.87,188.83A4.62,4.62,0,0,1,60.41,191a4.15,4.15,0,0,1-4.26-4.26,4.77,4.77,0,0,1,2-3.86,5.68,5.68,0,0,1,3.33-1.2,3.09,3.09,0,0,1,1.8.5.75.75,0,0,1,.36.68,1.21,1.21,0,0,1-.84,1.05.61.61,0,0,1-.42-.22,3.35,3.35,0,0,0-2.06-1c-1,0-2,.89-2,3,0,2.7,1.92,3.58,2.89,3.58a3,3,0,0,0,2.24-.93Z"/><path class="cls-4" d="M69.75,190.72h-5v-.63c1.13-.12,1.24-.22,1.24-1.46v-4.3c0-1.12-.08-1.2-1.1-1.38v-.58a16.41,16.41,0,0,0,3.33-.78v2.17c.83-1.26,1.59-2.12,2.48-2.12a1.15,1.15,0,0,1,1.25,1.11,1.74,1.74,0,0,1-.9,1.49.5.5,0,0,1-.59-.08c-.32-.28-.58-.56-.92-.56s-.93.39-1.32,1.24v3.78c0,1.25.13,1.32,1.58,1.47Z"/><path class="cls-4" d="M72.87,190.72v-.63c1.14-.14,1.27-.22,1.27-1.62v-4c0-1.31-.09-1.39-1.12-1.54v-.59a19.37,19.37,0,0,0,3.35-.75v6.86c0,1.36.1,1.48,1.31,1.62v.63Zm2.25-10.59a1.33,1.33,0,0,1-1.31-1.29,1.31,1.31,0,0,1,1.33-1.31,1.27,1.27,0,0,1,1.29,1.31A1.3,1.3,0,0,1,75.12,180.13Z"/><path class="cls-4" d="M84.34,190.72v-.63c1.06-.12,1.17-.24,1.17-1.44V184.1c0-1.12-.06-1.27-1.05-1.27H82.1v5.84c0,1.15.18,1.28,1.26,1.42v.63H78.58v-.63c1.12-.12,1.29-.26,1.29-1.42v-5.84H78.53l-.1-.26.49-.69h1a5.14,5.14,0,0,1,2-4.17,5.29,5.29,0,0,1,2.87-1.14,3.25,3.25,0,0,1,2.51.94,1,1,0,0,1,.24.66,1.61,1.61,0,0,1-.74,1.05.65.65,0,0,1-.92-.17,3.36,3.36,0,0,0-2.27-1.37,1,1,0,0,0-1.08.86,9.14,9.14,0,0,0-.38,2.83v.51H84a22.93,22.93,0,0,0,3.78-.25v7c0,1.2.14,1.32,1.35,1.44v.63Z"/><path class="cls-4" d="M97.83,188.83A4.62,4.62,0,0,1,94.37,191a4.15,4.15,0,0,1-4.26-4.26,4.77,4.77,0,0,1,2-3.86,5.68,5.68,0,0,1,3.33-1.2,3.09,3.09,0,0,1,1.8.5.75.75,0,0,1,.36.68,1.21,1.21,0,0,1-.84,1.05.61.61,0,0,1-.42-.22,3.35,3.35,0,0,0-2.06-1c-1,0-2,.89-2,3,0,2.7,1.92,3.58,2.89,3.58a3,3,0,0,0,2.24-.93Z"/><path class="cls-4" d="M106.42,188.85a4.58,4.58,0,0,1-3.55,2.11,4,4,0,0,1-4.1-4.34,5.23,5.23,0,0,1,1.43-3.56,4.31,4.31,0,0,1,3.07-1.42,3.22,3.22,0,0,1,3.22,3.2c0,.36,0,.65-.31.71s-3.12.25-5.21.33c0,2.32,1.37,3.4,2.8,3.4a3.43,3.43,0,0,0,2.3-.94Zm-3.58-6.41c-.84,0-1.59.91-1.77,2.5.92,0,1.81,0,2.77-.06.31,0,.43-.07.43-.4C104.29,183.46,103.74,182.44,102.84,182.44Z"/><path class="cls-1" d="M266.78,167.64h5.5c.49-.54,1-1.09,1.4-1.63l1,.31q-1,1.14-1.14,1.32H283v1h-3.53a10.63,10.63,0,0,1-2.5,2.65q3.1.8,6.27,1.86l-.64.84q-3.21-1.11-6.73-2a20,20,0,0,1-8.94,1.86l-.56-.89a21.84,21.84,0,0,0,8.1-1.32c-1.57-.38-3.23-.74-5-1.06.74-.71,1.37-1.35,1.9-1.92h-4.61Zm15.85-9.71v3.72h-1V158.9H268.17v2.75h-1.05v-3.72h7.37a15,15,0,0,0-.72-1.65l1.07-.2a16.59,16.59,0,0,1,.7,1.85Zm-12.85,2.4H280v5.45h-10.2Zm1,2.33H279v-1.48h-8.22Zm8.22,2.26v-1.43h-8.22v1.43Zm-.62,3.69h-5.7c-.36.37-.83.84-1.42,1.39,1.54.26,3,.58,4.5.95A8.57,8.57,0,0,0,278.37,168.61Z"/><path class="cls-1" d="M292.07,164.44a13,13,0,0,1-1.74,6.09,8.61,8.61,0,0,1-4.5,3.24l-.42-1a8,8,0,0,0,4.16-2.93,7.36,7.36,0,0,0,.78-1.59,27.57,27.57,0,0,1-4.21.81l-.27-1.06a41.92,41.92,0,0,0,3.24-5.2c-1.11.16-2.24.27-3.39.35l-.18-1a22,22,0,0,0,2.89-5.93l1,.29a22.27,22.27,0,0,1-2.79,5.64c.75-.06,1.74-.17,3-.33.6-1.26,1.09-2.37,1.48-3.31l.93.37a44.05,44.05,0,0,1-5,9.11,22.36,22.36,0,0,0,3.63-.8,17.62,17.62,0,0,0,.45-2.83Zm5.7-8a13.07,13.07,0,0,0,5.47,4.67l-.6.9a13.47,13.47,0,0,1-5.31-4.58,15,15,0,0,1-5.41,4.75l-.58-.89a14.19,14.19,0,0,0,5.5-4.85Zm-.3,3.32c.21.6.42,1.27.61,2H301v6.34h-6.32v4.58a32.57,32.57,0,0,0,3.75-.93l.23.95a46.45,46.45,0,0,1-5.08,1.16l-.22-.83a.74.74,0,0,0,.35-.66V161.78h3.46a14.59,14.59,0,0,0-.66-1.84Zm2.51,4.69v-1.8h-5.35v1.8Zm-5.35.85v1.9H300v-1.9Zm2.08,3.59a31,31,0,0,1,2.79,1.51,7.78,7.78,0,0,0,2.48-2.29l.68.68a8.43,8.43,0,0,1-2.31,2.15,33.1,33.1,0,0,1,2.68,2l-.56.87a28.62,28.62,0,0,0-6.27-4.13Z"/><circle class="cls-5" cx="284.57" cy="71.51" r="71.51"/><path class="cls-3" d="M305.32,36.53c-5.2.14-10.41.07-15.62.32a4.76,4.76,0,0,0-2.9,1,53.6,53.6,0,0,0,8.48,6.21c1.68.88,3.61,1.46,5.36-.24a26,26,0,0,1,2.64-2l7.31-5.42-.08-.25C308.78,36.3,307.05,36.49,305.32,36.53Z"/><path class="cls-3" d="M253,80.82a13,13,0,0,0-3.14-.32c-.22,0-.47,0-.52.24-.23,1.18-1.14,2.22-.8,3.51A11.34,11.34,0,0,0,252,90c.69.6,1.07.37,1.21-.39.38-2,.7-4.07,1-6C254.09,82.48,254.17,81.22,253,80.82Z"/><path class="cls-3" d="M228.62,37.58c2.82,2.69,5.38,5.65,8.27,8.27.45.41.67.63,1.32.32a114.66,114.66,0,0,1,14.62-5.76c1.19-.39,2.52-.59,3.15-1.94-9.38-.36-18.81.32-28.1-1.95A1.61,1.61,0,0,0,228.62,37.58Z"/><path class="cls-3" d="M260.53,39.76c2.24,1.59,4.51,3.2,6.79,4.8a2.13,2.13,0,0,0,2.39-.05q6.12-3.33,12.23-6.69c.23-.13.58-.17.58-.59-4,.32-8.11.47-12.17.5C267,37.75,263.54,37.57,260.53,39.76Z"/><path class="cls-6" d="M341.73,35.71a2.24,2.24,0,0,1,.86-.05l-.25-.55h0A1.31,1.31,0,0,1,341.73,35.71Z"/><polygon class="cls-6" points="342.59 35.66 342.59 35.66 342.59 35.66 342.59 35.66"/><path class="cls-3" d="M335.36,37.25c-2,0-4-.11-6,0s-4.09-.74-6.18-.54c-.41.05-.84-.11-1.35.2,2,1.92,3.75,4,5.82,5.68a3.06,3.06,0,0,0,4-.12c1.62-1.38,3.16-2.82,4.86-4.1a15.73,15.73,0,0,1,2.61-1.62A11.34,11.34,0,0,1,335.36,37.25Z"/><path class="cls-3" d="M340,36.41l.05,0,.07,0v0Z"/><path class="cls-6" d="M340.14,36.36,341,36a2.55,2.55,0,0,0-.81.35Z"/><path d="M340,36.48l.07-.07c-.29.11-.57.23-.85.36A8.21,8.21,0,0,0,340,36.48Z"/><path d="M340.14,36.47l0,0h0v-.07l-.07,0-.05,0-.07.07a8.21,8.21,0,0,1-.78.29,15.73,15.73,0,0,0-2.61,1.62c-1.7,1.28-3.24,2.72-4.86,4.1a3.06,3.06,0,0,1-4,.12c-2.07-1.73-3.86-3.76-5.82-5.68.51-.31.94-.15,1.35-.2,2.09-.2,4.08.68,6.18.54s4-.06,6,0a11.34,11.34,0,0,0,3.81-.48c.28-.13.56-.25.85-.36l.12-.09c0-.51.55-.47.88-.59a5,5,0,0,0,1.32-.62c.81-.45,1.74-.69,2.54-1.22l-.33-.56-30-.51c-2.89,0-5.77-.11-8.66-.09l-81.52.35-1.18,1.65c.82.88,1.65,1.77,2.49,2.63,3.28,3.36,6.07,7.16,9.64,10.37-3.53,1.13-6.83,2.43-10.1,3.81-.84.35-.91.68-.41,1.39a10.32,10.32,0,0,0,5.12,3.79,3.18,3.18,0,0,0,2.8-.22c1.73-1,3.52-1.85,5.25-2.83.62-.35,1-.46,1.35.29a20.7,20.7,0,0,0,4,5.25A5.8,5.8,0,0,0,249.1,61c2.23-.63,2.55-1.76.86-3.36-3.29-3.12-6.62-6.21-10.15-9.06-.32-.26-.75-.43-.87-.9a1.35,1.35,0,0,1,.32-.19,179.47,179.47,0,0,0,19.28-6.72.72.72,0,0,1,.89.16c1.81,1.71,3.64,3.39,5.55,5.17A49.7,49.7,0,0,1,258.5,49c-.83.23-.75.72-.56,1.23.35.91,1,1.69,1.38,2.56.46,1.13,1.13,1,2,.79a26.81,26.81,0,0,0,5.55-2.48c.66-.35,1-.3,1.39.34,1,1.67,2,3.32,3.16,4.91a4.34,4.34,0,0,0,4.17,2.18c1.14-.12,1.83-1,2.7-1.54,2.61-1.6,2.55-2,.24-4.08-2.51-2.3-4.94-4.69-7.51-7.13a107.66,107.66,0,0,0,14-6.91c.3-.17.56-.34.87,0A68.34,68.34,0,0,0,293,46l-7.58,2.9c-.76.29-1.27.54-.63,1.53,1.21,1.9,2.23,2.41,4.46,1.83A28.26,28.26,0,0,0,295.4,50a.87.87,0,0,1,1.33.27,35.35,35.35,0,0,0,4.89,5.64c1.7,1.39,3.53,1.88,5.48.82a1.4,1.4,0,0,0,.59-2.14c-1.07-1.22-1.67-2.78-3-3.85s-2.51-2.52-3.8-3.75c-.58-.55-.47-.77.16-1.16,1.41-.86,2.78-1.79,4.13-2.73,3.65-2.55,7.25-5.16,10.77-7.89.33-.26.63-.86,1.22-.19a117.14,117.14,0,0,0,9,9.75c-1,.49-1.78,1-2.63,1.32a4.78,4.78,0,0,0-2.38,2.15c-.61,1.07-.68,2,.25,2.7,1.26.93,2.38,2.41,4.31,1.8.08,0,.14-.1.22-.13a8.07,8.07,0,0,0,3.25-2.93c.46-.62.7-.59,1.16,0q2,2.73,4.08,5.36a2.28,2.28,0,0,0,2.67,1,2.45,2.45,0,0,0,1.5-2.42,2.62,2.62,0,0,0-1-2.23c-1.84-1.81-3.67-3.64-5.55-5.42-.52-.5-.64-.71.06-1.15a53.57,53.57,0,0,0,5.26-4,23.35,23.35,0,0,0,5.23-5.13l-2.45.77Zm-87.31,3.94a114.66,114.66,0,0,0-14.62,5.76c-.65.31-.87.08-1.32-.32-2.89-2.62-5.45-5.58-8.27-8.27a1.61,1.61,0,0,1-.74-1.06c9.29,2.27,18.72,1.59,28.1,1.95C255.35,39.82,254,40,252.83,40.41Zm29.11-2.59q-6.1,3.36-12.23,6.69a2.13,2.13,0,0,1-2.39.05c-2.28-1.6-4.55-3.21-6.79-4.8,3-2.19,6.44-2,9.82-2,4.06,0,8.12-.18,12.17-.5C282.52,37.65,282.17,37.69,281.94,37.82Zm21.34,4a26,26,0,0,0-2.64,2c-1.75,1.7-3.68,1.12-5.36.24a53.6,53.6,0,0,1-8.48-6.21,4.76,4.76,0,0,1,2.9-1c5.21-.25,10.42-.18,15.62-.32,1.73,0,3.46-.23,5.19-.35l.08.25Z"/><path d="M341,35.73c-.33.12-.86.08-.88.59A2.55,2.55,0,0,1,341,36a4.46,4.46,0,0,1,.78-.26,1.31,1.31,0,0,0,.61-.6h0A5,5,0,0,1,341,35.73Z"/><path d="M341.73,35.71A4,4,0,0,1,341,36l-.81.39v.07l2.45-.77h0A2.24,2.24,0,0,0,341.73,35.71Z"/><path d="M340.14,36.47v0h0Z"/><path d="M341.73,35.71A4.46,4.46,0,0,0,341,36,4,4,0,0,0,341.73,35.71Z"/><path d="M306.07,59c-.47-.57-1.09-.25-1.61.07a9.45,9.45,0,0,0-.82.59,35.93,35.93,0,0,0-8.93,10c-1.17,2-3.19,2.47-5.21,2.94-.46.1-.73,0-.58-.59.63-2.46.66-5,1.61-7.43.5-1.26-.27-2.2-1.63-2.06a7,7,0,0,0-2.18.66c-1.35.63-1.34.62-1.38-.86a14.69,14.69,0,0,0-.72-5.26,1.53,1.53,0,0,0-1.82-1c-.83.14-.78.89-.8,1.52,0,1.7,0,3.4-.08,5.09-.12,2.56-.15,2.56-2.62,3.12-.21,0-.4.14-.61.18-.79.17-1.36.61-1.32,1.46a1.14,1.14,0,0,0,1.5,1c2.31-.63,2.67.93,3.1,2.52a5.08,5.08,0,0,0,.36,1.08c.32.64,0,.91-.56,1.1a27.36,27.36,0,0,1-5.77.79,2,2,0,0,1-1.25-.55c-3.62-2.41-6.63-5.53-9.84-8.43a7.4,7.4,0,0,1-.9-1.22c-.2-.26-.27-.49.05-.73a3.08,3.08,0,0,0,1-2.26c.15-.81.37-1.7-.35-2.25a2.19,2.19,0,0,0-2.39.12,10.62,10.62,0,0,1-5.43,1,7,7,0,0,0-1.52.1.58.58,0,0,0-.49.84,4.44,4.44,0,0,0,3.65,3.43,10.76,10.76,0,0,0,2.26.22,2,2,0,0,1,1.87,1c3.84,4.8,7.66,9.63,12.69,13.3a3.91,3.91,0,0,1,1.44,2.2c.61,2.49,1,5-.26,7.43a9.72,9.72,0,0,0-.24,8.47,4.73,4.73,0,0,1,.44,1.83,45,45,0,0,1-3.39,18c-.37.91-.67,1.59-1.83,1.18a.67.67,0,0,0-.84.42c-.16.44.13.74.47.93a3.87,3.87,0,0,0,1,.32,36.5,36.5,0,0,0,9.2.87c5.57.07,11.07-.74,16.58-1.33a2.76,2.76,0,0,0,2.57-3.26,15.89,15.89,0,0,0-.54-2.73,31.57,31.57,0,0,0-5.28-9.76A85.29,85.29,0,0,1,288,93.45,18.55,18.55,0,0,1,285.84,84a2.66,2.66,0,0,1,.54-1.66,70.4,70.4,0,0,1,5.76-6.44c2.07-2.11,4.66-3.62,5.76-6.75.91-2.6,3-4.71,5.13-6.53.88-.74,1.72-1.51,2.55-2.3C306,60,306.54,59.54,306.07,59Zm-26.69,55.85c-.66.86-2.14,0-1.47-.86a9.65,9.65,0,0,0,1.55-6.57c-.07-1.1,1.63-1.09,1.7,0A11.08,11.08,0,0,1,279.38,114.82Zm6.28-.6c-.09,1.09-1.79,1.09-1.7,0a21.62,21.62,0,0,0-.14-5.27c-.18-1.07,1.46-1.53,1.64-.45A22.84,22.84,0,0,1,285.66,114.22Zm8.25-6.6a10.52,10.52,0,0,1,2.55,5.21c.23,1.07-1.41,1.52-1.64.45a9,9,0,0,0-2.11-4.46C292,108,293.15,106.83,293.91,107.62Zm-4.53.34a20.57,20.57,0,0,1,1.91,6.37c.18,1.07-1.46,1.53-1.64.45a19,19,0,0,0-1.74-6C287.4,107.85,288.87,107,289.38,108ZM287,101.88a1.6,1.6,0,0,1,1.78,1.68.57.57,0,0,1-.49.61.64.64,0,0,1-.18.13c-.69.3-1.67-.11-2.35-.31a20.86,20.86,0,0,1-3.32-1.19.73.73,0,0,1-.23-.19l-1.61-.24c-.84-.14-.48-1.42.35-1.29C283,101.39,285,101.7,287,101.88Z"/><path d="M338.79,76.4c0-.48-.12-.94.52-1.24a2.17,2.17,0,0,0,1.26-2.3,2.83,2.83,0,0,0-1.8-2.28c-1.51-.72-2.28-.63-2.72.36a3.53,3.53,0,0,0,.1,3.63c.16.24.39.43.38.77a65.52,65.52,0,0,0,.27,9.94c-.37-.29-.54-.41-.69-.54a48.5,48.5,0,0,0-8.66-6.63c-.62-.33-.38-.69-.25-1.13a35.81,35.81,0,0,0,1.4-7.61,2.82,2.82,0,0,1,.59-1.59c.9-1.2,1.83-2.44,1.29-4.13-2.3,1.15-4.13,3-6.66,3.75-.2-2.42-.43-4.78-.57-7.13a4,4,0,0,0-1.05-2.35c-.41-.52-.82-.39-1,.18a3.41,3.41,0,0,0-.2,1.11c-.13,2.58-.27,5.17-.34,7.75,0,.73-.18,1-.95.83a8.34,8.34,0,0,1-3.5-1.42c-1.8-1.24-1.82-1.25-2,.89a7,7,0,0,0,.62,3.6c.83,1.71,2.48,1.45,4,1.39s1.7.2,1.66,1.62c-.12,3.62-2.55,5.86-4.85,8.18-1.47,1.5-3.55,2.31-4.67,4.22A21.82,21.82,0,0,0,308,98.07a5.56,5.56,0,0,1,0,1.63,35.16,35.16,0,0,1-3.07,7.9,50,50,0,0,1-3.37,5.34c-.56.76-.56,1.3.29,2,1.18.94,2.57,1.07,3.89,1.44a23.86,23.86,0,0,0,15.82-.55,1.21,1.21,0,0,1,.84-.17,2.15,2.15,0,0,0,2.44-1.16,6.2,6.2,0,0,0,1-3.25,26.9,26.9,0,0,0-1.44-9.11c-1.33-4.67-3-9.27-2.15-14.3a5.12,5.12,0,0,1,1.16-2.72c.65-.75.89-.48,1.27.21,1.37,2.53,2.51,5.18,4.05,7.62a5.88,5.88,0,0,0,8.49,1.14,1.35,1.35,0,0,0,.52-1.68c-.33-.64-1-.58-1.59-.42-1,.25-2,.51-2.93.83a.93.93,0,0,1-1.24-.52,41.12,41.12,0,0,1-3.36-6.82,25,25,0,0,1-1.37-4.92,55.37,55.37,0,0,1,5.32,4.69,28.37,28.37,0,0,0,4,3.34,2.74,2.74,0,0,0,2.88,0c.89-.46.6-1.42.4-2.19A46.35,46.35,0,0,1,338.79,76.4Zm-30.21,35.42c-.69.86-1.88-.35-1.21-1.2,1.87-2.34,3.63-4.77,3.59-7.9a.85.85,0,0,1,1.7,0C312.71,106.32,310.73,109.12,308.58,111.82Zm6.8.17c-.6.91-2.07.06-1.47-.86a10.79,10.79,0,0,0,1.58-7.51c-.17-1.08,1.47-1.53,1.64-.46A12.61,12.61,0,0,1,315.38,112Zm-3.3-14.28a.85.85,0,0,1,.45-1.64,26.88,26.88,0,0,0,5.94,1.14.85.85,0,0,1,0,1.7A28.48,28.48,0,0,1,312.08,97.71ZM322,110.39c-.11,1.08-1.81,1.09-1.7,0a12.89,12.89,0,0,0-1.38-7.57c-.52-1,.95-1.82,1.47-.86A14.41,14.41,0,0,1,322,110.39Z"/><path d="M260.73,72.39c-1.24-.81-2.36-.26-3.52.43a20.18,20.18,0,0,1-6.85,2.9c-1,.17-1.07-.14-1.15-1-.19-1.94-.41-3.8,1.18-5.35a1,1,0,0,0,0-1.5,1.35,1.35,0,0,0-1.64-.27c-.6.31-1.19.65-1.75,1-2,1.3-2,1.31-2.62-1.06-.14-.51,0-1.43-.88-1.26-.67.13-.56.94-.56,1.53a2.92,2.92,0,0,0,0,.5c.37,2.5.37,2.5-2,3.4-.31.12-.63.22-.95.35a7.78,7.78,0,0,0-1.51.64,2,2,0,0,0-.93,2.3,2.26,2.26,0,0,0,2.08,2.07c1.62.07,2.22.59,2.25,2.35a5.41,5.41,0,0,1-.6,2.89c-2.79,5.2-5.24,10.52-5.65,16.56a28.75,28.75,0,0,1-.19,4.54c-1.1,4.93-3.53,9.32-5.57,13.87.36.41.74.81,1.12,1.2a.45.45,0,0,1,.11,0,.49.49,0,0,1,.47.61c.95.93,1.92,1.84,2.9,2.74a25.32,25.32,0,0,0,8.43-.52c2.73-.73,5.78,0,8.26-2.12a3.12,3.12,0,0,0,1.4-2.83,9.22,9.22,0,0,0-3-5.85,31,31,0,0,1-5.16-7.49,4.15,4.15,0,0,1-.46-3c.34-1.57.64-3.15,1-4.72A4.77,4.77,0,0,1,246,92.92c.39.37.75.72,1.13,1.06,1.45,1.3,3.11,2.06,5,1.23s3.8-2.16,4.17-4.56a54.87,54.87,0,0,0,.64-8.49c0-1.24.36-1.86,1.56-2.11a4.36,4.36,0,0,0,3.37-3.57C262.22,75.07,261.74,73.05,260.73,72.39Zm-21.44,38.89a14.46,14.46,0,0,1-3.21,5.71c-.72.83-1.92-.38-1.21-1.2a12.45,12.45,0,0,0,2.78-5A.85.85,0,0,1,239.29,111.28Zm-1.88-4.07c-1.07-.24-.61-1.88.46-1.64a7.58,7.58,0,0,0,3.54-.17c1.07-.25,1.52,1.39.46,1.64A9.75,9.75,0,0,1,237.41,107.21Zm6.05,10.07c-.16,1.08-1.8.62-1.64-.45a13.62,13.62,0,0,0-.5-6c-.33-1,1.32-1.49,1.64-.45A15.43,15.43,0,0,1,243.46,117.28Zm2.75-7.49a21.81,21.81,0,0,1,1.58,5.87c.18,1.08-1.46,1.53-1.64.46a20.59,20.59,0,0,0-1.41-5.47C244.27,109.67,245.74,108.8,246.21,109.79Zm7-20.18c-.14.76-.52,1-1.21.39a11.34,11.34,0,0,1-3.48-5.75c-.34-1.29.57-2.33.8-3.51,0-.24.3-.26.52-.24a13,13,0,0,1,3.14.32c1.15.4,1.07,1.66,1.26,2.76C254,85.54,253.63,87.58,253.25,89.61Z"/><path class="cls-4" d="M273,181a5.53,5.53,0,0,0-.79-1.74c-.41-.52-.68-.63-1.7-.63h-1.72c-.65,0-.72.05-.72.69v4.45h2.26c1.27,0,1.41-.28,1.71-1.68h.69v4.35H272c-.23-1.37-.48-1.7-1.69-1.7H268V188c0,1.8.15,1.92,1.95,2.06v.67h-6.1v-.67c1.55-.14,1.73-.26,1.73-2.06v-7.56c0-1.77-.18-1.9-1.73-2v-.68h6.63c1.74,0,2.63,0,3,0,0,.47.11,2.08.21,3.19Z"/><path class="cls-4" d="M282.27,188.85a4.57,4.57,0,0,1-3.54,2.11,4.05,4.05,0,0,1-4.11-4.34,5.23,5.23,0,0,1,1.43-3.56,4.31,4.31,0,0,1,3.07-1.42,3.22,3.22,0,0,1,3.22,3.2c0,.36,0,.65-.31.71s-3.12.25-5.21.33c0,2.32,1.37,3.4,2.81,3.4a3.43,3.43,0,0,0,2.29-.94Zm-3.57-6.41c-.85,0-1.6.91-1.78,2.5.93,0,1.81,0,2.77-.06.31,0,.43-.07.43-.4C280.14,183.46,279.6,182.44,278.7,182.44Z"/><path class="cls-4" d="M290.08,191a1.71,1.71,0,0,1-1.13-.4,2,2,0,0,1-.51-.8,6.65,6.65,0,0,1-2.22,1.2,2.57,2.57,0,0,1-2.62-2.54c0-1,.5-1.56,1.58-2a17,17,0,0,0,3.2-1.31v-.72c0-1.17-.5-1.83-1.43-1.83a1.05,1.05,0,0,0-.85.42,4.16,4.16,0,0,0-.5,1.31.71.71,0,0,1-.76.61,1.13,1.13,0,0,1-1.07-1c0-.33.24-.58.68-.89a9.35,9.35,0,0,1,3.09-1.41,3.3,3.3,0,0,1,1.93.56,2.74,2.74,0,0,1,1.07,2.41v3.6c0,.95.33,1.2.66,1.2a1.49,1.49,0,0,0,.66-.18l.21.64Zm-1.7-5-1.38.69c-.67.33-1.07.7-1.07,1.4a1.39,1.39,0,0,0,1.3,1.52,1.65,1.65,0,0,0,1.15-.46Z"/><path class="cls-4" d="M298.24,184.4c-.47-1.32-1.09-2-2.13-2a1.09,1.09,0,0,0-1.12,1.14c0,.76.52,1.15,1.59,1.63,1.66.75,2.67,1.4,2.67,2.89,0,1.95-1.82,2.91-3.51,2.91a6.16,6.16,0,0,1-2.48-.58c-.09-.51-.27-1.79-.33-2.47l.63-.12c.4,1.27,1.18,2.4,2.51,2.4A1.13,1.13,0,0,0,297.3,189c0-.72-.38-1.18-1.56-1.75-1.35-.65-2.58-1.33-2.58-2.92s1.28-2.73,3.32-2.73a9.77,9.77,0,0,1,2.07.28c.06.52.23,1.79.32,2.31Z"/><path class="cls-4" d="M304.41,190.73a2,2,0,0,1-.82.23c-1.45,0-2.29-.74-2.29-2.48v-5.67H300l-.11-.24.57-.69h.85v-1.67c.58-.45,1.42-1.05,2-1.5l.28.11c0,.65-.06,1.75-.05,3.06h2.1a.76.76,0,0,1-.15.93h-2v5c0,1.58.64,1.81,1.07,1.81a2.61,2.61,0,0,0,1-.25l.19.65Z"/><path class="cls-1" d="M484.12,156.61a14.67,14.67,0,0,1-4.69,5.54l-.33-1a13.22,13.22,0,0,0,4.09-4.94Zm.72,4.94a15.68,15.68,0,0,1-1.92,3v9.38h-1.05v-8.24a27.47,27.47,0,0,1-2.38,2l-.33-1a14.68,14.68,0,0,0,4.75-5.51Zm6.24-3.12h-5.39v-1h10.86v1h-4.42V164h4v1h-4v7h4.75v1H484.55v-1h2.17V161.63h1V172h3.32Z"/><path class="cls-1" d="M501.94,156.28h1v3.45h4v1h-4v3.87h3v7.08h-5.62v1.49h-1v-8.57h2.58Zm-1.57,14.42H505v-5.08h-4.61Zm15.21-10.06.16,1-5.43,1a31.81,31.81,0,0,0,.5,3.72c.2.85.37,1.51.51,2a22.86,22.86,0,0,0,3.06-4.81l.82.54a25.64,25.64,0,0,1-3.51,5.33,11.52,11.52,0,0,0,.73,1.63c.61,1,1.1,1.44,1.46,1.44s.91-1.12,1.26-3.28l.85.47c-.45,2.65-1.1,4-1.94,4s-1.43-.58-2.21-1.74a10.91,10.91,0,0,1-.89-1.71,13.81,13.81,0,0,1-4.65,3.18l-.58-.82a14.54,14.54,0,0,0,4.84-3.37,21.7,21.7,0,0,1-.71-2.56,28.86,28.86,0,0,1-.55-3.78l-2.81.53-.13-1,2.87-.53c-.12-1.66-.18-3.51-.18-5.52h1c0,2,.06,3.78.17,5.33Zm-3.33-4a21.48,21.48,0,0,1,2.35,2.81l-.76.56a24.8,24.8,0,0,0-2.35-2.91Z"/><circle class="cls-2" cx="497.63" cy="71.51" r="71.51"/><path class="cls-7" d="M521.27,61.76a9.56,9.56,0,0,1-2.6-9.28c.1-.47-.08-.66-.43-.87A10.43,10.43,0,0,1,516.13,50c-.26-.27-.55-.57-.28-1s.64-.27,1-.1c.83.41,1.67.79,2.47,1.25a1.94,1.94,0,0,0,1.65.08c2-.51,3.53-1.92,5.33-2.81a13.18,13.18,0,0,1,2.66-.69.87.87,0,0,1,1.13.65c.17.92.52,1.85-.07,2.77-.4.62-.68,1.32-1.06,1.95s-.29.77.37.88a2,2,0,0,1,1.51,1,1.14,1.14,0,0,1-.16,1.44,1,1,0,0,1-1.41.08c-1.3-.77-1.32-.7-1.81.69a6.2,6.2,0,0,0-.49,2.55c0,.57.22.78.76.84a9.39,9.39,0,0,1,3,1.09c.33.16.76.36.8.71.19,1.69,1.78,2.27,2.66,3.4s2.07,2.11,3.09,3.19c.43.45.67.19,1-.11,1.45-1.37,2.9-2.75,4.37-4.12s2.71-2.5,4.07-3.75a1,1,0,0,1,1.31-.26c.55.36.43.89.18,1.39a13.85,13.85,0,0,1-2,2.91c-1.89,2.19-4,4.13-6.14,6.17a33.68,33.68,0,0,1,3.38,3.26c4,4.6,4.89,9.93,3.55,15.7-.85,3.68-1.79,7.33-1.65,11.16a7.36,7.36,0,0,0,.43,2.27,25.18,25.18,0,0,0,6.19,9.75c.45.42.83.88.56,1.55a1.11,1.11,0,0,1-1.43.71.5.5,0,0,0-.5.17,2.37,2.37,0,0,1-2.07.57c-3.62-.55-7.25-.11-10.87-.28-3.37-.16-6.73-.29-10.09-.48-1.51-.08-2-.58-2.16-2.11a4.33,4.33,0,0,0-.4-1c-1.17-3.23-2.32-6.47-2.41-10A13.94,13.94,0,0,1,525,93.41c1.79-2.77,3.59-5.53,5.61-8.13s1.54-5.33,1.64-8.42c-.6.69-1,1.21-1.46,1.65a1.77,1.77,0,0,1-2.49.3,2.1,2.1,0,0,1-.39-2.89c.78-1.21,2.12-1.77,3.12-2.72.58-.56.59-1-.15-1.37-1.28-.67-2.75-.86-4-1.62-.29-.18-.57.05-.85.12-2.48.59-4.93,1.38-7.45,1.75-3.67.54-7.29-.24-10.89-1a29.67,29.67,0,0,1-6.59-2c.12,1,.22,2,.34,2.89a3,3,0,0,1-.64,2.49c-.94,1.15-2.19,1.21-3,0a6.82,6.82,0,0,1-1.09-2,71.67,71.67,0,0,0-6.92-16,1.47,1.47,0,0,1,0-1.45c.07-.15.28-.35.39-.33,2.68.41,5.32-.46,8-.28,1.59.11,2.44.81,2.51,2.43.13,2.77.21,5.55.29,8.33,0,1.43,0,1.37,1.39,1.18a110.41,110.41,0,0,0,18.21-4.34C520.73,61.88,520.94,61.84,521.27,61.76ZM502.69,68a65.33,65.33,0,0,0,14.94,1.45,21.13,21.13,0,0,0,4.87-1.24c-.83-1-1.79-.84-2.74-.66a25.16,25.16,0,0,1-8.39.18A31.54,31.54,0,0,0,502.69,68Zm41.24,42.87a14.56,14.56,0,0,0-.53-1.43,87.11,87.11,0,0,1-3.62-8.78,4.93,4.93,0,0,0-.29-.72.81.81,0,0,0-1.11-.44c-.53.25-.46.68-.19,1.12a3.64,3.64,0,0,1,.31.7c1.11,3.4,2.75,6.59,4,9.92.15.37.38.66.82.58S543.93,111.4,543.93,110.86Zm-9.22-8.3a22.29,22.29,0,0,0,1.86,7.36,8.26,8.26,0,0,0,1.31,2c.3.31.65.55,1.06.2a.71.71,0,0,0,0-1.08c-2-2.57-2.55-5.59-2.8-8.71,0-.56,0-1.25-.77-1.21S534.73,101.89,534.71,102.56ZM532.45,106c0-1.08,0-2.15,0-3.22,0-.5-.1-.93-.68-1s-.7.42-.71.91c0,1.78-.11,3.55-.11,5.33a8.69,8.69,0,0,0,.57,3.26c.19.47.44.79,1,.62s.52-.64.37-1C532.22,109.34,532.44,107.66,532.45,106ZM529,98.58l.44-.22a43.22,43.22,0,0,0,7.1-4.31,5.86,5.86,0,0,0,1.38-1.43c.19-.26.26-.56,0-.79s-.55,0-.75.21c-2.13,2.35-4.93,3.72-7.65,5.21a8,8,0,0,0-.93.58.39.39,0,0,0-.07.51C528.59,98.53,528.76,98.59,529,98.58Zm-.23,11.58c0-.14-.07-.29-.12-.43a12.64,12.64,0,0,1-1.11-4.69.61.61,0,0,0-.71-.66c-.44,0-.62.33-.65.75a12.32,12.32,0,0,0,1.29,5.43.61.61,0,0,0,.81.38A.72.72,0,0,0,528.79,110.16Z"/><path class="cls-8" d="M458.57,117.05c-1.32-.77-1.25-2.06-1.26-3.24A37.84,37.84,0,0,1,459.67,101c2.24-6.45,4.64-12.85,7.31-19.14a23.11,23.11,0,0,0,1.45-14.11A6,6,0,0,0,467.15,65a31,31,0,0,0-3-3c-.66-.58-1.26-1-2-.09-.07.09-.2.19-.28.17-1.68-.24-1.46,1-1.6,2a22.46,22.46,0,0,1-1.64,6.48,39.32,39.32,0,0,1,1-7.4c-.28-.26-.49,0-.7.09a31.07,31.07,0,0,0-6.36,4.8,1.74,1.74,0,0,1-1.39.56,35,35,0,0,1-9.77-1.23,4.23,4.23,0,0,0-1.91-.07c0,.45.31.72.5,1a53.67,53.67,0,0,0,8.83,11.35,2,2,0,0,0,.62.45,28.34,28.34,0,0,1,5.37,2.61c.61.44.52-.2.6-.49.74-2.71,1.46-5.42,2.19-8.13,0-.16.11-.31.18-.52a3.71,3.71,0,0,1-.24,2.43q-.79,3.12-1.78,6.18a1.49,1.49,0,0,0,.33,1.74c1.14,1.24,1.27,2.72.48,3.61a3,3,0,0,1-.53.4A4.54,4.54,0,0,0,454.24,84a16.34,16.34,0,0,0-2.75-1.66,22.27,22.27,0,0,1-9.17-8.14c-1.38-2.06-2.72-4.15-4.05-6.24-.32-.51-.52-.74-1-.22s-1.38.52-1.84,1.17a.36.36,0,0,1-.31.08c-2.14-.47-4.36-.1-6.49-.68-.21,0-.47,0-.46-.35s.29-.41.52-.5c1.63-.62,3.26-1.21,4.87-1.84a2.84,2.84,0,0,1,1.95.09c.51.15,1,.54,1.63.32-.32-.81-.66-1.58-.92-2.38a8.05,8.05,0,0,1,1.22-7.15,17.57,17.57,0,0,1,4.78-5.13,25.07,25.07,0,0,0,4.21-3.77A6.12,6.12,0,0,0,448,44.78a1.53,1.53,0,0,0-.11-1.29c-.2-.26-.43-.48,0-.7a.61.61,0,0,1,.79.21,2,2,0,0,1,.41,1.36A6.4,6.4,0,0,1,447,48.74c-.52.55-.58.81.07,1.32,2.81,2.21,5,5,7.49,7.58.66.7,1.31,1.72,2.11,1.88s1.53-1,2.31-1.5c.61-.41,1.19-.88,1.9-1.41a8.91,8.91,0,0,0-3.37-1.36c-1-.16-1.3-.64-.91-1.62a3.59,3.59,0,0,0-1.33-4.73,5.46,5.46,0,0,0-2.47-1.41c-.38-.05-.82-.09-.76-.59s.48-.52.85-.57a13.51,13.51,0,0,1,4.21.11c1.05.18,2,.32,2.75-.68a1.92,1.92,0,0,1,1-.53c.65-.21,1.33-.69,2-.16s.24,1.16.11,1.75.12,1,.77,1.19c2.52.89,5,1.9,6.48,4.34.27.44.67.39,1.07.38,1.49,0,3,.06,3.75,1.6a3.66,3.66,0,0,1-.71,4.22,2.32,2.32,0,0,0-.16,3.23,22.82,22.82,0,0,1,3,10.35,72.24,72.24,0,0,1,.14,10,16.62,16.62,0,0,0,1.72,7.39,34.05,34.05,0,0,0,13.3,16.08,23.27,23.27,0,0,1,2.93,2.19,27.76,27.76,0,0,0,4.2,2.46,3.21,3.21,0,0,1,1.7,3.16,1.32,1.32,0,0,1-1.24,1.32,25,25,0,0,1-7,.24,33,33,0,0,0-5.73.33c-6.13.49-12.26.85-18.41,1-1.37,0-2.72-.19-4.1-.1s-2.89,0-4.33.06C459.57,116.2,458.87,116.24,458.57,117.05ZM439.66,66a9.73,9.73,0,0,0,1.21-.13c3.72-.82,7.43-1.67,11.14-2.51.25-.05.61-.06.72-.23a13.64,13.64,0,0,1,3.16-2.76c.27-.23.24-.38,0-.6-3.26-3.08-6.05-6.61-9.31-9.69-.42-.4-.6-.28-1,0-1.26,1.09-2.5,2.21-3.84,3.2a12.51,12.51,0,0,0-3.43,3.85,7.52,7.52,0,0,0-.22,7.9C438.5,65.71,438.87,66.1,439.66,66Zm36.95,30.49c.1.39.2.78.31,1.16,1.52,5.4,4.78,9.89,7.59,14.62.26.44.62.42,1,.41,2.22,0,4.45-.1,6.67,0a5.29,5.29,0,0,0,1.88,0c-.81-.52-1.22-1.21-2-1.52-5.39-2.28-9.41-6.19-12.82-10.83C478.38,99.11,477.6,97.73,476.61,96.47Zm6,16.29c-4.55-3.63-7-8.43-8.71-13.67a1.73,1.73,0,0,0-.52,1.86c.13.84.33,1.66.53,2.49.79,3.16,2.29,6.07,3.13,9.21.14.52.45.39.75.37C479.33,113,480.87,112.86,482.6,112.76Zm-11.78.76c-1.14-3.78-3.63-6.86-4.4-10.81a5.35,5.35,0,0,0-1.47,2.35c-.68,3.19.79,5.77,2.15,8.4a.49.49,0,0,0,.53.3Zm-9.62-8a50,50,0,0,0-1.46,8.39c0,.21-.16.58.3.53l4.61-.56a22.55,22.55,0,0,1-2.21-4A20.93,20.93,0,0,1,461.2,105.56Zm4.12-8.44a11.09,11.09,0,0,0,1-.43,60,60,0,0,0,6.4-3.93,5.32,5.32,0,0,0,.9-.81.76.76,0,0,0,.06-1.17.77.77,0,0,0-1.18,0A14.42,14.42,0,0,1,470,92.62,34.85,34.85,0,0,1,465,95.53a.83.83,0,0,0-.59,1C464.49,97,464.82,97.11,465.32,97.12ZM464.1,54.37A14.55,14.55,0,0,1,470.93,58c.4.34.53.14.72-.2a7.31,7.31,0,0,0,.92-2.46c.13-.81-.16-1-.84-1C469.19,54.38,466.64,54.37,464.1,54.37Zm6.45,46.11c-.56.21-.43.64-.41,1a20.8,20.8,0,0,0,1.76,6.84c.61,1.43,1.43,2.75,1.91,4.24.22.7.24.69,1.14.51A32.29,32.29,0,0,1,470.55,100.48Zm-2.87-47.64a9.08,9.08,0,0,0-3.31-2.08c-.9-.33-.87.62-1.1,1.11a1.31,1.31,0,0,0,.17,1.64s.13,0,.2-.06A21.59,21.59,0,0,1,467.68,52.84ZM452.21,64.92,446.3,66.3l.07.28C448.27,66.14,450.59,67.41,452.21,64.92Z"/><path class="cls-8" d="M511.71,92.4a14.69,14.69,0,0,0,.44,2.77c.34.89-.32,1.7-.93,2.36a5.12,5.12,0,0,1-3.15,1.73c-.44.06-.74.09-.66.71.44,3.68.3,7.4.79,11.07a22.31,22.31,0,0,1,.53,3.17c0,.79-.12,1.46-1,1.59s-1.27-.55-1.43-1.35c-.92-4.87-1.86-9.73-2.75-14.6a1.78,1.78,0,0,0-1.16-1.53,8.05,8.05,0,0,1-3.7-3.08,3,3,0,0,1-.5-1.45c0-.6.07-1.17.73-1.34s.94.25,1.1.81.54.57.94.69a11.25,11.25,0,0,0,7.4-.19C509.46,93.36,510.54,92.88,511.71,92.4Z"/><path class="cls-8" d="M507.63,84.07,501,83.46c-.43,0-1,0-1-.64s.57-.5.94-.56a61,61,0,0,1,7.64-.49c.74,0,1.36.3,1.37,1.13s-.6,1.12-1.34,1.17C508.38,84.09,508.16,84.07,507.63,84.07Z"/><path class="cls-8" d="M506.46,92.53,501.63,92c-.46-.05-.9-.2-1-.75a.92.92,0,0,1,.82-1A18.87,18.87,0,0,1,507.2,90a1.15,1.15,0,0,1,1,1.43C508.14,92.17,507.5,92.55,506.46,92.53Z"/><path class="cls-8" d="M501.92,85.92l4.52.26c.74,0,1.36.29,1.31,1.16s-.67,1-1.41,1a26.59,26.59,0,0,1-5.73-1.15c-.37-.09-.7-.32-.63-.78s.44-.54.83-.55.74,0,1.11,0Z"/><path class="cls-4" d="M481.38,182.6c2,.36,3.55,1.34,3.55,3.25A3.53,3.53,0,0,1,483,188.9a7.41,7.41,0,0,1-3.68.82H474v-.67c1.59-.16,1.73-.29,1.73-1.94v-7.76c0-1.67-.23-1.84-1.72-1.95v-.68h5.79a5.7,5.7,0,0,1,3.21.7,2.6,2.6,0,0,1,1.21,2.23A3.23,3.23,0,0,1,481.38,182.6Zm-2.45-.25c2,0,2.77-.84,2.77-2.38a2.25,2.25,0,0,0-2.43-2.43,1.89,1.89,0,0,0-1,.18c-.2.13-.21.33-.21.82v3.81Zm-.87,4.72c0,1.44.55,1.85,1.75,1.84a2.57,2.57,0,0,0,2.5-2.87c0-2-1.14-2.88-3.46-2.88h-.79Z"/><path class="cls-4" d="M493.09,190a1.71,1.71,0,0,1-1.13-.4,2,2,0,0,1-.51-.8,6.65,6.65,0,0,1-2.22,1.2,2.57,2.57,0,0,1-2.62-2.54c0-1,.5-1.56,1.58-2a17,17,0,0,0,3.2-1.31v-.72c0-1.17-.5-1.83-1.43-1.83a1.05,1.05,0,0,0-.85.42,4.16,4.16,0,0,0-.5,1.31.7.7,0,0,1-.76.6,1.12,1.12,0,0,1-1.07-1c0-.33.24-.58.68-.89a9.35,9.35,0,0,1,3.09-1.41,3.3,3.3,0,0,1,1.93.56,2.74,2.74,0,0,1,1.07,2.41v3.6c0,.95.33,1.2.66,1.2a1.49,1.49,0,0,0,.66-.18l.21.64Zm-1.7-5.05c-.39.21-1,.49-1.38.7-.67.33-1.07.7-1.07,1.4a1.39,1.39,0,0,0,1.3,1.52,1.65,1.65,0,0,0,1.15-.46Z"/><path class="cls-4" d="M499.74,189.73a2,2,0,0,1-.82.23c-1.45,0-2.29-.74-2.29-2.48v-5.67h-1.31l-.11-.24.57-.69h.85v-1.67c.58-.45,1.42-1.05,2-1.5l.28.11c0,.65-.06,1.75-.05,3.06H501a.76.76,0,0,1-.15.93h-1.95v5c0,1.58.64,1.8,1.07,1.8a2.61,2.61,0,0,0,1.05-.24l.19.65Z"/><path class="cls-4" d="M506,189.73a2,2,0,0,1-.82.23c-1.45,0-2.29-.74-2.29-2.48v-5.67h-1.31l-.11-.24.57-.69h.85v-1.67c.58-.45,1.42-1.05,2-1.5l.28.11c0,.65-.06,1.75-.05,3.06h2.1a.76.76,0,0,1-.15.93h-1.95v5c0,1.58.64,1.8,1.07,1.8a2.61,2.61,0,0,0,1.05-.24l.19.65Z"/><path class="cls-4" d="M508.05,189.72v-.64c1.19-.15,1.28-.25,1.28-1.54v-9.26c0-1.11-.12-1.23-1.24-1.43v-.6a18.2,18.2,0,0,0,3.47-.68v12c0,1.33.08,1.41,1.27,1.54v.64Z"/><path class="cls-4" d="M521.57,187.85A4.55,4.55,0,0,1,518,190a4,4,0,0,1-4.1-4.34,5.23,5.23,0,0,1,1.43-3.56,4.31,4.31,0,0,1,3.07-1.42,3.22,3.22,0,0,1,3.22,3.2c0,.36,0,.65-.31.71s-3.12.25-5.21.33c0,2.32,1.37,3.4,2.8,3.4a3.43,3.43,0,0,0,2.3-.94ZM518,181.44c-.84,0-1.6.91-1.77,2.5.92,0,1.81,0,2.77-.06.31,0,.43-.07.43-.4C519.45,182.46,518.9,181.44,518,181.44Z"/></g></g></svg>