<svg xmlns="http://www.w3.org/2000/svg" viewBox="0 0 66.08 66.08"><defs><style>.cls-1{fill:#ffd244;}.cls-2{fill:#fcf2e2;}.cls-3{fill:none;stroke:#131111;stroke-miterlimit:10;stroke-width:0.88px;}.cls-4{fill:#131111;}.cls-5{fill:#debd65;}</style></defs><title>nav_icon</title><g id="图层_2" data-name="图层 2"><g id="图层_1-2" data-name="图层 1"><g id="Ellipse_4" data-name="Ellipse 4"><circle class="cls-1" cx="33.04" cy="33.04" r="33.04" transform="translate(-10.13 50.92) rotate(-67.5)"/></g><path class="cls-2" d="M27.79,30.56,26.27,42.21a24.39,24.39,0,0,1,5.29-1l.69-11.53A26.11,26.11,0,0,0,27.79,30.56Z"/><path class="cls-2" d="M36.07,40.58l-.72-9.66.17,10.18a38.69,38.69,0,0,1,6.67.73L40.67,30.56a14.14,14.14,0,0,0-3-.78L38.92,41Z"/><path class="cls-2" d="M35.35,30.92l.72,9.66,2.85.4L37.7,29.78l-.17,0-1.42-.15-.78,0Z"/><path class="cls-2" d="M35.25,29.57l.1,1.35,0-1.35Z"/><path class="cls-2" d="M28.34,46.38l.38-3.32s3.06-1.61,9.79-.4l.82,3.63S30.82,45.26,28.34,46.38Z"/><path class="cls-3" d="M30.54,10.76V23.42a.93.93,0,0,0,.93.93h3.87a.93.93,0,0,0,.93-.93V10.76A4.31,4.31,0,0,0,30.54,10.76Z"/><path class="cls-4" d="M30.09,22.59a.31.31,0,0,0,.33.08,9.27,9.27,0,0,1,2.93-.4,9.14,9.14,0,0,1,3,.43.29.29,0,0,0,.33-.08,2.56,2.56,0,0,0,.68-1.7c0-1.68-1.77-3.05-4-3.05s-3.95,1.37-3.95,3.05A2.62,2.62,0,0,0,30.09,22.59Z"/><path class="cls-3" d="M43,25.85a.45.45,0,0,0-.32-.38,33.63,33.63,0,0,0-18.2,0,.43.43,0,0,0-.31.37L20.47,52.61a.45.45,0,0,0,.6.48,38.21,38.21,0,0,1,24.68.34.45.45,0,0,0,.59-.48Z"/><circle class="cls-4" cx="27.22" cy="34.59" r="0.54"/><circle class="cls-4" cx="28.85" cy="34.18" r="0.54"/><circle class="cls-4" cx="39.86" cy="34.59" r="0.54"/><circle class="cls-4" cx="38.23" cy="34.18" r="0.54"/><polygon class="cls-2" points="35.75 19.26 35.75 21.83 34.9 21.61 34.9 19.05 35.75 19.26"/><line class="cls-3" x1="30.76" y1="28.85" x2="29.54" y2="40.98"/><line class="cls-3" x1="37.7" y1="40.98" x2="36.47" y2="28.74"/><path class="cls-3" d="M26.34,32.25a11.92,11.92,0,0,1,4-.65"/><path class="cls-3" d="M40.66,31.84a10.22,10.22,0,0,0-3.78-.65"/><path class="cls-3" d="M25.87,37.72a10.55,10.55,0,0,1,3.78-.6"/><path class="cls-3" d="M41.43,37.16a12.58,12.58,0,0,0-4.14-.66"/><path class="cls-3" d="M27.09,41.8l-.41,4.9a33.36,33.36,0,0,1,13.87,0l-.81-4.9"/><path class="cls-2" d="M36.11,29.6l1.42.15C37.05,29.68,36.58,29.63,36.11,29.6Z"/><path class="cls-2" d="M36.11,29.6l-.78,0h0Z"/><path class="cls-2" d="M37.7,29.77l-.17,0,.17,0Z"/><path class="cls-5" d="M35.25,29.57h0Z"/><path class="cls-3" d="M42.19,41.8c-10.2-2-17.14.41-17.14.41l1.63-12.65s7.75-2.45,13.87,0Z"/></g></g></svg>