<svg xmlns="http://www.w3.org/2000/svg" xmlns:xlink="http://www.w3.org/1999/xlink" viewBox="0 0 457.4 431.91"><defs><style>.cls-1,.cls-4,.cls-5{stroke-miterlimit:10;}.cls-1{stroke-width:0.94px;fill:url(#未命名的渐变_7);stroke:url(#未命名的渐变_4);}.cls-2{fill:#fff;}.cls-3{fill:#f4b11d;}.cls-4,.cls-5,.cls-7{fill:none;}.cls-4,.cls-5{stroke:#f2f7d9;}.cls-4{stroke-width:4px;}.cls-5{stroke-width:2.89px;}.cls-6{fill:#1d1d1b;}</style><linearGradient id="未命名的渐变_7" x1="0.54" y1="216.61" x2="457.32" y2="216.61" gradientUnits="userSpaceOnUse"><stop offset="0" stop-color="#c95d5d"/><stop offset="1" stop-color="#c42c2c"/></linearGradient><linearGradient id="未命名的渐变_4" y1="216.6" x2="457.4" y2="216.6" gradientUnits="userSpaceOnUse"><stop offset="0" stop-color="#fff"/><stop offset="1" stop-color="#c42c2c"/></linearGradient></defs><title>资源 1</title><g id="图层_2" data-name="图层 2"><g id="图层_1-2" data-name="图层 1"><path class="cls-1" d="M457.32,431.45C53.78,363.13.54,1.77.54,1.77H457.32"/><polygon class="cls-2" points="217.21 266.53 277.15 324.85 290.04 324.85 362.55 247.19 362.55 239.14 260.07 141.5 250.08 141.5 67.69 270.39 67.69 281.99 122.8 317.44 139.72 316.15 206.9 266.49 217.21 266.53"/><ellipse class="cls-3" cx="253.31" cy="164.09" rx="8.08" ry="6.7"/><rect class="cls-4" x="250.12" y="99.81" width="10.65" height="38.45" rx="4.63" transform="translate(-4.9 11.14) rotate(-2.47)"/><rect class="cls-4" x="245.62" y="48.35" width="10.65" height="25.97" rx="3.8" transform="translate(-2.41 10.89) rotate(-2.47)"/><rect class="cls-4" x="245.62" y="2.06" width="10.65" height="25.97" rx="3.8" transform="translate(-0.42 10.85) rotate(-2.47)"/><line class="cls-4" x1="252.38" y1="163.4" x2="256.63" y2="135.99"/><line class="cls-4" x1="254.9" y1="100.04" x2="252.38" y2="72.41"/><line class="cls-5" x1="251.55" y1="47.2" x2="249.73" y2="27.25"/><path class="cls-6" d="M112.75,238.55l-45,31.84V282l55.1,35.45,16.92-1.29,26.78-19.8C147.45,277.51,122.54,249.62,112.75,238.55Z"/><path class="cls-7" d="M134.12,297.23l19.6-13.73c-9.38-9.63-19.42-20.47-28-30l-27.9,19.28Z"/><path class="cls-7" d="M215.3,240.38l62.84,59.21,55-57-81.49-76.06-126,87c8.62,9.49,18.66,20.33,28,30Z"/><path class="cls-2" d="M134.12,297.23,97.78,272.82l27.9-19.28-2.57-2.83L91.05,272.86l43.12,29,22.24-15.58-2.69-2.75Z"/><path class="cls-6" d="M252,161.66,123.11,250.71l2.57,2.83,126-87,81.49,76.06-55,57L215.3,240.38,153.72,283.5l2.69,2.75,58.53-41,63.33,59.67,60.26-62.48Z"/></g></g></svg>