<svg xmlns="http://www.w3.org/2000/svg" viewBox="0 0 215.19 61.56"><defs><style>.cls-1{fill:#767676;}.cls-2{fill:#3c3140;}.cls-3{fill:#4e9cb4;}.cls-4,.cls-6{fill:none;stroke:#f4b11d;stroke-width:0.48px;}.cls-4{stroke-miterlimit:10;}.cls-5{fill:#f2f7d9;}.cls-6{stroke-linecap:round;stroke-linejoin:round;}</style></defs><title>资源 11</title><g id="图层_2" data-name="图层 2"><g id="图层_1-2" data-name="图层 1"><ellipse class="cls-1" cx="103.17" cy="59.59" rx="91.43" ry="1.97"/><path class="cls-2" d="M198.79.48c2.12,3.57,1.21,31,1.21,31l-11.06.6c-.91-3.08-5.26-3.56-5.26-3.56-19.35-1.51-22.53,3.75-22.53,3.75L79.2,29.46,75.82,28,38.73,27l-1.79.9L8.1,27,1,19.35c.08-.81.08-9.31.08-9.31L8,3.63l29.92-.7,1.39.64,37.21-.43,2.54-1L161.37,0s3.87,2.78,5.86,2.78S189.91,4,193,2.3A6.34,6.34,0,0,0,195.71.42Z"/><circle class="cls-3" cx="25.94" cy="9.2" r="1.06"/><circle class="cls-3" cx="34.46" cy="9.07" r="1.06"/><circle class="cls-3" cx="41.57" cy="8.95" r="1.06"/><circle class="cls-3" cx="50.24" cy="8.81" r="1.06"/><circle class="cls-3" cx="66.44" cy="8.27" r="1.06"/><circle class="cls-3" cx="80.23" cy="7.54" r="1.06"/><circle class="cls-3" cx="99.5" cy="6.98" r="1.06"/><circle class="cls-3" cx="118.96" cy="6.42" r="1.06"/><circle class="cls-3" cx="132.75" cy="5.93" r="1.06"/><circle class="cls-3" cx="149.44" cy="5.33" r="1.06"/><circle class="cls-3" cx="158.26" cy="5.05" r="1.06"/><circle class="cls-3" cx="166.24" cy="4.86" r="1.06"/><circle class="cls-3" cx="174.29" cy="4.65" r="1.06"/><line class="cls-4" x1="2.36" y1="10.7" x2="2.36" y2="19.77"/><path class="cls-5" d="M6.17,18.8l-6,.12L0,21.16,2.6,26l1.81,1,16.81.48s-1.15-3-7.13-3.75S7.32,23.1,6.17,18.8Z"/><path class="cls-5" d="M6.23,11.93.18,11.81.06,9.57l2.6-4.83,1.81-1,16.81-.49s-1.15,3-7.13,3.75S7.38,7.64,6.23,11.93Z"/><path class="cls-2" d="M200.67.24s2.5,12.74,1,31.2h13.22s1.21-25.8-1-31"/><ellipse class="cls-5" cx="202" cy="3.95" rx="0.87" ry="1.29"/><ellipse class="cls-5" cx="202.36" cy="7.78" rx="0.87" ry="1.29"/><ellipse class="cls-5" cx="202.36" cy="11.45" rx="0.87" ry="1.29"/><ellipse class="cls-5" cx="202.3" cy="15.3" rx="0.87" ry="1.29"/><ellipse class="cls-5" cx="202.42" cy="19.17" rx="0.87" ry="1.29"/><ellipse class="cls-5" cx="202.36" cy="22.81" rx="0.87" ry="1.29"/><line class="cls-6" x1="1.12" y1="12.42" x2="201.66" y2="4.11"/><line class="cls-6" x1="1.23" y1="17.61" x2="202.04" y2="22.98"/><line class="cls-6" x1="202.04" y1="18.98" x2="1.15" y2="16.45"/><line class="cls-6" x1="1.25" y1="15.43" x2="202.08" y2="15.3"/><line class="cls-6" x1="202.02" y1="11.45" x2="1.2" y2="14.3"/><polyline class="cls-6" points="1.23 13.22 201.23 7.74 202 7.74"/></g></g></svg>