<svg xmlns="http://www.w3.org/2000/svg" viewBox="0 0 87.54 77.68"><defs><style>.cls-1{fill:#767676;}.cls-2{fill:#3c3140;}.cls-3{fill:#f2f7d9;}.cls-4{fill:#4e9cb4;}.cls-5{fill:none;stroke:#f2f7d9;stroke-linecap:round;stroke-miterlimit:10;stroke-width:0.54px;}</style></defs><title>资源 9</title><g id="图层_2" data-name="图层 2"><g id="图层_1-2" data-name="图层 1"><ellipse class="cls-1" cx="44.54" cy="75.71" rx="40.67" ry="1.97"/><ellipse class="cls-2" cx="24.92" cy="0.66" rx="0.67" ry="0.45"/><path class="cls-3" d="M25.24,0V.87h-.61V0a.91.91,0,0,0-.9.61V7.89h2.38V.61A.88.88,0,0,0,25.24,0Z"/><ellipse class="cls-2" cx="19.72" cy="0.66" rx="0.67" ry="0.45"/><path class="cls-3" d="M20,0V.87h-.61V0a.91.91,0,0,0-.9.61V7.89h2.39V.61A.89.89,0,0,0,20,0Z"/><ellipse class="cls-2" cx="14.51" cy="0.66" rx="0.67" ry="0.45"/><path class="cls-3" d="M14.83,0V.87h-.62V0a.91.91,0,0,0-.9.61V7.89H15.7V.61A.88.88,0,0,0,14.83,0Z"/><ellipse class="cls-2" cx="30.13" cy="0.66" rx="0.67" ry="0.45"/><path class="cls-3" d="M30.45,0V.87h-.62V0a.91.91,0,0,0-.9.61V7.89h2.39V.61A.88.88,0,0,0,30.45,0Z"/><ellipse class="cls-2" cx="35.34" cy="0.66" rx="0.67" ry="0.45"/><path class="cls-3" d="M35.65,0V.87H35V0a.91.91,0,0,0-.9.61V7.89h2.39V.61A.89.89,0,0,0,35.65,0Z"/><ellipse class="cls-2" cx="40.54" cy="0.66" rx="0.67" ry="0.45"/><path class="cls-3" d="M40.86,0V.87h-.61V0a.91.91,0,0,0-.9.61V7.89h2.38V.61A.88.88,0,0,0,40.86,0Z"/><ellipse class="cls-2" cx="22.32" cy="0.66" rx="0.67" ry="0.45"/><path class="cls-3" d="M22.64,0V.87H22V0a.91.91,0,0,0-.9.61V7.89h2.39V.61A.88.88,0,0,0,22.64,0Z"/><ellipse class="cls-2" cx="17.11" cy="0.66" rx="0.67" ry="0.45"/><path class="cls-3" d="M17.43,0V.87h-.61V0a.91.91,0,0,0-.9.61V7.89H18.3V.61A.88.88,0,0,0,17.43,0Z"/><ellipse class="cls-2" cx="11.91" cy="0.66" rx="0.67" ry="0.45"/><path class="cls-3" d="M12.22,0V.87h-.61V0a.91.91,0,0,0-.9.61V7.89H13.1V.61A.89.89,0,0,0,12.22,0Z"/><ellipse class="cls-2" cx="27.53" cy="0.66" rx="0.67" ry="0.45"/><path class="cls-3" d="M27.84,0V.87h-.61V0a.91.91,0,0,0-.9.61V7.89h2.39V.61A.89.89,0,0,0,27.84,0Z"/><ellipse class="cls-2" cx="32.73" cy="0.66" rx="0.67" ry="0.45"/><path class="cls-3" d="M33.05,0V.87h-.61V0a.91.91,0,0,0-.9.61V7.89h2.38V.61A.88.88,0,0,0,33.05,0Z"/><ellipse class="cls-2" cx="37.94" cy="0.66" rx="0.67" ry="0.45"/><path class="cls-3" d="M38.26,0V.87h-.62V0a.91.91,0,0,0-.9.61V7.89h2.39V.61A.88.88,0,0,0,38.26,0Z"/><ellipse class="cls-2" cx="60.16" cy="0.66" rx="0.67" ry="0.45"/><path class="cls-3" d="M60.47,0V.87h-.61V0a.91.91,0,0,0-.9.61V7.89h2.39V.61A.89.89,0,0,0,60.47,0Z"/><ellipse class="cls-2" cx="54.95" cy="0.66" rx="0.67" ry="0.45"/><path class="cls-3" d="M55.27,0V.87h-.62V0a.91.91,0,0,0-.9.61V7.89h2.39V.61A.88.88,0,0,0,55.27,0Z"/><ellipse class="cls-2" cx="49.74" cy="0.66" rx="0.67" ry="0.45"/><path class="cls-3" d="M50.06,0V.87h-.61V0a.92.92,0,0,0-.91.61V7.89h2.39V.61A.88.88,0,0,0,50.06,0Z"/><ellipse class="cls-2" cx="65.36" cy="0.66" rx="0.67" ry="0.45"/><path class="cls-3" d="M65.68,0V.87h-.61V0a.91.91,0,0,0-.9.61V7.89h2.38V.61A.88.88,0,0,0,65.68,0Z"/><ellipse class="cls-2" cx="70.57" cy="0.66" rx="0.67" ry="0.45"/><path class="cls-3" d="M70.89,0V.87h-.62V0a.91.91,0,0,0-.9.61V7.89h2.39V.61A.88.88,0,0,0,70.89,0Z"/><ellipse class="cls-2" cx="75.78" cy="0.66" rx="0.67" ry="0.45"/><path class="cls-3" d="M76.09,0V.87h-.61V0a.91.91,0,0,0-.9.61V7.89H77V.61A.89.89,0,0,0,76.09,0Z"/><ellipse class="cls-2" cx="57.55" cy="0.66" rx="0.67" ry="0.45"/><path class="cls-3" d="M57.87,0V.87h-.61V0a.92.92,0,0,0-.91.61V7.89h2.39V.61A.88.88,0,0,0,57.87,0Z"/><ellipse class="cls-2" cx="52.35" cy="0.66" rx="0.67" ry="0.45"/><path class="cls-3" d="M52.66,0V.87h-.61V0a.91.91,0,0,0-.9.61V7.89h2.38V.61A.88.88,0,0,0,52.66,0Z"/><ellipse class="cls-2" cx="47.14" cy="0.66" rx="0.67" ry="0.45"/><path class="cls-3" d="M47.45,0V.87h-.61V0a.91.91,0,0,0-.9.61V7.89h2.39V.61A.89.89,0,0,0,47.45,0Z"/><ellipse class="cls-2" cx="62.76" cy="0.66" rx="0.67" ry="0.45"/><path class="cls-3" d="M63.08,0V.87h-.62V0a.91.91,0,0,0-.9.61V7.89H64V.61A.88.88,0,0,0,63.08,0Z"/><ellipse class="cls-2" cx="67.97" cy="0.66" rx="0.67" ry="0.45"/><path class="cls-3" d="M68.28,0V.87h-.61V0a.91.91,0,0,0-.9.61V7.89h2.39V.61A.89.89,0,0,0,68.28,0Z"/><ellipse class="cls-2" cx="73.17" cy="0.66" rx="0.67" ry="0.45"/><path class="cls-3" d="M73.49,0V.87h-.61V0a.91.91,0,0,0-.9.61V7.89h2.38V.61A.88.88,0,0,0,73.49,0Z"/><path class="cls-4" d="M77.9,7.89H9.63a3.56,3.56,0,0,0-2.16.75H80.06A3.51,3.51,0,0,0,77.9,7.89Z"/><rect class="cls-4" x="9.3" y="12.16" width="69.21" height="2"/><path class="cls-2" d="M80.06,8.64H7.47A3.53,3.53,0,0,0,6.12,11.4h0A1.57,1.57,0,0,0,7.69,13H79.84a1.57,1.57,0,0,0,1.57-1.57h0A3.53,3.53,0,0,0,80.06,8.64Z"/><rect class="cls-3" x="4.74" y="14.02" width="77.35" height="9.25" rx="3.13"/><path class="cls-2" d="M87.54,25.86v-2A8.56,8.56,0,0,0,79,15.33H8.53A8.56,8.56,0,0,0,0,23.86v2A8.53,8.53,0,0,0,2.64,32,17.35,17.35,0,0,1,6.37,43.32C6,49.85,5.1,49.4,4.48,50.71a8,8,0,0,1-2.28,1C.46,52.34.27,53.48.27,54s.23.82.78,1.32c0,0-1.13,1.28,0,2.13a1.89,1.89,0,0,0,2,.41s0,1,1.42.46c0,0,2.28,2.76,5.67.26A1.92,1.92,0,0,0,11.72,58s4.54-.66,2.15-4.6c0,0,4.89-9.3,9.63-13.52,0,0,9.78.14,7-4.13,0,0-.84-1.36,2.77-1.36,0,0,3,.22,2,1.41s.89,2.72.89,2.72a64.3,64.3,0,0,0,7.77,2.4h0a63.45,63.45,0,0,0,7.73-2.4s1.88-1.53.89-2.72,2-1.41,2-1.41c3.6,0,2.76,1.36,2.76,1.36-2.79,4.27,6.92,4.13,6.92,4.13,4.72,4.22,9.58,13.52,9.58,13.52C71.39,57.33,75.9,58,75.9,58a1.89,1.89,0,0,0,1.64.61c3.37,2.5,5.64-.26,5.64-.26,1.42.53,1.42-.46,1.42-.46a1.88,1.88,0,0,0,2-.41c1.07-.85,0-2.13,0-2.13.55-.5.78-.77.78-1.32s-.19-1.68-1.92-2.27a7.77,7.77,0,0,1-2.26-1c-.62-1.31-1.48-.86-1.89-7.39A17.49,17.49,0,0,1,85,31.9,8.5,8.5,0,0,0,87.54,25.86Z"/><path class="cls-5" d="M44.75,17.63H12.82c-5.17-.25-5.62,1.74-5.62,1.74-4.37.27-5.13,3.4-4.9,6.25A12.18,12.18,0,0,0,4.74,31.9,24.65,24.65,0,0,1,9,41.92c1.27,11.16-5.55,11.2-5.55,11.2"/><path class="cls-5" d="M84,53.12s-6.83,0-5.56-11.2a24.65,24.65,0,0,1,4.27-10,12.1,12.1,0,0,0,2.44-6.28c.24-2.85-.52-6-4.89-6.25,0,0-.46-2-5.63-1.74H42.71"/><ellipse class="cls-3" cx="43.77" cy="26.54" rx="4.45" ry="5.14" transform="translate(10.02 65.02) rotate(-79.99)"/></g></g></svg>