<svg xmlns="http://www.w3.org/2000/svg" viewBox="0 0 217.9 79.52"><defs><style>.cls-1{fill:#767676;}.cls-2{fill:#3c3140;}.cls-3{fill:#f2f7d9;}.cls-4{fill:none;stroke:#f4b11d;stroke-miterlimit:10;stroke-width:1.14px;}.cls-5{fill:#f4b11d;}</style></defs><title>资源 12</title><g id="图层_2" data-name="图层 2"><g id="图层_1-2" data-name="图层 1"><ellipse class="cls-1" cx="108.01" cy="77.55" rx="91.43" ry="1.97"/><polygon class="cls-2" points="214.82 15.33 213.3 8.27 210.57 5.15 168.44 3.92 171.73 45.55 210.55 44.28 214.48 42.29 217.1 34.94 214.82 15.33"/><polygon class="cls-2" points="36.58 4.05 35.22 2.34 9.57 2.34 4.9 6.22 0 42.46 6.27 48.61 33.51 47.98 35.57 46.79 37.86 4.06 36.58 4.05"/><polygon class="cls-3" points="168.44 3.92 165.02 3.82 162.8 5.19 161.37 5.13 37.86 4.06 35.57 46.79 35.95 46.56 162.32 44.17 164.11 44.2 166.5 45.72 171.73 45.55 168.44 3.92"/><path class="cls-3" d="M191.65,3.22l3.65,3.15,1.59.53,2.2.38,2.44-.3,3,.11,2,.87,2.35,2.21.22,1.89s.09,2.82,4.82,3.5l1.76-1.65a13.8,13.8,0,0,0-2.16-7.64l-5.47-2.5Z"/><path class="cls-3" d="M197.21,45.71,200.75,43l3.19-.51,3.82.28,3.07-1.54L213,39l.85-2.28s-1.71-1.82-1.31-3.07,2.79-1.94,4.1-1.2l1.26,1.2v6.61l-2.61,4-4.17,1.43L196.76,46"/><line class="cls-4" x1="171.73" y1="2.2" x2="175.11" y2="46.79"/><line class="cls-4" x1="34.94" y1="0.03" x2="31.8" y2="57.7"/><rect class="cls-5" x="211.47" y="19.75" width="2.28" height="5.56" rx="1.14" transform="translate(-0.92 33.29) rotate(-8.93)"/></g></g></svg>