<svg xmlns="http://www.w3.org/2000/svg" viewBox="0 0 65.84 132.46"><defs><style>.cls-1{fill:#767676;}.cls-2{fill:#3c3140;}.cls-3{fill:#575045;}.cls-4{fill:#f2f7d9;}.cls-5,.cls-7,.cls-8,.cls-9{fill:none;stroke-miterlimit:10;}.cls-5{stroke:#f4b11d;stroke-width:0.91px;}.cls-6{fill:#4e9cb4;}.cls-7,.cls-8,.cls-9{stroke:#575045;stroke-linecap:round;stroke-width:0.73px;}.cls-8{stroke-dasharray:1.07 1.07;}.cls-9{stroke-dasharray:1.09;}</style></defs><title>资源 5</title><g id="图层_2" data-name="图层 2"><g id="图层_1-2" data-name="图层 1"><ellipse class="cls-1" cx="33.27" cy="129.9" rx="32.57" ry="2.56"/><path class="cls-2" d="M38.41,57.2s-3.45,4.36-.3,6.12l-5.39,1.39L28.6,62.47a11.33,11.33,0,0,0,.19-5.33"/><polyline class="cls-2" points="38.11 63.32 37.14 78.57 32.48 79.42 28.97 78.63 28.61 62.47"/><path class="cls-3" d="M26.08,54.51s3.67,5.68-.09,17.84c0,0,.77,1.14,1.56-.62s1.21-3.51,1.48-9.8-.36-8.09-.36-8.09Z"/><path class="cls-3" d="M39.74,55.54s-3.81,5.32.09,15.54c0,0-.8,1-1.61-.52s-1.26-3-1.54-8.24.38-6.78.38-6.78Z"/><ellipse class="cls-4" cx="28.56" cy="70.69" rx="2.3" ry="1.44" transform="matrix(0.82, -0.58, 0.58, 0.82, -35.65, 29.59)"/><ellipse class="cls-4" cx="36.9" cy="70.85" rx="1.65" ry="2.3" transform="translate(-41.17 53.91) rotate(-50.25)"/><path class="cls-3" d="M29.12,58.55s1.54,11.21-.32,12.26-.91,3.63.09,2.86,2.73-2.18,2.77-3.45S31.8,58,31.8,58Z"/><ellipse class="cls-2" cx="33.17" cy="50.33" rx="7.84" ry="9.59"/><path class="cls-2" d="M54.87,7.32h0c-20.79-10-44.65-5.38-44.65-5.38L10.62,38c16.22,4.21,42.32-1.45,42.32-1.45h0c5.49-1,10-6.68,10.56-13.81C64.08,15.46,60.34,9.05,54.87,7.32Z"/><ellipse class="cls-4" cx="12.08" cy="19.77" rx="18.33" ry="12.03" transform="translate(-8.59 30.23) rotate(-85.41)"/><ellipse class="cls-5" cx="11.99" cy="19.77" rx="16.11" ry="10.57" transform="translate(-8.67 30.14) rotate(-85.41)"/><path class="cls-3" d="M46.94,36.19a1.71,1.71,0,0,0-2.42-.3c-5.3,4.13-9.83,4.41-13.14,3.54-3.37.16-6.27.16-7.11.16a17.2,17.2,0,0,0,5.45,2.94,15.37,15.37,0,0,0,4.79.76c3.41,0,7.57-1.12,12.13-4.68A1.72,1.72,0,0,0,46.94,36.19Z"/><path class="cls-2" d="M39.56,97.1c-6.72-6.36-15.8.27-15.8.27L22.13,96.1V91L29,78.63H33"/><path class="cls-2" d="M25.79,97.1c6.72-6.36,14.82.68,14.82.68l2.62-1.68V91L37.14,78.57l-4.81.06"/><ellipse class="cls-2" cx="22.74" cy="101.26" rx="6.51" ry="3.15" transform="translate(-80.48 90.48) rotate(-71.38)"/><ellipse class="cls-2" cx="23.79" cy="101.66" rx="6.52" ry="3" transform="translate(-80.01 112.91) rotate(-83.01)"/><path class="cls-2" d="M20.74,107h3.81a.16.16,0,0,1,.16.16v5.06a1.54,1.54,0,0,1-1.54,1.54H21.79a1.2,1.2,0,0,1-1.2-1.2v-5.4A.16.16,0,0,1,20.74,107Z"/><ellipse class="cls-2" cx="42.67" cy="101.26" rx="3.15" ry="6.51" transform="translate(-30.1 18.92) rotate(-18.62)"/><ellipse class="cls-2" cx="41.62" cy="101.66" rx="3" ry="6.52" transform="translate(-12.06 5.82) rotate(-6.99)"/><path class="cls-2" d="M41.9,107h1.38a1.54,1.54,0,0,1,1.54,1.54v5.06a.16.16,0,0,1-.16.16H40.85a.16.16,0,0,1-.16-.16v-5.4A1.2,1.2,0,0,1,41.9,107Z" transform="translate(85.52 220.75) rotate(-180)"/><path class="cls-2" d="M25.64,101.21c.24-.06,6.72-2.3,6.72-2.3l7.08,2.48-.12-7.5-14.23-.18"/><ellipse class="cls-4" cx="23.32" cy="46.89" rx="3.36" ry="5.43" transform="translate(-25.31 27.46) rotate(-41.78)"/><ellipse class="cls-4" cx="41.57" cy="46.52" rx="5.43" ry="3.36" transform="translate(-20.67 50.89) rotate(-52.24)"/><path class="cls-6" d="M21.28,39.6a.36.36,0,0,1-.36-.35.37.37,0,0,1,.35-.38c6.2-.18,10.67-3.53,13.28-10a31.37,31.37,0,0,0,2.08-9.75c.28-7.72-1.35-13.11-4.86-16a11.42,11.42,0,0,0-9-2.21A.36.36,0,0,1,22.65.2a11.91,11.91,0,0,1,9.57,2.36c3.7,3.08,5.43,8.67,5.13,16.62a30.9,30.9,0,0,1-2.12,10C32.54,35.8,27.72,39.41,21.29,39.6Z"/><path class="cls-6" d="M49.25,37.51a.38.38,0,0,1-.32-.18.36.36,0,0,1,.14-.5C58.66,31.38,58.69,21,58.69,20.9c-.37-7.79-3.34-11.92-5.78-14a11.85,11.85,0,0,0-5.17-2.7.36.36,0,0,1-.3-.42.35.35,0,0,1,.41-.29,12.22,12.22,0,0,1,5.54,2.86c2.54,2.19,5.65,6.49,6,14.55A19.18,19.18,0,0,1,58.2,27a19.42,19.42,0,0,1-8.77,10.43A.31.31,0,0,1,49.25,37.51Z"/><path class="cls-7" d="M56.9,8.2l.38.39"/><path class="cls-8" d="M58,9.4c3,3.63,10.26,14.93-2.41,26"/><path class="cls-7" d="M55.14,35.73l-.41.35"/><path class="cls-9" d="M19.1.85S28.3,5.33,27.7,20,16.07,39.23,16.07,39.23"/></g></g></svg>