<svg xmlns="http://www.w3.org/2000/svg" viewBox="0 0 54.4 183.77"><defs><style>.cls-1{fill:#3c3140;}.cls-2{fill:#4e9cb4;}.cls-3{fill:#f2f7d9;}</style></defs><title>资源 18</title><g id="图层_2" data-name="图层 2"><g id="图层_1-2" data-name="图层 1"><path class="cls-1" d="M4.52,0c-6,15.62-6,27.54,0,44,12.43-9.75,36-8.31,45.64-7.23A3.82,3.82,0,0,0,54.4,33V9.88a3.82,3.82,0,0,0-4.26-3.8C40.64,7.17,17.53,8.33,4.52,0Z"/><path class="cls-2" d="M50.14,6.08c-1.37.15-3,.31-4.9.44a3.83,3.83,0,0,1,2,3.36V33a3.8,3.8,0,0,1-2,3.35c1.87.14,3.54.3,4.92.45A3.82,3.82,0,0,0,54.4,33V9.88A3.82,3.82,0,0,0,50.14,6.08Z"/><path class="cls-3" d="M12.79,3.76A35.08,35.08,0,0,1,4.52,0c-6,15.62-6,27.54,0,44a30.4,30.4,0,0,1,8.12-4.42C8.59,26.61,8.64,16.21,12.79,3.76Z"/><path class="cls-1" d="M25.67,38.63V181.81a2,2,0,0,0,2,2H34a2,2,0,0,0,2-2V37.92A28.6,28.6,0,0,0,25.67,38.63Z"/></g></g></svg>