<svg xmlns="http://www.w3.org/2000/svg" viewBox="0 0 64.76 143.76"><defs><style>.cls-1{fill:#767676;}.cls-2{fill:#3c3140;}.cls-3{fill:#575045;}.cls-4,.cls-5,.cls-8{fill:none;stroke-miterlimit:10;}.cls-4{stroke:#575045;stroke-linecap:round;stroke-width:3.68px;}.cls-5{stroke:#3c3140;stroke-width:2.91px;}.cls-6{fill:#4e9cb4;}.cls-7{fill:#f2f7d9;}.cls-8{stroke:#f4b11d;stroke-width:0.45px;}</style></defs><title>资源 7</title><g id="图层_2" data-name="图层 2"><g id="图层_1-2" data-name="图层 1"><ellipse class="cls-1" cx="32.73" cy="140.8" rx="21.91" ry="2.96"/><path class="cls-2" d="M64.48,16.92C63.09,8.44,56.79,2.2,49.64,1.57,39.06-1.37,24.64.44,16.69,2,6.81,3.94,3.51,9.36,3.51,9.36L9.13,40.94c3.49,2.14,13.66,3.78,24.32,2.81C41,43.07,48.94,39.21,53,37,60.94,35.12,66,26.36,64.48,16.92Z"/><rect class="cls-2" x="20.37" y="46.37" width="4.13" height="77.38" rx="2.07"/><rect class="cls-2" x="13.3" y="42.11" width="3.65" height="77.38" rx="1.82"/><rect class="cls-2" x="39.55" y="30.97" width="3.65" height="77.38" rx="1.82"/><rect class="cls-2" x="47.59" y="40.6" width="3.65" height="72.39" rx="1.76"/><rect class="cls-3" x="6.38" y="119.01" width="27.42" height="5.48" rx="2.33" transform="translate(63.57 6.27) rotate(30)"/><rect class="cls-3" x="31.67" y="106.87" width="27.42" height="5.48" rx="2.33" transform="translate(60.88 -8) rotate(30)"/><path class="cls-4" d="M39.71,34.36s4.65,9.39,12.11,5.52a6.35,6.35,0,0,0,2.23-2.62"/><path class="cls-2" d="M39.65,42.3S47.11,41.14,51,38s-7.07-13.95-7.07-13.95-8.82,4.65-8.91,5S39.65,42.3,39.65,42.3Z"/><line class="cls-5" x1="15.43" y1="55.28" x2="41.49" y2="48.11"/><line class="cls-5" x1="23.95" y1="58.38" x2="50.01" y2="51.21"/><line class="cls-5" x1="14.43" y1="81.5" x2="21.53" y2="85.12"/><line class="cls-5" x1="41.17" y1="72.2" x2="48.27" y2="75.43"/><line class="cls-5" x1="15.59" y1="108.5" x2="40.52" y2="96.88"/><path class="cls-6" d="M9.94,4.82A.46.46,0,0,1,9.75,4s.26-.12.69-.26A.46.46,0,0,1,11,4a.48.48,0,0,1-.29.58,5.87,5.87,0,0,0-.6.22A.41.41,0,0,1,9.94,4.82Z"/><path class="cls-6" d="M24.16,43.2a.45.45,0,0,1-.34-.15.46.46,0,0,1,0-.65,8.76,8.76,0,0,0,.89-.93.45.45,0,0,1,.64-.07.46.46,0,0,1,.06.65,10.69,10.69,0,0,1-1,1A.42.42,0,0,1,24.16,43.2Zm1.73-2.09a.45.45,0,0,1-.25-.07.46.46,0,0,1-.14-.63,11.3,11.3,0,0,0,.65-1.14.46.46,0,0,1,.61-.2.44.44,0,0,1,.2.61,12.92,12.92,0,0,1-.69,1.22A.44.44,0,0,1,25.89,41.11Zm1.23-2.41a.33.33,0,0,1-.17,0,.44.44,0,0,1-.25-.59c.16-.4.32-.82.46-1.25a.47.47,0,0,1,.58-.29.45.45,0,0,1,.28.58c-.15.45-.31.89-.48,1.3A.45.45,0,0,1,27.12,38.7ZM28,36.12h-.13a.45.45,0,0,1-.31-.56c.11-.42.22-.86.32-1.3a.45.45,0,0,1,.54-.35.47.47,0,0,1,.35.55c-.11.45-.22.9-.34,1.34A.44.44,0,0,1,28,36.12Zm.59-2.65H28.5a.45.45,0,0,1-.37-.53c.08-.42.15-.87.21-1.32a.46.46,0,0,1,.91.13c-.07.46-.14.92-.22,1.36A.46.46,0,0,1,28.58,33.47ZM29,30.78h0a.48.48,0,0,1-.41-.51c0-.43.1-.88.13-1.34a.46.46,0,0,1,.91.08c0,.46-.08.92-.13,1.37A.45.45,0,0,1,29,30.78Zm.22-2.71h0a.44.44,0,0,1-.43-.48q0-.66.06-1.35a.46.46,0,0,1,.47-.44.46.46,0,0,1,.44.47l-.06,1.37A.47.47,0,0,1,29.19,28.07Zm.09-2.72h0a.45.45,0,0,1-.46-.46c0-.19,0-.38,0-.57s0-.53,0-.77a.47.47,0,0,1,.45-.47.46.46,0,0,1,.46.45c0,.26,0,.52,0,.79v.58A.46.46,0,0,1,29.28,25.35Zm0-2.71a.46.46,0,0,1-.45-.44c0-.47,0-.92-.07-1.35a.46.46,0,0,1,.43-.48.45.45,0,0,1,.48.43c0,.43.05.89.07,1.37a.46.46,0,0,1-.44.47ZM29,19.94a.46.46,0,0,1-.44-.33c-.11-.44-.24-.88-.36-1.3a.45.45,0,0,1,.87-.26c.13.43.25.87.37,1.32a.46.46,0,0,1-.32.56Zm-.77-2.6a.47.47,0,0,1-.44-.31c-.14-.43-.29-.85-.44-1.26a.46.46,0,1,1,.86-.32l.45,1.29a.46.46,0,0,1-.29.58A.34.34,0,0,1,28.19,17.34Zm-1-2.54a.46.46,0,0,1-.42-.28c-.17-.42-.36-.83-.54-1.22a.46.46,0,1,1,.83-.39c.19.4.37.83.55,1.26a.46.46,0,0,1-.24.6Zm-1.15-2.46a.45.45,0,0,1-.41-.24c-.21-.4-.43-.79-.65-1.16a.45.45,0,0,1,.15-.62.46.46,0,0,1,.63.15c.23.39.46.79.68,1.21a.45.45,0,0,1-.19.61A.41.41,0,0,1,26.09,12.34ZM24.68,10a.45.45,0,0,1-.37-.2c-.26-.37-.53-.73-.8-1.06a.47.47,0,0,1,.07-.64.45.45,0,0,1,.64.07q.44.53.84,1.11a.45.45,0,0,1-.12.63A.43.43,0,0,1,24.68,10ZM23,7.92a.47.47,0,0,1-.33-.14c-.31-.33-.63-.63-.95-.91a.47.47,0,0,1-.05-.65.46.46,0,0,1,.65,0c.34.3.68.63,1,1a.46.46,0,0,1,0,.64A.43.43,0,0,1,23,7.92ZM20.93,6.14a.43.43,0,0,1-.26-.09,12.8,12.8,0,0,0-1.11-.69.45.45,0,0,1-.17-.62A.46.46,0,0,1,20,4.56c.4.23.8.48,1.19.75a.46.46,0,0,1,.1.64A.44.44,0,0,1,20.93,6.14ZM18.56,4.83a.51.51,0,0,1-.17,0,9.39,9.39,0,0,0-1.23-.42.46.46,0,0,1,.24-.88A10.4,10.4,0,0,1,18.73,4a.45.45,0,0,1,.25.6A.46.46,0,0,1,18.56,4.83Zm-6.67-.6a.44.44,0,0,1-.44-.36.46.46,0,0,1,.36-.54,12.57,12.57,0,0,1,1.39-.2.46.46,0,0,1,.49.42.45.45,0,0,1-.41.49,11.64,11.64,0,0,0-1.3.19ZM16,4.12h-.07A11,11,0,0,0,14.58,4a.46.46,0,0,1,0-.91,10.87,10.87,0,0,1,1.4.12.46.46,0,0,1-.06.91Z"/><path class="cls-6" d="M22.47,44.37a.46.46,0,0,1-.21-.86l.56-.32a.46.46,0,1,1,.49.77c-.2.13-.42.25-.63.36A.54.54,0,0,1,22.47,44.37Z"/><path class="cls-4" d="M11.26,40.46s4.65,9.4,12.11,5.52a6.37,6.37,0,0,0,2.23-2.61"/><ellipse class="cls-7" cx="10.89" cy="24.17" rx="10.63" ry="17.98" transform="matrix(0.99, -0.16, 0.16, 0.99, -3.78, 2.09)"/><ellipse class="cls-8" cx="11" cy="25.08" rx="9.03" ry="15.28" transform="translate(-3.93 2.12) rotate(-9.35)"/><path class="cls-6" d="M55.63,36.65a.5.5,0,0,1-.3-.11.46.46,0,0,1,0-.64l0,0a.46.46,0,0,1,.7.59l0,.05A.48.48,0,0,1,55.63,36.65Zm.9-1.11a.46.46,0,0,1-.28-.1.45.45,0,0,1-.07-.64c.28-.35.56-.72.82-1.07a.45.45,0,1,1,.73.54l-.84,1.1A.46.46,0,0,1,56.53,35.54Zm1.63-2.2a.5.5,0,0,1-.26-.08.47.47,0,0,1-.12-.64c.26-.37.51-.75.74-1.13a.46.46,0,0,1,.63-.14.46.46,0,0,1,.15.63c-.24.38-.5.77-.76,1.16A.46.46,0,0,1,58.16,33.34ZM59.61,31a.49.49,0,0,1-.23-.06.46.46,0,0,1-.17-.62c.22-.39.44-.79.64-1.19a.45.45,0,1,1,.81.41c-.2.41-.42.82-.65,1.23A.46.46,0,0,1,59.61,31Zm1.22-2.45a.39.39,0,0,1-.18,0,.45.45,0,0,1-.23-.6c.18-.41.35-.83.5-1.24a.45.45,0,1,1,.85.31c-.15.43-.33.87-.52,1.3A.45.45,0,0,1,60.83,28.56Zm1-2.57a.3.3,0,0,1-.13,0,.45.45,0,0,1-.31-.56c.13-.43.25-.87.35-1.3a.45.45,0,0,1,.54-.34.46.46,0,0,1,.35.54c-.11.45-.23.91-.36,1.36A.46.46,0,0,1,61.78,26Zm.61-2.67h-.07a.45.45,0,0,1-.38-.52c.06-.44.11-.89.15-1.33a.46.46,0,0,1,.49-.42.47.47,0,0,1,.42.49c0,.46-.09.93-.16,1.39A.46.46,0,0,1,62.39,23.32Zm.2-2.73a.46.46,0,0,1-.46-.45c0-.45,0-.89-.06-1.33a.47.47,0,0,1,.42-.5.46.46,0,0,1,.49.42c0,.46.06.94.07,1.4a.46.46,0,0,1-.46.46Zm-.23-2.72a.46.46,0,0,1-.45-.38c-.08-.44-.17-.88-.28-1.31a.46.46,0,0,1,.33-.55.46.46,0,0,1,.56.33c.11.45.21.92.29,1.37a.46.46,0,0,1-.38.53Zm-.67-2.66a.45.45,0,0,1-.43-.31c-.14-.41-.3-.83-.48-1.24a.46.46,0,0,1,.84-.36c.19.43.35.87.5,1.31a.46.46,0,0,1-.29.58A.32.32,0,0,1,61.69,15.21Zm-1.07-2.52a.45.45,0,0,1-.4-.25c-.2-.39-.42-.78-.65-1.17a.44.44,0,0,1,.16-.62.45.45,0,0,1,.62.15c.24.41.47.82.68,1.23a.46.46,0,0,1-.2.61A.41.41,0,0,1,60.62,12.69Zm-1.4-2.35a.46.46,0,0,1-.38-.2c-.25-.36-.51-.73-.79-1.08a.46.46,0,0,1,.08-.64.45.45,0,0,1,.64.08c.29.37.57.75.83,1.13a.46.46,0,0,1-.12.63A.5.5,0,0,1,59.22,10.34ZM57.54,8.17A.43.43,0,0,1,57.2,8c-.29-.33-.6-.67-.91-1a.46.46,0,0,1,0-.65.47.47,0,0,1,.65,0c.32.33.64.68.94,1a.46.46,0,0,1,0,.64A.48.48,0,0,1,57.54,8.17Zm-1.9-2a.47.47,0,0,1-.31-.12c-.32-.31-.66-.61-1-.91a.45.45,0,0,1,.59-.69c.36.31.7.62,1,.93a.46.46,0,0,1,0,.65A.47.47,0,0,1,55.64,6.19ZM53.57,4.4a.46.46,0,0,1-.29-.1c-.35-.28-.71-.55-1.08-.82a.45.45,0,0,1-.1-.63.46.46,0,0,1,.64-.11l1.11.84a.45.45,0,0,1,.07.64A.44.44,0,0,1,53.57,4.4ZM51.34,2.79a.45.45,0,0,1-.25-.07C50.39,2.26,50,2,49.94,2a.46.46,0,0,1,.44-.8s.47.26,1.21.74a.45.45,0,0,1,.13.63A.46.46,0,0,1,51.34,2.79Z"/><circle class="cls-3" cx="30.51" cy="128.89" r="3.7"/><circle class="cls-3" cx="55.1" cy="115.85" r="3.24"/><path class="cls-3" d="M27.08,129.41s.51,6.23.9,6.42,2.34,1.36,2.53,1.43a28.41,28.41,0,0,0,3.12-1.75,5.92,5.92,0,0,1-.78-4.42"/><circle class="cls-3" cx="10.19" cy="116.13" r="2.78"/><path class="cls-3" d="M7.61,116.52s.39,4.69.68,4.83,1.75,1,1.9,1.07a20.51,20.51,0,0,0,2.34-1.31,4.44,4.44,0,0,1-.58-3.32"/><path class="cls-3" d="M51.66,115.2s.52,6.23.91,6.42,2.34,1.36,2.53,1.43a28.41,28.41,0,0,0,3.12-1.75,5.89,5.89,0,0,1-.78-4.41"/><circle class="cls-3" cx="35.6" cy="104.03" r="2.6"/><path class="cls-3" d="M33,104s.42,5,.73,5.15,1.87,1.09,2,1.14a23.23,23.23,0,0,0,2.49-1.4,4.75,4.75,0,0,1-.62-3.54"/><line class="cls-5" x1="23.08" y1="113.41" x2="48.66" y2="101.14"/></g></g></svg>