<svg xmlns="http://www.w3.org/2000/svg" viewBox="0 0 158.11 69.56"><defs><style>.cls-1{fill:#767676;}.cls-2{fill:#f2f7d9;}.cls-3{fill:#575045;}.cls-4{fill:#3c3140;}.cls-5{fill:#f4b11d;}.cls-6{fill:#4e9cb4;}</style></defs><title>资源 1</title><g id="图层_2" data-name="图层 2"><g id="图层_1-2" data-name="图层 1"><ellipse class="cls-1" cx="79.82" cy="67.59" rx="72.29" ry="1.97"/><path class="cls-2" d="M16.65,30.21h24a1.68,1.68,0,0,1,1.68,1.68v.79a6.16,6.16,0,0,1-6.16,6.16h-24a1.68,1.68,0,0,1-1.68-1.68v-.79a6.16,6.16,0,0,1,6.16-6.16Z" transform="translate(3.32 -2.3) rotate(5.32)"/><path class="cls-2" d="M41.62,4.36S46.75,3,51.3,8.51c0,0,4.25,3.26,6.12,2.57s-.1,7.11-2.56,8.3S41.62,4.36,41.62,4.36Z"/><rect class="cls-3" x="5.41" y="4.27" width="16.69" height="17.52" rx="7.97" transform="matrix(0.98, 0.18, -0.18, 0.98, 2.54, -2.24)"/><path class="cls-4" d="M122.08,5.87C72.49,21.29,56.44,17.73,51.41,14.75A22.73,22.73,0,0,0,38.61,2C28-2.5,16.4.9,12.76,9.55s2,19.3,12.68,23.77a24.52,24.52,0,0,0,2.39.87l6.38,8.31,6.14-1.27-.31.35L4.67,48.9,20,50.09S40.87,52.18,43,52.38s57.36-2.1,57.36-2.1L125,48.11Z"/><rect class="cls-3" x="139.88" y="17.82" width="18.16" height="16.52" rx="6.39" transform="translate(-0.91 5.87) rotate(-2.25)"/><path class="cls-2" d="M108.17,41.58h38.41A2.37,2.37,0,0,1,149,44v6.32a2.37,2.37,0,0,1-2.37,2.37H101.85a2.37,2.37,0,0,1-2.37-2.37v0A8.69,8.69,0,0,1,108.17,41.58Z"/><path class="cls-2" d="M25.3,17.65s6.93-9.83,17,2.18c0,0,5.16,9.31-3.58,11.38l-3.8-1.28"/><path class="cls-5" d="M37.32,28.47c-1.61-.09-5.12-1.73-6.35-7.33a4.35,4.35,0,0,0-.23-1.31h0a4.76,4.76,0,0,0-.3-.7c-1-1.89-3-2.79-4.45-2s-1.88,2.92-.9,4.81a4.44,4.44,0,0,0,2.05,2h0a5.82,5.82,0,0,1,2,4.49c-.1,2.82,7.41,3.61,8.89,3.06a27.46,27.46,0,0,0,3.56-1.77A16.11,16.11,0,0,0,37.32,28.47Z"/><ellipse class="cls-4" cx="129.68" cy="27.13" rx="20.22" ry="25.56" transform="translate(46.57 130.31) rotate(-62.96)"/><ellipse class="cls-2" cx="45.81" cy="42.5" rx="11.46" ry="8.04" transform="translate(-16.63 44.84) rotate(-45)"/><path class="cls-2" d="M8.89,39.69H47.3a2.37,2.37,0,0,1,2.37,2.37v0A8.69,8.69,0,0,1,41,50.76H2.57A2.37,2.37,0,0,1,.2,48.39v0A8.69,8.69,0,0,1,8.89,39.69Z" transform="translate(4.3 -2.12) rotate(5.32)"/><polygon class="cls-6" points="58.71 19.44 57.06 22.21 56.6 24.45 58.71 25.57 60.62 25.17 61.54 23.33 60.75 21.29 58.71 19.44"/><polygon class="cls-6" points="55.74 14.65 54.09 16.84 53.63 18.61 55.74 19.49 57.65 19.18 58.57 17.72 57.78 16.11 55.74 14.65"/><polygon class="cls-6" points="51.04 12.93 48.8 14.51 47.81 16.05 49.55 17.54 51.46 17.83 52.79 16.72 52.53 14.95 51.04 12.93"/><polygon class="cls-6" points="62.66 14.65 61.01 16.84 60.55 18.61 62.66 19.49 64.57 19.18 65.49 17.72 64.7 16.11 62.66 14.65"/><polygon class="cls-6" points="70.69 14.65 69.05 16.84 68.59 18.61 70.69 19.49 72.6 19.18 73.53 17.72 72.74 16.11 70.69 14.65"/><polygon class="cls-6" points="78.2 13.66 76.56 15.85 76.09 17.62 78.2 18.5 80.11 18.19 81.03 16.73 80.25 15.12 78.2 13.66"/><polygon class="cls-6" points="85.27 12.35 83.62 14.53 83.16 16.3 85.27 17.19 87.18 16.87 88.1 15.42 87.31 13.8 85.27 12.35"/><polygon class="cls-6" points="93.83 9.92 92.18 12.11 91.72 13.88 93.83 14.77 95.74 14.45 96.66 13 95.87 11.38 93.83 9.92"/><polygon class="cls-6" points="101.09 7.5 99.45 9.69 98.98 11.46 101.09 12.35 103 12.03 103.92 10.57 103.13 8.96 101.09 7.5"/><polygon class="cls-6" points="109.13 5.92 107.48 8.11 107.02 9.88 109.13 10.76 111.04 10.45 111.96 8.99 111.17 7.38 109.13 5.92"/><polygon class="cls-6" points="117.76 4.01 116.11 6.2 115.65 7.97 117.76 8.85 119.67 8.54 120.59 7.08 119.8 5.47 117.76 4.01"/><polygon class="cls-6" points="124.48 3.5 122.83 5.69 122.37 7.46 124.48 8.34 126.39 8.03 127.31 6.57 126.52 4.96 124.48 3.5"/><polygon class="cls-6" points="66.44 18.09 64.8 20.86 64.34 23.1 66.44 24.22 68.36 23.82 69.28 21.98 68.49 19.94 66.44 18.09"/><polygon class="cls-6" points="74.15 16.77 72.5 19.54 72.04 21.78 74.15 22.9 76.06 22.5 76.98 20.66 76.19 18.62 74.15 16.77"/><polygon class="cls-6" points="82.12 15.59 80.47 18.36 80.01 20.59 82.12 21.71 84.03 21.32 84.95 19.48 84.16 17.43 82.12 15.59"/><polygon class="cls-6" points="89.96 14.01 88.31 16.77 87.85 19.01 89.96 20.13 91.87 19.74 92.79 17.89 92 15.85 89.96 14.01"/><polygon class="cls-6" points="97.86 11.7 96.22 14.47 95.76 16.71 97.86 17.83 99.78 17.43 100.7 15.59 99.91 13.55 97.86 11.7"/><polygon class="cls-6" points="106.03 9.46 104.39 12.23 103.92 14.47 106.03 15.59 107.94 15.19 108.86 13.35 108.08 11.31 106.03 9.46"/><polygon class="cls-6" points="114.79 7.03 113.15 9.79 112.69 12.03 114.79 13.15 116.7 12.76 117.63 10.91 116.83 8.87 114.79 7.03"/></g></g></svg>