<svg xmlns="http://www.w3.org/2000/svg" viewBox="0 0 76.61 129.12"><defs><style>.cls-1{fill:#767676;}.cls-2{fill:#3c3140;}.cls-3{fill:#4e9cb4;}.cls-4{fill:#f2f7d9;}.cls-5{fill:#f4b11d;}</style></defs><title>资源 4</title><g id="图层_2" data-name="图层 2"><g id="图层_1-2" data-name="图层 1"><ellipse class="cls-1" cx="27.34" cy="126.16" rx="27.34" ry="2.96"/><path class="cls-2" d="M70.29,6.78a13.45,13.45,0,0,1,6.32,3.93L16.83,110.35l-.3.42a5.69,5.69,0,0,1-5.6-3.42"/><circle class="cls-3" cx="45.97" cy="55.1" r="1.21"/><circle class="cls-3" cx="41.58" cy="62.56" r="1.21"/><circle class="cls-3" cx="37.42" cy="69.81" r="1.21"/><circle class="cls-3" cx="33.03" cy="76.95" r="1.21"/><circle class="cls-3" cx="28.73" cy="84.07" r="1.21"/><path class="cls-4" d="M58.86,0A13.56,13.56,0,0,1,65.4,3.56l-54,102.89-.27.44a5.7,5.7,0,0,1-5.79-3.1"/><circle class="cls-2" cx="37.33" cy="49.63" r="1.21"/><circle class="cls-2" cx="33.38" cy="57.32" r="1.21"/><circle class="cls-2" cx="29.63" cy="64.8" r="1.21"/><circle class="cls-2" cx="25.66" cy="72.18" r="1.21"/><circle class="cls-2" cx="21.77" cy="79.53" r="1.21"/><path class="cls-2" d="M64,2.37S62,2.39,61.37.88c0,0-1.72,2.35-.58,3.59S63.61,3.1,63.61,3.1Z"/><path class="cls-5" d="M74.76,9.08s-2.06,0-2.64-1.5c0,0-1.72,2.35-.6,3.6s2.83-1.37,2.83-1.37Z"/></g></g></svg>