<svg xmlns="http://www.w3.org/2000/svg" viewBox="0 0 88.66 119.53"><defs><style>.cls-1{fill:#767676;}.cls-2{fill:#3c3140;}.cls-3,.cls-5{fill:none;stroke:#f2f7d9;stroke-miterlimit:10;}.cls-3{stroke-width:1.14px;}.cls-4{fill:#f4b11d;}.cls-5{stroke-width:1.2px;}</style></defs><title>资源 14</title><g id="图层_2" data-name="图层 2"><g id="图层_1-2" data-name="图层 1"><ellipse class="cls-1" cx="44.77" cy="117.56" rx="28.66" ry="1.97"/><polygon class="cls-2" points="44.96 80.15 62.99 97.69 66.86 97.69 88.66 74.33 88.66 71.91 57.85 42.55 54.85 42.55 0 81.31 0 84.8 16.57 95.46 21.66 95.07 41.86 80.14 44.96 80.15"/><polygon class="cls-3" points="8.03 82.05 55.37 49.34 80.63 72.93 63.3 90.89 44.33 73.02 19.98 90.07 8.03 82.05"/><ellipse class="cls-4" cx="55.82" cy="49.34" rx="2.43" ry="2.01"/><rect class="cls-5" x="54.86" y="30.02" width="3.2" height="11.56" rx="1.39" transform="translate(-1.49 2.47) rotate(-2.47)"/><rect class="cls-5" x="53.5" y="14.54" width="3.2" height="7.81" rx="1.14" transform="translate(-0.74 2.4) rotate(-2.47)"/><rect class="cls-5" x="53.5" y="0.62" width="3.2" height="7.81" rx="1.14" transform="matrix(1, -0.04, 0.04, 1, -0.14, 2.38)"/><line class="cls-5" x1="55.54" y1="49.14" x2="56.82" y2="40.89"/><line class="cls-5" x1="56.29" y1="30.08" x2="55.54" y2="21.78"/><path class="cls-2" d="M50.48,10.59S44,12.94,44.39,9.37A1.9,1.9,0,0,0,46.15,8c.26-1.3-2.28-2.62-3.14-1,0,0-2.53,4.39,2.83,8.7,0,0,3.59,1.28,5,.35,0,0-3.58-1.91,2.12-2.6s-1.7-3.2-1.7-3.2"/><path class="cls-2" d="M59.62,10.29s6.06,3.22,6.2-.37c0,0-1.47-.28-1.55-1.59s2.61-2.28,3.23-.52c0,0,1.91,4.7-4,8.23,0,0-3.73.77-5-.34,0,0,3.8-1.4-1.75-2.87S58.89,9.9,58.89,9.9"/><polygon class="cls-2" points="48.43 7.67 55.02 4.85 61.58 8.12 59.03 9.69 57.65 15.46 54.9 17.71 52.26 15.17 51.12 9.61 48.43 7.67"/></g></g></svg>