<svg xmlns="http://www.w3.org/2000/svg" viewBox="0 0 57.96 131.09"><defs><style>.cls-1{fill:#767676;}.cls-2{fill:#3c3140;}.cls-3{fill:#4e9cb4;}.cls-4{fill:#f4b11d;}.cls-5{fill:#575046;}.cls-6{fill:#f2f7d9;}.cls-7{fill:none;stroke:#f4b11d;stroke-linecap:round;stroke-linejoin:round;stroke-width:0.46px;}</style></defs><title>资源 17</title><g id="图层_2" data-name="图层 2"><g id="图层_1-2" data-name="图层 1"><ellipse class="cls-1" cx="29.53" cy="129.12" rx="20.11" ry="1.97"/><path class="cls-2" d="M56.61,113.09c-27.25-9.38-49.31-2.89-55.26-.76A1,1,0,0,1,0,111.24L8.38,51.31a1,1,0,0,1,.71-.83,75.17,75.17,0,0,1,40.75,0,1,1,0,0,1,.72.85L58,112A1,1,0,0,1,56.61,113.09Z"/><circle class="cls-3" cx="21.62" cy="92.61" r="2.1"/><circle class="cls-3" cx="14.46" cy="93.76" r="1.77"/><circle class="cls-3" cx="7.94" cy="95.53" r="1.45"/><circle class="cls-4" cx="22.35" cy="75.42" r="2.1"/><circle class="cls-4" cx="15.97" cy="76.35" r="1.77"/><circle class="cls-4" cx="9.45" cy="77.8" r="1.45"/><circle class="cls-3" cx="22.35" cy="59.34" r="2.1"/><circle class="cls-3" cx="16.14" cy="60.26" r="1.77"/><circle class="cls-3" cx="11.5" cy="61.43" r="1.45"/><path class="cls-2" d="M29.51,2.21C29.4.88,29.2,0,29,0s-.43.9-.54,2.26V7.08c.11,1.41.31,2.35.55,2.35s.44-.95.55-2.37V2.37C29.52,2.32,29.52,2.27,29.51,2.21Z"/><path class="cls-5" d="M37.23,13.87l-.71-5.76a2.08,2.08,0,0,0-2.8-1.18s-.52-1.3-2.81-.56A3,3,0,0,0,29,5.74,3,3,0,0,0,27,6.37c-2.28-.74-2.8.56-2.8.56a2.09,2.09,0,0,0-2.81,1.18l-.71,5.76h0a5.65,5.65,0,0,0,0,.59c0,3.5,3.7,6.34,8.26,6.34s8.25-2.84,8.25-6.34a4.08,4.08,0,0,0,0-.61Z"/><circle class="cls-6" cx="20.96" cy="59" r="0.98"/><circle class="cls-6" cx="15.04" cy="59.81" r="0.75"/><circle class="cls-6" cx="10.42" cy="61.18" r="0.61"/><circle class="cls-6" cx="21.05" cy="75" r="0.98"/><circle class="cls-6" cx="14.79" cy="76.15" r="0.75"/><circle class="cls-6" cx="8.46" cy="77.52" r="0.61"/><circle class="cls-6" cx="20.14" cy="92.05" r="0.98"/><circle class="cls-6" cx="13.13" cy="93.36" r="0.75"/><circle class="cls-6" cx="6.8" cy="95.18" r="0.61"/><circle class="cls-4" cx="36.21" cy="92.61" r="2.1"/><circle class="cls-4" cx="43.37" cy="93.76" r="1.77"/><circle class="cls-4" cx="49.88" cy="95.53" r="1.45"/><circle class="cls-3" cx="35.47" cy="75.42" r="2.1"/><circle class="cls-3" cx="41.86" cy="76.35" r="1.77"/><circle class="cls-3" cx="48.37" cy="77.8" r="1.45"/><circle class="cls-4" cx="35.47" cy="59.34" r="2.1"/><circle class="cls-4" cx="41.68" cy="60.26" r="1.77"/><circle class="cls-4" cx="46.32" cy="61.43" r="1.45"/><circle class="cls-6" cx="36.87" cy="59" r="0.98"/><circle class="cls-6" cx="42.78" cy="59.81" r="0.75"/><circle class="cls-6" cx="47.41" cy="61.18" r="0.61"/><circle class="cls-6" cx="36.78" cy="75" r="0.98"/><circle class="cls-6" cx="43.04" cy="76.15" r="0.75"/><circle class="cls-6" cx="49.36" cy="77.52" r="0.61"/><circle class="cls-6" cx="37.69" cy="92.05" r="0.98"/><circle class="cls-6" cx="44.7" cy="93.36" r="0.75"/><circle class="cls-6" cx="51.03" cy="95.18" r="0.61"/><path class="cls-2" d="M22.56,17.54V45.88A2.1,2.1,0,0,0,24.65,48h8.66a2.09,2.09,0,0,0,2.08-2.09V17.54C28.34,12,22.56,17.54,22.56,17.54Z"/><path class="cls-5" d="M21.57,44a.67.67,0,0,0,.73.2,20.6,20.6,0,0,1,6.55-.91,20,20,0,0,1,6.73,1,.68.68,0,0,0,.74-.19,5.74,5.74,0,0,0,1.52-3.81c0-3.76-4-6.82-8.86-6.82s-8.86,3.06-8.86,6.82A5.69,5.69,0,0,0,21.57,44Z"/><path class="cls-7" d="M10.42,57.34a53.62,53.62,0,0,1,37.6,0"/></g></g></svg>