<svg xmlns="http://www.w3.org/2000/svg" viewBox="0 0 68.49 109.55"><defs><style>.cls-1{fill:#767676;}.cls-2{fill:#3c3140;}.cls-3{fill:#f2f7d9;}.cls-4{fill:#4e9cb4;}</style></defs><title>资源 16</title><g id="图层_2" data-name="图层 2"><g id="图层_1-2" data-name="图层 1"><ellipse class="cls-1" cx="34.46" cy="107.58" rx="20.11" ry="1.97"/><path class="cls-2" d="M68.49,48.68c0-1.06,0-2.11-.08-3.15a85,85,0,0,0-7.67-24.71c-5-10-11.87-17.07-19.59-19.69a20.41,20.41,0,0,0-14.1.26C20.33,3.94,14.32,9.88,9.62,18.16S1.46,37.25,0,49.28A54.54,54.54,0,0,0,3,66.82H3l0,.06c.42,1.17.87,2.3,1.35,3.41L9,81.76l9.36,8.13,4.25.88a51.58,51.58,0,0,0,11.68,1.06,51.62,51.62,0,0,0,11.69-1.06l4.25-.88,9.36-8.13,4.54-11.47c.49-1.11.94-2.24,1.35-3.41l0-.06h0A54.52,54.52,0,0,0,68.49,48.68Z"/><ellipse class="cls-3" cx="34.24" cy="72.19" rx="6.39" ry="4.48"/><ellipse class="cls-3" cx="9.42" cy="57.69" rx="3.74" ry="5.48" transform="translate(-16.62 5.36) rotate(-17.18)"/><ellipse class="cls-3" cx="58.26" cy="57.69" rx="5.48" ry="3.74" transform="translate(-14.07 96.31) rotate(-72.82)"/><ellipse class="cls-4" cx="34.46" cy="3.44" rx="5.53" ry="2.02"/></g></g></svg>