<svg xmlns="http://www.w3.org/2000/svg" viewBox="0 0 80.84 140.03"><defs><style>.cls-1{fill:#767676;}.cls-2{fill:#f2f7d9;}.cls-3{fill:#4e9cb4;}.cls-4{fill:#3c3140;}.cls-5{fill:#f4b11d;}</style></defs><title>资源 2</title><g id="图层_2" data-name="图层 2"><g id="图层_1-2" data-name="图层 1"><ellipse class="cls-1" cx="26.29" cy="137.08" rx="24.4" ry="2.96"/><path class="cls-2" d="M27.43,110.22l-9.32-4.94L9,100s-9.09,10.09-4.49,19.57a13.26,13.26,0,0,0,3.86,3.22,13,13,0,0,0,4.76,1.58C23.62,123.26,27.43,110.22,27.43,110.22Z"/><path class="cls-3" d="M25.44,109.6l.26.15a1,1,0,0,0,1.32-.38l1.28-2.29a.07.07,0,0,0,0-.1l-1.89-1-1.32,2.35A1,1,0,0,0,25.44,109.6Z"/><path class="cls-3" d="M22.9,108.19l.27.14a1,1,0,0,0,1.31-.37l1.28-2.3a.07.07,0,0,0,0-.09l-1.9-1.06-1.31,2.36A1,1,0,0,0,22.9,108.19Z"/><path class="cls-3" d="M20.38,106.78l.26.15a1,1,0,0,0,1.32-.38l1.28-2.29a.07.07,0,0,0,0-.1l-1.89-1L20,105.46A1,1,0,0,0,20.38,106.78Z"/><path class="cls-3" d="M17.87,105.38l.26.15a1,1,0,0,0,1.32-.38l1.28-2.29a.07.07,0,0,0,0-.1l-1.89-1.05-1.31,2.35A1,1,0,0,0,17.87,105.38Z"/><path class="cls-3" d="M15.35,104l.26.14a1,1,0,0,0,1.32-.37l1.28-2.3a.07.07,0,0,0,0-.09l-1.89-1.06L15,102.66A1,1,0,0,0,15.35,104Z"/><path class="cls-3" d="M12.81,102.56l.26.15a1,1,0,0,0,1.32-.38L15.67,100a.07.07,0,0,0,0-.1l-1.89-1-1.31,2.35A1,1,0,0,0,12.81,102.56Z"/><path class="cls-3" d="M10.29,101.16l.26.14a1,1,0,0,0,1.32-.37l1.28-2.3a.06.06,0,0,0,0-.09l-1.89-1.06L9.92,99.84A1,1,0,0,0,10.29,101.16Z"/><path class="cls-4" d="M41.51-6.78h1.44a.51.51,0,0,1,.51.51V107a0,0,0,0,1,0,0H41a0,0,0,0,1,0,0V-6.27a.51.51,0,0,1,.51-.51Z" transform="translate(29.73 -14.22) rotate(29.13)"/><rect class="cls-4" x="32.6" y="14.38" width="2.46" height="89.65" transform="translate(33.11 -8.98) rotate(29.13)"/><rect class="cls-4" x="37.65" y="17.19" width="2.46" height="89.65" transform="translate(35.12 -11.08) rotate(29.13)"/><path class="cls-4" d="M51.78-1.15h1.09a.68.68,0,0,1,.68.68V112.59a0,0,0,0,1,0,0H51.09a0,0,0,0,1,0,0V-.46a.69.69,0,0,1,.69-.69Z" transform="translate(33.75 -18.42) rotate(29.13)"/><rect class="cls-4" x="42.7" y="20.01" width="2.46" height="89.65" transform="translate(37.12 -13.19) rotate(29.13)"/><rect class="cls-4" x="47.75" y="22.82" width="2.46" height="89.65" transform="translate(39.13 -15.29) rotate(29.13)"/><rect class="cls-4" x="34.36" y="40.99" width="2.46" height="65.75" transform="translate(40.47 -7.98) rotate(29.13)"/><rect class="cls-2" x="25.47" y="71.39" width="21.83" height="1.57" rx="0.78" transform="translate(39.74 -8.58) rotate(29.13)"/><rect class="cls-2" x="18.66" y="83.87" width="2.66" height="0.2" rx="0.1" transform="translate(43.41 0.89) rotate(29.13)"/><rect class="cls-2" x="21.29" y="85.05" width="2.66" height="0.2" rx="0.1" transform="translate(44.32 -0.24) rotate(29.13)"/><rect class="cls-2" x="23.74" y="86.74" width="2.66" height="0.2" rx="0.1" transform="translate(45.45 -1.22) rotate(29.13)"/><rect class="cls-2" x="28.75" y="89.49" width="2.66" height="0.2" rx="0.1" transform="translate(47.43 -3.31) rotate(29.13)"/><rect class="cls-2" x="26.02" y="88.34" width="2.66" height="0.2" rx="0.1" transform="translate(46.52 -2.13) rotate(29.13)"/><rect class="cls-2" x="31.38" y="90.67" width="2.66" height="0.2" rx="0.1" transform="translate(48.33 -4.44) rotate(29.13)"/><rect class="cls-2" x="33.83" y="92.36" width="2.66" height="0.2" rx="0.1" transform="translate(49.46 -5.42) rotate(29.13)"/><rect class="cls-2" x="39.48" y="46.52" width="2.66" height="0.2" rx="0.1" transform="translate(27.86 -13.97) rotate(29.13)"/><rect class="cls-2" x="42.1" y="47.7" width="2.66" height="0.2" rx="0.1" transform="translate(28.77 -15.1) rotate(29.13)"/><rect class="cls-2" x="44.56" y="49.39" width="2.66" height="0.2" rx="0.1" transform="translate(29.9 -16.08) rotate(29.13)"/><rect class="cls-2" x="49.57" y="52.15" width="2.66" height="0.2" rx="0.1" transform="translate(31.88 -18.17) rotate(29.13)"/><rect class="cls-2" x="46.84" y="51" width="2.66" height="0.2" rx="0.1" transform="translate(30.97 -16.99) rotate(29.13)"/><rect class="cls-2" x="52.19" y="53.33" width="2.66" height="0.2" rx="0.1" transform="translate(32.78 -19.3) rotate(29.13)"/><rect class="cls-2" x="54.65" y="55.02" width="2.66" height="0.2" rx="0.1" transform="translate(33.92 -20.28) rotate(29.13)"/><rect class="cls-2" x="51.25" y="25.4" width="2.66" height="0.2" rx="0.1" transform="translate(19.07 -22.37) rotate(29.13)"/><rect class="cls-2" x="53.87" y="26.58" width="2.66" height="0.2" rx="0.1" transform="translate(19.97 -23.5) rotate(29.13)"/><rect class="cls-2" x="56.33" y="28.27" width="2.66" height="0.2" rx="0.1" transform="translate(21.11 -24.48) rotate(29.13)"/><rect class="cls-2" x="61.34" y="31.02" width="2.66" height="0.2" rx="0.1" transform="translate(23.08 -26.57) rotate(29.13)"/><rect class="cls-2" x="63.97" y="32.2" width="2.66" height="0.2" rx="0.1" transform="translate(23.99 -27.7) rotate(29.13)"/><rect class="cls-2" x="63.61" y="9.11" width="2.66" height="0.2" rx="0.1" transform="translate(12.7 -30.45) rotate(29.13)"/><rect class="cls-2" x="73.7" y="14.74" width="2.66" height="0.2" rx="0.1" transform="translate(16.72 -34.65) rotate(29.13)"/><rect class="cls-2" x="66.42" y="33.89" width="2.66" height="0.2" rx="0.1" transform="translate(25.12 -28.68) rotate(29.13)"/><circle class="cls-5" cx="12.97" cy="96.66" r="0.45"/><circle class="cls-5" cx="15.45" cy="98.05" r="0.45"/><circle class="cls-5" cx="18.02" cy="99.48" r="0.45"/><circle class="cls-5" cx="20.47" cy="100.85" r="0.45"/><circle class="cls-5" cx="23.08" cy="102.3" r="0.45"/><circle class="cls-5" cx="25.55" cy="103.68" r="0.45"/><circle class="cls-5" cx="28.09" cy="105.09" r="0.45"/><path class="cls-4" d="M8.26,77.25c.22,9.82-6.11,20.4-7.94,24.31s4.91,7.51,4.91,7.51a6.72,6.72,0,0,0,2.57-4.61c-3-.63-2.8-4.28-2.8-4.28s3.9-13.56,5.41-20.54c1.29-6-4.81-9.1-6.63-9.9A.59.59,0,0,0,3,70l-.31.56a.46.46,0,0,0,.17.63c1.18.67,4.61,2.83,5.36,5.68Z"/><ellipse class="cls-5" cx="3.33" cy="70.47" rx="0.6" ry="0.24" transform="translate(-59.84 39.07) rotate(-60.87)"/></g></g></svg>