<svg xmlns="http://www.w3.org/2000/svg" viewBox="0 0 56.96 118.44"><defs><style>.cls-1{fill:#767676;}.cls-2{fill:#3c3140;}.cls-3{fill:#4e9cb4;}.cls-4{fill:#f4b11d;}.cls-5{fill:none;stroke:#f4b11d;stroke-miterlimit:10;stroke-width:0.23px;}</style></defs><title>资源 3</title><g id="图层_2" data-name="图层 2"><g id="图层_1-2" data-name="图层 1"><ellipse class="cls-1" cx="24.4" cy="115.49" rx="24.4" ry="2.96"/><path class="cls-2" d="M2.69,93,48.52.05A8.57,8.57,0,0,1,57,4.63L11.72,97.1A24.11,24.11,0,0,1,2.69,93Z"/><ellipse class="cls-3" cx="44.99" cy="11.35" rx="1.55" ry="1.13" transform="translate(13.54 45.47) rotate(-61.49)"/><ellipse class="cls-3" cx="30.53" cy="52.17" rx="1.26" ry="1.15" transform="translate(-29.75 56.62) rotate(-63.88)"/><ellipse class="cls-3" cx="34.2" cy="44.69" rx="1.26" ry="1.15" transform="translate(-20.98 55.72) rotate(-63.88)"/><ellipse class="cls-3" cx="26.81" cy="59.77" rx="1.26" ry="1.15" transform="translate(-38.66 57.52) rotate(-63.88)"/><ellipse class="cls-3" cx="23.42" cy="66.68" rx="1.26" ry="1.15" transform="translate(-46.76 58.35) rotate(-63.88)"/><ellipse class="cls-3" cx="19.42" cy="74.84" rx="1.26" ry="1.15" transform="translate(-56.33 59.33) rotate(-63.88)"/><ellipse class="cls-4" cx="14.36" cy="91.23" rx="1.32" ry="0.47" transform="translate(-72.66 60.3) rotate(-61.49)"/><ellipse class="cls-5" cx="51.4" cy="109.75" rx="0.82" ry="1.14"/></g></g></svg>