<svg xmlns="http://www.w3.org/2000/svg" viewBox="0 0 93.42 85.06"><defs><style>.cls-1{fill:#767676;}.cls-2,.cls-3{fill:#3c3140;}.cls-3{stroke:#ebac26;stroke-width:0.86px;}.cls-3,.cls-6{stroke-miterlimit:10;}.cls-4{fill:#f4b11d;}.cls-5,.cls-6{fill:none;stroke:#f2f7d9;}.cls-5{stroke-linecap:round;stroke-linejoin:round;stroke-width:1.43px;}.cls-6{stroke-width:0.64px;}.cls-7{fill:#4e9cb4;}</style></defs><title>资源 13</title><g id="图层_2" data-name="图层 2"><g id="图层_1-2" data-name="图层 1"><ellipse class="cls-1" cx="45.53" cy="82.7" rx="28.66" ry="2.36"/><path class="cls-2" d="M58.6,0,2.18,42.31,0,46.33l6.07,19.6,2.5-.21L52.08,43.64,68.47,60.7l2.14-.18,22.81-24.9ZM69.27,57.32,52.7,39.56,8.57,62.41,3.91,47.8,58.8,7.13l30,29.41Z"/><polygon class="cls-3" points="58.8 7.13 3.91 47.8 8.57 62.41 52.7 39.56 69.27 57.32 88.75 36.54 58.8 7.13"/><circle class="cls-4" cx="57.07" cy="13.21" r="2.23"/><polyline class="cls-5" points="57.23 13.2 43.87 7.02 43.59 3.73 49.58 6.77"/><line class="cls-5" x1="41.48" y1="4.22" x2="44.56" y2="5.69"/><polygon class="cls-6" points="5.52 48.2 9.42 60.45 52.77 37.88 69.1 55.22 86.21 36.69 58.68 9.18 5.52 48.2"/><circle class="cls-7" cx="57.19" cy="13.19" r="0.55"/></g></g></svg>