<svg xmlns="http://www.w3.org/2000/svg" viewBox="0 0 69.36 115.24"><defs><style>.cls-1{fill:#767676;}.cls-2{fill:#3c3140;}.cls-3{fill:#f2f7d9;}.cls-4{fill:#f4b11d;}</style></defs><title>资源 15</title><g id="图层_2" data-name="图层 2"><g id="图层_1-2" data-name="图层 1"><ellipse class="cls-1" cx="35.06" cy="113.27" rx="17.76" ry="1.97"/><path class="cls-2" d="M34.23,0C27.85,0,22.68,8.54,22.68,19.07s5.17,19.07,11.55,19.07S45.78,29.6,45.78,19.07,40.61,0,34.23,0Zm.32,36.16c-4,0-7.24-6-7.24-13.44S30.55,9.28,34.55,9.28s7.24,6,7.24,13.44S38.55,36.16,34.55,36.16Z"/><path class="cls-3" d="M64.83,29.05l-4.19-6.39a92.53,92.53,0,0,0-22.2-4.49,29.57,29.57,0,0,0-7.52,0,92.53,92.53,0,0,0-22.2,4.49l-4.2,6.39C-.29,40.73-.06,57.39,0,60.62H0c0,.36,0,.55,0,.55h0C.71,74.11,6.41,85.44,14.88,92.42h0l0,0a31.12,31.12,0,0,0,2.73,2l7.1,5.27H44.51L51,94.94C61.35,88.4,68.57,75.82,69.27,61.18h0S70.19,42,64.83,29.05Z"/><path class="cls-3" d="M34.68,36.46c13,0,24.35-2.86,30.29-7.08l-.14-.33-4.19-6.39a92.53,92.53,0,0,0-22.2-4.49,29.57,29.57,0,0,0-7.52,0,92.53,92.53,0,0,0-22.2,4.49l-4.2,6.39c0,.11-.08.22-.13.33C10.32,33.6,21.66,36.46,34.68,36.46Z"/><ellipse class="cls-4" cx="14.86" cy="26.66" rx="2.43" ry="2.01"/><ellipse class="cls-4" cx="53.6" cy="26.66" rx="2.43" ry="2.01"/><polyline class="cls-2" points="22.68 19.07 22.83 23.25 24.54 24.16 27.32 24.16 27.95 22.72 27.61 18.34 24.54 16.86"/><polyline class="cls-2" points="45.75 19.07 45.62 23.25 44.14 24.16 41.73 24.16 41.17 22.72 41.47 18.34 44.14 16.86"/></g></g></svg>