<svg xmlns="http://www.w3.org/2000/svg" viewBox="0 0 64.02 112.58"><defs><style>.cls-1{fill:#767676;}.cls-2{fill:#f2f7d9;}.cls-3{fill:#3c3140;}.cls-4{fill:#f4b11d;}.cls-5,.cls-7{fill:none;stroke:#f2f7d9;stroke-linecap:round;stroke-linejoin:round;}.cls-5{stroke-width:0.39px;}.cls-6{fill:#4e9cb4;}.cls-7{stroke-width:0.47px;}</style></defs><title>资源 10</title><g id="图层_2" data-name="图层 2"><g id="图层_1-2" data-name="图层 1"><ellipse class="cls-1" cx="31.49" cy="110.22" rx="28.66" ry="2.36"/><path class="cls-2" d="M42.3,15a1.46,1.46,0,0,1-1.23-1.76c.13-1.63-.79-1.83-.79-1.83S42.7,9.53,41.59,8.1c0,0-1.63.85-1.63-1.69S37.09,3.8,37.09,3.8c-.58-2.21-3.65-2.34-3.65-2.34,0-.61-.22-.9-.43-1A2.82,2.82,0,0,0,31.35,0a2.59,2.59,0,0,0-1.76.52,1.4,1.4,0,0,0-.32.94s-3.06.13-3.65,2.34c0,0-2.86.07-2.86,2.61S21.13,8.1,21.13,8.1c-1.11,1.43,1.3,3.32,1.3,3.32s-.91.2-.78,1.83A1.47,1.47,0,0,1,20.41,15c-3,1.3-2.08,4.69-2.08,4.69s6.58-3.39,7.55-4.17a2.29,2.29,0,0,0,.53-2.28c2.34-.07,2.73-1.89,2.73-3.26s1.11-.32,1.11-.32,1.11,1.3,1-.14.55-.52.52.17.56.78.72-.08v.05s1.1-1.05,1.1.32.39,3.19,2.74,3.26a2.28,2.28,0,0,0,.52,2.28c1,.78,7.56,4.17,7.56,4.17S45.3,16.31,42.3,15Z"/><path class="cls-3" d="M63.94,80.1C52.57,73.81,51.49,49.75,51.42,42.54V41.05c0-.37,0-.56,0-.56h0V33.58A19.21,19.21,0,0,0,32.27,14.42h-.53A19.21,19.21,0,0,0,12.59,33.58v9.69c-.14,8-1.5,30.74-12.51,36.83,0,0-3,16.78,28.06,18.54h.21c.68,0,1.38.07,2.09.09v0c.91,0,2,0,3.14,0v0C67.07,97.69,63.94,80.1,63.94,80.1Z"/><ellipse class="cls-4" cx="52.16" cy="58.31" rx="0.58" ry="1.59"/><path class="cls-2" d="M52.48,57.44l2.71.13s1.07.72.13,2.09l-2.91,0S51.54,58.35,52.48,57.44Z"/><path class="cls-2" d="M52.2,56.72H50.47s-1.45,1.21,0,3.18h1.61A3.27,3.27,0,0,1,52.2,56.72Z"/><path class="cls-5" d="M11.5,61.55s20.42,8.52,41.18,0"/><path class="cls-5" d="M13.67,27.5s15.73-6.35,36.75.87"/><ellipse class="cls-4" cx="48.58" cy="59.61" rx="0.58" ry="1.59"/><path class="cls-6" d="M48.9,58.74l2.7.13s1.08.72.13,2.09l-2.91,0S48,59.65,48.9,58.74Z"/><path class="cls-6" d="M48.61,58H46.89s-1.45,1.21,0,3.18h1.6A3.3,3.3,0,0,1,48.61,58Z"/><ellipse class="cls-4" cx="44.46" cy="60.41" rx="0.62" ry="1.71"/><path class="cls-2" d="M44.8,59.47l2.91.15s1.16.77.15,2.24l-3.13,0S43.79,60.45,44.8,59.47Z"/><path class="cls-2" d="M44.5,58.7H42.64s-1.56,1.3,0,3.42h1.73A3.51,3.51,0,0,1,44.5,58.7Z"/><ellipse class="cls-4" cx="52.16" cy="33.29" rx="0.58" ry="1.59"/><path class="cls-2" d="M52.48,34.16,55.19,34s1.07-.72.13-2.09l-2.91,0S51.54,33.25,52.48,34.16Z"/><path class="cls-2" d="M52.2,34.88H50.47s-1.45-1.21,0-3.18h1.61A3.27,3.27,0,0,0,52.2,34.88Z"/><ellipse class="cls-4" cx="48.58" cy="31.99" rx="0.58" ry="1.59"/><path class="cls-6" d="M48.9,32.86l2.7-.14s1.08-.72.13-2.08l-2.91,0S48,32,48.9,32.86Z"/><path class="cls-6" d="M48.61,33.58H46.89s-1.45-1.21,0-3.18h1.6A3.3,3.3,0,0,0,48.61,33.58Z"/><ellipse class="cls-4" cx="44.46" cy="31.19" rx="0.62" ry="1.71"/><path class="cls-2" d="M44.8,32.13,47.71,32s1.16-.77.15-2.24l-3.13,0S43.79,31.15,44.8,32.13Z"/><path class="cls-2" d="M44.5,32.9H42.64s-1.56-1.3,0-3.42h1.73A3.51,3.51,0,0,0,44.5,32.9Z"/><ellipse class="cls-4" cx="12.52" cy="32.64" rx="0.58" ry="1.59"/><path class="cls-2" d="M12.2,33.51l-2.7-.13s-1.08-.72-.14-2.09l2.91,0S13.15,32.6,12.2,33.51Z"/><path class="cls-2" d="M12.48,34.23h1.73s1.45-1.21,0-3.18h-1.6A3.28,3.28,0,0,1,12.48,34.23Z"/><ellipse class="cls-4" cx="16.1" cy="31.34" rx="0.58" ry="1.59"/><path class="cls-6" d="M15.79,32.21l-2.71-.14S12,31.35,13,30l2.91,0S16.73,31.3,15.79,32.21Z"/><path class="cls-6" d="M16.07,32.93h1.72s1.46-1.21,0-3.18h-1.6A3.26,3.26,0,0,1,16.07,32.93Z"/><ellipse class="cls-4" cx="20.22" cy="30.54" rx="0.62" ry="1.71"/><path class="cls-2" d="M19.88,31.47,17,31.33s-1.16-.77-.14-2.24l3.13,0S20.9,30.5,19.88,31.47Z"/><path class="cls-2" d="M20.18,32.25H22s1.56-1.3,0-3.42H20.31A3.51,3.51,0,0,1,20.18,32.25Z"/><ellipse class="cls-4" cx="12.52" cy="58.31" rx="0.58" ry="1.59"/><path class="cls-2" d="M12.2,57.44l-2.7.13s-1.08.72-.14,2.09l2.91,0S13.15,58.35,12.2,57.44Z"/><path class="cls-2" d="M12.48,56.72h1.73s1.45,1.21,0,3.18h-1.6A3.28,3.28,0,0,0,12.48,56.72Z"/><ellipse class="cls-4" cx="16.1" cy="59.61" rx="0.58" ry="1.59"/><path class="cls-6" d="M15.79,58.74l-2.71.13S12,59.59,13,61l2.91,0S16.73,59.65,15.79,58.74Z"/><path class="cls-6" d="M16.07,58h1.72s1.46,1.21,0,3.18h-1.6A3.27,3.27,0,0,0,16.07,58Z"/><ellipse class="cls-4" cx="20.22" cy="60.41" rx="0.62" ry="1.71"/><path class="cls-2" d="M19.88,59.47,17,59.62s-1.16.77-.14,2.24l3.13,0S20.9,60.45,19.88,59.47Z"/><path class="cls-2" d="M20.18,58.7H22s1.56,1.3,0,3.42H20.31A3.51,3.51,0,0,0,20.18,58.7Z"/><ellipse class="cls-4" cx="51.19" cy="45.63" rx="0.58" ry="1.59"/><path class="cls-6" d="M51.5,44.77l2.71.13s1.08.72.13,2.08l-2.91,0S50.56,45.67,51.5,44.77Z"/><path class="cls-6" d="M51.22,44H49.5s-1.46,1.21,0,3.18h1.6A3.26,3.26,0,0,1,51.22,44Z"/><ellipse class="cls-4" cx="47.94" cy="45.56" rx="0.62" ry="1.71"/><path class="cls-2" d="M48.28,44.63l2.91.14s1.16.78.14,2.24l-3.13,0S47.26,45.61,48.28,44.63Z"/><path class="cls-2" d="M48,43.85H46.12s-1.57,1.31,0,3.42h1.72A3.53,3.53,0,0,1,48,43.85Z"/><ellipse class="cls-4" cx="44.28" cy="45.63" rx="0.58" ry="1.59"/><path class="cls-6" d="M44.59,44.77l2.71.13s1.08.72.13,2.08l-2.91,0S43.65,45.67,44.59,44.77Z"/><path class="cls-6" d="M44.31,44H42.59s-1.45,1.21,0,3.18h1.6A3.29,3.29,0,0,1,44.31,44Z"/><ellipse class="cls-4" cx="13.18" cy="45.63" rx="0.58" ry="1.59"/><path class="cls-6" d="M12.87,44.77l-2.71.13S9.09,45.62,10,47l2.91,0S13.81,45.67,12.87,44.77Z"/><path class="cls-6" d="M13.15,44h1.72s1.46,1.21,0,3.18h-1.6A3.26,3.26,0,0,0,13.15,44Z"/><ellipse class="cls-4" cx="16.43" cy="45.56" rx="0.62" ry="1.71"/><path class="cls-2" d="M16.09,44.63l-2.91.14S12,45.55,13,47l3.13,0S17.11,45.61,16.09,44.63Z"/><path class="cls-2" d="M16.4,43.85h1.85s1.57,1.31,0,3.42H16.53A3.53,3.53,0,0,0,16.4,43.85Z"/><ellipse class="cls-4" cx="20.09" cy="45.63" rx="0.58" ry="1.59"/><path class="cls-6" d="M19.78,44.77l-2.71.13S16,45.62,16.94,47l2.91,0S20.72,45.67,19.78,44.77Z"/><path class="cls-6" d="M20.06,44h1.72s1.45,1.21,0,3.18h-1.6A3.26,3.26,0,0,0,20.06,44Z"/><path class="cls-7" d="M3.87,78.22A28.48,28.48,0,0,0,14.61,87.4c4.79,2.44,12.11,3.9,18.58,3.91,5.23,0,12.88-1.43,18.56-4.89,3.29-2,5.35-4.49,7.82-8.2"/></g></g></svg>