<svg xmlns="http://www.w3.org/2000/svg" viewBox="0 0 33.58 151.87"><defs><style>.cls-1{fill:#767676;}.cls-2{fill:#4e9cb4;}.cls-3{fill:#3c3140;}.cls-4{fill:#f2f7d9;}.cls-11,.cls-12,.cls-5,.cls-6,.cls-7,.cls-8,.cls-9{fill:none;}.cls-11,.cls-12,.cls-5{stroke:#4e9cb4;}.cls-5,.cls-6,.cls-7,.cls-8,.cls-9{stroke-miterlimit:10;}.cls-5{stroke-width:0.68px;}.cls-6,.cls-7,.cls-8,.cls-9{stroke:#3c3140;}.cls-6{stroke-width:2.94px;}.cls-7{stroke-width:6.17px;}.cls-8{stroke-width:2.96px;}.cls-9{stroke-width:4.24px;}.cls-10{fill:#575045;}.cls-11,.cls-12{stroke-linecap:round;stroke-linejoin:round;stroke-width:0.46px;}.cls-12{stroke-dasharray:1.14 1.14;}</style></defs><title>资源 8</title><g id="图层_2" data-name="图层 2"><g id="图层_1-2" data-name="图层 1"><ellipse class="cls-1" cx="16.79" cy="149.99" rx="16.79" ry="1.88"/><rect class="cls-2" x="16.07" y="3.69" width="1.95" height="1.03" rx="0.25"/><rect class="cls-3" x="15.9" y="4.24" width="2.31" height="121.3" rx="0.7"/><ellipse class="cls-3" cx="16.8" cy="17.23" rx="12.99" ry="11.78" transform="translate(-2.65 3.06) rotate(-9.66)"/><ellipse class="cls-4" cx="20.94" cy="16.44" rx="8.69" ry="10.19" transform="translate(-2.67 4.14) rotate(-10.62)"/><ellipse class="cls-5" cx="21.22" cy="16.39" rx="6.62" ry="7.76" transform="translate(-2.66 4.19) rotate(-10.62)"/><path class="cls-3" d="M17.08,0a1.14,1.14,0,0,0-1.14,1.14V3.78h2.28V1.14A1.15,1.15,0,0,0,17.08,0Z"/><line class="cls-6" x1="3.17" y1="105.78" x2="30.26" y2="105.78"/><line class="cls-6" x1="3.17" y1="135.85" x2="30.26" y2="135.85"/><line class="cls-7" x1="3.85" y1="126.99" x2="29.1" y2="126.99"/><line class="cls-8" x1="4.14" y1="104.3" x2="4.14" y2="130.84"/><line class="cls-8" x1="28.91" y1="104.3" x2="28.91" y2="130.84"/><line class="cls-9" x1="4.81" y1="129.47" x2="4.33" y2="141.11"/><line class="cls-9" x1="28.19" y1="129.47" x2="28.67" y2="141.11"/><polyline class="cls-10" points="27.16 104.38 27.74 100.77 29.55 100.77 30.39 104.31"/><polyline class="cls-10" points="30.1 97.22 29.52 100.79 27.74 100.79 26.91 97.24"/><polyline class="cls-10" points="2.68 104.38 3.26 100.77 5.07 100.77 5.91 104.31"/><polyline class="cls-10" points="5.61 97.22 5.04 100.79 3.26 100.79 2.43 97.24"/><path class="cls-11" d="M7.33,9.58s-.12.17-.31.48"/><path class="cls-12" d="M6.46,11.05c-1.73,3.31-4.63,11.5,5.15,16.86"/><path class="cls-11" d="M12.12,28.19l.51.25"/><rect class="cls-10" x="14.75" y="29.36" width="4.56" height="0.54" rx="0.27"/><path class="cls-2" d="M15.9,29a15.64,15.64,0,0,0,2.28-.12l0,.46H15.89Z"/></g></g></svg>