<svg xmlns="http://www.w3.org/2000/svg" viewBox="0 0 78.48 137.82"><defs><style>.cls-1{fill:#767676;}.cls-2{fill:#3c3140;}.cls-3{fill:#f2f7d9;}.cls-4{fill:#f4b11d;}</style></defs><title>资源 6</title><g id="图层_2" data-name="图层 2"><g id="图层_1-2" data-name="图层 1"><ellipse class="cls-1" cx="32.57" cy="135.27" rx="32.57" ry="2.56"/><path class="cls-2" d="M69.33,13.2a20,20,0,0,0,.91-4.44,2,2,0,0,1,.22-.87,4.92,4.92,0,0,1,2.47-2.52A1.49,1.49,0,0,0,73.48,4c-.1-1,.3-3.81,1.26-3.47a1.14,1.14,0,0,1,.65.74A.79.79,0,0,0,75.63,1c.14-.19,1.1-1.41,1.48-.84s0,.57.38.58,1.58-.47.63,2S76.92,5,76.91,5.58a4.67,4.67,0,0,1-2.5,3.14,1.36,1.36,0,0,0,0,1.57c.58.8,1.35,2.1-.6,5.66"/><path class="cls-3" d="M69.1,13.09,14.89,106.56l5,2.88L74.06,16a3.87,3.87,0,0,0-1.86-2.53A3.51,3.51,0,0,0,69.1,13.09Z"/><ellipse class="cls-2" cx="27.13" cy="88.2" rx="0.89" ry="0.75" transform="matrix(0.5, -0.87, 0.87, 0.5, -62.77, 67.42)"/><ellipse class="cls-2" cx="40.98" cy="64.31" rx="0.89" ry="0.75" transform="matrix(0.5, -0.87, 0.87, 0.5, -35.21, 67.5)"/><ellipse class="cls-2" cx="44.09" cy="58.96" rx="0.89" ry="0.75" transform="translate(-29.03 67.52) rotate(-59.89)"/><ellipse class="cls-2" cx="47.03" cy="53.89" rx="0.89" ry="0.75" transform="translate(-23.18 67.54) rotate(-59.89)"/><ellipse class="cls-2" cx="49.85" cy="49.03" rx="0.89" ry="0.75" transform="translate(-17.57 67.55) rotate(-59.89)"/><ellipse class="cls-2" cx="52.83" cy="43.88" rx="0.89" ry="0.75" transform="translate(-11.63 67.57) rotate(-59.89)"/><ellipse class="cls-2" cx="55.81" cy="38.75" rx="0.89" ry="0.75" transform="translate(-5.71 67.59) rotate(-59.89)"/><ellipse class="cls-2" cx="62.37" cy="27.44" rx="0.89" ry="0.75" transform="translate(7.34 67.63) rotate(-59.89)"/><ellipse class="cls-4" cx="64.5" cy="32.02" rx="0.89" ry="0.75" transform="translate(4.44 71.75) rotate(-59.89)"/><ellipse class="cls-2" cx="64.82" cy="23.21" rx="0.89" ry="0.75" transform="translate(12.22 67.64) rotate(-59.89)"/><path class="cls-2" d="M3.44,112.66s-2.45-.35-.22-3,4.91-6.67,5.25-8.56c0,0,.38-1.25,1,.2,0,0,.1.66.27.31a9.29,9.29,0,0,0,.65-2.3c.06-.72,1.45-.86.86,2.53,0,0,.08.49.57-.37s.84.14.84.14,1.25,6.34-2.27,11.18a6,6,0,0,1-2.45,1.34s-.42.67.35.75c0,0,1.13.49-2.68,2,0,0-1.49.65-.74-1.1,0,0,.3-1-.15-.67,0,0-1.9,1.78-2.9.58a1.17,1.17,0,0,1,.56-1.68C3.57,113.47,3.44,112.66,3.44,112.66Z"/><path class="cls-2" d="M9.47,113.64s3.61,3.4,5.22,2.39a12,12,0,0,0,3.83-4.12,10,10,0,0,0,1.33-2.47l-5-2.88s-.8,2.88-1.71,2.28-.52-.55-.52-.55"/><circle class="cls-4" cx="5.92" cy="112.19" r="0.68"/></g></g></svg>