<svg xmlns="http://www.w3.org/2000/svg" xmlns:xlink="http://www.w3.org/1999/xlink" viewBox="0 0 56.05 278.34"><defs><style>.cls-1,.cls-29{fill:none;}.cls-2{clip-path:url(#clip-path);}.cls-3{fill:#32445a;}.cls-4{fill:#1f334a;}.cls-5{fill:#1a2f46;}.cls-6{fill:#2c3f55;}.cls-7{fill:#22364d;}.cls-8{fill:#fdfdfd;}.cls-9{fill:#314459;}.cls-10{font-size:11.35px;font-family:MinionPro-Semibold, Minion Pro;font-weight:600;}.cls-11{letter-spacing:-0.01em;}.cls-12{letter-spacing:-0.01em;}.cls-13{letter-spacing:0em;}.cls-14{letter-spacing:0em;}.cls-15{letter-spacing:-0.03em;}.cls-16{letter-spacing:0em;}.cls-17{letter-spacing:0em;}.cls-18{letter-spacing:-0.01em;}.cls-19{letter-spacing:0em;}.cls-20{letter-spacing:-0.01em;}.cls-21{letter-spacing:0em;}.cls-22{letter-spacing:0em;}.cls-23{letter-spacing:0.02em;}.cls-24{letter-spacing:-0.01em;}.cls-25{letter-spacing:-0.01em;}.cls-26{letter-spacing:-0.01em;}.cls-27{letter-spacing:0em;}.cls-28{letter-spacing:-0.01em;}.cls-29{stroke:#f8d069;stroke-miterlimit:10;stroke-width:2.51px;}</style><clipPath id="clip-path"><circle class="cls-1" cx="26.24" cy="93.88" r="23.02"/></clipPath></defs><title>admit-icon</title><g id="图层_2" data-name="图层 2"><g id="图层_1-2" data-name="图层 1"><g class="cls-2"><path class="cls-3" d="M33.66,88.16a14.85,14.85,0,0,0-.73,1.36c-.1.22-.51.51.07.77.24.11-.07.39-.22.53-.7.66-1.43,1.3-2.15,2s-.78,1.07.21,1.52c.74.33.52.6.14,1s-.36.69.11,1a4.33,4.33,0,0,1,.74.68c.14.15.29.32.15.54s-.35.17-.54.08c-.52-.25-.74-.15-.69.48a1.42,1.42,0,0,1-.26.76c-.36.6-.15,1,.39,1.33A36.77,36.77,0,0,0,34.25,102a2,2,0,0,1,1.22,1.58c0,.36.17.38.47.24a9.76,9.76,0,0,1,2.67-.94,1.07,1.07,0,0,1,.59,0,.32.32,0,0,1,.23.3.28.28,0,0,1-.26.27c-3,.54-5.45,2.27-8,3.84a71,71,0,0,0-6.08,4.44,4.56,4.56,0,0,1-1.76,1c.25-.45.63-.57.89-.82s.3-.3.07-.58a11,11,0,0,1-2.3-6.77c0-.9.74-1.5.95-2.31,0-.14.18-.12.28,0s.1.19,0,.29a10.17,10.17,0,0,1-.82,1.77.68.68,0,0,0-.16.56,14.85,14.85,0,0,0,2.11,5.69c.52.78.57.76,1.25.19a54,54,0,0,1,8.89-6.2c.41-.23.4-.55.38-.91a.78.78,0,0,0-.49-.79,19.38,19.38,0,0,1-3.84-2.11c-.46-.34-1-.69-.88-1.4,0-.28-.17-.28-.36-.25-1.56.19-3.12.42-4.68.57-.61.06-.47.55-.6.85s-.13.92-.46.8,0-.59.13-.87a3.05,3.05,0,0,0-1.06-3.31c-.22-.17-.22-.17-.81.17.91,1.45.79,2.81-.37,3.66A4.3,4.3,0,0,1,22,99.24a1.7,1.7,0,0,0-.55-1.79,1.28,1.28,0,0,0-1.52.32c-.29.28-.43.13-.49-.18A9.2,9.2,0,0,0,19,96.05a.62.62,0,0,0-.89-.33c-.37.13,0,.46,0,.71,0,.1.12.23.18.34a2.12,2.12,0,0,1,.06,2,9.52,9.52,0,0,0-.39,5.13c0,.21-.09.57.39.6.2,0,.08.35.05.54a59.43,59.43,0,0,0-.54,10.58,17.66,17.66,0,0,0,.71,4.26c-.55-.18-.69-.69-.87-1.15a8.59,8.59,0,0,1-.48-2.51,4,4,0,0,0-.51-1.65,36.84,36.84,0,0,1-2.45-6.83c-.07-.22-.06-.4.19-.49.82,2.12,1.53,4.29,2.47,6.4.26-.14.21-.31.22-.45a38.92,38.92,0,0,1,.81-8c0-.13.09-.25-.09-.34-.42-.21-.47-.62-.55-1a2.1,2.1,0,0,0-.7-1.53c-.2-.15-.23-.43-.3-.67A2.74,2.74,0,0,0,15.06,100c-.33-.22-.42-.17-.49.24A2.84,2.84,0,0,0,15.79,103c.13.12.41.28.26.39-.32.23-.15.67-.43.84s-.29-.12-.25-.26c.13-.5-.21-.78-.46-1.12a3.07,3.07,0,0,1-.67-1.38c0-.21-.09-.42-.37-.36s-.69-.06-.77.38a7.1,7.1,0,0,0,0,3.8,1.8,1.8,0,0,0,1,1.26c.17.06.16.24.21.37a2.62,2.62,0,0,1-.38.09c-.29,0-.44-.22-.58-.41a4.9,4.9,0,0,1-.71-4.37c0-.06,0-.12.05-.19.19-.74.16-.76-.59-.66-3.48.47-7,1-10.45,1.3-.76.06-1-.13-1.28-.83A13.72,13.72,0,0,1,0,99.89c-.06-.34.16-.31.36-.32,3.57-.18,7.13-.63,10.68-1.06.46-.06.69-.14.55-.69a2,2,0,0,1,.21-1.44c.09-.16.24-.34.43-.22s0,.26-.07.39-.1.25-.13.38c-.2,1.21.17,1.53,1.43,1.18-.18-.54-.85-.79-.87-1.55l1.2,1.09c.19-.29,0-.45-.1-.6a2.91,2.91,0,0,1-.33-1.63c0-.42.15-.83.58-.89s.54.3.69.6l1,2a1.11,1.11,0,0,0,.32.37A8.36,8.36,0,0,0,15.5,94c.53.28.62.8.77,1.28a7.93,7.93,0,0,1,.24,2c0,.41.18.48.55.44,1-.12.92-.09.7-1a12.38,12.38,0,0,0-.7-1.72,2,2,0,0,0-1.3-1.19c-.17,0-.41,0-.34-.27s.31-.23.51-.17a2.49,2.49,0,0,1,1.66,1.37c.19.43.4.66.89.56a.61.61,0,0,1,.8.51c0,.15.15.28.2.42.23.65.37,1,1.32.71.7-.21,1.69-.65,2.52,0,.11.09.35,0,.53,0,2-.16,3.95-.31,5.92-.49.23,0,.37.13.75.25-.61-.55-.91-1-.26-1.53.2-.16,0-.31-.1-.44-1.44-1.43-1.46-1.17.14-2.6l.06,0c1.1-.84,2.23-1.64,2.42-3.19a1.74,1.74,0,0,1,.6-1C33.39,88.05,33.47,88.16,33.66,88.16ZM14.14,99.4a1.64,1.64,0,0,1,1.35.43,1.24,1.24,0,0,0,2-.66c0-.13.08-.26.13-.39.25-.64.23-.66-.47-.57L11.71,99c-3.24.41-6.48.74-9.74,1-1.58.1-1.69.34-1.07,1.86a.49.49,0,0,0,.61.35c4-.43,8.06-1.07,12.09-1.62C14.29,100.39,14.43,100.07,14.14,99.4ZM24.78,99c1.59-.19,3.17-.4,4.75-.58.47,0,.8-.15.73-.71s-.29-.79-.83-.75l-5.25.42c-.31,0-.41.13-.23.42a2.06,2.06,0,0,1,.45,1C24.41,99,24.6,99,24.78,99ZM14.06,95a.54.54,0,0,0-.27.5c-.1,1,.59,1.67,1,2.46.09.18.39.11.56,0s.06-.27,0-.4a18.41,18.41,0,0,1-1-2.28C14.26,95.12,14.24,95,14.06,95Zm2.9,7.17a2.82,2.82,0,0,0,.17-1.33c0-.23-.23-.15-.37-.12s-.36,0-.25.27S16.63,101.76,17,102.12Z"/><path class="cls-4" d="M43,100.67l-.1.34a.8.8,0,0,0-.27.93l0,.32c0,.06,0,.14,0,.17s.14.08.21,0a.53.53,0,0,1,.41,0c.12.23.31.17.5.13a5.19,5.19,0,0,1,3,2.32c0,.17,0,.28.22.3a1,1,0,0,1,.32.51c0,.25.06.48.35.57A1.9,1.9,0,0,1,48,107c0,.17,0,.3.18.35a2.62,2.62,0,0,1,.36,1c0,.32,0,.66.28.9l.06.27c-.17.19-.15.32.1.4l.05.4c-.16.11-.12.2,0,.28a.54.54,0,0,1,.06.41.36.36,0,0,0,0,.53,5.08,5.08,0,0,1,0,1.35c-.17.14-.14.31-.09.49a.7.7,0,0,1-.37.7c-.06-1.19-.11-2.28-.16-3.38.08-.25.22-.5-.13-.65l-.09-.59a1.89,1.89,0,0,0-.43-1.31,15.32,15.32,0,0,0-1.84-3.34c0-.19-.06-.3-.26-.3a11.52,11.52,0,0,0-1.61-1.27c0-.21-.19-.23-.37-.18a6.91,6.91,0,0,0-3.29-.08v-.26a4,4,0,0,1,1.4-.37c.35-.14.21-.41.17-.66a6,6,0,0,1,2-3.65,6.84,6.84,0,0,0,.82-.88,2.64,2.64,0,0,0,.62-1c.07-.41-.49-.4-.72-.64a18.22,18.22,0,0,1-3.41-4A9.8,9.8,0,0,1,40,85.51c.1-.66-.16-.7-.68-.62a8.24,8.24,0,0,0-3.73,1.46c-.21.16-.44.31-.66.47-.26,0-.29-.19-.28-.4a3.83,3.83,0,0,1,1.32-1c.16,0,.28,0,.31-.2l.48-.22a1.83,1.83,0,0,0,1.14-.43.77.77,0,0,1,.49-.1.4.4,0,0,0,.45-.11l.47,0a8.88,8.88,0,0,0,1.63,0l.74,0a.27.27,0,0,0,.34.1.68.68,0,0,1,.46.14,3.63,3.63,0,0,0,1.42.55l.21.07a1,1,0,0,0,.84.48,6.12,6.12,0,0,1,2.8,4.77,20.29,20.29,0,0,1-.06,3.57.84.84,0,0,0,.09.58,4,4,0,0,1,.47,2.66c0,.13-.12.28,0,.38,1,.71.65,1.77.61,2.72,0,.32-.1.58.14.86a1,1,0,0,1,.2.63,2.63,2.63,0,0,0,.39,1,3.31,3.31,0,0,1,.1,2.74c0,.16-.29.33-.08.46s.2-.18.31-.28.37-.12.51.07a1.06,1.06,0,0,1,.17.65c0,.54-.1,1.07.57,1.34.19.07.2.34.06.53a.41.41,0,0,1-.65.07c-.68-.75-1.6-1.27-2.06-2.23a1.34,1.34,0,0,1,0-1.3c.26-.41,0-.62-.14-.94a4.82,4.82,0,0,1-.85-3.21c.07-.32-.09-.43-.3-.59a2.4,2.4,0,0,1-1.21-2A.82.82,0,0,0,46,98c0-.3.49-.64.11-.82s-.43.46-.75.6c-.16,0-.22.12-.22.28a1.38,1.38,0,0,1-.47.52c-.35.08,0,.65-.48.66l-.52.31c-.21,0-.3.1-.27.3l-.13.22A.59.59,0,0,0,43,100.67Z"/><path class="cls-3" d="M40.26,96.52a1.89,1.89,0,0,1-.85,1.53,7.69,7.69,0,0,1-3.07,1.31c-.2,0-.43.06-.48-.21s.17-.35.37-.41c.57-.19,1.16-.35,1.72-.55a3.46,3.46,0,0,0,1.4-.92,1.2,1.2,0,0,0,.19-1.49c-.27-.52-.74-.5-1.23-.35-.19.06-.49.22-.57-.08s.26-.26.43-.32A1.47,1.47,0,0,1,40.26,96.52Z"/><path class="cls-3" d="M33.93,93.82a1.68,1.68,0,0,1-1.46-1.11c0-.12-.06-.23.07-.29s.21,0,.28.11c.41.59.88,1,1.62.51a.24.24,0,0,1,.3.08c.11.14,0,.26,0,.37A.9.9,0,0,1,33.93,93.82Z"/><path class="cls-3" d="M20.33,100.39c0-.8.53-1.51.3-2.38C21.19,98.35,21,99.7,20.33,100.39Z"/><path class="cls-3" d="M34.6,86.42c0,.21,0,.39.28.4a.76.76,0,0,1-.42.39c-.21-.57-.4.13-.6,0A2,2,0,0,1,34.6,86.42Z"/><path class="cls-3" d="M40.89,84.36a8.88,8.88,0,0,1-1.63,0A2.29,2.29,0,0,1,40.89,84.36Z"/><path class="cls-3" d="M43.85,85.18a3.63,3.63,0,0,1-1.42-.55A2.92,2.92,0,0,1,43.85,85.18Z"/><path class="cls-4" d="M33.86,87.22c.2.12.39-.58.6,0l-.39.42a.28.28,0,0,1-.29-.3Z"/><path class="cls-3" d="M47.89,108.18a1.89,1.89,0,0,1,.43,1.31A5.44,5.44,0,0,1,47.89,108.18Z"/><path class="cls-3" d="M44.18,99.23c.44,0,.13-.58.48-.66C44.67,99.38,44.67,99.38,44.18,99.23Z"/><path class="cls-3" d="M37.85,84.6a1.83,1.83,0,0,1-1.14.43A2.24,2.24,0,0,1,37.85,84.6Z"/><path class="cls-3" d="M33.78,87.33a.28.28,0,0,0,.29.3.87.87,0,0,1-.37.47l-.31-.25A.85.85,0,0,1,33.78,87.33Z"/><path class="cls-3" d="M42.62,101.94a.8.8,0,0,1,.27-.93A2.76,2.76,0,0,1,42.62,101.94Z"/><path class="cls-3" d="M44.9,85.73a1,1,0,0,1-.84-.48A1.66,1.66,0,0,1,44.9,85.73Z"/><path class="cls-3" d="M48.81,109.28c-.29-.24-.25-.58-.28-.9A1.5,1.5,0,0,1,48.81,109.28Z"/><path class="cls-3" d="M43,100.67a.59.59,0,0,1,.27-.61A.93.93,0,0,1,43,100.67Z"/><path class="cls-3" d="M42.09,101.72c0,.25.18.52-.17.66C42,102.16,41.9,101.91,42.09,101.72Z"/><path class="cls-3" d="M47.64,106.3c-.29-.09-.34-.32-.35-.57A1,1,0,0,1,47.64,106.3Z"/><path class="cls-3" d="M48.41,110.08c.35.15.21.4.13.65A1.23,1.23,0,0,1,48.41,110.08Z"/><path class="cls-3" d="M49.16,111.57a.36.36,0,0,1,0-.53A.59.59,0,0,1,49.16,111.57Z"/><path class="cls-3" d="M43.72,102.6c-.19,0-.38.1-.5-.13A.49.49,0,0,1,43.72,102.6Z"/><path class="cls-3" d="M40.52,102.75V103c-.09.1-.23.12-.27,0S40.35,102.76,40.52,102.75Z"/><path class="cls-3" d="M49,110c-.25-.08-.27-.21-.1-.4A.48.48,0,0,1,49,110Z"/><path class="cls-3" d="M38.79,84.39a.4.4,0,0,1-.45.11A.39.39,0,0,1,38.79,84.39Z"/><path class="cls-3" d="M49.07,113.41c0-.18-.08-.35.09-.49A.46.46,0,0,1,49.07,113.41Z"/><path class="cls-3" d="M45.79,104.54c.2,0,.28.11.26.3A.38.38,0,0,1,45.79,104.54Z"/><path class="cls-4" d="M33.39,87.85l.31.25v0l0,0c-.19,0-.27-.11-.28-.29Z"/><path class="cls-3" d="M36.23,85.25c0,.18-.15.22-.31.2A.37.37,0,0,1,36.23,85.25Z"/><path class="cls-3" d="M42.81,102.43c-.07.08-.16.08-.21,0s0-.11,0-.17Z"/><path class="cls-3" d="M48.17,107.38c-.2,0-.22-.18-.18-.35A.38.38,0,0,1,48.17,107.38Z"/><path class="cls-3" d="M43.39,99.84c0-.2.06-.31.27-.3Z"/><path class="cls-3" d="M45.13,98.05c0-.16.06-.26.22-.28A.34.34,0,0,1,45.13,98.05Z"/><path class="cls-3" d="M43.81,103.09c.18,0,.32,0,.37.18A.42.42,0,0,1,43.81,103.09Z"/><path class="cls-3" d="M49.05,110.63c-.15-.08-.19-.17,0-.28Z"/><path class="cls-3" d="M42,84.49a.27.27,0,0,1-.34-.1A.27.27,0,0,1,42,84.49Z"/><path class="cls-3" d="M47,105.22c-.18,0-.24-.13-.22-.3A.35.35,0,0,1,47,105.22Z"/><path class="cls-4" d="M26.18,81c0-.07-.09-.08-.16-.08a.92.92,0,0,0-.4.08L24,81.59a16.71,16.71,0,0,0-2.1.84c-.1.06-.09,0-.09-.07s0-.15-.11-.15-.13.07-.15.15a1.33,1.33,0,0,0-.07.45c0,1.15-.08,2.3-.13,3.44h0v1.49c0,.5,0,1,0,1.49a3.51,3.51,0,0,1-.06.79.19.19,0,0,1-.09.15c-.25.13-.5.28-.77.39a1.34,1.34,0,0,1-1.7-1.26A1.49,1.49,0,0,1,19.91,88a1.45,1.45,0,0,1,1,.16.19.19,0,1,0,.27-.26.81.81,0,0,0-.47-.36,3,3,0,0,0-.79-.08,2,2,0,0,0-1.85,2,1.91,1.91,0,0,0,.82,1.42,1.71,1.71,0,0,0,2.42-.32s.08-.06.11-.09.28-.25.29-.44c0-.42.08-.83.08-1.24,0-1.19,0-2.39,0-3.58a.15.15,0,0,1,.09-.15c.95-.43,1.9-.88,2.86-1.29a6.7,6.7,0,0,1,1.06-.38c.19,0,.24-.09.24-.29,0-.57,0-1.14-.06-1.72,0-.1,0-.19.09-.25A.13.13,0,0,0,26.18,81Zm-.47,2c0,.06,0,.11-.08.13a10.88,10.88,0,0,0-2,.73L22,84.57c-.14.06-.14.07-.14-.1s0-.51,0-.77h0c0-.26,0-.53,0-.79,0-.07,0-.12.09-.13a7.37,7.37,0,0,0,1.66-.49,15.56,15.56,0,0,0,2.1-.89c.09-.05.11,0,.1.06C25.75,82,25.73,82.45,25.71,83Z"/></g><path class="cls-5" d="M21.08,23.37a.18.18,0,0,1,.15-.07c.09,0,.16,0,.18-.09a.41.41,0,0,1,.23-.11c.08,0,.14,0,.17-.07A.17.17,0,0,1,22,23c.08,0,.16,0,.18-.09a.33.33,0,0,1,.23-.09c.19,0,.37,0,.49-.21a.17.17,0,0,1,.16-.06,2.08,2.08,0,0,0,1-.39,1,1,0,0,0,.55-.52,1.1,1.1,0,0,0,.3-.77,2.82,2.82,0,0,0-.06-1c0-.1-.17-.35.16-.21a.44.44,0,0,1,.22.34c-.07.06,0,.1,0,.13a.14.14,0,0,1,0,.14,2.36,2.36,0,0,0,0,.75l0,0,0,0c.08.32.33.11.49.15s.06,0,.09,0,.19.16.33.08l.13,0a.64.64,0,0,0,.42.2.31.31,0,0,1,.24.12c0,.07.07.08.14.08a.53.53,0,0,1,.26.15c0,.15.15.17.27.18l.06,0c0,.08.07.1.14.1a.44.44,0,0,1,.25.17.11.11,0,0,0,.13.1l.13.08a.18.18,0,0,0,.23.17,1,1,0,0,1,.37.31c.06.15.14.26.27.05a.93.93,0,0,1,.23-.41c.08,0,.09-.08.09-.15s0,0,0-.05.11-.08.09-.16a.3.3,0,0,1,.12-.17.12.12,0,0,0,.09-.13.19.19,0,0,1,.09-.14c.08,0,.11-.05.11-.13a.93.93,0,0,1,.29-.39c.08,0,.11-.06.1-.14a.34.34,0,0,1,.16-.19.18.18,0,0,0,.17-.2,2.94,2.94,0,0,1,.72-.73c.07,0,.16,0,.12-.11l-.11-.28a.13.13,0,0,0-.11-.14s0,0,0,0a.18.18,0,0,0-.17-.22.16.16,0,0,1-.09-.12.18.18,0,0,0-.17-.21.37.37,0,0,1-.15-.2.11.11,0,0,0-.1-.13,1.14,1.14,0,0,1-.31-.44c0-.13,0-.24-.17-.28a.21.21,0,0,1-.09-.18.51.51,0,0,0-.22-.42,8.64,8.64,0,0,1-.9-3.23c-.18.1-.22.24-.3.35a4.7,4.7,0,0,1-1,1.06,1,1,0,0,1-.38.18.19.19,0,0,1-.21-.06c-.07-.09,0-.15.06-.2s.22-.21.33-.32a5.78,5.78,0,0,0,1-1.18,2.27,2.27,0,0,0,.37-1.54.75.75,0,0,0-.59-.74c-.07,0-.13-.07-.2-.1s-.33-.09-.46.08a2.63,2.63,0,0,0-.66.63l-.08.1-.06-.07v-.18a1.33,1.33,0,0,1,.48-.57.12.12,0,0,0,.13-.11c.1-.09.08-.17,0-.26a.12.12,0,0,0-.13-.1L27.08,11a.1.1,0,0,0-.13-.1,4.73,4.73,0,0,1-.86-.75.18.18,0,0,0-.18-.18A5.33,5.33,0,0,1,25,8.81c0-.07,0-.12-.1-.13a.52.52,0,0,1-.17-.26.11.11,0,0,0-.09-.14.27.27,0,0,1-.1-.19.32.32,0,0,0-.14-.27,1.61,1.61,0,0,1-.27-.63A.42.42,0,0,0,24,6.83l0-.13c.06-.06,0-.1,0-.13a3.2,3.2,0,0,1-.14-.75c0-.14.12-.32-.09-.43l-.32.07a.32.32,0,0,0-.3.12,12,12,0,0,0-1.46.78,7.15,7.15,0,0,0-1.82,2.12.28.28,0,0,0-.14.3.53.53,0,0,1-.12.29.28.28,0,0,0-.11.33l0,.14c-.08,0-.08.1-.06.17V9.8c-.07,0-.07.11-.06.18v.08c-.07,0-.09.08,0,.13l0,.2c-.14.12-.11.26,0,.4v.86c-.07.13-.12.25.06.33a.13.13,0,0,1,0,.19c-.13.16,0,.28.06.4l0,0a0,0,0,0,1,0,0c0,.08,0,.14.06.18l0,.14-.12.13a.41.41,0,0,1-.13-.29,1.05,1.05,0,0,0-.22-.64.82.82,0,0,1-.05-.41c0-.15.08-.32-.07-.45a2.43,2.43,0,0,1,0-.85c.13-.13.07-.29.05-.44a.19.19,0,0,1,0-.15c.06,0,.08-.08,0-.13l0-.13a1,1,0,0,0,.2-.65.59.59,0,0,1,.13-.34.3.3,0,0,0,.14-.31l0-.09c.13-.05.15-.16.16-.27a0,0,0,0,1,0-.06c.09,0,.11-.08.09-.16l.16-.23A.12.12,0,0,0,20,7.35l.1-.12c.08,0,.11-.06.1-.14a2.27,2.27,0,0,1,.66-.65.6.6,0,0,0,.4-.31A.35.35,0,0,1,21.54,6c.23,0,.34-.15.47-.3l0,0a7.29,7.29,0,0,0,1.2-.56A.76.76,0,0,1,23.68,5c.09,0,.19,0,.24-.08h.14a.81.81,0,0,0,.71-.13H25s0,.07.06.07c.55,0,1.09.19,1.64.14l.15,0a.17.17,0,0,0,.18,0,.29.29,0,0,1,.22,0c.08.15.22.14.36.15a1.14,1.14,0,0,1,.49.25.19.19,0,0,0,.22.15.65.65,0,0,1,.31.23.12.12,0,0,0,.13.11h0a.39.39,0,0,0,.34.33h0a.2.2,0,0,0,.19.21.27.27,0,0,1,.14.19.63.63,0,0,0,.32.47s0,0,0,0a.51.51,0,0,0,.22.42.38.38,0,0,1,.11.29,5.16,5.16,0,0,0,.34,1.16l0,.13c-.06.06,0,.1,0,.13v.15a1.68,1.68,0,0,0,.22.77l0,.33c-.05.16-.05.29.15.32A.11.11,0,0,1,31,11a.2.2,0,0,0,.18.2l0,.08c0,.14,0,.26.16.31a.33.33,0,0,1,.1.23,2.42,2.42,0,0,0,.25.83.25.25,0,0,1,0,.19s-.09,0-.09.07.06.06.1.07h0a5.17,5.17,0,0,1,.71.52l0,.15a1.27,1.27,0,0,0,.22.71l0,.2c-.07,0-.05.1,0,.13a.14.14,0,0,1,0,.06v0a2.5,2.5,0,0,1-.05.29c0,.17,0,.22.18.21a.11.11,0,0,1,.11.08.2.2,0,0,0,.17.2l0,.09c0,.15,0,.3.16.37l.16.29c.11.17.31.26.4.45s.1.38.27.51l0,.14c0,.21-.09.46.12.65l.09.09a.19.19,0,0,0,.18.18h0c0,.08,0,.17.12.18l.15.1c.2.25.5.21.77.28l.09,0a6.1,6.1,0,0,0,1.4.64.22.22,0,0,1,.18.08c0,.17.17.19.31.17a.36.36,0,0,1,.22.11c0,.14.16.16.28.17l.18.09c.08.23.28.26.48.3a.45.45,0,0,1,.24.16.19.19,0,0,0,.23.17.69.69,0,0,1,.15.07,14.13,14.13,0,0,1,5,7.14c0,.09,0,.19.19.22s.08.2.08.32a15.94,15.94,0,0,1-.34,3A25.26,25.26,0,0,1,38.76,43c-.64.77-1.33,1.49-2,2.23a4.34,4.34,0,0,1-.72.56c-.29.22-.65.07-1,.2-.24-.42-.83-.33-1.08-.73a.18.18,0,0,0-.21-.19.22.22,0,0,1-.13-.12.36.36,0,0,0-.3-.35l-.09-.11a.18.18,0,0,0-.17-.22c-.05,0-.09-.06-.09-.12s0-.24-.19-.28a.11.11,0,0,1-.07-.12c0-.12,0-.23-.18-.27a.2.2,0,0,1-.09-.17c0-.08,0-.14-.1-.16a.31.31,0,0,1-.11-.22c0-.14,0-.26-.17-.31s0,0,0,0a.81.81,0,0,0-.28-.67.42.42,0,0,1-.05-.29.27.27,0,0,1,0-.09c0-.11-.27-.09-.09-.22s.07-.3.28-.25l.18,0a1.11,1.11,0,0,0,.7-.36.62.62,0,0,1,.31-.16.26.26,0,0,0,.28-.16l.18-.1c.17,0,.34-.06.41-.25a.14.14,0,0,1,.13-.08c.06,0,.13,0,.12-.1s0-.09-.1-.1,0,0,0,0a.11.11,0,0,0-.1-.15,0,0,0,0,1,0-.06c0-.12,0-.23-.18-.27A14.56,14.56,0,0,0,32,36.85a.19.19,0,0,0-.19-.16s0,0,0,0a.17.17,0,0,1,.15-.11,6.4,6.4,0,0,1,1.73,1.71c.23.31.44.63.66.95a1.6,1.6,0,0,0,.4.46c.13.08.37.2.21.47,0,0,0,.14.09.2a15,15,0,0,1,1.68,3.85c.06.23.14.19.27,0a28.05,28.05,0,0,0,7-12.53c0-.19,0-.19,0-.3h0c.13-.61.27-1.22.39-1.84a1.63,1.63,0,0,0-.19-.94c-.24-.6-.42-1.22-.69-1.81a14.49,14.49,0,0,0-3.94-5.25,17.09,17.09,0,0,0-4-2.25c-.06,0-.14-.07-.18,0s0,.15.09.18.23.07.34.11.3.19.24.4-.21.24-.39.22a.43.43,0,0,1-.16,0c-.46-.36-1.05-.52-1.5-.9a.55.55,0,0,0-.38-.16H32c-.07,0-.17,0-.2.07s0,.11.08.17a1.25,1.25,0,0,0,.32.33.36.36,0,0,1,.13.46.26.26,0,0,1-.39.12c-.16-.07-.23,0-.31.12a9,9,0,0,0-2.19,3.51c0,.13-.1.26-.26.27s-.23-.1-.27-.24a1.08,1.08,0,0,0-.39-.48,12.79,12.79,0,0,0-2.31-1.62,2.23,2.23,0,0,0-.9-.3c-.12,0-.28,0-.21.17s-.34.38-.31.66c-.39,0-.52.42-.76.64L23.93,23c0-.38,0-.37-.32-.22A36.89,36.89,0,0,0,14.7,28.3C12.49,30.1,10.38,32,8.29,34L8,34.2c-.07,0-.15.1-.24,0s0-.17,0-.24a3.42,3.42,0,0,1,.4-.52,63.6,63.6,0,0,1,10.53-8.77c.14-.1.3-.17.45-.26a.48.48,0,0,0,.41-.24,0,0,0,0,1,.05,0c.07,0,.13,0,.15-.08l.09,0c.14,0,.26,0,.3-.18a.19.19,0,0,1,.17-.08.26.26,0,0,0,.29-.17.81.81,0,0,1,.32-.16C21,23.45,21.06,23.44,21.08,23.37ZM32.73,41.2c-.08,0-.15,0-.18.08a3.4,3.4,0,0,1-.34.12c-.14,0-.22.09-.2.24s-.1,0-.07.06.08,0,.12.07l.18.42c0,.14,0,.26.17.3a.2.2,0,0,1,.09.16c0,.09,0,.16.1.18a1.26,1.26,0,0,1,.29.43c0,.09,0,.15.11.16.34.4.65.82,1,1.19a2.53,2.53,0,0,0,1.63.75c.31,0,.66-.34.6-.62a15.89,15.89,0,0,0-1.67-4.2c-.1-.16-.17-.17-.34-.08a5.11,5.11,0,0,1-1.19.6c-.08,0-.15,0-.18.08A.15.15,0,0,1,32.73,41.2ZM29.19,13.09a9.47,9.47,0,0,0,2.19,5.7.23.23,0,0,0,.29.09,3.52,3.52,0,0,1,1-.16c.38,0,.67,0,.76-.53.06-.31.08-.5-.2-.68A4.85,4.85,0,0,1,32,15.72a.78.78,0,0,1,0-.3c0-.25-.05-.38-.33-.45a1.83,1.83,0,0,1-.92-.61,1.08,1.08,0,0,1-.31-1c.09-.37-.11-.57-.34-.78a3,3,0,0,1-.35-.27c-.07-.1-.29-.12-.43-.09s0,.2,0,.31S29.19,12.91,29.19,13.09Z"/><path class="cls-5" d="M16.56,43.09c.64-.33.87-1,1.22-1.52a58.9,58.9,0,0,0,4-6.94,27.5,27.5,0,0,0,1.21-3c0-.1,0-.33.18-.28a.35.35,0,0,1,.22.4c-.06.26-.15.51-.21.76s-.16.3.08.38a.13.13,0,0,1,.05.11c-.19.26,0,.43.14.61a24.28,24.28,0,0,1,1.44,3,3.67,3.67,0,0,0,1,1.3c.31.31.55.22.87.11.65-.22,1.3-.43,1.95-.62.23-.08.33-.12.09-.35a6.53,6.53,0,0,1-.58-.7c-.05-.07-.07-.15,0-.21s.12,0,.18,0a1.3,1.3,0,0,1,.26.14,5.92,5.92,0,0,0,.89.67c.3.16.28.23,0,.47a3,3,0,0,1-.92.51l-3,1.09a2.11,2.11,0,0,0-.64.34,4.68,4.68,0,0,0,1.95-.11,5.82,5.82,0,0,1,1.89-.36,1.08,1.08,0,0,1-.52.42,6.38,6.38,0,0,1-2.42.59,3.24,3.24,0,0,0-.7.16c-.18,0-.14.16,0,.24a.79.79,0,0,0,.54.19c.18,0,.4,0,.39.26s-.22.23-.39.25a1.21,1.21,0,0,1-1-.47.45.45,0,0,1,0-.53.27.27,0,0,0-.08-.42.69.69,0,0,1-.13-.2c-.17-.28-.14-.39.14-.54.45-.24.45-.24.23-.69a9.05,9.05,0,0,1-.5-1.25,12.93,12.93,0,0,0-1-2.23,2.94,2.94,0,0,1-.35-1,2.25,2.25,0,0,0-.12-.37,2.39,2.39,0,0,0-.31.65,36.9,36.9,0,0,1-4.74,8.15A2.06,2.06,0,0,1,16.56,43.09Z"/><path class="cls-5" d="M31.89,36.56a.17.17,0,0,0-.15.11c-.06,0-.12-.06-.17-.1s-.23-.24-.33-.17.06.22.08.34a.3.3,0,0,1-.13.34.27.27,0,0,1-.34,0l-1.13-1.2a.71.71,0,0,1-.18-.27c-.1-.34-.3-.35-.57-.21a1.18,1.18,0,0,0-.63.51s-.05.11-.11.09a.21.21,0,0,1-.09-.13.39.39,0,0,1,.11-.42,2.19,2.19,0,0,1,.69-.44c.5-.22.69-.16,1,.29a4.77,4.77,0,0,0,.73.76c.09.1.14.06.22,0a52,52,0,0,1,6.27-6.24,5.18,5.18,0,0,1,1-.64c.09,0,.21-.14.3,0s0,.2-.12.27c-.44.41-.89.81-1.35,1.21-1.35,1.2-2.61,2.5-3.91,3.77L31.37,35.9c-.19.18-.24.31.07.41A.88.88,0,0,1,31.89,36.56Zm-.76-.35c-.06,0-.09,0-.09.11s0,.08.08.08.08,0,.08-.11S31.19,36.21,31.13,36.21Z"/><path class="cls-5" d="M31.94,41.05c-.21,0-.18.17-.28.25s.11.11.09.22a.27.27,0,0,0,0,.09.51.51,0,0,0-.53-.14,11.41,11.41,0,0,1-1.94.08.52.52,0,0,0-.57.36,5.84,5.84,0,0,1-.46,1A1.3,1.3,0,0,1,27,43.6c-.4,0-.54-.25-.45-.65a2.09,2.09,0,0,1,.3-.62c.4-.7.75-1.44,1.21-2.11-.17-.09-.26.05-.37.11a6.77,6.77,0,0,1-.85.43c-.12,0-.24.05-.31-.09s0-.23.15-.27c.61-.2,1.1-.66,1.75-.81a4,4,0,0,0,1-.57c.13-.07.28-.25.39-.05s-.1.25-.22.34l-.08,0a3.1,3.1,0,0,0-1.59,1.76c-.24.57-.53,1.13-.79,1.7,0,.06-.1.14,0,.21s.14,0,.21,0a.92.92,0,0,0,.53-.51,19,19,0,0,1,1.09-2.1c.15-.23.27-.43.6-.27.14.08.26-.07.37-.15s.24-.15.33,0,0,.23-.14.3c-.29.17-.64.27-.8.61,0,.08-.12.15-.06.24s.14,0,.22,0l1.54-.1s.09,0,.13,0c.25.1.52.35.69-.1C31.82,40.91,31.92,41,31.94,41.05Z"/><path class="cls-5" d="M34,22c.21,1.23-.56,1.87-1.36,2.44a6.55,6.55,0,0,1-4.33,1.07,7.4,7.4,0,0,1-3.63-1.06,2.7,2.7,0,0,1-1-.88c0-.05-.19-.09-.06-.19s.14,0,.19.07a5.67,5.67,0,0,0,2.52,1.29,7.82,7.82,0,0,0,5.64-.53,4.94,4.94,0,0,0,1.78-1.68A4.88,4.88,0,0,0,34,22Z"/><path class="cls-5" d="M19.29,13.1l.12-.13c.09.08,0,.37.31.13s.2.09.2.22a9,9,0,0,1-.14,1.27c-.07.5-.13,1-.2,1.5,0,.2.05.29.24.3a1.54,1.54,0,0,0,.9-.08c.17-.1.25,0,.28.14v.1c0,.26-.09.6.11.75s.48.05.73.05a2.37,2.37,0,0,1,.59.06.25.25,0,0,1,.2.19.23.23,0,0,1-.15.26l-.68.29c.52.27.55.76.7,1.2a.36.36,0,0,0,.4.27c.29,0,.58,0,.89,0a1.48,1.48,0,0,1-1,.42.56.56,0,0,1-.55-.36,2.34,2.34,0,0,1-.22-.55,1,1,0,0,0-.72-.84l-.24-.11c-.06,0-.13-.06-.11-.14S21,18,21.08,18s.2.05.26-.07-.18-.05-.27-.06c-.46,0-.54-.1-.49-.57,0-.27,0-.35-.32-.32a4,4,0,0,1-.91-.1A.35.35,0,0,1,19,16.4a19.51,19.51,0,0,1,.34-2A1.6,1.6,0,0,0,19.29,13.1Z"/><path class="cls-6" d="M32.34,19.16a1.61,1.61,0,0,1,.53.25,8,8,0,0,1,1.39,1.39.26.26,0,0,1,0,.41c-.16.14-.31.06-.42-.08-.26-.32-.49-.68-.78-1s-.41-.64-.86-.62c-.09,0-.11-.11-.1-.18S32.22,19.19,32.34,19.16Z"/><path class="cls-5" d="M24.93,19.62c-.33-.14-.14.11-.16.21-.25-.29-.24-.35.06-.52a16.06,16.06,0,0,0,2.05-1.53l.21-.17c.1-.07.21-.09.29,0a.19.19,0,0,1-.05.29c-.26.22-.53.44-.8.64a8.36,8.36,0,0,1-1.49.91C25,19.49,24.91,19.53,24.93,19.62Z"/><path class="cls-5" d="M22.52,14.31h0c-.22,0-.55,0-.56-.27s.33-.22.53-.24a.93.93,0,0,0,.6-.31c.1-.1.18-.22.29-.31a.27.27,0,0,1,.39,0,.25.25,0,0,1,0,.38A1.47,1.47,0,0,1,22.52,14.31Z"/><path class="cls-5" d="M22.71,11.7a2.57,2.57,0,0,1,.9.15c.15.06.28.15.22.34a.24.24,0,0,1-.37.14,3.76,3.76,0,0,0-1.88-.18c-.09,0-.22,0-.25-.09s.1-.12.18-.16A2.86,2.86,0,0,1,22.71,11.7Z"/><path class="cls-6" d="M26.73,5c-.55,0-1.09-.17-1.64-.14,0,0,0,0-.06-.07A4.88,4.88,0,0,1,26.73,5Z"/><path class="cls-6" d="M37.18,19.55a6.1,6.1,0,0,1-1.4-.64A5.92,5.92,0,0,1,37.18,19.55Z"/><path class="cls-6" d="M23.26,5.09a7.29,7.29,0,0,1-1.2.56A3.15,3.15,0,0,1,23.26,5.09Z"/><path class="cls-6" d="M34.21,17.25c-.17-.13-.18-.34-.27-.51s-.29-.28-.4-.45C34,16.43,34.09,16.86,34.21,17.25Z"/><path class="cls-6" d="M30.46,9.08a5.16,5.16,0,0,1-.34-1.16A2.64,2.64,0,0,1,30.46,9.08Z"/><path class="cls-6" d="M24,22.12a2.08,2.08,0,0,1-1,.39A3.8,3.8,0,0,1,24,22.12Z"/><path class="cls-6" d="M32.47,13.49a5.17,5.17,0,0,0-.71-.52A.79.79,0,0,1,32.47,13.49Z"/><path class="cls-6" d="M24.77,4.76a.81.81,0,0,1-.71.13A1.94,1.94,0,0,1,24.77,4.76Z"/><path class="cls-6" d="M25.18,21a2.36,2.36,0,0,1,0-.75A1,1,0,0,1,25.18,21Z"/><path class="cls-6" d="M31.76,12.64a2.42,2.42,0,0,1-.25-.83A1.36,1.36,0,0,1,31.76,12.64Z"/><path class="cls-6" d="M31.8,41.9a.81.81,0,0,1,.28.67A1.6,1.6,0,0,1,31.8,41.9Z"/><path class="cls-6" d="M35.69,18.88c-.27-.07-.57,0-.77-.28A2.64,2.64,0,0,1,35.69,18.88Z"/><path class="cls-6" d="M24.83,20.83a1.1,1.1,0,0,1-.3.77Z"/><path class="cls-6" d="M32.82,40.67a1.11,1.11,0,0,1-.7.36A3.3,3.3,0,0,1,32.82,40.67Z"/><path class="cls-6" d="M30.74,10.26a1.68,1.68,0,0,1-.22-.77A1.52,1.52,0,0,1,30.74,10.26Z"/><path class="cls-6" d="M32.72,14.35a1.27,1.27,0,0,1-.22-.71A1.29,1.29,0,0,1,32.72,14.35Z"/><path class="cls-6" d="M34.37,18c-.21-.19-.08-.44-.12-.65A1.12,1.12,0,0,1,34.37,18Z"/><path class="cls-6" d="M18.94,12.17a1.05,1.05,0,0,1,.22.64A1.33,1.33,0,0,1,18.94,12.17Z"/><path class="cls-6" d="M19.15,9a1,1,0,0,1-.2.65A1.64,1.64,0,0,1,19.15,9Z"/><path class="cls-6" d="M22,5.68c-.13.15-.24.31-.47.3A1,1,0,0,1,22,5.68Z"/><path class="cls-6" d="M38.83,20.47c-.2,0-.4-.07-.48-.3A1.39,1.39,0,0,1,38.83,20.47Z"/><path class="cls-6" d="M29.77,7.17a.63.63,0,0,1-.32-.47A1,1,0,0,1,29.77,7.17Z"/><path class="cls-6" d="M21.28,6.13a.6.6,0,0,1-.4.31A.69.69,0,0,1,21.28,6.13Z"/><path class="cls-6" d="M32.9,15.26c-.14,0-.23,0-.18-.21a2.5,2.5,0,0,0,.05-.29C32.9,14.91,32.7,15.14,32.9,15.26Z"/><path class="cls-6" d="M27.54,11.61c.13-.17.28-.23.46-.08A1.21,1.21,0,0,0,27.54,11.61Z"/><path class="cls-6" d="M25.67,21.19c-.16,0-.41.17-.49-.15C25.31,21.19,25.53,21.06,25.67,21.19Z"/><path class="cls-6" d="M29.13,6.31A.39.39,0,0,1,28.79,6,.83.83,0,0,1,29.13,6.31Z"/><path class="cls-6" d="M33.36,44.6a.36.36,0,0,1,.3.35A.74.74,0,0,1,33.36,44.6Z"/><path class="cls-6" d="M22.86,22.57c-.12.17-.3.18-.49.21A1.06,1.06,0,0,1,22.86,22.57Z"/><path class="cls-6" d="M30,7.63a.51.51,0,0,1-.22-.42A.75.75,0,0,1,30,7.63Z"/><path class="cls-6" d="M19.57,24.19a.48.48,0,0,1-.41.24A.86.86,0,0,1,19.57,24.19Z"/><path class="cls-6" d="M18.82,11.31c.15.13.07.3.07.45A.64.64,0,0,1,18.82,11.31Z"/><path class="cls-6" d="M26.64,21.53a.64.64,0,0,1-.42-.2A.64.64,0,0,1,26.64,21.53Z"/><path class="cls-6" d="M18.88,10c0,.15.08.31-.05.44A.57.57,0,0,1,18.88,10Z"/><path class="cls-6" d="M34,40c-.07.19-.24.22-.41.25A.88.88,0,0,1,34,40Z"/><path class="cls-6" d="M19.16,10.79c-.08-.14-.11-.28,0-.4A1.07,1.07,0,0,1,19.16,10.79Z"/><path class="cls-6" d="M23.68,5.39c.21.11.06.29.09.43C23.67,5.69,23.73,5.53,23.68,5.39Z"/><path class="cls-6" d="M29.82,17.31a.51.51,0,0,1,.22.42A.81.81,0,0,1,29.82,17.31Z"/><path class="cls-6" d="M33.38,16c-.17-.07-.17-.22-.16-.37A.62.62,0,0,1,33.38,16Z"/><path class="cls-6" d="M19.3,12.57c-.07-.12-.19-.24-.06-.4C19.25,12.31,19.33,12.43,19.3,12.57Z"/><path class="cls-6" d="M19.22,12c-.18-.08-.13-.2-.06-.33Z"/><path class="cls-6" d="M26.09,21.28c-.14.08-.24,0-.33-.08A.4.4,0,0,1,26.09,21.28Z"/><path class="cls-6" d="M24,6.83a.42.42,0,0,1,.13.36A.5.5,0,0,1,24,6.83Z"/><path class="cls-6" d="M27.64,5.24c-.14,0-.28,0-.36-.15A.58.58,0,0,1,27.64,5.24Z"/><path class="cls-6" d="M19.41,9.4a.28.28,0,0,1,.11-.33A.57.57,0,0,1,19.41,9.4Z"/><path class="cls-6" d="M30.92,10.91c-.2,0-.2-.16-.15-.32Z"/><path class="cls-6" d="M29.13,23.07c-.13.21-.21.1-.27-.05C29,23,29,23.14,29.13,23.07Z"/><path class="cls-6" d="M37.67,19.8c-.14,0-.26,0-.31-.17A.5.5,0,0,1,37.67,19.8Z"/><path class="cls-6" d="M24.37,7.82a.32.32,0,0,1,.14.27A.32.32,0,0,1,24.37,7.82Z"/><path class="cls-6" d="M20.16,23.85c0,.16-.16.18-.3.18A.52.52,0,0,1,20.16,23.85Z"/><path class="cls-6" d="M23.06,5.58a.32.32,0,0,1,.3-.12A.39.39,0,0,1,23.06,5.58Z"/><path class="cls-6" d="M31.41,11.58c-.16-.05-.18-.17-.16-.31A.77.77,0,0,1,31.41,11.58Z"/><path class="cls-6" d="M19.64,8.78a.28.28,0,0,1,.14-.3A.44.44,0,0,1,19.64,8.78Z"/><path class="cls-6" d="M27.55,22.06c-.12,0-.24,0-.27-.18A.45.45,0,0,1,27.55,22.06Z"/><path class="cls-6" d="M33.41,40.35a.26.26,0,0,1-.28.16A.45.45,0,0,1,33.41,40.35Z"/><path class="cls-6" d="M19.42,8.31a.3.3,0,0,1-.14.31A.52.52,0,0,1,19.42,8.31Z"/><path class="cls-6" d="M32.82,43.87c.15,0,.18.15.19.28A.46.46,0,0,1,32.82,43.87Z"/><path class="cls-6" d="M38.17,20.08c-.12,0-.24,0-.28-.17A.46.46,0,0,1,38.17,20.08Z"/><path class="cls-6" d="M19.63,8c0,.11,0,.22-.16.27A.34.34,0,0,1,19.63,8Z"/><path class="cls-6" d="M20.62,23.6a.26.26,0,0,1-.29.17A.44.44,0,0,1,20.62,23.6Z"/><path class="cls-6" d="M33.82,39.2c.15,0,.17.15.18.27A.45.45,0,0,1,33.82,39.2Z"/><path class="cls-6" d="M32.57,43.48c.14,0,.16.15.18.27A.42.42,0,0,1,32.57,43.48Z"/><path class="cls-6" d="M32.1,42.62c.16.05.18.17.17.31A.5.5,0,0,1,32.1,42.62Z"/><path class="cls-6" d="M30.13,17.91c.15,0,.17.15.17.28A.49.49,0,0,1,30.13,17.91Z"/><path class="cls-6" d="M33.79,45.07a.18.18,0,0,1,.21.19A.33.33,0,0,1,33.79,45.07Z"/><path class="cls-6" d="M28.35,5.64a.19.19,0,0,1-.22-.15A.29.29,0,0,1,28.35,5.64Z"/><path class="cls-6" d="M28.49,22.71a.18.18,0,0,1-.23-.17A.36.36,0,0,1,28.49,22.71Z"/><path class="cls-6" d="M29.31,6.51a.2.2,0,0,1-.19-.21A.33.33,0,0,1,29.31,6.51Z"/><path class="cls-6" d="M25.91,9.93a.18.18,0,0,1,.18.18A.32.32,0,0,1,25.91,9.93Z"/><path class="cls-6" d="M31.77,36.69a.19.19,0,0,1,.19.16A.22.22,0,0,1,31.77,36.69Z"/><path class="cls-6" d="M34.64,18.31a.19.19,0,0,1-.18-.18A.21.21,0,0,1,34.64,18.31Z"/><path class="cls-6" d="M33.1,44.27a.18.18,0,0,1,.17.22A.34.34,0,0,1,33.1,44.27Z"/><path class="cls-6" d="M39.3,20.8a.19.19,0,0,1-.23-.17A.36.36,0,0,1,39.3,20.8Z"/><path class="cls-6" d="M33.18,15.54a.2.2,0,0,1-.17-.2A.21.21,0,0,1,33.18,15.54Z"/><path class="cls-6" d="M30.86,19a.18.18,0,0,1,.17.21A.33.33,0,0,1,30.86,19Z"/><path class="cls-6" d="M30.7,20.81a.18.18,0,0,1-.17.2A.27.27,0,0,1,30.7,20.81Z"/><path class="cls-6" d="M31.12,19.29a.18.18,0,0,1,.17.22A.41.41,0,0,1,31.12,19.29Z"/><path class="cls-6" d="M31.21,11.19A.2.2,0,0,1,31,11,.25.25,0,0,1,31.21,11.19Z"/><path class="cls-6" d="M34.15,39.72c.05,0,.1,0,.1.1s-.06.1-.12.1Z"/><path class="cls-6" d="M23.92,4.9c-.05.12-.15.09-.24.08A.27.27,0,0,1,23.92,4.9Z"/><path class="cls-6" d="M26.8,12.34l.08-.1s.08.08,0,.13A.07.07,0,0,1,26.8,12.34Z"/><path class="cls-6" d="M34.77,18.5c-.11,0-.11-.1-.12-.18S34.75,18.43,34.77,18.5Z"/><path class="cls-6" d="M28.79,6a.12.12,0,0,1-.13-.11A.15.15,0,0,1,28.79,6Z"/><path class="cls-6" d="M23.91,6.57c.07,0,.09.07,0,.13S23.88,6.62,23.91,6.57Z"/><path class="cls-6" d="M20.22,7.09c0,.08,0,.13-.1.14A.15.15,0,0,1,20.22,7.09Z"/><path class="cls-6" d="M20,7.35a.12.12,0,0,1-.11.15A.18.18,0,0,1,20,7.35Z"/><path class="cls-6" d="M19.75,7.73c0,.08,0,.14-.09.16A.15.15,0,0,1,19.75,7.73Z"/><path class="cls-6" d="M30.61,18.63a.11.11,0,0,1,.1.13A.12.12,0,0,1,30.61,18.63Z"/><path class="cls-6" d="M32.76,14.68c-.07,0-.09-.08,0-.13A.11.11,0,0,1,32.76,14.68Z"/><path class="cls-6" d="M31.75,13s-.09,0-.1-.07.05-.06.09-.07Z"/><path class="cls-6" d="M31.32,19.55a.13.13,0,0,1,.11.14C31.36,19.67,31.34,19.62,31.32,19.55Z"/><path class="cls-6" d="M25.18,20.09c-.07,0-.1-.07,0-.13A.11.11,0,0,1,25.18,20.09Z"/><path class="cls-6" d="M31.54,20c0,.11-.05.11-.12.11Z"/><path class="cls-6" d="M19.38,12.83c-.08,0-.08-.1-.06-.18A.16.16,0,0,1,19.38,12.83Z"/><path class="cls-6" d="M19.23,10.19c-.07,0-.05-.09,0-.13A.12.12,0,0,1,19.23,10.19Z"/><path class="cls-6" d="M21.41,23.21c0,.1-.09.1-.18.09A.23.23,0,0,1,21.41,23.21Z"/><path class="cls-6" d="M21.08,23.37c0,.07-.08.08-.14.07A.12.12,0,0,1,21.08,23.37Z"/><path class="cls-6" d="M28.13,22.46a.11.11,0,0,1-.13-.1A.13.13,0,0,1,28.13,22.46Z"/><path class="cls-6" d="M29.57,22.3c0,.08,0,.14-.09.16A.17.17,0,0,1,29.57,22.3Z"/><path class="cls-6" d="M19.77,24.08c0,.08-.08.09-.15.08A.13.13,0,0,1,19.77,24.08Z"/><path class="cls-6" d="M27,10.86a.1.1,0,0,1,.13.1C27,10.94,27,10.92,27,10.86Z"/><path class="cls-6" d="M19.25,10c0-.07,0-.14.06-.18A.15.15,0,0,1,19.25,10Z"/><path class="cls-6" d="M29.45,22.51c0,.07,0,.13-.09.15A.14.14,0,0,1,29.45,22.51Z"/><path class="cls-6" d="M18.92,9.74c.06,0,0,.09,0,.13A.11.11,0,0,1,18.92,9.74Z"/><path class="cls-6" d="M27.75,22.19c-.07,0-.13,0-.14-.1A.15.15,0,0,1,27.75,22.19Z"/><path class="cls-6" d="M34,39.53a.11.11,0,0,1,.1.15A.2.2,0,0,1,34,39.53Z"/><path class="cls-6" d="M27.22,11.05a.12.12,0,0,1,.13.1A.12.12,0,0,1,27.22,11.05Z"/><path class="cls-6" d="M19.32,9.71c0-.07,0-.13.06-.17A.14.14,0,0,1,19.32,9.71Z"/><path class="cls-6" d="M29.78,22a.12.12,0,0,1-.09.13A.12.12,0,0,1,29.78,22Z"/><path class="cls-6" d="M22.14,22.87c0,.11-.1.12-.18.09A.23.23,0,0,1,22.14,22.87Z"/><path class="cls-6" d="M30.51,9.34c-.06,0-.08-.07,0-.13A.11.11,0,0,1,30.51,9.34Z"/><path class="cls-6" d="M24.87,8.68c.08,0,.1.06.1.13A.14.14,0,0,1,24.87,8.68Z"/><path class="cls-6" d="M30.37,21.2c0,.08,0,.13-.1.14A.15.15,0,0,1,30.37,21.2Z"/><path class="cls-6" d="M27,21.73c-.07,0-.12,0-.14-.08A.12.12,0,0,1,27,21.73Z"/><path class="cls-6" d="M27.35,11.41a.12.12,0,0,1-.13.11A.14.14,0,0,1,27.35,11.41Z"/><path class="cls-6" d="M30,21.73c0,.08,0,.13-.11.13A.13.13,0,0,1,30,21.73Z"/><path class="cls-6" d="M26.74,12.09v.18C26.66,12.21,26.68,12.15,26.74,12.09Z"/><path class="cls-6" d="M27.06,5a.17.17,0,0,1-.18,0A.16.16,0,0,1,27.06,5Z"/><path class="cls-6" d="M21.81,23c0,.08-.09.09-.17.07A.16.16,0,0,1,21.81,23Z"/><path class="cls-6" d="M24.61,8.28a.11.11,0,0,1,.09.14A.13.13,0,0,1,24.61,8.28Z"/><path class="cls-6" d="M32.38,43.15c.09,0,.11.08.1.16A.17.17,0,0,1,32.38,43.15Z"/><polygon class="cls-7" points="43.88 31.42 43.88 31.43 43.88 31.42 43.88 31.42"/><path class="cls-6" d="M32.24,42.19a.51.51,0,0,1,.17.3C32.24,42.45,32.23,42.33,32.24,42.19Z"/><path class="cls-6" d="M32,41.64a.1.1,0,0,1,.05.13s-.1,0-.12-.07S32,41.64,32,41.64Z"/><path class="cls-6" d="M33.06,41.06a.17.17,0,0,1-.18.08C32.91,41,33,41,33.06,41.06Z"/><path class="cls-6" d="M32.73,41.2a.21.21,0,0,1-.18.08C32.58,41.17,32.65,41.17,32.73,41.2Z"/><path class="cls-6" d="M32.5,42.65a.21.21,0,0,1,.1.18C32.5,42.81,32.48,42.74,32.5,42.65Z"/><path class="cls-6" d="M32.89,43.26a.16.16,0,0,1,.11.16C32.91,43.41,32.88,43.35,32.89,43.26Z"/><path class="cls-8" d="M31.13,36.21c.06,0,.06,0,.07.08s0,.11-.08.11-.07,0-.08-.08S31.07,36.23,31.13,36.21Z"/><path class="cls-4" d="M39.28,224.07l.16.2c0,.31.13.72-.42.73h0a.18.18,0,0,0-.17-.22l-.13-.26c-.15-.24-.33-.18-.52,0l-.55,0c-.2,0-.42-.13-.58.09l-.32,0c-.16-.09-.3-.12-.4.09l-.31,0c-.14-.13-.25-.11-.31.08l-.44.07A.22.22,0,0,0,35,225l-.16,0c-.13,0-.27-.06-.36.1l-.22,0c-.2-.17-.4.15-.64,0a.39.39,0,0,0,.35-.21,21.93,21.93,0,0,1,3.95-.79,1.09,1.09,0,0,1-.49-1c0-.21-.19-.23-.33-.24s-.14.18-.16.3.19.61-.23.59-.22-.39-.23-.63,0-.49-.27-.66a.69.69,0,0,1-.31-.61c0-.32-.18-.35-.4-.28a7.8,7.8,0,0,0-.94.4,17,17,0,0,0-5,4.3,7.49,7.49,0,0,1-1.18,1.33l-.14-.15.09-.16a.17.17,0,0,0,.13-.21,16.41,16.41,0,0,1,5.82-5.35c.14-.08.28-.14.41-.22s0-.05.08-.1c-.41-.29-.89-.5-1-1.09,0-.21-.24-.13-.38-.15-.9-.11-1.22-.44-1.18-1.34,0-.29-.1-.3-.31-.29a5,5,0,0,1-1.28-.1,1,1,0,0,1-.65-.36c-.28-.45-.64-.39-1-.25a12.83,12.83,0,0,1-5.38.84,14.48,14.48,0,0,1-2.78-.42c-.41-.11-.45,0-.47.37a6.53,6.53,0,0,0,1.16,4.2l-.13.16a5.66,5.66,0,0,1-1.08-6.11,6.44,6.44,0,0,1,4.38-4,6,6,0,0,1,5.11.76c0,.15.11.19.25.16a4.17,4.17,0,0,1,1.4,1.34c0,.13,0,.21.18.22l.13.19c0,.12,0,.2.15.22a3.78,3.78,0,0,1,.56.83c0,.18.14.2.28.16l.13.08c0,.13.11.17.23.15a.31.31,0,0,1,.19.2c0,.2,0,.42.25.53l0,.21c-.11.26-.19.51.09.73a2.7,2.7,0,0,1,.75,0c.14.26.42.17.63.26a.28.28,0,0,1,.21.27.22.22,0,0,0,.09.25l0,.09,0,0a.45.45,0,0,0,.3.51c.11,0,.07-.19.09-.3l.21,0a.27.27,0,0,0,.4,0l.2,0c0,.12.12.15.23.14a.33.33,0,0,1,.21.27c0,.14-.07.3.14.36l0,.21c-.1.25-.19.51.09.71s.57.18.75.44a.18.18,0,0,0,.18.18.67.67,0,0,1,.21.52c-.05.24-.06.47.29.47s.58.25.54.65C39.08,224,39.16,224,39.28,224.07Z"/><path class="cls-9" d="M28.23,227.52l.14.15a1.69,1.69,0,0,1-.08.24c0,.09-.14.18-.07.28s.22,0,.32,0a11.08,11.08,0,0,1,2-.76c.26-.06.63-.21.73.07s-.33.28-.53.36a31.13,31.13,0,0,0-6.56,3.57,1.37,1.37,0,0,0-.63,1.33,15,15,0,0,0,.93,4.19c0,.08.05.16.08.25-.44-.09-.54-.17-.75-.66a8.82,8.82,0,0,1-.69-3.65,1.62,1.62,0,0,0-.67-1.4,9.09,9.09,0,0,1-2.29-4.12c-.19-.62-.24-.67-.82-.36a14.51,14.51,0,0,0-6,5.47A12.36,12.36,0,0,0,12.26,235a.42.42,0,0,0,.13.48,28.15,28.15,0,0,0,7.75,5.83c.26.12.5.28.78.43-.21.31-.49.2-.73.14a9.42,9.42,0,0,1-2.73-1.4,26.82,26.82,0,0,1-4.83-4.26c-.09-.1-.16-.22-.21-.28-.23,0-.17.14-.19.22l0,.31a1.1,1.1,0,0,0-.07-.42,2.47,2.47,0,0,1,.13-2.44,10.48,10.48,0,0,1,1.5-2.62.54.54,0,0,0,0-.77,2,2,0,0,1-.48-1.52.6.6,0,0,0-.19-.45,6.88,6.88,0,0,0-1.7-1.62c-.16-.1-.37-.22-.35-.42,0-.62-.39-.95-.74-1.33-1-1.05-.88-1.35.46-1.84a3.27,3.27,0,0,0,.75-.42.55.55,0,0,0,.09-.89.38.38,0,0,1,0-.49,4.44,4.44,0,0,1,2.61-2c.16-.07.23.05.31.17a.72.72,0,0,0,1.06.33c.62-.32.67-.24,1.07.34,1.31,1.91,2.26,4,3.48,6a3.8,3.8,0,0,1,.22.78,11.39,11.39,0,0,0,2.36,4.05c.53.57.64.56,1.22.07a20.4,20.4,0,0,1,3.44-2.22,1.06,1.06,0,0,0,.71-.95C28.07,227.72,28.17,227.62,28.23,227.52Zm-8.67-1.14c-.11-.19-.22-.36-.31-.54q-1.45-2.72-2.88-5.44c-.22-.42-.52-.46-.8-.06-.08.1-.1.3-.26.27-.38-.09-.6.19-.86.36-1.19.77-2.3,1.66-3.41,2.53-.12.1-.33.33-.4.2-.24-.38-.3,0-.42.06s-.13.32,0,.47.43.49.64.73c.49.55.48.53,1.11.1.33-.23.6-.58,1.06-.65,0,.27-.16.37-.3.49a6.76,6.76,0,0,1-1.16.75c-.35.17-.38.52,0,.69,1.18.59,1.86,1.72,2.81,2.56.12.1.23.24.11.4s-.26.08-.4,0-.15-.19-.32-.1c0,.33.27.53.42.79s.27.18.43,0A15.89,15.89,0,0,1,19.56,226.38Zm-4.88-6.16a.79.79,0,0,0-.89-.31A4.62,4.62,0,0,0,12,221.15a.49.49,0,0,0,0,.71c.14.14.22.16.38,0Zm-1,8.84,0,0,0,0s0,0,0,0Z"/><path class="cls-4" d="M26.29,242.23c.57,0,1.1.15,1.65.19a14.4,14.4,0,0,0,6.93-1.3,45,45,0,0,0,4.7-2.5c.07,0,.13-.1.22-.06-.29.94-5.15,3.5-7.67,4C29.86,243.09,26.9,242.91,26.29,242.23Z"/><path class="cls-4" d="M29.37,243c-1.48,0-2.76-.24-3.16-.68l-.16-.18h.25a9.13,9.13,0,0,1,.93.1l.71.09A14.44,14.44,0,0,0,34.82,241,39.7,39.7,0,0,0,39,238.85l.59-.34a.26.26,0,0,1,.29,0l.08,0,0,.08c-.3,1-5.15,3.55-7.74,4.11A13.8,13.8,0,0,1,29.37,243Zm-2.72-.62a10.55,10.55,0,0,0,5.45.14c2.41-.52,6.63-2.77,7.46-3.75l-.49.28a41.12,41.12,0,0,1-4.16,2.19,14.63,14.63,0,0,1-7,1.31c-.25,0-.49-.06-.73-.09Z"/><path class="cls-9" d="M21.37,223.05l.13-.16c.18.05.21.51.55.17.12-.12.22.15.26.29.17.72.34,1.46.51,2.19s.48.93,1.13.42c.45-.35.54-.13.64.22s.35.57.78.34a2,2,0,0,1,.82-.25c.28,0,.46.19.24.36-.53.42-.4.68.17,1a8.27,8.27,0,0,0-1.49,0c-.07-.44-.72-.3-.77-.77,0-.28-.19-.28-.44-.2-1.58.48-1.26.27-1.56-.89a8.17,8.17,0,0,1-.17-.86A2.34,2.34,0,0,0,21.37,223.05Z"/><path class="cls-9" d="M29.6,222.41a6.29,6.29,0,0,1-.27,1.71c0,.17-.11.35-.33.29s-.18-.25-.14-.42a4.93,4.93,0,0,0,.22-2.32,1.94,1.94,0,0,0-.16-.48.91.91,0,0,0-.91-.45c-.38,0-.49.34-.58.64s0,.46-.27.4-.07-.33,0-.5a1,1,0,0,1,.94-.92,1.34,1.34,0,0,1,1.37.79A3,3,0,0,1,29.6,222.41Z"/><path class="cls-4" d="M25.24,248.46a2.36,2.36,0,0,1-.11-.87c0-1.78.1-3.56.22-5.33a1.2,1.2,0,0,1,0-.2c0-.1,0-.24.16-.23s.16.15.15.27c0,.46-.06.92-.08,1.38-.06,1.39-.1,2.77-.16,4.15A1.26,1.26,0,0,1,25.24,248.46Z"/><path class="cls-4" d="M25.21,248.69l-.07-.19a2.46,2.46,0,0,1-.12-.88v0c0-1.75.11-3.52.23-5.33a.78.78,0,0,1,0-.22v0c0-.09.06-.27.24-.27h0a.34.34,0,0,1,.19.08.46.46,0,0,1,.07.31c0,.17,0,.33,0,.5s0,.59-.05.88c0,.63-.05,1.26-.07,1.89l-.09,2.26v.1a1.26,1.26,0,0,1-.22.79Zm.32-6.76a.66.66,0,0,0,0,.11v0a1.1,1.1,0,0,0,0,.18c-.12,1.81-.23,3.57-.23,5.32v0a2.88,2.88,0,0,0,0,.57,1,1,0,0,0,.07-.45v-.11c0-.75.06-1.51.09-2.26s.05-1.26.07-1.89c0-.29,0-.59.05-.88s0-.34,0-.5,0-.14,0-.16Z"/><path class="cls-4" d="M42.28,231.88l-.22.19,0-.82c.14-.16,0-.23-.11-.3a1.32,1.32,0,0,1-.14-.56c-.06-.35,0-.73-.35-1l-.15-.47c-.07-.31-.07-.65-.37-.86l-.15-.38c0-.11,0-.2-.11-.24l-.12-.24a.47.47,0,0,1,.24-.26,1,1,0,0,1,.23.47.18.18,0,0,0,.11.25,1.63,1.63,0,0,1,.11.23c0,.13,0,.24.13.28l.17.45a1.23,1.23,0,0,0,.34.88,1.91,1.91,0,0,1,.18.66c0,.11,0,.21.09.27l0,.21c-.13.17,0,.29.1.39Z"/><path class="cls-9" d="M34,224.91a.39.39,0,0,1-.35.21c.24.18.44-.14.64,0l-2.78.77-.06-.18A12.67,12.67,0,0,1,34,224.91Z"/><path class="cls-9" d="M23.65,224.32c-.12,0-.34.07-.35-.16s.19-.15.32-.17a.76.76,0,0,0,.79-.76c0-.14,0-.3.22-.27s.2.17.22.31C24.92,223.83,24.38,224.31,23.65,224.32Z"/><path class="cls-4" d="M40.35,226.84l-.22-.45c0-.22,0-.4-.25-.48l-.37-.71.3,0a7.33,7.33,0,0,1,.67,1.23C40.38,226.53,40.73,226.78,40.35,226.84Z"/><path class="cls-9" d="M39.81,225.16l-.3,0c-.07-.29-.41.08-.49-.2.55,0,.39-.42.42-.73Z"/><path class="cls-9" d="M40.35,226.84c.38-.06,0-.31.13-.45a1,1,0,0,1,.28.56.47.47,0,0,0-.24.26A.63.63,0,0,1,40.35,226.84Z"/><path class="cls-9" d="M41.42,229.4c.33.26.29.64.35,1A3.16,3.16,0,0,1,41.42,229.4Z"/><path class="cls-9" d="M33.65,218.75c-.28-.22-.2-.47-.09-.73Z"/><path class="cls-9" d="M40.9,228.07c.3.21.3.55.37.86A2.73,2.73,0,0,1,40.9,228.07Z"/><path class="cls-9" d="M41.85,229.51a1.23,1.23,0,0,1-.34-.88A2.37,2.37,0,0,1,41.85,229.51Z"/><path class="cls-9" d="M37.24,221.61c-.28-.2-.19-.46-.09-.71A1.43,1.43,0,0,1,37.24,221.61Z"/><path class="cls-9" d="M35.74,219.91c0,.11,0,.33-.09.3a.45.45,0,0,1-.3-.51C35.45,219.83,35.55,220,35.74,219.91Z"/><path class="cls-9" d="M35,219c-.21-.09-.49,0-.63-.26A.76.76,0,0,1,35,219Z"/><path class="cls-9" d="M38.2,224.48c.19-.14.37-.2.52,0Z"/><path class="cls-9" d="M37.07,224.6c.16-.22.38-.1.58-.09A.74.74,0,0,1,37.07,224.6Z"/><path class="cls-9" d="M33.53,217.81c-.22-.11-.21-.33-.25-.53A.66.66,0,0,1,33.53,217.81Z"/><path class="cls-9" d="M38.67,223.22c-.35,0-.34-.23-.29-.47A.76.76,0,0,0,38.67,223.22Z"/><path class="cls-9" d="M36.35,224.73c.1-.21.24-.18.4-.09A.48.48,0,0,1,36.35,224.73Z"/><path class="cls-9" d="M36.35,219.88a.27.27,0,0,1-.4,0A.38.38,0,0,1,36.35,219.88Z"/><path class="cls-9" d="M39.88,225.91c.23.08.27.26.25.48A1,1,0,0,1,39.88,225.91Z"/><path class="cls-9" d="M42.26,231c-.13-.1-.23-.22-.1-.39A.44.44,0,0,1,42.26,231Z"/><path class="cls-9" d="M35.73,224.85c.06-.19.17-.21.31-.08A.35.35,0,0,1,35.73,224.85Z"/><path class="cls-9" d="M34.5,225.11c.09-.16.23-.12.36-.1A.35.35,0,0,1,34.5,225.11Z"/><path class="cls-9" d="M37.13,220.69c-.21-.06-.16-.22-.14-.36A.37.37,0,0,1,37.13,220.69Z"/><path class="cls-9" d="M41.91,231c.11.07.25.14.11.3A.32.32,0,0,1,41.91,231Z"/><path class="cls-9" d="M32.73,216.85c-.14,0-.25,0-.28-.16Z"/><path class="cls-9" d="M39.28,224.07c-.12,0-.2-.07-.07-.2Z"/><path class="cls-9" d="M28.45,227.15a.17.17,0,0,1-.13.21A.19.19,0,0,1,28.45,227.15Z"/><path class="cls-9" d="M33.09,217.08c-.12,0-.21,0-.23-.15A.25.25,0,0,1,33.09,217.08Z"/><path class="cls-9" d="M38.17,222.23a.18.18,0,0,1-.18-.18A.18.18,0,0,1,38.17,222.23Z"/><path class="cls-9" d="M41.1,227.67a.18.18,0,0,1-.11-.25C41.06,227.49,41.13,227.56,41.1,227.67Z"/><path class="cls-9" d="M41.34,228.18c-.16,0-.17-.15-.13-.28C41.26,228,41.3,228.09,41.34,228.18Z"/><path class="cls-9" d="M35.33,219.56a.22.22,0,0,1-.09-.25A.19.19,0,0,1,35.33,219.56Z"/><path class="cls-9" d="M36.78,220.06c-.11,0-.2,0-.23-.14A.2.2,0,0,1,36.78,220.06Z"/><path class="cls-9" d="M38.85,224.78A.18.18,0,0,1,39,225,.23.23,0,0,1,38.85,224.78Z"/><path class="cls-9" d="M42.12,230.44c-.13-.06-.13-.16-.09-.27A.25.25,0,0,1,42.12,230.44Z"/><path class="cls-9" d="M35,225a.22.22,0,0,1,.27-.07A.21.21,0,0,1,35,225Z"/><path class="cls-9" d="M30,213.89c-.14,0-.23,0-.25-.16A.29.29,0,0,1,30,213.89Z"/><path class="cls-9" d="M31.61,215.45c-.14,0-.19-.09-.18-.22A.29.29,0,0,1,31.61,215.45Z"/><path class="cls-9" d="M31.89,215.86c-.12,0-.16-.1-.15-.22A.25.25,0,0,1,31.89,215.86Z"/><path class="cls-9" d="M40.64,227.45c.12,0,.14.13.11.24A.25.25,0,0,1,40.64,227.45Z"/><path class="cls-8" d="M13.71,229.06l0,0s0,0,0,0l0,0Z"/><path class="cls-9" d="M14.14,227.74c-.16-.3,0-.44.16-.57a22.73,22.73,0,0,1,2.07-1.59c.11-.08.26-.15.37,0s0,.29-.11.38c-.46.33-.92.65-1.39,1A5.53,5.53,0,0,0,14.14,227.74Z"/><path class="cls-9" d="M14.88,223.8c.59-.32,1.15-.63,1.71-.92.13-.07.34-.13.41,0s-.14.23-.28.27c-.46.15-.85.47-1.33.6C15.23,223.83,15.1,223.92,14.88,223.8Z"/><path class="cls-4" d="M42.53,245.28a93.69,93.69,0,0,0,.11-9.48,24.53,24.53,0,0,0-.36-3.92l-.22.19c.08,1.28.19,2.55.21,3.83.06,3.28,0,6.56-.05,9.84a1.82,1.82,0,0,0,.08.74l.1-.09C42.46,246,42.51,245.62,42.53,245.28Z"/><path class="cls-4" d="M42.25,246.67l0-.15a1.79,1.79,0,0,1-.08-.73v0c.09-3.19.11-6.5.05-9.84,0-.87-.08-1.76-.14-2.62,0-.4-.05-.8-.07-1.2V232l.4-.35,0,.18a27.27,27.27,0,0,1,.36,3.94c.08,3,.12,6.21-.11,9.48,0,.29-.06.57-.1.9l0,.26Zm-.08-14.55c0,.38,0,.76.07,1.14.06.87.12,1.76.14,2.64.06,3.34,0,6.65-.05,9.84v.06c0,.11,0,.22,0,.35,0-.33.08-.6.1-.88h0c.23-3.26.19-6.48.11-9.47a26.47,26.47,0,0,0-.33-3.72Z"/><path class="cls-4" d="M43.23,177.27a2.37,2.37,0,0,1,.3-.23,2.74,2.74,0,0,0,0-.52,11,11,0,0,0-.75-3.69A20.57,20.57,0,0,0,35.11,163a2.67,2.67,0,0,0-1.08-.5c-.16,0-.11-.13-.11-.21,0-.46,0-.92-.05-1.38,0-.14.07-.4-.18-.38s-.15.26-.14.41a12.19,12.19,0,0,1-.28,3,3.1,3.1,0,0,0-.11.51.21.21,0,0,0,.15.28c.13,0,.2-.07.24-.17s.06-.19.09-.28a8.82,8.82,0,0,0,.22-1.23c0-.32.08-.35.38-.2s.4.24.6.36.23.26.09.47a7,7,0,0,1-3.5,3,8.09,8.09,0,0,1-2.53.52c-.09,0-.25.07-.21-.15a15.37,15.37,0,0,0,.08-1.66,1.43,1.43,0,0,0-.59-1.43c-.15-.09-.12-.19,0-.29a7,7,0,0,1,1-.72c1.22-.73,2.5-1.32,3.72-2a2.59,2.59,0,0,0,.39-.25c.08,0,.18-.12.13-.23s-.16-.1-.26-.06a2.46,2.46,0,0,0-.38.14l-1.22.62c-.08,0-.2.14-.19-.06a1.91,1.91,0,0,1,.27-1.11,7.85,7.85,0,0,0,1.67-3.7c0-.05,0-.15.08-.12.38.14.21-.17.25-.3a5.41,5.41,0,0,1-.08-1.06c0-.88.07-1.75.11-2.62a2.64,2.64,0,0,0,0-.28c0-.07,0-.15-.12-.16s-.08.09-.12.13-.06.27-.08.4c-.25,1.32-.23,2.67-.37,4a2,2,0,0,1,0,.35,8.49,8.49,0,0,1-1.7,3.19,4.68,4.68,0,0,1-2.79,1.59,5.45,5.45,0,0,1-1.71.07c-.12,0-.24-.05-.34,0a4.82,4.82,0,0,0,4.71-.9,1,1,0,0,1-.78,1.23l-.08,0a8.37,8.37,0,0,0-2.19,1.53c-.2.22-.28.18-.46,0a9.69,9.69,0,0,0-2.71-2.09.73.73,0,0,1-.42-.59c.46.19.87.54,1.46.33l-.63-.33a5.33,5.33,0,0,1-3.12-5,14.93,14.93,0,0,0-.26-2.4c-.12-.75-.59-1.36-.66-2.13a5,5,0,0,1,.25-2.48,4.27,4.27,0,0,1,2.64-2.53,13.06,13.06,0,0,1,3.27-.69,5,5,0,0,1,2.24.11,6.74,6.74,0,0,1,2.66,1.46,3.07,3.07,0,0,1,.69.81,4.28,4.28,0,0,1,.55,1.67c0,.1,0,.21.16.21s.14-.13.14-.24a5.92,5.92,0,0,0-.09-1,9,9,0,0,0-.89-2.45,5.07,5.07,0,0,0-3.51-2.66,9.6,9.6,0,0,0-2.73,0,5.7,5.7,0,0,0-4.05,1.94,7.29,7.29,0,0,0-1.57,3,9,9,0,0,0-.13,2.43,2.55,2.55,0,0,0,.23,1.3c.08.09,0,.22.06.33a10.37,10.37,0,0,1,.48,2.21,1.24,1.24,0,0,1,0,.43c0,.19-.19.25-.34.28s-.18-.11-.18-.21a3.77,3.77,0,0,0-.56-1.7,1.66,1.66,0,0,1-.21-.75c0-.12-.05-.28.09-.34s.22,0,.32.1.16.14.28.13.09-.21,0-.3-.05,0-.06-.06a.64.64,0,0,0-.7-.27c-.29.07-.28.34-.29.57a2.22,2.22,0,0,0,.25,1.1,4,4,0,0,1,.49,1.66.57.57,0,0,0,.73.55,1.25,1.25,0,0,0,.35-.17,5.79,5.79,0,0,0,.22,1.2,5.05,5.05,0,0,0,1.88,3.53,1,1,0,0,1,.32.73c-.2-.13-.44-.09-.55-.34s-.18-.07-.27,0a.76.76,0,0,0-.19.32,5.66,5.66,0,0,0-.42,1.76c0,.15-.05.39.16.4s.19-.22.21-.37a5.55,5.55,0,0,1,.41-1.79l.36.18c.21.11.49.15.47.5,0,.09.14.17.19.07.14-.27.28-.09.4,0,.29.19.57.38.84.59.85.67,1.53,1.51,2.32,2.25a.54.54,0,0,1,.12.41c0,.65,0,1.3,0,2,0,.19,0,.21-.22.19A6.51,6.51,0,0,1,25.14,166a8.54,8.54,0,0,1-2.78-3,2.76,2.76,0,0,1-.28-.79c0-.08,0-.2-.15-.19s-.12.14-.11.23a1.13,1.13,0,0,0,0,.18,3.92,3.92,0,0,0,.42,1.14,9,9,0,0,0,3.36,3.33,6.08,6.08,0,0,0,5.22.57c.2-.06.41-.14.67-.24l-.09.13a13.18,13.18,0,0,1-4.9,2.9,1.4,1.4,0,0,1-1.18-.11,14.21,14.21,0,0,1-4.42-3.7,10.37,10.37,0,0,1-1.65-2.77.35.35,0,0,1,.16-.5c.42-.26.82-.55,1.25-.8a6.28,6.28,0,0,1,1.51-.81c.11,0,.23-.05.2-.19s-.14-.15-.25-.15a1.19,1.19,0,0,0-.66.2,18.94,18.94,0,0,0-2.12,1.28c-.4.28-.4.28-.51-.22l-.07,0c-.11.34.11.67,0,1,0,0,.05.09.13.11s.11.17.12.27-.08.06-.13,0a2.38,2.38,0,0,0-1.37.44,17.28,17.28,0,0,0-2.64,1.87,24.78,24.78,0,0,0-6,7,3.14,3.14,0,0,1,.24.39,25.48,25.48,0,0,1,8.2-8.79,5.61,5.61,0,0,1,1.11-.59c.53-.2.61-.16.83.35l0,.08a13,13,0,0,0,5.42,5.74c.09.06.21.07.25.19a3.15,3.15,0,0,1-1.43,0c-.41-.08-.88-.06-1.17-.47-.08-.1-.53,0-.56.09a.67.67,0,0,1-1,.53l-.4-.17a.25.25,0,0,1-.19-.25.31.31,0,0,0-.42-.28.76.76,0,0,0-.44,1c.13.24.59.34.69.11.18-.4.36-.15.55-.06a2.13,2.13,0,0,0,.35.14c.15,0,.17.1.09.25a8.09,8.09,0,0,0-.4.84.26.26,0,0,1-.31.18,3,3,0,0,1-.43-.12c-.14,0-.29-.1-.25-.32a.33.33,0,0,0-.26-.42c-.21-.05-.77,0-.8.17a.78.78,0,0,0,0,.65.44.44,0,0,0,.54.19.79.79,0,0,1,.8.1.68.68,0,0,0,.2.07c.25,0,.23.13.17.32a20.48,20.48,0,0,0-1,6.11,1.17,1.17,0,0,0,.38,1c0-.28.08-.56.09-.84a24.89,24.89,0,0,1,.47-4.22,13.28,13.28,0,0,1,1.17-3.63c.16-.3.36-.6.54-.9.08-.15.17-.16.33-.08a4.32,4.32,0,0,0,2.8.44,2.49,2.49,0,0,1,1.12-.06.31.31,0,0,0,.33-.14c.08-.09.17-.22.28-.25a13.23,13.23,0,0,0,4.58-2.79,15.24,15.24,0,0,1,1.35-1.2,8.52,8.52,0,0,0,2.46-2.65c.11-.19.19-.2.35-.06a20.33,20.33,0,0,1,7.21,11.09A8.15,8.15,0,0,1,43.23,177.27Z"/><path class="cls-4" d="M41.89,155.13v2.33a.33.33,0,0,1-.21.35.67.67,0,0,1-.67-.06,1,1,0,0,1-.38-.69c0-.51.11-.74.62-.84.11,0,.15-.06.16-.16,0-.58.06-1.16.08-1.75,0-.2-.13-.11-.23-.08l-1.08.32a2.36,2.36,0,0,1-.87.1c-.15,0-.21,0-.21.19a22.74,22.74,0,0,0-.08,2.74.75.75,0,0,1-1.11.75c-.26-.11-.34-.34-.27-.72a.64.64,0,0,1,.63-.59c.23,0,.26-.08.27-.27.06-.8.19-1.6.2-2.41,0-.29.1-.34.34-.19s.23,0,.34,0a11.86,11.86,0,0,0,1.76-.52c.48-.14.68,0,.71.49,0,.26,0,.52,0,.79v.2Z"/><path class="cls-4" d="M26.48,158.17a3.43,3.43,0,0,1,.38-1.61c.07-.15.22-.18.37-.2a1.43,1.43,0,0,1,1.42,1.17,2.27,2.27,0,0,1-.11,1.26,1.13,1.13,0,0,1-1.19.82,1.09,1.09,0,0,1-.87-1.17A2.42,2.42,0,0,1,26.48,158.17Z"/><path class="cls-4" d="M34.24,154.83c-.09.15-.11.34-.29.42a.24.24,0,0,1-.31-.08c-.08-.1,0-.18.06-.24a.48.48,0,0,0,.15-.37c0-.26,0-.52,0-.78a.73.73,0,0,1,.29-.58,1.88,1.88,0,0,0,.53-1.51c0-.15-.1-.15-.22-.15a2.52,2.52,0,0,0-.76.25c-.14.05-.05.31-.13.46a2.53,2.53,0,0,0,0-.28c0-.23-.09-.11-.17-.05l.15-1s0-.13.09-.13.09.09.09.15c0,.21,0,.42,0,.67a1.86,1.86,0,0,1,.72-.38c.4-.09.6.05.62.46a2.05,2.05,0,0,1-.64,1.82.29.29,0,0,0-.12.25Z"/><path class="cls-4" d="M31.64,151.72a3.34,3.34,0,0,0-1.55-.09,2.4,2.4,0,0,0-.95.26c-.05,0-.1.06-.15,0a.15.15,0,0,1,0-.17.47.47,0,0,1,.25-.23,3.51,3.51,0,0,1,2.64-.21.21.21,0,0,1,.17.26C32,151.68,31.9,151.73,31.64,151.72Z"/><path class="cls-4" d="M19.34,156a3,3,0,0,1-.3-.13,10.56,10.56,0,0,1-1.9-1.63c-.05-.06-.1-.14-.05-.21s.15,0,.21,0a3.8,3.8,0,0,1,.74.52,5,5,0,0,0,1.52,1,.19.19,0,0,1,.11.27C19.62,156,19.52,156,19.34,156Z"/><path class="cls-4" d="M30.84,153.72a4,4,0,0,1-1-.17c-.11,0-.29-.06-.26-.22s.2-.09.31-.07a3.15,3.15,0,0,0,2-.31.27.27,0,1,1,.22.49A3.73,3.73,0,0,1,30.84,153.72Z"/><path class="cls-4" d="M25.93,152.06a8.19,8.19,0,0,0-1.28-.3,5.65,5.65,0,0,0-1-.07c-.09,0-.19,0-.21-.09s.08-.16.18-.19a2.86,2.86,0,0,1,1.09,0,4.11,4.11,0,0,1,1.31.24c.13.05.22.14.18.29S26.05,152.06,25.93,152.06Z"/><path class="cls-4" d="M27.49,153.9c0,.38,0,.75-.09,1.13a.47.47,0,0,0,.14.45.61.61,0,0,1,.19.32.23.23,0,0,1-.11.3c-.14.07-.24,0-.32-.11a1.16,1.16,0,0,1-.26-1.08,4.43,4.43,0,0,0,.16-1.41c0-.1,0-.24.14-.24s.12.14.13.23,0,.27,0,.41Z"/><path class="cls-4" d="M25.13,153.71a2.29,2.29,0,0,1-1.37-.41c-.06,0-.15-.09-.12-.18a.18.18,0,0,1,.23-.07,3.48,3.48,0,0,0,1.78.12.23.23,0,0,1,.27.2.24.24,0,0,1-.19.29A1.92,1.92,0,0,1,25.13,153.71Z"/><path class="cls-4" d="M17.66,157.33a6.47,6.47,0,0,0,1.42.49c.16,0,.33.1.28.3s-.23.16-.4.11a3.3,3.3,0,0,1-1.08-.49A.4.4,0,0,1,17.66,157.33Z"/><path class="cls-4" d="M24.89,145.49a.9.9,0,0,1,.78-.08l-.71.15A.08.08,0,0,1,24.89,145.49Z"/><path class="cls-4" d="M19,172.29c0-.13.1-.13.15-.16s.05-.17.16-.14,0,.09,0,.15a.16.16,0,0,1-.19.16Z"/><path class="cls-4" d="M24.89,145.49l.07.07a1.22,1.22,0,0,1-.6.1A.78.78,0,0,1,24.89,145.49Z"/><path class="cls-4" d="M19.88,170.57c0,.14,0,.24-.07.3s-.1,0-.11-.07S19.8,170.65,19.88,170.57Z"/><path class="cls-8" d="M26.75,157.77a2.72,2.72,0,0,1,.07-.56.55.55,0,0,1,.88-.36,1.1,1.1,0,0,1,.56.81,1.81,1.81,0,0,1-.24,1.25.61.61,0,0,1-.59.31.67.67,0,0,1-.57-.44A2.14,2.14,0,0,1,26.75,157.77Z"/><path class="cls-4" d="M33.58,151.54l0-.37h0v.37Z"/><path class="cls-4" d="M17.93,159.65a3.59,3.59,0,0,0,1.51-.38c.14-.07,0-.27-.12-.2a3.2,3.2,0,0,1-1.39.34.12.12,0,0,0,0,.24Z"/><text class="cls-10"><tspan class="cls-11" x="12.45" y="195.77">S</tspan><tspan x="17.97" y="195.77">i</tspan><tspan class="cls-12" x="21.2" y="195.77">n</tspan><tspan class="cls-13" x="27.46" y="195.77">g</tspan><tspan class="cls-14" x="32.89" y="195.77">e</tspan><tspan x="37.78" y="195.77">r</tspan></text><text class="cls-10" transform="translate(5.8 127.29)"><tspan class="cls-15">M</tspan><tspan x="9.75" y="0">u</tspan><tspan class="cls-14" x="15.95" y="0">s</tspan><tspan class="cls-16" x="20.19" y="0">i</tspan><tspan class="cls-17" x="23.47" y="0">c</tspan><tspan class="cls-16" x="28.26" y="0">i</tspan><tspan class="cls-18" x="31.54" y="0">a</tspan><tspan x="36.65" y="0">n</tspan></text><text class="cls-10" transform="translate(9.99 59.18)"><tspan class="cls-19">D</tspan><tspan class="cls-20" x="8.58" y="0">a</tspan><tspan class="cls-21" x="13.69" y="0">nc</tspan><tspan class="cls-22" x="24.82" y="0">e</tspan><tspan x="29.71" y="0">r</tspan></text><text class="cls-10" transform="translate(0.96 264.38)"><tspan class="cls-23">C</tspan><tspan class="cls-14" x="7.83" y="0">e</tspan><tspan class="cls-24" x="12.71" y="0">r</tspan><tspan class="cls-14" x="17.05" y="0">e</tspan><tspan x="21.93" y="0">m</tspan><tspan class="cls-25" x="31.4" y="0">o</tspan><tspan class="cls-21" x="37.18" y="0">n</tspan><tspan class="cls-16" x="43.52" y="0">i</tspan><tspan class="cls-19" x="46.8" y="0">a</tspan><tspan x="52.03" y="0">l</tspan></text><text class="cls-10" transform="translate(10.67 274.26)"><tspan class="cls-13">s</tspan><tspan class="cls-26" x="4.23" y="0">t</tspan><tspan class="cls-27" x="7.78" y="0">ud</tspan><tspan class="cls-14" x="20.19" y="0">e</tspan><tspan class="cls-28" x="25.07" y="0">n</tspan><tspan x="31.28" y="0">t</tspan></text><circle class="cls-29" cx="26.24" cy="229.07" r="23.02"/><circle class="cls-29" cx="26.24" cy="161.95" r="23.02"/><circle class="cls-29" cx="26.24" cy="93.04" r="23.02"/><circle class="cls-29" cx="26.24" cy="24.28" r="23.02"/></g></g></svg>