<svg xmlns="http://www.w3.org/2000/svg" viewBox="0 0 988.8 326.31"><defs><style>.cls-1,.cls-2,.cls-3,.cls-5,.cls-6,.cls-8{fill:none;stroke-miterlimit:10;}.cls-1,.cls-2,.cls-3,.cls-5,.cls-6{stroke:#fff;}.cls-1{stroke-width:1.8px;}.cls-2{stroke-width:0.9px;}.cls-3{stroke-width:0.86px;}.cls-4{fill:#fff;}.cls-5{stroke-width:0.91px;}.cls-6{stroke-width:1.78px;}.cls-7{fill:#f2f7d9;}.cls-8{stroke:#f2f7d9;}</style></defs><title>资源 4</title><g id="图层_2" data-name="图层 2"><g id="图层_1-2" data-name="图层 1"><polygon class="cls-1" points="65.34 84.72 28.52 84.83 28.97 243.79 65.79 243.69 65.91 287.69 964.89 285.19 964.65 198.07 924.24 198.19 924.02 120.05 964.43 119.94 964.2 35.52 65.21 38.02 65.34 84.72"/><rect class="cls-2" x="102.38" y="103.28" width="91.61" height="113.16"/><line class="cls-2" x1="75.44" y1="144.59" x2="103.28" y2="144.59"/><line class="cls-2" x1="75.44" y1="182.31" x2="103.28" y2="182.31"/><line class="cls-2" x1="79.93" y1="144.59" x2="79.93" y2="182.31"/><polyline class="cls-2" points="85.32 144.59 85.32 182.31 85.32 238.89 228.12 238.89 228.12 266.73"/><line class="cls-2" x1="91.61" y1="144.59" x2="91.61" y2="182.31"/><line class="cls-2" x1="96.99" y1="144.59" x2="96.99" y2="182.31"/><polyline class="cls-2" points="240.69 266.73 240.69 238.89 313.43 238.89 313.43 179.62 339.48 179.62 339.48 144.59 311.64 144.59 311.64 85.32 240.69 85.32 240.69 58.38"/><polyline class="cls-2" points="228.12 56.58 228.12 84.99 85.32 84.99 85.32 143.69"/><rect class="cls-2" x="256.85" y="92.5" width="45.8" height="42.21"/><rect class="cls-2" x="256.85" y="189.5" width="45.8" height="42.21"/><rect class="cls-2" x="318.82" y="153.57" width="14.37" height="17.06"/><polygon class="cls-2" points="408.57 99.69 396.12 99.69 389.9 110.47 396.12 121.24 408.57 121.24 414.79 110.47 408.57 99.69"/><circle class="cls-2" cx="402.34" cy="111.36" r="3.59"/><polygon class="cls-2" points="408.57 202.07 396.12 202.07 389.9 212.85 396.12 223.62 408.57 223.62 414.79 212.85 408.57 202.07"/><circle class="cls-2" cx="402.34" cy="213.75" r="3.59"/><polygon class="cls-2" points="478.62 202.07 466.17 202.07 459.95 212.85 466.17 223.62 478.62 223.62 484.84 212.85 478.62 202.07"/><circle class="cls-2" cx="472.39" cy="213.75" r="3.59"/><polygon class="cls-2" points="478.62 99.69 466.17 99.69 459.95 110.47 466.17 121.24 478.62 121.24 484.84 110.47 478.62 99.69"/><circle class="cls-2" cx="472.39" cy="111.36" r="3.59"/><polygon class="cls-2" points="528.91 99.69 516.47 99.69 510.24 110.47 516.47 121.24 528.91 121.24 535.13 110.47 528.91 99.69"/><circle class="cls-2" cx="522.69" cy="111.36" r="3.59"/><polygon class="cls-2" points="528.91 202.07 516.47 202.07 510.24 212.85 516.47 223.62 528.91 223.62 535.13 212.85 528.91 202.07"/><circle class="cls-2" cx="522.69" cy="213.75" r="3.59"/><polyline class="cls-2" points="439.71 83.52 439.71 138.31 372.71 138.31 372.71 83.52 592.74 83.52"/><polyline class="cls-2" points="449.94 83.52 449.94 138.31 570.29 138.31 570.29 114.95 585.55 114.95"/><polyline class="cls-2" points="439.17 239.79 439.17 185.01 372.71 185.01 372.71 239.79 590.94 239.79"/><polyline class="cls-3" points="449.94 240.69 449.94 185.01 570.29 185.01 570.29 208.74 585.55 208.74"/><line class="cls-2" x1="316.02" y1="144.59" x2="316.02" y2="179.62"/><line class="cls-2" x1="335.89" y1="144.59" x2="335.89" y2="179.62"/><line class="cls-2" x1="322.19" y1="144.59" x2="322.19" y2="152.68"/><line class="cls-2" x1="322.41" y1="171.54" x2="322.41" y2="178.72"/><line class="cls-2" x1="329.6" y1="145.49" x2="329.6" y2="153.57"/><line class="cls-2" x1="329.6" y1="171.54" x2="329.6" y2="179.62"/><rect class="cls-4" x="568.49" y="86.22" width="24.25" height="26.04"/><rect class="cls-5" x="585.55" y="114.96" width="87.11" height="93.4"/><polyline class="cls-2" points="646.62 118.55 646.62 207.46 646.62 239.79 697.82 239.79 697.82 269.43 954.67 269.43 954.67 286.49"/><polyline class="cls-2" points="646.62 204.76 646.62 115.85 646.62 83.52 697.82 83.52 697.82 53.88 954.67 53.88 954.67 36.82"/><line class="cls-2" x1="653.21" y1="115.85" x2="653.21" y2="204.76"/><line class="cls-2" x1="659.8" y1="115.85" x2="659.8" y2="204.76"/><line class="cls-2" x1="666.38" y1="115.85" x2="666.38" y2="204.76"/><path class="cls-2" d="M616.09,115.85V123h-9.88a15.36,15.36,0,0,0,9,7.18s-5.39,2.7-7.63,7.64h8.53v13H602.62s2.69,6.29,13.47,10.78"/><path class="cls-2" d="M616.09,206.56v-7.18h-9.88a15.4,15.4,0,0,1,9-7.19s-5.39-2.69-7.63-7.63h8.53v-13H602.62s2.69-6.29,13.47-10.78"/><rect class="cls-2" x="703.2" y="59.27" width="79.93" height="24.25"/><rect class="cls-2" x="703.2" y="239.79" width="79.93" height="24.25"/><rect class="cls-2" x="874.74" y="59.27" width="79.93" height="24.25"/><rect class="cls-2" x="874.74" y="238.89" width="79.93" height="24.25"/><rect class="cls-4" x="167.04" y="146.39" width="26.94" height="37.72"/><polyline class="cls-1" points="0.9 317.99 0.9 0.9 987.9 0.9 987.9 322.41 616.09 322.41"/><rect class="cls-4" x="569.39" y="211.05" width="21.55" height="26.04"/><line class="cls-6" x1="0.9" y1="322.41" x2="616.09" y2="322.41"/><line class="cls-1" x1="0.9" y1="310.15" x2="0.9" y2="326.31"/><path class="cls-7" d="M592.28,253.92a4.76,4.76,0,0,1,3.5,1,3.48,3.48,0,0,1,1,2.57,3.94,3.94,0,0,1-1.5,3.24,5.72,5.72,0,0,1-3.55.94H589v-.33c1-.1,1.08-.18,1.08-1.17v-4.78c0-1-.15-1.08-1.08-1.18v-.33Zm-1.21,6.2c0,.9.38,1.15,1.28,1.15,2.16,0,3.27-1.48,3.27-3.57a3.11,3.11,0,0,0-1.4-2.88,3.76,3.76,0,0,0-2.05-.48,1.63,1.63,0,0,0-.94.17c-.11.07-.16.2-.16.67Z"/><path class="cls-7" d="M601.68,261.86a.91.91,0,0,1-.57-.23,1.17,1.17,0,0,1-.28-.54,3.85,3.85,0,0,1-1.44.77,1.48,1.48,0,0,1-1.47-1.48,1.23,1.23,0,0,1,1-1.2,9,9,0,0,0,1.89-.78v-.24c0-.85-.43-1.34-1-1.34a.69.69,0,0,0-.57.28,2.57,2.57,0,0,0-.32.78.33.33,0,0,1-.35.27.58.58,0,0,1-.53-.53c0-.16.16-.31.4-.48a5.16,5.16,0,0,1,1.73-.84,1.6,1.6,0,0,1,1,.33,1.67,1.67,0,0,1,.62,1.39v2.31c0,.56.2.72.42.72a1,1,0,0,0,.43-.13l.12.34Zm-.88-3c-.26.14-.84.39-1.11.51-.46.2-.73.43-.73.87a.87.87,0,0,0,.86.93,1.6,1.6,0,0,0,1-.44Z"/><path class="cls-7" d="M607.68,260.63a2.85,2.85,0,0,1-2,1.23,2.42,2.42,0,0,1-2.43-2.52,2.83,2.83,0,0,1,1.22-2.35,3.17,3.17,0,0,1,1.82-.69,1.73,1.73,0,0,1,1.11.33.39.39,0,0,1,.2.35.61.61,0,0,1-.44.54c-.06,0-.1,0-.22-.12a1.79,1.79,0,0,0-1.22-.51c-.79,0-1.48.67-1.48,1.92A2,2,0,0,0,606,261a1.91,1.91,0,0,0,1.46-.66Z"/><path class="cls-7" d="M611.58,261.71v-.33c.69-.07.79-.13.79-.93v-2c0-1-.38-1.5-1.19-1.49a1.74,1.74,0,0,0-1.27.62v2.83c0,.78.1.86.82.93v.33h-2.62v-.33c.7-.06.85-.12.85-.93v-5.78c0-.63,0-.79-.84-.86v-.31a7.28,7.28,0,0,0,1.79-.41v4.09a2.71,2.71,0,0,1,1.74-.88c1,0,1.67.62,1.67,2.06v2.11c0,.79.09.85.79.91v.33Z"/><path class="cls-7" d="M619.15,260.69a2.75,2.75,0,0,1-2,1.17,2.4,2.4,0,0,1-2.35-2.58,3.09,3.09,0,0,1,.78-2.1,2.47,2.47,0,0,1,1.79-.88,1.87,1.87,0,0,1,1.83,1.86c0,.24-.05.35-.24.4s-1.77.16-3.2.2c0,1.61.94,2.27,1.8,2.27a2,2,0,0,0,1.39-.61Zm-2.06-3.93c-.55,0-1.09.52-1.26,1.49.67,0,1.34,0,2,0,.21,0,.29-.06.29-.24A1.12,1.12,0,0,0,617.09,256.76Z"/><path class="cls-7" d="M623.37,261.71v-.33c.7-.07.77-.16.77-1v-2c0-.84-.3-1.4-1.09-1.4a2.07,2.07,0,0,0-1.33.62v2.8c0,.83.07.86.78.93v.33h-2.59v-.33c.79-.09.86-.13.86-.93V258c0-.78-.08-.81-.73-.92v-.31a7,7,0,0,0,1.68-.48v1l.81-.56a1.91,1.91,0,0,1,1-.36c1,0,1.56.71,1.56,1.88v2.27c0,.82.07.86.77.93v.33Z"/><path class="cls-7" d="M628.15,260a.87.87,0,0,0-.39.6c0,.22.2.46.74.46h1.34c.77,0,1.75.25,1.75,1.43s-1.47,2.43-3.07,2.43c-1.35,0-2.08-.79-2.11-1.5a1,1,0,0,1,.3-.68,10.27,10.27,0,0,1,1-.87,1.49,1.49,0,0,1-.9-.65,1.06,1.06,0,0,1-.15-.51,2.58,2.58,0,0,0,1.11-.83Zm.58.12a1.86,1.86,0,0,1-2-1.81,2.06,2.06,0,0,1,2.16-2,2.5,2.5,0,0,1,1.15.3,8.45,8.45,0,0,0,1.61-.18l.07.11a1.44,1.44,0,0,1-.45.63c-.18,0-.57-.05-.74-.06a1.89,1.89,0,0,1,.35,1.09A1.94,1.94,0,0,1,628.73,260.08Zm.27,1.78a1.5,1.5,0,0,0-1.06.25,1.39,1.39,0,0,0-.58,1c0,.66.68,1.15,1.61,1.15,1.14,0,1.78-.58,1.78-1.35a.91.91,0,0,0-.52-.88A3.3,3.3,0,0,0,629,261.86Zm-.27-5.21c-.54,0-1,.49-1,1.44s.48,1.61,1.14,1.61,1-.47,1-1.44S629.4,256.65,628.73,256.65Z"/><path class="cls-7" d="M642.86,258.44c-.74.1-.79.17-.79.88v1a6.57,6.57,0,0,0,.07,1.14,12.11,12.11,0,0,1-2.72.43c-2.73,0-4.38-1.69-4.38-4.1s2.06-4,4.46-4a12.47,12.47,0,0,1,2.5.3c0,.44.08,1.18.17,1.93l-.35.07c-.29-1-.64-1.45-1.4-1.7a3.81,3.81,0,0,0-1.11-.16c-1.84,0-3,1.26-3,3.46,0,1.91,1,3.8,3.31,3.8a2.43,2.43,0,0,0,1-.2.72.72,0,0,0,.4-.77v-1c0-.88-.09-1-1.24-1.06v-.35h3.08Z"/><path class="cls-7" d="M647.55,261.86a.88.88,0,0,1-.56-.23,1.1,1.1,0,0,1-.29-.54,3.85,3.85,0,0,1-1.44.77,1.47,1.47,0,0,1-1.46-1.48,1.22,1.22,0,0,1,1-1.2,9.35,9.35,0,0,0,1.9-.78v-.24c0-.85-.43-1.34-1.06-1.34a.68.68,0,0,0-.56.28,2.55,2.55,0,0,0-.33.78.32.32,0,0,1-.34.27.58.58,0,0,1-.53-.53c0-.16.16-.31.4-.48a5.1,5.1,0,0,1,1.72-.84A1.58,1.58,0,0,1,647.6,258v2.31c0,.56.2.72.42.72a.94.94,0,0,0,.43-.13l.12.34Zm-.87-3c-.27.14-.84.39-1.12.51-.45.2-.73.43-.73.87a.88.88,0,0,0,.86.93,1.6,1.6,0,0,0,1-.44Z"/><path class="cls-7" d="M651.31,261.7a1.2,1.2,0,0,1-.52.16c-.76,0-1.17-.47-1.17-1.43v-3.49h-.83l0-.14.33-.35h.55v-1c.23-.24.57-.55.8-.79l.18,0c0,.51,0,1.2,0,1.78h1.36a.36.36,0,0,1-.07.49h-1.29V260c0,1,.38,1.15.69,1.15A1.72,1.72,0,0,0,652,261l.11.31Z"/><path class="cls-7" d="M656.81,260.69a2.75,2.75,0,0,1-2,1.17,2.4,2.4,0,0,1-2.35-2.58,3.09,3.09,0,0,1,.78-2.1,2.5,2.5,0,0,1,1.79-.88,1.88,1.88,0,0,1,1.84,1.86c0,.24,0,.35-.24.4s-1.78.16-3.21.2c0,1.61,1,2.27,1.8,2.27a2,2,0,0,0,1.39-.61Zm-2.07-3.93c-.55,0-1.09.52-1.26,1.49.67,0,1.35,0,2,0,.22,0,.29-.06.29-.24A1.12,1.12,0,0,0,654.74,256.76Z"/><path class="cls-7" d="M460.18,253.56a4.76,4.76,0,0,1,3.5,1.05,3.44,3.44,0,0,1,1,2.56,3.94,3.94,0,0,1-1.5,3.24,5.72,5.72,0,0,1-3.55.95h-2.8V261c1-.09,1.08-.18,1.08-1.16v-4.79c0-1-.15-1.08-1.08-1.17v-.34Zm-1.21,6.2c0,.9.38,1.15,1.28,1.15,2.16,0,3.27-1.47,3.27-3.57a3.12,3.12,0,0,0-1.4-2.88,3.76,3.76,0,0,0-2.05-.48,1.63,1.63,0,0,0-.94.17c-.11.07-.16.2-.16.67Z"/><path class="cls-7" d="M468.43,261.36h-2.76V261c.75-.07.83-.13.83-.91v-2.49c0-.8-.05-.83-.75-.92v-.3a6.4,6.4,0,0,0,1.69-.49v1.32c.42-.62.93-1.28,1.53-1.28a.61.61,0,0,1,.69.57.79.79,0,0,1-.41.66.23.23,0,0,1-.31,0,.75.75,0,0,0-.54-.3c-.25,0-.69.37-1,1v2.26c0,.79.06.85,1,.92Z"/><path class="cls-7" d="M476.09,261.08a14.92,14.92,0,0,0-1.83.42v-.92a3,3,0,0,1-1.84.92c-.8,0-1.5-.49-1.5-1.8v-2.32c0-.65-.09-.72-.39-.78l-.34-.06v-.32a15.88,15.88,0,0,0,1.72-.21c0,.38,0,1,0,1.75v1.63c0,1.06.55,1.36,1.09,1.36a1.92,1.92,0,0,0,1.3-.58v-2.79c0-.65-.15-.74-.55-.8l-.39,0v-.32a15.71,15.71,0,0,0,1.89-.21v4c0,.6.09.68.55.7l.33,0Z"/><path class="cls-7" d="M483.28,261.36V261c.71-.07.79-.12.79-1v-2c0-.85-.29-1.39-1-1.39a2.17,2.17,0,0,0-1.33.62c0,.15,0,.29,0,.52v2.32c0,.76.11.82.77.89v.34h-2.57V261c.75-.07.86-.12.86-.91v-2.06c0-.89-.28-1.38-1-1.38a2.29,2.29,0,0,0-1.32.62v2.82c0,.79.08.84.77.91v.34h-2.58V261c.79-.07.86-.12.86-.91v-2.48c0-.77,0-.82-.72-.94v-.3a6.24,6.24,0,0,0,1.67-.48v1a8.24,8.24,0,0,1,.89-.62,1.63,1.63,0,0,1,.94-.31,1.4,1.4,0,0,1,1.31,1c.34-.26.65-.47.95-.67a1.79,1.79,0,0,1,.95-.31c.93,0,1.51.67,1.51,1.85v2.31c0,.8.07.84.75.91v.34Z"/><path class="cls-7" d="M493.08,261.36V261c.71-.07.8-.12.8-1v-2c0-.85-.29-1.39-1-1.39a2.22,2.22,0,0,0-1.33.62c0,.15,0,.29,0,.52v2.32c0,.76.11.82.77.89v.34h-2.57V261c.74-.07.85-.12.85-.91v-2.06c0-.89-.27-1.38-1-1.38a2.32,2.32,0,0,0-1.32.62v2.82c0,.79.09.84.77.91v.34h-2.58V261c.8-.07.87-.12.87-.91v-2.48c0-.77-.05-.82-.72-.94v-.3a6.28,6.28,0,0,0,1.66-.48v1c.26-.19.51-.39.89-.62a1.66,1.66,0,0,1,.95-.31,1.41,1.41,0,0,1,1.31,1c.33-.26.64-.47.94-.67a1.82,1.82,0,0,1,.95-.31c.94,0,1.51.67,1.51,1.85v2.31c0,.8.07.84.76.91v.34Z"/><path class="cls-7" d="M496.29,261.36V261c.76-.07.84-.13.84-.95V257.6c0-.74,0-.79-.75-.91v-.29a7.31,7.31,0,0,0,1.7-.48v4.15c0,.82.08.88.86.95v.34Zm1.25-6.61a.66.66,0,0,1-.64-.64.65.65,0,0,1,.65-.66.62.62,0,0,1,.61.66A.63.63,0,0,1,497.54,254.75Z"/><path class="cls-7" d="M503,261.36V261c.69-.07.76-.15.76-1v-2c0-.84-.3-1.4-1.09-1.4a2.12,2.12,0,0,0-1.33.62v2.81c0,.83.07.85.78.92v.34h-2.59V261c.79-.08.86-.13.86-.92v-2.47c0-.78-.08-.82-.73-.93v-.31a6.41,6.41,0,0,0,1.68-.48v1l.82-.55a1.8,1.8,0,0,1,1-.36c1,0,1.56.71,1.56,1.87v2.28c0,.81.07.85.77.92v.34Z"/><path class="cls-7" d="M507.77,259.61a.87.87,0,0,0-.39.6c0,.21.2.45.74.45h1.34c.77,0,1.76.25,1.76,1.44s-1.48,2.42-3.07,2.42c-1.36,0-2.09-.79-2.12-1.5a1,1,0,0,1,.3-.68,10.17,10.17,0,0,1,1-.86,1.56,1.56,0,0,1-.9-.65,1.1,1.1,0,0,1-.15-.52,2.51,2.51,0,0,0,1.11-.83Zm.58.12a1.86,1.86,0,0,1-2-1.81,2.07,2.07,0,0,1,2.16-2,2.46,2.46,0,0,1,1.15.3,7.71,7.71,0,0,0,1.61-.18l.07.11a1.5,1.5,0,0,1-.44.64c-.18,0-.58,0-.75-.06a1.8,1.8,0,0,1,.35,1.09A2,2,0,0,1,508.35,259.73Zm.28,1.77a1.51,1.51,0,0,0-1.07.25,1.39,1.39,0,0,0-.58,1c0,.66.69,1.15,1.61,1.15,1.14,0,1.79-.59,1.79-1.36a.9.9,0,0,0-.53-.87A3.25,3.25,0,0,0,508.63,261.5Zm-.28-5.2c-.54,0-1,.49-1,1.44s.48,1.6,1.14,1.6,1-.47,1-1.44S509,256.3,508.35,256.3Z"/><path class="cls-7" d="M517.74,253.56a3.38,3.38,0,0,1,2,.52,2,2,0,0,1,.79,1.7,2.49,2.49,0,0,1-2.64,2.46l-.32,0-.83-.22v1.87c0,1,.09,1,1.19,1.15v.34h-3.31V261c1-.11,1.08-.18,1.08-1.17v-4.76c0-1.07-.13-1.1-1.08-1.19v-.34Zm-1,4a2.24,2.24,0,0,0,.88.16,1.89,1.89,0,0,0-.07-3.77,1.09,1.09,0,0,0-.67.14c-.1.09-.14.23-.14.56Z"/><path class="cls-7" d="M525,261.5a.86.86,0,0,1-.57-.23,1,1,0,0,1-.28-.54,3.78,3.78,0,0,1-1.44.77,1.47,1.47,0,0,1-1.47-1.47,1.22,1.22,0,0,1,1-1.2,10.21,10.21,0,0,0,1.89-.78v-.24c0-.85-.43-1.35-1-1.35a.72.72,0,0,0-.57.28,2.69,2.69,0,0,0-.32.78.34.34,0,0,1-.35.28.58.58,0,0,1-.53-.53c0-.17.16-.31.4-.48a5,5,0,0,1,1.73-.84,1.68,1.68,0,0,1,1,.32,1.66,1.66,0,0,1,.61,1.39V260c0,.55.21.72.42.72a1,1,0,0,0,.44-.13l.12.33Zm-.88-3c-.26.13-.84.38-1.11.5-.46.21-.74.43-.74.88a.87.87,0,0,0,.87.92,1.59,1.59,0,0,0,1-.43Z"/><path class="cls-7" d="M531.53,256.42c-.65.08-.73.18-1,.9-.4,1-1.08,2.55-1.7,4.17h-.35c-.51-1.38-1.09-2.81-1.66-4.21-.27-.7-.37-.77-1-.86v-.33h2.44v.33c-.66.08-.68.16-.49.68.3.83.81,2.1,1.14,2.94.43-1.07.83-2.05,1.09-2.82.21-.59.17-.72-.62-.8v-.33h2.18Z"/><path class="cls-7" d="M531.93,261.36V261c.76-.07.84-.13.84-.95V257.6c0-.74,0-.79-.76-.91v-.29a7.26,7.26,0,0,0,1.71-.48v4.15c0,.82.08.88.86.95v.34Zm1.25-6.61a.66.66,0,0,1-.64-.64.65.65,0,0,1,.65-.66.62.62,0,0,1,.61.66A.63.63,0,0,1,533.18,254.75Z"/><path class="cls-7" d="M535.09,261.36V261c.76-.07.86-.13.86-.92v-5.75c0-.73-.06-.8-.83-.9v-.31a8.11,8.11,0,0,0,1.78-.41v7.37c0,.79.07.85.85.92v.34Z"/><path class="cls-7" d="M538.37,261.36V261c.76-.07.84-.13.84-.95V257.6c0-.74,0-.79-.75-.91v-.29a7.18,7.18,0,0,0,1.7-.48v4.15c0,.82.09.88.86.95v.34Zm1.25-6.61a.66.66,0,0,1-.63-.64.65.65,0,0,1,.64-.66.63.63,0,0,1,.62.66A.64.64,0,0,1,539.62,254.75Z"/><path class="cls-7" d="M544.31,256a2.58,2.58,0,0,1,2.62,2.68,2.69,2.69,0,0,1-2.62,2.87,2.63,2.63,0,0,1-2.66-2.67A2.74,2.74,0,0,1,544.31,256Zm-.14.41c-.73,0-1.39.7-1.39,2.09s.67,2.63,1.65,2.63c.75,0,1.37-.54,1.37-2.18C545.8,257.5,545.22,256.36,544.17,256.36Z"/><path class="cls-7" d="M551.15,261.36V261c.7-.07.77-.15.77-1v-2c0-.84-.3-1.4-1.09-1.4a2.12,2.12,0,0,0-1.33.62v2.81c0,.83.07.85.78.92v.34h-2.59V261c.79-.08.86-.13.86-.92v-2.47c0-.78-.08-.82-.73-.93v-.31a6.53,6.53,0,0,0,1.68-.48v1c.24-.17.5-.35.81-.55a1.83,1.83,0,0,1,1-.36c1,0,1.56.71,1.56,1.87v2.28c0,.81.07.85.76.92v.34Z"/><path class="cls-7" d="M106.15,254a4.76,4.76,0,0,1,3.5,1.05,3.44,3.44,0,0,1,1,2.56,3.92,3.92,0,0,1-1.5,3.24,5.72,5.72,0,0,1-3.55.95h-2.8v-.34c1-.09,1.08-.18,1.08-1.16v-4.79c0-1-.15-1.08-1.08-1.17V254Zm-1.21,6.2c0,.9.38,1.15,1.28,1.15,2.16,0,3.26-1.47,3.26-3.57a3.12,3.12,0,0,0-1.39-2.88,3.76,3.76,0,0,0-2-.48,1.67,1.67,0,0,0-1,.17c-.1.07-.15.2-.15.67Z"/><path class="cls-7" d="M115.55,261.91a.86.86,0,0,1-.57-.23,1.13,1.13,0,0,1-.29-.54,3.68,3.68,0,0,1-1.43.77,1.47,1.47,0,0,1-1.47-1.47,1.23,1.23,0,0,1,1-1.2,9.55,9.55,0,0,0,1.89-.78v-.24c0-.85-.43-1.35-1.06-1.35a.71.71,0,0,0-.56.28,2.69,2.69,0,0,0-.32.78.34.34,0,0,1-.35.28.58.58,0,0,1-.53-.53c0-.17.16-.31.4-.48a4.92,4.92,0,0,1,1.72-.84,1.69,1.69,0,0,1,1,.32,1.66,1.66,0,0,1,.61,1.39v2.32c0,.55.21.72.42.72a1,1,0,0,0,.44-.13l.11.33Zm-.88-3c-.26.13-.84.38-1.12.5-.45.21-.73.43-.73.88a.87.87,0,0,0,.87.92,1.59,1.59,0,0,0,1-.43Z"/><path class="cls-7" d="M121.55,260.69a2.89,2.89,0,0,1-2,1.22,2.42,2.42,0,0,1-2.43-2.52,2.86,2.86,0,0,1,1.21-2.35,3.2,3.2,0,0,1,1.83-.68,1.8,1.8,0,0,1,1.11.32c.17.14.19.22.19.35a.6.6,0,0,1-.43.54c-.06,0-.11,0-.23-.12a1.76,1.76,0,0,0-1.21-.5c-.79,0-1.48.67-1.48,1.92a1.88,1.88,0,0,0,3.28,1.56Z"/><path class="cls-7" d="M125.45,261.77v-.34c.69-.07.79-.13.79-.92v-2c0-1-.39-1.5-1.19-1.49a1.69,1.69,0,0,0-1.27.63v2.83c0,.78.1.85.81.92v.34H122v-.34c.7-.06.85-.12.85-.92v-5.78c0-.64,0-.79-.84-.87v-.31a7.8,7.8,0,0,0,1.79-.4v4.08a2.7,2.7,0,0,1,1.74-.87c1,0,1.66.61,1.66,2.05v2.11c0,.79.1.85.8.91v.34Z"/><path class="cls-7" d="M133,260.75a2.73,2.73,0,0,1-2,1.16,2.39,2.39,0,0,1-2.35-2.58,3.06,3.06,0,0,1,.78-2.1,2.45,2.45,0,0,1,1.78-.87,1.87,1.87,0,0,1,1.84,1.86c0,.24-.05.35-.24.39s-1.78.16-3.21.21c0,1.61,1,2.26,1.8,2.26a2,2,0,0,0,1.4-.61ZM131,256.82c-.55,0-1.09.51-1.25,1.48.67,0,1.34,0,2.05,0,.21,0,.28-.06.28-.24A1.1,1.1,0,0,0,131,256.82Z"/><path class="cls-7" d="M137.24,261.77v-.34c.7-.07.77-.15.77-1v-2c0-.84-.3-1.4-1.09-1.4a2.12,2.12,0,0,0-1.33.62v2.81c0,.83.07.85.78.92v.34h-2.59v-.34c.79-.08.86-.13.86-.92V258c0-.78-.08-.82-.73-.93v-.31a6.53,6.53,0,0,0,1.68-.48v.95c.24-.17.5-.35.81-.55a1.83,1.83,0,0,1,1-.36c1,0,1.56.71,1.56,1.87v2.28c0,.81.07.85.76.92v.34Z"/><path class="cls-7" d="M142,260a.87.87,0,0,0-.4.6c0,.21.21.45.75.45h1.34c.77,0,1.75.25,1.75,1.44s-1.47,2.42-3.07,2.42c-1.35,0-2.09-.79-2.11-1.5a1,1,0,0,1,.3-.68,11.38,11.38,0,0,1,1-.86,1.6,1.6,0,0,1-.9-.65,1.19,1.19,0,0,1-.14-.52,2.53,2.53,0,0,0,1.1-.82Zm.57.12a1.86,1.86,0,0,1-2-1.81,2.07,2.07,0,0,1,2.15-2,2.5,2.5,0,0,1,1.16.3,7.53,7.53,0,0,0,1.6-.18l.08.11a1.62,1.62,0,0,1-.45.64c-.18,0-.57-.05-.74-.06a1.86,1.86,0,0,1,.35,1.09A2,2,0,0,1,142.59,260.14Zm.28,1.77a1.53,1.53,0,0,0-1.07.25,1.41,1.41,0,0,0-.57,1c0,.66.68,1.15,1.61,1.15,1.13,0,1.78-.59,1.78-1.36a.89.89,0,0,0-.53-.87A3.19,3.19,0,0,0,142.87,261.91Zm-.28-5.2c-.53,0-1,.49-1,1.44s.48,1.6,1.13,1.6,1-.46,1-1.44S143.27,256.71,142.59,256.71Z"/><path class="cls-7" d="M157.24,254.31c-1,.09-1.09.15-1.09,1.16v4.81c0,1,.11,1,1.09,1.15v.34H154v-.34c1-.12,1.09-.14,1.09-1.15v-2.4H151v2.4c0,1,.1,1,1.08,1.15v.34h-3.2v-.34c1-.11,1.08-.14,1.08-1.15v-4.81c0-1-.11-1.07-1.08-1.16V254h3.2v.34c-1,.08-1.08.17-1.08,1.16v1.91h4.1v-1.91c0-1-.13-1.08-1.09-1.16V254h3.21Z"/><path class="cls-7" d="M161.72,261.91a.83.83,0,0,1-.56-.23,1.06,1.06,0,0,1-.29-.54,3.71,3.71,0,0,1-1.44.77,1.47,1.47,0,0,1-1.46-1.47,1.22,1.22,0,0,1,1-1.2,10,10,0,0,0,1.9-.78v-.24c0-.85-.44-1.35-1.06-1.35a.7.7,0,0,0-.56.28,2.42,2.42,0,0,0-.33.78.33.33,0,0,1-.35.28.58.58,0,0,1-.52-.53c0-.17.15-.31.39-.48a5.07,5.07,0,0,1,1.73-.84,1.71,1.71,0,0,1,1,.32,1.66,1.66,0,0,1,.61,1.39v2.32c0,.55.2.72.42.72a1,1,0,0,0,.43-.13l.12.33Zm-.87-3-1.12.5c-.46.21-.73.43-.73.88a.87.87,0,0,0,.86.92,1.61,1.61,0,0,0,1-.43Z"/><path class="cls-7" d="M163.07,261.77v-.34c.77-.07.86-.13.86-.92v-5.75c0-.73-.06-.8-.83-.9v-.31a8.64,8.64,0,0,0,1.78-.4v7.36c0,.79.07.85.85.92v.34Z"/><path class="cls-7" d="M166.26,261.77v-.34c.77-.07.86-.13.86-.92v-5.75c0-.73-.06-.8-.82-.9v-.31a8.68,8.68,0,0,0,1.77-.4v7.36c0,.79.07.85.85.92v.34Z"/><path class="cls-7" d="M260.26,253.58a4.76,4.76,0,0,1,3.5,1,3.45,3.45,0,0,1,1,2.57,3.93,3.93,0,0,1-1.49,3.23,5.7,5.7,0,0,1-3.56.95h-2.8V261c1-.09,1.08-.17,1.08-1.16v-4.78c0-1-.15-1.08-1.08-1.18v-.33Zm-1.21,6.2c0,.9.38,1.15,1.29,1.15,2.15,0,3.26-1.48,3.26-3.58a3.12,3.12,0,0,0-1.39-2.87,3.81,3.81,0,0,0-2.06-.48,1.78,1.78,0,0,0-.94.16c-.11.07-.16.21-.16.67Z"/><path class="cls-7" d="M269.66,261.52a.91.91,0,0,1-.57-.23,1.22,1.22,0,0,1-.28-.54,3.85,3.85,0,0,1-1.44.77A1.48,1.48,0,0,1,265.9,260a1.23,1.23,0,0,1,1-1.2,9,9,0,0,0,1.89-.78v-.24c0-.85-.43-1.34-1-1.34a.71.71,0,0,0-.57.27,2.82,2.82,0,0,0-.32.78.33.33,0,0,1-.35.28.58.58,0,0,1-.53-.53c0-.17.16-.31.4-.48a5.16,5.16,0,0,1,1.73-.84,1.6,1.6,0,0,1,1,.33,1.66,1.66,0,0,1,.62,1.39V260c0,.55.2.72.42.72a1,1,0,0,0,.43-.13l.12.34Zm-.88-3c-.26.13-.84.38-1.11.5-.46.21-.73.44-.73.88a.87.87,0,0,0,.86.92,1.59,1.59,0,0,0,1-.43Z"/><path class="cls-7" d="M274.63,261.37V261c.69-.07.76-.15.76-1v-2c0-.84-.3-1.41-1.09-1.41a2.08,2.08,0,0,0-1.33.63v2.8c0,.83.07.85.78.92v.34h-2.59V261c.79-.08.86-.13.86-.92v-2.47c0-.78-.08-.81-.73-.92v-.31a7.29,7.29,0,0,0,1.68-.48v.94l.82-.55a1.85,1.85,0,0,1,1-.36c1,0,1.56.71,1.56,1.87v2.28c0,.82.07.85.77.92v.34Z"/><path class="cls-7" d="M282.31,260.29a2.87,2.87,0,0,1-2.05,1.23,2.42,2.42,0,0,1-2.43-2.52,2.85,2.85,0,0,1,1.21-2.35,3.15,3.15,0,0,1,1.83-.69,1.73,1.73,0,0,1,1.11.33.36.36,0,0,1,.19.34.6.6,0,0,1-.43.54c-.06,0-.11,0-.23-.12a1.8,1.8,0,0,0-1.21-.5c-.79,0-1.48.67-1.48,1.92a2,2,0,0,0,1.82,2.22,1.91,1.91,0,0,0,1.46-.66Z"/><path class="cls-7" d="M283,261.37V261c.75-.07.84-.13.84-.94v-2.47c0-.75,0-.79-.76-.91v-.29a8.26,8.26,0,0,0,1.7-.48v4.15c0,.81.09.87.87.94v.34Zm1.24-6.61a.65.65,0,0,1-.63-.63.64.64,0,0,1,.65-.66.63.63,0,0,1,.61.66A.64.64,0,0,1,284.2,254.76Z"/><path class="cls-7" d="M289.66,261.37V261c.7-.07.77-.15.77-1v-2c0-.84-.3-1.41-1.09-1.41a2.08,2.08,0,0,0-1.33.63v2.8c0,.83.07.85.78.92v.34H286.2V261c.79-.08.86-.13.86-.92v-2.47c0-.78-.08-.81-.73-.92v-.31a7.43,7.43,0,0,0,1.68-.48v.94l.81-.55a1.91,1.91,0,0,1,1-.36c1,0,1.56.71,1.56,1.87v2.28c0,.82.07.85.76.92v.34Z"/><path class="cls-7" d="M294.44,259.62a.89.89,0,0,0-.4.6c0,.22.21.46.75.46l1.34,0c.77,0,1.75.26,1.75,1.44s-1.47,2.43-3.07,2.43c-1.35,0-2.09-.8-2.11-1.5a1,1,0,0,1,.3-.69,11.38,11.38,0,0,1,1-.86,1.6,1.6,0,0,1-.9-.65,1.16,1.16,0,0,1-.14-.51,2.55,2.55,0,0,0,1.1-.83Zm.57.12a1.85,1.85,0,0,1-2-1.81,2.06,2.06,0,0,1,2.15-2,2.39,2.39,0,0,1,1.16.3,8.24,8.24,0,0,0,1.6-.18l.08.1a1.55,1.55,0,0,1-.45.64c-.18,0-.57-.05-.74-.06a1.89,1.89,0,0,1,.35,1.09A2,2,0,0,1,295,259.74Zm.28,1.78a1.53,1.53,0,0,0-1.07.25,1.37,1.37,0,0,0-.57,1c0,.66.68,1.15,1.61,1.15,1.13,0,1.78-.59,1.78-1.35a.91.91,0,0,0-.53-.88A3.24,3.24,0,0,0,295.29,261.52Zm-.28-5.21c-.53,0-1,.49-1,1.44s.48,1.61,1.13,1.61,1-.47,1-1.44S295.69,256.31,295,256.31Z"/><path class="cls-7" d="M304.41,253.58a3.4,3.4,0,0,1,2,.51,2,2,0,0,1,.79,1.7,2.48,2.48,0,0,1-2.64,2.46l-.32,0-.83-.22v1.87c0,1,.08,1,1.19,1.15v.34h-3.31V261c1-.1,1.08-.17,1.08-1.17V255.1c0-1.07-.14-1.09-1.08-1.19v-.33Zm-1,4a2,2,0,0,0,.87.16,1.89,1.89,0,0,0-.07-3.77,1,1,0,0,0-.67.15c-.1.08-.13.23-.13.55Z"/><path class="cls-7" d="M311.68,261.52a.88.88,0,0,1-.56-.23,1.14,1.14,0,0,1-.29-.54,3.85,3.85,0,0,1-1.44.77,1.47,1.47,0,0,1-1.46-1.48,1.22,1.22,0,0,1,1-1.2,9.35,9.35,0,0,0,1.9-.78v-.24c0-.85-.44-1.34-1.06-1.34a.69.69,0,0,0-.56.27,2.52,2.52,0,0,0-.33.78.33.33,0,0,1-.35.28.58.58,0,0,1-.52-.53c0-.17.15-.31.39-.48a5.26,5.26,0,0,1,1.73-.84,1.58,1.58,0,0,1,1.62,1.72V260c0,.55.2.72.42.72a1,1,0,0,0,.43-.13l.12.34Zm-.87-3-1.12.5c-.46.21-.73.44-.73.88a.87.87,0,0,0,.86.92,1.61,1.61,0,0,0,1-.43Z"/><path class="cls-7" d="M318.2,256.43c-.65.08-.73.18-1.05.9-.39,1-1.08,2.55-1.7,4.17h-.35c-.5-1.38-1.09-2.8-1.65-4.21-.28-.69-.37-.76-1-.86v-.32h2.45v.32c-.66.08-.69.17-.49.68.3.83.8,2.1,1.14,2.94.43-1.07.82-2.05,1.09-2.82.2-.58.17-.72-.63-.8v-.32h2.19Z"/><path class="cls-7" d="M318.6,261.37V261c.75-.07.84-.13.84-.94v-2.47c0-.75,0-.79-.76-.91v-.29a8.26,8.26,0,0,0,1.7-.48v4.15c0,.81.09.87.87.94v.34Zm1.24-6.61a.65.65,0,0,1-.63-.63.64.64,0,0,1,.65-.66.63.63,0,0,1,.61.66A.64.64,0,0,1,319.84,254.76Z"/><path class="cls-7" d="M321.75,261.37V261c.77-.07.87-.13.87-.92v-5.74c0-.73-.06-.81-.83-.9v-.31a9.14,9.14,0,0,0,1.77-.41v7.36c0,.79.07.85.86.92v.34Z"/><path class="cls-7" d="M325,261.37V261c.76-.07.84-.13.84-.94v-2.47c0-.75,0-.79-.76-.91v-.29a8.36,8.36,0,0,0,1.71-.48v4.15c0,.81.08.87.86.94v.34Zm1.25-6.61a.66.66,0,0,1-.64-.63.64.64,0,0,1,.65-.66.63.63,0,0,1,.61.66A.64.64,0,0,1,326.29,254.76Z"/><path class="cls-7" d="M331,256a2.58,2.58,0,0,1,2.61,2.69,2.69,2.69,0,0,1-2.61,2.87,2.63,2.63,0,0,1-2.66-2.68A2.75,2.75,0,0,1,331,256Zm-.15.41c-.73,0-1.39.71-1.39,2.1s.67,2.63,1.66,2.63c.74,0,1.36-.54,1.36-2.19C332.46,257.51,331.89,256.37,330.83,256.37Z"/><path class="cls-7" d="M337.82,261.37V261c.69-.07.77-.15.77-1v-2c0-.84-.3-1.41-1.1-1.41a2.08,2.08,0,0,0-1.33.63v2.8c0,.83.07.85.78.92v.34h-2.59V261c.79-.08.86-.13.86-.92v-2.47c0-.78-.08-.81-.73-.92v-.31a7.29,7.29,0,0,0,1.68-.48v.94l.82-.55a1.88,1.88,0,0,1,1-.36c1,0,1.56.71,1.56,1.87v2.28c0,.82.07.85.77.92v.34Z"/><line class="cls-8" x1="500.9" y1="224.61" x2="500.9" y2="248.61"/><line class="cls-8" x1="281.4" y1="224.61" x2="281.4" y2="248.61"/><line class="cls-8" x1="627.4" y1="193.11" x2="627.4" y2="248.61"/><line class="cls-8" x1="132.4" y1="206.11" x2="132.4" y2="248.61"/><path class="cls-7" d="M52.81,208.73c0,.15,0,.28,0,.44a2.13,2.13,0,0,1-1,1.87c-.62.44-1.37.88-2,1.26-.39.24-.46.4-.46,1v.42H51.2c1,0,1.08-.13,1.18-1.09h.34v3.2h-.34c-.11-1-.16-1.08-1.18-1.08H46.42c-1,0-1.06.13-1.16,1.08h-.34v-3.06a3.39,3.39,0,0,1,.41-1.92,1.79,1.79,0,0,1,1.58-.81A2.22,2.22,0,0,1,49,211.59c.38-.21,1.18-.73,1.72-1.09a10.42,10.42,0,0,0,1.23-.95,1.79,1.79,0,0,0,.56-.87Zm-3.9,4.42a2,2,0,0,0-.34-1.32,1.69,1.69,0,0,0-1.48-.66A1.62,1.62,0,0,0,45.34,213a1.08,1.08,0,0,0,.12.63c.08.11.2.15.52.15h2.93Z"/><path class="cls-7" d="M47.31,205.63A2.58,2.58,0,0,1,50,203a2.69,2.69,0,0,1,2.87,2.62,2.63,2.63,0,0,1-2.68,2.66A2.74,2.74,0,0,1,47.31,205.63Zm.4.14c0,.73.71,1.39,2.1,1.39s2.63-.67,2.63-1.65c0-.74-.54-1.37-2.18-1.37C48.85,204.14,47.71,204.72,47.71,205.77Z"/><path class="cls-7" d="M47.77,196.83c.1.63.2.76.88,1.06s1.49.62,3.57,1.45a32.87,32.87,0,0,0,3.29,1.19c.25.07.31.2.31.36a.69.69,0,0,1-.57.73c-.16,0-.27-.08-.42-.26a2.73,2.73,0,0,0-.89-.81c-.5-.25-.92-.43-1.08-.49a.69.69,0,0,0-.49,0c-1.37.47-2.84,1.12-3.71,1.48-.66.26-.8.37-.89,1h-.32v-2.42h.32c.09.55.21.61.65.45l2.95-1.16c-.83-.34-2.16-.81-2.91-1.07-.46-.14-.59-.06-.69.64h-.32v-2.2Z"/><path class="cls-7" d="M52.86,192.68a.91.91,0,0,1-.23.57,1.12,1.12,0,0,1-.54.28,3.71,3.71,0,0,1,.77,1.44,1.48,1.48,0,0,1-1.48,1.47,1.24,1.24,0,0,1-1.2-1,9.65,9.65,0,0,0-.77-1.89h-.24c-.86,0-1.35.43-1.35,1.05a.69.69,0,0,0,.28.57,2.69,2.69,0,0,0,.78.32.33.33,0,0,1,.27.35.58.58,0,0,1-.52.53c-.17,0-.32-.16-.48-.4a4.81,4.81,0,0,1-.84-1.73,1.59,1.59,0,0,1,.32-1,1.67,1.67,0,0,1,1.39-.62h2.32c.55,0,.72-.2.72-.42a.88.88,0,0,0-.14-.43l.34-.12Zm-3,.88c.14.26.39.84.51,1.11.2.46.43.73.87.73a.88.88,0,0,0,.93-.86,1.59,1.59,0,0,0-.43-1Z"/><path class="cls-7" d="M52.72,191.34h-.34c-.07-.77-.13-.87-.92-.87H45.71c-.73,0-.8.06-.9.83H44.5a8.11,8.11,0,0,0-.41-1.78h7.37c.79,0,.85-.07.92-.85h.34Z"/><path class="cls-7" d="M52.72,178.42h-.34c-.1-1-.17-1-1.45-1H46c2.19,1,5.62,2.56,6.68,3v.31c-1.1.41-4.39,1.77-6.57,2.68,4.2.2,5.15.21,5.38.21.67,0,.77-.31.85-1.12h.34v2.84h-.34c-.07-.7-.22-1-.86-1.08s-1-.08-5.34-.4c-.62,0-.83.08-.92,1.13h-.34v-2.09L51,180.21l-6.08-2.84v-2.1h.34c.12,1,.22,1.17,1.06,1.14l4.61,0c1.28,0,1.34-.08,1.45-1.13h.34Z"/><path class="cls-7" d="M47.31,172A2.57,2.57,0,0,1,50,169.38,2.69,2.69,0,0,1,52.86,172a2.63,2.63,0,0,1-2.68,2.66A2.74,2.74,0,0,1,47.31,172Zm.4.15c0,.73.71,1.39,2.1,1.39s2.63-.67,2.63-1.66c0-.74-.54-1.36-2.18-1.36C48.85,170.51,47.71,171.08,47.71,172.14Z"/><path class="cls-7" d="M52.72,165.15h-.34c-.07-.69-.16-.76-1-.76h-2c-.84,0-1.4.3-1.4,1.09a2.07,2.07,0,0,0,.62,1.33h2.81c.82,0,.85-.07.92-.78h.34v2.59h-.34c-.08-.79-.13-.86-.92-.86H49c-.78,0-.82.08-.93.73h-.31a6.82,6.82,0,0,0-.48-1.68h.95c-.17-.24-.35-.5-.55-.82a1.77,1.77,0,0,1-.36-1c0-1,.7-1.56,1.87-1.56h2.28c.81,0,.85-.07.92-.77h.34Z"/><path class="cls-7" d="M52.44,156.24a13.28,13.28,0,0,0,.42,1.83h-.92a3,3,0,0,1,.92,1.84c0,.8-.49,1.5-1.8,1.5H48.73c-.64,0-.72.09-.78.39l-.06.34h-.31a15.88,15.88,0,0,0-.21-1.72c.38,0,1,0,1.75,0h1.63c1,0,1.35-.55,1.35-1.09a1.93,1.93,0,0,0-.57-1.3h-2.8c-.64,0-.73.15-.79.56l0,.38h-.31a17.54,17.54,0,0,0-.21-1.88h4c.6,0,.69-.1.71-.56v-.33Z"/><path class="cls-7" d="M52.72,149.05h-.34c-.07-.71-.12-.79-1-.79h-2c-.85,0-1.39.29-1.39,1a2.17,2.17,0,0,0,.62,1.33c.14,0,.29,0,.52,0h2.32c.76,0,.82-.11.89-.77h.34v2.56h-.34c-.07-.74-.12-.85-.91-.85H49.41c-.89,0-1.38.28-1.38,1a2.29,2.29,0,0,0,.62,1.32h2.82c.79,0,.84-.08.91-.77h.34v2.58h-.34c-.07-.79-.12-.86-.91-.86H49c-.77,0-.82.05-.94.72h-.3a6.24,6.24,0,0,0-.48-1.67h1a8.24,8.24,0,0,1-.62-.89,1.63,1.63,0,0,1-.31-.94,1.4,1.4,0,0,1,1-1.31c-.26-.34-.47-.65-.67-.95a1.79,1.79,0,0,1-.31-1c0-.93.67-1.51,1.84-1.51h2.32c.8,0,.84-.07.91-.75h.34Z"/><path class="cls-7" d="M51.7,141.48a2.72,2.72,0,0,1,1.16,2,2.4,2.4,0,0,1-2.58,2.35,3.11,3.11,0,0,1-2.1-.78,2.46,2.46,0,0,1-.87-1.79,1.87,1.87,0,0,1,1.86-1.83c.24,0,.34.05.39.24s.16,1.77.21,3.2c1.6,0,2.26-1,2.26-1.8a2,2,0,0,0-.61-1.39Zm-3.94,2.06c0,.55.52,1.09,1.49,1.26,0-.67,0-1.34,0-2.05,0-.22-.06-.29-.24-.29A1.12,1.12,0,0,0,47.76,143.54Z"/><path class="cls-7" d="M52.72,137.25h-.34c-.07-.69-.16-.76-1-.76h-2c-.84,0-1.4.3-1.4,1.09a2.07,2.07,0,0,0,.62,1.33h2.81c.82,0,.85-.07.92-.78h.34v2.59h-.34c-.08-.79-.13-.86-.92-.86H49c-.78,0-.82.08-.93.73h-.31a6.82,6.82,0,0,0-.48-1.68h.95c-.17-.24-.35-.51-.55-.82a1.8,1.8,0,0,1-.36-1c0-1,.7-1.56,1.87-1.56h2.28c.81,0,.85-.07.92-.77h.34Z"/><path class="cls-7" d="M52.7,131.79a1.24,1.24,0,0,1,.16.52c0,.77-.47,1.17-1.43,1.17H47.94v.83l-.14.05-.35-.32v-.56h-1c-.24-.22-.55-.57-.79-.8l0-.18c.5,0,1.19,0,1.77,0v-1.37a.37.37,0,0,1,.49.07v1.3H51c1,0,1.15-.39,1.15-.7a1.63,1.63,0,0,0-.19-.73l.31-.11Z"/><path class="cls-7" d="M45.26,119.21c.09,1,.15,1.09,1.16,1.09h4.81c1,0,1-.11,1.15-1.09h.34v3.21h-.34c-.12-1-.14-1.09-1.15-1.09h-2.4v4.1h2.4c1,0,1-.09,1.15-1.08h.34v3.21h-.34c-.11-1-.14-1.08-1.15-1.08H46.42c-1,0-1.07.11-1.16,1.08h-.34v-3.21h.34c.08,1,.16,1.08,1.16,1.08h1.91v-4.1H46.42c-1,0-1.08.13-1.16,1.09h-.34v-3.21Z"/><path class="cls-7" d="M52.86,114.73a.88.88,0,0,1-.23.56,1.06,1.06,0,0,1-.54.29,3.71,3.71,0,0,1,.77,1.44,1.47,1.47,0,0,1-1.48,1.46,1.23,1.23,0,0,1-1.2-1,9.65,9.65,0,0,0-.77-1.89h-.24c-.86,0-1.35.43-1.35,1a.69.69,0,0,0,.28.57,2.69,2.69,0,0,0,.78.32.33.33,0,0,1,.27.35.58.58,0,0,1-.52.52c-.17,0-.32-.15-.48-.39a4.89,4.89,0,0,1-.84-1.73,1.64,1.64,0,0,1,.32-1,1.66,1.66,0,0,1,1.39-.61h2.32c.55,0,.72-.2.72-.42a.88.88,0,0,0-.14-.43l.34-.12Zm-3,.88c.14.26.39.84.51,1.11.2.46.43.73.87.73a.88.88,0,0,0,.93-.86,1.59,1.59,0,0,0-.43-1Z"/><path class="cls-7" d="M52.72,113.38h-.34c-.07-.76-.13-.86-.92-.86H45.71c-.73,0-.8.06-.9.83H44.5a8.11,8.11,0,0,0-.41-1.78h7.37c.79,0,.85-.07.92-.85h.34Z"/><path class="cls-7" d="M52.72,110.19h-.34c-.07-.77-.13-.86-.92-.86H45.71c-.73,0-.8.06-.9.83H44.5a8,8,0,0,0-.41-1.78h7.37c.79,0,.85-.07.92-.85h.34Z"/></g></g></svg>