<svg xmlns="http://www.w3.org/2000/svg" viewBox="0 0 198.2 165.65"><defs><style>.cls-1{fill:#182d45;}.cls-2{fill:#1a2f46;}.cls-3{fill:#1f334a;}.cls-4{fill:#fefefe;}.cls-5{fill:#1c3048;}.cls-6{fill:#20354c;}.cls-13,.cls-7,.cls-9{fill:none;}.cls-7{stroke:#f8d069;}.cls-7,.cls-9{stroke-miterlimit:10;stroke-width:2.84px;}.cls-8{fill:#25384f;}.cls-9{stroke:#e3494e;}.cls-10{fill:#25394f;}.cls-11{fill:#293c52;}.cls-12{fill:#fcfcfd;}.cls-14{fill:#1d3249;}.cls-15{fill:#1a2f47;}.cls-16{font-size:11.35px;font-family:MinionPro-Semibold, Minion Pro;font-weight:600;}.cls-17{letter-spacing:-0.09em;}.cls-18{letter-spacing:0em;}.cls-19{letter-spacing:0.01em;}.cls-20{letter-spacing:-0.01em;}.cls-21{letter-spacing:0.01em;}.cls-22{letter-spacing:-0.02em;}.cls-23{letter-spacing:-0.01em;}.cls-24{letter-spacing:-0.01em;}.cls-25{letter-spacing:0.01em;}.cls-26{letter-spacing:0em;}.cls-27{letter-spacing:-0.02em;}.cls-28{letter-spacing:0.01em;}.cls-29{letter-spacing:0em;}.cls-30{letter-spacing:0em;}.cls-31{letter-spacing:0.01em;}.cls-32{letter-spacing:-0.01em;}.cls-33{letter-spacing:0em;}.cls-34{letter-spacing:0.01em;}.cls-35{letter-spacing:-0.02em;}.cls-36{letter-spacing:0em;}.cls-37{letter-spacing:0.01em;}.cls-38{letter-spacing:0.01em;}.cls-39{letter-spacing:0.01em;}.cls-40{letter-spacing:-0.01em;}.cls-41{letter-spacing:0em;}.cls-42{letter-spacing:0.02em;}.cls-43{letter-spacing:-0.01em;}.cls-44{letter-spacing:-0.01em;}.cls-45{letter-spacing:-0.01em;}.cls-46{letter-spacing:0em;}.cls-47{letter-spacing:0em;}.cls-48{letter-spacing:-0.01em;}</style></defs><title>test-icon</title><g id="图层_2" data-name="图层 2"><g id="图层_1-2" data-name="图层 1"><path class="cls-1" d="M99.87,99.12h1a.3.3,0,0,1,.27.14,27.9,27.9,0,0,0,2.68,3.35,17,17,0,0,1,2.27,3,3.6,3.6,0,0,1-.29,4.44c-.25.33-.53.63-.8.94-.11.12-.21.13-.36,0-.61-.47-.62-.46-.38-1.2a3.51,3.51,0,0,0,.16-1.11,1.49,1.49,0,0,0-1.23-1.58,8.21,8.21,0,0,0-1.84-.36c-.23,0-.28,0-.28.26,0,2.36,0,4.72,0,7.08a3,3,0,0,1-.76,2,7.43,7.43,0,0,1-2.26,1.79,8.2,8.2,0,0,1-2.52.91,5.15,5.15,0,0,1-2.67-.09,1.66,1.66,0,0,1-1.13-2,4.41,4.41,0,0,1,1.48-2.11,9,9,0,0,1,4.36-2,3.88,3.88,0,0,1,.68,0c.26,0,.35-.07.35-.34,0-1.83,0-3.65,0-5.48,0-2.43,0-4.87,0-7.3,0-.24,0-.35.32-.33s.6,0,.91,0Zm-5.11,18h-.5c-.18,0-.35,0-.35.29s.18.25.34.26a5.2,5.2,0,0,0,2.14-.33,7.1,7.1,0,0,0,2.47-1.56c.33-.32.66-.62,1-.94.12-.13.22-.28,0-.45s-.29,0-.43,0a.5.5,0,0,0-.07.08c-.35.33-.68.66-1,1A5.86,5.86,0,0,1,94.76,117.08Zm6.79-15.36a.18.18,0,0,0,0,.11,15.17,15.17,0,0,0,1.59,2.07.21.21,0,0,0,.32,0c.1-.1,0-.21,0-.3l-.57-.68a16.17,16.17,0,0,1-1-1.33c-.06-.09-.13-.16-.24-.12S101.54,101.61,101.55,101.72Zm3.5,4.25a.66.66,0,0,0,0-.15,12.9,12.9,0,0,0-.81-1.13.23.23,0,0,0-.27-.07.19.19,0,0,0-.06.27c.28.41.57.81.87,1.21a.15.15,0,0,0,.2,0A.17.17,0,0,0,105.05,106Z"/><path class="cls-1" d="M96.74,105.21c0,1,0,2,0,3a1.43,1.43,0,0,1-.52,1.19,3.72,3.72,0,0,1-2.77,1.05,1,1,0,0,1-.87-.49.94.94,0,0,1,.2-1,3.6,3.6,0,0,1,2.39-1.33c.17,0,.22-.08.23-.26q0-1.56,0-3.12c0-.19-.06-.25-.26-.25q-1.89,0-3.78,0c-.22,0-.29.06-.29.28,0,1.26,0,2.53,0,3.79a1.7,1.7,0,0,1-.67,1.45,3.59,3.59,0,0,1-2.78.93A.94.94,0,0,1,87,110a.75.75,0,0,1,.06-.9,3.17,3.17,0,0,1,1.76-1.33,2.29,2.29,0,0,1,.77-.19c.22,0,.2-.17.2-.32l0-5.12c0-.5,0-.5.51-.5,2,0,4.11,0,6.16,0,.25,0,.31.08.31.31,0,1.09,0,2.18,0,3.27Zm-2-2.57c.2,0,.3-.1.29-.26a.25.25,0,0,0-.27-.25.24.24,0,0,0-.24.26C94.53,102.53,94.6,102.65,94.75,102.64Zm1-.18c0-.18-.09-.28-.25-.27a.24.24,0,0,0-.26.25.26.26,0,0,0,.27.25A.21.21,0,0,0,95.77,102.46Z"/><path class="cls-1" d="M77.36,115.57a3.23,3.23,0,0,0,.83-.25.66.66,0,0,1,1,.55,3.47,3.47,0,0,0,.48,1.6,5.4,5.4,0,0,0,.72.79,9,9,0,0,1,1.49,2,2.62,2.62,0,0,1,.2,1,9.07,9.07,0,0,1,0,1.38,2.43,2.43,0,0,1-.67,1.58,3.3,3.3,0,0,0-.39.65,2.52,2.52,0,0,1-2.2,1.21c-.35,0-.56-.24-.44-.52a.6.6,0,0,1,.48-.31,1.89,1.89,0,0,0,1.67-1.27,7.07,7.07,0,0,0,.52-1.39,3.53,3.53,0,0,0-.45-2.68c-.47-.63-1-1.25-1.42-1.86a2.86,2.86,0,0,1-.41-1.66c0-.33,0-.35-.34-.25-.57.19-1.17.26-1.75.41-.23,0-.45.21-.7.06s-.29-.16-.23-.45a1.72,1.72,0,0,1,1.05-1.2c.53-.29,1-.62,1.57-1a7.52,7.52,0,0,1-2.07-2.39.89.89,0,0,1-.18-.65s0-.14.06-.15.08.05.11.1a7.44,7.44,0,0,0,.92,1.32,5.88,5.88,0,0,0,1.55,1.43.47.47,0,0,1,.08.77,7.33,7.33,0,0,1-1,.88A1.19,1.19,0,0,0,77.36,115.57Z"/><path class="cls-1" d="M85.75,104.87a.45.45,0,0,1,.39.28.56.56,0,0,1-.1.64c-.65.75-1.37,1.43-2.05,2.15a15.45,15.45,0,0,1-2.83,2.39l-.36.2a.23.23,0,0,1-.3,0,.28.28,0,0,1-.08-.3,1.53,1.53,0,0,1,.34-.46c1.53-1.46,2.9-3.07,4.37-4.59A.73.73,0,0,1,85.75,104.87Z"/><path class="cls-1" d="M72.13,104.51a7.51,7.51,0,0,0,3,2.43c.2.09.39.21.59.3s.25.28.26.49a8.89,8.89,0,0,1-.64,2.68,1.06,1.06,0,0,1-.4.68c-.09.06,0,.18,0,.27a2.2,2.2,0,0,1,0,.57c0,.08-.06.15-.17.15s-.13-.08-.15-.16a4.7,4.7,0,0,1,0-1.83c.16-.61.52-1.14.69-1.75.07-.21,0-.33-.17-.4a6.11,6.11,0,0,1-2.61-1.88l-.27-.31A1,1,0,0,1,72.13,104.51Z"/><path class="cls-1" d="M84.24,120c.44,0,.86,0,1.27.06.57,0,1.13.15,1.69.22,1,.12,2,.4,3,.56.52.08,1,.15,1.55.2s.62.25.59.57a.57.57,0,0,1-.68.49,18.46,18.46,0,0,1-3.22-.69l-2.12-.55a8.21,8.21,0,0,1-1.38-.35A2.1,2.1,0,0,1,84.24,120Z"/><path class="cls-1" d="M84.41,114.7c-.21,0-.55.12-.9.08a.57.57,0,0,1-.13,0c-.16-.05-.37-.08-.39-.26s.15-.25.3-.32a4.86,4.86,0,0,1,1-.28c.62-.14,1.25-.2,1.87-.37l1.13-.29c.43-.12.76,0,.87.3a.5.5,0,0,1-.34.66,7.15,7.15,0,0,1-1.89.34A10.5,10.5,0,0,1,84.41,114.7Z"/><path class="cls-2" d="M20.48,35a1.34,1.34,0,0,1-1,.06c-.35,0-.52,0-.48.41a1.11,1.11,0,0,1-.33,1.05c-.28.25,0,1.21.43,1.5a6.54,6.54,0,0,0,2.5,1,15.35,15.35,0,0,0,3.94.31,5.38,5.38,0,0,1,2.31.26,7.65,7.65,0,0,1-1.27.51C28,41.23,28.32,42.9,29,44.36a.94.94,0,0,1,.08.34.39.39,0,0,1-.36.47.42.42,0,0,1-.51-.31c-.33-.84-.66-1.68-1-2.52a5.54,5.54,0,0,0-1-1.6,1.1,1.1,0,0,0-1.09-.42,8.2,8.2,0,0,1-2.75-.11A8.84,8.84,0,0,1,19.09,39,2,2,0,0,1,18,36.84c.1-.5-.21-.94-.16-1.44,0-.16-.23-.25-.42-.26A.88.88,0,0,1,17,35a.38.38,0,0,1-.2-.37c0-.15.13-.2.27-.25.45-.15.92,0,1.36-.16,0,0,0,0,0,0a.09.09,0,0,0,0-.06c-.39-.11-.76-.3-1.17-.38s-.39-.36-.08-.67a3.71,3.71,0,0,0,.76-1.3,19.29,19.29,0,0,1-2.32-.63c-1-.38-1.16-.9-.57-1.78A39.59,39.59,0,0,0,17.84,25a13,13,0,0,1,.86-1.61.66.66,0,0,0,.07-.47,10.58,10.58,0,0,1,1.07-5.36,10.81,10.81,0,0,1,4.06-4.44,13,13,0,0,1,5.88-1.89,14,14,0,0,1,5.12.35c.15,0,.29.11.33-.17.31-1.95,1.55-2.66,3.31-2.92a4.92,4.92,0,0,1,4.89,2.1,3.77,3.77,0,0,1,.65,3.09,3.18,3.18,0,0,1-1.67,2c-.34.21-.3.31,0,.54a5,5,0,0,0,1.67.77c.57.21,1.16.36,1.75.52.14,0,.27.07.24.24s-.18.14-.29.13a7,7,0,0,1-2.11-.5s-.1,0-.11,0,0,.06.06.07c.21.38.65.59.88,1.13-1.1-.54-1.63-1.64-2.73-2.1a12.68,12.68,0,0,1,.5,8.45c-.22.89-.49,1.77-.77,2.63a13,13,0,0,1-.93,2,12.22,12.22,0,0,0-1,3.59,13,13,0,0,0,.9,7.34,5.7,5.7,0,0,0,1.33,2.09c.24.22.15.37,0,.56s-.33,0-.43-.08A5.77,5.77,0,0,1,39.82,41a13.17,13.17,0,0,1-1.14-5A15.07,15.07,0,0,1,40,29.37c.18-.39.33-.79.49-1.19.07-.17.06-.28-.17-.27a5.39,5.39,0,0,1-2.51-.62,3.11,3.11,0,0,1-1.62,2.09,2.53,2.53,0,0,0-1.09,1.88c-.17,1-.49,1.64-1.29,1.83a1.93,1.93,0,0,1-2.29-.92,1.05,1.05,0,0,1-.09-.9c0-.09.07-.24.23-.24s.2.11.25.22a2.1,2.1,0,0,0,.52.76,1,1,0,0,0,1.71-.47,6.61,6.61,0,0,1,.69-1.67c.2-.28-.14-.24-.17-.37a2.36,2.36,0,0,1,.77-.53,3.54,3.54,0,0,0,1.28-1.27,1.34,1.34,0,0,0-.41-1.84,2.31,2.31,0,0,1-.53-.4,2.19,2.19,0,0,0-2-.64,1.43,1.43,0,0,0-1.11.67,3,3,0,0,1-.26.36c-.08.1-.17.24-.32.16a.35.35,0,0,1-.16-.39,1.83,1.83,0,0,1,1.39-1.45l.61-.11a10,10,0,0,1-2.41-2.26.22.22,0,0,0-.3-.09,8.12,8.12,0,0,1-3.91.28c-2.16-.11-4.29-.57-6.43-.86a2.86,2.86,0,0,1-1.31-.41,24.19,24.19,0,0,0-.3,3c-.23.11-.21.33-.22.53a27.5,27.5,0,0,1-3.07,5.34l-.1.15c-.31.48-.3.49.24.68a9.68,9.68,0,0,0,2,.43c.15,0,.33.08.33-.19a.21.21,0,0,1,.26-.19.26.26,0,0,1,.22.24,1.57,1.57,0,0,1-.08.83,6,6,0,0,1-.9,1.84l2.37.49.34.08c.2.07.41.13.45.38s-.14.36-.33.46S20.48,34.9,20.48,35ZM41.89,15.15l-.12,0,0,0,.1-.06v0ZM43,14a.68.68,0,0,0,.44-.92c-.14.17-.08.43-.29.53a3.85,3.85,0,0,0-.8-3.1,2.63,2.63,0,0,0-.5-.44.46.46,0,0,0-.5.07.16.16,0,0,0,0,.24,5.36,5.36,0,0,1,.81,2.24,3.81,3.81,0,0,1,.08,1.84c0,.14,0,.22.15.28s.2,0,.24-.11A1.66,1.66,0,0,1,43,14Zm-1.88,12.2c0-.15-.06-.18-.14-.22l-.72-.36a15.41,15.41,0,0,1-6.17-5.57A9.39,9.39,0,0,1,33,17.57c0-.11-.05-.29-.2-.26s-.1.22-.06.33c.13.41.25.82.42,1.22a13.45,13.45,0,0,0,4.45,5.46,18.84,18.84,0,0,0,3.2,1.92C40.88,26.29,41,26.42,41.08,26.24Zm-6.47-7.67s-.08,0-.1.06,0,.17.05.25c.3.46.57.94.89,1.38a11.4,11.4,0,0,0,4.92,4c.13.05.32.2.4,0s-.15-.21-.28-.26a10.65,10.65,0,0,1-3-1.88,12.65,12.65,0,0,1-2.64-3.27C34.82,18.78,34.77,18.63,34.61,18.57ZM20.49,19.89c.21-.05.19-.25.23-.39a10.05,10.05,0,0,1,3.36-5.11c.11-.09.33-.18.21-.33s-.26,0-.36.11a10,10,0,0,0-3.16,4.33c-.14.35-.25.72-.36,1.09C20.38,19.69,20.32,19.83,20.49,19.89Zm15.66-1.21c-.2.16,0,.27,0,.38a18,18,0,0,0,4.25,3.26c.06,0,.14.08.2,0s0-.17-.06-.22-.15-.1-.22-.15c-1.39-1-3-1.74-4-3.14A.93.93,0,0,0,36.15,18.68ZM42.22,15l0-.07s-.07,0-.08,0a.21.21,0,0,0,0,.07Z"/><path class="cls-3" d="M22.3,24.35l3,.57c.35.06.7.13,1,.21s.66.4.55.7-.47.44-.9.28l-.79-.29c-.31-.12-.39-.06-.32.29.17.73-.09,1.19-.7,1.36a.88.88,0,0,1-1.2-.76,4.72,4.72,0,0,1-.09-1.24c0-.21,0-.32-.26-.36a5.11,5.11,0,0,1-.76-.23c-.13,0-.28-.1-.27-.24s.14-.21.29-.24Z"/><path class="cls-3" d="M37,37.24a.23.23,0,0,1,.14.17,17.74,17.74,0,0,0,2.33,4.89c.09.17.29.33.07.5s-.39,0-.49-.2a12.49,12.49,0,0,1-1.89-4.42A2.3,2.3,0,0,1,37,37.24Z"/><path class="cls-3" d="M36.75,42.15A15.62,15.62,0,0,0,38,43.56c.1.1.18.22.07.34s-.23,0-.31,0A4.12,4.12,0,0,1,36.75,42.15Z"/><path class="cls-3" d="M37.69,41.82c.21.29.41.58.63.86s.27.31.41.47.17.19,0,.3-.23,0-.3-.07a3.07,3.07,0,0,1-.35-.51c-.18-.33-.34-.67-.5-1Z"/><path class="cls-3" d="M19,24.25c0-.2,0-.42.22-.53C19.15,23.91,19.45,24.25,19,24.25Z"/><path class="cls-3" d="M20.48,35c0-.14,0-.26.2-.25C20.66,34.92,20.62,35,20.48,35Z"/><path class="cls-3" d="M18.45,34.16a.09.09,0,0,1,0,.06s0,0,0,0Z"/><path class="cls-3" d="M43,14a.78.78,0,0,1,.15-.39c.21-.1.15-.36.29-.53A.68.68,0,0,1,43,14Z"/><path class="cls-3" d="M42.22,15l-.08,0a.21.21,0,0,1,0-.07s0,0,.08,0Z"/><path class="cls-3" d="M41.9,15.16l-.1.06,0,0,.12,0Z"/><path class="cls-3" d="M41.89,15.15l0,0v0Z"/><path class="cls-4" d="M43.58,17.4s-.09,0-.06-.07.07,0,.11,0Z"/><path class="cls-5" d="M16.72,109.88l.12,0,.63-.28s0,0,0,0l.16,0c.2-.07.22-.17.07-.31a1.72,1.72,0,0,1-.27-.27c-.15-.2-.05-.4,0-.64.14.18.18.39.33.54.32.31.49.34.87.11a13.73,13.73,0,0,1,3.56-1.65,4.91,4.91,0,0,1,1.27-.23,14,14,0,0,1,3.1.16l.22,0-.65-1s-.08-.07-.1-.11-.09-.23,0-.31.18,0,.25.08l.66.73a3.45,3.45,0,0,0,2,1.19,2.77,2.77,0,0,0,1.45-.15,8,8,0,0,0,2.39-1.5c.13-.11.22-.11.33,0s.08.23,0,.33a3.92,3.92,0,0,1-.66.81h1.51a6.71,6.71,0,0,1,3.62,1.09.89.89,0,0,0,1.19,0,4.45,4.45,0,0,0,1.15-1.14l.12-.13s.07-.1.14-.07.06.12,0,.18a1.92,1.92,0,0,1-.45.68,5.52,5.52,0,0,1-1.19.89c-.15.08-.15.11,0,.2l1,.66a.32.32,0,0,0,.38,0,4.59,4.59,0,0,0,1.09-1c.05-.07.11-.13.17-.2s.06,0,.11,0,0,.07,0,.12a1.35,1.35,0,0,1-.45.69,6.22,6.22,0,0,1-.7.66c-.12.09-.08.13,0,.18a6.36,6.36,0,0,0,2,.85,2.28,2.28,0,0,0,1.18-.19,1.94,1.94,0,0,1,.69-.17c-.09.22-.3.3-.47.47a3.62,3.62,0,0,0,1.4-.17c.19,0,.39-.12.58-.18s.16-.06.21,0-.08.11-.12.13a4.23,4.23,0,0,1-3.54.68,4,4,0,0,0-2.26,0,5.26,5.26,0,0,0-1.43.65,4.14,4.14,0,0,1-1,.42c-.69.24-1.36.52-2.06.73a32.66,32.66,0,0,1-4.24,1,20.79,20.79,0,0,1-4.17.14,13.91,13.91,0,0,1-3.19-.59,16.28,16.28,0,0,1-3.3-1.33,6.89,6.89,0,0,1-1.35-.83,2.61,2.61,0,0,0-1.21-.49,10.76,10.76,0,0,0-2.05-.28,6.82,6.82,0,0,0-.79.07,4.6,4.6,0,0,1-2.8-.39c-.34-.18-.7-.31-1-.52l0-.1,1.84.44a.1.1,0,0,0,.1.09,11,11,0,0,0,2.42-.18s0,0,.07-.08a4.15,4.15,0,0,1,.66-.2C16.52,110,16.66,110,16.72,109.88Zm3.31-.41c.08,0,.17,0,.23,0a1.66,1.66,0,0,0,.45-.87c0-.12-.09-.06-.15,0l-1.36.72c-.07,0-.13,0-.11.11s.06.06.1,0,.13,0,.18,0a.11.11,0,0,0,.17,0A.91.91,0,0,1,20,109.47Zm4.86-1.84c-.43,0-.86,0-1.29,0a5.45,5.45,0,0,0-1.27.22c-.08,0-.16.06-.17.17a5.06,5.06,0,0,0-.12.87c0,.51,0,.52.47.67a16.47,16.47,0,0,0,1.82.53c.51.11,1,.14,1.54.21a7.12,7.12,0,0,0,3.21-.27.64.64,0,0,0,.47-.5,6.37,6.37,0,0,1,.1-.63c.08-.27,0-.37-.28-.39a3,3,0,0,1-1.55-.47,2.05,2.05,0,0,0-.87-.3A17.77,17.77,0,0,0,24.89,107.63Zm13.92,2.27a17.37,17.37,0,0,0-1.76-1.12,6,6,0,0,0-3.23-.87c-.68,0-1.37,0-2.05,0-.3,0-.52.09-.49.5a8.85,8.85,0,0,1,0,1,.49.49,0,0,0,.43.56,14.29,14.29,0,0,0,3.11.55,8,8,0,0,0,1.55,0C37.19,110.36,38,110.11,38.81,109.9Z"/><path class="cls-6" d="M12.6,106.08a2,2,0,0,1,.5-.59c1.24-1.19,2.64-2.19,4-3.25a50.49,50.49,0,0,1,4.62-3,6.12,6.12,0,0,1,2.25-.9,3.83,3.83,0,0,1,1.5.16,14.7,14.7,0,0,1,2.15.63,6.05,6.05,0,0,1,1.81,1,1.33,1.33,0,0,1,.38.52c0,.12.1.14.17,0a3.49,3.49,0,0,1,1.63-1.2c.59-.27,1.17-.58,1.77-.79a4.13,4.13,0,0,1,2.9-.06,14,14,0,0,1,4,2.28c.79.62,1.51,1.32,2.28,1.95a35.46,35.46,0,0,1,3.08,3.05c.1.11.18.24.08.35s-.23,0-.32-.1c-1.08-1-2.28-1.79-3.42-2.7a24.27,24.27,0,0,0-4.49-2.9,7.49,7.49,0,0,0-5.24-.57,3,3,0,0,0-1.87,1.13c-.07.11-.17.32-.35.1l0,0c-.27.28-.33-.07-.46-.16a5.56,5.56,0,0,0-1.83-1.09,9.56,9.56,0,0,0-3.53-.25,9,9,0,0,0-2.84.86,34.58,34.58,0,0,0-3.73,2,48.48,48.48,0,0,0-4.32,3.09A2,2,0,0,1,12.6,106.08Z"/><path class="cls-6" d="M15.75,114.65a11.07,11.07,0,0,0,1.67,1.92,12.2,12.2,0,0,0,2,1.61,26.64,26.64,0,0,0,3.92,2.24,17,17,0,0,0,3.4,1.07,14.61,14.61,0,0,0,4.71.17,15.93,15.93,0,0,0,3.51-.92,23.24,23.24,0,0,0,4.64-2.48,41.42,41.42,0,0,0,3.54-2.76c.45-.38.87-.79,1.31-1.19.05,0,.09-.11.19-.08a1.11,1.11,0,0,1-.28.42A17.48,17.48,0,0,1,41.08,118a22.54,22.54,0,0,1-3.44,2.28,17.57,17.57,0,0,1-3.25,1.39,15.87,15.87,0,0,1-3.41.69,13.94,13.94,0,0,1-3,0,16.31,16.31,0,0,1-3.13-.72,19.39,19.39,0,0,1-5.56-3.07A17.68,17.68,0,0,1,17,116.58a14.75,14.75,0,0,1-1.15-1.34A.8.8,0,0,1,15.75,114.65Zm13.06,7.59v0h1.62v0Z"/><path class="cls-6" d="M37.39,102.72a1.5,1.5,0,0,1-.14.72c0,.1-.11.24-.24.2s-.07-.17-.08-.28a10.92,10.92,0,0,0,0-1.4,2.75,2.75,0,0,0-.64-1.26c-.05-.06-.13-.12-.06-.19s.12,0,.17.1a3.64,3.64,0,0,1,.73.88A3.33,3.33,0,0,1,37.39,102.72Z"/><path class="cls-6" d="M38.77,114.92a2.49,2.49,0,0,1-.07,1.68c-.13.49-.28,1-.42,1.47,0,.13-.11.24-.27.21s-.08-.17-.08-.27.13-.35.19-.53a7.88,7.88,0,0,0,.54-2.29C38.66,115.06,38.67,115.06,38.77,114.92Z"/><path class="cls-6" d="M36.25,119.75a6.72,6.72,0,0,0,.68-1.52,14.22,14.22,0,0,0,.58-2.42c.06-.48,0-1,.07-1.43,0-.08-.06-.21.08-.21s.09.14.09.22a10.05,10.05,0,0,1-.16,1.89,11.73,11.73,0,0,1-.93,3c-.07.16-.13.34-.35.37C36.26,119.66,36.22,119.72,36.25,119.75Z"/><path class="cls-6" d="M23.58,101a16.22,16.22,0,0,0-1.15,2.23c-.07.25-.1.52-.15.77,0,.07,0,.16-.09.16s-.07-.09-.09-.15a1.94,1.94,0,0,1,.3-1.5,6.26,6.26,0,0,1,1-1.43C23.43,101.06,23.47,101,23.58,101Z"/><path class="cls-6" d="M39.94,108.52a.38.38,0,0,1,.11-.28A4.47,4.47,0,0,0,41.29,106c0-.08.05-.18.14-.17s.11.11.12.21a1.64,1.64,0,0,1-.29,1.08,6.75,6.75,0,0,1-1,1.24A.87.87,0,0,1,39.94,108.52Z"/><path class="cls-6" d="M22.71,100.31c0,.06,0,.1,0,.11A10.51,10.51,0,0,0,21,103.11,3.59,3.59,0,0,1,22.71,100.31Z"/><path class="cls-6" d="M18.82,116.66a7.22,7.22,0,0,1,.71-2.26c0-.05,0-.16.11-.11s0,.12,0,.17c-.12.51-.27,1-.39,1.52-.08.35-.14.71-.21,1.06,0,.07,0,.18-.1.18s-.1-.12-.11-.2A1.9,1.9,0,0,1,18.82,116.66Z"/><path class="cls-6" d="M40.14,115.38a4.94,4.94,0,0,1-.47,1.5c0,.08-.16.18-.27.11s-.08-.25,0-.35a6.28,6.28,0,0,0,.36-.94c.08-.24.05-.5.14-.74,0-.06,0-.15.11-.14s.06.08.07.13S40.17,115.22,40.14,115.38Z"/><path class="cls-6" d="M15.84,107.27a1.42,1.42,0,0,1,0,.36,1.91,1.91,0,0,0,.45,1.85l.1.1a.15.15,0,0,1,0,.17c-.05.06-.11,0-.15,0a1.52,1.52,0,0,1-.7-1.15,1.73,1.73,0,0,1,.34-1.29Z"/><path class="cls-6" d="M39.09,105.11c.29.61,0,1.18-1,2.33v0h0s0,0,0,0a9.06,9.06,0,0,0,.67-1.17,2,2,0,0,0,.2-1S39,105.13,39.09,105.11Z"/><path class="cls-6" d="M21.3,116.51c0,.42-.19.81-.18,1.23a.19.19,0,0,1-.2.21c-.08,0-.13-.1-.13-.2a4.46,4.46,0,0,1,.36-1.48s.05,0,.09,0,.07,0,.07.08S21.3,116.44,21.3,116.51Z"/><path class="cls-6" d="M28.72,106.08a1.26,1.26,0,0,0,.46.9,5.54,5.54,0,0,0,.93.51c-.34.12-.75,0-1.12-.49C28.77,106.75,28.51,106.47,28.72,106.08Z"/><path class="cls-6" d="M30.25,107.29a3.15,3.15,0,0,0,.91-1,.75.75,0,0,0,.06-.13c0-.08-.06-.28.12-.21a.26.26,0,0,1,.12.35,1.52,1.52,0,0,1-.57.71A1.2,1.2,0,0,1,30.25,107.29Z"/><path class="cls-6" d="M41.61,113.57a4.12,4.12,0,0,1-.09,1.45c-.05.34-.15.67-.23,1,0,0,0,.11-.08.1s-.07-.07-.05-.13a9.8,9.8,0,0,0,.32-2.15A.35.35,0,0,1,41.61,113.57Z"/><path class="cls-6" d="M17.49,109.52s0,0,0,0l-.63.28c.2-.11.1-.2,0-.32a1.45,1.45,0,0,1-.49-1.31c.12,0,.1.11.1.17a1.46,1.46,0,0,0,.57,1A.36.36,0,0,0,17.49,109.52Z"/><path class="cls-6" d="M38.56,102.64c0,.34,0,.6-.32.72s-.26,0-.18-.16a1.79,1.79,0,0,0,.13-.88c0-.08,0-.17.1-.19s.1.08.12.13S38.59,102.54,38.56,102.64Z"/><path class="cls-6" d="M14.61,107.1a3.31,3.31,0,0,0-.58,1.63A1.45,1.45,0,0,1,14.61,107.1Z"/><path class="cls-6" d="M15.72,110.24s0,.07-.07.08a11,11,0,0,1-2.42.18.1.1,0,0,1-.1-.09h1.58c0-.21-.26-.18-.3-.41A1.71,1.71,0,0,0,15.72,110.24Z"/><path class="cls-6" d="M23.79,103a1.94,1.94,0,0,1,.25-.5.76.76,0,0,1,.18-.25c.09-.07.07-.32.24-.22s-.07.17-.1.26a3.45,3.45,0,0,0-.22.64.54.54,0,0,1-.08.21c0,.07-.06.19-.18.15S23.79,103.16,23.79,103Z"/><path class="cls-6" d="M20.28,115.86c.09,0,.07.12,0,.18a5.44,5.44,0,0,0-.25,1.45c0,.05,0,.13-.06.14s-.11-.06-.12-.13a4.06,4.06,0,0,1,.1-.78,6,6,0,0,1,.18-.73A.15.15,0,0,1,20.28,115.86Z"/><path class="cls-6" d="M40.67,114.71a.64.64,0,0,1,.14.61,1.21,1.21,0,0,1-.13.59s0,.11-.09.08a.1.1,0,0,1-.07-.12A4.13,4.13,0,0,0,40.67,114.71Z"/><path class="cls-6" d="M39.12,102.89c.22.22.29.64.13.8s-.09.14-.19.08-.06-.11-.07-.17A1.72,1.72,0,0,1,39.12,102.89Z"/><path class="cls-6" d="M16.72,109.88c-.06.16-.2.15-.34.16A.57.57,0,0,1,16.72,109.88Z"/><path class="cls-6" d="M15.85,107.28c.07,0,0-.16.09-.18s-.11.09-.1.17Z"/><path class="cls-6" d="M19.2,109.27v.13s-.09,0-.1,0S19.13,109.27,19.2,109.27Z"/><path class="cls-6" d="M19.37,109.43a.13.13,0,0,1,.17,0A.11.11,0,0,1,19.37,109.43Z"/><path class="cls-5" d="M28.81,122.24h1.63v0H28.82Z"/><circle class="cls-7" cx="95.96" cy="25.24" r="22.85"/><path class="cls-3" d="M113.73,26.1a2.28,2.28,0,0,1-.82.69,21.34,21.34,0,0,1-4.4,2,4.71,4.71,0,0,1-1.19.21c-.38,0-.65.1-.8.55a12.54,12.54,0,0,1-1.27,2.4,14.42,14.42,0,0,1-1.71,2.46.4.4,0,0,0-.11.42,1.08,1.08,0,0,1,0,.36l.06,3.72a9.78,9.78,0,0,1-.17,2.23c-.07.36-.3.54-.61.47s-.38-.3-.29-.65a9.11,9.11,0,0,0,.18-1.81c0-1.49.05-3,0-4.48a1.54,1.54,0,0,1,.43-1.16,26.26,26.26,0,0,0,2.74-3.87,3.75,3.75,0,0,0,.42-1.13c0-.2.1-.42.4-.23s.31-.08.48-.11a10.32,10.32,0,0,0,2-.42,25.91,25.91,0,0,0,2.57-1c.42-.2.83-.42,1.24-.64a.33.33,0,0,0,.2-.35c0-.41,0-.82,0-1.22a13.84,13.84,0,0,0-.55-2.84A11.44,11.44,0,0,0,110.35,18s-.07-.06-.08-.09-.15-.15,0-.24.15,0,.22.06l.15.09a.22.22,0,0,0,.11,0,.08.08,0,0,0,0-.13,3.15,3.15,0,0,0-.31-.41,16.35,16.35,0,0,0-2.92-2.65,5.09,5.09,0,0,0-2.82-.86.56.56,0,0,0-.6.41,2.21,2.21,0,0,0,.25,2.09c.22.28.51.27.78.32.53.12,1.06.24,1.58.41.7.22.9.48,1,1.24a36.32,36.32,0,0,1,.27,3.9,3.71,3.71,0,0,1,0,.67c0,.18-.18.18-.33.15s-.23-.16-.36-.2a2.77,2.77,0,0,0-2.55.16c-.17.11-.33.21-.34.46s-.1.37-.3.33-.62.06-.67-.28-.43-.55-.73-.66a5.35,5.35,0,0,0-2.38-.31c-.46,0-.91,0-1.37.11s-.66-.15-.76-.62a8.92,8.92,0,0,1-.1-1.54c0-.25-.11-.49-.09-.74a.08.08,0,0,0,0-.08c-.48-.21-.09-.3.06-.4a5.35,5.35,0,0,0,1.94-1.84,1.07,1.07,0,0,0,.17-.6A6.34,6.34,0,0,0,99.88,15,4.16,4.16,0,0,0,98.3,12.9a4.61,4.61,0,0,0-1.67-.73,2,2,0,0,0-1.16.23,3.89,3.89,0,0,0-2.37,2.4,3.37,3.37,0,0,0,0,2.57A3.89,3.89,0,0,0,94.49,19l.53.36c.15.11.16.28,0,.34s-.14.14-.14.24a9.73,9.73,0,0,1-.11,1.79c-.06.28,0,.62-.26.85a.62.62,0,0,1-.5.15,6.69,6.69,0,0,0-3.44.12,4,4,0,0,0-.47.22.37.37,0,0,0-.23.32c0,.31-.3.48-.7.46s-.32-.24-.33-.46a.24.24,0,0,0-.11-.2,2,2,0,0,0-1.33-.54,2.44,2.44,0,0,0-1.51.4c-.22.17-.42,0-.43-.23a21,21,0,0,1,.1-3.07,14.25,14.25,0,0,1,.25-1.95A.89.89,0,0,1,86.6,17c.48-.11,1-.29,1.43-.39a2.25,2.25,0,0,1,.36-.06.6.6,0,0,0,.45-.27,2.09,2.09,0,0,0,.21-2.06.5.5,0,0,0-.56-.42,5,5,0,0,0-3.27,1.38,16.58,16.58,0,0,0-2.33,2.48c0,.06-.1.11-.07.2s.18-.09.26-.14.17-.12.25,0,0,.17,0,.24c-.38.49-.73,1-1.08,1.52a9,9,0,0,0-1.24,3,12.69,12.69,0,0,0-.35,3.3.38.38,0,0,0,.19.37,19.14,19.14,0,0,0,4.06,1.81,3.28,3.28,0,0,0,1.13.21,1.27,1.27,0,0,1,.46.13c.08,0,.14.08.22,0s.32,0,.37.17a16.27,16.27,0,0,0,3,5,5.48,5.48,0,0,0,.34.46.47.47,0,0,1,.13.45,7.18,7.18,0,0,0,0,1.85c0,1.18,0,2.36.06,3.54A5,5,0,0,0,90.65,41a.58.58,0,0,1-.22.66c-.2.07-.57,0-.63-.22a3,3,0,0,1-.13-.72,42.59,42.59,0,0,1,0-5.87.9.9,0,0,0-.31-.66,22.76,22.76,0,0,1-2.16-3.57,5.89,5.89,0,0,1-.56-1.32c0-.13-.11-.16-.22-.17a14.11,14.11,0,0,1-5.12-1.94,5.85,5.85,0,0,1-1.19-.87.71.71,0,0,1-.24-.53A16.38,16.38,0,0,1,80,23.35a13,13,0,0,1,.59-2.4,7.11,7.11,0,0,1,1.59-2.56c.06-.06.18-.12.11-.24a1,1,0,0,1,.19-1,12.22,12.22,0,0,1,2.85-3,6.33,6.33,0,0,1,3.28-1.2,1.67,1.67,0,0,1,1.29,1,5.68,5.68,0,0,1,.2,1.74,2.31,2.31,0,0,1-1.3,1.75,16.5,16.5,0,0,1-1.94.45c-.18,0-.22.13-.24.26-.06.49-.15,1-.17,1.45,0,.71-.15,1.41-.11,2.12,0,.19,0,.26.26.23a2.93,2.93,0,0,1,2.48.48.35.35,0,0,0,.49,0,5.25,5.25,0,0,1,2.52-.84l1.64-.08c.17,0,.34.18.46,0s-.07-.3-.06-.46c0-.5-.16-1-.09-1.48,0-.17-.1-.21-.2-.26A3.09,3.09,0,0,1,92,17.21a4.68,4.68,0,0,1,0-1.75,4.71,4.71,0,0,1,1.41-2.81,4.22,4.22,0,0,1,2.14-1.16,3.53,3.53,0,0,1,1.77,0,5.05,5.05,0,0,1,3.38,2.95,4.17,4.17,0,0,1,.06,3.32A3.24,3.24,0,0,1,99,19.31c-.21.1-.29.15-.28.43a4.65,4.65,0,0,1-.15,1.43c0,.13-.1.3,0,.41s.23,0,.34,0a2.41,2.41,0,0,1,1,0c.54.08,1.07.05,1.61.14a7,7,0,0,1,1.36.46,2.54,2.54,0,0,1,.77.43c.06.06.12,0,.2,0a3.26,3.26,0,0,1,2.83-.58c.16,0,.25,0,.25-.2a17,17,0,0,0-.17-2.57,7.77,7.77,0,0,0-.13-1.08c0-.11,0-.24-.21-.25a7,7,0,0,1-1.37-.31c-.17,0-.34-.05-.51-.08a1.85,1.85,0,0,1-1.28-1,2.65,2.65,0,0,1-.21-2.13,1.83,1.83,0,0,1,.92-1.27,1.5,1.5,0,0,1,.86-.1,6.65,6.65,0,0,1,3.1,1.12A12.15,12.15,0,0,1,111,17.16c.2.26.46.59.21,1-.08.12.06.19.14.27A7.11,7.11,0,0,1,113,21c.2.54.34,1.1.51,1.65a1,1,0,0,1,0,.24c.08.29,0,.62.18.88V26.1Z"/><path class="cls-8" d="M98.33,40l-.07,0A6,6,0,0,1,98,38.87c0-.42-.1-.84-.13-1.25-.07-.88,0-1.77,0-2.65a.84.84,0,0,1,.8-.82,2.64,2.64,0,0,1,.4,0,.25.25,0,0,1,.26.21c0,.16-.06.24-.19.31a.2.2,0,0,1-.11,0c-.67.09-.79.23-.79.91s0,1.26,0,1.89a5.74,5.74,0,0,0,.1,1.09c.11.61.33.81,1,.86.4,0,.54.14.48.38s-.37.18-.57.17a1.14,1.14,0,0,1-.45-.15C98.41,39.69,98.41,39.7,98.33,40Z"/><path class="cls-8" d="M99.23,32.12a3.4,3.4,0,0,1-1.07-.6,2.7,2.7,0,0,1-1.08-2.29c0-.4,0-.81,0-1.22,0-.18,0-.35.24-.35s.29.16.29.35c0,.48,0,1,0,1.46a1.65,1.65,0,0,0,.82,1.39c.35.26.73.49,1.09.74a.31.31,0,0,1,.11.38C99.59,32.14,99.45,32.13,99.23,32.12Z"/><path class="cls-8" d="M94.88,28.28c0-.19,0-.38,0-.57s.08-.17.2-.18.15.06.19.18A2.72,2.72,0,0,1,95,30a4.4,4.4,0,0,1-1.57,1.69l-.08,0c-.19,0-.43.21-.55,0s.16-.25.29-.35A5.1,5.1,0,0,0,94.83,29a.57.57,0,0,0,0-.14C94.88,28.65,94.88,28.47,94.88,28.28Z"/><path class="cls-8" d="M94.15,34.67a.65.65,0,0,1,1,.12,3.38,3.38,0,0,1,.48,1.27,9.38,9.38,0,0,1,.1,2.24c0,.28-.08.54-.11.81a.42.42,0,0,1-.19.27c-.22.17-.5.22-.71.43s-.26,0-.34-.1,0-.2.12-.27.25-.27.4-.32c.35-.14.38-.42.44-.73a5.91,5.91,0,0,0-.25-2.86A1.1,1.1,0,0,0,94.15,34.67Z"/><path class="cls-8" d="M113.73,26.1V23.82a8.15,8.15,0,0,1,.12,1.91A.71.71,0,0,1,113.73,26.1Z"/><path class="cls-8" d="M113.73,23.72c-.23-.26-.1-.59-.18-.88C113.74,23.11,113.66,23.43,113.73,23.72Z"/><circle class="cls-9" cx="159.26" cy="109.92" r="22.53"/><path class="cls-10" d="M171.22,106.85a.21.21,0,0,0,0,.24c.11.06.13.14,0,.22a1,1,0,0,0,.09.55l.28.22a3,3,0,0,0,0-1.11.11.11,0,0,1,0-.19,1.27,1.27,0,0,0,0-.67c-.23-.14-.12-.34-.1-.53a.21.21,0,0,0,0-.23c-.11-.06-.15-.12,0-.22a.24.24,0,0,0-.06-.23,5.45,5.45,0,0,1-.56-1.71l-.08-.26a2.88,2.88,0,0,1-.69-1.37,1.18,1.18,0,0,0-.37-.61c-.16,0-.2-.12-.18-.27v0l0,0c-.15,0-.2-.11-.18-.25l-.15-.19a.3.3,0,0,1-.3-.34,1.08,1.08,0,0,0-.46-.53,1.61,1.61,0,0,1-.87-.87.71.71,0,0,0-.41-.35.3.3,0,0,1-.35-.28.06.06,0,0,0-.08,0c-.14,0-.23,0-.25-.19a.23.23,0,0,0-.19-.14c-.26,0-.5-.08-.58-.38L165.5,97c-.28,0-.52-.06-.61-.37A13,13,0,0,0,157,95.22a11.12,11.12,0,0,0-3.3.74,10.66,10.66,0,0,0-6.12,7.29,16.3,16.3,0,0,0,1.14,11.42,12.2,12.2,0,0,0,1.16,2.17,5.24,5.24,0,0,1,.84,2.73,9.2,9.2,0,0,1-1.69,6.16,14.47,14.47,0,0,0-1.07,1.78,1.91,1.91,0,0,0,1.82-1,9.06,9.06,0,0,0,2-6.17c0-.39,0-.77,0-1.15a7.54,7.54,0,0,0-1-3.36,16.17,16.17,0,0,1-2.46-8.69,11.44,11.44,0,0,1,3.19-8.33c.42-.42.9-.78,1.36-1.18,0-.16.13-.19.27-.17l.28-.17c0-.16.13-.18.27-.16A.57.57,0,0,0,154,97a5.6,5.6,0,0,1,2.61-.79.21.21,0,0,0,.24,0,.27.27,0,0,1,.44,0,.38.38,0,0,0,.34,0c.23-.26.5-.18.76,0h.78c.19-.13.38-.19.54,0a.9.9,0,0,0,.56.07c.08-.11.15-.08.21,0a.38.38,0,0,0,.36,0c.18,0,.39-.13.52.11l.23,0a.55.55,0,0,1,.75.21l.26.06a2.73,2.73,0,0,1,1.61.69l.15.08c.14,0,.26,0,.29.17a.89.89,0,0,0,.48.27c.14,0,.26,0,.29.17s0,.05.07,0,.24,0,.25.18,0,0,.08,0a.3.3,0,0,1,.36.28.06.06,0,0,0,.08,0,.31.31,0,0,1,.37.29.18.18,0,0,0,.17.15q.36,0,.36.33a.1.1,0,0,0,.11.1.81.81,0,0,1,.66.67l.79,1c.16,0,.21.11.19.26l.28.4c.3.08.36.32.38.59a.05.05,0,0,0,0,.07c.2,0,.23.2.31.34a12.56,12.56,0,0,1,1.1,2.9A2.58,2.58,0,0,1,171.22,106.85Z"/><path class="cls-11" d="M171.63,108.08l-.28-.22c0,.19-.15.25-.32.13s-.33-.19-.49,0,0,.35,0,.52a13.79,13.79,0,0,0,.95,1.67c.75,1.19,1.53,2.36,2.22,3.58.21.38.15.61-.22.79a3.38,3.38,0,0,1-2,.63c-.41-.06-.39.3-.29.58.17.45.34.89.54,1.32s.1.5-.26.66a11.23,11.23,0,0,0-2.2,1.08c-.22.16-.42.33-.34.63s.37.37.66.36l1,0c.29,0,.39.09.24.35a3,3,0,0,0-.18,2.13c.18,1.08.09,1.25-.93,1.63a33.44,33.44,0,0,1-5.12,1.22l-1.76.38c-1.66.34-2.25,2.21-2.34,3.36a.45.45,0,0,0,.5.52c.33,0,.38-.27.39-.55a4.47,4.47,0,0,1,.5-1.89.77.77,0,0,1,.68-.44,28.28,28.28,0,0,0,7.79-1.9,1.61,1.61,0,0,0,1.13-2c0-.37-.08-.73-.14-1.09a1.94,1.94,0,0,1,.41-1.49.92.92,0,0,1,.85-.39c.19,0,.46-.13.31-.3s0-.75-.55-.54c-.26.1-.48.28-.8.15.18-.37.59-.38.88-.54a.79.79,0,0,0,.35-1.18c-.13-.3-.49-.61-.35-.87s.56-.28.84-.44c.49-.27,1-.56,1.46-.86a.78.78,0,0,0,.24-1.15,49.76,49.76,0,0,0-3-4.5A1.69,1.69,0,0,1,171.63,108.08Z"/><path class="cls-11" d="M161,112.55a8.19,8.19,0,0,1-1.41-.89c-.33-.21-.64-.45,0-.67a2.19,2.19,0,0,0,.33-.22l-1.18-.07a8.68,8.68,0,0,1-4.21-1.4,3.17,3.17,0,0,1-1.5-4,4.39,4.39,0,0,1,1.92-2.58,9,9,0,0,1,4.28-1.57c.12,0,.24,0,.35-.06s0-.06.15-.2a10.61,10.61,0,0,0-1.39,0c-2.47.37-4.62,1.27-5.79,3.69a4.67,4.67,0,0,0-.34,2.76,2.76,2.76,0,0,0,1.11,1.84,9.15,9.15,0,0,0,4.37,2,.65.65,0,0,1,.41.21,13.06,13.06,0,0,0,3.25,2.31,1.49,1.49,0,0,0,.45.15c.47.08.7-.18.53-.63a6.47,6.47,0,0,0-.36-.69,4.51,4.51,0,0,1-.65-1.53c0-.12-.06-.26-.19-.27s-.23.13-.27.27a2.18,2.18,0,0,0,.26,1.39c0,.06.08.13,0,.18S161,112.57,161,112.55Z"/><path class="cls-11" d="M161.64,110.28a1.28,1.28,0,0,0,1.36-.15,4.62,4.62,0,0,0,1.66-6,5.69,5.69,0,0,0-2.74-2.88,1.23,1.23,0,0,0-1-.12.28.28,0,0,0-.2.27c0,.1.08.12.16.14a4.39,4.39,0,0,1,2.87,2.49,3.82,3.82,0,0,1-.74,5C162.56,109.45,162.11,109.84,161.64,110.28Z"/><path class="cls-10" d="M168.41,110.46c0-.41-.08-.87-.15-1.32s-.39-.57-.8-.51-.65.24-.62.72a7.16,7.16,0,0,0,.11,2,.88.88,0,0,0,.92.66c.48-.07.54-.42.54-.81C168.42,111,168.41,110.74,168.41,110.46Z"/><path class="cls-11" d="M161.08,107.07a.77.77,0,0,0,.77-.87c0-.62-.34-1-.86-.93a.81.81,0,0,0-.78.94A.82.82,0,0,0,161.08,107.07Z"/><path class="cls-11" d="M157.54,106.14a.77.77,0,0,0,.76.88.7.7,0,0,0,.78-.72,1,1,0,0,0-.77-1A.82.82,0,0,0,157.54,106.14Z"/><path class="cls-11" d="M156.66,106.36a1,1,0,0,0-1-.93c-.48,0-.65.35-.64.78a.88.88,0,0,0,.9.9A.72.72,0,0,0,156.66,106.36Z"/><path class="cls-11" d="M171.22,106.85a2.58,2.58,0,0,0-.18-1.23,12.56,12.56,0,0,0-1.1-2.9c-.08-.14-.11-.32-.31-.34A18.6,18.6,0,0,1,171.22,106.85Z"/><path class="cls-11" d="M156.63,96.16A5.6,5.6,0,0,0,154,97Z"/><path class="cls-11" d="M164.23,97.27a2.73,2.73,0,0,0-1.61-.69Z"/><path class="cls-11" d="M170.83,103.19a5.45,5.45,0,0,0,.56,1.71A4.16,4.16,0,0,0,170.83,103.19Z"/><path class="cls-11" d="M170.06,101.56a2.88,2.88,0,0,0,.69,1.37A4.42,4.42,0,0,0,170.06,101.56Z"/><path class="cls-11" d="M167.51,98.44a1.61,1.61,0,0,0,.87.87A2.5,2.5,0,0,0,167.51,98.44Z"/><path class="cls-11" d="M168,100.09a.81.81,0,0,0-.66-.67A2.8,2.8,0,0,0,168,100.09Z"/><path class="cls-11" d="M158.41,96c-.26-.13-.53-.21-.76,0A2,2,0,0,0,158.41,96Z"/><path class="cls-11" d="M162.36,96.52a.55.55,0,0,0-.75-.21A1.66,1.66,0,0,0,162.36,96.52Z"/><path class="cls-11" d="M164.89,96.61c.09.31.33.37.61.37A1.25,1.25,0,0,0,164.89,96.61Z"/><path class="cls-11" d="M169.59,102.31c0-.27-.08-.51-.38-.59A1.43,1.43,0,0,0,169.59,102.31Z"/><path class="cls-11" d="M165.65,97.05c.08.3.32.35.58.38A1.21,1.21,0,0,0,165.65,97.05Z"/><path class="cls-11" d="M159.73,96c-.16-.23-.35-.17-.54,0A.83.83,0,0,0,159.73,96Z"/><path class="cls-11" d="M157.31,96.1a.27.27,0,0,0-.44,0A.56.56,0,0,0,157.31,96.1Z"/><path class="cls-11" d="M161.38,96.27c-.13-.24-.34-.12-.52-.11A.6.6,0,0,0,161.38,96.27Z"/><path class="cls-11" d="M171.51,105.58c0,.19-.13.39.1.53A.63.63,0,0,0,171.51,105.58Z"/><path class="cls-11" d="M166.2,98.5a.3.3,0,0,0-.36-.28A.51.51,0,0,0,166.2,98.5Z"/><path class="cls-11" d="M168.84,99.84a.3.3,0,0,0,.3.34A.47.47,0,0,0,168.84,99.84Z"/><path class="cls-11" d="M166.75,97.81a.3.3,0,0,0,.35.28A.44.44,0,0,0,166.75,97.81Z"/><path class="cls-11" d="M167.18,99.32q0-.36-.36-.33A.72.72,0,0,0,167.18,99.32Z"/><path class="cls-11" d="M166.65,98.84a.31.31,0,0,0-.37-.29A.55.55,0,0,0,166.65,98.84Z"/><path class="cls-11" d="M169.29,100.37c0,.14,0,.24.18.25A.28.28,0,0,0,169.29,100.37Z"/><path class="cls-11" d="M169.51,100.68c0,.15,0,.25.18.27A.34.34,0,0,0,169.51,100.68Z"/><path class="cls-11" d="M168.93,101.32c0-.15,0-.24-.19-.26A.32.32,0,0,0,168.93,101.32Z"/><path class="cls-11" d="M165.76,98.18c0-.15-.11-.19-.25-.18A.29.29,0,0,0,165.76,98.18Z"/><path class="cls-11" d="M165.44,98c0-.17-.15-.19-.29-.17A.37.37,0,0,0,165.44,98Z"/><path class="cls-11" d="M166.42,97.57c0,.16.11.2.25.19A.3.3,0,0,0,166.42,97.57Z"/><path class="cls-11" d="M153.09,97.46c-.14,0-.25,0-.27.17A.31.31,0,0,0,153.09,97.46Z"/><path class="cls-11" d="M171.45,105.13c-.11.1-.07.16,0,.22A.16.16,0,0,0,171.45,105.13Z"/><path class="cls-11" d="M164.67,97.52c0-.17-.15-.19-.29-.17A.39.39,0,0,0,164.67,97.52Z"/><path class="cls-11" d="M153.64,97.13c-.14,0-.24,0-.27.16A.3.3,0,0,0,153.64,97.13Z"/><path class="cls-11" d="M160.5,96.13c-.06-.1-.13-.13-.21,0A.15.15,0,0,0,160.5,96.13Z"/><path class="cls-11" d="M171.65,106.78a.11.11,0,0,0,0,.19C171.72,106.91,171.73,106.84,171.65,106.78Z"/><path class="cls-11" d="M171.26,107.31c.11-.08.09-.16,0-.22A.2.2,0,0,0,171.26,107.31Z"/><path class="cls-12" d="M160.77,112.12s.11,0,.12,0,0-.12,0-.18Z"/><path class="cls-13" d="M159.17,28.34a13.15,13.15,0,0,0,3.57.53,8.42,8.42,0,0,0,5.31-1.76,7.91,7.91,0,0,0,1.13-1.32l-1.58-1.58A22.64,22.64,0,0,1,159.17,28.34Z"/><path class="cls-13" d="M159.17,28.34a13.15,13.15,0,0,0,3.57.53,8.42,8.42,0,0,0,5.31-1.76,2.93,2.93,0,0,0,.46-.47l-2-1.66A22.5,22.5,0,0,1,159.17,28.34Z"/><path class="cls-13" d="M167.6,24.21l-.13.1,1.67,1.53a.1.1,0,0,1,0-.05Z"/><path class="cls-14" d="M140.91,37.76c-.35-.43-.18-.71.18-1,2.88-2.75,5.88-5.36,8.85-8,1.16-1,2.23-2.16,3.33-3.25.25-.25.51-.48.77-.71s.27-.18.41,0,.06.31-.06.44l-1.5,1.59c-2.47,2.67-5.23,5-7.94,7.44l-3.69,3.32C141.15,37.6,141.06,37.73,140.91,37.76Z"/><path class="cls-14" d="M137.92,21.23c-.28,0-.3-.09-.26-.2a2.53,2.53,0,0,1,.57-1.19,80.72,80.72,0,0,1,7.48-6.73,14.1,14.1,0,0,1,2.6-1.58c.15-.07.34-.18.45,0s-.07.34-.2.45q-1.67,1.35-3.32,2.71c-2.42,2-4.69,4.18-7,6.28C138.08,21.07,138,21.22,137.92,21.23Z"/><path class="cls-14" d="M141.92,26.73a2.68,2.68,0,0,1,.82-1.43,23.92,23.92,0,0,1,3-2.8c1.68-1.45,3.34-2.92,5-4.37a6.18,6.18,0,0,1,1.39-.94c.19-.09.39-.16.53,0s0,.34-.14.48c-1,1-2.08,1.86-3.11,2.8-1.89,1.72-4,3.17-5.93,4.83C143,25.79,142.42,26.25,141.92,26.73Z"/><path class="cls-14" d="M161.07,26.59a.41.41,0,0,1,.43.26.31.31,0,0,1-.1.44c-2.25,1.53-3.64,3.9-5.57,5.75-1,1-2.11,2-3.12,3-.07.08-.16.22-.29.07s0-.22.09-.31a31.26,31.26,0,0,1,2.37-2.88c1.33-1.46,2.57-3,3.86-4.5a9,9,0,0,1,1.7-1.57A1.22,1.22,0,0,1,161.07,26.59Z"/><path class="cls-15" d="M170.14,26.77a6.83,6.83,0,0,0,.73-1.21l-3.19-3.2s-.45.43-1.25,1A178.65,178.65,0,0,0,150.77,11s-.83,0,.83,1.66c.87.87,7.37,6,13.87,11.46a20.58,20.58,0,0,1-11.3,3.51h-.07a17.91,17.91,0,0,0,8.63,2.64c.4,0,.8,0,1.2-.07a9.67,9.67,0,0,0,2.73-.68,9.44,9.44,0,0,0,2.23-1.3,4.89,4.89,0,0,0,.65-.65c4.43,3.82,8.27,7.36,9.5,9.2h.83L179,35.9C176.17,32.65,173.13,29.58,170.14,26.77Zm-2.09.34a8.42,8.42,0,0,1-5.31,1.76,13.15,13.15,0,0,1-3.57-.53A22.5,22.5,0,0,0,166.55,25c.35-.24.66-.46.92-.67l.13-.1,1.58,1.58a.1.1,0,0,0,0,.05c-.21.29-.43.57-.63.8A2.93,2.93,0,0,1,168.05,27.11Z"/><path class="cls-15" d="M175,21.4c1.45-2.14,3.58-4.84,5.38-7a17.5,17.5,0,0,0-1.21-2c-2.17,1.86-5.1,4.18-7.37,5.74-3.35,2.28-3.38,3.38-3.38,3.38l3.2,3.2S172.72,24.75,175,21.4Z"/><circle class="cls-9" cx="160.19" cy="25.24" r="22.85"/><circle class="cls-7" cx="93.65" cy="109.92" r="22.53"/><circle class="cls-7" cx="30.1" cy="24.27" r="22.85"/><circle class="cls-7" cx="28.72" cy="109.92" r="22.53"/><text class="cls-16" transform="translate(0 62.8)"><tspan class="cls-17">W</tspan><tspan class="cls-18" x="10" y="0">e</tspan><tspan class="cls-19" x="14.87" y="0">l</tspan><tspan x="18.01" y="0">l-</tspan><tspan class="cls-20" x="25.01" y="0">f</tspan><tspan class="cls-21" x="28.49" y="0">e</tspan><tspan class="cls-22" x="33.49" y="0">a</tspan><tspan class="cls-23" x="38.48" y="0">t</tspan><tspan x="42.02" y="0">u</tspan><tspan class="cls-24" x="48.22" y="0">r</tspan><tspan class="cls-25" x="52.56" y="0">e</tspan><tspan class="cls-26" x="57.58" y="0">d</tspan></text><text class="cls-16" transform="translate(69.05 62.8)"><tspan class="cls-27">S</tspan><tspan class="cls-28" x="5.41" y="0">y</tspan><tspan x="10.77" y="0">mmetr</tspan><tspan class="cls-29" x="42.77" y="0">i</tspan><tspan class="cls-25" x="46.05" y="0">c</tspan><tspan class="cls-30" x="50.95" y="0">a</tspan><tspan x="56.19" y="0">l</tspan></text><text class="cls-16" transform="translate(139.05 62.87)"><tspan class="cls-31">E</tspan><tspan class="cls-32" x="6.69" y="0">d</tspan><tspan class="cls-33" x="12.72" y="0">u</tspan><tspan class="cls-34" x="18.97" y="0">c</tspan><tspan class="cls-35" x="23.87" y="0">a</tspan><tspan class="cls-24" x="28.87" y="0">t</tspan><tspan class="cls-25" x="32.45" y="0">e</tspan><tspan x="37.48" y="0">d</tspan></text><text class="cls-16" transform="translate(7.57 148.88)"><tspan class="cls-36">A</tspan><tspan class="cls-37" x="7.89" y="0">r</tspan><tspan class="cls-26" x="12.46" y="0">t</tspan><tspan class="cls-29" x="16.16" y="0">i</tspan><tspan class="cls-38" x="19.44" y="0">c</tspan><tspan class="cls-39" x="24.31" y="0">u</tspan><tspan class="cls-29" x="30.6" y="0">l</tspan><tspan class="cls-35" x="33.7" y="0">a</tspan><tspan class="cls-24" x="38.7" y="0">t</tspan><tspan x="42.28" y="0">e</tspan></text><text class="cls-16" transform="translate(74.91 147.94)"><tspan class="cls-40">P</tspan><tspan class="cls-41" x="6.58" y="0">l</tspan><tspan class="cls-38" x="9.68" y="0">e</tspan><tspan x="14.68" y="0">a</tspan><tspan class="cls-30" x="19.85" y="0">s</tspan><tspan class="cls-40" x="24.19" y="0">a</tspan><tspan class="cls-20" x="29.3" y="0">n</tspan><tspan class="cls-26" x="35.51" y="0">t </tspan></text><text class="cls-16" transform="translate(123.07 147.94)"><tspan class="cls-42">C</tspan><tspan class="cls-43" x="7.83" y="0">o</tspan><tspan class="cls-44" x="13.61" y="0">m</tspan><tspan class="cls-45" x="22.94" y="0">p</tspan><tspan class="cls-24" x="28.92" y="0">r</tspan><tspan class="cls-18" x="33.26" y="0">e</tspan><tspan x="38.13" y="0">h</tspan><tspan class="cls-46" x="44.3" y="0">e</tspan><tspan class="cls-18" x="49.19" y="0">n</tspan><tspan class="cls-47" x="55.48" y="0">s</tspan><tspan class="cls-41" x="59.73" y="0">i</tspan><tspan class="cls-45" x="63.01" y="0">o</tspan><tspan x="68.79" y="0">n</tspan></text><text class="cls-16" transform="translate(80.22 158.76)"><tspan class="cls-39">s</tspan><tspan class="cls-48" x="4.37" y="0">o</tspan><tspan x="10.17" y="0">und</tspan></text></g></g></svg>