<svg xmlns="http://www.w3.org/2000/svg" viewBox="0 0 50.68 50.68"><defs><style>.cls-1{fill:none;stroke:#c42c2c;stroke-miterlimit:10;stroke-width:2px;}.cls-2{fill:#1a2f46;}.cls-3{fill:#2c3f55;}.cls-4{fill:#22364d;}.cls-5{fill:#fdfdfd;}</style></defs><title>dancer</title><g id="图层_2" data-name="图层 2"><g id="图层_1-2" data-name="图层 1"><circle class="cls-1" cx="25.34" cy="25.34" r="24.34"/><path class="cls-2" d="M17.93,24.38a.19.19,0,0,1,.16-.08c.09,0,.17,0,.19-.09a.38.38,0,0,1,.24-.11c.08,0,.15,0,.18-.08a.16.16,0,0,1,.16-.07c.09,0,.16,0,.19-.1a.43.43,0,0,1,.25-.1c.19,0,.39,0,.51-.22a.19.19,0,0,1,.17-.06,2.34,2.34,0,0,0,1-.41,1.15,1.15,0,0,0,.58-.55,1.16,1.16,0,0,0,.31-.81,3.2,3.2,0,0,0-.06-1.07c0-.1-.19-.37.17-.21a.42.42,0,0,1,.23.35c-.07.06,0,.1,0,.13a.15.15,0,0,1,0,.16,2.62,2.62,0,0,0,0,.79s0,0,0,0h0c.09.34.35.12.52.16s.07,0,.09,0,.21.17.35.09l.14,0a.64.64,0,0,0,.45.21.33.33,0,0,1,.25.13.11.11,0,0,0,.14.08.56.56,0,0,1,.28.16c0,.16.16.18.29.19l.06,0c0,.08.07.11.15.1a.43.43,0,0,1,.26.18c0,.08.07.1.15.1l.13.09a.19.19,0,0,0,.24.18,1.1,1.1,0,0,1,.39.32c.07.17.15.28.29.06a1,1,0,0,1,.24-.44.12.12,0,0,0,.09-.15.06.06,0,0,1,0-.06c.1,0,.12-.08.11-.16a.26.26,0,0,1,.12-.18.12.12,0,0,0,.1-.14.14.14,0,0,1,.09-.14.12.12,0,0,0,.11-.15,1.06,1.06,0,0,1,.31-.41.12.12,0,0,0,.11-.15.37.37,0,0,1,.17-.2.19.19,0,0,0,.18-.21,3.09,3.09,0,0,1,.76-.77c.08,0,.17,0,.12-.12l-.11-.29a.13.13,0,0,0-.11-.15,0,0,0,0,1,0,0c0-.14,0-.22-.18-.23a.15.15,0,0,1-.09-.13.19.19,0,0,0-.18-.22.5.5,0,0,1-.17-.21c0-.08,0-.13-.1-.14a1.27,1.27,0,0,1-.32-.47c0-.13,0-.26-.18-.3s-.11-.1-.1-.18a.56.56,0,0,0-.24-.45,9.36,9.36,0,0,1-.95-3.41.92.92,0,0,0-.31.36A4.83,4.83,0,0,1,24.81,16a1.16,1.16,0,0,1-.4.2.21.21,0,0,1-.22-.07c-.08-.09,0-.15.06-.2s.23-.23.35-.34a6.25,6.25,0,0,0,1.09-1.26,2.32,2.32,0,0,0,.38-1.62.77.77,0,0,0-.61-.78,1.39,1.39,0,0,1-.21-.11.3.3,0,0,0-.49.08,2.79,2.79,0,0,0-.7.67l-.08.11-.07-.08v-.19a1.48,1.48,0,0,1,.51-.6.14.14,0,0,0,.14-.12c.1-.09.08-.18,0-.27a.12.12,0,0,0-.14-.1l-.15-.1c0-.08-.06-.11-.14-.11a4.52,4.52,0,0,1-.9-.79.19.19,0,0,0-.19-.19A5.35,5.35,0,0,1,22,9c0-.08,0-.13-.11-.14a.59.59,0,0,1-.17-.27c0-.08,0-.13-.1-.15a.4.4,0,0,1-.11-.2.34.34,0,0,0-.15-.29,1.74,1.74,0,0,1-.28-.67A.43.43,0,0,0,21,6.9l0-.15c.07-.06,0-.1,0-.13a3.64,3.64,0,0,1-.15-.8c0-.15.13-.34-.09-.45l-.34.08a.32.32,0,0,0-.32.12,12,12,0,0,0-1.54.83,7.27,7.27,0,0,0-1.92,2.24.28.28,0,0,0-.15.31.58.58,0,0,1-.13.31.3.3,0,0,0-.12.35l0,.14c-.09.05-.08.12-.06.19V10a.15.15,0,0,0-.06.19v.09c-.07,0-.09.08,0,.14l0,.21c-.15.13-.11.27,0,.41V12c-.08.13-.13.26.06.34a.15.15,0,0,1,0,.21c-.15.16,0,.29.06.42l0,.06s0,0,0,0,0,.15.06.19l0,.15-.14.14a.5.5,0,0,1-.13-.32,1.07,1.07,0,0,0-.23-.67.83.83,0,0,1-.06-.44c0-.16.09-.33-.07-.47a2.72,2.72,0,0,1,0-.9c.14-.14.07-.31.06-.47a.15.15,0,0,1,0-.16c.06,0,.08-.08,0-.13l0-.14a1.12,1.12,0,0,0,.21-.68A.63.63,0,0,1,16,8.78a.28.28,0,0,0,.14-.32l0-.1c.14,0,.16-.16.17-.29a.07.07,0,0,1,0-.06c.1,0,.12-.08.1-.17l.17-.24a.13.13,0,0,0,.12-.16l.1-.12A.12.12,0,0,0,17,7.17a2.1,2.1,0,0,1,.7-.69.66.66,0,0,0,.42-.33A.37.37,0,0,1,18.41,6c.24,0,.37-.16.5-.32l.06,0a8.49,8.49,0,0,0,1.26-.59.86.86,0,0,1,.44-.12c.1,0,.21.05.26-.08h.15a.81.81,0,0,0,.75-.14h.28s0,.08.05.08c.59,0,1.16.2,1.74.15h.16a.16.16,0,0,0,.19.06.25.25,0,0,1,.23.06c.09.15.24.15.39.15a1.3,1.3,0,0,1,.51.26.2.2,0,0,0,.23.17.62.62,0,0,1,.33.24C26,6,26,6,26.08,6h0a.41.41,0,0,0,.35.34h0a.19.19,0,0,0,.2.21.37.37,0,0,1,.15.2.67.67,0,0,0,.33.5s0,0,0,0a.54.54,0,0,0,.23.44.47.47,0,0,1,.12.3,4.82,4.82,0,0,0,.36,1.23l0,.14c-.07.06-.05.1,0,.14v.16a1.8,1.8,0,0,0,.23.81l0,.35c-.05.16-.05.31.16.34a.12.12,0,0,1,.12.08.2.2,0,0,0,.18.21l.05.09a.26.26,0,0,0,.17.33.33.33,0,0,1,.1.23,2.44,2.44,0,0,0,.27.88.31.31,0,0,1,0,.21c-.05,0-.1,0-.09.07s.05.07.1.07h0a3.71,3.71,0,0,1,.75.55l.05.15a1.25,1.25,0,0,0,.22.75l0,.21c-.07.06-.06.11,0,.14a.14.14,0,0,0,0,.06l0,0a1.45,1.45,0,0,1-.05.3c-.05.18,0,.23.2.23a.11.11,0,0,1,.11.08.2.2,0,0,0,.18.21l0,.09c0,.17,0,.32.17.39l.17.31c.11.19.33.28.43.48s.1.4.28.54l0,.14c0,.23-.09.5.13.69l.09.09a.22.22,0,0,0,.2.2h0c0,.09,0,.18.12.19l.16.1c.21.27.53.23.81.3l.1,0a6.79,6.79,0,0,0,1.48.67.23.23,0,0,1,.19.09c0,.17.18.19.33.18a.36.36,0,0,1,.23.11c0,.15.16.17.3.17l.18.11c.09.24.31.26.51.31a.52.52,0,0,1,.26.17.19.19,0,0,0,.24.18.44.44,0,0,1,.15.08,14.94,14.94,0,0,1,5.33,7.54c0,.1,0,.21.19.23s.09.22.09.34A17,17,0,0,1,42.59,33a26.55,26.55,0,0,1-6,12.1c-.67.81-1.4,1.57-2.11,2.36a4.41,4.41,0,0,1-.76.59c-.3.23-.69.08-1,.21-.25-.44-.87-.35-1.14-.77a.19.19,0,0,0-.23-.2.27.27,0,0,1-.13-.13.39.39,0,0,0-.32-.37l-.1-.11a.19.19,0,0,0-.18-.24.13.13,0,0,1-.09-.13c0-.13,0-.25-.2-.29a.13.13,0,0,1-.08-.12c0-.13,0-.25-.18-.29a.21.21,0,0,1-.1-.19c0-.08,0-.14-.1-.16a.31.31,0,0,1-.12-.23c0-.15,0-.28-.18-.33a0,0,0,0,1,0,0,.9.9,0,0,0-.3-.72.51.51,0,0,1-.06-.3.34.34,0,0,1,0-.1c0-.11-.29-.09-.1-.23s.08-.32.29-.26l.2,0a1.14,1.14,0,0,0,.73-.38.73.73,0,0,1,.34-.17c.13,0,.24,0,.29-.18l.2-.1c.17,0,.35-.06.43-.26a.18.18,0,0,1,.13-.09c.07,0,.14,0,.13-.1s-.05-.09-.11-.1,0,0,0-.05,0-.15-.11-.16a0,0,0,0,1,0-.06c0-.13,0-.25-.18-.29a15.23,15.23,0,0,0-2-2.48.2.2,0,0,0-.2-.17,0,0,0,0,1,0,0,.16.16,0,0,1,.15-.11,6.89,6.89,0,0,1,1.84,1.81c.24.33.46.67.69,1a1.54,1.54,0,0,0,.43.49c.13.09.39.21.22.49,0,0,0,.15.09.22a15.48,15.48,0,0,1,1.78,4.06c.06.25.15.21.29.06,3.47-3.85,6.22-8.11,7.39-13.24.05-.2.05-.2,0-.33h0l.42-1.95a1.75,1.75,0,0,0-.21-1c-.25-.63-.44-1.29-.72-1.92a15.52,15.52,0,0,0-4.17-5.55,18.46,18.46,0,0,0-4.2-2.37c-.07,0-.15-.08-.19,0s0,.16.09.19.24.07.36.11a.33.33,0,0,1,.26.43.34.34,0,0,1-.41.23.42.42,0,0,1-.17-.05c-.49-.38-1.11-.55-1.59-1a.59.59,0,0,0-.4-.16H29.43c-.07,0-.18,0-.21.07s.05.12.08.18a1.37,1.37,0,0,0,.34.34.39.39,0,0,1,.14.5c-.09.19-.25.19-.42.12s-.24,0-.32.13A9.41,9.41,0,0,0,26.72,25c0,.14-.1.27-.27.28s-.24-.1-.29-.25a1.19,1.19,0,0,0-.41-.51,13.88,13.88,0,0,0-2.44-1.71,2.55,2.55,0,0,0-.95-.32c-.13,0-.3,0-.23.18s-.35.4-.32.7c-.42.05-.55.44-.81.68,0,0-.06-.05-.06-.06,0-.4,0-.4-.34-.24a38.72,38.72,0,0,0-9.41,5.88c-2.35,1.9-4.57,3.94-6.79,6a3.36,3.36,0,0,1-.29.24c-.08.06-.16.11-.25,0a.17.17,0,0,1,0-.25A5.79,5.79,0,0,1,4.29,35a67.22,67.22,0,0,1,11.13-9.27c.15-.1.32-.18.48-.27s.35-.07.43-.26a0,0,0,0,1,.05,0c.08,0,.14,0,.16-.1l.1-.05c.14,0,.27,0,.31-.18a.21.21,0,0,1,.19-.09.28.28,0,0,0,.3-.17.8.8,0,0,1,.34-.18C17.85,24.46,17.9,24.45,17.93,24.38ZM30.25,43.23c-.09,0-.17,0-.2.08s-.23.09-.36.12-.22.1-.2.26-.11,0-.08.06.08,0,.13.08l.18.44c0,.15,0,.28.18.32a.22.22,0,0,1,.1.17c0,.1,0,.17.11.19a1.41,1.41,0,0,1,.3.46c0,.09,0,.15.12.16a14.47,14.47,0,0,0,1.09,1.26,2.71,2.71,0,0,0,1.73.8c.32,0,.69-.36.62-.66a16.21,16.21,0,0,0-1.76-4.44c-.1-.17-.18-.19-.35-.09a5.61,5.61,0,0,1-1.27.64c-.09,0-.16,0-.19.09A.2.2,0,0,1,30.25,43.23ZM26.5,13.51a10,10,0,0,0,2.31,6,.26.26,0,0,0,.31.1,4,4,0,0,1,1-.16c.4,0,.71,0,.81-.57.06-.33.08-.53-.22-.72a5.27,5.27,0,0,1-1.31-1.89.84.84,0,0,1-.05-.31A.38.38,0,0,0,29,15.5a2,2,0,0,1-1-.64,1.18,1.18,0,0,1-.32-1c.09-.4-.12-.6-.36-.83a2.34,2.34,0,0,1-.37-.29.56.56,0,0,0-.45-.09c-.16,0,0,.22-.06.33S26.5,13.32,26.5,13.51Z"/><path class="cls-2" d="M13.15,45.22c.67-.35.92-1,1.29-1.61a62.55,62.55,0,0,0,4.2-7.33,29.83,29.83,0,0,0,1.28-3.16c0-.11,0-.35.19-.29a.36.36,0,0,1,.23.42c-.06.27-.16.54-.23.8s-.16.32.09.4c0,0,.07.1.05.12-.19.27.05.45.16.65a26.89,26.89,0,0,1,1.51,3.16,4.1,4.1,0,0,0,1,1.38c.34.33.59.23.93.12.68-.24,1.37-.45,2.06-.66.25-.08.35-.13.1-.37a7.72,7.72,0,0,1-.62-.75.17.17,0,0,1,0-.22c.05-.06.13,0,.19,0a.79.79,0,0,1,.27.15,6.46,6.46,0,0,0,.95.7c.32.18.3.25,0,.5a3.3,3.3,0,0,1-1,.54l-3.14,1.15a2.07,2.07,0,0,0-.67.37,5.2,5.2,0,0,0,2.06-.12,6,6,0,0,1,2-.38,1.2,1.2,0,0,1-.55.44,6.69,6.69,0,0,1-2.56.62,3.78,3.78,0,0,0-.74.17c-.19,0-.14.17,0,.25a.84.84,0,0,0,.57.21c.19,0,.42,0,.42.27S23,43,22.79,43a1.25,1.25,0,0,1-1-.49.45.45,0,0,1,0-.56.3.3,0,0,0-.09-.45.69.69,0,0,1-.13-.2c-.19-.3-.16-.42.14-.58.48-.25.48-.25.25-.72a10.28,10.28,0,0,1-.54-1.33,13.63,13.63,0,0,0-1-2.36,3,3,0,0,1-.37-1,2.87,2.87,0,0,0-.13-.38,2.55,2.55,0,0,0-.33.69,39.16,39.16,0,0,1-5,8.61A2.18,2.18,0,0,1,13.15,45.22Z"/><path class="cls-2" d="M29.35,38.32a.16.16,0,0,0-.15.11l-.18-.1c-.12-.07-.24-.25-.35-.17s.06.22.08.35a.32.32,0,0,1-.14.36.27.27,0,0,1-.35-.06l-1.2-1.26a.87.87,0,0,1-.19-.28c-.1-.36-.31-.38-.6-.23a1.26,1.26,0,0,0-.66.54c0,.05-.06.12-.12.09s-.09-.08-.1-.13a.41.41,0,0,1,.12-.44,2.18,2.18,0,0,1,.73-.47c.53-.23.73-.17,1,.31a5.83,5.83,0,0,0,.77.8c.1.1.16.06.24,0a54.38,54.38,0,0,1,6.63-6.6,4.92,4.92,0,0,1,1-.67c.1-.05.23-.15.32,0s0,.22-.13.29L34.7,32c-1.43,1.27-2.77,2.64-4.14,4-.58.57-1.17,1.12-1.76,1.68-.19.19-.25.33.08.44A.85.85,0,0,1,29.35,38.32ZM28.56,38c-.07,0-.11.06-.1.12s0,.08.09.08.08-.06.07-.11S28.61,38,28.56,38Z"/><path class="cls-2" d="M29.4,43.07c-.21-.06-.18.18-.29.26s.12.12.1.23a.34.34,0,0,0,0,.1.54.54,0,0,0-.56-.15,11.57,11.57,0,0,1-2,.09A.53.53,0,0,0,26,44a7.09,7.09,0,0,1-.5,1,1.36,1.36,0,0,1-1.31.74c-.43,0-.58-.27-.48-.68a2.24,2.24,0,0,1,.32-.66c.42-.74.79-1.52,1.28-2.23-.18-.09-.28.05-.39.12a7.56,7.56,0,0,1-.9.45c-.13.05-.26.06-.33-.09s0-.25.15-.29c.65-.21,1.17-.7,1.86-.86a4.11,4.11,0,0,0,1.05-.6c.13-.08.29-.26.41-.05s-.11.26-.23.36l-.09.05a3.27,3.27,0,0,0-1.68,1.86c-.25.61-.56,1.2-.84,1.79,0,.08-.1.16,0,.23s.15,0,.22,0a1,1,0,0,0,.56-.54,21.3,21.3,0,0,1,1.16-2.22c.15-.24.28-.45.63-.28.15.08.27-.08.39-.17s.26-.15.36,0,0,.25-.16.33c-.31.18-.67.28-.84.64,0,.08-.13.16-.07.25s.15,0,.23,0l1.63-.1c.05,0,.1,0,.14,0,.27.1.55.36.73-.11C29.28,42.92,29.39,43,29.4,43.07Z"/><path class="cls-2" d="M31.63,23c.22,1.3-.59,2-1.44,2.59a7,7,0,0,1-4.58,1.12,7.86,7.86,0,0,1-3.83-1.12,2.74,2.74,0,0,1-1-.93c0-.06-.21-.09-.07-.2s.14,0,.19.07a6,6,0,0,0,2.67,1.36,8.24,8.24,0,0,0,6-.55,5.49,5.49,0,0,0,1.88-1.77A5.74,5.74,0,0,0,31.63,23Z"/><path class="cls-2" d="M16,13.53l.14-.14c.09.07,0,.39.32.14s.21.09.21.22a8.7,8.7,0,0,1-.14,1.35c-.08.53-.14,1.06-.22,1.58,0,.22.06.31.26.32a1.63,1.63,0,0,0,.95-.09c.17-.1.26,0,.29.16a.34.34,0,0,1,0,.1c0,.27-.09.64.12.79s.51.05.77.05a2.56,2.56,0,0,1,.62.07c.11,0,.2.08.22.2a.23.23,0,0,1-.16.27l-.72.31c.54.28.59.81.74,1.27a.39.39,0,0,0,.42.29c.31,0,.62,0,.94,0a1.62,1.62,0,0,1-1.07.45.6.6,0,0,1-.58-.38,2.6,2.6,0,0,1-.23-.58,1.05,1.05,0,0,0-.76-.89l-.26-.12c-.06,0-.13-.07-.11-.15s.09-.06.15-.06.21.05.27-.08-.19,0-.28-.06c-.49,0-.57-.1-.52-.6,0-.29-.06-.37-.34-.34a4.47,4.47,0,0,1-1-.1.37.37,0,0,1-.35-.47c.09-.7.2-1.4.36-2.09A1.65,1.65,0,0,0,16,13.53Z"/><path class="cls-3" d="M29.83,19.93a1.68,1.68,0,0,1,.56.26,7.87,7.87,0,0,1,1.47,1.47.27.27,0,0,1,0,.43c-.17.16-.33.07-.45-.08a11.57,11.57,0,0,0-.82-1c-.25-.27-.43-.68-.91-.66-.09,0-.11-.11-.1-.2S29.71,20,29.83,19.93Z"/><path class="cls-2" d="M22,20.42c-.36-.16-.15.11-.17.21-.26-.3-.25-.36.06-.54a18,18,0,0,0,2.17-1.62c.08-.06.14-.13.22-.18a.22.22,0,0,1,.31,0,.21.21,0,0,1-.06.31c-.27.23-.55.46-.84.67a9,9,0,0,1-1.57,1C22,20.28,22,20.32,22,20.42Z"/><path class="cls-2" d="M19.45,14.8h0c-.23,0-.58,0-.59-.28s.35-.23.56-.26a1,1,0,0,0,.63-.33c.1-.11.2-.23.31-.33a.29.29,0,0,1,.41,0,.29.29,0,0,1,.05.41A1.6,1.6,0,0,1,19.45,14.8Z"/><path class="cls-2" d="M19.65,12a2.63,2.63,0,0,1,1,.16c.16.06.3.16.24.36s-.23.22-.4.15a4,4,0,0,0-2-.19c-.09,0-.23.05-.25-.09s.1-.14.18-.18A3,3,0,0,1,19.65,12Z"/><path class="cls-3" d="M23.9,4.93c-.58.05-1.15-.18-1.74-.15,0,0,0,0-.05-.08A5.16,5.16,0,0,1,23.9,4.93Z"/><path class="cls-3" d="M35,20.34a6.79,6.79,0,0,1-1.48-.67A5.81,5.81,0,0,1,35,20.34Z"/><path class="cls-3" d="M20.23,5.05A8.49,8.49,0,0,1,19,5.64,3.39,3.39,0,0,1,20.23,5.05Z"/><path class="cls-3" d="M31.81,17.91c-.18-.14-.2-.36-.28-.54s-.32-.29-.43-.48C31.61,17,31.68,17.49,31.81,17.91Z"/><path class="cls-3" d="M27.85,9.27A4.82,4.82,0,0,1,27.49,8,3,3,0,0,1,27.85,9.27Z"/><path class="cls-3" d="M21,23.06a2.34,2.34,0,0,1-1,.41A3.47,3.47,0,0,1,21,23.06Z"/><path class="cls-3" d="M30,13.94a3.71,3.71,0,0,0-.75-.55A.78.78,0,0,1,30,13.94Z"/><path class="cls-3" d="M21.83,4.7a.81.81,0,0,1-.75.14A2.37,2.37,0,0,1,21.83,4.7Z"/><path class="cls-3" d="M22.26,21.85a2.62,2.62,0,0,1,0-.79A1.08,1.08,0,0,1,22.26,21.85Z"/><path class="cls-3" d="M29.22,13a2.44,2.44,0,0,1-.27-.88A1.48,1.48,0,0,1,29.22,13Z"/><path class="cls-3" d="M29.26,44a.9.9,0,0,1,.3.72A1.7,1.7,0,0,1,29.26,44Z"/><path class="cls-3" d="M33.37,19.63c-.28-.07-.6,0-.81-.3A3.28,3.28,0,0,1,33.37,19.63Z"/><path class="cls-3" d="M21.89,21.7a1.16,1.16,0,0,1-.31.81Z"/><path class="cls-3" d="M30.33,42.67a1.14,1.14,0,0,1-.73.38A3.63,3.63,0,0,1,30.33,42.67Z"/><path class="cls-3" d="M28.14,10.52a1.8,1.8,0,0,1-.23-.81A1.65,1.65,0,0,1,28.14,10.52Z"/><path class="cls-3" d="M30.23,14.84a1.25,1.25,0,0,1-.22-.75A1.52,1.52,0,0,1,30.23,14.84Z"/><path class="cls-3" d="M32,18.74c-.22-.19-.09-.46-.13-.69A1.19,1.19,0,0,1,32,18.74Z"/><path class="cls-3" d="M15.67,12.54a1.07,1.07,0,0,1,.23.67A1.35,1.35,0,0,1,15.67,12.54Z"/><path class="cls-3" d="M15.89,9.15a1.12,1.12,0,0,1-.21.68A1.47,1.47,0,0,1,15.89,9.15Z"/><path class="cls-3" d="M18.91,5.67c-.13.16-.26.33-.5.32A1.2,1.2,0,0,1,18.91,5.67Z"/><path class="cls-3" d="M36.69,21.31c-.2,0-.42-.07-.51-.31A1.28,1.28,0,0,1,36.69,21.31Z"/><path class="cls-3" d="M27.11,7.25a.67.67,0,0,1-.33-.5A1,1,0,0,1,27.11,7.25Z"/><path class="cls-3" d="M18.14,6.15a.66.66,0,0,1-.42.33A.73.73,0,0,1,18.14,6.15Z"/><path class="cls-3" d="M30.43,15.81c-.16,0-.25-.05-.2-.23a1.45,1.45,0,0,0,.05-.3C30.43,15.43,30.21,15.68,30.43,15.81Z"/><path class="cls-3" d="M24.76,11.94a.3.3,0,0,1,.49-.08A1.62,1.62,0,0,0,24.76,11.94Z"/><path class="cls-3" d="M22.78,22.07c-.17,0-.43.18-.52-.16C22.4,22.08,22.64,21.94,22.78,22.07Z"/><path class="cls-3" d="M26.43,6.34A.41.41,0,0,1,26.08,6,.77.77,0,0,1,26.43,6.34Z"/><path class="cls-3" d="M30.91,46.82a.39.39,0,0,1,.32.37A.77.77,0,0,1,30.91,46.82Z"/><path class="cls-3" d="M19.81,23.53c-.12.18-.32.19-.51.22A1.22,1.22,0,0,1,19.81,23.53Z"/><path class="cls-3" d="M27.37,7.74a.54.54,0,0,1-.23-.44A.78.78,0,0,1,27.37,7.74Z"/><path class="cls-3" d="M16.33,25.24c-.08.19-.26.22-.43.26A.91.91,0,0,1,16.33,25.24Z"/><path class="cls-3" d="M15.54,11.63c.16.14.07.31.07.47A.64.64,0,0,1,15.54,11.63Z"/><path class="cls-3" d="M23.81,22.43a.64.64,0,0,1-.45-.21A.7.7,0,0,1,23.81,22.43Z"/><path class="cls-3" d="M15.61,10.26c0,.16.08.33-.06.47A.6.6,0,0,1,15.61,10.26Z"/><path class="cls-3" d="M31.59,42c-.08.2-.26.23-.43.26A.91.91,0,0,1,31.59,42Z"/><path class="cls-3" d="M15.89,11.07c-.07-.14-.11-.28,0-.41A.94.94,0,0,1,15.89,11.07Z"/><path class="cls-3" d="M20.68,5.37c.22.11.06.3.09.45C20.66,5.69,20.73,5.52,20.68,5.37Z"/><path class="cls-3" d="M27.16,18a.56.56,0,0,1,.24.45A1,1,0,0,1,27.16,18Z"/><path class="cls-3" d="M30.93,16.58c-.18-.07-.18-.22-.17-.39A.6.6,0,0,1,30.93,16.58Z"/><path class="cls-3" d="M16.05,13c-.08-.13-.21-.26-.06-.42C16,12.68,16.08,12.81,16.05,13Z"/><path class="cls-3" d="M16,12.33c-.19-.08-.14-.21-.06-.34Z"/><path class="cls-3" d="M23.22,22.17c-.14.08-.24,0-.35-.09A.44.44,0,0,1,23.22,22.17Z"/><path class="cls-3" d="M21,6.9a.43.43,0,0,1,.13.37A.5.5,0,0,1,21,6.9Z"/><path class="cls-3" d="M24.87,5.21c-.15,0-.3,0-.39-.15A.61.61,0,0,1,24.87,5.21Z"/><path class="cls-3" d="M16.16,9.61a.3.3,0,0,1,.12-.35A.55.55,0,0,1,16.16,9.61Z"/><path class="cls-3" d="M28.33,11.21c-.21,0-.21-.18-.16-.34Z"/><path class="cls-3" d="M26.44,24.06c-.14.22-.22.11-.29-.06C26.25,24,26.32,24.13,26.44,24.06Z"/><path class="cls-3" d="M35.47,20.61c-.15,0-.28,0-.33-.18A.5.5,0,0,1,35.47,20.61Z"/><path class="cls-3" d="M21.4,7.94a.34.34,0,0,1,.15.29A.38.38,0,0,1,21.4,7.94Z"/><path class="cls-3" d="M17,24.89c0,.17-.17.19-.31.18A.55.55,0,0,1,17,24.89Z"/><path class="cls-3" d="M20,5.57a.32.32,0,0,1,.32-.12A.45.45,0,0,1,20,5.57Z"/><path class="cls-3" d="M28.85,11.92a.26.26,0,0,1-.17-.33A.7.7,0,0,1,28.85,11.92Z"/><path class="cls-3" d="M16.41,9a.28.28,0,0,1,.15-.31A.46.46,0,0,1,16.41,9Z"/><path class="cls-3" d="M24.77,23c-.13,0-.25,0-.29-.19A.48.48,0,0,1,24.77,23Z"/><path class="cls-3" d="M31,42.32c-.05.15-.16.17-.29.18A.47.47,0,0,1,31,42.32Z"/><path class="cls-3" d="M16.17,8.46a.28.28,0,0,1-.14.32A.47.47,0,0,1,16.17,8.46Z"/><path class="cls-3" d="M30.34,46.05c.16,0,.18.16.2.29A.43.43,0,0,1,30.34,46.05Z"/><path class="cls-3" d="M36,20.89c-.14,0-.26,0-.3-.17A.6.6,0,0,1,36,20.89Z"/><path class="cls-3" d="M16.39,8.07c0,.13,0,.24-.17.29A.42.42,0,0,1,16.39,8.07Z"/><path class="cls-3" d="M17.44,24.63a.28.28,0,0,1-.3.17A.42.42,0,0,1,17.44,24.63Z"/><path class="cls-3" d="M31.4,41.11c.15,0,.17.16.18.29A.5.5,0,0,1,31.4,41.11Z"/><path class="cls-3" d="M30.08,45.64c.15,0,.17.16.18.29A.45.45,0,0,1,30.08,45.64Z"/><path class="cls-3" d="M29.58,44.73c.17.05.19.18.18.33A.54.54,0,0,1,29.58,44.73Z"/><path class="cls-3" d="M27.5,18.6c.15,0,.17.17.18.3A.47.47,0,0,1,27.5,18.6Z"/><path class="cls-3" d="M31.36,47.32a.19.19,0,0,1,.23.2A.38.38,0,0,1,31.36,47.32Z"/><path class="cls-3" d="M25.61,5.64a.2.2,0,0,1-.23-.17A.29.29,0,0,1,25.61,5.64Z"/><path class="cls-3" d="M25.76,23.68a.19.19,0,0,1-.24-.18A.37.37,0,0,1,25.76,23.68Z"/><path class="cls-3" d="M26.63,6.55a.19.19,0,0,1-.2-.21A.32.32,0,0,1,26.63,6.55Z"/><path class="cls-3" d="M23,10.17a.19.19,0,0,1,.19.19A.3.3,0,0,1,23,10.17Z"/><path class="cls-3" d="M29.23,38.46a.2.2,0,0,1,.2.17A.25.25,0,0,1,29.23,38.46Z"/><path class="cls-3" d="M32.27,19a.22.22,0,0,1-.2-.2A.26.26,0,0,1,32.27,19Z"/><path class="cls-3" d="M30.63,46.47a.19.19,0,0,1,.18.24A.4.4,0,0,1,30.63,46.47Z"/><path class="cls-3" d="M37.19,21.66a.19.19,0,0,1-.24-.18A.36.36,0,0,1,37.19,21.66Z"/><path class="cls-3" d="M30.72,16.1a.2.2,0,0,1-.18-.21A.23.23,0,0,1,30.72,16.1Z"/><path class="cls-3" d="M28.27,19.72a.19.19,0,0,1,.18.22A.35.35,0,0,1,28.27,19.72Z"/><path class="cls-3" d="M28.1,21.67a.19.19,0,0,1-.18.21A.29.29,0,0,1,28.1,21.67Z"/><path class="cls-3" d="M28.54,20.07c.14,0,.19.09.18.23A.58.58,0,0,1,28.54,20.07Z"/><path class="cls-3" d="M28.63,11.5a.2.2,0,0,1-.18-.21A.26.26,0,0,1,28.63,11.5Z"/><path class="cls-3" d="M31.74,41.67c.06,0,.11,0,.11.1s-.06.1-.13.1Z"/><path class="cls-3" d="M20.93,4.85c-.05.13-.16.09-.26.08A.31.31,0,0,1,20.93,4.85Z"/><path class="cls-3" d="M24,12.72l.08-.11s.09.08,0,.13A.06.06,0,0,1,24,12.72Z"/><path class="cls-3" d="M32.4,19.23c-.12,0-.12-.1-.12-.19S32.38,19.16,32.4,19.23Z"/><path class="cls-3" d="M26.08,6C26,6,26,6,25.94,5.88A.14.14,0,0,1,26.08,6Z"/><path class="cls-3" d="M20.92,6.62c.07,0,.1.07,0,.13A.09.09,0,0,1,20.92,6.62Z"/><path class="cls-3" d="M17,7.17a.12.12,0,0,1-.11.15A.16.16,0,0,1,17,7.17Z"/><path class="cls-3" d="M16.81,7.44a.13.13,0,0,1-.12.16A.19.19,0,0,1,16.81,7.44Z"/><path class="cls-3" d="M16.52,7.84c0,.09,0,.16-.1.17A.19.19,0,0,1,16.52,7.84Z"/><path class="cls-3" d="M28,19.37c.08,0,.1.06.1.14A.15.15,0,0,1,28,19.37Z"/><path class="cls-3" d="M30.28,15.19c-.08,0-.09-.08,0-.14S30.31,15.14,30.28,15.19Z"/><path class="cls-3" d="M29.21,13.38c-.05,0-.1,0-.1-.07s0-.07.09-.07Z"/><path class="cls-3" d="M28.76,20.34a.13.13,0,0,1,.11.15A.16.16,0,0,1,28.76,20.34Z"/><path class="cls-3" d="M22.26,20.9c-.07,0-.1-.07,0-.13A.11.11,0,0,1,22.26,20.9Z"/><path class="cls-3" d="M29,20.78c.05.12,0,.12-.12.12Z"/><path class="cls-3" d="M16.13,13.24c-.09,0-.08-.12-.06-.19A.17.17,0,0,1,16.13,13.24Z"/><path class="cls-3" d="M16,10.45c-.07-.06-.05-.1,0-.14A.11.11,0,0,1,16,10.45Z"/><path class="cls-3" d="M18.28,24.21c0,.1-.1.11-.19.09A.23.23,0,0,1,18.28,24.21Z"/><path class="cls-3" d="M17.93,24.38c0,.07-.08.08-.15.07S17.86,24.36,17.93,24.38Z"/><path class="cls-3" d="M25.39,23.41c-.08,0-.13,0-.15-.1A.15.15,0,0,1,25.39,23.41Z"/><path class="cls-3" d="M26.91,23.25c0,.08,0,.15-.11.16A.19.19,0,0,1,26.91,23.25Z"/><path class="cls-3" d="M16.54,25.12c0,.09-.08.11-.16.1A.15.15,0,0,1,16.54,25.12Z"/><path class="cls-3" d="M24.13,11.15c.08,0,.13,0,.14.11S24.15,11.22,24.13,11.15Z"/><path class="cls-3" d="M16,10.22a.15.15,0,0,1,.06-.19A.16.16,0,0,1,16,10.22Z"/><path class="cls-3" d="M26.77,23.47a.12.12,0,0,1-.09.15A.16.16,0,0,1,26.77,23.47Z"/><path class="cls-3" d="M15.64,10c.07,0,0,.1,0,.13A.1.1,0,0,1,15.64,10Z"/><path class="cls-3" d="M25,23.13c-.08,0-.14,0-.15-.1A.15.15,0,0,1,25,23.13Z"/><path class="cls-3" d="M31.61,41.46c.1,0,.12.08.11.16A.19.19,0,0,1,31.61,41.46Z"/><path class="cls-3" d="M24.42,11.36a.12.12,0,0,1,.14.1A.13.13,0,0,1,24.42,11.36Z"/><path class="cls-3" d="M16.07,9.94c0-.07,0-.14.06-.19A.17.17,0,0,1,16.07,9.94Z"/><path class="cls-3" d="M27.13,22.93a.12.12,0,0,1-.1.14A.12.12,0,0,1,27.13,22.93Z"/><path class="cls-3" d="M19.05,23.85c0,.11-.1.12-.19.1A.23.23,0,0,1,19.05,23.85Z"/><path class="cls-3" d="M27.9,9.55c-.07,0-.09-.08,0-.14A.12.12,0,0,1,27.9,9.55Z"/><path class="cls-3" d="M21.93,8.85c.08,0,.11.06.11.14A.16.16,0,0,1,21.93,8.85Z"/><path class="cls-3" d="M27.75,22.08a.12.12,0,0,1-.11.15A.18.18,0,0,1,27.75,22.08Z"/><path class="cls-3" d="M24.2,22.64a.11.11,0,0,1-.14-.08A.12.12,0,0,1,24.2,22.64Z"/><path class="cls-3" d="M24.56,11.73a.14.14,0,0,1-.14.12A.15.15,0,0,1,24.56,11.73Z"/><path class="cls-3" d="M27.33,22.64a.12.12,0,0,1-.11.15A.18.18,0,0,1,27.33,22.64Z"/><path class="cls-3" d="M23.91,12.45v.19C23.83,12.58,23.85,12.51,23.91,12.45Z"/><path class="cls-3" d="M24.25,5a.16.16,0,0,1-.19-.06A.18.18,0,0,1,24.25,5Z"/><path class="cls-3" d="M18.7,24c0,.09-.1.09-.18.08A.15.15,0,0,1,18.7,24Z"/><path class="cls-3" d="M21.66,8.43c.08,0,.1.07.1.15A.15.15,0,0,1,21.66,8.43Z"/><path class="cls-3" d="M29.88,45.29c.09,0,.11.08.1.16A.16.16,0,0,1,29.88,45.29Z"/><polygon class="cls-4" points="42.03 32.88 42.03 32.9 42.03 32.89 42.03 32.88"/><path class="cls-3" d="M29.72,44.27a.52.52,0,0,1,.18.32C29.73,44.55,29.71,44.42,29.72,44.27Z"/><path class="cls-3" d="M29.49,43.69a.15.15,0,0,1,.05.14c-.05,0-.11,0-.13-.08S29.45,43.7,29.49,43.69Z"/><path class="cls-3" d="M30.59,43.08a.19.19,0,0,1-.19.09C30.43,43.06,30.5,43.06,30.59,43.08Z"/><path class="cls-3" d="M30.25,43.23a.24.24,0,0,1-.2.08C30.08,43.2,30.16,43.2,30.25,43.23Z"/><path class="cls-3" d="M30,44.76a.24.24,0,0,1,.11.19C30,44.93,30,44.86,30,44.76Z"/><path class="cls-3" d="M30.41,45.41a.17.17,0,0,1,.12.16C30.43,45.56,30.4,45.5,30.41,45.41Z"/><path class="cls-5" d="M28.56,38c.05,0,.06,0,.06.09s0,.11-.07.11-.09,0-.09-.08S28.49,38,28.56,38Z"/></g></g></svg>