<svg xmlns="http://www.w3.org/2000/svg" viewBox="0 0 26.31 345"><defs><style>.cls-1{writing-mode:tb;text-orientation:upright;glyph-orientation-vertical:0deg;font-size:13px;font-family:FZCUJINLJW--GB1-0, FZJinLS-B-GB;}.cls-1,.cls-2{fill:#204a46;}.cls-3{fill:none;stroke:#204a46;stroke-miterlimit:10;}.cls-4{fill:#1f4945;}</style></defs><title>map_click_tip</title><g id="图层_2" data-name="图层 2"><g id="图层_1-2" data-name="图层 1"><text class="cls-1" transform="translate(19.81 120)">点击查看琴派信息</text><circle class="cls-2" cx="19.81" cy="114" r="1"/><circle class="cls-2" cx="19.81" cy="230" r="1"/><line class="cls-3" x1="19.81" y1="110" x2="19.81"/><line class="cls-3" x1="19.81" y1="345" x2="19.81" y2="235"/><path class="cls-4" d="M4.8,90.1a18,18,0,0,1-2.21-.78,12.66,12.66,0,0,1-.35-2.57c0-3.62,2.35-5.23,4.66-5.23,2.89,0,4.85,2.2,4.85,5.48a14.83,14.83,0,0,1-.33,2.65c-.65.06-1.62.16-2.26.27l-.1-.52A2.41,2.41,0,0,0,10.93,88a3.68,3.68,0,0,0,.22-1.31c0-2.13-1.7-3.22-3.94-3.22-2.61,0-4.35,1.35-4.35,3.39,0,1.26.63,2,2.13,2.76Z" transform="translate(-2.24)"/><path class="cls-4" d="M2.45,91H2.9c.11.83.18.89,1.08.89h6.49c.77,0,.85-.08,1-.87h.42a12.12,12.12,0,0,0,.48,2.43H4c-.93,0-1,.06-1.08.9H2.45Z" transform="translate(-2.24)"/><path class="cls-4" d="M2.45,95H2.9c.09.8.15.89,1.13.89H6.82c.91,0,1-.06,1.07-.78h.42a13.72,13.72,0,0,0,.52,2.35H4c-1,0-1,.07-1.13.91H2.45Zm7.42,1.58a.91.91,0,1,1,1.82,0,.9.9,0,0,1-.92.91A.91.91,0,0,1,9.87,96.62Z" transform="translate(-2.24)"/><path class="cls-4" d="M3.77,104.57a3.3,3.3,0,0,1-1.49-2.43,2.91,2.91,0,0,1,3-3A3.34,3.34,0,0,1,8,100.58a3.93,3.93,0,0,1,.84,2.33,2.18,2.18,0,0,1-.35,1.26.52.52,0,0,1-.48.25.82.82,0,0,1-.73-.58.45.45,0,0,1,.15-.3,2.29,2.29,0,0,0,.68-1.44c0-.68-.62-1.39-2.11-1.39a2.25,2.25,0,0,0-2.51,2,2.11,2.11,0,0,0,.65,1.57Z" transform="translate(-2.24)"/><path class="cls-4" d="M2.45,112.25c0-1,0-1.89,0-2.33l2.79-2c.19-.15.26-.24.27-.33a.48.48,0,0,0,0-.17H4c-.92,0-1,.07-1.06.88H2.45V105H2.9c.1.81.15.88,1.06.88h6.49c.81,0,.87-.08,1-.86h.41a11.28,11.28,0,0,0,.48,2.42H5.87a1.77,1.77,0,0,0,.52.83,9.11,9.11,0,0,0,1.27,1c.34.21.47,0,.55-.54h.44l.11,3H8.34a2.65,2.65,0,0,0-.86-1.82c-.25-.24-.74-.66-1.16-1-.49.32-2.22,1.68-2.7,2.1a1.6,1.6,0,0,0-.72,1.29Z" transform="translate(-2.24)"/><path class="cls-4" d="M2.45,118.34a1.43,1.43,0,0,1-.17-.57c0-1,.52-1.6,1.74-1.6H8v-.92l.17-.08.49.4v.6H9.81c.32.4.74,1,1,1.4l-.08.19c-.45,0-1.22,0-2.13,0v1.47a.54.54,0,0,1-.66-.1v-1.37H4.5c-1.1,0-1.26.45-1.26.75a1.86,1.86,0,0,0,.17.74l-.46.13Z" transform="translate(-2.24)"/><path class="cls-4" d="M8.81,123.05a3.07,3.07,0,0,1-3.15,3.16,3.22,3.22,0,1,1-.18-6.44A3.26,3.26,0,0,1,8.81,123.05Zm-.53-.17c0-.69-.7-1.34-2.39-1.34s-3.06.65-3.06,1.62c0,.65.45,1.28,2.46,1.28C7.12,124.44,8.28,123.88,8.28,122.88Z" transform="translate(-2.24)"/><path class="cls-4" d="M8.2,136.56c-.11-.76-.25-.87-1-1.18-1.13-.49-2.9-1.24-4.93-2v-.52c1.69-.67,3.35-1.32,5-2,.67-.28.81-.41.93-1.14h.45V133H8.2c-.11-.68-.22-.74-.73-.56-1,.35-2.36.89-3.08,1.17.84.33,2,.8,3,1.12.52.17.74.14.84-.75h.45v2.61Z" transform="translate(-2.24)"/><path class="cls-4" d="M2.45,137H2.9c.09.8.15.89,1.13.89H6.82c.91,0,1-.06,1.07-.78h.42a13.39,13.39,0,0,0,.52,2.34H4c-1,0-1,.07-1.13.92H2.45Zm7.42,1.58a.91.91,0,1,1,1.82,0,.9.9,0,0,1-.92.91A.91.91,0,0,1,9.87,138.62Z" transform="translate(-2.24)"/><path class="cls-4" d="M3.76,146.51A3.2,3.2,0,0,1,2.28,144a2.83,2.83,0,0,1,3-2.87,3.68,3.68,0,0,1,2.5,1,3.05,3.05,0,0,1,1,2.15,2.25,2.25,0,0,1-2.24,2.25c-.25,0-.45,0-.5-.21s-.17-2.18-.23-3.65c-1.62,0-2.38,1-2.38,2a2.39,2.39,0,0,0,.66,1.61ZM8.25,144c0-.59-.64-1.12-1.75-1.24,0,.65,0,1.27,0,1.94,0,.21,0,.3.28.3C7.54,145,8.25,144.64,8.25,144Z" transform="translate(-2.24)"/><path class="cls-4" d="M8.2,157c-.12-.68-.22-.79-1-1.1-1.23-.47-3-1.09-4.93-1.74v-.54c1.37-.53,2.75-1.11,4.05-1.64-1.3-.53-2.65-1.08-4-1.61v-.52c1.7-.54,3.41-1.12,5-1.65.71-.25.81-.34.89-1h.45v3.33H8.2c-.12-.82-.23-.9-.75-.73l-2.91.89c1.31.53,2.7,1.06,4,1.53v.52c-1.33.49-2.72,1.05-4.09,1.61.75.27,2.11.73,2.87.91.59.14.74,0,.84-1h.45V157Z" transform="translate(-2.24)"/><path class="cls-4" d="M2.45,163.43H2.9c.09.8.15.89,1.13.89H6.82c.91,0,1-.06,1.07-.78h.42a13.39,13.39,0,0,0,.52,2.34H4c-1,0-1,.07-1.13.92H2.45ZM9.87,165a.91.91,0,1,1,1.82,0,.9.9,0,0,1-.92.91A.91.91,0,0,1,9.87,165Z" transform="translate(-2.24)"/><path class="cls-4" d="M2.45,171.49H2.9c.08.67.15.73,1.11.73H6.38c1,0,1.42-.45,1.42-1.09a1.94,1.94,0,0,0-.53-1.22H3.92c-.89,0-.94.06-1,.72H2.45v-3.17H2.9c.11.8.14.88,1.06.88h2.9c.87,0,.91-.1,1-.77h.42a13,13,0,0,0,.54,2.35h-1c.2.28.41.57.62.91a2,2,0,0,1,.38,1.12c0,1.13-.82,1.84-2.23,1.84H3.93c-.9,0-.94.08-1,.8H2.45Z" transform="translate(-2.24)"/><path class="cls-4" d="M8.65,176.18H9a3.49,3.49,0,0,1,2.65,1.29,3.09,3.09,0,0,1,.74,1.67,1.75,1.75,0,0,1-.41,1.19.55.55,0,0,1-.59.11,1.08,1.08,0,0,1-.55-.44.36.36,0,0,1,0-.48c.32-.32.73-.73.73-1.14,0-.61-.75-.65-2.29-.64H8.65v1.36a.7.7,0,0,1-.66-.18v-1.18H4c-.92,0-1,.12-1.08,1.07H2.45V175.3H2.9c.1.82.16.88,1.05.88H8v-1l.17-.07.49.35Z" transform="translate(-2.24)"/><path class="cls-4" d="M8.81,182.84A3.08,3.08,0,0,1,5.66,186a3.18,3.18,0,0,1-3.38-3.2,3.15,3.15,0,0,1,3.2-3.25A3.26,3.26,0,0,1,8.81,182.84Zm-.53-.17c0-.69-.7-1.34-2.39-1.34S2.83,182,2.83,183c0,.65.45,1.27,2.46,1.27C7.12,184.23,8.28,183.67,8.28,182.67Z" transform="translate(-2.24)"/><path class="cls-4" d="M2.45,190.41v-3.53H2.9c.08.79.15.86,1,.86h3c.78,0,.84-.05,1-.77H8.3a10.66,10.66,0,0,0,.55,2.33H7.32c.89.59,1.49,1.12,1.49,1.74a.8.8,0,0,1-.78.87,1.2,1.2,0,0,1-1-.63.34.34,0,0,1,0-.41c.2-.22.4-.4.4-.65s-.27-.64-.87-.92H3.92c-.87,0-.92.09-1,1.11Z" transform="translate(-2.24)"/><path class="cls-4" d="M2.45,200.18H2.9c.08.66.14.76,1,.76H6.33c1.1,0,1.46-.48,1.46-1.06a2,2,0,0,0-.54-1.22c-.16,0-.36,0-.59,0H3.87c-.82,0-.89.07-1,.76H2.45v-3.1H2.9c.08.71.13.79,1,.79h2.5c1,0,1.42-.37,1.42-1a2,2,0,0,0-.53-1.24H3.88c-.83,0-.9.08-1,.7H2.45v-3.14H2.9c.09.83.15.88,1,.88H6.86c.83,0,.93,0,1-.73h.41a12.18,12.18,0,0,0,.54,2.29H7.78c.21.3.41.56.62.91A2.12,2.12,0,0,1,8.81,197a1.62,1.62,0,0,1-1.09,1.56c.27.35.48.66.72,1a2.11,2.11,0,0,1,.37,1.12c0,1.17-.81,1.83-2.22,1.83H3.88c-.83,0-.88.07-1,.8H2.45Z" transform="translate(-2.24)"/><path class="cls-4" d="M2.28,208.58a1.17,1.17,0,0,1,.29-.79,1.34,1.34,0,0,1,.55-.35,4.85,4.85,0,0,1-.84-1.56,1.79,1.79,0,0,1,1.78-1.83c.72,0,1.1.35,1.38,1.1a11.92,11.92,0,0,0,.92,2.24h.5c.82,0,1.29-.35,1.29-1a.73.73,0,0,0-.3-.59,2.63,2.63,0,0,0-.92-.35.5.5,0,0,1-.42-.54.79.79,0,0,1,.69-.75c.23,0,.41.17.62.48a6.41,6.41,0,0,1,1,2.16,2.24,2.24,0,0,1-.39,1.35,1.9,1.9,0,0,1-1.69.76H4.21c-.67,0-.84.22-.84.46a1.17,1.17,0,0,0,.12.46l-.44.15Zm3.54-1.19c-.15-.27-.34-.67-.49-1-.23-.46-.49-.74-1-.74a1,1,0,0,0-1.07.91,1.18,1.18,0,0,0,.32.8Z" transform="translate(-2.24)"/><path class="cls-4" d="M2.45,213.24a1.51,1.51,0,0,1-.17-.58c0-1,.52-1.6,1.74-1.6H8v-.92l.17-.08.49.4v.6H9.81c.32.4.74,1,1,1.4l-.08.19c-.45,0-1.22,0-2.13,0v1.47A.54.54,0,0,1,8,214v-1.37H4.5c-1.1,0-1.26.45-1.26.75a1.86,1.86,0,0,0,.17.74l-.46.13Z" transform="translate(-2.24)"/><path class="cls-4" d="M2.45,214.78H2.9c.09.8.15.89,1.13.89H6.82c.91,0,1-.06,1.07-.78h.42a13.39,13.39,0,0,0,.52,2.34H4c-1,0-1,.07-1.13.92H2.45Zm7.42,1.58a.91.91,0,1,1,1.82,0,.9.9,0,0,1-.92.91A.91.91,0,0,1,9.87,216.36Z" transform="translate(-2.24)"/><path class="cls-4" d="M8.81,222.18a3.07,3.07,0,0,1-3.15,3.16,3.22,3.22,0,1,1-.18-6.44A3.26,3.26,0,0,1,8.81,222.18ZM8.28,222c0-.69-.7-1.34-2.39-1.34s-3.06.65-3.06,1.62c0,.65.45,1.28,2.46,1.28C7.12,223.57,8.28,223,8.28,222Z" transform="translate(-2.24)"/><path class="cls-4" d="M2.45,230.24H2.9c.08.66.15.72,1.11.72H6.38c1,0,1.42-.44,1.42-1.08a2,2,0,0,0-.53-1.23H3.92c-.89,0-.94.06-1,.73H2.45v-3.17H2.9c.11.79.14.88,1.06.88h2.9c.87,0,.91-.11,1-.78h.42a13.26,13.26,0,0,0,.54,2.36l-1,0c.2.28.41.58.62.91a2,2,0,0,1,.38,1.12c0,1.13-.82,1.84-2.23,1.84H3.93c-.9,0-.94.08-1,.81H2.45Z" transform="translate(-2.24)"/><path class="cls-4" d="M8.81,240.56a3.08,3.08,0,0,1-3.15,3.17,3.23,3.23,0,1,1-.18-6.45A3.26,3.26,0,0,1,8.81,240.56Zm-.53-.16c0-.69-.7-1.35-2.39-1.35s-3.06.65-3.06,1.63c0,.65.45,1.28,2.46,1.28C7.12,242,8.28,241.39,8.28,240.4Z" transform="translate(-2.24)"/><path class="cls-4" d="M8.65,245.45H9a3.47,3.47,0,0,1,2.65,1.3,3.05,3.05,0,0,1,.74,1.67A1.74,1.74,0,0,1,12,249.6a.53.53,0,0,1-.59.12,1.15,1.15,0,0,1-.55-.45.36.36,0,0,1,0-.48c.32-.32.73-.73.73-1.14,0-.61-.75-.65-2.29-.64H8.65v1.36a.7.7,0,0,1-.66-.18V247H4c-.92,0-1,.12-1.08,1.07H2.45v-3.51H2.9c.1.82.16.88,1.05.88H8v-.95l.17-.06.49.34Z" transform="translate(-2.24)"/><path class="cls-4" d="M6.88,255.79c.92-.33,1.41-.77,1.41-1.49a.77.77,0,0,0-.8-.79c-.53,0-.8.37-1.14,1.12-.53,1.16-1,1.87-2,1.87a2.23,2.23,0,0,1-2-2.46,4.29,4.29,0,0,1,.41-1.74c.35-.06,1.25-.18,1.73-.23l.08.44c-.89.28-1.68.82-1.68,1.76a.79.79,0,0,0,.81.86c.5,0,.82-.27,1.22-1.09s.94-1.81,2.05-1.81,1.91.9,1.91,2.32a6.68,6.68,0,0,1-.2,1.46L7,256.23Z" transform="translate(-2.24)"/><path class="cls-4" d="M3.77,262.88a3.3,3.3,0,0,1-1.49-2.43,2.91,2.91,0,0,1,3-3A3.34,3.34,0,0,1,8,258.89a3.93,3.93,0,0,1,.84,2.33,2.18,2.18,0,0,1-.35,1.26.54.54,0,0,1-.48.25.83.83,0,0,1-.73-.59.45.45,0,0,1,.15-.29,2.29,2.29,0,0,0,.68-1.44c0-.68-.62-1.39-2.11-1.39a2.25,2.25,0,0,0-2.51,2,2.11,2.11,0,0,0,.65,1.57Z" transform="translate(-2.24)"/><path class="cls-4" d="M2.45,267.3H2.9c.09.68.18.75,1,.75H6.3c1.11,0,1.55-.45,1.55-1.13a1.65,1.65,0,0,0-.52-1.19H3.89c-.81,0-.9.09-1,.8H2.45v-3.24H2.9c.08.74.13.88,1,.88h6.58c.68,0,.84-.07,1-.91h.42a11.75,11.75,0,0,0,.48,2.47H7.86a3,3,0,0,1,1,1.94c0,1.2-.77,1.95-2.36,1.95H3.93c-.9,0-.94.1-1,.82H2.45Z" transform="translate(-2.24)"/><path class="cls-4" d="M8.81,274.55a3.08,3.08,0,0,1-3.15,3.17,3.23,3.23,0,1,1-.18-6.45A3.26,3.26,0,0,1,8.81,274.55Zm-.53-.16c0-.69-.7-1.35-2.39-1.35s-3.06.65-3.06,1.63c0,.65.45,1.28,2.46,1.28C7.12,276,8.28,275.38,8.28,274.39Z" transform="translate(-2.24)"/><path class="cls-4" d="M8.81,282a3.08,3.08,0,0,1-3.15,3.17,3.23,3.23,0,1,1-.18-6.45A3.26,3.26,0,0,1,8.81,282Zm-.53-.16c0-.69-.7-1.35-2.39-1.35s-3.06.65-3.06,1.63c0,.65.45,1.28,2.46,1.28C7.12,283.44,8.28,282.87,8.28,281.88Z" transform="translate(-2.24)"/><path class="cls-4" d="M2.45,286H2.9c.11.83.18.89,1.08.89h6.49c.77,0,.85-.08,1-.87h.42a12.12,12.12,0,0,0,.48,2.43H4c-.93,0-1,.06-1.08.89H2.45Z" transform="translate(-2.24)"/><path class="cls-4" d="M6.88,293.84c.92-.33,1.41-.77,1.41-1.49a.77.77,0,0,0-.8-.79c-.53,0-.8.37-1.14,1.12-.53,1.16-1,1.87-2,1.87a2.23,2.23,0,0,1-2-2.46,4.34,4.34,0,0,1,.41-1.74c.35-.06,1.25-.18,1.73-.23l.08.44c-.89.28-1.68.83-1.68,1.76a.79.79,0,0,0,.81.86c.5,0,.82-.26,1.22-1.09s.94-1.81,2.05-1.81,1.91.9,1.91,2.33a6.67,6.67,0,0,1-.2,1.45L7,294.28Z" transform="translate(-2.24)"/></g></g></svg>