<svg xmlns="http://www.w3.org/2000/svg" viewBox="0 0 129.43 231.43"><defs><style>.cls-1{fill:#3b303f;}.cls-2{fill:#eef4d7;}.cls-3{fill:#575045;}.cls-4{fill:#eaaa26;}.cls-5{fill:#4b94ab;}</style></defs><title>应鼓</title><g id="图层_2" data-name="图层 2"><g id="图层_1-2" data-name="图层 1"><path class="cls-1" d="M93,203.93a21.68,21.68,0,0,0-5-8.45l0,0V185.11l-12.4-25.34,2-31.06L58.25,127,59,159.9,45.06,185.11v10.35l.08.06a21.74,21.74,0,0,0-4.9,8.41c-2.3,6.81-1.54,13.24,1.68,14.53v12.23a.74.74,0,0,0,.73.74h6.74a1,1,0,0,0,.94-.94V218.32c2-2.14,3.61-6.1,4.18-10.78.1-.85.16-1.68.19-2.49l11.19-3.85,12.64,4.42c0,.63.08,1.27.16,1.92.58,4.68,2.2,8.64,4.18,10.78v12.17a1,1,0,0,0,.94.94h6.74a.74.74,0,0,0,.73-.74V218.46C94.5,217.17,95.26,210.74,93,203.93Z"/><ellipse class="cls-2" cx="47.49" cy="95.25" rx="6.84" ry="11.06" transform="translate(-51.39 55.87) rotate(-41.78)"/><path class="cls-1" d="M78.22,116.26s-7,8.87-.61,12.45l-11,2.83L58.25,127s1.73-5.79.37-10.84"/><path class="cls-3" d="M53.1,110.77s7.49,11.56-.18,36.34c0,0,1.57,2.31,3.17-1.27s2.47-7.15,3-20-.74-16.45-.74-16.45Z"/><path class="cls-3" d="M80.93,112.87s-7.77,10.84.19,31.64c0,0-1.63,1.94-3.29-1.06s-2.56-6-3.13-16.76.76-13.82.76-13.82Z"/><ellipse class="cls-1" cx="67.56" cy="102.27" rx="15.96" ry="19.54"/><path class="cls-1" d="M111.74,14.67h0c-42.35-20.33-90.93-11-90.93-11l.81,73.53c33,8.58,86.19-3,86.19-3h0c11.18-2.14,20.33-13.61,21.5-28.13C130.5,31.26,122.89,18.19,111.74,14.67Z"/><ellipse class="cls-2" cx="24.61" cy="40.02" rx="37.32" ry="24.5" transform="matrix(0.08, -1, 1, 0.08, -17.26, 61.35)"/><path class="cls-4" d="M22.94,73.1c-.39,0-.78,0-1.17,0-12-1-20.61-16.57-19.15-34.79S15,6,27.07,7c5.85.47,11.07,4.36,14.68,11s5.18,15,4.47,23.81h0C44.81,59.39,34.5,73.1,22.94,73.1Zm3-65.48C14.69,7.62,4.68,21.06,3.29,38.33,1.86,56.17,10.18,71.45,21.83,72.38S44.12,59.56,45.55,41.72h0c.69-8.67-.87-17-4.39-23.44S32.63,8.11,27,7.66C26.64,7.63,26.27,7.62,25.9,7.62Z"/><path class="cls-3" d="M95.59,73.46a3.51,3.51,0,0,0-4.93-.61c-10.78,8.42-20,9-26.75,7.21-6.88.34-12.77.33-14.49.32a35.12,35.12,0,0,0,11.1,6,31.81,31.81,0,0,0,9.75,1.53c6.94,0,15.42-2.26,24.72-9.52A3.51,3.51,0,0,0,95.59,73.46Z"/><ellipse class="cls-2" cx="84.65" cy="94.51" rx="11.06" ry="6.84" transform="translate(-41.9 103.55) rotate(-52.24)"/><path class="cls-5" d="M43.58,81.48a.74.74,0,0,1,0-1.47C56.19,79.64,65,71.79,70.35,58.8a62.62,62.62,0,0,0,4.24-19.73c.58-15.6-2.75-26.51-9.9-32.44C56.7,0,48.41,1.84,46.21,1.7c-.41,0-.8-.17-.88-.56a.73.73,0,0,1,.56-.88c.44-.1,11.17-1.85,19.73,5.23,7.53,6.23,11,17.54,10.44,33.63a62.22,62.22,0,0,1-4.32,20.19C66.26,72.73,56.9,81.09,43.8,81.48Z"/><path class="cls-5" d="M100.29,76.15a.73.73,0,0,1-.37-1.36c19.53-11,19.6-31.89,19.6-32.1-.75-15.68-6.81-24-11.76-28.23A24,24,0,0,0,97.21,9a.73.73,0,1,1,.24-1.45,25.34,25.34,0,0,1,11.27,5.77c5.17,4.41,11.5,13.08,12.28,29.3a38.49,38.49,0,0,1-2.47,12.4,39.33,39.33,0,0,1-17.88,21A.77.77,0,0,1,100.29,76.15Z"/><path class="cls-3" d="M116.17,17.54a.24.24,0,0,1-.2-.08c-.18-.18-.27-.28-.28-.28a.27.27,0,0,1,.38-.39l.29.29a.28.28,0,0,1,0,.39A.26.26,0,0,1,116.17,17.54Z"/><path class="cls-3" d="M112.4,72.23a.25.25,0,0,1-.21-.1.26.26,0,0,1,0-.38l.61-.51a.26.26,0,0,1,.38,0,.27.27,0,0,1,0,.38l-.62.52A.27.27,0,0,1,112.4,72.23Zm1.23-1a.25.25,0,0,1-.21-.1.27.27,0,0,1,0-.38l.6-.53a.27.27,0,1,1,.36.4l-.61.54A.28.28,0,0,1,113.63,71.19Zm1.19-1.08a.25.25,0,0,1-.19-.09.26.26,0,0,1,0-.38c.2-.18.4-.36.59-.55a.28.28,0,0,1,.38,0,.28.28,0,0,1,0,.39L115,70A.26.26,0,0,1,114.82,70.11ZM116,69a.24.24,0,0,1-.19-.08.28.28,0,0,1,0-.38l.58-.56a.26.26,0,0,1,.38,0,.28.28,0,0,1,0,.38l-.58.57A.26.26,0,0,1,116,69Zm1.14-1.14a.27.27,0,0,1-.19-.46c.18-.19.37-.38.55-.58a.27.27,0,0,1,.38,0,.26.26,0,0,1,0,.38l-.55.59A.32.32,0,0,1,117.13,67.86Zm1.1-1.17a.31.31,0,0,1-.18-.07.28.28,0,0,1,0-.39l.54-.59a.26.26,0,0,1,.38,0,.27.27,0,0,1,0,.38c-.17.21-.35.41-.54.61A.25.25,0,0,1,118.23,66.69Zm1.07-1.21a.24.24,0,0,1-.18-.07.27.27,0,0,1,0-.38l.51-.61a.27.27,0,0,1,.42.34l-.52.62A.28.28,0,0,1,119.3,65.48Zm1-1.25a.28.28,0,0,1-.22-.44l.49-.63a.28.28,0,0,1,.44.33l-.5.64A.25.25,0,0,1,120.32,64.23Zm1-1.28a.27.27,0,0,1-.16-.06.26.26,0,0,1-.06-.37l.47-.65a.25.25,0,0,1,.37-.07.26.26,0,0,1,.07.38l-.47.66A.28.28,0,0,1,121.29,63Zm.93-1.32a.3.3,0,0,1-.16-.05.27.27,0,0,1-.07-.37l.44-.67a.27.27,0,1,1,.45.29l-.44.68A.29.29,0,0,1,122.22,61.63Zm.86-1.36a.27.27,0,0,1-.23-.41c.14-.23.28-.46.41-.69a.27.27,0,1,1,.47.27c-.14.24-.27.47-.42.7A.28.28,0,0,1,123.08,60.27Zm.81-1.39a.22.22,0,0,1-.13,0,.25.25,0,0,1-.1-.36l.37-.71a.28.28,0,0,1,.37-.11.27.27,0,0,1,.11.36c-.12.24-.25.48-.38.72A.27.27,0,0,1,123.89,58.88Zm.75-1.43a.27.27,0,0,1-.12,0,.27.27,0,0,1-.13-.36c.12-.24.24-.48.35-.72a.26.26,0,0,1,.36-.13.28.28,0,0,1,.13.36c-.11.24-.23.48-.35.73A.28.28,0,0,1,124.64,57.45Zm.67-1.46a.19.19,0,0,1-.1,0,.27.27,0,0,1-.15-.35c.11-.25.21-.49.31-.74a.28.28,0,0,1,.35-.15.27.27,0,0,1,.15.35c-.1.25-.2.5-.31.75A.26.26,0,0,1,125.31,56Zm.61-1.5h-.1a.28.28,0,0,1-.16-.35q.15-.37.27-.75a.28.28,0,0,1,.35-.17.26.26,0,0,1,.16.34c-.08.26-.18.51-.27.77A.27.27,0,0,1,125.92,54.49Zm.52-1.52h-.08a.28.28,0,0,1-.18-.34c.08-.26.16-.51.23-.77a.28.28,0,0,1,.34-.18.27.27,0,0,1,.18.33c-.07.26-.15.52-.23.78A.28.28,0,0,1,126.44,53Zm.44-1.55h-.06a.26.26,0,0,1-.2-.33c.07-.26.13-.51.19-.77a.27.27,0,0,1,.32-.21.28.28,0,0,1,.21.33c-.06.26-.13.52-.2.79A.27.27,0,0,1,126.88,51.42Zm.36-1.57h0a.27.27,0,0,1-.21-.32c0-.26.1-.53.14-.79a.29.29,0,0,1,.32-.22.28.28,0,0,1,.22.31l-.15.8A.28.28,0,0,1,127.24,49.85Zm.27-1.59h0a.27.27,0,0,1-.22-.31c0-.26.07-.52.1-.79a.27.27,0,0,1,.54.06c0,.27-.07.54-.11.81A.26.26,0,0,1,127.51,48.26Zm.19-1.6h0a.27.27,0,0,1-.25-.29l.06-.8a.26.26,0,0,1,.28-.25.28.28,0,0,1,.26.28l-.06.82A.26.26,0,0,1,127.7,46.66Zm.09-1.6h0a.27.27,0,0,1-.27-.27c0-.27,0-.54,0-.8a.27.27,0,0,1,.27-.27h0a.27.27,0,0,1,.27.27c0,.27,0,.54,0,.81A.27.27,0,0,1,127.79,45.06Zm0-1.62a.27.27,0,0,1-.27-.26c0-.27,0-.53,0-.8a.27.27,0,0,1,.54,0c0,.27,0,.55,0,.82a.25.25,0,0,1-.26.27Zm-.08-1.6a.28.28,0,0,1-.27-.25c0-.27,0-.54-.07-.8a.28.28,0,0,1,.24-.3.29.29,0,0,1,.3.24c0,.27,0,.54.07.81a.27.27,0,0,1-.25.29Zm-.16-1.61a.27.27,0,0,1-.27-.24c0-.26-.07-.52-.11-.78a.27.27,0,0,1,.23-.31.25.25,0,0,1,.3.22c.05.27.08.54.12.81a.27.27,0,0,1-.24.3Zm-.25-1.59a.26.26,0,0,1-.26-.22l-.15-.79a.27.27,0,0,1,.21-.32.28.28,0,0,1,.32.21l.15.8a.27.27,0,0,1-.22.32ZM127,37.06a.28.28,0,0,1-.27-.21c0-.26-.12-.52-.18-.78a.26.26,0,0,1,.19-.32.27.27,0,0,1,.33.19c.07.26.13.53.19.79a.26.26,0,0,1-.2.32Zm-.4-1.56a.27.27,0,0,1-.26-.2c-.07-.26-.15-.51-.23-.76a.27.27,0,0,1,.18-.34.27.27,0,0,1,.34.18c.08.26.16.51.23.78a.27.27,0,0,1-.19.33ZM126.12,34a.28.28,0,0,1-.26-.19l-.25-.76a.26.26,0,0,1,.16-.34.27.27,0,0,1,.35.16c.09.26.17.52.26.77a.27.27,0,0,1-.18.34Zm-.54-1.52a.27.27,0,0,1-.25-.18c-.09-.25-.19-.5-.29-.74a.27.27,0,0,1,.15-.35.26.26,0,0,1,.35.15l.3.75a.27.27,0,0,1-.16.35Zm-.59-1.5a.26.26,0,0,1-.25-.16l-.32-.74a.27.27,0,0,1,.13-.35.28.28,0,0,1,.36.13c.11.25.22.5.32.75a.26.26,0,0,1-.14.35A.18.18,0,0,1,125,30.94Zm-.66-1.47a.29.29,0,0,1-.25-.15c-.11-.25-.23-.49-.35-.72a.28.28,0,0,1,.13-.37.28.28,0,0,1,.36.12c.12.25.24.49.35.74a.26.26,0,0,1-.13.36ZM123.61,28a.28.28,0,0,1-.24-.15l-.37-.71a.26.26,0,0,1,.1-.36.27.27,0,0,1,.37.1c.13.24.26.48.38.72a.27.27,0,0,1-.12.37A.27.27,0,0,1,123.61,28Zm-.77-1.42a.27.27,0,0,1-.23-.14l-.4-.69a.27.27,0,0,1,.09-.37.26.26,0,0,1,.37.09c.14.23.27.47.41.71a.26.26,0,0,1-.1.36A.25.25,0,0,1,122.84,26.61ZM122,25.22a.28.28,0,0,1-.23-.13l-.43-.68a.27.27,0,0,1,.08-.37.27.27,0,0,1,.38.08l.43.69a.27.27,0,0,1-.09.37A.23.23,0,0,1,122,25.22Zm-.87-1.36a.25.25,0,0,1-.22-.12l-.45-.67a.26.26,0,0,1,.07-.37.25.25,0,0,1,.37.07c.16.21.31.44.46.67a.26.26,0,0,1-.08.37A.3.3,0,0,1,121.16,23.86Zm-.91-1.33a.26.26,0,0,1-.22-.12c-.16-.22-.31-.44-.47-.65a.27.27,0,1,1,.44-.32l.47.66a.27.27,0,0,1-.06.38A.33.33,0,0,1,120.25,22.53Zm-1-1.3a.27.27,0,0,1-.22-.11l-.49-.63a.27.27,0,0,1,0-.38.25.25,0,0,1,.37,0l.5.64a.27.27,0,0,1-.05.38A.27.27,0,0,1,119.3,21.23Zm-1-1.27a.25.25,0,0,1-.21-.1l-.51-.62a.26.26,0,0,1,0-.38.28.28,0,0,1,.38,0l.52.63a.27.27,0,0,1-.21.44Zm-1-1.23a.29.29,0,0,1-.21-.09c-.19-.23-.37-.43-.53-.6a.27.27,0,0,1,0-.38.28.28,0,0,1,.39,0l.54.61a.26.26,0,0,1,0,.38A.23.23,0,0,1,117.26,18.73Z"/><path class="cls-3" d="M111.44,73a.32.32,0,0,1-.21-.1.27.27,0,0,1,0-.38l.31-.26a.28.28,0,0,1,.38,0,.26.26,0,0,1,0,.38l-.32.26A.27.27,0,0,1,111.44,73Z"/><path class="cls-3" d="M33.33,79.26a.27.27,0,0,1-.1-.52l.39-.18a.27.27,0,0,1,.23.49l-.41.19Zm1.14-.55a.25.25,0,0,1-.24-.15.27.27,0,0,1,.11-.36l.71-.39a.26.26,0,0,1,.36.1.27.27,0,0,1-.1.37l-.72.4A.27.27,0,0,1,34.47,78.71Zm1.41-.8a.28.28,0,0,1-.23-.13.26.26,0,0,1,.09-.37c.22-.13.45-.27.69-.43a.27.27,0,0,1,.29.46l-.7.43A.23.23,0,0,1,35.88,77.91ZM37.26,77a.27.27,0,0,1-.23-.12.26.26,0,0,1,.08-.37l.66-.46a.28.28,0,0,1,.38.07.27.27,0,0,1-.07.38l-.67.46A.28.28,0,0,1,37.26,77Zm1.33-.92a.28.28,0,0,1-.22-.11.27.27,0,0,1,.06-.38l.65-.48a.27.27,0,0,1,.38,0,.28.28,0,0,1-.05.38l-.66.49A.33.33,0,0,1,38.59,76.12Zm1.29-1a.26.26,0,0,1-.21-.11.27.27,0,0,1,0-.38l.62-.5a.27.27,0,0,1,.39,0,.28.28,0,0,1,0,.38l-.64.51A.27.27,0,0,1,39.88,75.14Zm1.26-1a.26.26,0,0,1-.21-.1.28.28,0,0,1,0-.38l.61-.53a.27.27,0,0,1,.38,0,.28.28,0,0,1,0,.39l-.62.53A.23.23,0,0,1,41.14,74.11ZM42.35,73a.28.28,0,0,1-.2-.09.27.27,0,0,1,0-.38l.59-.55a.27.27,0,0,1,.38,0,.28.28,0,0,1,0,.39l-.59.56A.34.34,0,0,1,42.35,73Zm1.17-1.13a.24.24,0,0,1-.19-.08.26.26,0,0,1,0-.38l.56-.57a.28.28,0,0,1,.39,0,.27.27,0,0,1,0,.38l-.57.58A.24.24,0,0,1,43.52,71.9Zm1.13-1.17a.26.26,0,0,1-.19-.07.27.27,0,0,1,0-.38q.27-.28.54-.6a.27.27,0,0,1,.4.36c-.18.21-.36.41-.55.61A.24.24,0,0,1,44.65,70.73Zm1.07-1.21a.26.26,0,0,1-.2-.44l.52-.62a.27.27,0,0,1,.38,0,.28.28,0,0,1,0,.38l-.53.63A.27.27,0,0,1,45.72,69.52Zm1-1.25a.28.28,0,0,1-.22-.44l.5-.63a.27.27,0,1,1,.43.32c-.17.22-.33.44-.5.65A.28.28,0,0,1,46.76,68.27Zm1-1.29a.3.3,0,0,1-.16,0,.27.27,0,0,1-.06-.38l.47-.66a.26.26,0,0,1,.37-.06.25.25,0,0,1,.07.37l-.48.67A.26.26,0,0,1,47.74,67Zm.93-1.33a.21.21,0,0,1-.15-.05.25.25,0,0,1-.07-.37l.44-.67a.26.26,0,0,1,.37-.08.26.26,0,0,1,.08.37c-.14.23-.29.46-.45.68A.25.25,0,0,1,48.67,65.65Zm.88-1.36a.23.23,0,0,1-.14,0,.28.28,0,0,1-.09-.38l.42-.68a.27.27,0,0,1,.37-.1.26.26,0,0,1,.09.37l-.42.7A.28.28,0,0,1,49.55,64.29Zm.83-1.4a.35.35,0,0,1-.14,0,.28.28,0,0,1-.1-.37l.39-.7a.27.27,0,0,1,.37-.11A.27.27,0,0,1,51,62c-.13.24-.26.48-.4.72A.28.28,0,0,1,50.38,62.89Zm.77-1.42a.27.27,0,0,1-.12,0,.27.27,0,0,1-.12-.37q.18-.34.36-.72a.29.29,0,0,1,.37-.12.28.28,0,0,1,.12.37l-.37.72A.28.28,0,0,1,51.15,61.47ZM51.87,60l-.12,0a.27.27,0,0,1-.12-.36L52,58.9a.27.27,0,0,1,.36-.14.27.27,0,0,1,.14.36c-.12.25-.23.5-.35.74A.26.26,0,0,1,51.87,60Zm.67-1.48a.2.2,0,0,1-.11,0,.26.26,0,0,1-.14-.35c.1-.25.21-.49.31-.74a.26.26,0,0,1,.35-.15.27.27,0,0,1,.15.35c-.1.25-.21.5-.32.75A.25.25,0,0,1,52.54,58.54ZM53.15,57h-.1a.26.26,0,0,1-.15-.35c.09-.25.19-.5.28-.76a.27.27,0,0,1,.51.19c-.1.25-.19.51-.29.76A.26.26,0,0,1,53.15,57Zm.55-1.52h-.09a.27.27,0,0,1-.16-.35c.08-.25.17-.5.25-.76a.27.27,0,1,1,.52.17l-.26.77A.28.28,0,0,1,53.7,55.51ZM54.21,54h-.08a.28.28,0,0,1-.18-.34c.08-.25.15-.51.23-.77a.27.27,0,0,1,.33-.19.27.27,0,0,1,.19.34c-.08.26-.16.52-.23.78A.29.29,0,0,1,54.21,54Zm.44-1.56h-.07a.27.27,0,0,1-.19-.33l.21-.78a.28.28,0,0,1,.33-.2.27.27,0,0,1,.19.33c-.07.27-.13.53-.2.79A.29.29,0,0,1,54.65,52.41Zm.4-1.57H55a.26.26,0,0,1-.2-.32l.18-.79a.27.27,0,1,1,.52.11c-.05.27-.11.54-.18.8A.27.27,0,0,1,55.05,50.84Zm.35-1.59h-.06a.27.27,0,0,1-.21-.32l.15-.79a.28.28,0,0,1,.32-.22.27.27,0,0,1,.21.32c0,.27-.09.53-.15.8A.27.27,0,0,1,55.4,49.25Zm.29-1.59h0a.29.29,0,0,1-.22-.32c0-.26.09-.52.13-.79a.28.28,0,0,1,.31-.23.27.27,0,0,1,.23.31c-.05.27-.09.54-.13.8A.28.28,0,0,1,55.69,47.66Zm.24-1.6h0a.27.27,0,0,1-.23-.3c0-.27.07-.53.11-.8a.27.27,0,1,1,.53.07c0,.27-.06.54-.1.8A.28.28,0,0,1,55.93,46.06Zm.2-1.61h0a.27.27,0,0,1-.24-.3c0-.27,0-.53.08-.8a.27.27,0,0,1,.29-.25.28.28,0,0,1,.25.29c0,.28,0,.55-.08.82A.28.28,0,0,1,56.13,44.45Zm.15-1.62h0a.27.27,0,0,1-.25-.29c0-.27,0-.53.05-.8a.3.3,0,0,1,.29-.26.27.27,0,0,1,.25.29c0,.27,0,.54-.05.81A.27.27,0,0,1,56.28,42.83Zm.1-1.62h0a.26.26,0,0,1-.26-.28l0-.81a.27.27,0,0,1,.29-.26.28.28,0,0,1,.26.28l0,.82A.27.27,0,0,1,56.38,41.21Zm.06-1.62h0a.26.26,0,0,1-.26-.27c0-.27,0-.54,0-.81a.31.31,0,0,1,.28-.27.28.28,0,0,1,.27.28c0,.27,0,.54,0,.81A.26.26,0,0,1,56.44,39.59Zm0-1.64a.25.25,0,0,1-.27-.25v-.81a.25.25,0,0,1,.26-.27h0a.28.28,0,0,1,.27.27v.78A.28.28,0,0,1,56.46,38Zm0-1.6a.28.28,0,0,1-.27-.26c0-.28,0-.54,0-.81A.28.28,0,0,1,56.4,35a.27.27,0,0,1,.29.26c0,.27,0,.54,0,.81a.26.26,0,0,1-.26.28Zm-.06-1.62a.27.27,0,0,1-.27-.26c0-.27,0-.54,0-.8a.27.27,0,0,1,.54,0c0,.27,0,.54,0,.81a.28.28,0,0,1-.26.29Zm-.11-1.62a.27.27,0,0,1-.27-.25c0-.27,0-.54-.07-.8a.29.29,0,0,1,.25-.3.26.26,0,0,1,.29.25c0,.27.05.54.07.81a.27.27,0,0,1-.25.29Zm-.15-1.61a.29.29,0,0,1-.27-.24l-.09-.8a.27.27,0,0,1,.23-.31.28.28,0,0,1,.31.24l.09.81a.28.28,0,0,1-.24.3Zm-.2-1.61a.28.28,0,0,1-.27-.23c0-.27-.07-.54-.11-.8a.26.26,0,0,1,.22-.31.27.27,0,0,1,.31.22l.12.81a.26.26,0,0,1-.23.3Zm-.25-1.6a.27.27,0,0,1-.26-.23l-.15-.79a.27.27,0,0,1,.22-.32.26.26,0,0,1,.31.22l.15.8a.27.27,0,0,1-.22.31Zm-.3-1.6a.27.27,0,0,1-.26-.21c-.06-.27-.11-.53-.17-.79a.26.26,0,0,1,.2-.32.27.27,0,0,1,.33.2c.05.26.11.53.17.8a.28.28,0,0,1-.21.32ZM55,25.11a.27.27,0,0,1-.26-.21c-.07-.26-.13-.52-.2-.78a.27.27,0,0,1,.19-.33.26.26,0,0,1,.33.19c.07.27.14.53.2.8a.26.26,0,0,1-.2.32Zm-.41-1.57a.27.27,0,0,1-.26-.2c-.07-.26-.15-.52-.22-.77a.27.27,0,1,1,.51-.16c.08.26.16.52.23.79a.27.27,0,0,1-.19.33ZM54.15,22a.28.28,0,0,1-.26-.19c-.08-.26-.17-.51-.25-.77a.26.26,0,0,1,.16-.34.28.28,0,0,1,.35.17c.08.26.17.51.25.77a.26.26,0,0,1-.17.34Zm-.53-1.54a.27.27,0,0,1-.25-.18l-.28-.75a.26.26,0,0,1,.15-.35.27.27,0,0,1,.35.16c.1.25.19.5.29.76a.28.28,0,0,1-.17.35ZM53,18.94a.3.3,0,0,1-.25-.17c-.1-.25-.2-.5-.31-.74a.27.27,0,0,1,.5-.22c.11.25.21.5.31.76a.27.27,0,0,1-.15.35Zm-.64-1.49a.26.26,0,0,1-.24-.16c-.11-.25-.23-.49-.34-.73A.26.26,0,0,1,52,16.2a.27.27,0,0,1,.36.13c.11.24.23.48.34.73a.28.28,0,0,1-.13.36ZM51.7,16a.27.27,0,0,1-.24-.14c-.12-.25-.24-.48-.37-.72a.26.26,0,0,1,.12-.36.25.25,0,0,1,.36.11c.13.24.25.48.37.72a.27.27,0,0,1-.11.37A.3.3,0,0,1,51.7,16Zm-.76-1.43a.27.27,0,0,1-.23-.14l-.4-.69a.27.27,0,0,1,.09-.37.26.26,0,0,1,.37.09c.14.23.28.47.41.71a.27.27,0,0,1-.1.37A.35.35,0,0,1,50.94,14.55Zm-.82-1.4a.27.27,0,0,1-.23-.12c-.14-.24-.28-.46-.43-.68a.28.28,0,0,1,.08-.38.28.28,0,0,1,.38.08l.43.69a.26.26,0,0,1-.09.37A.23.23,0,0,1,50.12,13.15Zm-.88-1.36a.26.26,0,0,1-.22-.12L48.56,11a.26.26,0,0,1,.06-.37.27.27,0,0,1,.38.06l.47.67a.26.26,0,0,1-.08.37A.21.21,0,0,1,49.24,11.79Zm-.94-1.32a.29.29,0,0,1-.22-.11c-.16-.21-.32-.43-.49-.64A.27.27,0,0,1,48,9.39l.5.65a.28.28,0,0,1-.06.38A.3.3,0,0,1,48.3,10.47Zm-1-1.27a.28.28,0,0,1-.21-.1l-.52-.62a.26.26,0,0,1,0-.38.27.27,0,0,1,.38,0l.53.62a.28.28,0,0,1,0,.39A.27.27,0,0,1,47.3,9.2ZM46.24,8a.25.25,0,0,1-.2-.09l-.55-.59a.26.26,0,0,1,0-.38.27.27,0,0,1,.38,0l.56.6a.27.27,0,0,1,0,.38A.26.26,0,0,1,46.24,8ZM45.12,6.79a.26.26,0,0,1-.19-.07l-.58-.57a.27.27,0,1,1,.37-.39l.59.57a.28.28,0,0,1,0,.38A.24.24,0,0,1,45.12,6.79ZM43.94,5.68a.29.29,0,0,1-.18-.07l-.61-.53a.28.28,0,0,1,0-.38.27.27,0,0,1,.39,0l.61.54a.27.27,0,0,1-.18.47ZM42.7,4.62a.27.27,0,0,1-.17-.06l-.63-.49a.27.27,0,0,1,.33-.43c.21.15.42.32.64.5a.26.26,0,0,1,0,.38A.25.25,0,0,1,42.7,4.62Zm-1.29-1a.25.25,0,0,1-.16-.05c-.23-.17-.46-.32-.66-.45a.28.28,0,0,1-.08-.38.27.27,0,0,1,.38-.07c.21.13.43.29.68.46a.27.27,0,0,1,.06.38A.28.28,0,0,1,41.41,3.64Zm-1.36-.89a.43.43,0,0,1-.14,0c-.43-.26-.68-.39-.69-.39a.27.27,0,0,1,.24-.49,8.25,8.25,0,0,1,.73.42.26.26,0,0,1,.09.37A.28.28,0,0,1,40.05,2.75Z"/><ellipse class="cls-2" cx="56.66" cy="102.27" rx="4.79" ry="7.74" transform="translate(-53.1 142.56) rotate(-81.17)"/><ellipse class="cls-2" cx="58.17" cy="143.72" rx="4.69" ry="2.94" transform="translate(-72.46 60.21) rotate(-35.37)"/><ellipse class="cls-2" cx="75.14" cy="144.04" rx="3.36" ry="4.69" transform="translate(-83.65 109.71) rotate(-50.25)"/><path class="cls-3" d="M58.17,107.14s4.27,34.7.48,36.82-1.85,7.4.19,5.83,5.54-4.44,5.64-7-.18-39.31-.18-39.31Z"/></g></g></svg>