<svg xmlns="http://www.w3.org/2000/svg" viewBox="0 0 575.22 441.03"><defs><style>.cls-1,.cls-2,.cls-3,.cls-4,.cls-5,.cls-6{fill:none;stroke:#000;}.cls-1,.cls-2,.cls-3,.cls-4,.cls-5,.cls-6,.cls-7{stroke-linecap:round;stroke-linejoin:round;}.cls-2{stroke-width:1.08px;}.cls-3{stroke-width:0.89px;}.cls-4{stroke-width:0.96px;}.cls-5{stroke-width:0.75px;}.cls-5,.cls-6{stroke-dasharray:2;}.cls-6{stroke-width:0.5px;}.cls-7{fill:#204a46;stroke:#204a46;stroke-width:0.25px;}</style></defs><title>object</title><g id="图层_2" data-name="图层 2"><g id="图层_1-2" data-name="图层 1"><path class="cls-1" d="M524.73,278.87l12,1-13,41-12-2-5,11-60-10s-34-24-76-7l-186-31s-6-1-7-6l-60-9s-9-1-10,2l-65-9s-14-2-9.5-9.5c0,0,2.5-4.5,5.5-4.5l9-7s-1-3,4-5,16-5,24-4l62,4s4,0,4,3c0,0,37,4,66,4a19.93,19.93,0,0,0,8-2s2-1,10,0l179,13s11,19,66,11l57,7Z"/><polygon class="cls-1" points="88.23 250.37 95.23 243.37 127.23 246.37 119.23 254.37 88.23 250.37"/><ellipse class="cls-1" cx="360.73" cy="277.87" rx="6.5" ry="4.5" transform="translate(-62.66 110.31) rotate(-16.02)"/><polyline class="cls-1" points="209.23 255.37 199.23 255.37 193.23 262.37 203.23 262.37 209.23 255.37"/><polygon class="cls-1" points="227.23 265.37 322.23 277.37 328.23 269.37 233.53 258.41 233.23 258.37 227.23 265.37"/><polyline class="cls-1" points="233.73 258.87 233.73 262.87 230.73 265.87"/><line class="cls-1" x1="233.73" y1="262.62" x2="324.23" y2="273.37"/><polygon class="cls-1" points="503.23 273.37 502.02 276.77 487.23 318.37 468.86 314.87 466.23 314.37 484.23 270.37 503.23 273.37"/><polyline class="cls-1" points="469.73 314.87 485.73 273.87 501.73 276.87"/><line class="cls-1" x1="484.73" y1="270.45" x2="485.97" y2="273.92"/><path class="cls-1" d="M536.73,279.87l-.5,11.5-11,36-12-2-5,11-60-10s-36-28-76-8l-185-32s-8,0-11-6l-60-10s-6-1-7,1-12,0-12,0l-59-9s-9-3-6-10"/><line class="cls-1" x1="512.32" y1="319.36" x2="513.14" y2="325.38"/><polyline class="cls-1" points="92.23 250.37 95.23 247.37 95.23 246.87 95.23 243.37"/><line class="cls-1" x1="123.7" y1="249.9" x2="95.73" y2="246.87"/><polygon class="cls-1" points="33.23 93.37 44.23 87.37 49.23 87.37 40.23 93.37 33.23 93.37"/><polygon class="cls-1" points="49.23 294.37 39.23 303.37 39.23 306.37 46.73 307.87 46.23 304.37 55.23 295.37 49.23 294.37"/><polyline class="cls-1" points="55.23 295.37 55.23 299.37 46.73 307.87"/><polygon class="cls-1" points="162.23 324.37 159.23 327.37 164.23 327.37 167.23 324.37 162.23 324.37"/><polyline class="cls-1" points="159.23 327.37 159.23 339.37 164.23 339.37 164.23 327.37"/><polyline class="cls-1" points="164.23 339.37 167.23 336.37 167.23 324.37"/><polygon class="cls-1" points="145.23 346.37 142.23 349.37 147.23 349.37 150.23 346.37 145.23 346.37"/><polyline class="cls-1" points="142.23 349.37 142.23 360.37 147.23 360.37 147.23 349.37"/><polyline class="cls-1" points="147.23 360.37 150.23 357.37 150.23 346.37"/><path class="cls-1" d="M161.23,339.37v8s4,0,5-3l-.16-6.83"/><path class="cls-1" d="M160.73,341.87l-4,6v4s10,4,13-3v-4s0-3.67-3.5-3.83"/><path class="cls-1" d="M156.73,347.87s4,4,8.5,1.5c0,0,3.84-1.48,4.42-5.24"/><path class="cls-1" d="M143.73,360.87v7s1.6,2,4,0v-8"/><path class="cls-1" d="M143.73,363.31s-5.5,3.06-3.5,7.06c0,0,3,4,9,0,0,0,4-3,3-5s-4.5-2.31-4.5-2.31"/><path class="cls-1" d="M139.73,368.37v4.5s3,5,9.5,1.5a7.47,7.47,0,0,0,3-3l.16-5.25"/><polygon class="cls-1" points="529.73 350.87 525.73 361.87 537.73 362.87 540.73 351.87 529.73 350.87"/><path class="cls-1" d="M537.73,362.87s2.5,3.5-.5,5.5l-11.5-.5s2-2,0-6"/><path class="cls-1" d="M540.73,351.87l.5,21.5c-.5,4.5-5,2-5,2l-5.87-7.3"/><path class="cls-1" d="M537.73,368.87s3.39,3.51,3.2,5.75"/><path class="cls-1" d="M57.72,325.56a66.41,66.41,0,0,1,12.51-4.19c15-2,13-3,13-3a41.43,41.43,0,0,0-35,7s0,2,7,2h0A9.46,9.46,0,0,1,57.72,325.56Z"/><path class="cls-1" d="M83.23,318.37s1.5,1.5-8.5,4.5c0,0-14.43,3.59-18.5,6.5-3.5,2.5-9.5-.5-8.5-3.5"/><polygon class="cls-1" points="200.23 186.37 193.23 193.37 202.23 193.37 208.23 186.37 200.23 186.37"/><polyline class="cls-1" points="208.23 186.37 208.23 209.37 202.23 216.37 202.23 193.37"/><polyline class="cls-1" points="193.23 193.37 193.23 216.37 202.23 216.37"/><ellipse class="cls-1" cx="358.73" cy="200.87" rx="6.5" ry="3.5" transform="translate(-46.89 133.7) rotate(-19.84)"/><path class="cls-1" d="M352.73,203.87l1,24s3,7,12-1l-.5-28.5"/><path class="cls-1" d="M491.23,134.37l-9-1s-15,15-18,32h13s5-20,14-30C491.23,135.37,492.23,134.37,491.23,134.37Z"/><path class="cls-1" d="M534.73,146.87s-14.5,44.5-18.5,43.5-73-9-73-9-26-16-73-3l-190-16s.5-9.5-8.5-11.5-55-4-55-4-6,0-7,5c0,0-1,3-14,0s-58-10-58-10-11-2-7-9l4-6h2s10-10,21-10,82,2,82,2l2,2,59-4,203,5s24,3,28,5,35,4,39,0c0,0,42,3,58.86,8,3.26,1,5.14,4.42,5.14,7.81Z"/><path class="cls-1" d="M533,137.31s-17.19,5.61-15.46,52.33"/><path class="cls-1" d="M53.23,62.37h-11s-2-8,23-10c0,0,11,0,20,1l-7,5s-19-1-23,2Z"/><path class="cls-1" d="M42.73,59.87s3.5-2.5,6.5.5,4,2,4,2"/><path class="cls-1" d="M48.28,59.6s6.56-6.38,34.26-4.3"/><path class="cls-1" d="M27.73,69.87v4a6.27,6.27,0,0,0,.48.42,5.84,5.84,0,0,0,3.25,1.14l19.27.94v-3l-20.5-1c-7-3,3-9,3-9s6.5-.5,4.5,2.5c0,0-5,3,0,4l11,1s2,1,2,2"/><path class="cls-1" d="M37.73,65.87s3,0,4,2c0,0,0,2,6,2L49,71"/><polyline class="cls-1" points="33.23 93.37 33.23 96.37 40.23 96.37 40.23 93.37"/><polyline class="cls-1" points="49.23 87.37 49.23 90.37 40.23 96.37"/><polygon class="cls-1" points="162.23 243.37 159.23 246.37 163.23 247.37 166.23 244.37 162.23 243.37"/><polygon class="cls-1" points="145.23 262.37 142.23 265.37 146.23 266.37 149.23 263.37 145.23 262.37"/><path class="cls-1" d="M45.73,341.87c7,8,5.5,10.5,5.5,10.5s-14-3-17-7,3-10,3-10c6-3,9,2,9,2l-1,4Z"/><path class="cls-1" d="M33.39,343.39l-.16,5s5,5,17,6l1-2"/><path class="cls-1" d="M75.42,117.19s-3.19,3.18-16.19,2.18c0,0-7,1-12,5s-5,5-5,5-2,5,5,7,5.26,7.85,5.26,7.85"/><path class="cls-1" d="M30.23,137.37v9a6.83,6.83,0,0,0,4,4c3,1,68,7,68,7s5,0,7-2c0,0,3-2,9-1s57,5,57,5,5,1,5,2"/><circle class="cls-1" cx="472.73" cy="159.87" r="1"/><circle class="cls-1" cx="474.73" cy="154.87" r="1"/><circle class="cls-1" cx="476.73" cy="150.87" r="1"/><circle class="cls-1" cx="478.73" cy="146.87" r="1"/><circle class="cls-1" cx="480.73" cy="143.87" r="1"/><circle class="cls-1" cx="482.73" cy="140.87" r="1"/><circle class="cls-1" cx="484.73" cy="137.87" r="1"/><polygon class="cls-1" points="509.48 418.86 512.83 407.65 525.92 408.88 522.73 420.87 509.48 418.86"/><path class="cls-1" d="M526.23,409.37l1,11-2,17s-1,4-5,3-4-2-4-2,1-6-7-13"/><path class="cls-1" d="M521.81,427.31s3.16,3,2.54,11.79"/><path class="cls-1" d="M491.23,47.37a10.07,10.07,0,0,0,1-3,1,1,0,0,0-1-1s-6-1-6-5-4-5-4-5-5,0-13,10-6,27-6,27,10,1,12,1,4-4,4-4l13-20"/><path class="cls-1" d="M462.73,58.87s5-2,5,4,8,4,8,4l14-23"/><path class="cls-1" d="M465.23,58.37s2-17,15-22c0,0,4,0,3,7,0,0-14.35,20.27-12.17,23.63"/><path class="cls-1" d="M483.23,419.37l1,14s0,4-3,5c0,0-3-2-3-5s1-14,1-14"/><path class="cls-1" d="M476.23,413.37v3s1,3,5,3,4.5-2.5,4.5-2.5v-3"/><ellipse class="cls-2" cx="480.99" cy="413.38" rx="1.63" ry="4.76" transform="translate(53.4 881.78) rotate(-88.28)"/><path class="cls-1" d="M479.23,405.37v3s1,3,5,3,4.5-2.5,4.5-2.5v-3"/><ellipse class="cls-2" cx="483.99" cy="405.38" rx="1.63" ry="4.76" transform="translate(64.3 877.01) rotate(-88.28)"/><path class="cls-3" d="M483.74,398.61v2.67a4.47,4.47,0,0,0,4.47,2.68c3.57,0,4-2.23,4-2.23v-2.68"/><ellipse class="cls-4" cx="487.99" cy="398.61" rx="1.46" ry="4.25" transform="translate(74.95 874.45) rotate(-88.28)"/><path class="cls-3" d="M485.74,391.61v2.67a4.47,4.47,0,0,0,4.47,2.68c3.57,0,4-2.23,4-2.23v-2.68"/><ellipse class="cls-4" cx="489.99" cy="391.61" rx="1.46" ry="4.25" transform="translate(83.88 869.66) rotate(-88.28)"/><path class="cls-3" d="M487.74,384.61v2.67a4.47,4.47,0,0,0,4.47,2.68c3.57,0,4-2.23,4-2.23v-2.68"/><ellipse class="cls-4" cx="491.99" cy="384.61" rx="1.46" ry="4.25" transform="translate(92.82 864.87) rotate(-88.28)"/><path class="cls-3" d="M490.74,377.61v2.67a4.47,4.47,0,0,0,4.47,2.68c3.57,0,4-2.23,4-2.23v-2.68"/><ellipse class="cls-4" cx="494.99" cy="377.61" rx="1.46" ry="4.25" transform="translate(102.73 861.07) rotate(-88.28)"/><path class="cls-3" d="M492.74,370.61v2.67a4.47,4.47,0,0,0,4.47,2.68c3.57,0,4-2.23,4-2.23v-2.68"/><ellipse class="cls-4" cx="496.99" cy="370.61" rx="1.46" ry="4.25" transform="translate(111.66 856.28) rotate(-88.28)"/><path class="cls-1" d="M487,410.82l.74,14.05a8.58,8.58,0,0,1-3.5,6.5"/><path class="cls-1" d="M490.61,403.49l.62,14.88a6.46,6.46,0,0,1-3,5"/><path class="cls-2" d="M493.06,396.25l.17,13.12s0,4-2,6"/><path class="cls-4" d="M495,389.29l1.25,13.08s0,4.55-3,5.28"/><path class="cls-4" d="M497.73,382.87l1,13s-.21,3.83-2.6,5.41"/><path class="cls-2" d="M499.23,376.37l1,10s.5,5.51-1.75,6.26"/><line class="cls-5" x1="27.73" y1="72.62" x2="33.23" y2="346.37"/><polyline class="cls-5" points="38.23 262.37 39.23 303.37 46.23 304.37"/><path class="cls-5" d="M46.73,263.67c0,.2,1,61.2,1,61.2"/><line class="cls-5" x1="49.36" y1="264.37" x2="51.37" y2="350.19"/><line class="cls-5" x1="54.66" y1="264.88" x2="54.66" y2="294.87"/><line class="cls-5" x1="83.23" y1="269.37" x2="83.23" y2="317.37"/><line class="cls-1" x1="108.23" y1="251.37" x2="108.23" y2="291.37"/><line class="cls-1" x1="296.73" y1="271.87" x2="296.73" y2="329.87"/><line class="cls-5" x1="142.23" y1="156.68" x2="142.23" y2="347.37"/><line class="cls-5" x1="147.06" y1="157.09" x2="147.23" y2="262.37"/><line class="cls-5" x1="163.94" y1="158.47" x2="165.73" y2="242.87"/><line class="cls-5" x1="158.27" y1="158.01" x2="160.23" y2="245.37"/><line class="cls-5" x1="147.73" y1="275.62" x2="149.23" y2="346.37"/><line class="cls-5" x1="160.16" y1="277.69" x2="160.16" y2="326.45"/><line class="cls-5" x1="166.23" y1="279.37" x2="166.23" y2="324.37"/><line class="cls-5" x1="193.23" y1="163.48" x2="192.73" y2="260.87"/><line class="cls-5" x1="208.23" y1="165.37" x2="209.23" y2="252.37"/><line class="cls-5" x1="352.23" y1="176.86" x2="354.65" y2="277.37"/><line class="cls-5" x1="365.73" y1="177.99" x2="366.73" y2="275.87"/><line class="cls-5" x1="462.23" y1="70.37" x2="464.23" y2="163.37"/><line class="cls-5" x1="492.23" y1="43.37" x2="491.23" y2="134.37"/><line class="cls-6" x1="481.93" y1="61.68" x2="483.39" y2="127.94"/><line class="cls-6" x1="479.73" y1="64.87" x2="481.39" y2="127.94"/><line class="cls-6" x1="477.73" y1="68.87" x2="479.39" y2="127.94"/><line class="cls-6" x1="475.73" y1="71.87" x2="477.73" y2="126.87"/><line class="cls-6" x1="473.73" y1="71.87" x2="475.73" y2="126.87"/><line class="cls-6" x1="471.73" y1="71.87" x2="473.73" y2="126.87"/><line class="cls-6" x1="469.73" y1="70.87" x2="471.39" y2="126.94"/><line class="cls-6" x1="485.93" y1="186.68" x2="491.73" y2="303.87"/><line class="cls-6" x1="483.73" y1="186.68" x2="489.73" y2="309.87"/><line class="cls-6" x1="481.73" y1="186.68" x2="486.73" y2="317.87"/><line class="cls-6" x1="479.73" y1="185.87" x2="484.73" y2="317.87"/><line class="cls-6" x1="477.73" y1="185.87" x2="482.73" y2="317.87"/><line class="cls-6" x1="475.73" y1="185.87" x2="480.73" y2="316.87"/><line class="cls-6" x1="473.73" y1="184.87" x2="475.39" y2="315.87"/><line class="cls-6" x1="475.73" y1="185.87" x2="477.73" y2="315.87"/><line class="cls-6" x1="477.73" y1="331.29" x2="478.23" y2="411.37"/><line class="cls-6" x1="479.73" y1="331.62" x2="482.73" y2="402.87"/><line class="cls-6" x1="482.73" y1="332.12" x2="485.23" y2="396.37"/><line class="cls-6" x1="492.23" y1="333.7" x2="494.73" y2="368.87"/><line class="cls-6" x1="489.99" y1="333.7" x2="492.23" y2="376.37"/><line class="cls-6" x1="486.73" y1="333.87" x2="489.73" y2="382.87"/><line class="cls-6" x1="484.73" y1="332.45" x2="487.73" y2="386.37"/><line class="cls-6" x1="503.23" y1="188.55" x2="509.18" y2="416.37"/><line class="cls-6" x1="521.12" y1="183.33" x2="527.23" y2="414.26"/><line class="cls-6" x1="533.9" y1="149.37" x2="540.93" y2="356.87"/><line class="cls-1" x1="523.23" y1="163.37" x2="552.23" y2="163.37"/><ellipse cx="97.73" cy="121.37" rx="1.5" ry="1"/><ellipse cx="113.73" cy="121.37" rx="1.5" ry="1"/><ellipse cx="126.73" cy="121.37" rx="1.5" ry="1"/><ellipse cx="145.73" cy="122.37" rx="1.5" ry="1"/><ellipse cx="177.73" cy="121.37" rx="1.5" ry="1"/><ellipse cx="206.73" cy="121.37" rx="1.5" ry="1"/><ellipse cx="249.23" cy="122.37" rx="2" ry="1"/><ellipse cx="439.23" cy="133.37" rx="2" ry="1"/><ellipse cx="295.73" cy="123.7" rx="2.5" ry="1.33"/><ellipse cx="328.73" cy="124.7" rx="2.5" ry="1.33"/><ellipse cx="371.73" cy="125.7" rx="2.5" ry="1.33"/><ellipse cx="400.73" cy="126.7" rx="2.5" ry="1.33"/><ellipse cx="414.73" cy="128.7" rx="2.5" ry="1.33"/><line class="cls-5" x1="437.73" y1="94.37" x2="438.73" y2="132.37"/><circle cx="437.73" cy="92.87" r="1.5"/><line class="cls-5" x1="413.73" y1="95.37" x2="414.73" y2="128.87"/><circle cx="413.73" cy="93.87" r="1.5"/><line class="cls-5" x1="399.73" y1="95.37" x2="400.73" y2="125.87"/><circle cx="399.73" cy="93.87" r="1.5"/><line class="cls-5" x1="369.73" y1="95.37" x2="370.73" y2="125.87"/><circle cx="369.73" cy="93.87" r="1.5"/><line class="cls-5" x1="327.73" y1="95.37" x2="328.73" y2="125.87"/><circle cx="327.73" cy="93.87" r="1.5"/><line class="cls-5" x1="295.73" y1="94.37" x2="296.73" y2="124.87"/><circle cx="295.73" cy="93.87" r="1.5"/><line class="cls-5" x1="248.73" y1="94.37" x2="249.73" y2="121.87"/><circle cx="248.73" cy="92.87" r="1.5"/><line class="cls-5" x1="205.73" y1="95.37" x2="206.73" y2="122.87"/><circle cx="205.73" cy="94.87" r="1.5"/><line class="cls-5" x1="176.73" y1="95.37" x2="177.73" y2="122.87"/><circle cx="176.73" cy="95.87" r="1.5"/><line class="cls-5" x1="144.73" y1="96.37" x2="145.73" y2="123.87"/><circle cx="144.73" cy="96.87" r="1.5"/><line class="cls-5" x1="125.73" y1="96.37" x2="126.73" y2="121.87"/><circle cx="125.73" cy="96.87" r="1.5"/><line class="cls-5" x1="112.73" y1="96.37" x2="113.73" y2="121.87"/><circle cx="112.73" cy="96.87" r="1.5"/><line class="cls-5" x1="96.73" y1="96.37" x2="97.73" y2="121.87"/><circle cx="96.73" cy="96.87" r="1.5"/><line class="cls-5" x1="85.23" y1="53.37" x2="86.73" y2="117.46"/><line class="cls-5" x1="50.73" y1="75.87" x2="52.97" y2="117.46"/><line class="cls-5" x1="33.23" y1="96.37" x2="34.23" y2="126.37"/><line class="cls-5" x1="42.81" y1="75.98" x2="42.81" y2="88.14"/><line class="cls-5" x1="43.34" y1="94.3" x2="44.23" y2="120.37"/><line class="cls-5" x1="49.23" y1="91.37" x2="50.23" y2="117.37"/><path class="cls-1" d="M509.23,418.37s2,4,0,7l13,2s3-2.15,0-6.57"/><line class="cls-1" x1="472.23" y1="14.37" x2="472.73" y2="38.42"/><line class="cls-1" x1="526.73" y1="106.87" x2="527.66" y2="134.37"/><line class="cls-1" x1="47.23" y1="45.37" x2="47.23" y2="56.28"/><path class="cls-7" d="M.25,105.42H3.43c.07-.77.1-1.58.1-2.43h.58q0,1.23-.09,2.43H9.68V106H6v3.88A9.37,9.37,0,0,0,8.23,107l.52.27A10.31,10.31,0,0,1,6,110.64v.76c0,.48.21.72.62.72H8.18a.59.59,0,0,0,.55-.22A3.36,3.36,0,0,0,9,110.32l.56.19a3.55,3.55,0,0,1-.43,1.87,1.11,1.11,0,0,1-.86.28H6.47c-.69,0-1-.38-1-1.14v-.47a11.17,11.17,0,0,1-2,1l-.34-.51a10,10,0,0,0,2.3-1.18V106H4a17.72,17.72,0,0,1-.37,2.22,7.91,7.91,0,0,1-3.08,4.6l-.39-.49A7.62,7.62,0,0,0,3,108.25a14.59,14.59,0,0,0,.4-2.26H.25ZM6.44,103a13.15,13.15,0,0,1,2,1.56L8,105A13,13,0,0,0,6,103.41Z"/><path class="cls-7" d="M13.11,103.06h.56v1.17h1.61v.52H13.67v1.31h1.79v.55H10.82v-.55h.72v-2.29h.55v2.29h1Zm1.57,4.38h.54v5.24h-.54v-.62l-3.51.41v-5h.54v4.47l3-.36ZM12.31,111l-.39-.35A6.92,6.92,0,0,0,13,107.13l.5.06a12.32,12.32,0,0,1-.2,1.43,16.92,16.92,0,0,1,1.1,1.85l-.42.31a13.67,13.67,0,0,0-.83-1.58A7.84,7.84,0,0,1,12.31,111Zm8.2-2.11A4.85,4.85,0,0,1,19,110.36a6.15,6.15,0,0,0,1.75,1.85l-.32.51A7.19,7.19,0,0,1,17.54,108h-.87v3.9a9,9,0,0,0,1.52-.71l.13.54a13.91,13.91,0,0,1-2.26.94l-.14-.54a.28.28,0,0,0,.2-.26v-8.4h3.8V108H18.08a6.54,6.54,0,0,0,.63,2,5.08,5.08,0,0,0,1.42-1.38Zm-1.15-3.44V104H16.67v1.5Zm-2.69.51v1.45h2.69V106Z"/><path class="cls-7" d="M520.79,96.79a12.51,12.51,0,0,0,4.6,2.07l-.32.48a12.09,12.09,0,0,1-4.45-2,13.21,13.21,0,0,1-4.49,2l-.32-.48a13.06,13.06,0,0,0,4.64-2ZM518,93.87h-1.69v-.51h4v.51h-1.7v1h1.55v.47h-1.55v1h1.78v.51h-4.13v-.51H518v-1h-1.55v-.47H518Zm-.8,5.95h6.73v.46a6.52,6.52,0,0,1-4.29,2.48l-.26-.52a6.41,6.41,0,0,0,3.88-1.89h-6.06Zm2.9-1.59a7.26,7.26,0,0,1,1.33,1l-.33.38a8.34,8.34,0,0,0-1.38-1Zm2.64-4.36H521v-.51h4v.51h-1.7v1h1.56v.47h-1.56v1h1.78v.51h-4.13v-.51h1.78v-1h-1.54v-.47h1.54Z"/><path class="cls-7" d="M526.84,97.89l-.31-.42a5.14,5.14,0,0,0,1.86-2.53l.52.06a4.71,4.71,0,0,1-.32.81h2.09v.41a7.66,7.66,0,0,1-1,1.53A17,17,0,0,1,531.55,99l-.36.36a16.37,16.37,0,0,0-1.86-1.29,6.22,6.22,0,0,1-2.67,1.46l-.22-.46a5.69,5.69,0,0,0,2.45-1.27c-.31-.19-.71-.42-1.22-.69A6.56,6.56,0,0,1,526.84,97.89ZM531.19,94v1.68h-.53V94.52h-3.35V95.7h-.51V94h2a5.23,5.23,0,0,0-.53-1l.59-.11a7.86,7.86,0,0,1,.51,1.13Zm-.52,5.49v3.19h-.54v-.57H528v.57h-.53V99.5Zm-.58-3.22h-1.76c-.13.2-.25.37-.35.51.56.3,1,.53,1.26.7A7.24,7.24,0,0,0,530.09,96.28Zm-2.1,5.34h2.14V100H528Zm5.64-5.09h.53v2a5.41,5.41,0,0,1-.64,2.74,3.86,3.86,0,0,1-1.94,1.5l-.3-.47a3.6,3.6,0,0,0,1.83-1.4,5,5,0,0,0,.52-2.37Zm-2-3.09h4.67V94h-2a13.45,13.45,0,0,1-.26,1.35h1.85v5h-.53V95.85h-2.86v4.48H532v-5h1.53a8,8,0,0,0,.25-1.35h-2.09Zm2.85,7.1a13.35,13.35,0,0,1,1.9,1.84l-.39.39a12.5,12.5,0,0,0-1.86-1.89Z"/><path class="cls-7" d="M460.52,5.29V1a35.39,35.39,0,0,0,6.42-.78l.3.52a42.25,42.25,0,0,1-6.15.77v1.3h6.48v.56h-2.08v1.9h2.87v.56h-9.43V5.29Zm2.83,1.06h.58V8.88h2.74v-2h.57v3h-.57V9.43h-6.05v.5h-.57v-3h.57v2h2.73Zm-2.26-3v1.9h3.85V3.39Z"/><path class="cls-7" d="M478,1.89h.59V9.7H478V8.94h-7.19V9.7h-.59V1.86h.59V8.38h3.31V.13h.58V8.38H478Z"/><path class="cls-7" d="M263.09,342.13h3.18q.09-1.15.09-2.43h.58c0,.82,0,1.63-.08,2.43h5.65v.57h-3.66v3.88a9.37,9.37,0,0,0,2.21-2.83l.53.27a10.21,10.21,0,0,1-2.74,3.33v.76q0,.72.63.72H271a.61.61,0,0,0,.55-.22,3.5,3.5,0,0,0,.29-1.58l.56.19a3.65,3.65,0,0,1-.43,1.87,1.14,1.14,0,0,1-.87.28H269.3c-.69,0-1-.38-1-1.14v-.47a10.84,10.84,0,0,1-2,1l-.33-.51a9.9,9.9,0,0,0,2.29-1.18V342.7H266.8a17.72,17.72,0,0,1-.36,2.22,8,8,0,0,1-3.08,4.6L263,349a7.56,7.56,0,0,0,2.85-4.07,14.59,14.59,0,0,0,.4-2.26h-3.12Zm6.18-2.39a12.65,12.65,0,0,1,2,1.56l-.42.41a12.06,12.06,0,0,0-1.94-1.59Z"/><path class="cls-7" d="M274.12,342.56a13.06,13.06,0,0,1,1.86,1.65l-.42.42a12.36,12.36,0,0,0-1.85-1.66Zm1.93,3.15a35.65,35.65,0,0,1-1.61,3.83l-.58-.25a31.22,31.22,0,0,0,1.66-3.8Zm-1.74-5.79a14,14,0,0,1,2,1.72l-.41.42a13.52,13.52,0,0,0-2-1.73Zm4.24,9.35c-.77,0-1.15-.4-1.15-1.22v-4.24l-1,.33v-.57l1-.33v-2.58H278V343l1.72-.59V339.7h.58v2.54l2.39-.83a31.55,31.55,0,0,1-.14,4.06c-.08.48-.46.71-1.13.71h-.26l-.17-.55h.55a.45.45,0,0,0,.48-.42,21.77,21.77,0,0,0,.1-3l-1.82.62v4.58h-.58V343l-1.72.58V348c0,.51.23.76.7.76h3a1.23,1.23,0,0,0,.83-.23,4.33,4.33,0,0,0,.31-1.78l.55.18a4.28,4.28,0,0,1-.43,2.05,1.55,1.55,0,0,1-1.15.34Z"/><path class="cls-7" d="M293.83,339.58a9.8,9.8,0,0,0-1,2.24,8.69,8.69,0,0,0,0,5.58,10,10,0,0,0,1,2.24h-.59a9.11,9.11,0,0,1-1.07-2.22,8.78,8.78,0,0,1,0-5.61,9.36,9.36,0,0,1,1.07-2.23Z"/><path class="cls-7" d="M303.12,343.53v-3h.58v3.57h-3.32v4.14h3.24v-3h.57v4.25h-.57v-.67h-7.09v.67H296v-4.25h.57v3h3.25v-4.14h-3.32v-3.57H297v3h2.74V339.7h.6v3.83Z"/><path class="cls-7" d="M306.63,340.82h4a9,9,0,0,0-.56-1.08l.62-.11a10.54,10.54,0,0,1,.52,1.19h3.86v.56h-1.77a7.84,7.84,0,0,1-.7,1.89h3v.55h-9.46v-.55H309c-.22-.71-.45-1.34-.68-1.89h-1.71Zm7.47,4v4.71h-.57V349h-5.32v.56h-.57v-4.71Zm-5.89,1.83h5.32v-1.32h-5.32Zm0,1.81h5.32v-1.3h-5.32Zm.75-7.09c.23.63.44,1.26.62,1.89H312a7.88,7.88,0,0,0,.71-1.89Z"/><path class="cls-7" d="M317.11,340.17h4.33v.51a13.19,13.19,0,0,1-1.56,2.13v1.8c.67-.16,1.27-.31,1.8-.46v.57c-.63.19-1.23.34-1.8.47v3.36c0,.63-.33.94-1,.94h-1.26l-.15-.56c.66,0,1.07.05,1.22.05a.52.52,0,0,0,.6-.59v-3.06c-.93.2-1.75.36-2.45.46l-.16-.6q1.35-.19,2.61-.45v-2.16a11.59,11.59,0,0,0,1.46-1.87h-3.66Zm6.63,9.31c-.67,0-1-.35-1-1.05v-8.67h.58v8.56a.55.55,0,0,0,.61.62h1.14a.66.66,0,0,0,.6-.26,5.25,5.25,0,0,0,.3-2l.56.18a5,5,0,0,1-.44,2.27,1.16,1.16,0,0,1-.91.33Z"/><path class="cls-7" d="M328.46,339.58a9.76,9.76,0,0,1,1.07,2.23,8.78,8.78,0,0,1,0,5.61,9.9,9.9,0,0,1-1.07,2.22h-.59a10.37,10.37,0,0,0,1-2.24,8.52,8.52,0,0,0,0-5.58,10.16,10.16,0,0,0-1-2.24Z"/><path class="cls-7" d="M528.22,389.42l-.13-.56c.46,0,.79,0,1,0s.46-.16.46-.49v-2.82c-.49.18-1,.33-1.44.46l-.15-.57c.59-.15,1.12-.3,1.59-.47V382.4h-1.44v-.58h1.44v-2.09h.58v2.09h1.25v.58h-1.25v2.4c.43-.17.86-.36,1.31-.58v.59c-.49.23-.93.42-1.31.57v3.18a.75.75,0,0,1-.84.86Zm4.45-5a9.44,9.44,0,0,1-1.36,5.1l-.44-.4a8.52,8.52,0,0,0,1.22-4.71v-3.35h2.43a9.78,9.78,0,0,0-.52-1.3l.61-.11a10.51,10.51,0,0,1,.49,1.41h2.34v3.36Zm4.21-2.79h-4.21v2.22h4.21Z"/><path class="cls-7" d="M541,382.65h.56v1.73h1.22v.53h-1.22v1.69c.77-.17,1.24-.27,1.4-.32v.54l-1.4.33v2.34H541v-2.24c-.83.14-1.52.24-2.09.32l-.07-.56c.61-.08,1.33-.18,2.16-.31v-1.79h-1.91l-.13-.53a15.4,15.4,0,0,0,1-2.64h-1.12v-.56h1.27c.14-.54.26-1,.35-1.51l.55.1c-.12.53-.22,1-.32,1.41H543v.56h-2.48a21.68,21.68,0,0,1-.93,2.64H541Zm4.82-2.92a8.13,8.13,0,0,0,2.85,3l-.33.49a8.53,8.53,0,0,1-2.79-3,10.27,10.27,0,0,1-2.74,3.05l-.32-.48a10.23,10.23,0,0,0,2.79-3.12Zm2.58,6a9.73,9.73,0,0,1-5.21,3.85l-.23-.52a9.29,9.29,0,0,0,5-3.67Zm-1.82-3a6.11,6.11,0,0,1-3.17,2.24l-.23-.51a5.4,5.4,0,0,0,3-2.07Zm.83,1.49a6.86,6.86,0,0,1-3.75,2.77l-.22-.5a6.7,6.7,0,0,0,3.55-2.59Z"/><path class="cls-7" d="M37.23,35.89h4.34v.55h-.93v3.1a.52.52,0,0,0,.58.6h3.49a1,1,0,0,0,.72-.19,2.76,2.76,0,0,0,.36-1.48l.53.17a2.89,2.89,0,0,1-.5,1.78,1.53,1.53,0,0,1-1,.27H41c-.64,0-1-.34-1-1V36.44h-1a9.32,9.32,0,0,1-.45,2.73,4,4,0,0,1-1.44,1.71l-.36-.46a3.68,3.68,0,0,0,1.28-1.51,7,7,0,0,0,.42-2.47H37.23ZM46,31.6v1.83h-.58V32.15H37.9v1.28h-.59V31.6Zm-8.24,2.24h3.49v.56H37.73Zm4.09.46h2.46V33.09h.57V34.3H46v.56H44.85v3.42q0,.93-.87.93H42.83l-.12-.54,1.07,0c.33,0,.5-.19.5-.57V34.86H41.82Zm.6,1.26a11.37,11.37,0,0,1,1.06,1.82l-.46.24A10.25,10.25,0,0,0,42,35.77Z"/><path class="cls-7" d="M49.4,38.4a6,6,0,0,1-1.13,2.53l-.45-.41A6.16,6.16,0,0,0,49,36.71V34c-.4.3-.75.55-1,.73l-.37-.45A10.24,10.24,0,0,0,51,31l.57.14c-.22.35-.42.64-.6.88h4.11v.44a11.26,11.26,0,0,1-1.64,1.36h3V40c0,.59-.32.89-1,.89H54.06l-.14-.54c.66,0,1.12,0,1.37,0s.56-.19.56-.58V38.4h-3v2.31h-.57V38.4Zm3.22-4.61a11.68,11.68,0,0,0,1.7-1.29H50.58a11.43,11.43,0,0,1-1.32,1.29Zm-3,2.61v.26a10.21,10.21,0,0,1-.08,1.2h2.82V36.4Zm2.74-2.07H49.58v1.55h2.74Zm3.53,1.55V34.33h-3v1.55Zm0,2V36.4h-3v1.46Z"/><path class="cls-7" d="M169.25,360.47V361h-7.94v3.34a11.82,11.82,0,0,1-1.14,5.36l-.44-.38a10.78,10.78,0,0,0,1-5v-3.9Zm-6.69,4c-.2.3-.48.67-.85,1.12l-.19-.61a9.72,9.72,0,0,0,1.84-3.53l.54.1a9.63,9.63,0,0,1-.78,2v6.23h-.56Zm2.56,4.64v.63h-.53v-5.5a12.2,12.2,0,0,1-1,1.36l-.19-.58a10,10,0,0,0,1.85-3.59l.53.1a9.52,9.52,0,0,1-.58,1.57h2.08a11.52,11.52,0,0,0-.68-1.5l.54-.08a11,11,0,0,1,.67,1.58h1.39v.52h-1.76V365H169v.52h-1.54v1.28H169v.52h-1.56v1.35h1.94v.52Zm1.8-5.49h-1.8V365h1.8Zm-1.8,1.82v1.28h1.8v-1.28Zm0,1.8v1.35h1.8v-1.35Z"/><path class="cls-7" d="M172.28,360.38h6.66v3.53h-3v2h3.62v.58H176v2.44a16.43,16.43,0,0,0,2.32.14c.78,0,1.44,0,2,0l-.16.57h-1.76a9.64,9.64,0,0,1-3.93-.53,4.3,4.3,0,0,1-1.7-2,8.26,8.26,0,0,1-1.62,2.72l-.37-.47a9.3,9.3,0,0,0,2.05-4.62l.58.1c-.13.6-.27,1.16-.42,1.67a4,4,0,0,0,1.79,2.12,5.2,5.2,0,0,0,.69.22v-4.9h-3.13Zm6.06,3v-2.42h-5.48v2.42Z"/><path class="cls-7" d="M213.71,206a20.09,20.09,0,0,1-3.43,1.18l-.15-.58c.47-.1,1-.23,1.48-.38v-4h-1.35v-.57h1.35v-2.95h.58v2.95h1.27v.57h-1.27V206c.48-.16,1-.36,1.52-.6Zm5.78-5.39a36.38,36.38,0,0,1-.13,4.07c-.1.47-.47.7-1.11.7H218l-.17-.59.56,0a.46.46,0,0,0,.47-.41,25.46,25.46,0,0,0,.09-3l-1.7.51v4.3h-.56v-4.13l-1.57.47v4.69c0,.37.18.55.53.55h2.86a.63.63,0,0,0,.56-.23,4.55,4.55,0,0,0,.28-1.74l.55.17a4.15,4.15,0,0,1-.42,2,1.08,1.08,0,0,1-.86.31h-3.14c-.61,0-.92-.33-.92-1v-4.64l-.86.25v-.57l.86-.25V199.8h.56V202l1.57-.48v-2.78h.56v2.61Z"/><path class="cls-7" d="M223.32,208.48h-.58v-5.77a14.18,14.18,0,0,1-1.58,3.5l-.26-.63a11.8,11.8,0,0,0,1.83-4.24h-1.61v-.57h1.62v-2.05h.58v2.05h1.28v.57h-1.28V202c.55.65,1.1,1.37,1.65,2.17l-.34.49a23.11,23.11,0,0,0-1.31-2Zm1.7-7.86h5.52v.57h-2.47V204h2.21v.55h-2.21v3.09h2.64v.56h-6v-.56h2.78v-3.09h-2.22V204h2.22v-2.83H225Zm2.37-1.93a11.3,11.3,0,0,1,.7,1.66l-.5.19a12.17,12.17,0,0,0-.78-1.69Z"/><path class="cls-7" d="M327.37,220.57h4a19.49,19.49,0,0,0,.32-2.68h-4v-.56h8.44v.56h-3.86a25.59,25.59,0,0,1-.3,2.68h4.49v.57h-4.07a8.63,8.63,0,0,0,4.38,4.92l-.35.47a9,9,0,0,1-4.58-5.36,7.63,7.63,0,0,1-.77,2.11,8.68,8.68,0,0,1-3.66,3.25l-.38-.47a8.38,8.38,0,0,0,3.48-3,7.66,7.66,0,0,0,.73-1.94h-3.84Z"/><path class="cls-7" d="M340.14,226.47h-.58V220.7a13.82,13.82,0,0,1-1.58,3.5l-.26-.63a11.8,11.8,0,0,0,1.83-4.24H338v-.57h1.61v-2h.58v2h1.29v.57h-1.29V220a24.81,24.81,0,0,1,1.65,2.18l-.33.48c-.55-.91-1-1.59-1.32-2Zm1.71-7.86h5.51v.57H344.9V222h2.2v.55h-2.2v3.09h2.63v.56h-6v-.56h2.78v-3.09h-2.22V222h2.22v-2.83h-2.46Zm2.37-1.93a12.51,12.51,0,0,1,.7,1.66l-.51.19a12.17,12.17,0,0,0-.78-1.69Z"/><path class="cls-7" d="M556,159.48h7v4.25a18.85,18.85,0,0,0,.2,3.53c.13.5.3.76.49.76s.33-.56.45-1.66l.48.22a7.7,7.7,0,0,1-.39,1.7q-.21.39-.48.39c-.45,0-.78-.33-1-1a15.47,15.47,0,0,1-.32-4V160h-5.89v3.55a9.56,9.56,0,0,1-1.41,5.19l-.47-.37a9,9,0,0,0,1.32-4.82Zm1.75,3.4c.78.71,1.47,1.38,2,2a9.24,9.24,0,0,0,1.11-2.77h-3.42v-.55h4v.53a9.79,9.79,0,0,1-1.26,3.24c.55.59,1.1,1.25,1.64,2l-.43.43c-.49-.66-1-1.3-1.54-1.9a7.61,7.61,0,0,1-2.82,2.32l-.33-.49a7.54,7.54,0,0,0,2.74-2.28c-.74-.79-1.45-1.5-2.13-2.12Z"/><path class="cls-7" d="M574.55,159.76a37.67,37.67,0,0,1-3.9.45V162h4.45v.57h-4.45v1.89h3.13v4.29h-.58v-.6h-5.68v.6h-.59V164.5h3.14v-1.89h-4.45V162h4.45v-1.8c-1.19.06-2.4.08-3.63.08l-.18-.53a48.66,48.66,0,0,0,8-.54Zm-7,7.87h5.68v-2.57h-5.68Z"/><path class="cls-7" d="M459.58,400.8a12.51,12.51,0,0,0,4.6,2.07l-.33.48a12,12,0,0,1-4.44-2.06,13.08,13.08,0,0,1-4.5,2l-.31-.49a12.75,12.75,0,0,0,4.63-2Zm-2.83-2.92h-1.7v-.51h4v.51h-1.7v1h1.55v.47h-1.55v1h1.77v.51H455v-.51h1.78v-1h-1.56v-.47h1.56Zm-.8,5.95h6.73v.46a6.52,6.52,0,0,1-4.3,2.48l-.26-.52a6.38,6.38,0,0,0,3.88-1.89H456Zm2.9-1.59a7.66,7.66,0,0,1,1.33,1l-.33.39a8.34,8.34,0,0,0-1.38-1.05Zm2.63-4.36h-1.69v-.51h4v.51h-1.7v1h1.56v.47h-1.56v1h1.77v.51h-4.12v-.51h1.77v-1h-1.54v-.47h1.54Z"/><path class="cls-7" d="M467.51,399.89h.56v1.73h1.21v.53h-1.21v1.69c.76-.17,1.23-.27,1.4-.32v.54l-1.4.33v2.34h-.56v-2.24c-.83.14-1.53.24-2.09.32l-.08-.56,2.17-.31v-1.79H465.6l-.13-.53a17.31,17.31,0,0,0,1-2.64h-1.12v-.56h1.27c.14-.54.25-1,.34-1.51l.55.1c-.11.53-.22,1-.32,1.41h2.33V399H467a21.62,21.62,0,0,1-.94,2.64h1.45Zm4.81-2.92a8,8,0,0,0,2.86,3l-.34.49a8.53,8.53,0,0,1-2.79-3,10.24,10.24,0,0,1-2.73,3.05l-.33-.48a10,10,0,0,0,2.79-3.12Zm2.59,6a9.76,9.76,0,0,1-5.22,3.85l-.22-.52a9.23,9.23,0,0,0,5-3.67Zm-1.82-3a6.15,6.15,0,0,1-3.17,2.24l-.24-.51a5.4,5.4,0,0,0,3-2.07Zm.83,1.49a6.94,6.94,0,0,1-3.75,2.77l-.23-.5a6.72,6.72,0,0,0,3.56-2.59Z"/><path class="cls-7" d="M98.1,297.58h7v4.24a17.61,17.61,0,0,0,.21,3.53c.12.51.29.76.48.76s.33-.56.45-1.66l.48.22a7.83,7.83,0,0,1-.39,1.71c-.14.25-.3.38-.48.38-.45,0-.78-.33-1-1a15.47,15.47,0,0,1-.32-3.95v-3.68H98.66v3.54a9.47,9.47,0,0,1-1.41,5.19l-.47-.36a9,9,0,0,0,1.32-4.83ZM99.85,301c.79.71,1.47,1.38,2.05,2A9.24,9.24,0,0,0,103,300.2H99.59v-.55h4v.53a9.7,9.7,0,0,1-1.26,3.24,24.1,24.1,0,0,1,1.64,2l-.43.43a24.23,24.23,0,0,0-1.54-1.91,7.64,7.64,0,0,1-2.82,2.33l-.33-.5a7.54,7.54,0,0,0,2.74-2.28c-.74-.79-1.45-1.5-2.13-2.11Z"/><path class="cls-7" d="M108.16,299.9a13.09,13.09,0,0,1,1.82,1.7l-.42.42a13.38,13.38,0,0,0-1.82-1.71Zm.18-2.65a13.88,13.88,0,0,1,2,1.74l-.42.42a14.18,14.18,0,0,0-2-1.75Zm1.81,5.64a42.56,42.56,0,0,1-1.6,4.1l-.57-.26a36.07,36.07,0,0,0,1.64-4.05Zm.69-4.73v-.54h5.9a12.76,12.76,0,0,1-.3,3.54,1,1,0,0,1-1,.58l-1.27,0-.15-.52c.52,0,1,0,1.3,0a.67.67,0,0,0,.67-.52,14.48,14.48,0,0,0,.16-2.55h-2.77a6.62,6.62,0,0,1-.77,2.26,5.42,5.42,0,0,1-1.74,1.6l-.34-.44a4.82,4.82,0,0,0,1.57-1.39,5.67,5.67,0,0,0,.73-2Zm5.73,4.39V307H116v-.6h-4.08v.6h-.58v-4.4Zm-4.66,3.24H116v-2.68h-4.08Z"/><path class="cls-7" d="M118.4,188.57a12.36,12.36,0,0,0,4.6,2.06l-.32.49a12.17,12.17,0,0,1-4.45-2.06,13.21,13.21,0,0,1-4.49,2l-.31-.49a13,13,0,0,0,4.63-2Zm-2.83-2.92h-1.69v-.51h4v.51h-1.7v1h1.55v.47h-1.55v1h1.78v.52h-4.13v-.52h1.78v-1H114v-.47h1.55Zm-.8,5.94h6.73v.47a6.45,6.45,0,0,1-4.29,2.47L117,194a6.41,6.41,0,0,0,3.88-1.89h-6.06Zm2.9-1.58a7.14,7.14,0,0,1,1.34,1l-.34.39a9,9,0,0,0-1.38-1.06Zm2.64-4.36h-1.69v-.51h4v.51h-1.7v1h1.56v.47h-1.56v1h1.78v.52h-4.13v-.52h1.78v-1h-1.54v-.47h1.54Z"/><path class="cls-7" d="M125.18,190.76a10.48,10.48,0,0,1-.71,3.76l-.44-.4a11.37,11.37,0,0,0,.59-3.83v-5.12h2.64v8.47c0,.55-.23.83-.69.83h-.8l-.14-.55.75,0c.23,0,.34-.17.34-.5v-2.69Zm1.54-3v-2h-1.53v2Zm-1.53.52v2h1.53v-2Zm2.55-3.08h6v.52H131.8v1.16h1.6v2.64h-2.63c-.11.3-.26.65-.44,1.05h3.53v.53h-1.37a3.89,3.89,0,0,1-1,1.95q1.05.42,2.25,1l-.32.46c-.66-.36-1.45-.74-2.37-1.13a8.41,8.41,0,0,1-3.18,1.15l-.21-.5a9.06,9.06,0,0,0,2.77-.9c-.55-.23-1.15-.45-1.79-.68.32-.5.59-1,.82-1.37h-1.76v-.53h2c.2-.43.36-.78.47-1.05h-2.08v-2.64h1.58V185.7h-2Zm2,3.83v-1.65h-1.14V189Zm2.16,2.07h-1.87c-.19.35-.42.73-.7,1.15q.67.22,1.56.57A3.23,3.23,0,0,0,131.93,191.08Zm-.62-2.07v-1.65H130.2V189Zm0-2.15V185.7h-1.09v1.16Zm1.56,2.15v-1.65h-1.1V189Z"/><path class="cls-7" d="M101.46,77.69H102v3.58h4.45v.59H102v5.63h-.58V81.86H97v-.59h4.48Z"/><path class="cls-7" d="M107.67,86.31h9.63v.58h-9.63Zm.67-7.76h8.32v.57h-8.32Zm.8,3.74h6.71v.58h-6.71Z"/><path class="cls-7" d="M120.51,77.91a7.84,7.84,0,0,1-2,3.07l-.18-.57a7.28,7.28,0,0,0,1.7-2.73Zm.27,3a8.2,8.2,0,0,1-.72,1.38v5.22h-.56V83a8.15,8.15,0,0,1-1,1l-.17-.56a7.19,7.19,0,0,0,1.94-2.75Zm.41,3.82h1.34v-1.1H121v-.51h3.52v.51h-1.46v1.1h1.29v.49h-1.29V86.4h1.48v.51H121V86.4h1.54V85.23h-1.34Zm1.29-7H123V80h.93V78.19h.49v2.33h-3.37V78.23h.5V80h.93Zm-1.29,3.82h3.18v.53h-3.18Zm4.23.24a10.67,10.67,0,0,1-.58,1.4l-.35-.44a15.71,15.71,0,0,0,1.18-5.1l.54.1c0,.49-.13,1.06-.23,1.7h2.13V80h-.44a12.77,12.77,0,0,1-.88,4.82,6.24,6.24,0,0,0,1.46,2.12l-.33.47a6.63,6.63,0,0,1-1.4-2,7,7,0,0,1-1.57,2l-.31-.47a6.25,6.25,0,0,0,1.61-2.2A17.07,17.07,0,0,1,125.42,81.77Zm.46-1.79c-.07.34-.14.63-.2.86a18.08,18.08,0,0,0,.82,3.27,12.45,12.45,0,0,0,.67-4.13Z"/><path class="cls-7" d="M243.23,80.28l.08.57-5.41,1V86c0,.45.19.67.59.67h2.78a1.18,1.18,0,0,0,.83-.25,4.12,4.12,0,0,0,.32-1.85l.56.18a4.79,4.79,0,0,1-.43,2.14,1.61,1.61,0,0,1-1.19.35h-3c-.69,0-1-.38-1-1.15V82l-3.57.66-.09-.57,3.66-.68V77.82h.59v3.44Z"/><path class="cls-7" d="M246.53,77.91a7.84,7.84,0,0,1-2,3.07l-.18-.57a7.28,7.28,0,0,0,1.7-2.73Zm.27,3a8.2,8.2,0,0,1-.72,1.38v5.22h-.56V83a8.15,8.15,0,0,1-1,1l-.17-.56a7.19,7.19,0,0,0,1.94-2.75Zm.41,3.82h1.34v-1.1H247v-.51h3.52v.51h-1.46v1.1h1.29v.49h-1.29V86.4h1.48v.51H247V86.4h1.54V85.23h-1.34Zm1.3-7H249V80H250V78.19h.49v2.33h-3.37V78.23h.5V80h.94Zm-1.3,3.82h3.18v.53h-3.18Zm4.23.24a10.67,10.67,0,0,1-.58,1.4l-.35-.44a15.71,15.71,0,0,0,1.18-5.1l.54.1c0,.49-.13,1.06-.23,1.7h2.13V80h-.44a12.57,12.57,0,0,1-.88,4.82,6.24,6.24,0,0,0,1.46,2.12l-.33.47a6.63,6.63,0,0,1-1.4-2,7,7,0,0,1-1.57,2l-.31-.47a6.4,6.4,0,0,0,1.62-2.2A17,17,0,0,1,251.44,81.77ZM251.9,80c-.07.34-.14.63-.2.86a18.08,18.08,0,0,0,.82,3.27,12.45,12.45,0,0,0,.67-4.13Z"/><path class="cls-7" d="M432.79,77.16a7.86,7.86,0,0,1-2,3.07l-.18-.57a7.16,7.16,0,0,0,1.7-2.73Zm.27,3a8.2,8.2,0,0,1-.72,1.38v5.22h-.56V82.28a9,9,0,0,1-1,1l-.18-.56a7,7,0,0,0,1.94-2.75Zm.41,3.82h1.33v-1.1h-1.52v-.51h3.53v.51h-1.47V84h1.29v.49h-1.29v1.17h1.49v.51h-3.57v-.51h1.54V84.48h-1.33Zm1.29-7h.52v2.29h.92V77.44h.5v2.33h-3.37V77.48h.49v1.77h.94Zm-1.29,3.82h3.18v.53h-3.18Zm4.22.24a9.54,9.54,0,0,1-.57,1.4l-.36-.44a15.69,15.69,0,0,0,1.19-5.1l.54.1c-.05.49-.13,1.06-.24,1.7h2.13v.55h-.44a12.58,12.58,0,0,1-.87,4.82,6.22,6.22,0,0,0,1.45,2.12l-.32.47a6.46,6.46,0,0,1-1.4-2,7.21,7.21,0,0,1-1.57,2l-.32-.47a6.4,6.4,0,0,0,1.62-2.2A18,18,0,0,1,437.69,81Zm.46-1.79c-.07.34-.13.63-.19.86a17.28,17.28,0,0,0,.82,3.27,13,13,0,0,0,.67-4.13Z"/><path class="cls-7" d="M374.8,194.57a12.28,12.28,0,0,0,4.6,2.06l-.33.49a12.25,12.25,0,0,1-4.45-2.06,13.21,13.21,0,0,1-4.49,2l-.31-.49a12.92,12.92,0,0,0,4.63-2ZM372,191.65h-1.69v-.51h4v.51h-1.71v1h1.56v.47h-1.56v1h1.78v.52h-4.12v-.52H372v-1h-1.55v-.47H372Zm-.79,5.94h6.73v.47a6.47,6.47,0,0,1-4.3,2.47l-.26-.51a6.41,6.41,0,0,0,3.88-1.89h-6.05Zm2.89-1.58a6.83,6.83,0,0,1,1.34,1l-.34.39a9.37,9.37,0,0,0-1.37-1.06Zm2.64-4.36H375v-.51h4v.51h-1.71v1h1.57v.47h-1.57v1h1.78v.52h-4.12v-.52h1.77v-1h-1.54v-.47h1.54Z"/><path class="cls-7" d="M382.24,194.13v.76a11.45,11.45,0,0,1-1.34,5.6l-.44-.39a10.48,10.48,0,0,0,1.19-5.21v-3.3h3.76c-.13-.32-.27-.61-.4-.86l.61-.11c.09.2.22.53.38,1h3.48v2.54Zm6.68-2h-6.68v1.44h6.68Zm-5,6.62v1.68h-.56V195.2h5.86v4.43a.73.73,0,0,1-.83.81h-1.23l-.14-.53,1.19,0q.45,0,.45-.42v-.75Zm4.74-2v-1h-4.74v1Zm-4.74.51v1h4.74v-1Z"/><path class="cls-7" d="M400.9,202.06a12.13,12.13,0,0,0,4.59,2.07l-.32.49a12.42,12.42,0,0,1-4.45-2.06,13.21,13.21,0,0,1-4.49,2l-.31-.48a13,13,0,0,0,4.63-2Zm-2.84-2.92h-1.69v-.5h4v.5h-1.7v1h1.55v.48h-1.55v1h1.78v.52h-4.13v-.52h1.78v-1h-1.55v-.48h1.55Zm-.8,6H404v.46a6.48,6.48,0,0,1-4.3,2.48l-.26-.52a6.45,6.45,0,0,0,3.88-1.88h-6.06Zm2.9-1.58a6.83,6.83,0,0,1,1.34,1l-.34.39a8.73,8.73,0,0,0-1.37-1.06Zm2.64-4.37h-1.69v-.5h4v.5h-1.7v1h1.56v.48h-1.56v1h1.78v.52H401v-.52h1.78v-1h-1.54v-.48h1.54Z"/><path class="cls-7" d="M408.09,199.9h-1.36v-.58H410v.58h-1.34V205c.61-.21,1.09-.39,1.43-.52v.58a28.67,28.67,0,0,1-3.32,1.1l-.16-.57,1.47-.4Zm5,2.08h.58v1.82a4.23,4.23,0,0,1-.91,2.75,5.6,5.6,0,0,1-2.78,1.51l-.33-.49a5.72,5.72,0,0,0,2.69-1.39,4,4,0,0,0,.75-2.38Zm-2.6-3.26h5.92v.58h-2.63q-.12.75-.27,1.32h2.32v5h-.58v-4.4h-3.63v4.4H411v-5h1.88a10.2,10.2,0,0,0,.27-1.32h-2.71Zm3.72,6.95a16.53,16.53,0,0,1,2.31,2l-.41.41a15.54,15.54,0,0,0-2.29-2.06Z"/><path class="cls-7" d="M5.82,288.16h.56v1.17H8v.52H6.38v1.31h1.8v.55H3.54v-.55h.72v-2.29h.55v2.29h1Zm1.57,4.38h.54v5.24H7.39v-.62l-3.51.41v-5.06h.54V297l3-.35ZM5,296.12l-.39-.35a7,7,0,0,0,1.11-3.55l.5.07a12.36,12.36,0,0,1-.19,1.43,16.62,16.62,0,0,1,1.09,1.85l-.42.3a14.24,14.24,0,0,0-.82-1.57A8.29,8.29,0,0,1,5,296.12Zm8.2-2.11a4.79,4.79,0,0,1-1.55,1.44,5.92,5.92,0,0,0,1.74,1.86l-.32.5a7.13,7.13,0,0,1-2.83-4.75H9.39V297a9,9,0,0,0,1.51-.71l.13.54a14.44,14.44,0,0,1-2.26.94l-.14-.54a.29.29,0,0,0,.21-.26v-8.4h3.8v4.53H10.8a6.66,6.66,0,0,0,.62,1.95,4.7,4.7,0,0,0,1.42-1.38Zm-1.14-3.45v-1.49H9.39v1.49Zm-2.69.52v1.44h2.69v-1.44Z"/><path class="cls-7" d="M14.58,297.82l-.13-.56,1,.05c.31,0,.46-.14.46-.4v-3a14,14,0,0,1-1.41.49l-.14-.56a11.64,11.64,0,0,0,1.55-.49V290.8H14.45v-.57h1.43v-2.08h.57v2.08h1.19v.57H16.45v2.32c.33-.15.68-.33,1.05-.52v.58l-1.05.5v3.38c0,.51-.27.76-.83.76Zm9.21-5.62.08.57-3.37.42v3.48c0,.33.18.5.54.5h1.48a.73.73,0,0,0,.62-.23,4,4,0,0,0,.32-1.8l.55.17a4.4,4.4,0,0,1-.46,2.12,1.24,1.24,0,0,1-.93.31H20.87a.85.85,0,0,1-1-.95v-3.52l-2.05.25-.08-.56,2.13-.27v-3.07q-1,.15-1.95.21l-.19-.52a19.48,19.48,0,0,0,5.34-1.07l.29.51a18.45,18.45,0,0,1-2.9.77v3.09Z"/><path class="cls-7" d="M59.34,335.21v1A11.93,11.93,0,0,1,58,342l-.44-.4a11,11,0,0,0,1.23-5.4v-3.5h7.51v2.54Zm6.34-2H59.34v1.47h6.34Zm-2.38,8.66a.72.72,0,0,1-.8-.83V340l-2.84.26v-.51l2.84-.27v-1.08l-2.34.22v-.52l2.34-.21v-1.08c-.64.07-1.43.13-2.35.18l-.18-.48a31.42,31.42,0,0,0,5.78-.73l.27.45c-.94.21-1.91.39-2.93.52v1.08l3.15-.28V338l-3.15.29v1.08l3.84-.36v.52l-3.84.35v1c0,.28.12.43.38.43h2.14a1.07,1.07,0,0,0,.58-.12c.16-.12.26-.45.3-1l.53.16a2,2,0,0,1-.43,1.27,1.76,1.76,0,0,1-.89.19Z"/><path class="cls-7" d="M68.55,341.92l-.13-.56c.46,0,.78,0,1,0s.46-.13.46-.4v-3q-.75.28-1.41.48l-.14-.56a13.27,13.27,0,0,0,1.55-.48V334.9H68.42v-.58h1.43v-2.07h.57v2.07h1.19v.58H70.42v2.31c.33-.15.68-.32,1-.52v.59l-1,.49v3.38c0,.51-.27.77-.83.77Zm9.21-5.62.08.57-3.37.42v3.48c0,.33.18.49.54.49h1.48a.73.73,0,0,0,.62-.22,4.1,4.1,0,0,0,.32-1.8l.55.17a4.38,4.38,0,0,1-.46,2.11,1.2,1.2,0,0,1-.93.31H74.84a.84.84,0,0,1-1-.95v-3.52l-2,.25-.08-.56,2.13-.27v-3.07c-.68.1-1.33.17-1.95.22l-.19-.52a19.1,19.1,0,0,0,5.34-1.08l.29.52a18.43,18.43,0,0,1-2.9.76v3.1Z"/><path class="cls-7" d="M450.37,244.91h.56v1.72h1.21v.53h-1.21v1.69l1.4-.31v.53l-1.4.33v2.35h-.56V249.5c-.83.14-1.53.25-2.09.32l-.08-.56,2.17-.3v-1.8h-1.91l-.13-.53a16.92,16.92,0,0,0,1-2.64h-1.12v-.56h1.27c.14-.54.25-1,.34-1.51l.55.1c-.11.53-.22,1-.32,1.41h2.33V244h-2.48a21.62,21.62,0,0,1-.94,2.64h1.45Zm4.81-2.92a8.11,8.11,0,0,0,2.85,3l-.33.49a8.59,8.59,0,0,1-2.79-3,10.32,10.32,0,0,1-2.73,3l-.33-.48a10.06,10.06,0,0,0,2.79-3.11Zm2.59,6a9.76,9.76,0,0,1-5.22,3.85l-.22-.52a9.26,9.26,0,0,0,5-3.67Zm-1.83-3a6.09,6.09,0,0,1-3.16,2.24l-.24-.51a5.4,5.4,0,0,0,3-2.07Zm.83,1.49a6.88,6.88,0,0,1-3.74,2.77l-.23-.49a6.72,6.72,0,0,0,3.55-2.6Z"/><path class="cls-7" d="M459.39,244.8a12.65,12.65,0,0,1,1.87,1.65l-.42.42a11.48,11.48,0,0,0-1.86-1.66Zm1.93,3.14a35.74,35.74,0,0,1-1.6,3.84l-.59-.26a29.61,29.61,0,0,0,1.66-3.79Zm-1.73-5.78a13.22,13.22,0,0,1,2,1.71l-.41.42a13.91,13.91,0,0,0-2-1.72Zm4.23,9.35q-1.14,0-1.14-1.23v-4.23l-1,.32v-.57l1-.32v-2.59h.58v2.38l1.72-.59v-2.75h.58v2.54l2.4-.83a34,34,0,0,1-.14,4.07c-.09.47-.47.71-1.14.71h-.25l-.18-.55h.55a.45.45,0,0,0,.49-.42,25.21,25.21,0,0,0,.09-3l-1.82.63v4.57H465v-4.38l-1.72.58v4.34c0,.51.23.77.7.77h3a1.21,1.21,0,0,0,.83-.24,4.29,4.29,0,0,0,.31-1.78l.55.19a4.27,4.27,0,0,1-.43,2,1.53,1.53,0,0,1-1.15.35Z"/></g></g></svg>