<svg xmlns="http://www.w3.org/2000/svg" xmlns:xlink="http://www.w3.org/1999/xlink" viewBox="0 0 54.24 52.68"><defs><style>.cls-1,.cls-2{fill:none;}.cls-2{stroke:#006156;stroke-miterlimit:10;stroke-width:2px;}.cls-3{clip-path:url(#clip-path);}.cls-4{fill:#32445a;}.cls-5{fill:#1f334a;}.cls-6{fill:#4eeaab;}</style><clipPath id="clip-path"><circle class="cls-1" cx="27.73" cy="25.23" r="24.34"/></clipPath></defs><title>player</title><g id="图层_2" data-name="图层 2"><g id="图层_1-2" data-name="图层 1"><circle class="cls-2" cx="27.87" cy="25.34" r="24.34"/><g class="cls-3"><path class="cls-4" d="M35.57,19.17c-.26.48-.56.94-.77,1.44-.11.23-.54.54.07.81.26.12-.07.42-.22.56-.75.7-1.52,1.37-2.28,2.06s-.83,1.14.23,1.61c.78.35.55.64.14,1s-.37.73.12,1.05a5,5,0,0,1,.79.73c.14.15.31.33.16.56s-.38.19-.58.09c-.55-.26-.78-.16-.72.51a1.46,1.46,0,0,1-.28.8c-.38.63-.15,1,.41,1.41,1.14.75,2.37,1.32,3.57,2a2.07,2.07,0,0,1,1.29,1.66c0,.39.18.41.5.26a10.42,10.42,0,0,1,2.82-1,1.23,1.23,0,0,1,.63,0,.32.32,0,0,1,.23.32.28.28,0,0,1-.26.28c-3.19.58-5.77,2.41-8.42,4.07a75.51,75.51,0,0,0-6.42,4.71,4.75,4.75,0,0,1-1.85,1c.26-.47.66-.6.94-.86s.31-.32.06-.61a11.6,11.6,0,0,1-2.43-7.16c-.05-1,.78-1.58,1-2.45,0-.14.18-.11.3,0a.22.22,0,0,1,0,.31,10.28,10.28,0,0,1-.87,1.87.68.68,0,0,0-.16.59,15.47,15.47,0,0,0,2.24,6c.54.82.6.8,1.32.2a57,57,0,0,1,9.38-6.57c.44-.24.42-.58.41-1a.82.82,0,0,0-.53-.83,21.66,21.66,0,0,1-4.06-2.23c-.48-.36-1-.73-.93-1.48,0-.29-.18-.29-.38-.27-1.65.21-3.29.46-4.95.62-.65.06-.49.57-.64.89s-.12,1-.48.85c-.51-.18,0-.62.13-.92A3.22,3.22,0,0,0,24,28.61c-.24-.18-.24-.18-.86.19,1,1.52.84,3-.39,3.86a4.55,4.55,0,0,1,.51-1.76A1.8,1.8,0,0,0,22.69,29a1.36,1.36,0,0,0-1.6.33c-.31.3-.45.15-.52-.18a9.37,9.37,0,0,0-.52-1.63.66.66,0,0,0-.95-.35c-.38.14,0,.49-.05.75s.13.24.2.37a2.28,2.28,0,0,1,.06,2.07,10.15,10.15,0,0,0-.4,5.41c0,.23-.09.61.41.64.21,0,.08.37.05.57a63.45,63.45,0,0,0-.55,11.19,17.74,17.74,0,0,0,.76,4.5c-.59-.19-.74-.73-.93-1.21a9,9,0,0,1-.51-2.65,4.22,4.22,0,0,0-.54-1.75A39.37,39.37,0,0,1,15,39.85c-.08-.23-.06-.42.2-.52.87,2.24,1.62,4.54,2.62,6.77a.43.43,0,0,0,.23-.48,41.92,41.92,0,0,1,.85-8.51c0-.14.09-.26-.1-.36-.44-.22-.5-.66-.58-1.08a2.22,2.22,0,0,0-.74-1.62c-.22-.15-.25-.45-.32-.7a2.9,2.9,0,0,0-1.24-1.6c-.35-.23-.44-.17-.52.26a3,3,0,0,0,1.3,2.83c.13.12.43.3.27.41-.34.24-.16.71-.45.89s-.31-.12-.27-.28c.14-.53-.22-.82-.49-1.18a3.4,3.4,0,0,1-.71-1.45c0-.23-.09-.45-.38-.38s-.74-.07-.82.39a7.52,7.52,0,0,0,0,4,1.84,1.84,0,0,0,1,1.33c.17.07.16.25.22.39a2,2,0,0,1-.41.1c-.31,0-.46-.23-.61-.43A5.22,5.22,0,0,1,13.31,34a1.52,1.52,0,0,1,.06-.2c.19-.78.16-.81-.63-.7-3.67.5-7.34,1.08-11,1.39-.8.07-1.1-.13-1.35-.87a15.89,15.89,0,0,1-.33-2c-.06-.37.17-.34.38-.35,3.78-.19,7.53-.67,11.29-1.13.48-.06.73-.14.58-.73a2.08,2.08,0,0,1,.22-1.52c.09-.17.25-.36.45-.24s0,.28-.07.42a1.87,1.87,0,0,0-.13.4c-.22,1.28.18,1.61,1.51,1.25-.19-.57-.9-.84-.92-1.64l1.26,1.15c.2-.31,0-.47-.1-.64a3,3,0,0,1-.35-1.72c0-.44.15-.87.6-.94s.58.31.75.63q.54,1.08,1.11,2.16a1,1,0,0,0,.34.39,8.66,8.66,0,0,0-.56-3.73c.57.3.67.85.82,1.35a8.38,8.38,0,0,1,.26,2.12c0,.42.19.5.58.45,1-.12,1-.09.74-1.08A13.48,13.48,0,0,0,18,26.41a2.08,2.08,0,0,0-1.38-1.25c-.18-.05-.43,0-.35-.29s.32-.25.53-.18a2.6,2.6,0,0,1,1.76,1.45c.2.45.42.69.94.59a.65.65,0,0,1,.85.53,3.68,3.68,0,0,0,.21.45c.24.68.39,1.05,1.39.75.74-.23,1.79-.69,2.67,0,.12.09.37,0,.56,0,2.08-.17,4.17-.34,6.25-.53.25,0,.39.13.8.26-.64-.58-1-1.07-.28-1.62.22-.17,0-.32-.11-.46-1.51-1.51-1.54-1.23.16-2.75a.1.1,0,0,1,0,0c1.17-.89,2.37-1.74,2.56-3.38a1.83,1.83,0,0,1,.63-1.1C35.28,19.05,35.36,19.17,35.57,19.17ZM15,31.07a1.73,1.73,0,0,1,1.43.46,1.31,1.31,0,0,0,2.16-.71c0-.13.09-.27.14-.4.26-.68.24-.7-.5-.6l-5.8.78c-3.42.44-6.85.8-10.29,1C.41,31.73.3,32,1,33.59A.53.53,0,0,0,1.6,34c4.27-.46,8.52-1.14,12.78-1.73C15.1,32.13,15.26,31.79,15,31.07Zm11.25-.44c1.67-.21,3.34-.43,5-.62.49-.05.84-.16.77-.75s-.32-.84-.89-.79l-5.54.44c-.32,0-.43.15-.24.45a2.17,2.17,0,0,1,.47,1C25.8,30.67,26,30.64,26.2,30.63ZM14.86,26.37a.58.58,0,0,0-.29.53c-.1,1,.62,1.76,1,2.6.09.19.4.12.59,0s.06-.29,0-.44a19.07,19.07,0,0,1-1.07-2.4C15.07,26.55,15.05,26.39,14.86,26.37ZM17.93,34a2.77,2.77,0,0,0,.18-1.41c0-.24-.24-.16-.39-.13s-.39,0-.27.29S17.59,33.57,17.93,34Z"/><path class="cls-5" d="M45.44,32.38l-.09.36a.82.82,0,0,0-.29,1l0,.35c0,.06,0,.13,0,.17s.14.09.22,0a.57.57,0,0,1,.44,0c.12.24.32.17.52.13a5.52,5.52,0,0,1,3.21,2.45.25.25,0,0,0,.24.31,1.17,1.17,0,0,1,.33.54c0,.27.07.51.37.6a1.9,1.9,0,0,1,.37.77c0,.18,0,.33.19.38a2.66,2.66,0,0,1,.38,1.05c0,.34,0,.7.31.95l.05.29c-.17.2-.15.34.11.42l.06.43c-.17.11-.13.21,0,.29a.61.61,0,0,1,.07.44.37.37,0,0,0,.05.55,5.7,5.7,0,0,1,0,1.43c-.18.15-.15.33-.1.52a.72.72,0,0,1-.39.74c-.06-1.25-.11-2.41-.17-3.58.08-.25.23-.52-.14-.68,0-.21-.07-.41-.1-.62a2,2,0,0,0-.45-1.39,16.8,16.8,0,0,0-2-3.52c0-.21-.06-.32-.28-.32a11.52,11.52,0,0,0-1.7-1.34c-.05-.23-.2-.25-.39-.19a7.19,7.19,0,0,0-3.48-.08v-.28a4.22,4.22,0,0,1,1.48-.39c.37-.15.22-.44.18-.7a6.32,6.32,0,0,1,2.08-3.85,7.09,7.09,0,0,0,.86-.95,2.69,2.69,0,0,0,.65-1c.08-.43-.51-.42-.76-.67a19.51,19.51,0,0,1-3.61-4.18,10.37,10.37,0,0,1-1.5-6.48c.09-.7-.18-.74-.73-.66a8.73,8.73,0,0,0-3.94,1.56c-.22.17-.46.32-.69.49-.28,0-.31-.2-.3-.42a4.07,4.07,0,0,1,1.4-1c.16,0,.29,0,.32-.21l.51-.23A2,2,0,0,0,40,15.4a.76.76,0,0,1,.51-.11c.17,0,.35.06.48-.12l.49,0a9.09,9.09,0,0,0,1.73,0l.78,0a.29.29,0,0,0,.36.11.72.72,0,0,1,.49.14,3.69,3.69,0,0,0,1.49.58l.23.08a1,1,0,0,0,.89.5,6.46,6.46,0,0,1,3,5,19.91,19.91,0,0,1-.06,3.78.87.87,0,0,0,.1.61,4.3,4.3,0,0,1,.5,2.81c0,.14-.13.29,0,.4,1.1.76.7,1.87.65,2.88,0,.33-.11.61.15.91a1.14,1.14,0,0,1,.22.66,2.72,2.72,0,0,0,.41,1.1,3.49,3.49,0,0,1,.11,2.9c-.06.16-.31.35-.09.49s.21-.2.33-.3.39-.13.53.08a1,1,0,0,1,.19.67c0,.58-.1,1.14.6,1.42.21.08.22.36.07.56a.43.43,0,0,1-.69.08c-.72-.79-1.7-1.35-2.18-2.36a1.39,1.39,0,0,1,0-1.37c.27-.43,0-.65-.15-1a5.13,5.13,0,0,1-.9-3.39c.07-.34-.1-.46-.32-.62a2.54,2.54,0,0,1-1.28-2.11,2.62,2.62,0,0,0,0-.28c0-.32.51-.69.12-.88s-.46.49-.8.64a.24.24,0,0,0-.23.29,1.42,1.42,0,0,1-.5.56c-.37.08,0,.68-.51.7l-.55.32a.26.26,0,0,0-.29.32l-.13.24A.62.62,0,0,0,45.44,32.38Z"/><path class="cls-4" d="M42.56,28a2,2,0,0,1-.9,1.62A8.35,8.35,0,0,1,38.42,31c-.22,0-.46,0-.51-.23s.18-.36.39-.43c.6-.2,1.22-.37,1.82-.59a3.64,3.64,0,0,0,1.47-1,1.28,1.28,0,0,0,.21-1.58c-.29-.54-.78-.52-1.3-.36-.21.06-.52.23-.61-.09s.28-.28.46-.34A1.56,1.56,0,0,1,42.56,28Z"/><path class="cls-4" d="M35.86,25.15A1.78,1.78,0,0,1,34.32,24c0-.13-.06-.24.07-.31s.22,0,.29.12c.44.63.94,1,1.72.54a.24.24,0,0,1,.32.09.28.28,0,0,1,0,.38A1,1,0,0,1,35.86,25.15Z"/><path class="cls-4" d="M21.49,32.12c0-.85.56-1.6.32-2.53C22.4,30,22.22,31.38,21.49,32.12Z"/><path class="cls-4" d="M36.56,17.33c0,.22,0,.41.3.42a.88.88,0,0,1-.45.42c-.22-.61-.42.13-.63,0A2.06,2.06,0,0,1,36.56,17.33Z"/><path class="cls-4" d="M43.21,15.14a9.09,9.09,0,0,1-1.73,0A2.45,2.45,0,0,1,43.21,15.14Z"/><path class="cls-4" d="M46.33,16a3.69,3.69,0,0,1-1.49-.58A3.11,3.11,0,0,1,46.33,16Z"/><path class="cls-5" d="M35.78,18.18c.21.12.41-.62.63,0l-.41.44a.31.31,0,0,1-.31-.32Z"/><path class="cls-4" d="M50.64,40.31a2,2,0,0,1,.45,1.39A5.65,5.65,0,0,1,50.64,40.31Z"/><path class="cls-4" d="M46.7,30.86c.47,0,.14-.62.51-.7C47.22,31,47.22,31,46.7,30.86Z"/><path class="cls-4" d="M40,15.4a2,2,0,0,1-1.21.46A2.4,2.4,0,0,1,40,15.4Z"/><path class="cls-4" d="M35.69,18.29a.31.31,0,0,0,.31.32,1,1,0,0,1-.39.5l-.33-.27A.94.94,0,0,1,35.69,18.29Z"/><path class="cls-4" d="M45.06,33.72a.82.82,0,0,1,.29-1A3,3,0,0,1,45.06,33.72Z"/><path class="cls-4" d="M47.45,16.58a1,1,0,0,1-.89-.5A1.8,1.8,0,0,1,47.45,16.58Z"/><path class="cls-4" d="M51.62,41.47c-.31-.25-.27-.61-.31-.95A1.63,1.63,0,0,1,51.62,41.47Z"/><path class="cls-4" d="M45.44,32.38a.62.62,0,0,1,.29-.64A.93.93,0,0,1,45.44,32.38Z"/><path class="cls-4" d="M44.5,33.49c0,.26.19.55-.18.7C44.36,34,44.3,33.69,44.5,33.49Z"/><path class="cls-4" d="M50.37,38.32c-.3-.09-.36-.33-.37-.6A1.06,1.06,0,0,1,50.37,38.32Z"/><path class="cls-4" d="M51.19,42.32c.37.16.22.43.14.68A1.23,1.23,0,0,1,51.19,42.32Z"/><path class="cls-4" d="M52,43.89a.37.37,0,0,1-.05-.55A.66.66,0,0,1,52,43.89Z"/><path class="cls-4" d="M46.22,34.42c-.2,0-.4.11-.52-.13A.48.48,0,0,1,46.22,34.42Z"/><path class="cls-4" d="M42.84,34.58v.28c-.09.1-.24.13-.28,0S42.66,34.59,42.84,34.58Z"/><path class="cls-4" d="M51.78,42.18c-.26-.08-.28-.22-.11-.42A.47.47,0,0,1,51.78,42.18Z"/><path class="cls-4" d="M41,15.17c-.13.18-.31.15-.48.12A.41.41,0,0,1,41,15.17Z"/><path class="cls-4" d="M51.89,45.84c0-.19-.08-.37.1-.52A.5.5,0,0,1,51.89,45.84Z"/><path class="cls-4" d="M48.41,36.47c.22,0,.3.11.28.32A.43.43,0,0,1,48.41,36.47Z"/><path class="cls-5" d="M35.28,18.84l.33.27v0l0,0c-.21,0-.29-.12-.3-.31Z"/><path class="cls-4" d="M38.28,16.09c0,.19-.16.23-.32.21A.37.37,0,0,1,38.28,16.09Z"/><path class="cls-4" d="M45.26,34.24c-.08.09-.16.09-.22,0s0-.11,0-.17Z"/><path class="cls-4" d="M50.93,39.47c-.21,0-.23-.2-.19-.38A.39.39,0,0,1,50.93,39.47Z"/><path class="cls-4" d="M45.86,31.5a.26.26,0,0,1,.29-.32Z"/><path class="cls-4" d="M47.71,29.6a.24.24,0,0,1,.23-.29A.32.32,0,0,1,47.71,29.6Z"/><path class="cls-4" d="M46.32,34.94c.19-.06.34,0,.39.19A.45.45,0,0,1,46.32,34.94Z"/><path class="cls-4" d="M51.87,42.9c-.16-.08-.2-.18,0-.29Z"/><path class="cls-4" d="M44.35,15.28a.29.29,0,0,1-.36-.11A.27.27,0,0,1,44.35,15.28Z"/><path class="cls-4" d="M49.67,37.18a.25.25,0,0,1-.24-.31A.4.4,0,0,1,49.67,37.18Z"/></g><circle class="cls-6" cx="20.48" cy="20.6" r="1.72"/><path class="cls-5" d="M27.15,11.75c0-.08-.1-.09-.17-.09a1.17,1.17,0,0,0-.42.09l-1.73.68a16.32,16.32,0,0,0-2.22.89c-.09.06-.08,0-.09-.07s0-.16-.11-.17-.14.08-.17.16a2.65,2.65,0,0,0-.07.48c0,1.21-.08,2.43-.13,3.64h0v1.58c0,.52,0,1,0,1.57a3.4,3.4,0,0,1-.06.84.19.19,0,0,1-.09.15,7.84,7.84,0,0,1-.82.41,1.4,1.4,0,0,1-1.79-1.33,1.63,1.63,0,0,1,2.38-1.26c.09.07.19.11.28,0a.22.22,0,0,0,0-.3.82.82,0,0,0-.5-.38,3.29,3.29,0,0,0-.83-.08,2.06,2.06,0,0,0-2,2.15,2.08,2.08,0,0,0,.86,1.51A1.83,1.83,0,0,0,22,21.91c0-.05.08-.07.11-.1s.3-.27.31-.47c0-.44.09-.87.08-1.31,0-1.26,0-2.52,0-3.78a.15.15,0,0,1,.09-.16c1-.46,2-.94,3-1.37a7.4,7.4,0,0,1,1.11-.41c.2-.05.26-.09.26-.29,0-.61,0-1.22-.07-1.83,0-.11,0-.2.1-.27A.13.13,0,0,0,27.15,11.75Zm-.49,2.11c0,.06,0,.12-.09.14a11.12,11.12,0,0,0-2.11.78c-.59.26-1.16.53-1.74.8-.16.07-.16.07-.16-.1v-.81h0v-.84c0-.07,0-.13.09-.14a7.66,7.66,0,0,0,1.75-.52,16.11,16.11,0,0,0,2.22-.95c.1-.05.11,0,.11.07C26.69,12.81,26.68,13.34,26.66,13.86Z"/></g></g></svg>