<svg xmlns="http://www.w3.org/2000/svg" viewBox="0 0 262.85 123.63"><defs><style>.cls-1,.cls-2,.cls-6,.cls-7{fill:none;}.cls-1,.cls-2,.cls-3,.cls-6,.cls-7{stroke:#c42c2c;stroke-miterlimit:10;}.cls-1,.cls-2,.cls-6{stroke-width:1.11px;}.cls-1{stroke-dasharray:2.21;}.cls-3{fill:#c42c2c;stroke-width:0.73px;}.cls-4{font-size:8.79px;}.cls-4,.cls-5{font-family:PingFang-SC-Regular, PingFang SC;}.cls-5{font-size:9.47px;}.cls-6,.cls-7{stroke-dasharray:3.9;}.cls-7{stroke-width:1.11px;}</style></defs><title>chart-instruction</title><g id="图层_2" data-name="图层 2"><g id="图层_1-2" data-name="图层 1"><line class="cls-1" x1="10.51" y1="66.81" x2="59.23" y2="66.81"/><circle class="cls-2" cx="61.42" cy="51.53" r="36.13"/><path class="cls-3" d="M61.19,87.57V87.3A10.57,10.57,0,0,0,63.35,87l.06.27A10.46,10.46,0,0,1,61.19,87.57ZM59,87.39a10.58,10.58,0,0,1-2-.59l-.15-.07.1-.25.16.06a10,10,0,0,0,1.93.57Zm6.56-.84-.11-.25a10.2,10.2,0,0,0,1.86-1.14l.17.22A10.48,10.48,0,0,1,65.52,86.55Zm-10.67-.9a10.74,10.74,0,0,1-1.69-1.47l.21-.19A9.67,9.67,0,0,0,55,85.42Zm14.21-1.8-.21-.18a10.48,10.48,0,0,0,1.24-1.8l.24.13A10.12,10.12,0,0,1,69.06,83.85ZM51.82,82.39a10.69,10.69,0,0,1-.94-2l.26-.09a11.12,11.12,0,0,0,.92,2Zm19.37-2.46-.27-.08a10.48,10.48,0,0,0,.4-2.14l.27,0A10.38,10.38,0,0,1,71.19,79.93ZM50.38,78.18a10.81,10.81,0,0,1-.07-1.27c0-.32,0-.65,0-1l.28,0c0,.32-.05.64-.05,1s0,.83.07,1.23Zm20.87-2.65a10.42,10.42,0,0,0-.52-2.12l.26-.1a10.38,10.38,0,0,1,.54,2.18ZM51.06,73.82l-.27-.08c.09-.27.19-.55.29-.81a13.08,13.08,0,0,1,.6-1.25l.24.14A11.18,11.18,0,0,0,51.34,73C51.24,73.29,51.14,73.56,51.06,73.82Zm18.72-2.38a10.12,10.12,0,0,0-1.33-1.72l.2-.19A10.85,10.85,0,0,1,70,71.3ZM53.18,70l-.2-.18a10.27,10.27,0,0,1,1.65-1.51l.16.22A11.19,11.19,0,0,0,53.18,70Zm13.6-1.72a10.5,10.5,0,0,0-1.93-1L65,67a10.42,10.42,0,0,1,2,1Zm-10.11-.85-.11-.26a10.75,10.75,0,0,1,2.12-.7l.06.27A9.87,9.87,0,0,0,56.67,67.47Zm6.41-.72A10.64,10.64,0,0,0,61,66.53h-.06v-.27H61a10.65,10.65,0,0,1,2.17.22Z"/><line class="cls-1" x1="10.51" y1="15.88" x2="59.23" y2="15.88"/><text class="cls-4" transform="translate(0 18.63)">60</text><text class="cls-4" transform="translate(0 69.57)">5</text><text class="cls-5" transform="translate(120.44 37.4)">Material </text><text class="cls-5" transform="translate(120.44 13.76)">Structure</text><text class="cls-5" transform="translate(120.44 84.69)">Patterns</text><text class="cls-5" transform="translate(120.44 61.05)">Quantity (units)</text><line class="cls-6" x1="191" y1="3.8" x2="191" y2="123.3"/><line class="cls-7" x1="262.23" y1="24.31" x2="191" y2="123.3"/><path class="cls-7" d="M190.7,78.28a45.18,45.18,0,0,1,26.79,8.61"/><path class="cls-7" d="M191.26,49.31a64.73,64.73,0,0,1,42.42,14.18"/><path class="cls-7" d="M190.91,28.44l.32-.06a64.72,64.72,0,0,1,56.16,16.88"/><path class="cls-7" d="M262.43,24a64.66,64.66,0,0,0-71.8-19.52"/><line class="cls-2" x1="115.09" y1="52.06" x2="97.52" y2="52.06"/></g></g></svg>