<svg xmlns="http://www.w3.org/2000/svg" viewBox="0 0 180.35 11.51"><defs><style>.cls-1,.cls-2{fill:#c42c2c;}.cls-1{stroke:#c42c2c;stroke-miterlimit:10;}</style></defs><title>clothes_pin_trousers</title><g id="图层_2" data-name="图层 2"><g id="图层_1-2" data-name="图层 1"><line class="cls-1" y1="5.88" x2="80.6" y2="5.88"/><circle class="cls-2" cx="2.65" cy="5.77" r="2.38"/><path d="M92.44,26.7c1.64.29,2.84,1.07,2.84,2.6a2.85,2.85,0,0,1-1.54,2.45,6,6,0,0,1-2.95.65H86.5v-.54c1.28-.13,1.39-.23,1.39-1.55V24.1c0-1.34-.18-1.47-1.38-1.56V22h4.63a4.5,4.5,0,0,1,2.57.56,2.06,2.06,0,0,1,1,1.78A2.59,2.59,0,0,1,92.44,26.7Zm-2-.2c1.6,0,2.22-.67,2.22-1.9a1.79,1.79,0,0,0-1.94-1.94,1.64,1.64,0,0,0-.81.13c-.16.11-.16.27-.16.66V26.5Zm-.69,3.78c0,1.15.44,1.48,1.4,1.47a2,2,0,0,0,2-2.3c0-1.58-.91-2.31-2.76-2.31h-.63Z" transform="translate(0 -21.08)"/><path d="M96.2,32.4v-.51c1-.13,1-.21,1-1.23V23.24c0-.88-.09-1-1-1.14v-.48A14.57,14.57,0,0,0,99,21.08v9.58c0,1.05.06,1.12,1,1.23v.51Z" transform="translate(0 -21.08)"/><path d="M106.12,32.59a1.39,1.39,0,0,1-.91-.32,1.52,1.52,0,0,1-.41-.64,5.52,5.52,0,0,1-1.77,1,2.06,2.06,0,0,1-2.1-2c0-.82.4-1.25,1.26-1.58a13.1,13.1,0,0,0,2.56-1.05v-.57c0-.94-.4-1.47-1.14-1.47a.86.86,0,0,0-.68.34,3.38,3.38,0,0,0-.4,1.05.57.57,0,0,1-.61.48.91.91,0,0,1-.86-.79c0-.26.2-.47.55-.71a7.49,7.49,0,0,1,2.47-1.13,2.57,2.57,0,0,1,1.54.45,2.17,2.17,0,0,1,.86,1.93v2.88c0,.76.26,1,.53,1a1.35,1.35,0,0,0,.53-.14l.17.51Zm-1.37-4c-.31.17-.77.39-1.1.56-.54.26-.85.56-.85,1.12a1.11,1.11,0,0,0,1,1.22,1.33,1.33,0,0,0,.92-.37Z" transform="translate(0 -21.08)"/><path d="M114.48,30.89a3.7,3.7,0,0,1-2.76,1.7,3.33,3.33,0,0,1-3.42-3.41,3.84,3.84,0,0,1,1.63-3.09,4.53,4.53,0,0,1,2.66-1,2.45,2.45,0,0,1,1.44.4.61.61,0,0,1,.29.55.94.94,0,0,1-.67.83.49.49,0,0,1-.34-.17,2.63,2.63,0,0,0-1.64-.77c-.78,0-1.59.7-1.59,2.41a2.57,2.57,0,0,0,2.3,2.87,2.43,2.43,0,0,0,1.8-.75Z" transform="translate(0 -21.08)"/><path d="M123.26,32.4c-1.12,0-2.15,0-2.66,0-.06-.09-2.21-3.08-2.29-3.18s-.26-.3-.37-.31a.61.61,0,0,0-.19,0v1.74c0,1.05.08,1.09,1,1.21v.51H115v-.51c.92-.12,1-.18,1-1.21V23.26c0-.93-.1-1-1-1.17v-.47a13.2,13.2,0,0,0,2.77-.54V28.5a2,2,0,0,0,.94-.61,10.86,10.86,0,0,0,1.19-1.44c.24-.39,0-.54-.62-.63v-.5l3.38-.13v.48a3,3,0,0,0-2.09,1c-.27.27-.75.84-1.16,1.32.37.56,1.92,2.53,2.4,3.08a1.82,1.82,0,0,0,1.47.83Z" transform="translate(0 -21.08)"/><path d="M130.23,32.41a1.72,1.72,0,0,1-.66.18c-1.16,0-1.83-.59-1.83-2V26.07h-1l-.08-.19.45-.56h.68V24c.46-.36,1.14-.84,1.61-1.2l.22.09c0,.52,0,1.39,0,2.44h1.68a.63.63,0,0,1-.12.75h-1.56v4c0,1.27.51,1.45.85,1.45a2,2,0,0,0,.85-.2l.15.52Z" transform="translate(0 -21.08)"/><path d="M136,32.4h-4v-.51c.91-.1,1-.18,1-1.16V27.28c0-.89-.06-1-.88-1.1v-.46a12.77,12.77,0,0,0,2.67-.63v1.74c.66-1,1.27-1.7,2-1.7a.92.92,0,0,1,1,.89,1.39,1.39,0,0,1-.72,1.19.4.4,0,0,1-.47-.06c-.26-.23-.46-.45-.74-.45s-.74.31-1,1v3c0,1,.1,1.05,1.26,1.17Z" transform="translate(0 -21.08)"/><path d="M142,25.13a3.52,3.52,0,0,1,3.62,3.61,3.69,3.69,0,1,1-7.37.2A3.73,3.73,0,0,1,142,25.13Zm-.19.61c-.79,0-1.53.8-1.53,2.72S141,32,142.15,32c.75,0,1.46-.52,1.46-2.81C143.61,27.06,143,25.74,141.83,25.74Z" transform="translate(0 -21.08)"/><path d="M154.69,32a26.93,26.93,0,0,0-2.84.57V31.45a3.67,3.67,0,0,1-2.29,1.14c-1.25,0-2.06-.79-2.06-2.33V27c0-.78-.11-.86-.53-1l-.38-.09v-.48c.77,0,2-.16,2.74-.28,0,.62-.05,1.43-.05,2.39v2.28c0,1.17.6,1.54,1.22,1.54a1.79,1.79,0,0,0,1.35-.57V27c0-.78-.12-.9-.6-1l-.49-.08v-.48a28.07,28.07,0,0,0,2.89-.28v5.27c0,.82.1,1,.65,1l.39,0Z" transform="translate(0 -21.08)"/><path d="M159.8,27.34c-.37-1.05-.87-1.61-1.7-1.61a.88.88,0,0,0-.9.92c0,.6.43.91,1.28,1.3,1.33.6,2.14,1.12,2.14,2.31a2.54,2.54,0,0,1-2.81,2.33,4.94,4.94,0,0,1-2-.47c-.07-.4-.21-1.42-.26-2l.5-.09c.32,1,.94,1.92,2,1.92a.91.91,0,0,0,1-.93c0-.57-.31-.94-1.25-1.4s-2.07-1.06-2.07-2.33,1-2.19,2.66-2.19a7.52,7.52,0,0,1,1.66.23c.05.41.18,1.43.25,1.85Z" transform="translate(0 -21.08)"/><path d="M167.85,30.9A3.65,3.65,0,0,1,165,32.59a3.24,3.24,0,0,1-3.28-3.47,4.19,4.19,0,0,1,1.14-2.85,3.51,3.51,0,0,1,2.46-1.14,2.58,2.58,0,0,1,2.58,2.56c0,.29,0,.52-.25.57s-2.5.2-4.17.27c0,1.85,1.1,2.72,2.24,2.72a2.75,2.75,0,0,0,1.84-.75ZM165,25.77c-.68,0-1.28.73-1.42,2l2.22,0c.24,0,.34-.06.34-.32C166.14,26.59,165.71,25.77,165,25.77Z" transform="translate(0 -21.08)"/><path d="M172.89,32.4h-4v-.51c.9-.1,1-.18,1-1.16V27.28c0-.89-.07-1-.88-1.1v-.46a12.68,12.68,0,0,0,2.66-.63v1.74c.67-1,1.28-1.7,2-1.7a.92.92,0,0,1,1,.89,1.37,1.37,0,0,1-.72,1.19.38.38,0,0,1-.46-.06c-.27-.23-.47-.45-.75-.45s-.74.31-1.05,1v3c0,1,.1,1.05,1.26,1.17Z" transform="translate(0 -21.08)"/><path d="M179.53,27.34c-.37-1.05-.87-1.61-1.7-1.61a.88.88,0,0,0-.9.92c0,.6.42.91,1.28,1.3,1.32.6,2.14,1.12,2.14,2.31a2.54,2.54,0,0,1-2.81,2.33,4.94,4.94,0,0,1-2-.47c-.07-.4-.21-1.42-.27-2l.51-.09c.32,1,.94,1.92,2,1.92a.91.91,0,0,0,1-.93c0-.57-.31-.94-1.25-1.4s-2.07-1.06-2.07-2.33,1-2.19,2.66-2.19a7.52,7.52,0,0,1,1.66.23c.05.41.18,1.43.25,1.85Z" transform="translate(0 -21.08)"/></g></g></svg>