<svg xmlns="http://www.w3.org/2000/svg" viewBox="0 0 232.76 11.51"><defs><style>.cls-1,.cls-2{fill:#c42c2c;}.cls-1{stroke:#c42c2c;stroke-miterlimit:10;}</style></defs><title>clothes_pin_shoes</title><g id="图层_2" data-name="图层 2"><g id="图层_1-2" data-name="图层 1"><line class="cls-1" x1="2.78" y1="6.84" x2="104.16" y2="6.84"/><circle class="cls-2" cx="2.38" cy="6.44" r="2.38"/><path d="M116,26.7c1.63.29,2.84,1.07,2.84,2.6a2.84,2.84,0,0,1-1.55,2.45,6,6,0,0,1-2.94.65h-4.3v-.54c1.28-.13,1.39-.23,1.39-1.55V24.1c0-1.34-.18-1.47-1.37-1.56V22h4.63a4.46,4.46,0,0,1,2.56.56,2,2,0,0,1,1,1.78A2.58,2.58,0,0,1,116,26.7Zm-2-.2c1.61,0,2.22-.67,2.22-1.9a1.79,1.79,0,0,0-1.94-1.94,1.59,1.59,0,0,0-.8.13c-.16.11-.17.27-.17.66V26.5Zm-.69,3.78c0,1.15.44,1.48,1.4,1.47a2.06,2.06,0,0,0,2-2.3c0-1.58-.92-2.31-2.77-2.31h-.63Z" transform="translate(0 -21.08)"/><path d="M119.76,32.4v-.51c.95-.13,1-.21,1-1.23V23.24c0-.88-.09-1-1-1.14v-.48a14.46,14.46,0,0,0,2.77-.54v9.58c0,1.05.07,1.12,1,1.23v.51Z" transform="translate(0 -21.08)"/><path d="M129.68,32.59a1.39,1.39,0,0,1-.91-.32,1.49,1.49,0,0,1-.4-.64,5.54,5.54,0,0,1-1.78,1,2.06,2.06,0,0,1-2.1-2c0-.82.4-1.25,1.26-1.58a13.1,13.1,0,0,0,2.56-1.05v-.57c0-.94-.4-1.47-1.13-1.47a.83.83,0,0,0-.68.34,3.13,3.13,0,0,0-.41,1.05.56.56,0,0,1-.61.48.91.91,0,0,1-.86-.79c0-.26.2-.47.55-.71a7.49,7.49,0,0,1,2.47-1.13,2.6,2.6,0,0,1,1.55.45,2.19,2.19,0,0,1,.85,1.93v2.88c0,.76.27,1,.53,1a1.35,1.35,0,0,0,.53-.14l.17.51Zm-1.37-4c-.31.17-.76.39-1.1.56-.54.26-.85.56-.85,1.12a1.11,1.11,0,0,0,1,1.22,1.31,1.31,0,0,0,.91-.37Z" transform="translate(0 -21.08)"/><path d="M138.05,30.89a3.74,3.74,0,0,1-2.77,1.7,3.32,3.32,0,0,1-3.41-3.41,3.83,3.83,0,0,1,1.62-3.09,4.54,4.54,0,0,1,2.67-1,2.44,2.44,0,0,1,1.43.4.61.61,0,0,1,.29.55.94.94,0,0,1-.67.83.46.46,0,0,1-.33-.17,2.67,2.67,0,0,0-1.65-.77c-.78,0-1.59.7-1.59,2.41A2.57,2.57,0,0,0,136,31.25a2.43,2.43,0,0,0,1.79-.75Z" transform="translate(0 -21.08)"/><path d="M146.82,32.4c-1.11,0-2.15,0-2.65,0l-2.29-3.18c-.17-.22-.27-.3-.37-.31a.67.67,0,0,0-.2,0v1.74c0,1.05.08,1.09,1,1.21v.51h-3.8v-.51c.93-.12,1-.18,1-1.21V23.26c0-.93-.09-1-1-1.17v-.47a13.08,13.08,0,0,0,2.77-.54V28.5a2,2,0,0,0,.94-.61,10.86,10.86,0,0,0,1.19-1.44c.25-.39,0-.54-.62-.63v-.5l3.38-.13v.48a3,3,0,0,0-2.08,1c-.28.27-.76.84-1.17,1.32.37.56,1.92,2.53,2.4,3.08a1.83,1.83,0,0,0,1.47.83Z" transform="translate(0 -21.08)"/><path d="M156.65,30.89a3.7,3.7,0,0,1-2.76,1.7,3.33,3.33,0,0,1-3.42-3.41,3.84,3.84,0,0,1,1.63-3.09,4.53,4.53,0,0,1,2.66-1,2.45,2.45,0,0,1,1.44.4.61.61,0,0,1,.29.55.94.94,0,0,1-.67.83.49.49,0,0,1-.34-.17,2.63,2.63,0,0,0-1.64-.77c-.78,0-1.59.7-1.59,2.41a2.57,2.57,0,0,0,2.3,2.87,2.43,2.43,0,0,0,1.8-.75Z" transform="translate(0 -21.08)"/><path d="M161.15,25.13a3.52,3.52,0,0,1,3.62,3.61,3.69,3.69,0,1,1-7.37.2A3.73,3.73,0,0,1,161.15,25.13Zm-.19.61c-.79,0-1.53.8-1.53,2.72s.74,3.51,1.85,3.51c.75,0,1.46-.52,1.46-2.81C162.74,27.06,162.1,25.74,161,25.74Z" transform="translate(0 -21.08)"/><path d="M169.15,32.41a1.72,1.72,0,0,1-.66.18c-1.15,0-1.82-.59-1.82-2V26.07h-1.06l-.08-.19.45-.56h.69V24c.46-.36,1.13-.84,1.6-1.2l.22.09c0,.52-.05,1.39,0,2.44h1.68a.62.62,0,0,1-.12.75h-1.56v4c0,1.27.51,1.45.86,1.45a2,2,0,0,0,.84-.2l.15.52Z" transform="translate(0 -21.08)"/><path d="M174.16,32.41a1.72,1.72,0,0,1-.66.18c-1.16,0-1.82-.59-1.82-2V26.07h-1.06l-.08-.19.45-.56h.69V24c.46-.36,1.13-.84,1.6-1.2l.22.09c0,.52-.05,1.39,0,2.44h1.68a.63.63,0,0,1-.12.75h-1.56v4c0,1.27.51,1.45.85,1.45a2,2,0,0,0,.85-.2l.15.52Z" transform="translate(0 -21.08)"/><path d="M179.54,25.13a3.51,3.51,0,0,1,3.61,3.61,3.68,3.68,0,1,1-7.36.2A3.73,3.73,0,0,1,179.54,25.13Zm-.19.61c-.79,0-1.54.8-1.54,2.72s.74,3.51,1.86,3.51c.74,0,1.46-.52,1.46-2.81C181.13,27.06,180.48,25.74,179.35,25.74Z" transform="translate(0 -21.08)"/><path d="M188.74,32.4v-.51c.76-.1.83-.18.83-1.28v-2.7c0-1.13-.51-1.62-1.24-1.62a2.27,2.27,0,0,0-1.4.6v3.83c0,1,.07,1.07.83,1.17v.51h-3.62v-.51c.91-.13,1-.17,1-1.21V27.36c0-1-.12-1-.88-1.18V25.7a13.48,13.48,0,0,0,2.69-.62c0,.28,0,.82,0,1.19.32-.22.66-.46,1-.7a2.24,2.24,0,0,1,1.27-.44c1.29,0,2.1.94,2.1,2.55v3c0,1,.1,1.07.92,1.18v.51Z" transform="translate(0 -21.08)"/><path d="M201.14,27.34c-.37-1.05-.87-1.61-1.7-1.61a.88.88,0,0,0-.9.92c0,.6.42.91,1.28,1.3,1.32.6,2.14,1.12,2.14,2.31a2.54,2.54,0,0,1-2.81,2.33,4.94,4.94,0,0,1-2-.47c-.07-.4-.21-1.42-.27-2l.51-.09c.32,1,.94,1.92,2,1.92a.91.91,0,0,0,1-.93c0-.57-.31-.94-1.25-1.4s-2.07-1.06-2.07-2.33,1-2.19,2.66-2.19a7.52,7.52,0,0,1,1.66.23c0,.41.18,1.43.25,1.85Z" transform="translate(0 -21.08)"/><path d="M207.32,32.4v-.51c.79-.11.86-.21.86-1.14V28c0-1.26-.51-1.77-1.29-1.77a1.84,1.84,0,0,0-1.35.6v3.92c0,.93.09,1,.91,1.14v.51h-3.7v-.51c.83-.09,1-.15,1-1.18V23.19c0-.77-.08-1-1-1.09v-.48a14.25,14.25,0,0,0,2.83-.54v5.13a3.41,3.41,0,0,1,2.21-1.08c1.37,0,2.23.88,2.23,2.7v2.88c0,1,.12,1.07.94,1.18v.51Z" transform="translate(0 -21.08)"/><path d="M215.62,25.13a3.52,3.52,0,0,1,3.61,3.61,3.68,3.68,0,1,1-7.36.2A3.73,3.73,0,0,1,215.62,25.13Zm-.19.61c-.79,0-1.54.8-1.54,2.72s.74,3.51,1.86,3.51c.74,0,1.46-.52,1.46-2.81C217.21,27.06,216.56,25.74,215.43,25.74Z" transform="translate(0 -21.08)"/><path d="M226.54,30.9a3.62,3.62,0,0,1-2.83,1.69,3.24,3.24,0,0,1-3.28-3.47,4.14,4.14,0,0,1,1.14-2.85A3.49,3.49,0,0,1,224,25.13a2.57,2.57,0,0,1,2.57,2.56c0,.29,0,.52-.25.57s-2.49.2-4.16.27c0,1.85,1.09,2.72,2.24,2.72a2.76,2.76,0,0,0,1.84-.75Zm-2.85-5.13c-.68,0-1.28.73-1.42,2l2.21,0c.25,0,.34-.06.34-.32C224.84,26.59,224.41,25.77,223.69,25.77Z" transform="translate(0 -21.08)"/><path d="M231.94,27.34c-.37-1.05-.87-1.61-1.7-1.61a.88.88,0,0,0-.9.92c0,.6.42.91,1.28,1.3,1.32.6,2.14,1.12,2.14,2.31A2.54,2.54,0,0,1,230,32.59a4.94,4.94,0,0,1-2-.47c-.07-.4-.21-1.42-.27-2l.51-.09c.32,1,.94,1.92,2,1.92a.91.91,0,0,0,1-.93c0-.57-.31-.94-1.25-1.4s-2.07-1.06-2.07-2.33,1-2.19,2.66-2.19a7.52,7.52,0,0,1,1.66.23c.05.41.18,1.43.25,1.85Z" transform="translate(0 -21.08)"/></g></g></svg>