<svg xmlns="http://www.w3.org/2000/svg" viewBox="0 0 131.74 11.51"><defs><style>.cls-1,.cls-2{fill:#c42c2c;}.cls-1{stroke:#c42c2c;stroke-miterlimit:10;}</style></defs><title>clothes_pin_shirt</title><g id="图层_2" data-name="图层 2"><g id="图层_1-2" data-name="图层 1"><line class="cls-1" x1="2.5" y1="5.62" x2="61.27" y2="6.08"/><circle class="cls-2" cx="2.38" cy="6.1" r="2.38"/><path d="M73.11,26.7C74.74,27,76,27.77,76,29.3a2.85,2.85,0,0,1-1.54,2.45,6,6,0,0,1-3,.65H67.17v-.54c1.28-.13,1.39-.23,1.39-1.55V24.1c0-1.34-.19-1.47-1.38-1.56V22h4.63a4.52,4.52,0,0,1,2.57.56,2.06,2.06,0,0,1,1,1.78A2.59,2.59,0,0,1,73.11,26.7Zm-2-.2c1.6,0,2.22-.67,2.22-1.9a1.8,1.8,0,0,0-2-1.94,1.62,1.62,0,0,0-.8.13c-.16.11-.17.27-.17.66V26.5Zm-.7,3.78c0,1.15.44,1.48,1.4,1.47a2.06,2.06,0,0,0,2-2.3c0-1.58-.91-2.31-2.76-2.31h-.64Z" transform="translate(0 -21.08)"/><path d="M76.86,32.4v-.51c1-.13,1-.21,1-1.23V23.24c0-.88-.09-1-1-1.14v-.48a14.57,14.57,0,0,0,2.78-.54v9.58c0,1.05.06,1.12,1,1.23v.51Z" transform="translate(0 -21.08)"/><path d="M89.42,32a27.44,27.44,0,0,0-2.84.57V31.45a3.67,3.67,0,0,1-2.29,1.14c-1.25,0-2.06-.79-2.06-2.33V27c0-.78-.11-.86-.53-1L81.32,26v-.48c.78,0,2-.16,2.74-.28,0,.62,0,1.43,0,2.39v2.28c0,1.17.6,1.54,1.22,1.54a1.79,1.79,0,0,0,1.35-.57V27c0-.78-.12-.9-.6-1L85.49,26v-.48a28.07,28.07,0,0,0,2.89-.28v5.27c0,.82.11,1,.65,1l.39,0Z" transform="translate(0 -21.08)"/><path d="M96.39,30.9a3.65,3.65,0,0,1-2.84,1.69,3.24,3.24,0,0,1-3.28-3.47,4.19,4.19,0,0,1,1.14-2.85,3.51,3.51,0,0,1,2.46-1.14,2.57,2.57,0,0,1,2.57,2.56c0,.29,0,.52-.24.57s-2.5.2-4.17.27c0,1.85,1.1,2.72,2.24,2.72a2.75,2.75,0,0,0,1.84-.75Zm-2.86-5.13c-.68,0-1.28.73-1.42,2l2.21,0c.25,0,.35-.06.35-.32C94.68,26.59,94.25,25.77,93.53,25.77Z" transform="translate(0 -21.08)"/><path d="M105.32,27.34c-.37-1.05-.87-1.61-1.7-1.61a.88.88,0,0,0-.9.92c0,.6.42.91,1.28,1.3,1.32.6,2.13,1.12,2.13,2.31a2.53,2.53,0,0,1-2.8,2.33,4.94,4.94,0,0,1-2-.47c-.07-.4-.21-1.42-.27-2l.51-.09c.32,1,.94,1.92,2,1.92a.9.9,0,0,0,1-.93c0-.57-.3-.94-1.25-1.4s-2.06-1.06-2.06-2.33,1-2.19,2.65-2.19a7.43,7.43,0,0,1,1.66.23c.05.41.19,1.43.26,1.85Z" transform="translate(0 -21.08)"/><path d="M111.5,32.4v-.51c.78-.11.86-.21.86-1.14V28c0-1.26-.51-1.77-1.29-1.77a1.86,1.86,0,0,0-1.36.6v3.92c0,.93.1,1,.91,1.14v.51h-3.69v-.51c.83-.09,1-.15,1-1.18V23.19c0-.77-.08-1-1-1.09v-.48a14,14,0,0,0,2.82-.54v5.13a3.45,3.45,0,0,1,2.22-1.08c1.36,0,2.22.88,2.22,2.7v2.88c0,1,.12,1.07.95,1.18v.51Z" transform="translate(0 -21.08)"/><path d="M115.93,32.4v-.51c.92-.11,1-.18,1-1.3V27.41c0-1-.07-1.11-.9-1.23v-.47a15.06,15.06,0,0,0,2.68-.6v5.48c0,1.09.08,1.19,1,1.3v.51Zm1.8-8.48a1.06,1.06,0,0,1-1-1,1,1,0,0,1,1.06-1.05,1,1,0,0,1,1,1.05A1,1,0,0,1,117.73,23.92Z" transform="translate(0 -21.08)"/><path d="M124.58,32.4h-4v-.51c.9-.1,1-.18,1-1.16V27.28c0-.89-.06-1-.88-1.1v-.46a12.54,12.54,0,0,0,2.66-.63v1.74c.67-1,1.28-1.7,2-1.7a.92.92,0,0,1,1,.89,1.37,1.37,0,0,1-.73,1.19.38.38,0,0,1-.46-.06c-.26-.23-.47-.45-.74-.45s-.75.31-1.06,1v3c0,1,.11,1.05,1.26,1.17Z" transform="translate(0 -21.08)"/><path d="M130.59,32.41a1.73,1.73,0,0,1-.65.18c-1.16,0-1.83-.59-1.83-2V26.07h-1.06l-.08-.19.45-.56h.69V24c.46-.36,1.13-.84,1.6-1.2l.22.09c0,.52-.05,1.39,0,2.44h1.68a.62.62,0,0,1-.12.75h-1.56v4c0,1.27.51,1.45.86,1.45a2,2,0,0,0,.84-.2l.15.52Z" transform="translate(0 -21.08)"/></g></g></svg>