<svg xmlns="http://www.w3.org/2000/svg" xmlns:xlink="http://www.w3.org/1999/xlink" viewBox="0 0 267.82 96.95"><defs><style>.cls-1{fill-rule:evenodd;opacity:0.36;isolation:isolate;fill:url(#未命名的渐变);}</style><linearGradient id="未命名的渐变" y1="66.96" x2="267.82" y2="66.96" gradientTransform="matrix(1, 0, 0, -1, 0, 115.43)" gradientUnits="userSpaceOnUse"><stop offset="0" stop-color="#c95d5d" stop-opacity="0.5"/><stop offset="0.05" stop-color="#c95959" stop-opacity="0.53"/><stop offset="0.41" stop-color="#c64040" stop-opacity="0.7"/><stop offset="0.73" stop-color="#c53131" stop-opacity="0.87"/><stop offset="1" stop-color="#c42c2c"/></linearGradient></defs><title>cloud-title</title><g id="图层_2" data-name="图层 2"><g id="图层_1-2" data-name="图层 1"><path class="cls-1" d="M181.35,67.47c12.6-5.3,13.9-13.2,4-17.1-11.4-4.4-25.6-.4-28.5,7.9-3.4,9.6,8.4,18.4,24.3,19,23.1.8,38.9-16.1,29.6-30.3-7.5-11.5-30.1-18.2-49.2-15.5-20.3,2.8-29.7,12.1-36.5,23.2-6.6,10.7-13.4,21.3-30.8,26.9-14.4,4.6-29.7,5.8-45.5,4.4-14.7-1.3-29.6-1.9-44.2-3.8-1.4-.2-3.3-.9-4.2.2-1.1,1.2.6,2.1,1.9,2.8,4.4,2.4,8.7,4.9,14.2,6.2,12,2.8,24.2,5.3,37,5.5,20.3.4,40.4-.5,58.7-7.1a19.91,19.91,0,0,1,10.9-.7c13.3,2.6,26.2,1.1,38.3-2.8,3.7-1.2,5.2,0,7.3,1.3a57.74,57.74,0,0,0,31,8.6c17.9-.2,33.5-4,42.6-14.6a18,18,0,0,0,4.6-10.6c.1-2.3,1.6-3.9,4.8-5,18.4-6.5,20.1-21,10.1-30.6-6-5.8-15.4-7.3-25.3-8.2a45.58,45.58,0,0,0-6.4-.1c-3.2.2-4.3-.7-4.8-2.7-1.2-5.4-4.1-10.2-10-14.5C202.75.77,186.45-1,169.15.47c-12,1-21.2,5.7-27.6,12.3-2.3,2.4-4.6,2.7-8.4,1.3-22.5-8.5-48.1,1.6-49.9,16.4-.5,4.1,2.1,6.6,7.1,8.4s9.6.4,14.1-1.1a7,7,0,0,0,2.5-1.5c3.1-2.2,6-4.6,3.2-7.5-2.4-2.5-6.2-3.7-11.3-.7,2.5-3.7,9.6-4.3,13.6-1.6,3,2,4.4,4.5,2.1,7.4-3.5,4.3-9.1,6.9-16.3,8.1-5.9,1-13.9-1.4-17.3-5.7-2.1-2.7-3.9-2.1-6.5-.7-7.8,4-10.8,9.3-9.2,15.4,1.8,6.6,8.1,11,18.2,12.9,5.7,1.1,6.1,1.4,1.9,4-9.5,6.1-19.5,11.8-33.1,14-1.4.2-2.6.5-2.7,1.6,30.1,1.4,56.7-2.4,69.2-26.3,4-7.6,10.1-14.4,18.8-20.2,14.1-9.3,31.3-10.5,49.5-6.7,23,4.8,36.2,18.6,27.6,34.8-3.8,7.2-16.3,14.6-31.5,14.6-11.6,0-25-4.5-29.4-12.3-5.7-10,5.2-21.1,21.9-21.5,7.2-.2,16.5,4.3,18.7,9,2.2,4.9-.9,9.6-8,12.3C184.75,67.67,183.75,67.57,181.35,67.47Zm-1.6.4c-.4.1-.7.3-1,.2-.7-.1-2.1.1-1.7-.6C177.25,67.07,179,67.07,179.75,67.87Z"/></g></g></svg>