<svg xmlns="http://www.w3.org/2000/svg" viewBox="0 0 171.67 202.94"><defs><style>.cls-1{fill:#771f2c;}.cls-2{fill:#1d1f1b;}.cls-3{fill:#5c5542;}.cls-4{fill:#1f262d;}.cls-5{fill:#b1af9f;}.cls-6{fill:#66857f;}.cls-7{fill:#e0e8d6;}.cls-8{fill:#2a2e31;}.cls-9{fill:#314440;}.cls-10{fill:#dfe8d7;}.cls-11{fill:#424848;}.cls-12{fill:#8c937b;}.cls-13{fill:#1a2c29;}.cls-14{fill:#fdedb8;}.cls-15{fill:#88928b;}.cls-16{fill:#f2f7d9;opacity:0.64;}.cls-17{fill:#751e26;}.cls-18{fill:none;stroke:#cc5662;stroke-miterlimit:10;stroke-width:4.74px;}.cls-19{fill:#cc5662;}.cls-20{fill:#fbd09c;}</style></defs><title>drum</title><g id="图层_2" data-name="图层 2"><g id="图层_1-2" data-name="图层 1"><rect class="cls-1" x="48.38" y="124.39" width="71.95" height="61.7"/><path class="cls-2" d="M18.3,100.77S27.07,119,53.38,116.12s31.43,0,31.43,0l-.36-15.2"/><path class="cls-2" d="M152.06,100.77S143.29,119,117,116.12s-31.43,0-31.43,0l.37-15.2"/><rect class="cls-3" x="84.94" y="80.7" width="55.03" height="5.2"/><path class="cls-4" d="M139.82,86.88,140,80.7h-55v-4h45.17c15.73,0,22.43-5.87,23.32-6.72l.09-.08Z"/><path class="cls-5" d="M153.43,65.59V70c-.89.85-7.59,6.72-23.32,6.72H84.94V74.93h47.55C148.48,74.93,153.43,65.59,153.43,65.59Z"/><path class="cls-6" d="M153.43,63.14v2.45a9.5,9.5,0,0,1-.91,1.32c-.18.23-.39.47-.62.73a19.29,19.29,0,0,1-2.44,2.25c-.2.15-.4.31-.62.46a20.16,20.16,0,0,1-2.44,1.49c-.2.11-.4.22-.62.32a25.38,25.38,0,0,1-2.43,1l-.63.22c-.76.25-1.57.48-2.43.68l-.62.13a24.31,24.31,0,0,1-2.44.41,6.17,6.17,0,0,1-.62.08c-.78.08-1.59.15-2.44.18-.2,0-.41,0-.62,0H84.94V68h46.82V65c.61.14,1.2.27,1.79.37l.62.11c.83.13,1.65.24,2.44.31l.62,0c.84.07,1.65.1,2.44.1h.62q1.26,0,2.43-.12l.63,0c.86-.08,1.67-.19,2.43-.32l.62-.11c.89-.16,1.7-.35,2.44-.54l.62-.17c1-.29,1.81-.57,2.44-.81l.62-.25C153.11,63.3,153.43,63.14,153.43,63.14Z"/><path class="cls-7" d="M85.25,68v6.91h-.31V68Z"/><rect class="cls-7" x="87.69" y="68.02" width="0.62" height="6.91"/><rect class="cls-7" x="90.75" y="68.02" width="0.62" height="6.91"/><rect class="cls-7" x="93.81" y="68.02" width="0.62" height="6.91"/><rect class="cls-7" x="96.87" y="68.02" width="0.62" height="6.91"/><rect class="cls-7" x="99.92" y="68.02" width="0.62" height="6.91"/><rect class="cls-7" x="102.98" y="68.02" width="0.62" height="6.91"/><rect class="cls-7" x="106.04" y="68.02" width="0.62" height="6.91"/><rect class="cls-7" x="109.09" y="68.02" width="0.62" height="6.91"/><rect class="cls-7" x="112.15" y="68.02" width="0.62" height="6.91"/><rect class="cls-7" x="115.21" y="68.02" width="0.62" height="6.91"/><rect class="cls-7" x="118.26" y="68.02" width="0.62" height="6.91"/><rect class="cls-7" x="121.32" y="68.02" width="0.62" height="6.91"/><rect class="cls-7" x="124.38" y="68.02" width="0.62" height="6.91"/><rect class="cls-7" x="127.44" y="68.02" width="0.62" height="6.91"/><rect class="cls-7" x="130.49" y="68.02" width="0.62" height="6.91"/><path class="cls-7" d="M134.17,65.45v9.48h-.62V65.34Z"/><path class="cls-7" d="M137.23,65.81v8.82a6.17,6.17,0,0,1-.62.08V65.76Z"/><path class="cls-7" d="M140.29,65.92v8.17l-.62.13V65.91Z"/><path class="cls-7" d="M143.35,65.75v7.44l-.63.22V65.8Z"/><path class="cls-7" d="M146.4,65.32v6.52c-.2.11-.4.22-.62.32V65.43Z"/><path class="cls-7" d="M149.46,64.61v5.28c-.2.15-.4.31-.62.46V64.78Z"/><path class="cls-7" d="M152.52,63.55v3.36c-.18.23-.39.47-.62.73V63.8Z"/><path class="cls-4" d="M29.94,86.88l-.16-6.18h55v-4H39.65c-15.73,0-22.43-5.87-23.32-6.72l-.09-.08Z"/><path class="cls-5" d="M16.33,65.91v4c.89.85,7.59,6.72,23.32,6.72H84.81V74.93H37.26C21.27,74.93,16.33,65.91,16.33,65.91Z"/><path class="cls-6" d="M16.33,63.14v2.45a8.48,8.48,0,0,0,.91,1.32c.18.23.38.47.62.73a18.62,18.62,0,0,0,2.44,2.25c.19.15.4.31.62.46a20.16,20.16,0,0,0,2.44,1.49c.19.11.4.22.61.32.75.36,1.56.71,2.44,1l.62.22c.76.25,1.58.48,2.44.68l.62.13a24.31,24.31,0,0,0,2.44.41,6.17,6.17,0,0,0,.62.08c.78.08,1.59.15,2.43.18l.62,0H84.81V68H38V65c-.61.14-1.21.27-1.8.37l-.62.11c-.83.13-1.64.24-2.43.31l-.62,0c-.84.07-1.65.1-2.44.1h-.62c-.84,0-1.66,0-2.44-.12l-.62,0c-.86-.08-1.67-.19-2.44-.32l-.61-.11c-.89-.16-1.7-.35-2.44-.54l-.62-.17c-1-.29-1.81-.57-2.44-.81l-.62-.25C16.65,63.3,16.33,63.14,16.33,63.14Z"/><path class="cls-7" d="M84.5,68v6.91h.31V68Z"/><rect class="cls-7" x="81.44" y="68.02" width="0.62" height="6.91"/><rect class="cls-7" x="78.39" y="68.02" width="0.62" height="6.91"/><rect class="cls-7" x="75.33" y="68.02" width="0.62" height="6.91"/><rect class="cls-7" x="72.27" y="68.02" width="0.62" height="6.91"/><rect class="cls-7" x="69.21" y="68.02" width="0.62" height="6.91"/><rect class="cls-7" x="66.16" y="68.02" width="0.62" height="6.91"/><rect class="cls-7" x="63.1" y="68.02" width="0.62" height="6.91"/><rect class="cls-7" x="60.04" y="68.02" width="0.62" height="6.91"/><rect class="cls-7" x="56.98" y="68.02" width="0.62" height="6.91"/><rect class="cls-7" x="53.93" y="68.02" width="0.62" height="6.91"/><rect class="cls-7" x="50.87" y="68.02" width="0.62" height="6.91"/><rect class="cls-7" x="47.81" y="68.02" width="0.62" height="6.91"/><rect class="cls-7" x="44.75" y="68.02" width="0.62" height="6.91"/><rect class="cls-7" x="41.7" y="68.02" width="0.62" height="6.91"/><rect class="cls-7" x="38.64" y="68.02" width="0.62" height="6.91"/><path class="cls-7" d="M35.58,65.45v9.48h.62V65.34Z"/><path class="cls-7" d="M32.53,65.81v8.82a6.17,6.17,0,0,0,.62.08V65.76Z"/><path class="cls-7" d="M29.47,65.92v8.17l.62.13V65.91Z"/><path class="cls-7" d="M26.41,65.75v7.44l.62.22V65.8Z"/><path class="cls-7" d="M23.36,65.32v6.52c.19.11.4.22.61.32V65.43Z"/><path class="cls-7" d="M20.3,64.61v5.28c.19.15.4.31.62.46V64.78Z"/><path class="cls-7" d="M17.24,63.55v3.36c.18.23.38.47.62.73V63.8Z"/><path class="cls-8" d="M147.22,46.13c-.28.32-9,10.44-12.27,13.4s-3.19,5.19-3.19,5.19v3.22H85V51.22H124C139.47,51.22,147,46.28,147.22,46.13Z"/><path class="cls-5" d="M147.23,44.22v1.91c-.23.15-7.75,5.09-23.2,5.09H85v-2h44.67l.63,0h.33l.52,0h0l.33,0,.6,0c.27,0,.54-.05.8-.09l.71-.1.61-.1.57-.1.5-.1.77-.17.6-.14.62-.16c.35-.08.7-.18,1-.28l.72-.21.69-.22.62-.21,1.37-.49.49-.19.58-.23.62-.25.06,0c.13,0,.25-.1.37-.15,1.13-.49,2-.92,2.63-1.23a1.59,1.59,0,0,0,.18-.08Z"/><path class="cls-6" d="M147.23,44.22l-.64.34-.18.08c-.59.31-1.5.74-2.63,1.23-.12.05-.24.11-.37.15l-.06,0-.62.25-.58.23-.49.19-1.37.49-.62.21-.69.22-.72.21c-.33.1-.68.2-1,.28l-.62.16-.6.14-.77.17-.5.1-.57.1-.61.1-.71.1c-.26,0-.53.07-.8.09l-.6,0-.33,0h0l-.52,0h-.33l-.63,0H85V24.69H88.8a24,24,0,0,0,2,1.94l.62.54c.67.59,1.48,1.25,2.44,2l.62.47c.73.53,1.55,1.09,2.44,1.67.2.13.4.27.62.4q1.13.72,2.43,1.47l.63.36q1.15.64,2.43,1.29l.62.31c.78.39,1.59.77,2.44,1.16.21.08.41.18.62.27.78.34,1.6.69,2.44,1l.62.25c.78.3,1.6.6,2.43.9l.63.22c.78.27,1.6.54,2.43.79l.62.19c.79.25,1.6.48,2.44.71l.62.16c.79.21,1.61.41,2.44.61l.62.15c.79.18,1.6.35,2.43.52l.62.12c.8.16,1.62.31,2.44.45l.62.1c.8.14,1.61.26,2.44.38l.62.08c.8.11,1.61.21,2.44.3l.61.07,2.44.23.62,0c.8.07,1.61.12,2.44.17l.62,0,2.44.11.62,0C144.62,44.2,145.91,44.22,147.23,44.22Z"/><path class="cls-7" d="M85.26,24.69V49.22h-.38V24.69Z"/><rect class="cls-7" x="87.69" y="24.69" width="0.62" height="24.53"/><path class="cls-7" d="M91.37,27.17v22h-.62V26.63Z"/><path class="cls-7" d="M94.43,29.6V49.22h-.62V29.13Z"/><path class="cls-7" d="M97.49,31.67V49.22h-.62V31.27C97.07,31.4,97.27,31.54,97.49,31.67Z"/><path class="cls-7" d="M100.55,33.5V49.22h-.63V33.14Z"/><path class="cls-7" d="M103.6,35.1V49.22H103V34.79Z"/><path class="cls-7" d="M106.66,36.53V49.22H106v-13C106.25,36.34,106.45,36.44,106.66,36.53Z"/><path class="cls-7" d="M109.72,37.8V49.22h-.62V37.55Z"/><path class="cls-7" d="M112.78,38.92v10.3h-.63V38.7Z"/><path class="cls-7" d="M115.83,39.9v9.32h-.62V39.71Z"/><path class="cls-7" d="M118.89,40.77v8.45h-.62V40.61Z"/><path class="cls-7" d="M122,41.53v7.69h-.62V41.38Z"/><path class="cls-7" d="M125,42.17v7h-.62V42.05Z"/><path class="cls-7" d="M128.06,42.72v6.5h-.62v-6.6Z"/><path class="cls-7" d="M131.12,43.18v6h0l-.52,0h-.08V43.1Z"/><path class="cls-7" d="M134.17,43.55V48.8l-.61.1V43.48Z"/><path class="cls-7" d="M137.23,43.83v4.3l-.62.16V43.78Z"/><path class="cls-7" d="M140.29,44v3.17l-.62.21V44Z"/><path class="cls-7" d="M143.35,44.17v1.88l-.62.25V44.15Z"/><path class="cls-9" d="M147.22,46.13V44.22c-1.32,0-2.61,0-3.88,0l-.62,0L140.29,44l-.62,0c-.83,0-1.64-.1-2.44-.17l-.62,0-2.44-.23-.61-.07c-.83-.09-1.64-.19-2.44-.3l-.62-.08c-.83-.12-1.64-.24-2.44-.38l-.62-.1c-.82-.14-1.64-.29-2.44-.45l-.62-.12c-.83-.17-1.64-.34-2.43-.52l-.62-.15c-.83-.2-1.65-.4-2.44-.61l-.62-.16c-.84-.23-1.65-.46-2.44-.71l-.62-.19c-.83-.25-1.65-.52-2.43-.79l-.63-.22c-.83-.3-1.65-.6-2.43-.9l-.62-.25c-.84-.33-1.66-.68-2.44-1-.21-.09-.41-.19-.62-.27-.85-.39-1.66-.77-2.44-1.16l-.62-.31q-1.28-.65-2.43-1.29l-.63-.36q-1.31-.75-2.43-1.47c-.22-.13-.42-.27-.62-.4-.89-.58-1.71-1.14-2.44-1.67l-.62-.47c-1-.71-1.77-1.37-2.44-2l-.62-.54a24,24,0,0,1-2-1.94H85v-.83H88V22.14c28.78,24.79,61.77,19.91,61.77,19.91Z"/><rect class="cls-10" x="84.95" y="17.97" width="3.06" height="5.89"/><path class="cls-11" d="M84.95,17.67h3a.56.56,0,0,1,.56.56v2.54a.56.56,0,0,1-.56.56h-3a0,0,0,0,1,0,0V17.67A0,0,0,0,1,84.95,17.67Z"/><rect class="cls-12" x="84.95" y="14.43" width="2.6" height="3.23"/><path class="cls-13" d="M84.95,10.67H88.2a.78.78,0,0,1,.78.78v2.22a.78.78,0,0,1-.78.78H84.95a0,0,0,0,1,0,0V10.67A0,0,0,0,1,84.95,10.67Z"/><path class="cls-14" d="M85,10.67V0s4.35-.08,4,3-1.11,7.63-1.11,7.63Z"/><path class="cls-2" d="M.83,90.14l17.49,10.78H94.45V94.58H18.32S7.87,94.29.83,90.14Z"/><path class="cls-5" d="M0,86.81l.83,3.33c7,4.15,17.49,4.44,17.49,4.44H94.45V92.76H27.15C8.49,92.76,0,86.81,0,86.81Z"/><path class="cls-6" d="M0,84.08v2.73a21,21,0,0,0,3.59,1.85l.74.3c.83.34,1.79.68,2.88,1l.73.23c.89.26,1.85.52,2.89.77l.74.17q1.35.3,2.88.57l.73.12c.92.15,1.88.28,2.89.4l.74.08c.92.1,1.88.18,2.88.25l.73,0c.93.06,1.89.09,2.89.11l.73,0H94.45V85.89h-65V84.08l-.53.08c-1,.15-1.95.29-2.89.41l-.73.09c-1,.11-1.95.22-2.89.3l-.73.07-2.88.21-.74,0-2.89.09h-.73c-1,0-2,0-2.88,0l-.74,0c-1,0-2-.08-2.89-.14l-.73-.06c-1.07-.09-2-.19-2.88-.3l-.74-.09A34.28,34.28,0,0,1,0,84.08Z"/><path class="cls-7" d="M94.08,85.89v6.87h.37V85.89Z"/><rect class="cls-7" x="90.46" y="85.89" width="0.74" height="6.86"/><rect class="cls-7" x="86.84" y="85.89" width="0.73" height="6.86"/><rect class="cls-7" x="83.22" y="85.89" width="0.74" height="6.86"/><rect class="cls-7" x="79.6" y="85.89" width="0.73" height="6.86"/><rect class="cls-7" x="75.98" y="85.89" width="0.74" height="6.86"/><rect class="cls-7" x="72.36" y="85.89" width="0.73" height="6.86"/><rect class="cls-7" x="68.74" y="85.89" width="0.74" height="6.86"/><rect class="cls-7" x="65.12" y="85.89" width="0.73" height="6.86"/><rect class="cls-7" x="61.5" y="85.89" width="0.74" height="6.86"/><rect class="cls-7" x="57.89" y="85.89" width="0.73" height="6.86"/><rect class="cls-7" x="54.26" y="85.89" width="0.74" height="6.86"/><rect class="cls-7" x="50.65" y="85.89" width="0.73" height="6.86"/><rect class="cls-7" x="47.02" y="85.89" width="0.74" height="6.86"/><rect class="cls-7" x="43.41" y="85.89" width="0.73" height="6.86"/><rect class="cls-7" x="39.78" y="85.89" width="0.74" height="6.86"/><rect class="cls-7" x="36.17" y="85.89" width="0.73" height="6.86"/><rect class="cls-7" x="32.55" y="85.89" width="0.74" height="6.86"/><path class="cls-7" d="M28.93,84.16v8.6h.73V85.89h-.2V84.08Z"/><path class="cls-7" d="M25.31,84.66v8.07l.73,0V84.57Z"/><path class="cls-7" d="M21.69,85v7.55l.73,0V85Z"/><path class="cls-7" d="M18.07,85.28v7l.74.08V85.24Z"/><path class="cls-7" d="M14.45,85.38v6.35l.73.12V85.37Z"/><path class="cls-7" d="M10.83,85.34V91l.74.17v-5.8Z"/><path class="cls-7" d="M7.21,85.14V90l.73.23v-5Z"/><path class="cls-7" d="M3.59,84.75v3.91l.74.3V84.84Z"/><path class="cls-2" d="M170.78,90.15,152,100.92H70.19V94.58H152S163.21,94.29,170.78,90.15Z"/><path class="cls-5" d="M171.67,86.81l-.89,3.34c-7.57,4.14-18.8,4.43-18.8,4.43H70.19V92.76h72.3C162.55,92.76,171.67,86.81,171.67,86.81Z"/><path class="cls-6" d="M171.67,84.08v2.73a23.35,23.35,0,0,1-3.86,1.85L167,89c-.9.33-1.93.67-3.1,1l-.79.23c-.95.26-2,.52-3.1.77l-.79.17c-1,.2-2,.4-3.1.57l-.78.12c-1,.15-2,.28-3.1.4l-.8.08c-1,.1-2,.18-3.1.25l-.78,0c-1,.05-2,.08-3.1.11H70.19V85.9H140V84.08l.58.08c1,.16,2.09.29,3.1.41l.79.09c1.06.12,2.09.22,3.1.3l.78.07,3.1.21.8,0,3.1.09h.78c1.09,0,2.12,0,3.1,0l.79,0c1.11,0,2.15-.08,3.1-.14l.79-.06c1.16-.09,2.19-.18,3.1-.29l.79-.1A36.28,36.28,0,0,0,171.67,84.08Z"/><path class="cls-7" d="M70.59,85.9v6.86h-.4V85.9Z"/><rect class="cls-7" x="73.68" y="85.9" width="0.79" height="6.86"/><rect class="cls-7" x="77.58" y="85.9" width="0.79" height="6.86"/><rect class="cls-7" x="81.46" y="85.9" width="0.79" height="6.86"/><rect class="cls-7" x="85.35" y="85.9" width="0.79" height="6.86"/><rect class="cls-7" x="89.24" y="85.9" width="0.79" height="6.86"/><rect class="cls-7" x="93.13" y="85.9" width="0.79" height="6.86"/><rect class="cls-7" x="97.02" y="85.9" width="0.79" height="6.86"/><rect class="cls-7" x="100.91" y="85.9" width="0.79" height="6.86"/><rect class="cls-7" x="104.8" y="85.9" width="0.79" height="6.86"/><rect class="cls-7" x="108.69" y="85.9" width="0.79" height="6.86"/><rect class="cls-7" x="112.57" y="85.9" width="0.79" height="6.86"/><rect class="cls-7" x="116.47" y="85.9" width="0.79" height="6.86"/><rect class="cls-7" x="120.35" y="85.9" width="0.79" height="6.86"/><rect class="cls-7" x="124.24" y="85.9" width="0.79" height="6.86"/><rect class="cls-7" x="128.13" y="85.9" width="0.79" height="6.86"/><rect class="cls-7" x="132.02" y="85.9" width="0.79" height="6.86"/><rect class="cls-7" x="135.91" y="85.9" width="0.79" height="6.86"/><path class="cls-7" d="M140.59,84.16v8.6h-.79V85.9H140V84.08Z"/><path class="cls-7" d="M144.48,84.66v8.08h-.79V84.57Z"/><path class="cls-7" d="M148.36,85v7.55l-.78,0V85Z"/><path class="cls-7" d="M152.26,85.28v7l-.8.08V85.24Z"/><path class="cls-7" d="M156.14,85.38v6.35l-.78.12V85.37Z"/><path class="cls-7" d="M160,85.34V91l-.79.17v-5.8Z"/><path class="cls-7" d="M163.92,85.14V90l-.79.23v-5Z"/><path class="cls-7" d="M167.81,84.75v3.91L167,89V84.85Z"/><path class="cls-8" d="M22.43,46.13c.28.32,9.05,10.44,12.31,13.4S38,64.72,38,64.72v3.22h47V51.22H45.72C30.21,51.22,22.66,46.28,22.43,46.13Z"/><path class="cls-5" d="M22.42,44.22v1.91c.23.15,7.78,5.09,23.29,5.09H84.94v-2H40.09l-.63,0h-.33l-.52,0h0l-.33,0-.6,0L36.85,49l-.7-.1-.63-.1L35,48.7l-.5-.1-.78-.17-.6-.14-.63-.16c-.34-.08-.69-.18-1-.28l-.72-.21L30,47.42l-.62-.21c-.48-.16-.94-.33-1.38-.49l-.5-.19-.57-.23-.63-.25-.06,0c-.13,0-.25-.1-.37-.15-1.14-.49-2-.92-2.64-1.23a1.59,1.59,0,0,1-.18-.08Z"/><path class="cls-6" d="M22.42,44.22l.64.34.18.08c.6.31,1.5.74,2.64,1.23.12.05.24.11.37.15l.06,0,.63.25.57.23.5.19c.44.16.9.33,1.38.49l.62.21.69.22.72.21c.34.1.69.2,1,.28l.63.16.6.14.78.17.5.1.56.1.63.1.7.1.81.09.6,0,.33,0h0l.52,0h.33l.63,0H84.94V24.69H81.07a23.41,23.41,0,0,1-2,1.94c-.19.17-.39.35-.62.54-.67.59-1.48,1.25-2.44,2l-.63.47c-.73.53-1.55,1.09-2.44,1.67l-.62.4c-.76.48-1.58,1-2.45,1.47l-.63.36c-.77.43-1.59.86-2.44,1.29l-.62.31c-.79.39-1.6.77-2.45,1.16-.21.08-.42.18-.62.27-.79.34-1.61.69-2.45,1l-.62.25-2.45.9-.62.22c-.8.27-1.61.54-2.45.79l-.62.19c-.79.25-1.61.48-2.45.71l-.62.16c-.8.21-1.61.41-2.45.61l-.62.15-2.44.52-.63.12c-.8.16-1.62.31-2.45.45l-.62.1c-.8.14-1.61.26-2.44.38l-.63.08c-.8.11-1.62.21-2.44.3l-.63.07-2.44.23-.63,0c-.8.07-1.61.12-2.44.17l-.62,0-2.45.11-.63,0C25,44.2,23.74,44.22,22.42,44.22Z"/><path class="cls-7" d="M84.63,24.69V49.22h.31V24.69Z"/><rect class="cls-7" x="81.56" y="24.69" width="0.63" height="24.53"/><path class="cls-7" d="M78.49,27.17v22h.62V26.63C78.92,26.8,78.72,27,78.49,27.17Z"/><path class="cls-7" d="M75.42,29.6V49.22h.63V29.13Z"/><path class="cls-7" d="M72.36,31.67V49.22H73V31.27Z"/><path class="cls-7" d="M69.28,33.5V49.22h.63V33.14Z"/><path class="cls-7" d="M66.22,35.1V49.22h.62V34.79Z"/><path class="cls-7" d="M63.15,36.53V49.22h.62v-13C63.56,36.34,63.35,36.44,63.15,36.53Z"/><path class="cls-7" d="M60.08,37.8V49.22h.62V37.55Z"/><path class="cls-7" d="M57,38.92v10.3h.62V38.7Z"/><path class="cls-7" d="M53.94,39.9v9.32h.62V39.71Z"/><path class="cls-7" d="M50.87,40.77v8.45h.62V40.61Z"/><path class="cls-7" d="M47.8,41.53v7.69h.62V41.38Z"/><path class="cls-7" d="M44.73,42.17v7h.63V42.05Z"/><path class="cls-7" d="M41.66,42.72v6.5h.62v-6.6Z"/><path class="cls-7" d="M38.59,43.18v6h0l.52,0h.09V43.1Z"/><path class="cls-7" d="M35.52,43.55V48.8l.63.1V43.48Z"/><path class="cls-7" d="M32.45,43.83v4.3l.63.16V43.78Z"/><path class="cls-7" d="M29.39,44v3.17l.62.21V44Z"/><path class="cls-7" d="M26.31,44.17v1.88l.63.25V44.15Z"/><path class="cls-9" d="M22.43,46.13V44.22c1.32,0,2.62,0,3.89,0l.63,0L29.39,44,30,44c.83,0,1.64-.1,2.44-.17l.63,0,2.44-.23.63-.07c.82-.09,1.64-.19,2.44-.3l.63-.08c.83-.12,1.64-.24,2.44-.38l.62-.1c.83-.14,1.65-.29,2.45-.45l.63-.12,2.44-.52.62-.15c.84-.2,1.65-.4,2.45-.61l.62-.16c.84-.23,1.66-.46,2.45-.71l.62-.19c.84-.25,1.65-.52,2.45-.79l.62-.22,2.45-.9.62-.25c.84-.33,1.66-.68,2.45-1,.2-.09.41-.19.62-.27.85-.39,1.66-.77,2.45-1.16l.62-.31c.85-.43,1.67-.86,2.44-1.29l.63-.36c.87-.5,1.69-1,2.45-1.47l.62-.4c.89-.58,1.71-1.14,2.44-1.67l.63-.47c1-.71,1.77-1.37,2.44-2,.23-.19.43-.37.62-.54a23.41,23.41,0,0,0,2-1.94h4.87v-.82H81.87V22.14c-28.89,24.79-62,19.91-62,19.91Z"/><rect class="cls-10" x="81.87" y="17.97" width="3.19" height="5.89" transform="translate(166.94 41.84) rotate(180)"/><path class="cls-11" d="M81.39,17.67h3.17a.57.57,0,0,1,.57.57v2.51a.57.57,0,0,1-.57.57H81.39a0,0,0,0,1,0,0V17.67a0,0,0,0,1,0,0Z" transform="translate(166.53 38.98) rotate(180)"/><rect class="cls-12" x="82.33" y="14.43" width="2.73" height="3.23" transform="translate(167.39 32.1) rotate(180)"/><path class="cls-13" d="M80.9,10.67h3.37a.79.79,0,0,1,.79.79v2.19a.79.79,0,0,1-.79.79H80.9a0,0,0,0,1,0,0V10.67A0,0,0,0,1,80.9,10.67Z" transform="translate(165.97 25.1) rotate(180)"/><path class="cls-14" d="M85.26,10.67V0S80.55-.08,80.9,3s1.21,7.63,1.21,7.63Z"/><rect class="cls-15" x="53.38" y="67.88" width="62.13" height="53.36"/><rect class="cls-16" x="56.78" y="72.99" width="55.33" height="13.89"/><rect class="cls-16" x="56.78" y="92" width="55.33" height="24.12"/><rect class="cls-17" x="33.65" y="113.19" width="101.6" height="12.47"/><circle class="cls-18" cx="86.27" cy="154.85" r="26.68"/><rect class="cls-19" x="118.43" y="125.62" width="12.43" height="60.1"/><rect class="cls-19" x="39.5" y="125.62" width="12.43" height="60.1"/><rect class="cls-20" x="38.76" y="116.12" width="92.1" height="6.58"/><rect class="cls-17" x="38.76" y="185.55" width="93.65" height="17.39"/><rect class="cls-19" x="38.76" y="187.32" width="93.65" height="3.2"/><rect class="cls-3" x="29.47" y="80.7" width="23.91" height="5.2" transform="translate(82.85 166.59) rotate(-180)"/></g></g></svg>