<svg xmlns="http://www.w3.org/2000/svg" viewBox="0 0 39.69 34.37"><defs><style>.cls-1{fill:#d599ac;}.cls-2{fill:#fff;}</style></defs><title>hex_mu</title><g id="图层_2" data-name="图层 2"><g id="图层_1-2" data-name="图层 1"><polygon class="cls-1" points="9.92 34.37 29.76 34.37 39.69 17.18 29.76 0 9.92 0 0 17.18 9.92 34.37"/><path class="cls-2" d="M25.71,22.24A19.83,19.83,0,0,0,23.89,16,4.4,4.4,0,0,0,21,13.51v-.77a10.57,10.57,0,0,0,1.51-.11A3.69,3.69,0,0,0,25.7,10a9.6,9.6,0,0,0,.1-4.45,1.28,1.28,0,0,0-1.28-1,.84.84,0,0,0-.67.28,1.22,1.22,0,0,0-.19,1,10,10,0,0,1,.22,2.93c-.16,1-.65,1.24-1,1.32a9.4,9.4,0,0,1-1.8.3V5.3c-.12-1.18-.74-1.52-1.24-1.59h-.06c-.41,0-1.09.22-1.09,1.67a46,46,0,0,1,.12,5.07l-.59-.08a2.87,2.87,0,0,0-.72-.12c-1.12-.13-1.62-.65-1.62-1.69V7.39a3.63,3.63,0,0,0,0-1.32c0-.32-.15-1.28-1-1.48-.57,0-.86.71-1.07,1.43a5.79,5.79,0,0,0,.61,4.53,4.32,4.32,0,0,0,3.23,2.19h.58l.55.09v.68a4.14,4.14,0,0,0-2.58,1.67,12.7,12.7,0,0,0-2.06,5.15,38.25,38.25,0,0,0-.56,4.18v2.43a.85.85,0,0,0,.86,1c.24,0,.81-.09,1-1a6.21,6.21,0,0,1,.11-1.07c.07-.87.14-1.57.22-2.1a17.13,17.13,0,0,1,.87-4.68c.56-1.86,1.28-2.87,2.16-3v5.23a30.63,30.63,0,0,1,0,3.63c0,2.26,0,3.72.11,4.48,0,.31.16,1.25.95,1.25h0c.48-.12.77-.58.87-1.34A23.85,23.85,0,0,0,21,24.61v-2c-.07-2.48-.07-4.14,0-5V16.15A1.64,1.64,0,0,1,22,17a10.53,10.53,0,0,1,1.49,4,13.62,13.62,0,0,1,.22,1.63c.36,2.41.55,3.88.55,4.43a1.2,1.2,0,0,0,1,1.13c.2,0,.87-.08.86-1A16.13,16.13,0,0,0,25.71,22.24Z"/></g></g></svg>