<svg xmlns="http://www.w3.org/2000/svg" viewBox="0 0 39.69 34.37"><defs><style>.cls-1{fill:#7498b6;}.cls-2{fill:#fff;}</style></defs><title>hex_tu</title><g id="图层_2" data-name="图层 2"><g id="图层_1-2" data-name="图层 1"><polygon class="cls-1" points="9.92 34.37 29.76 34.37 39.69 17.18 29.76 0 9.92 0 0 17.18 9.92 34.37"/><path class="cls-2" d="M27.34,26.77a.61.61,0,0,0-.05-.12c-.12-.19-.29-.48-4.53-.48H21.57v-2c-.06-1.31-.1-2.37-.11-3.17h.95a16.18,16.18,0,0,0,1.68.11c1.87,0,2.18,0,2.24-.25a1.07,1.07,0,0,0,.36-.87,1,1,0,0,0-.62-.68,6.59,6.59,0,0,0-2.75-.25H21.46c0-5.66.08-9.14.22-10.35a8.78,8.78,0,0,0-.13-3.46c-.27-.53-.6-.8-1-.8a.88.88,0,0,0-.91.84,16,16,0,0,0-.12,4.63c.15,1.66.22,4.73.23,9.14-.26,0-.58,0-1-.11H17.14a8.65,8.65,0,0,0-1.91,0,.94.94,0,0,0-.79.22,1.07,1.07,0,0,0-.23.92,1.27,1.27,0,0,0,.41,1,2,2,0,0,0,1.66.22A19.76,19.76,0,0,1,19.75,21c0,1.66,0,3.39-.11,5.15A25.05,25.05,0,0,1,15.17,26a1.31,1.31,0,0,0-1.06.16,1.26,1.26,0,0,0-.45,1c0,.32.22.61.71.9a3.71,3.71,0,0,0,1.35.22,6.69,6.69,0,0,0,1.06-.09h.68a33.49,33.49,0,0,1,3.75,0c3.16,0,5.07,0,5.71-.12.14,0,.58-.14.68-.5A.8.8,0,0,0,27.34,26.77Z"/></g></g></svg>