<svg xmlns="http://www.w3.org/2000/svg" viewBox="0 0 39.69 34.37"><defs><style>.cls-1{fill:#e37611;}.cls-2{fill:#fff;}</style></defs><title>hex_si</title><g id="图层_2" data-name="图层 2"><g id="图层_1-2" data-name="图层 1"><polygon class="cls-1" points="9.92 34.37 29.76 34.37 39.69 17.18 29.76 0 9.92 0 0 17.18 9.92 34.37"/><path class="cls-2" d="M27.08,25.09C27,24.22,27,23.26,27,22.21c-.15-2.86-1-4.43-2.65-4.66a4,4,0,0,1,.1-.53v-.3a2,2,0,0,0,1-.22.44.44,0,0,0,.25-.13c.23-.15.4-.26.52-.32a1.1,1.1,0,0,0,.63-.72,3.72,3.72,0,0,0,.25-1.76c-.08-1-1-1.6-2.84-1.78a2.56,2.56,0,0,0,0-.75v-.41h.74a1.73,1.73,0,0,0,1.34-.74,3,3,0,0,0,.47-1.51,2.33,2.33,0,0,0-.59-1.53,2.65,2.65,0,0,0-1.9-1,2,2,0,0,0,0-.45,1.5,1.5,0,0,0-1-1.22l-.06,0c-.7,0-.81.44-.81.71a.84.84,0,0,0,.13.39.84.84,0,0,1,.09.27v0a.15.15,0,0,1,0,.1s-.08.1-.34.15c-1.31.39-2.05,1-2.21,1.79a5.26,5.26,0,0,0,.22,2.17l0,0a2.06,2.06,0,0,0,2,1h.13a1.34,1.34,0,0,1,.16.54.44.44,0,0,1,0,.33.38.38,0,0,1-.28.15,2.88,2.88,0,0,0-2.05.78,1,1,0,0,0-.19.81,2.62,2.62,0,0,0,.49,2.43c.69.77,1.34,1.05,1.91.82h.26v.95c-1.17.27-1.91,1.19-2.21,2.74a17,17,0,0,0-.44,3.79,13.69,13.69,0,0,0,.11,3.14v0a.83.83,0,0,0,.54.54h.05c.22,0,.59-.09.59-.69s.11-1.73.11-3.33A24.73,24.73,0,0,1,22,20.49a2.07,2.07,0,0,1,.92-1.36v7A14.4,14.4,0,0,1,23,28.2v1.44l0,.07H23l.05.19c.11.46.38.55.59.55.46,0,.56-.68.59-.89a12.38,12.38,0,0,0,.11-3.8c-.07-2.35-.07-4.6,0-6.67.46.15.85.7,1.16,1.62a12.57,12.57,0,0,1,.21,2.84,35.07,35.07,0,0,0,.33,4,.51.51,0,0,0,.33.47.45.45,0,0,0,.6-.24c.18-.09.26-.43.26-1.12A8.89,8.89,0,0,0,27.08,25.09Zm-2-17v0a.66.66,0,0,1-.09.73l0,0a.64.64,0,0,1-.61.46,11.92,11.92,0,0,0-1.91-.11,1,1,0,0,1-1.07-1c0-.59.26-.85.85-.85a1.49,1.49,0,0,0,1.1-.37A.19.19,0,0,1,23.52,7a.48.48,0,0,1,.24.1c.16.07.45.18.91.34h0C24.92,7.42,25.06,7.64,25.12,8.07Zm.55,6.29c-.14.7-.7,1-1.68.85a2.48,2.48,0,0,0-.69-.11,1.61,1.61,0,0,0-.61.11,1.17,1.17,0,0,1-1.15-1c0-.24,0-.55.56-.71l0,0a1.83,1.83,0,0,1,1.45-.2A7.83,7.83,0,0,0,25,13.4,1.24,1.24,0,0,1,25.67,14.36Z"/><path class="cls-2" d="M17.31,16.39a1.62,1.62,0,0,0,1.34-.86v0A2,2,0,0,1,19,15a2.13,2.13,0,0,0-.1-2.26,2.43,2.43,0,0,0-2.63-1.2c0-.13.05-.29.1-.5v-.41h.92c.35.09.74-.11,1.15-.6A2.25,2.25,0,0,0,19,8.6,2.21,2.21,0,0,0,18.89,8a1.16,1.16,0,0,0-.13-.6A2.29,2.29,0,0,0,16.39,6a2.31,2.31,0,0,0,.06-.52,1.65,1.65,0,0,0-1-1.34l-.05,0a.63.63,0,0,0-.6.12.64.64,0,0,0-.13.58,1,1,0,0,0,.11.37.74.74,0,0,0,.12.47c0,.15-.23.27-.46.34-1.32.47-2,.93-2.2,1.44a3.28,3.28,0,0,0,.24,2.45c.63.87,1.33,1.18,2.05.94l.11,0v-.05h.12l.17.17A.19.19,0,0,1,15,11c0,.51-.2.51-.31.51-1.47.24-2.3.87-2.45,1.89a2.45,2.45,0,0,0,.48,2.47,2,2,0,0,0,1.93.59l.15-.06.08.81a4.21,4.21,0,0,0-2.2,3.16,21,21,0,0,0-.67,4v1.09a4.26,4.26,0,0,0,0,1.37c0,.58.3.66.45.67a.5.5,0,0,0,.42-.06.87.87,0,0,0,.32-.63c.07-.9.15-2.24.22-4a9,9,0,0,1,.21-1.61,2.76,2.76,0,0,0,.23-.79,3.4,3.4,0,0,1,1.16-1.35,61.35,61.35,0,0,1,0,7.06,27.3,27.3,0,0,0,0,3.44.77.77,0,0,0,.21.63.44.44,0,0,0,.27.09h.11a.36.36,0,0,0,.27-.05c.16-.1.27-.34.33-.75a10.7,10.7,0,0,0,.11-2.46c0-1,0-2.1.11-3.2.07-1.51.11-3.16.11-4.9a2.12,2.12,0,0,1,1,1.7,24.92,24.92,0,0,1,.22,3.08A30.64,30.64,0,0,0,18,27.43a.58.58,0,0,0,.44.58.44.44,0,0,0,.6-.25c.11-.1.15-.37.15-1,0-1.46-.08-3.07-.22-4.78-.3-2.49-1.08-4.05-2.33-4.62v-1ZM16.79,15a4,4,0,0,0-1.38,0h-.92a.69.69,0,0,1-.59-.06.84.84,0,0,1-.22-.68.8.8,0,0,1,.56-.86h0a3.53,3.53,0,0,1,1.38-.32,3.26,3.26,0,0,0,.84-.09,1.05,1.05,0,0,0,.71.31c.19,0,.4.06.4.52v0a2.28,2.28,0,0,1,.1.6C17.66,14.72,17.52,15.07,16.79,15Zm.8-6.83V9c-.05.14-.11.21-.17.21a6.39,6.39,0,0,0-2.81.11,1.1,1.1,0,0,1-.84-.18.7.7,0,0,1-.2-.54c.06-.6.49-.95,1.31-1.09h0a2.47,2.47,0,0,1,.54,0c.24,0,.52,0,.86,0h.41C17.23,7.66,17.53,7.88,17.59,8.16Z"/></g></g></svg>