<svg xmlns="http://www.w3.org/2000/svg" viewBox="0 0 39.69 34.37"><defs><style>.cls-1{fill:#143e71;}.cls-2{fill:#fff;}</style></defs><title>hex_pao</title><g id="图层_2" data-name="图层 2"><g id="图层_1-2" data-name="图层 1"><polygon class="cls-1" points="9.92 34.37 29.76 34.37 39.69 17.18 29.76 0 9.92 0 0 17.18 9.92 34.37"/><path class="cls-2" d="M23.09,16.19l0,0a3.26,3.26,0,0,0-.35,2.32,2.62,2.62,0,0,0,2,2.08h0l0,0c1.23-.53,1.85-1.95,1.85-4.21v0l0,0c-.33-.5-.61-.74-.85-.74a.4.4,0,0,0-.35.18l0,0v0c0,1.66-.26,2.76-.77,3.27A2.2,2.2,0,0,1,23.94,18a.64.64,0,0,1,.09-.75,5.29,5.29,0,0,0,1.12-2.42,1.77,1.77,0,0,0,1-1,2.6,2.6,0,0,0,.24-2.07c0-.48-.37-.92-1.06-1.31a2.6,2.6,0,0,0-2.68.12,2.09,2.09,0,0,0-.94,1.32,3.2,3.2,0,0,0,.69,2.29,1.87,1.87,0,0,0,1.3.81A1.42,1.42,0,0,1,23.09,16.19ZM23,12.64c0-.54.19-.86.58-1a1.94,1.94,0,0,1,1.26,0c.31.06.5.32.56.76s-.18.86-.57,1l-.05,0s-.13.06-.8,0h-.42A.74.74,0,0,1,23,12.64Z"/><path class="cls-2" d="M28.6,14.29c-.07-3.83-1.26-6.13-3.54-6.84,0-.17,0-.55-.11-1.25h0a7.71,7.71,0,0,1-.09-.77v0c-.24-.66-.56-1-.92-.86l0,0A1.55,1.55,0,0,0,23.26,6c.21.89.12,1.44-.26,1.63a4.64,4.64,0,0,0-2.1,2,1.41,1.41,0,0,0-.2-.24,10,10,0,0,0-3.28-1.88,6.61,6.61,0,0,1,.11-.79V6c0-1-.32-1.65-1-1.89a.31.31,0,0,0-.23,0c-.13.09-.3.33-.38,1.42v2a10.24,10.24,0,0,0-3.85,3.11.64.64,0,0,0-.12.68c.06.12.22.3.59.18l0,0a14.13,14.13,0,0,0,1.45-1.11A8.07,8.07,0,0,1,16,9.13v1a1.45,1.45,0,0,1-.5,1,21.67,21.67,0,0,0-2.78,2.33l0,0a1.79,1.79,0,0,0-.35,1.32.5.5,0,0,0,.3.3l.06,0,.05,0a15.15,15.15,0,0,0,1.64-1.12.91.91,0,0,0-.06.35c0,.83.37,1,.69,1h0a23.26,23.26,0,0,1,3.76-.11.65.65,0,0,0,.67-.55c.12-.58-.22-.75-.42-.81h0a15.86,15.86,0,0,0-2.33-.11h0a5.63,5.63,0,0,1-1.5,0,.87.87,0,0,0-.43-.06c.29-.24.56-.48.81-.73.88-.8,1.28-1,1.45-1a4.93,4.93,0,0,1,2.47,1.62,2,2,0,0,0,.85.58v.78c0,.53.07,1,.13,1.52a1.77,1.77,0,0,0-1.21-.43,15.18,15.18,0,0,0-3.69,0,3.06,3.06,0,0,1-1.58,0,.48.48,0,0,0-.43,0c-.16.08-.25.26-.3.57a1.28,1.28,0,0,0,.27,1.12.85.85,0,0,0,.77.12,15.41,15.41,0,0,1,1.7-.31,2.8,2.8,0,0,0,.6,2.37c.93,1.21,1,2.85.21,4.86a8.09,8.09,0,0,1-2.4,3,7.11,7.11,0,0,0-1.47,1.48.69.69,0,0,0-.12.68l0,0,0,0a.83.83,0,0,0,.66,0,8.29,8.29,0,0,0,4.39-4.83c.89-2.46.85-4.47-.14-6a1.57,1.57,0,0,1-.23-1.68h1.89c.7.09,1-.18,1.09-.48.39,2.35,1.27,4,2.62,4.78a.52.52,0,0,0,.72,0l0,0a.75.75,0,0,0-.25-.79,9.71,9.71,0,0,1-2.07-6c-.15-2.75.18-4.58,1-5.46A1.83,1.83,0,0,1,23.83,9a.64.64,0,0,0,.45-.15A.77.77,0,0,0,24.8,9h0c1.54.21,2.36,2,2.44,5.41a26.48,26.48,0,0,1-.11,4.52,4.24,4.24,0,0,1-1.84,2.91c-1.64,1.34-2.78,4.2-3.36,8.47a.42.42,0,0,0,.3.6h0a.76.76,0,0,0,.53-.26l0-.05c.41-1.23.82-2.5,1.22-3.77.51-2,1.23-3.38,2.16-4a5,5,0,0,0,2.16-3.41A28,28,0,0,0,28.6,14.29Zm-8.07-3.66a8.45,8.45,0,0,0-.26,1.95c-.35-.32-1-.77-1.78-1.36a2.25,2.25,0,0,0-.58-.46c-.32-.2-.49-.39-.49-.56v-1A10.64,10.64,0,0,1,20,10.4.63.63,0,0,0,20.53,10.63Z"/></g></g></svg>