<svg xmlns="http://www.w3.org/2000/svg" viewBox="0 0 39.69 34.37"><defs><style>.cls-1{fill:#3b303f;}.cls-2{fill:#fff;}</style></defs><title>hex_shi</title><g id="图层_2" data-name="图层 2"><g id="图层_1-2" data-name="图层 1"><polygon class="cls-1" points="9.92 34.37 29.76 34.37 39.69 17.18 29.76 0 9.92 0 0 17.18 9.92 34.37"/><path class="cls-2" d="M24.6,11.06h-.08c-.31.11-.52.44-.61,1v1.44c0,.26-.06.31-.06.31s0,0-.13,0c-1.91,0-3.26,0-4,.12a.32.32,0,0,1-.18,0,.43.43,0,0,1-.07-.25,1.67,1.67,0,0,0,.1-.66,3.19,3.19,0,0,0,.12-.72.85.85,0,0,0-.69-.92c-.34,0-.6.24-.8.74a9.16,9.16,0,0,0,.59,7.18,3.26,3.26,0,0,0,2.67,1.74,2.48,2.48,0,0,0,.66-.08c1.88.08,3-.66,3.43-2.18a12.85,12.85,0,0,0-.14-7C25.09,11.27,24.85,11.06,24.6,11.06Zm-.47,5.12a9,9,0,0,1-.21,1.93c-.16.56-.47.67-.68.71a5,5,0,0,1-2.32-.11,1.43,1.43,0,0,1-.85-1,2.43,2.43,0,0,1-.31-1.1v-.07a.63.63,0,0,1,0-.45A.42.42,0,0,1,20,16a10.24,10.24,0,0,1,2.46-.28,12.1,12.1,0,0,1,1.33.07h.09C24.12,15.81,24.18,15.9,24.13,16.18Z"/><path class="cls-2" d="M26.62,8.72c-.07-.34-.31-.75-1.09-.87a35.44,35.44,0,0,0-5.47-.33c-3.21.07-5.19.61-6,1.63a1.66,1.66,0,0,0-.15,2.17c.57,1.06.82,3,.75,5.86,0,.94-.11,2.72-.33,5.3-.07,1.07-.15,1.93-.22,2.56a18.88,18.88,0,0,1-.33,2.29c-.3,2.07-.49,3.4-.56,4s.15,1,.36,1a.49.49,0,0,0,.19,0c.34,0,.6-.43.71-.62a15,15,0,0,0,.9-4.18,22.81,22.81,0,0,1,.44-3.2c.52-5.9.55-10.32.11-13.11-.06-.84.23-1.32.9-1.5a40.88,40.88,0,0,1,8.69-.22h0c.81,0,1.06-.41,1.13-.76V8.72Z"/></g></g></svg>