<svg xmlns="http://www.w3.org/2000/svg" viewBox="0 0 39.69 34.37"><defs><style>.cls-1{fill:#006056;}.cls-2{fill:#fff;}</style></defs><title>hex_zhu</title><g id="图层_2" data-name="图层 2"><g id="图层_1-2" data-name="图层 1"><polygon class="cls-1" points="9.92 34.37 29.76 34.37 39.69 17.18 29.76 0 9.92 0 0 17.18 9.92 34.37"/><path class="cls-2" d="M17.44,10.54a3.1,3.1,0,0,0-1-1l0,0h0c-.07,0-.28,0-.28-.58a11.13,11.13,0,0,0,.1-2.57,2.15,2.15,0,0,0-.34-1.61.9.9,0,0,0-.66-.26h0c-.5.08-.79.63-.87,1.67.07.5.14,1.47.21,2.86,0,.23-.19.48-.57.73a2,2,0,0,0-.79.8A7.09,7.09,0,0,0,12,14c-.14,1.55-.21,3.36-.21,5.36,0,2.39,0,4.14.11,5.34a.74.74,0,0,0,.21.6.6.6,0,0,0,.51.09c.24-.07.54-.27.54-.9,0-5.9,0-9.22.11-10.15.06-1.52.33-2.49.78-2.88.17-.11.3-.14.39-.1l.07,0s.06.08.06.28v4.6c0,.93,0,2.23.11,3.85v3.42c0,.72,0,1.7.1,2.89v1.08c.07.87.23,1.08.36,1.16a.24.24,0,0,0,.16.05h.07c.44,0,.67-.43.67-1.21s.1-2.32.1-4.29V20c0-1.48,0-2.67-.1-3.54S16,14.11,16,11.7a2,2,0,0,1,0-.36,1.84,1.84,0,0,1,.28.17c.31.17.69.89.78,3.29,0,.36,0,1.08.11,2.15.21,3.7.35,6.24.43,7.58,0,.69.36.79.57.79s.58-.13.69-.78a97.24,97.24,0,0,0-.43-10.07A9.15,9.15,0,0,0,17.44,10.54Z"/><path class="cls-2" d="M26.88,14.36c-.15-2-.51-3.21-1.11-3.73l-.31-.31a2.08,2.08,0,0,0-.59-.58A.82.82,0,0,1,24.31,9c0-1.41,0-2.49-.1-3.22s-.34-1.22-.77-1.31h-.05c-.51.08-.77.64-.77,1.67a8.09,8.09,0,0,1,.11,1.49A12.16,12.16,0,0,1,22.84,9a.84.84,0,0,1-.56.65,1.81,1.81,0,0,0-.8.89,6.16,6.16,0,0,0-1.21,3.3q-.11,2.67-.21,5.89c0,2.45,0,4,.1,4.84a.84.84,0,0,0,.31.57.63.63,0,0,0,.51.08.8.8,0,0,0,.66-.89V21.85c-.07-4.32-.07-6.83,0-7.46a6,6,0,0,1,.92-3c.1-.09.17-.11.22-.09a1,1,0,0,1,.06.42c0,.43,0,1.19.1,2.24v9.41c0,2.39,0,3.83.11,4.41.09.78.22,1.09.47,1.09.45,0,.71-.4.79-1.22V26.36a29.3,29.3,0,0,0,0-3.54V11.7c0-.33.07-.39.07-.39h.06a1.1,1.1,0,0,1,.24.25,8.14,8.14,0,0,1,.83,3.24c.07,2,.11,5.06.11,9.22.1.63.42.77.7.77h0a1,1,0,0,0,.76-.9C27.17,21.47,27.09,18.26,26.88,14.36Z"/></g></g></svg>