<svg xmlns="http://www.w3.org/2000/svg" viewBox="0 0 39.69 34.37"><defs><style>.cls-1{fill:#b92d2c;}.cls-2{fill:#fff;}</style></defs><title>hex_ge</title><g id="图层_2" data-name="图层 2"><g id="图层_1-2" data-name="图层 1"><polygon class="cls-1" points="9.92 34.37 29.76 34.37 39.69 17.18 29.76 0 9.92 0 0 17.18 9.92 34.37"/><path class="cls-2" d="M26.14,23.51c-.1-.22-.38-.34-.87-.39H23.72c-1.29-.07-2.3-.11-3.09-.11V21.26h2.42c.87,0,1.47-.62,1.79-1.87.37-2.53.17-4.35-.59-5.43a.77.77,0,0,0-.53-.25h-.06l0,0a.73.73,0,0,0-.15.53A13.34,13.34,0,0,0,23.57,16H22.29c-.68-.06-1.18-.1-1.55-.11,0-.2.05-.45.11-.76v-.65h.34c1.16-.16,1.83-1,2-2.44.05-.52.07-.77.09-.88a13.93,13.93,0,0,0,1.91-.12c.54-.1.65-.42.65-.67v0c-.09-.27-.35-.44-.77-.53a14.67,14.67,0,0,0-1.78-.11,15.64,15.64,0,0,0-.45-3.25c-.17-.35-.35-.51-.55-.51s-.37.18-.46.56V9.18a.94.94,0,0,0,.11.36v.18H20.84c-1.25,0-2.32,0-3.2.1a6.16,6.16,0,0,1,.22-1.62,2.22,2.22,0,0,0-.38-2A.64.64,0,0,0,16.89,6c-.16.05-.29.2-.38.48a18.67,18.67,0,0,0-.23,3.33,6,6,0,0,1-1.38-.1H13.75a.9.9,0,0,0-1,1,.74.74,0,0,0,.22.56,1.48,1.48,0,0,0,1.14.23c.7-.07,1.48-.11,2.3-.11a6.41,6.41,0,0,0,.45,2.15,1.92,1.92,0,0,0,1.55.95h.76v1.41a26.16,26.16,0,0,0-3.19.22h-.19c.2-1.13.11-1.84-.27-2.17a.46.46,0,0,0-.43-.26H15l0,0a1.46,1.46,0,0,0-.25.39,11.7,11.7,0,0,0-.45,3.81,4.91,4.91,0,0,0,.79,2.69c.24.58.88.79,1.9.63a18.26,18.26,0,0,1,2.29-.11V23H16.52a7.11,7.11,0,0,1-2.06-.22,1.18,1.18,0,0,0-1.08,0,.94.94,0,0,0-.31.81,1.17,1.17,0,0,0,.41.88,1,1,0,0,0,.82.12,4.75,4.75,0,0,0,.89-.11h4.08v7.11a.55.55,0,0,0,.56.41h.06a.84.84,0,0,0,.39-.51,15.07,15.07,0,0,0,.34-4v-3c1.19,0,2.38,0,3.53.11s1.71-.17,1.87-.5A.58.58,0,0,0,26.14,23.51ZM19.27,17.4v2.29a3.27,3.27,0,0,0-.65.11H18c-1.33.07-2-.26-2.08-1v0a2.77,2.77,0,0,1-.21-1A32,32,0,0,1,19.27,17.4Zm-1.41-5.82c-.05-.13-.07-.22-.09-.28h4.14a6.34,6.34,0,0,0-.09,1,.82.82,0,0,1-.77.77,9.15,9.15,0,0,1-2,0c-.76-.07-1.15-.36-1.22-.87v-.59Zm2.77,8.11c0-.8,0-1.57.1-2.3.22,0,.54.05,1,.11.82.07,1.48.14,2,.2a4.63,4.63,0,0,1-.1,1.19v0c-.07.6-.34.89-.86.89C22,19.73,21.26,19.69,20.63,19.69Z"/></g></g></svg>