<svg id="图层_1" data-name="图层 1" xmlns="http://www.w3.org/2000/svg" viewBox="0 0 38.04 32.95"><defs><style>.cls-1{fill:#edc168;}.cls-2{isolation:isolate;}.cls-3{fill:#3b303f;}</style></defs><g id="图层_2" data-name="图层 2"><g id="图层_1-2" data-name="图层 1-2"><polygon class="cls-1" points="28.53 0 9.51 0 0 16.47 9.51 32.95 28.53 32.95 38.04 16.47 28.53 0"/><g class="cls-2"><path class="cls-3" d="M20.43,5q.9,1.35,1.38,2l1.9,2.55c.58.81,1,1.35,1.21,1.62a4.33,4.33,0,0,1,.45.65.82.82,0,0,1,.11.42.54.54,0,0,1-.12.27.36.36,0,0,1-.32.13c-.34,0-.87-.55-1.59-1.66L21.79,8.7,19.93,6,19,4.83c-.37.56-.7,1.08-1,1.56l-.63,1L16.23,8.94l-1.31,1.79a16.56,16.56,0,0,1-1.49,1.84,1.35,1.35,0,0,1-.6.24c-.25,0-.34-.16-.28-.57a2.34,2.34,0,0,1,.51-1L14.83,9l1-1.29q.16-.23.78-1.14c.41-.61.77-1.11,1.07-1.51a10.9,10.9,0,0,0,.66-1,2.22,2.22,0,0,1,.38-.51.59.59,0,0,1,.36-.16c.13,0,.3.14.51.44Zm-.79,14c0,.5,0,1.32,0,2.46s0,1.75,0,1.84l.06,1.78c1.37,0,2.52,0,3.47.06a8.61,8.61,0,0,1,1.64.15.42.42,0,0,1,.27.28.36.36,0,0,1-.13.36.77.77,0,0,1-.4.18,2.78,2.78,0,0,1-.72,0c-.33,0-.92,0-1.76-.05L18.23,26c-.64,0-1.46,0-2.49.06s-1.65.07-1.88.1a.73.73,0,0,1-.5-.07.44.44,0,0,1-.19-.31.43.43,0,0,1,.13-.4,1.28,1.28,0,0,1,.36-.2,2.84,2.84,0,0,1,1.11-.1c.54,0,1.85,0,3.95-.06V22c0-2.11,0-3.34,0-3.67l-.05-1.37,0-.62c-.57,0-1,.05-1.27.05l-1.11,0-1.13.05a.93.93,0,0,1-.65-.11.59.59,0,0,1-.17-.38.35.35,0,0,1,.21-.37,1,1,0,0,1,.44-.13l1.4,0,1.49,0,.82,0c0-.66-.05-1.23,0-1.7A2,2,0,0,1,19,12.42c.27-.34.91-.51,1.91-.5s1.63.14,1.64.35a.63.63,0,0,1-.1.43.5.5,0,0,1-.27.14,7.52,7.52,0,0,1-1.08,0A1.9,1.9,0,0,0,19.9,13a.76.76,0,0,0-.31.45,4.8,4.8,0,0,0,0,.78l0,.59,0,.52,2,0a6.35,6.35,0,0,1,1.68.16c.2.09.31.21.31.35a.41.41,0,0,1-.22.37,1,1,0,0,1-.55.14L21,16.35H19.59C19.62,17.62,19.63,18.5,19.64,19ZM15.2,23.23l.35-1a13.35,13.35,0,0,0,.31-1.35,6,6,0,0,0,.06-1.48A3.57,3.57,0,0,1,16,18.25c.08-.22.2-.33.37-.33a.39.39,0,0,1,.32.23,2.11,2.11,0,0,1,.15.8,9,9,0,0,1,0,1.34,14.1,14.1,0,0,1-.25,1.7,6,6,0,0,1-.48,1.38c-.23.49-.43.65-.59.5s-.27-.28-.28-.36A.7.7,0,0,1,15.2,23.23ZM21,10.41a18.1,18.1,0,0,0-3.19.11,1.89,1.89,0,0,1-1.2,0c-.28-.13-.41-.28-.4-.45a.55.55,0,0,1,.16-.3,1.13,1.13,0,0,1,.6-.24q.43-.07,2.37-.12c.7,0,1.24,0,1.64,0s.63.11.71.24a.47.47,0,0,1,.08.38.5.5,0,0,1-.26.28A.92.92,0,0,1,21,10.41Zm.7,9.42q0-.22,0-.93A2.31,2.31,0,0,1,21.8,18a.41.41,0,0,1,.33-.19c.15,0,.27.07.38.25a2.44,2.44,0,0,1,0,.8,7.67,7.67,0,0,0,0,1.27,7.24,7.24,0,0,0,.13,1A5.05,5.05,0,0,0,23,22.31a1.41,1.41,0,0,1,.19.91c-.05.23-.15.35-.31.37a.54.54,0,0,1-.44-.26,2.42,2.42,0,0,1-.33-.73,9.15,9.15,0,0,1-.32-1.23A8.74,8.74,0,0,1,21.68,19.83Z"/></g></g></g></svg>