<svg xmlns="http://www.w3.org/2000/svg" viewBox="0 0 108.03 26.21"><defs><style>.cls-1{fill:#c42c2c;}.cls-2{fill:none;stroke:#f2f7d9;stroke-miterlimit:10;stroke-width:0.82px;}.cls-3{fill:#fff9f0;}</style></defs><title>label_舞生装束</title><g id="图层_2" data-name="图层 2"><g id="图层_1-2" data-name="图层 1"><rect class="cls-1" width="108.03" height="26.21" rx="7.41"/><rect class="cls-2" x="4.65" y="2.78" width="99.29" height="20.26" rx="4.42"/><path class="cls-3" d="M24,9a4.84,4.84,0,0,1,3.46,1,3.44,3.44,0,0,1,1.05,2.6,3.82,3.82,0,0,1-1.5,3.17,5.56,5.56,0,0,1-3.44,1H20.48v-.4c.95-.08,1-.18,1-1.17V10.6c0-1-.14-1.1-1-1.18V9ZM23,15.15c0,.87.27,1.14,1.16,1.14,1.81,0,2.8-1.25,2.8-3.46a3.39,3.39,0,0,0-1.05-2.73,2.9,2.9,0,0,0-2-.6,1.28,1.28,0,0,0-.8.17c-.11.09-.14.27-.14.66Z"/><path class="cls-3" d="M33.46,17a1,1,0,0,1-1-.72,4.44,4.44,0,0,1-1.33.72,1.54,1.54,0,0,1-1.58-1.52c0-.62.3-.95.95-1.19a9.72,9.72,0,0,0,1.92-.79V13c0-.71-.3-1.1-.86-1.1a.62.62,0,0,0-.51.25,2.33,2.33,0,0,0-.3.79.43.43,0,0,1-.45.36.68.68,0,0,1-.65-.59c0-.2.15-.35.41-.54a5.71,5.71,0,0,1,1.85-.84,2,2,0,0,1,1.16.33,1.64,1.64,0,0,1,.64,1.45v2.16c0,.57.2.72.4.72a.82.82,0,0,0,.39-.11l.13.38Zm-1-3-.83.42c-.4.19-.64.41-.64.84a.83.83,0,0,0,.78.91,1,1,0,0,0,.69-.27Z"/><path class="cls-3" d="M38.54,16.81v-.38c.57-.07.62-.13.62-.95v-2c0-.85-.38-1.22-.93-1.22a1.68,1.68,0,0,0-1,.46v2.86c0,.77.06.81.63.88v.38H35.09v-.38c.68-.1.76-.12.76-.91V13c0-.74-.1-.78-.67-.89v-.36a9.72,9.72,0,0,0,2-.46c0,.2,0,.61,0,.89.24-.17.5-.35.79-.53a1.74,1.74,0,0,1,1-.32c1,0,1.58.7,1.58,1.91v2.27c0,.77.07.8.69.88v.38Z"/><path class="cls-3" d="M46.55,15.68A2.79,2.79,0,0,1,44.47,17a2.5,2.5,0,0,1-2.55-2.56,2.85,2.85,0,0,1,1.22-2.31,3.35,3.35,0,0,1,2-.72,1.81,1.81,0,0,1,1.08.3.44.44,0,0,1,.21.41.69.69,0,0,1-.5.62.37.37,0,0,1-.25-.13A2,2,0,0,0,44.44,12c-.58,0-1.19.53-1.19,1.81A1.93,1.93,0,0,0,45,16a1.8,1.8,0,0,0,1.34-.56Z"/><path class="cls-3" d="M51.7,15.69A2.74,2.74,0,0,1,49.58,17a2.43,2.43,0,0,1-2.46-2.6A3.1,3.1,0,0,1,48,12.22a2.61,2.61,0,0,1,1.85-.85,1.93,1.93,0,0,1,1.92,1.92c0,.21,0,.38-.18.42s-1.87.15-3.13.2c0,1.39.83,2,1.69,2a2.05,2.05,0,0,0,1.37-.56Zm-2.14-3.85c-.51,0-1,.55-1.07,1.51l1.67,0c.18,0,.25,0,.25-.24C50.42,12.46,50.1,11.84,49.56,11.84Z"/><path class="cls-3" d="M55.49,16.81h-3v-.38c.68-.07.74-.13.74-.87V13c0-.67,0-.72-.65-.83v-.34a10.08,10.08,0,0,0,2-.47v1.3c.5-.76,1-1.27,1.49-1.27a.69.69,0,0,1,.75.66,1.06,1.06,0,0,1-.54.9.29.29,0,0,1-.35,0c-.2-.17-.35-.34-.56-.34s-.55.23-.79.74v2.27c0,.75.08.79,1,.88Z"/><path class="cls-3" d="M63.59,9a4.84,4.84,0,0,1,3.46,1,3.44,3.44,0,0,1,1,2.6,3.83,3.83,0,0,1-1.49,3.17,5.62,5.62,0,0,1-3.45,1H60v-.4c.95-.08,1-.18,1-1.17V10.6c0-1-.13-1.1-1-1.18V9Zm-1.07,6.13c0,.87.27,1.14,1.16,1.14,1.81,0,2.8-1.25,2.8-3.46a3.39,3.39,0,0,0-1-2.73,2.9,2.9,0,0,0-2-.6,1.28,1.28,0,0,0-.8.17c-.11.09-.14.27-.14.66Z"/><path class="cls-3" d="M72.11,16.81h-3v-.38c.68-.07.74-.13.74-.87V13c0-.67,0-.72-.65-.83v-.34a10.08,10.08,0,0,0,2-.47v1.3c.5-.76,1-1.27,1.49-1.27a.69.69,0,0,1,.75.66,1.06,1.06,0,0,1-.54.9.31.31,0,0,1-.36,0c-.19-.17-.34-.34-.55-.34s-.56.23-.79.74v2.27c0,.75.08.79,1,.88Z"/><path class="cls-3" d="M78.4,15.69A2.74,2.74,0,0,1,76.28,17a2.43,2.43,0,0,1-2.46-2.6,3.1,3.1,0,0,1,.85-2.14,2.61,2.61,0,0,1,1.84-.85,1.93,1.93,0,0,1,1.93,1.92c0,.21,0,.38-.18.42s-1.87.15-3.13.2c0,1.39.83,2,1.69,2a2.07,2.07,0,0,0,1.37-.56Zm-2.14-3.85c-.51,0-1,.55-1.07,1.51l1.66,0c.19,0,.26,0,.26-.24C77.12,12.46,76.8,11.84,76.26,11.84Z"/><path class="cls-3" d="M82.45,13c-.28-.79-.65-1.2-1.28-1.2a.65.65,0,0,0-.67.68c0,.45.32.69,1,1,1,.45,1.6.84,1.6,1.73A1.9,1.9,0,0,1,81,17a3.77,3.77,0,0,1-1.49-.35c-.06-.3-.16-1.07-.2-1.49l.38-.06c.23.76.7,1.43,1.5,1.43a.67.67,0,0,0,.74-.69c0-.43-.23-.7-.94-1.05S79.41,14,79.41,13s.76-1.64,2-1.64a5.74,5.74,0,0,1,1.25.17c0,.31.14,1.07.19,1.38Z"/><path class="cls-3" d="M87.08,13c-.28-.79-.65-1.2-1.27-1.2a.66.66,0,0,0-.68.68c0,.45.32.69,1,1,1,.45,1.6.84,1.6,1.73A1.9,1.9,0,0,1,85.59,17a3.77,3.77,0,0,1-1.49-.35c0-.3-.16-1.07-.2-1.49l.38-.06c.24.76.7,1.43,1.5,1.43a.67.67,0,0,0,.74-.69c0-.43-.23-.7-.93-1.05S84,14,84,13s.77-1.64,2-1.64a5.72,5.72,0,0,1,1.24.17c0,.31.14,1.07.19,1.38Z"/></g></g></svg>