<svg xmlns="http://www.w3.org/2000/svg" xmlns:xlink="http://www.w3.org/1999/xlink" viewBox="0 0 610.46 288.62"><defs><style>.cls-1,.cls-2{fill:none;}.cls-1{clip-rule:evenodd;}.cls-10,.cls-3{fill:#050606;}.cls-4{fill:#b23132;}.cls-5{fill:#d25753;}.cls-41,.cls-6{fill:#bc3939;}.cls-7{fill:#f9d4ac;}.cls-22,.cls-8{fill:#434244;}.cls-9{fill:#2c2c2c;}.cls-10,.cls-18,.cls-20,.cls-22,.cls-41,.cls-43,.cls-44,.cls-55,.cls-9{fill-rule:evenodd;}.cls-11,.cls-44{fill:#ed6f70;}.cls-12{fill:#dd5e5f;}.cls-13{fill:#f59c9e;}.cls-14{fill:#f7c694;}.cls-15{fill:#df9f6a;}.cls-16,.cls-20{fill:#8f9093;}.cls-17{clip-path:url(#clip-path);}.cls-18,.cls-27{fill:#2e2d2f;}.cls-19{fill:#28282a;}.cls-21{fill:#82d6c6;}.cls-23{fill:#606163;}.cls-24{fill:#4f4f51;}.cls-25{clip-path:url(#clip-path-2);}.cls-26{clip-path:url(#clip-path-3);}.cls-28{fill:#dd9a64;}.cls-29{fill:#e8ad74;}.cls-30{fill:#ffe5ce;}.cls-31{clip-path:url(#clip-path-4);}.cls-32{clip-path:url(#clip-path-5);}.cls-33{fill:#b53a5a;}.cls-34{fill:#c4c6b8;}.cls-35{fill:#2da8ad;}.cls-36{fill:url(#linear-gradient);}.cls-37{fill:#0d6499;}.cls-38{fill:#ffd244;}.cls-39{fill:#d5c288;}.cls-40{fill:#03aae0;}.cls-42{fill:#f49091;}.cls-43{fill:#f7ca9c;}.cls-45{fill:#e25e5d;}.cls-46{fill:#fde4d1;}.cls-47{fill:#fff;}.cls-48{fill:#8bb8c4;}.cls-49{fill:#b7e2e9;}.cls-50{fill:#f0bd89;}.cls-51{fill:#a82626;}.cls-52{fill:#de5959;}.cls-53{fill:#e4a973;}.cls-54{fill:#ebbd8c;}.cls-55{fill:#373737;}.cls-56{opacity:0.55;}.cls-57{clip-path:url(#clip-path-6);}.cls-58{fill:#f8ac76;}.cls-59{clip-path:url(#clip-path-7);}.cls-60{clip-path:url(#clip-path-8);}.cls-61{clip-path:url(#clip-path-9);}.cls-62{fill:url(#linear-gradient-2);}.cls-63{fill:url(#linear-gradient-3);}</style><clipPath id="clip-path"><path class="cls-1" d="M304.59,98,33.64,67.45s44.84,50.9,65.44,67.78a9,9,0,0,0,9.3,1.23l1-.45,6.09,4.82V124.2a1.69,1.69,0,0,1,1.69-1.69H492a1.69,1.69,0,0,1,1.69,1.69v16.63l6.09-4.82,1,.45a8.94,8.94,0,0,0,9.3-1.23c20.6-16.88,65.45-67.79,65.45-67.79Z"/></clipPath><clipPath id="clip-path-2"><path class="cls-2" d="M41.39,59C29.13,56.94,17.46,31.37,17.46,31.37,14.8,52.65,33.94,67.54,33.94,67.54"/></clipPath><clipPath id="clip-path-3"><path class="cls-2" d="M599.79,164.51H10.69s39.56,33.1,72.56,48.62l-.06,3.09a3.21,3.21,0,0,0,1.69,2.88l7.71,4.1V212.7a1.88,1.88,0,0,1,1.88-1.88H516a1.88,1.88,0,0,1,1.88,1.88v10.5l7.71-4.1a3.21,3.21,0,0,0,1.69-2.88l-.06-3.09C560.23,197.61,599.79,164.51,599.79,164.51Z"/></clipPath><clipPath id="clip-path-4"><path class="cls-2" d="M610.46,158.07l-12.81-4.45s-59.69,7.66-98.8,0c0,0-93.27,6.38-193.07,5.41v.06c-98.94.85-190.8-5.42-190.8-5.42-39.11,7.63-103.75-.84-103.75-.84L0,158.8l12,7.25c38.52,17.52,296.06,20.43,296.06,20.43v-.08c25.57-.49,258.68-5.37,295.09-21.93Z"/></clipPath><clipPath id="clip-path-5"><path class="cls-2" d="M567.59,59.56c12.25-2.08,23.93-27.65,23.93-27.65C594.18,53.18,575,68.07,575,68.07"/></clipPath><linearGradient id="linear-gradient" x1="307.3" y1="12.88" x2="313.97" y2="12.88" gradientUnits="userSpaceOnUse"><stop offset="0" stop-color="#ca5649"/><stop offset="1" stop-color="#fa6d62"/></linearGradient><clipPath id="clip-path-6"><rect class="cls-2" x="179.12" y="210.58" width="34.57" height="14.36"/></clipPath><clipPath id="clip-path-7"><rect class="cls-2" x="232.83" y="210.58" width="34.57" height="14.36"/></clipPath><clipPath id="clip-path-8"><rect class="cls-2" x="340.24" y="210.58" width="34.57" height="14.36"/></clipPath><clipPath id="clip-path-9"><rect class="cls-2" x="396.08" y="210.58" width="34.57" height="14.36"/></clipPath><linearGradient id="linear-gradient-2" x1="323.17" y1="50.66" x2="323.17" y2="50.66" gradientUnits="userSpaceOnUse"><stop offset="0" stop-color="#3877bd"/><stop offset="1" stop-color="#38537e"/></linearGradient><linearGradient id="linear-gradient-3" x1="322.7" y1="-135.87" x2="322.7" y2="160.9" xlink:href="#linear-gradient-2"/></defs><title>main</title><g id="图层_2" data-name="图层 2"><g id="图层_1-2" data-name="图层 1"><rect class="cls-3" x="92.51" y="210.82" width="425.38" height="2.24"/><rect class="cls-4" x="115.31" y="122.51" width="378.38" height="31.15"/><rect class="cls-5" x="115.31" y="122.51" width="378.38" height="15.88"/><rect class="cls-6" x="115.31" y="122.51" width="378.38" height="8.2"/><rect class="cls-3" x="115.31" y="122.51" width="378.38" height="2.02"/><rect class="cls-7" x="266.63" y="130.72" width="1.25" height="7.67"/><rect class="cls-7" x="263.08" y="130.72" width="1.25" height="7.67"/><rect class="cls-7" x="273.73" y="130.72" width="1.25" height="7.67"/><rect class="cls-7" x="270.18" y="130.72" width="1.25" height="7.67"/><rect class="cls-7" x="280.84" y="130.72" width="1.25" height="7.67"/><rect class="cls-7" x="277.28" y="130.72" width="1.25" height="7.67"/><rect class="cls-7" x="329.13" y="130.67" width="1.25" height="7.67"/><rect class="cls-7" x="325.58" y="130.67" width="1.25" height="7.67"/><rect class="cls-7" x="336.24" y="130.67" width="1.25" height="7.67"/><rect class="cls-7" x="332.68" y="130.67" width="1.25" height="7.67"/><rect class="cls-7" x="343.34" y="130.67" width="1.25" height="7.67"/><rect class="cls-7" x="339.79" y="130.67" width="1.25" height="7.67"/><rect class="cls-3" x="263.7" y="132.05" width="18.91" height="20.66" rx="0.99"/><rect class="cls-8" x="264.85" y="132.05" width="17.76" height="19.86" rx="0.99"/><path class="cls-9" d="M279.29,132.05v.53H265.8c-.52,0-.95.66-.95,1.47v3.33h14.44v14.1h3.08c.14,0,.24-.16.24-.37V133.53c0-.81-.42-1.48-.94-1.48Z"/><rect class="cls-7" x="264.85" y="132.05" width="17.76" height="1.64" rx="0.42"/><rect class="cls-7" x="264.85" y="150.28" width="17.76" height="1.64" rx="0.42"/><rect class="cls-7" x="274.6" y="141.46" width="14.98" height="1.05" rx="0.42" transform="translate(424.08 -140.1) rotate(90)"/><rect class="cls-7" x="257.89" y="141.57" width="14.98" height="1.05" rx="0.42" transform="translate(407.48 -123.28) rotate(90)"/><rect class="cls-7" x="357.75" y="130.69" width="1.25" height="7.67"/><rect class="cls-7" x="364.86" y="130.69" width="1.25" height="7.67"/><rect class="cls-7" x="361.3" y="130.69" width="1.25" height="7.67"/><rect class="cls-7" x="371.96" y="130.69" width="1.25" height="7.67"/><rect class="cls-7" x="368.41" y="130.69" width="1.25" height="7.67"/><rect class="cls-7" x="420.26" y="130.64" width="1.25" height="7.67"/><rect class="cls-7" x="416.7" y="130.64" width="1.25" height="7.67"/><rect class="cls-7" x="427.36" y="130.64" width="1.25" height="7.67"/><rect class="cls-7" x="423.81" y="130.64" width="1.25" height="7.67"/><rect class="cls-7" x="430.91" y="130.64" width="1.25" height="7.67"/><rect class="cls-7" x="445.31" y="130.72" width="1.25" height="7.62"/><rect class="cls-7" x="452.41" y="130.72" width="1.25" height="7.62"/><rect class="cls-7" x="448.86" y="130.72" width="1.25" height="7.62"/><rect class="cls-7" x="478.03" y="130.67" width="1.25" height="7.62"/><rect class="cls-7" x="474.48" y="130.67" width="1.25" height="7.62"/><rect class="cls-7" x="481.58" y="130.67" width="1.25" height="7.62"/><rect class="cls-7" x="250.49" y="130.77" width="1.25" height="7.67" transform="translate(502.24 269.22) rotate(180)"/><rect class="cls-7" x="243.39" y="130.77" width="1.25" height="7.67" transform="translate(488.03 269.22) rotate(180)"/><rect class="cls-7" x="246.94" y="130.77" width="1.25" height="7.67" transform="translate(495.13 269.22) rotate(180)"/><rect class="cls-7" x="236.28" y="130.77" width="1.25" height="7.67" transform="translate(473.82 269.22) rotate(180)"/><rect class="cls-7" x="239.84" y="130.77" width="1.25" height="7.67" transform="translate(480.93 269.22) rotate(180)"/><rect class="cls-7" x="187.99" y="130.72" width="1.25" height="7.67" transform="translate(377.23 269.11) rotate(180)"/><rect class="cls-7" x="191.54" y="130.72" width="1.25" height="7.67" transform="translate(384.33 269.11) rotate(180)"/><rect class="cls-7" x="180.88" y="130.72" width="1.25" height="7.67" transform="translate(363.02 269.11) rotate(180)"/><rect class="cls-7" x="184.44" y="130.72" width="1.25" height="7.67" transform="translate(370.13 269.11) rotate(180)"/><rect class="cls-7" x="177.33" y="130.72" width="1.25" height="7.67" transform="translate(355.92 269.11) rotate(180)"/><rect class="cls-7" x="162.41" y="130.67" width="1.25" height="7.67" transform="translate(326.07 269) rotate(180)"/><rect class="cls-7" x="155.3" y="130.67" width="1.25" height="7.67" transform="translate(311.86 269) rotate(180)"/><rect class="cls-7" x="158.85" y="130.67" width="1.25" height="7.67" transform="translate(318.96 269) rotate(180)"/><rect class="cls-7" x="129.68" y="130.72" width="1.25" height="7.67" transform="translate(260.62 269.11) rotate(180)"/><rect class="cls-7" x="133.23" y="130.72" width="1.25" height="7.67" transform="translate(267.72 269.11) rotate(180)"/><rect class="cls-7" x="126.13" y="130.72" width="1.25" height="7.67" transform="translate(253.52 269.11) rotate(180)"/><rect class="cls-3" x="284.7" y="132.05" width="18.91" height="20.66" rx="0.99"/><rect class="cls-8" x="285.84" y="132.05" width="17.76" height="19.86" rx="0.99"/><path class="cls-9" d="M300.28,132.05v.53H286.79c-.52,0-1,.66-1,1.47v3.33h14.44v14.1h3.09c.13,0,.23-.16.23-.37V133.53c0-.81-.43-1.48-.95-1.48Z"/><rect class="cls-7" x="285.84" y="132.05" width="17.76" height="1.64" rx="0.42"/><rect class="cls-7" x="285.84" y="150.28" width="17.76" height="1.64" rx="0.42"/><rect class="cls-7" x="295.59" y="141.46" width="14.98" height="1.05" rx="0.42" transform="translate(445.07 -161.1) rotate(90)"/><rect class="cls-7" x="278.88" y="141.57" width="14.98" height="1.05" rx="0.42" transform="translate(428.47 -144.27) rotate(90)"/><rect class="cls-3" x="305.81" y="131.88" width="18.91" height="20.66" rx="0.99"/><rect class="cls-8" x="306.96" y="131.88" width="17.76" height="19.86" rx="0.99"/><path class="cls-9" d="M321.4,131.88v.52H307.91c-.52,0-1,.66-1,1.48v3.33H321.4v14.1h3.08c.14,0,.24-.17.24-.37V133.36c0-.82-.42-1.48-.94-1.48Z"/><rect class="cls-7" x="306.96" y="131.88" width="17.76" height="1.64" rx="0.42"/><rect class="cls-7" x="306.96" y="150.11" width="17.76" height="1.64" rx="0.42"/><rect class="cls-7" x="316.71" y="141.29" width="14.98" height="1.05" rx="0.42" transform="translate(466.01 -182.39) rotate(90)"/><rect class="cls-7" x="300" y="141.4" width="14.98" height="1.05" rx="0.42" transform="translate(449.41 -165.57) rotate(90)"/><rect class="cls-3" x="326.81" y="131.88" width="18.91" height="20.66" rx="0.99"/><rect class="cls-8" x="327.95" y="131.88" width="17.76" height="19.86" rx="0.99"/><path class="cls-9" d="M342.4,131.88v.52H328.9c-.52,0-.95.66-.95,1.48v3.33H342.4v14.1h3.09c.13,0,.23-.17.23-.37V133.36c0-.82-.43-1.48-1-1.48Z"/><rect class="cls-7" x="327.95" y="131.88" width="17.76" height="1.64" rx="0.42"/><rect class="cls-7" x="327.95" y="150.11" width="17.76" height="1.64" rx="0.42"/><rect class="cls-7" x="337.7" y="141.29" width="14.98" height="1.05" rx="0.42" transform="translate(487 -203.38) rotate(90)"/><rect class="cls-7" x="320.99" y="141.4" width="14.98" height="1.05" rx="0.42" transform="translate(470.4 -186.56) rotate(90)"/><rect class="cls-3" x="357.75" y="132.05" width="16.96" height="20.08" rx="1.03"/><rect class="cls-8" x="358.78" y="132.05" width="15.93" height="19.3" rx="1.03"/><path class="cls-9" d="M371.74,132.05v.51H359.63c-.47,0-.85.64-.85,1.43v3.24h13v13.7h2.76c.12,0,.22-.16.22-.36V133.49c0-.8-.38-1.44-.85-1.44Z"/><rect class="cls-7" x="358.78" y="132.05" width="15.93" height="1.59" rx="0.4"/><rect class="cls-7" x="358.78" y="149.76" width="15.93" height="1.59" rx="0.4"/><rect class="cls-7" x="366.97" y="141.23" width="14.56" height="0.94" rx="0.4" transform="translate(515.95 -232.55) rotate(90)"/><rect class="cls-7" x="351.98" y="141.34" width="14.56" height="0.94" rx="0.4" transform="translate(501.06 -217.44) rotate(90)"/><rect class="cls-3" x="376.59" y="132.05" width="16.96" height="20.08" rx="1.03"/><rect class="cls-8" x="377.62" y="132.05" width="15.93" height="19.3" rx="1.03"/><path class="cls-9" d="M390.57,132.05v.51h-12.1c-.47,0-.85.64-.85,1.43v3.24h12.95v13.7h2.77c.11,0,.21-.16.21-.36V133.49c0-.8-.38-1.44-.85-1.44Z"/><rect class="cls-7" x="377.62" y="132.05" width="15.93" height="1.59" rx="0.4"/><rect class="cls-7" x="377.62" y="149.76" width="15.93" height="1.59" rx="0.4"/><rect class="cls-7" x="385.8" y="141.23" width="14.56" height="0.94" rx="0.4" transform="translate(534.78 -251.38) rotate(90)"/><rect class="cls-7" x="370.81" y="141.34" width="14.56" height="0.94" rx="0.4" transform="translate(519.9 -236.28) rotate(90)"/><rect class="cls-3" x="395.53" y="131.88" width="16.96" height="20.08" rx="1.03"/><rect class="cls-8" x="396.56" y="131.88" width="15.93" height="19.3" rx="1.03"/><path class="cls-9" d="M409.52,131.88v.51H397.41c-.47,0-.85.64-.85,1.43v3.24h13v13.7h2.76c.12,0,.22-.16.22-.36V133.32c0-.8-.38-1.44-.85-1.44Z"/><rect class="cls-7" x="396.56" y="131.88" width="15.93" height="1.59" rx="0.4"/><rect class="cls-7" x="396.56" y="149.59" width="15.93" height="1.59" rx="0.4"/><rect class="cls-7" x="404.75" y="141.06" width="14.56" height="0.94" rx="0.4" transform="translate(553.56 -270.5) rotate(90)"/><rect class="cls-7" x="389.76" y="141.17" width="14.56" height="0.94" rx="0.4" transform="translate(538.68 -255.39) rotate(90)"/><rect class="cls-3" x="414.37" y="131.88" width="16.96" height="20.08" rx="1.03"/><rect class="cls-8" x="415.4" y="131.88" width="15.93" height="19.3" rx="1.03"/><path class="cls-9" d="M428.35,131.88v.51h-12.1c-.47,0-.85.64-.85,1.43v3.24h13v13.7h2.77c.11,0,.21-.16.21-.36V133.32c0-.8-.38-1.44-.85-1.44Z"/><rect class="cls-7" x="415.4" y="131.88" width="15.93" height="1.59" rx="0.4"/><rect class="cls-7" x="415.4" y="149.59" width="15.93" height="1.59" rx="0.4"/><rect class="cls-7" x="423.58" y="141.06" width="14.56" height="0.94" rx="0.4" transform="translate(572.39 -289.33) rotate(90)"/><rect class="cls-7" x="408.59" y="141.17" width="14.56" height="0.94" rx="0.4" transform="translate(557.51 -274.23) rotate(90)"/><rect class="cls-3" x="445.93" y="131.88" width="16.96" height="20.15" rx="1.03"/><rect class="cls-8" x="446.96" y="131.88" width="15.93" height="19.37" rx="1.03"/><path class="cls-9" d="M459.92,131.88v.51H447.81c-.47,0-.85.64-.85,1.44v3.25h13v13.75h2.76c.12,0,.22-.16.22-.36V133.32c0-.79-.38-1.44-.85-1.44Z"/><rect class="cls-7" x="446.96" y="131.88" width="15.93" height="1.59" rx="0.4"/><rect class="cls-7" x="446.96" y="149.66" width="15.93" height="1.59" rx="0.4"/><rect class="cls-7" x="455.12" y="141.09" width="14.61" height="0.94" rx="0.4" transform="translate(603.99 -320.86) rotate(90)"/><rect class="cls-7" x="440.13" y="141.2" width="14.61" height="0.94" rx="0.4" transform="translate(589.11 -305.76) rotate(90)"/><rect class="cls-3" x="464.77" y="131.88" width="16.96" height="20.15" rx="1.03"/><rect class="cls-8" x="465.8" y="131.88" width="15.93" height="19.37" rx="1.03"/><path class="cls-9" d="M478.75,131.88v.51h-12.1c-.47,0-.85.64-.85,1.44v3.25h12.95v13.75h2.77c.11,0,.21-.16.21-.36V133.32c0-.79-.38-1.44-.85-1.44Z"/><rect class="cls-7" x="465.8" y="131.88" width="15.93" height="1.59" rx="0.4"/><rect class="cls-7" x="465.8" y="149.66" width="15.93" height="1.59" rx="0.4"/><rect class="cls-7" x="473.96" y="141.09" width="14.61" height="0.94" rx="0.4" transform="translate(622.83 -339.7) rotate(90)"/><rect class="cls-7" x="458.96" y="141.2" width="14.61" height="0.94" rx="0.4" transform="translate(607.94 -324.59) rotate(90)"/><rect class="cls-3" x="177.32" y="132.05" width="16.96" height="20.11" rx="1.03"/><rect class="cls-8" x="178.35" y="132.05" width="15.93" height="19.33" rx="1.03"/><path class="cls-9" d="M191.31,132.05v.51H179.2c-.47,0-.85.64-.85,1.43v3.25h13V151h2.77c.12,0,.21-.17.21-.37v-17.1c0-.8-.39-1.44-.86-1.44Z"/><rect class="cls-7" x="178.35" y="132.05" width="15.93" height="1.59" rx="0.4"/><rect class="cls-7" x="178.35" y="149.79" width="15.93" height="1.59" rx="0.4"/><rect class="cls-7" x="186.53" y="141.24" width="14.57" height="0.94" rx="0.4" transform="translate(335.53 -52.1) rotate(90)"/><rect class="cls-7" x="171.53" y="141.35" width="14.57" height="0.94" rx="0.4" transform="translate(320.64 -37) rotate(90)"/><rect class="cls-3" x="196.15" y="132.05" width="16.96" height="20.11" rx="1.03"/><rect class="cls-8" x="197.18" y="132.05" width="15.93" height="19.33" rx="1.03"/><path class="cls-9" d="M210.14,132.05v.51H198c-.47,0-.85.64-.85,1.43v3.25h13V151h2.76c.12,0,.22-.17.22-.37v-17.1c0-.8-.38-1.44-.85-1.44Z"/><rect class="cls-7" x="197.18" y="132.05" width="15.93" height="1.59" rx="0.4"/><rect class="cls-7" x="197.18" y="149.79" width="15.93" height="1.59" rx="0.4"/><rect class="cls-7" x="205.36" y="141.24" width="14.57" height="0.94" rx="0.4" transform="translate(354.36 -70.93) rotate(90)"/><rect class="cls-7" x="190.37" y="141.35" width="14.57" height="0.94" rx="0.4" transform="translate(339.48 -55.83) rotate(90)"/><rect class="cls-3" x="215.1" y="131.88" width="16.96" height="20.11" rx="1.03"/><rect class="cls-8" x="216.13" y="131.88" width="15.93" height="19.33" rx="1.03"/><path class="cls-9" d="M229.09,131.88v.51H217c-.47,0-.85.64-.85,1.43v3.25h13v13.72h2.77c.12,0,.21-.17.21-.37v-17.1c0-.8-.38-1.44-.85-1.44Z"/><rect class="cls-7" x="216.13" y="131.88" width="15.93" height="1.59" rx="0.4"/><rect class="cls-7" x="216.13" y="149.62" width="15.93" height="1.59" rx="0.4"/><rect class="cls-7" x="224.31" y="141.07" width="14.57" height="0.94" rx="0.4" transform="translate(373.14 -90.05) rotate(90)"/><rect class="cls-7" x="209.31" y="141.18" width="14.57" height="0.94" rx="0.4" transform="translate(358.25 -74.95) rotate(90)"/><rect class="cls-3" x="233.93" y="131.88" width="16.96" height="20.11" rx="1.03"/><rect class="cls-8" x="234.96" y="131.88" width="15.93" height="19.33" rx="1.03"/><path class="cls-9" d="M247.92,131.88v.51H235.81c-.47,0-.85.64-.85,1.43v3.25h13v13.72h2.76c.12,0,.22-.17.22-.37v-17.1c0-.8-.38-1.44-.85-1.44Z"/><rect class="cls-7" x="234.96" y="131.88" width="15.93" height="1.59" rx="0.4"/><rect class="cls-7" x="234.96" y="149.62" width="15.93" height="1.59" rx="0.4"/><rect class="cls-7" x="243.14" y="141.07" width="14.57" height="0.94" rx="0.4" transform="translate(391.97 -108.88) rotate(90)"/><rect class="cls-7" x="228.15" y="141.18" width="14.57" height="0.94" rx="0.4" transform="translate(377.09 -93.78) rotate(90)"/><rect class="cls-3" x="126.13" y="131.88" width="16.96" height="20.17" rx="1.03"/><rect class="cls-8" x="127.16" y="131.88" width="15.93" height="19.39" rx="1.03"/><path class="cls-9" d="M140.12,131.88v.51H128c-.47,0-.85.64-.85,1.44v3.25h13v13.77h2.76c.12,0,.21-.16.21-.36V133.32c0-.79-.38-1.44-.85-1.44Z"/><rect class="cls-7" x="127.16" y="131.88" width="15.93" height="1.6" rx="0.4"/><rect class="cls-7" x="127.16" y="149.68" width="15.93" height="1.6" rx="0.4"/><rect class="cls-7" x="135.31" y="141.11" width="14.63" height="0.94" rx="0.4" transform="translate(284.2 -1.05) rotate(90)"/><rect class="cls-7" x="120.32" y="141.22" width="14.63" height="0.94" rx="0.4" transform="translate(269.32 14.05) rotate(90)"/><rect class="cls-3" x="144.96" y="131.88" width="16.96" height="20.17" rx="1.03"/><rect class="cls-8" x="145.99" y="131.88" width="15.93" height="19.39" rx="1.03"/><path class="cls-9" d="M159,131.88v.51H146.84c-.46,0-.85.64-.85,1.44v3.25h13v13.77h2.76c.12,0,.22-.16.22-.36V133.32c0-.79-.38-1.44-.85-1.44Z"/><rect class="cls-7" x="145.99" y="131.88" width="15.93" height="1.6" rx="0.4"/><rect class="cls-7" x="145.99" y="149.68" width="15.93" height="1.6" rx="0.4"/><rect class="cls-7" x="154.15" y="141.11" width="14.63" height="0.94" rx="0.4" transform="translate(303.04 -19.88) rotate(90)"/><rect class="cls-7" x="139.15" y="141.22" width="14.63" height="0.94" rx="0.4" transform="translate(288.15 -4.78) rotate(90)"/><polygon class="cls-10" points="259.39 138.16 259.39 130.69 257.71 130.69 257.15 138.16 254.03 138.16 254.03 153.66 263.08 153.66 263.08 138.16 259.39 138.16"/><rect class="cls-11" x="254.85" y="138.16" width="8.23" height="15.5"/><rect class="cls-11" x="258.2" y="130.69" width="1.53" height="9.84"/><rect class="cls-12" x="258.2" y="130.69" width="0.41" height="7.37"/><rect class="cls-13" x="259.33" y="130.69" width="0.21" height="7.37"/><rect class="cls-12" x="258.2" y="137.65" width="1.53" height="0.51"/><rect class="cls-12" x="254.88" y="138.16" width="1.2" height="15.5"/><rect class="cls-13" x="261.27" y="138.16" width="1.2" height="15.5"/><polygon class="cls-10" points="352.42 138.19 352.42 130.72 350.74 130.72 350.18 138.19 347.05 138.19 347.05 153.69 356.11 153.69 356.11 138.19 352.42 138.19"/><rect class="cls-11" x="347.88" y="138.19" width="8.23" height="15.5"/><rect class="cls-11" x="351.23" y="130.72" width="1.53" height="9.84"/><rect class="cls-12" x="351.23" y="130.72" width="0.41" height="7.37"/><rect class="cls-13" x="352.36" y="130.72" width="0.21" height="7.37"/><rect class="cls-12" x="351.23" y="137.68" width="1.53" height="0.51"/><rect class="cls-12" x="347.91" y="138.19" width="1.2" height="15.5"/><rect class="cls-13" x="354.29" y="138.19" width="1.2" height="15.5"/><polygon class="cls-10" points="439.5 138.19 439.5 130.72 437.82 130.72 437.26 138.19 434.14 138.19 434.14 153.69 443.19 153.69 443.19 138.19 439.5 138.19"/><rect class="cls-11" x="434.96" y="138.19" width="8.23" height="15.5"/><rect class="cls-11" x="438.31" y="130.72" width="1.53" height="9.84"/><rect class="cls-12" x="438.31" y="130.72" width="0.41" height="7.37"/><rect class="cls-13" x="439.44" y="130.72" width="0.21" height="7.37"/><rect class="cls-12" x="438.31" y="137.68" width="1.53" height="0.51"/><rect class="cls-12" x="435" y="138.19" width="1.2" height="15.5"/><rect class="cls-13" x="441.38" y="138.19" width="1.2" height="15.5"/><polygon class="cls-10" points="490.06 138.14 490.06 130.67 488.39 130.67 487.82 138.14 484.7 138.14 484.7 153.64 493.75 153.64 493.75 138.14 490.06 138.14"/><rect class="cls-11" x="485.52" y="138.14" width="8.23" height="15.5"/><rect class="cls-11" x="488.87" y="130.67" width="1.53" height="9.84"/><rect class="cls-12" x="488.87" y="130.67" width="0.41" height="7.37"/><rect class="cls-13" x="490" y="130.67" width="0.21" height="7.37"/><rect class="cls-12" x="488.87" y="137.63" width="1.53" height="0.51"/><rect class="cls-12" x="485.56" y="138.14" width="1.2" height="15.5"/><rect class="cls-13" x="491.94" y="138.14" width="1.2" height="15.5"/><polygon class="cls-10" points="119.85 138.19 119.85 130.72 118.17 130.72 117.61 138.19 115.93 138.39 115.31 153.69 123.54 153.69 123.54 138.19 119.85 138.19"/><rect class="cls-11" x="115.31" y="138.19" width="8.23" height="15.5"/><rect class="cls-11" x="118.66" y="130.72" width="1.53" height="9.84"/><rect class="cls-12" x="118.66" y="130.72" width="0.41" height="7.37"/><rect class="cls-13" x="119.79" y="130.72" width="0.21" height="7.37"/><rect class="cls-12" x="118.66" y="137.68" width="1.53" height="0.51"/><rect class="cls-12" x="115.34" y="138.19" width="1.2" height="15.5"/><rect class="cls-13" x="121.72" y="138.19" width="1.2" height="15.5"/><polygon class="cls-10" points="170.9 138.14 170.9 130.67 169.22 130.67 168.66 138.14 165.53 138.14 165.53 153.64 174.58 153.64 174.58 138.14 170.9 138.14"/><rect class="cls-11" x="166.35" y="138.14" width="8.23" height="15.5"/><rect class="cls-11" x="169.71" y="130.67" width="1.53" height="9.84"/><rect class="cls-12" x="169.71" y="130.67" width="0.41" height="7.37"/><rect class="cls-13" x="170.84" y="130.67" width="0.21" height="7.37"/><rect class="cls-12" x="169.71" y="137.63" width="1.53" height="0.51"/><rect class="cls-12" x="166.39" y="138.14" width="1.2" height="15.5"/><rect class="cls-13" x="172.77" y="138.14" width="1.2" height="15.5"/><path class="cls-14" d="M305.78,153.85v0H118.15s129.31,23.55,129.35,22.3,51.67-1.76,59.73-3.88c8.53,2.24,59.07,2.69,59.1,3.84s129.34-22.3,129.34-22.3Z"/><path class="cls-15" d="M130.21,153.89H118.15s129.31,23.55,129.35,22.3,51.67-1.76,59.73-3.88c8.53,2.24,59.07,2.69,59.1,3.84s129.34-22.3,129.34-22.3C362.44,159.63,169.8,155,130.21,153.89Z"/><path class="cls-16" d="M561.76,52.1c11.91-2.68,28-20.19,28-20.19a7.51,7.51,0,0,0,1.6-2.66c.53-1.6,0,3.45,0,3.45s-10.75,28.57-29.57,27.71"/><g class="cls-17"><path class="cls-18" d="M304.59,98,33.64,67.45s44.84,50.9,65.44,67.78a9,9,0,0,0,9.3,1.23l1-.45,6.09,4.82V124.2a1.69,1.69,0,0,1,1.69-1.69H492a1.69,1.69,0,0,1,1.69,1.69v16.63l6.09-4.82,1,.45a8.94,8.94,0,0,0,9.3-1.23c20.6-16.88,65.45-67.79,65.45-67.79Z"/><polygon class="cls-19" points="137.67 150.97 147.31 144.01 91.69 67.26 82.05 74.22 137.67 150.97"/><polygon class="cls-19" points="161.2 150.65 171.56 144.82 125 62.28 114.63 68.11 161.2 150.65"/><polygon class="cls-19" points="186.78 149.39 197.5 144.24 156.35 58.89 145.63 64.04 186.78 149.39"/><rect class="cls-19" x="193.83" y="54.45" width="11.89" height="94.74" transform="translate(421.62 134.37) rotate(161.34)"/><rect class="cls-19" x="222.23" y="57.44" width="11.89" height="94.74" transform="translate(475.69 147.14) rotate(165.03)"/><rect class="cls-19" x="248.34" y="50.86" width="11.89" height="94.73" transform="matrix(-0.98, 0.18, -0.18, -0.98, 522, 149.56)"/><rect class="cls-19" x="276" y="57.97" width="11.89" height="94.73" transform="matrix(-0.99, 0.11, -0.11, -0.99, 574.1, 177.69)"/><rect class="cls-19" x="298.53" y="61.75" width="11.89" height="94.73" transform="translate(607.29 222.78) rotate(-179.14)"/><polygon class="cls-19" points="470.26 150.97 460.63 144.01 516.24 67.26 525.88 74.22 470.26 150.97"/><polygon class="cls-19" points="446.73 150.65 436.37 144.82 482.94 62.28 493.3 68.11 446.73 150.65"/><polygon class="cls-19" points="421.15 149.39 410.43 144.24 451.58 58.89 462.3 64.04 421.15 149.39"/><rect class="cls-19" x="402.21" y="54.45" width="11.89" height="94.74" transform="translate(54.02 -125.22) rotate(18.66)"/><rect class="cls-19" x="373.8" y="57.44" width="11.89" height="94.74" transform="translate(39.95 -94.52) rotate(14.97)"/><rect class="cls-19" x="347.7" y="50.86" width="11.89" height="94.73" transform="translate(23.17 -61.46) rotate(10.27)"/><rect class="cls-19" x="320.04" y="57.97" width="11.89" height="94.73" transform="translate(14.21 -36.64) rotate(6.58)"/></g><path class="cls-14" d="M114,57.25a371,371,0,0,0,38-.9l-.39,8.16-104.18-4-2.32-.21V52.44S51,53.15,60.36,54"/><path class="cls-14" d="M104.1,57q3.32.12,6.69.21"/><path class="cls-14" d="M92.73,56.44c2.76.14,5.58.28,8.44.4"/><path class="cls-14" d="M83,55.85l5.89.37"/><path class="cls-14" d="M73.87,55.19l5.44.4"/><path class="cls-14" d="M64,54.36l6,.52"/><path class="cls-14" d="M502.73,57.72a299,299,0,0,1-34-.9l-.58,4.5h95.74l.41-8.41s-5.25.71-13.64,1.58"/><path class="cls-14" d="M511.59,57.42q-3,.13-6,.22"/><path class="cls-14" d="M521.76,56.9q-3.71.23-7.55.41"/><path class="cls-14" d="M530.43,56.31c-1.72.13-3.48.26-5.27.37"/><path class="cls-14" d="M538.62,55.65l-4.87.41"/><path class="cls-14" d="M547.49,54.82c-1.7.17-3.5.35-5.39.52"/><path class="cls-20" d="M459.55,55.68l-16-35S399.13,30.61,305,30.19h0c-95.37.55-138-9.46-138-9.46l-16,35C90,65.05,46.17,51.31,46.17,51.31V60l37.6,20.75h443L564.34,60V51.31S520.47,65.05,459.55,55.68Z"/><path class="cls-21" d="M445.42,24.83s-124.89,19.71-274.18,0c0,0,114,24,275.55,3Z"/><path class="cls-21" d="M446.79,27.82l13.13,28.93s58.91,10.69,104.42-5.44c0,0-30.3,16.94-106.9,7.56l-14-30.62Z"/><path class="cls-16" d="M47,51.57c-11.91-2.68-28-20.2-28-20.2a7.47,7.47,0,0,1-1.59-2.65c-.53-1.6,0,3.45,0,3.45S28.21,60.74,47,59.88"/><path class="cls-21" d="M46.17,53.9s53.93,12,105.57,3.73l15-32.8-14.16,34.4S99.9,67.44,46.17,55.16Z"/><path class="cls-21" d="M22.78,38.29s10.1,12.23,17,14.89S48.3,55.3,48.3,55.3l-2.13-1.59S35,52.11,22.78,38.29Z"/><path class="cls-10" d="M544,77.77,303.64,93.24v.24l0-.24L63.24,77.77l14.56,8s68.78,19.88,225,21.67v0h1.74v0c156.17-1.79,228-22.24,228-22.24Z"/><path class="cls-22" d="M115.31,122.51s-13.16-7.86-41.1-40.92L33.64,67.45l57.46,63s9.84,10.91,17.28,6l7.12,4.37Z"/><path class="cls-22" d="M493.84,123.84s13.93-9.3,41.87-42.36l39.84-14L553.91,91.38,517.39,130s-9.51,10.63-16.63,7.81l-7.11,4.37Z"/><path class="cls-23" d="M305.62,104.12c21.42-.23,204.44-3.18,270.07-36.67l-5.94-8.35s-73.06,13.35-117,4.17L440.17,35.74s-83.85,8.42-135.83,7.83v0h-1.81c-45.94.32-133.53-7.8-133.53-7.8L156.46,63.27c-44,9.18-116.91-4.57-116.91-4.57l-6.07,8.75c65.63,33.49,248.65,36.44,270.07,36.67v0h2.07Z"/><rect class="cls-7" x="302.49" y="48.21" width="2.71" height="52.03"/><rect class="cls-7" x="308.93" y="48.21" width="1.36" height="52.03"/><rect class="cls-7" x="317.3" y="48.24" width="2.71" height="52.03" transform="translate(-0.96 4.23) rotate(-0.76)"/><rect class="cls-7" x="323.73" y="48.17" width="1.36" height="52.03" transform="translate(-0.95 4.3) rotate(-0.76)"/><rect class="cls-7" x="332.34" y="48.31" width="2.71" height="52.03" transform="translate(-1.7 8.09) rotate(-1.39)"/><rect class="cls-7" x="338.78" y="48.17" width="1.36" height="52.03" transform="translate(-1.69 8.23) rotate(-1.39)"/><rect class="cls-7" x="347.69" y="48.46" width="2.71" height="52.03" transform="translate(-3.95 21.81) rotate(-3.56)"/><rect class="cls-7" x="354.12" y="48.11" width="1.36" height="52.03" transform="translate(-3.92 22.16) rotate(-3.56)"/><rect class="cls-7" x="362.86" y="48.36" width="2.71" height="52.03" transform="translate(-4.67 28.5) rotate(-4.45)"/><rect class="cls-7" x="369.28" y="47.92" width="1.36" height="52.03" transform="translate(-4.62 28.92) rotate(-4.45)"/><rect class="cls-7" x="377.62" y="46.79" width="2.71" height="52.03" transform="matrix(0.99, -0.1, 0.1, 0.99, -5.39, 38.34)"/><rect class="cls-7" x="384.03" y="46.21" width="1.36" height="52.03" transform="translate(-5.3 38.92) rotate(-5.75)"/><rect class="cls-7" x="392.61" y="45.54" width="2.71" height="52.03" transform="translate(-5.51 44.2) rotate(-6.38)"/><rect class="cls-7" x="399.01" y="44.9" width="1.36" height="52.03" transform="translate(-5.4 44.84) rotate(-6.38)"/><rect class="cls-7" x="407.04" y="44.32" width="2.71" height="52.03" transform="translate(-5.36 47.02) rotate(-6.55)"/><rect class="cls-7" x="413.44" y="43.66" width="1.36" height="52.03" transform="translate(-5.24 47.67) rotate(-6.55)"/><rect class="cls-7" x="422.01" y="42.86" width="2.71" height="52.03" transform="translate(-5.29 53.4) rotate(-7.17)"/><rect class="cls-7" x="428.41" y="42.14" width="1.36" height="52.03" transform="translate(-5.15 54.1) rotate(-7.17)"/><rect class="cls-7" x="437.5" y="41.75" width="2.71" height="52.03" transform="translate(-5.03 55.33) rotate(-7.17)"/><rect class="cls-7" x="443.89" y="41.03" width="1.36" height="52.03" transform="translate(-4.89 56.02) rotate(-7.17)"/><rect class="cls-7" x="454.99" y="67.26" width="2.71" height="26.02" transform="translate(-6.45 57.61) rotate(-7.17)"/><rect class="cls-7" x="461.38" y="66.54" width="1.36" height="26.02" transform="translate(-6.32 58.32) rotate(-7.17)"/><rect class="cls-7" x="469.89" y="67.73" width="2.71" height="23.47" transform="translate(-6.23 59.46) rotate(-7.17)"/><rect class="cls-7" x="476.28" y="67.01" width="1.36" height="23.47" transform="translate(-6.1 60.14) rotate(-7.17)"/><rect class="cls-7" x="484.83" y="68.02" width="2.17" height="20.78" transform="translate(-6.23 85.58) rotate(-10)"/><rect class="cls-7" x="489.9" y="67.22" width="1.08" height="20.78" transform="translate(-6.02 86.39) rotate(-10.01)"/><rect class="cls-7" x="496.68" y="67.8" width="2.17" height="18.75" transform="matrix(0.98, -0.17, 0.17, 0.98, -5.84, 87.63)"/><rect class="cls-7" x="501.75" y="67.01" width="1.08" height="18.75" transform="translate(-5.63 88.38) rotate(-10)"/><rect class="cls-7" x="510.29" y="66.53" width="1.93" height="18.51" transform="translate(-5.39 89.94) rotate(-10)"/><rect class="cls-7" x="514.81" y="65.82" width="0.97" height="18.51" transform="matrix(0.98, -0.17, 0.17, 0.98, -5.21, 90.63)"/><rect class="cls-7" x="520.85" y="66.34" width="1.93" height="16.7" transform="translate(-5.04 91.76) rotate(-10)"/><rect class="cls-7" x="525.37" y="65.63" width="0.97" height="16.7" transform="translate(-4.86 92.45) rotate(-10)"/><rect class="cls-7" x="533.57" y="64.05" width="1.93" height="15.63" transform="translate(-4.36 93.92) rotate(-10)"/><rect class="cls-7" x="538.09" y="63.34" width="0.97" height="15.63" transform="matrix(0.98, -0.17, 0.17, 0.98, -4.17, 94.62)"/><rect class="cls-7" x="544.11" y="63.61" width="1.93" height="14.1" transform="translate(-3.99 95.74) rotate(-10)"/><rect class="cls-7" x="548.63" y="62.9" width="0.97" height="14.1" transform="translate(-3.8 96.43) rotate(-10)"/><rect class="cls-7" x="555.27" y="62.13" width="1.93" height="11.81" transform="translate(2.28 152.65) rotate(-15.66)"/><rect class="cls-7" x="559.7" y="61.02" width="0.97" height="11.81" transform="translate(2.73 153.69) rotate(-15.66)"/><rect class="cls-7" x="565.6" y="60.32" width="1.93" height="10.66" transform="translate(3.3 155.32) rotate(-15.66)"/><rect class="cls-7" x="287.2" y="45.8" width="2.71" height="55.07" transform="translate(2.68 -9.85) rotate(1.96)"/><rect class="cls-7" x="293.64" y="46" width="1.36" height="55.07" transform="translate(2.7 -10.05) rotate(1.97)"/><rect class="cls-7" x="272.19" y="44.98" width="2.71" height="55.89" transform="translate(4.1 -13.95) rotate(2.94)"/><rect class="cls-7" x="278.62" y="45.27" width="1.36" height="55.89" transform="matrix(1, 0.05, -0.05, 1, 4.13, -14.26)"/><rect class="cls-7" x="256.93" y="44.83" width="2.71" height="56.04" transform="matrix(1, 0.07, -0.07, 1, 6.06, -18.8)"/><rect class="cls-7" x="263.35" y="45.25" width="1.36" height="56.04" transform="translate(6.11 -19.23) rotate(4.22)"/><rect class="cls-7" x="241.85" y="43.25" width="2.71" height="57.47" transform="translate(6.57 -19.3) rotate(4.61)"/><rect class="cls-7" x="248.27" y="43.72" width="1.36" height="57.47" transform="translate(6.62 -19.76) rotate(4.61)"/><rect class="cls-7" x="227.14" y="41.85" width="2.71" height="57.21" transform="translate(7.36 -20.5) rotate(5.22)"/><rect class="cls-7" x="233.56" y="42.38" width="1.36" height="57.21" transform="translate(7.43 -21.01) rotate(5.22)"/><rect class="cls-7" x="212.11" y="41.82" width="2.71" height="55.94" transform="translate(8.36 -21.71) rotate(5.94)"/><rect class="cls-7" x="218.52" y="42.41" width="1.36" height="55.94" transform="translate(8.46 -22.3) rotate(5.94)"/><rect class="cls-7" x="197.68" y="39.86" width="2.71" height="57.74" transform="translate(8.29 -20.46) rotate(6.01)"/><rect class="cls-7" x="204.08" y="40.46" width="1.36" height="57.74" transform="matrix(0.99, 0.1, -0.1, 0.99, 8.38, -21.06)"/><rect class="cls-7" x="182.72" y="36.96" width="2.71" height="61.02" transform="translate(8.37 -19.49) rotate(6.2)"/><rect class="cls-7" x="189.12" y="37.58" width="1.36" height="61.02" transform="translate(8.47 -20.11) rotate(6.2)"/><rect class="cls-7" x="167.26" y="35.88" width="2.71" height="60.65" transform="translate(7.63 -16.84) rotate(5.85)"/><rect class="cls-7" x="173.66" y="36.47" width="1.36" height="60.65" transform="translate(7.71 -17.41) rotate(5.85)"/><polygon class="cls-7" points="153.72 94.06 155.65 94.06 160.9 53.88 158.52 59.1 153.72 94.06"/><polygon class="cls-7" points="147.24 93.09 149.72 94.06 153.72 63.69 150.89 64.15 147.24 93.09"/><rect class="cls-7" x="134.74" y="66.6" width="2.71" height="24.61" transform="translate(14.29 -20.65) rotate(9.16)"/><rect class="cls-7" x="141.1" y="67.51" width="1.36" height="24.61" transform="translate(14.51 -21.55) rotate(9.16)"/><rect class="cls-7" x="121.22" y="67.51" width="2.17" height="22.61" transform="translate(13.27 -17.52) rotate(8.66)"/><rect class="cls-7" x="126.31" y="68.2" width="1.08" height="22.61" transform="matrix(0.99, 0.15, -0.15, 0.99, 13.42, -18.2)"/><rect class="cls-7" x="109.31" y="67.83" width="2.17" height="20.13" transform="translate(14.22 -17) rotate(9.41)"/><rect class="cls-7" x="114.39" y="68.58" width="1.08" height="20.13" transform="translate(14.4 -17.73) rotate(9.41)"/><rect class="cls-7" x="97.32" y="67.02" width="1.93" height="18.51" transform="translate(15.14 -16.27) rotate(10.25)"/><rect class="cls-7" x="101.83" y="67.75" width="0.97" height="18.51" transform="translate(15.33 -16.97) rotate(10.25)"/><rect class="cls-7" x="85.95" y="66.38" width="1.93" height="16.7" transform="translate(16.88 -16.01) rotate(11.65)"/><rect class="cls-7" x="90.44" y="67.21" width="0.97" height="16.7" transform="translate(17.13 -16.8) rotate(11.65)"/><rect class="cls-7" x="73.83" y="64.56" width="1.93" height="15.63" transform="translate(15.92 -13.45) rotate(11.5)"/><rect class="cls-7" x="78.32" y="65.37" width="0.97" height="15.63" transform="matrix(0.98, 0.2, -0.2, 0.98, 16.17, -14.24)"/><rect class="cls-7" x="62.74" y="63.26" width="1.93" height="14.37" transform="translate(21.06 -14.42) rotate(15.44)"/><rect class="cls-7" x="67.17" y="64.35" width="0.97" height="14.37" transform="translate(21.5 -15.44) rotate(15.45)"/><polygon class="cls-7" points="51.35 74.9 49.52 74.3 53.67 61.35 55.77 61.5 51.35 74.9"/><rect class="cls-7" x="56.06" y="62.13" width="0.97" height="14.11" transform="translate(24.45 -14.2) rotate(18.21)"/><polygon class="cls-7" points="40.82 70.56 39.06 69.76 43.77 59.38 45.42 59.84 40.82 70.56"/><polygon class="cls-7" points="44.11 72.06 43.23 71.66 48.54 60.2 49.52 60.84 44.11 72.06"/><path class="cls-24" d="M437.82,44.07l10.83,22.74A5.52,5.52,0,0,0,453,69.92C512.85,77,564.47,59.64,564.47,59.64h0C546.6,62.51,489.69,70.53,453,62.87L440.46,35.34s-83.85,8.42-135.83,7.83v0h-1.81c-45.94.33-133.52-7.8-133.52-7.8C300.27,59.46,437.82,44.07,437.82,44.07Z"/><path class="cls-24" d="M156.75,62.87h0c-44.07,8.77-117-4.17-117-4.17C96.89,71.85,135.62,69.34,149,67.78A10.64,10.64,0,0,0,156.75,62.87Z"/><path class="cls-16" d="M33.64,67.45c65.63,33.49,248.65,36.44,270.07,36.67v0h2.07v0c21.42-.23,204.44-3.18,270.07-36.67,0,0-90.22,32.88-279.4,32.8C218.21,100.22,110.82,95.55,33.64,67.45Z"/><path class="cls-23" d="M41.39,59C29.13,56.94,17.46,31.37,17.46,31.37,14.8,52.65,33.94,67.54,33.94,67.54"/><g class="cls-25"><rect class="cls-7" x="33.43" y="51.54" width="1.93" height="14.37" transform="translate(41.46 -8.97) rotate(36.32)"/><rect class="cls-7" x="37.22" y="53.96" width="0.97" height="14.37" transform="translate(43.55 -10.45) rotate(36.32)"/><polygon class="cls-7" points="21.27 58.48 19.77 57.27 28.26 46.65 30.18 47.54 21.27 58.48"/><rect class="cls-7" x="27.67" y="47.93" width="0.97" height="14.11" transform="translate(40.97 -5.45) rotate(39.08)"/><polygon class="cls-7" points="14.57 45.89 13.21 44.52 21.31 36.49 22.69 37.51 14.57 45.89"/><polygon class="cls-7" points="17.11 48.46 16.43 47.77 25.47 38.96 26.16 39.91 17.11 48.46"/></g><path class="cls-16" d="M166.67,22.39s6.37,1,6.78-.14-.69-4-1.8-5-4.57-2.07-4-3A2.57,2.57,0,0,0,167.5,12s-1.66-.55-.28-2.21A1.8,1.8,0,0,0,167.08,7a4.35,4.35,0,0,0-.48,1.73c0,.83-1.25,1.25-1.25,1.25s-1.1,0,.42,2.07a2.38,2.38,0,0,1,.28,1.8c-.28,1,.13,2.36,2.35,3.46,0,0,.69.56-.69,1.39S166.67,22.39,166.67,22.39Z"/><path class="cls-16" d="M443,22.39s-6.37,1-6.78-.14.69-4,1.8-5,4.57-2.07,4-3a2.57,2.57,0,0,1,.14-2.22s1.66-.55.28-2.21A1.8,1.8,0,0,1,442.63,7a4.35,4.35,0,0,1,.48,1.73c0,.83,1.25,1.25,1.25,1.25s1.11,0-.42,2.07a2.35,2.35,0,0,0-.27,1.8c.27,1-.14,2.36-2.36,3.46,0,0-.69.56.69,1.39S443,22.39,443,22.39Z"/><g class="cls-26"><path class="cls-27" d="M599.79,164.51H10.69s39.56,33.1,72.56,48.62l-.06,3.09a3.21,3.21,0,0,0,1.69,2.88l7.71,4.1V212.7a1.88,1.88,0,0,1,1.88-1.88H516a1.88,1.88,0,0,1,1.88,1.88v10.5l7.71-4.1a3.21,3.21,0,0,0,1.69-2.88l-.06-3.09C560.23,197.61,599.79,164.51,599.79,164.51Z"/><polygon class="cls-19" points="133.03 240.85 142.89 233.73 85.95 155.15 76.09 162.28 133.03 240.85"/><polygon class="cls-19" points="157.12 240.52 167.73 234.56 120.05 150.06 109.44 156.03 157.12 240.52"/><polygon class="cls-19" points="183.3 239.24 194.28 233.97 152.16 146.58 141.18 151.85 183.3 239.24"/><rect class="cls-19" x="190.52" y="142.03" width="12.18" height="97" transform="matrix(-0.95, 0.32, -0.32, -0.95, 443.84, 308.15)"/><rect class="cls-19" x="219.6" y="145.1" width="12.18" height="96.99" transform="translate(493.72 322.34) rotate(165.03)"/><rect class="cls-19" x="246.33" y="138.36" width="12.18" height="96.99" transform="translate(534.09 325.73) rotate(169.73)"/><rect class="cls-19" x="274.65" y="145.64" width="12.18" height="96.98" transform="translate(581.86 354.83) rotate(173.42)"/><rect class="cls-19" x="297.72" y="149.51" width="12.18" height="96.98" transform="translate(604.61 400.54) rotate(-179.14)"/><polygon class="cls-19" points="473.54 240.85 463.67 233.73 520.61 155.15 530.48 162.28 473.54 240.85"/><polygon class="cls-19" points="449.45 240.52 438.83 234.56 486.51 150.06 497.12 156.03 449.45 240.52"/><polygon class="cls-19" points="423.26 239.24 412.29 233.97 454.41 146.58 465.38 151.85 423.26 239.24"/><rect class="cls-19" x="403.86" y="142.03" width="12.18" height="97" transform="matrix(0.95, 0.32, -0.32, 0.95, 82.5, -121.14)"/><rect class="cls-19" x="374.78" y="145.1" width="12.18" height="96.99" transform="translate(62.92 -91.8) rotate(14.97)"/><rect class="cls-19" x="348.06" y="138.36" width="12.18" height="96.99" transform="translate(38.97 -60.13) rotate(10.27)"/><rect class="cls-19" x="319.74" y="145.64" width="12.18" height="96.98" transform="translate(24.38 -36.04) rotate(6.58)"/><polygon class="cls-19" points="503.26 240.65 493.99 232.77 565.89 148.51 575.16 156.39 503.26 240.65"/><polygon class="cls-19" points="112.23 227.1 103.07 235.11 30.02 151.85 39.18 143.84 112.23 227.1"/></g><path class="cls-3" d="M600.69,164.51l-295,11.6-295-11.6S29.32,189.6,303.85,193.8v0l1.84,0,1.84,0v0C582.06,189.6,600.69,164.51,600.69,164.51Z"/><path class="cls-14" d="M14,145s5.26.71,13.67,1.59v-3.43l3.21,3.76,5.4.52v-3.77l3.49,4.08c1.58.14,3.21.27,4.88.4v-3.63L48,148.43l5.28.37v-3.75l3.4,4c2.48.15,5,.28,7.57.4v-2.94l2.62,3.06c2,.08,4,.16,6,.22v-3.3l2.89,3.37a298,298,0,0,0,34-.89l.58,14.75-95.22-3.06-3.9-7.78Z"/><polygon class="cls-14" points="21.59 145.95 14.01 145.02 16.09 137.62 21.59 145.95"/><path class="cls-28" d="M109.77,148.94l.58,14.75-95.22-3.06-3.9-7.78C108.82,156.59,109.77,148.94,109.77,148.94Z"/><path class="cls-14" d="M21.57,145.94h0Z"/><polygon class="cls-29" points="15.71 145.57 14.01 145.02 16.09 137.62 15.71 145.57"/><path class="cls-30" d="M14,145s14.77,5.9,62.92,6c0,0-28.16,3-63.7-3.81Z"/><polygon class="cls-30" points="21.59 145.95 16.09 137.62 20.31 145.94 21.59 145.95"/><polygon class="cls-29" points="27.68 146.61 28.52 146.61 27.68 143.18 27.68 146.61"/><polygon class="cls-29" points="36.29 147.46 37.25 147.46 36.29 143.69 36.29 147.46"/><polygon class="cls-29" points="44.66 148.18 45.42 148.35 44.66 144.54 44.66 148.18"/><polygon class="cls-29" points="53.27 148.8 54.13 148.8 53.27 145.05 53.27 148.8"/><polygon class="cls-29" points="64.24 149.43 64.77 149.43 64.24 146.48 64.24 149.43"/><polygon class="cls-29" points="72.85 149.76 73.54 149.76 72.85 146.46 72.85 149.76"/><polygon class="cls-30" points="75.74 149.83 72.85 146.46 75.14 149.76 75.74 149.83"/><polygon class="cls-30" points="66.86 149.54 64.24 146.48 66.16 149.43 66.86 149.54"/><polygon class="cls-30" points="56.67 149.02 53.27 145.05 55.93 148.94 56.67 149.02"/><polygon class="cls-30" points="47.99 148.43 44.66 144.54 47.35 148.43 47.99 148.43"/><polygon class="cls-30" points="39.78 147.77 36.29 143.69 38.98 147.77 39.78 147.77"/><polygon class="cls-30" points="30.89 146.94 27.68 143.18 29.95 146.92 30.89 146.94"/><path class="cls-14" d="M594.86,145.8s-5.25.71-13.66,1.59V144L578,147.72l-5.39.51v-3.76l-3.5,4.08-4.87.4v-3.64l-3.34,3.9-5.27.37v-3.76l-3.4,4c-2.48.15-5,.29-7.57.41v-2.94L542,150.32q-3,.12-6,.21v-3.3l-2.89,3.38a297.74,297.74,0,0,1-34-.9l-.59,14.76,95.23-3.06,3.9-7.79Z"/><polygon class="cls-14" points="587.28 146.72 594.86 145.8 592.78 138.39 587.28 146.72"/><path class="cls-28" d="M499.11,149.71l-.59,14.76,95.23-3.06,3.9-7.79C500.06,157.36,499.11,149.71,499.11,149.71Z"/><path class="cls-14" d="M587.31,146.72h0Z"/><polygon class="cls-29" points="587.28 146.72 589.08 146.5 592.78 138.39 587.28 146.72"/><polygon class="cls-29" points="577.98 147.72 578.97 147.43 581.2 143.96 577.98 147.72"/><polygon class="cls-29" points="569.09 148.54 570.14 148.27 572.59 144.47 569.09 148.54"/><polygon class="cls-29" points="560.88 149.21 561.72 148.93 564.22 145.31 560.88 149.21"/><polygon class="cls-29" points="552.21 149.79 552.95 149.71 555.61 145.82 552.21 149.79"/><polygon class="cls-29" points="542.01 150.32 542.58 150.32 544.64 147.25 542.01 150.32"/><polygon class="cls-30" points="581.2 147.39 581.12 144.47 580.65 147.43 581.2 147.39"/><polygon class="cls-30" points="572.59 148.23 572.59 144.47 571.95 148.23 572.59 148.23"/><polygon class="cls-30" points="564.22 148.95 564.22 145.31 563.6 148.95 564.22 148.95"/><polygon class="cls-30" points="555.61 149.58 555.61 145.82 555.19 149.58 555.61 149.58"/><polygon class="cls-30" points="544.64 150.2 544.64 147.25 544.07 150.32 544.64 150.2"/><polygon class="cls-30" points="597.65 153.62 594.86 145.8 592.78 138.39 593.91 146.01 596.12 153.84 597.65 153.62"/><path class="cls-30" d="M593.91,146s-11.58,4.31-62,5.79c0,0,20.63,1.71,62.77-3.75Z"/><polygon class="cls-29" points="533.13 150.61 533.81 150.61 536.02 147.23 533.13 150.61"/><polygon class="cls-30" points="536.02 150.53 536.02 147.23 535.58 150.61 536.02 150.53"/><g class="cls-31"><path class="cls-23" d="M610.46,158.07l-12.81-4.45s-59.69,7.66-98.8,0c0,0-93.27,6.38-193.07,5.41v.06c-98.94.85-190.8-5.42-190.8-5.42-39.11,7.63-103.75-.84-103.75-.84L0,158.8l12,7.25c38.52,17.52,296.06,20.43,296.06,20.43v-.08c25.57-.49,258.68-5.37,295.09-21.93Z"/><rect class="cls-7" x="309.02" y="157.73" width="2.71" height="28.96"/><rect class="cls-7" x="315.45" y="157.73" width="1.36" height="28.96"/><polygon class="cls-7" points="326.88 186.7 324.17 186.72 323.48 157.76 326.19 157.74 326.88 186.7"/><polygon class="cls-7" points="331.96 186.66 330.61 186.67 329.91 157.71 331.27 157.7 331.96 186.66"/><polygon class="cls-7" points="342.21 186.72 339.5 186.76 338.23 157.81 340.95 157.77 342.21 186.72"/><polygon class="cls-7" points="347.29 186.66 345.93 186.67 344.67 157.72 346.03 157.7 347.29 186.66"/><polygon class="cls-7" points="358.54 186.76 355.83 186.85 352.6 157.95 355.3 157.85 358.54 186.76"/><polygon class="cls-7" points="363.62 186.58 362.26 186.63 359.02 157.72 360.38 157.68 363.62 186.58"/><polygon class="cls-7" points="374.12 186.68 371.41 186.79 367.36 157.92 370.07 157.8 374.12 186.68"/><polygon class="cls-7" points="379.19 186.46 377.83 186.52 373.78 157.64 375.13 157.58 379.19 186.46"/><polygon class="cls-7" points="389.47 185.75 386.77 185.91 381.54 157.09 384.24 156.94 389.47 185.75"/><polygon class="cls-7" points="394.52 185.47 393.17 185.55 387.94 156.73 389.29 156.65 394.52 185.47"/><polygon class="cls-7" points="404.74 185.03 402.04 185.2 396.25 156.42 398.94 156.25 404.74 185.03"/><polygon class="cls-7" points="409.79 184.72 408.44 184.81 402.64 156.02 403.99 155.94 409.79 184.72"/><polygon class="cls-7" points="419.24 184.34 416.55 184.52 410.6 155.74 413.29 155.57 419.24 184.34"/><polygon class="cls-7" points="424.29 184.02 422.94 184.11 416.99 155.33 418.34 155.25 424.29 184.02"/><polygon class="cls-7" points="434.5 183.51 431.81 183.7 425.29 154.96 427.98 154.77 434.5 183.51"/><polygon class="cls-7" points="439.54 183.16 438.19 183.25 431.68 154.51 433.02 154.42 439.54 183.16"/><polygon class="cls-7" points="449.99 182.89 447.29 183.08 440.78 154.34 443.47 154.15 449.99 182.89"/><polygon class="cls-7" points="455.03 182.53 453.68 182.63 447.16 153.89 448.51 153.8 455.03 182.53"/><rect class="cls-7" x="459.74" y="153.74" width="2.71" height="26.02" transform="translate(-20.63 75.35) rotate(-9.14)"/><rect class="cls-7" x="466.1" y="152.83" width="1.36" height="26.02" transform="matrix(0.99, -0.16, 0.16, 0.99, -20.41, 76.22)"/><rect class="cls-7" x="476.41" y="153.72" width="2.71" height="23.47" transform="translate(-16.92 60.95) rotate(-7.17)"/><rect class="cls-7" x="482.8" y="153" width="1.36" height="23.47" transform="translate(-16.79 61.66) rotate(-7.17)"/><rect class="cls-7" x="491.35" y="154.01" width="2.17" height="20.78" transform="translate(-21.07 88.02) rotate(-10)"/><rect class="cls-7" x="496.42" y="153.22" width="1.08" height="20.78" transform="translate(-20.86 88.81) rotate(-10)"/><rect class="cls-7" x="503.2" y="153.8" width="2.17" height="18.75" transform="translate(-20.68 90.07) rotate(-10)"/><rect class="cls-7" x="508.28" y="153" width="1.08" height="18.75" transform="translate(-20.47 90.84) rotate(-10)"/><rect class="cls-7" x="516.81" y="152.53" width="1.93" height="18.51" transform="translate(-20.23 92.38) rotate(-10)"/><rect class="cls-7" x="521.33" y="151.82" width="0.97" height="18.51" transform="translate(-20.04 93.08) rotate(-10)"/><rect class="cls-7" x="527.37" y="152.34" width="1.93" height="16.7" transform="translate(-19.88 94.2) rotate(-10)"/><rect class="cls-7" x="531.89" y="151.63" width="0.97" height="16.7" transform="translate(-19.69 94.89) rotate(-10)"/><rect class="cls-7" x="540.54" y="150.01" width="1.93" height="20.75" transform="translate(-19.63 96.48) rotate(-10)"/><rect class="cls-7" x="545.06" y="149.3" width="0.97" height="20.75" transform="translate(-19.44 97.17) rotate(-10)"/><rect class="cls-7" x="551.12" y="150.02" width="1.93" height="18.72" transform="matrix(0.98, -0.17, 0.17, 0.98, -19.29, 98.31)"/><rect class="cls-7" x="555.63" y="149.31" width="0.97" height="18.72" transform="translate(-19.11 98.99) rotate(-10)"/><rect class="cls-7" x="563.6" y="154.03" width="1.93" height="12.86" transform="translate(-22.36 158.31) rotate(-15.66)"/><rect class="cls-7" x="568.03" y="152.92" width="0.97" height="12.86" transform="translate(-21.91 159.33) rotate(-15.66)"/><rect class="cls-7" x="573.94" y="152.31" width="1.93" height="11.61" transform="translate(-21.34 161.01) rotate(-15.66)"/><rect class="cls-7" x="578.37" y="151.2" width="0.97" height="11.61" transform="matrix(0.96, -0.27, 0.27, 0.96, -20.89, 162.04)"/><polygon class="cls-7" points="295.49 187.06 292.78 187.01 294.68 156.37 297.39 156.43 295.49 187.06"/><polygon class="cls-7" points="300.57 187.16 299.22 187.13 301.11 156.5 302.47 156.52 300.57 187.16"/><polygon class="cls-7" points="279.99 187.06 277.28 186.98 280.16 155.91 282.87 155.99 279.99 187.06"/><polygon class="cls-7" points="285.06 187.21 283.71 187.17 286.59 156.1 287.94 156.13 285.06 187.21"/><polygon class="cls-7" points="264.09 187.06 261.39 186.95 265.52 155.83 268.23 155.94 264.09 187.06"/><polygon class="cls-7" points="269.16 187.27 267.81 187.21 271.94 156.1 273.3 156.15 269.16 187.27"/><polygon class="cls-7" points="248.76 186.97 246.06 186.85 250.69 154.96 253.39 155.08 248.76 186.97"/><polygon class="cls-7" points="253.83 187.2 252.48 187.14 257.11 155.25 258.46 155.31 253.83 187.2"/><polygon class="cls-7" points="233.76 186.04 231.06 185.91 236.28 154.19 238.99 154.33 233.76 186.04"/><polygon class="cls-7" points="238.82 186.3 237.47 186.23 242.69 154.52 244.05 154.58 238.82 186.3"/><polygon class="cls-7" points="218.44 185.31 215.74 185.15 221.55 154.18 224.25 154.33 218.44 185.31"/><polygon class="cls-7" points="223.5 185.6 222.15 185.52 227.95 154.55 229.3 154.63 223.5 185.6"/><polygon class="cls-7" points="203.88 185.22 201.18 185.06 207.24 153.09 209.94 153.25 203.88 185.22"/><polygon class="cls-7" points="208.93 185.51 207.58 185.43 213.65 153.47 214.99 153.55 208.93 185.51"/><polygon class="cls-7" points="188.64 185.42 185.94 185.25 192.56 151.48 195.26 151.65 188.64 185.42"/><polygon class="cls-7" points="193.69 185.72 192.35 185.64 198.96 151.87 200.31 151.95 193.69 185.72"/><polygon class="cls-7" points="173.39 184.62 170.69 184.47 176.89 150.88 179.59 151.03 173.39 184.62"/><polygon class="cls-7" points="178.44 184.91 177.09 184.83 183.29 151.25 184.64 151.32 178.44 184.91"/><polygon class="cls-7" points="160.29 182.91 162.23 182.75 169.46 144.8 166.8 149.88 160.29 182.91"/><polygon class="cls-7" points="153.78 182.56 156.25 183.25 161.73 154.57 158.85 155.24 153.78 182.56"/><rect class="cls-7" x="141.04" y="148.71" width="2.71" height="35.09" transform="translate(28.27 -20.54) rotate(9.16)"/><rect class="cls-7" x="147.41" y="149.62" width="1.36" height="35.09" transform="translate(28.49 -21.44) rotate(9.16)"/><rect class="cls-7" x="127.43" y="150.31" width="2.17" height="33.17" transform="translate(26.61 -17.45) rotate(8.66)"/><rect class="cls-7" x="132.52" y="151" width="1.08" height="33.17" transform="translate(26.76 -18.13) rotate(8.66)"/><rect class="cls-7" x="115.31" y="150.59" width="2.17" height="32.92" transform="translate(28.87 -16.78) rotate(9.41)"/><rect class="cls-7" x="120.39" y="151.34" width="1.08" height="32.92" transform="translate(29.05 -17.51) rotate(9.41)"/><rect class="cls-7" x="103.36" y="148.22" width="1.93" height="33.43" transform="translate(31.01 -15.93) rotate(10.25)"/><rect class="cls-7" x="107.88" y="148.95" width="0.97" height="33.43" transform="matrix(0.98, 0.18, -0.18, 0.98, 31.19, -16.63)"/><rect class="cls-7" x="91.35" y="152.26" width="1.93" height="27.79" transform="translate(35.46 -15.22) rotate(11.65)"/><rect class="cls-7" x="95.84" y="153.09" width="0.97" height="27.79" transform="translate(35.72 -16.02) rotate(11.66)"/><rect class="cls-7" x="78.92" y="150.41" width="1.93" height="29.89" transform="translate(34.55 -12.6) rotate(11.49)"/><rect class="cls-7" x="83.42" y="151.23" width="0.97" height="29.89" transform="translate(34.79 -13.39) rotate(11.49)"/><rect class="cls-7" x="67.15" y="148.97" width="1.93" height="30.22" transform="translate(46.16 -12.21) rotate(15.44)"/><rect class="cls-7" x="71.58" y="150.06" width="0.97" height="30.22" transform="translate(46.59 -13.23) rotate(15.44)"/><polygon class="cls-7" points="52.46 175.76 50.58 175.3 57.14 148.51 59.38 147.98 52.46 175.76"/><rect class="cls-7" x="58.48" y="148.31" width="0.97" height="28.63" transform="translate(40.95 -9.42) rotate(13.95)"/><polygon class="cls-7" points="38.46 176.6 36.75 175.24 43.73 147.27 45.39 147.82 38.46 176.6"/><polygon class="cls-7" points="43.41 174.52 42.54 173.89 48.55 147.78 49.51 148.91 43.41 174.52"/><rect class="cls-7" x="586.58" y="151.83" width="1.93" height="11.61" transform="translate(-20.74 164.39) rotate(-15.66)"/><rect class="cls-7" x="591.01" y="150.72" width="0.97" height="11.61" transform="matrix(0.96, -0.27, 0.27, 0.96, -20.3, 165.4)"/><rect class="cls-7" x="25.59" y="143.23" width="1.93" height="30.23" transform="translate(52.82 -0.05) rotate(18.94)"/><rect class="cls-7" x="29.95" y="144.56" width="0.97" height="30.23" transform="translate(53.47 -1.23) rotate(18.94)"/><polygon class="cls-7" points="10.21 169.05 8.37 168.47 16.55 142.13 18.82 141.74 10.21 169.05"/><rect class="cls-7" x="17.02" y="142.02" width="0.97" height="28.63" transform="translate(47.66 1.94) rotate(17.44)"/></g><path class="cls-16" d="M60.53,171.2s284.66,26.29,542.61-6.73l7.32-6.4S424.26,190.18,60.53,171.2Z"/><path class="cls-23" d="M567.59,59.56c12.25-2.08,23.93-27.65,23.93-27.65C594.18,53.18,575,68.07,575,68.07"/><g class="cls-32"><rect class="cls-7" x="573.61" y="52.07" width="1.93" height="14.37" transform="translate(1072.63 -233.31) rotate(143.68)"/><rect class="cls-7" x="570.79" y="54.5" width="0.97" height="14.37" transform="translate(1068.08 -227.02) rotate(143.68)"/><polygon class="cls-7" points="587.71 59.02 589.21 57.8 580.72 47.18 578.8 48.07 587.71 59.02"/><rect class="cls-7" x="580.34" y="48.46" width="0.97" height="14.11" transform="translate(1066.68 -267.56) rotate(140.92)"/><polygon class="cls-7" points="594.41 46.42 595.76 45.05 587.66 37.02 586.29 38.04 594.41 46.42"/><polygon class="cls-7" points="591.87 48.99 592.54 48.3 583.5 39.49 582.82 40.44 591.87 48.99"/></g><ellipse class="cls-33" cx="310.5" cy="2.77" rx="1.37" ry="1.25"/><path class="cls-33" d="M309.71,1.75s.33-.37.19-1.47c0,0,.14-.28.7-.28,0,0,.41,0,.55.28a5.87,5.87,0,0,0,.13,1.47"/><path class="cls-34" d="M310.45,4.53a3.5,3.5,0,0,0-2.62,1.1,1.66,1.66,0,0,1,.18-.38.79.79,0,0,0-.18.37c-.1.66,1.22,1.21,2.72,1.21h.05V4.54Z"/><path class="cls-34" d="M310.74,4.53a3.48,3.48,0,0,1,2.62,1.1,1.33,1.33,0,0,0-.18-.38.79.79,0,0,1,.18.37c.1.66-1.22,1.21-2.72,1.21h0V4.54Z"/><path class="cls-16" d="M309.27,4.5s-1.9-1,1.33-1.28V4.44"/><path class="cls-16" d="M311.92,4.5s1.91-1-1.32-1.28V4.44"/><path class="cls-34" d="M308.35,5.31a4.77,4.77,0,0,1,4.37,0l0,0,.08-.15-1.12-.63h-2.1l-1,.28"/><path class="cls-8" d="M308,5.25a3.49,3.49,0,0,1,2.54-.83h.05V4.17h-.1A3,3,0,0,0,308,5.25Z"/><path class="cls-8" d="M310.55,4.42a3.49,3.49,0,0,0-2.54.83,1.66,1.66,0,0,0-.18.38,3.5,3.5,0,0,1,2.62-1.1h.15V4.42Z"/><path class="cls-8" d="M313.18,5.25a3.49,3.49,0,0,0-2.54-.83h0V4.17h.09A3,3,0,0,1,313.18,5.25Z"/><path class="cls-8" d="M310.64,4.42a3.49,3.49,0,0,1,2.54.83,1.33,1.33,0,0,1,.18.38,3.48,3.48,0,0,0-2.62-1.1h-.14V4.42Z"/><path class="cls-34" d="M313.22,5.8a2.41,2.41,0,0,0-.52-.52c-.22-.11,0-.18,0-.18l.41.32"/><ellipse class="cls-35" cx="310.63" cy="6.65" rx="2.43" ry="2.22"/><path class="cls-34" d="M310.42,10a4,4,0,0,0-3.28,1.82,2.55,2.55,0,0,1,.23-.62,1.52,1.52,0,0,0-.23.62c-.12,1.1,1.52,2,3.4,2h.06V10Z"/><path class="cls-34" d="M310.77,10a4,4,0,0,1,3.28,1.82,3,3,0,0,0-.22-.62,1.5,1.5,0,0,1,.22.62c.13,1.1-1.52,2-3.39,2h-.06V10Z"/><ellipse class="cls-36" cx="310.63" cy="12.88" rx="3.34" ry="3.05"/><path class="cls-34" d="M310.53,24.42a4.77,4.77,0,0,0-3.81,1.82,2.62,2.62,0,0,1,.26-.62,1.41,1.41,0,0,0-.26.61c-.15,1.1,1.77,2,3.95,2h.06V24.42Z"/><path class="cls-34" d="M310.94,24.42a4.77,4.77,0,0,1,3.81,1.82,2.62,2.62,0,0,0-.26-.62,1.41,1.41,0,0,1,.26.61c.15,1.1-1.77,2-3.95,2h-.07V24.42Z"/><ellipse class="cls-37" cx="310.67" cy="27.83" rx="3.95" ry="3.6"/><path class="cls-34" d="M310.41,16.94A4.16,4.16,0,0,0,307,18.76a3.32,3.32,0,0,1,.24-.62,1.54,1.54,0,0,0-.24.62c-.13,1.1,1.58,2,3.53,2h.07V17Z"/><path class="cls-34" d="M310.78,16.94a4.16,4.16,0,0,1,3.41,1.82,3.32,3.32,0,0,0-.24-.62,1.54,1.54,0,0,1,.24.62c.13,1.1-1.58,2-3.53,2h-.06V17Z"/><ellipse class="cls-38" cx="310.63" cy="20.21" rx="3.34" ry="3.05"/><path class="cls-16" d="M308.28,24.23S305,22,310.6,21.46v2.63"/><path class="cls-16" d="M312.91,24.23s3.32-2.22-2.31-2.77v2.63"/><path class="cls-16" d="M308.55,16.89s-2.94-1.33,2.05-1.66v1.58"/><path class="cls-16" d="M312.64,16.89s2.94-1.33-2-1.66v1.58"/><path class="cls-16" d="M308.94,10s-2.38-1.71,1.66-2.13v2"/><path class="cls-16" d="M312.25,10s2.38-1.71-1.65-2.13v2"/><path class="cls-34" d="M307.47,25.71s3.42-2.12,6.39,0l.11-.26-1.63-1h-3.06l-1.42.46"/><path class="cls-8" d="M307,25.62a4.64,4.64,0,0,1,3.69-1.39h.06v-.41h-.13A4.16,4.16,0,0,0,307,25.62Z"/><path class="cls-8" d="M310.67,24.23A4.64,4.64,0,0,0,307,25.62a2.62,2.62,0,0,0-.26.62,4.77,4.77,0,0,1,3.81-1.82h.2v-.19Z"/><path class="cls-8" d="M314.49,25.62a4.64,4.64,0,0,0-3.69-1.39h-.07v-.41h.14A4.17,4.17,0,0,1,314.49,25.62Z"/><path class="cls-8" d="M310.8,24.23a4.64,4.64,0,0,1,3.69,1.39,2.62,2.62,0,0,1,.26.62,4.77,4.77,0,0,0-3.81-1.82h-.21v-.19Z"/><path class="cls-34" d="M307.68,18.23s3.05-2.11,5.71,0l.1-.25-1.45-1H309.3L308,17.4"/><path class="cls-8" d="M307.24,18.14a4,4,0,0,1,3.29-1.39h.07v-.41h-.13A3.59,3.59,0,0,0,307.24,18.14Z"/><path class="cls-8" d="M310.53,16.75a4,4,0,0,0-3.29,1.39,3.32,3.32,0,0,0-.24.62,4.16,4.16,0,0,1,3.41-1.82h.19v-.2Z"/><path class="cls-8" d="M314,18.14a4,4,0,0,0-3.29-1.39h-.06v-.41h.12A3.59,3.59,0,0,1,314,18.14Z"/><path class="cls-8" d="M310.66,16.75A4,4,0,0,1,314,18.14a3.32,3.32,0,0,1,.24.62,4.16,4.16,0,0,0-3.41-1.82h-.18v-.2Z"/><path class="cls-34" d="M307.79,11.31s2.91-2.09,5.45,0l0,0,.1-.25L312,10h-2.63l-1.23.46"/><path class="cls-8" d="M307.37,11.22a3.73,3.73,0,0,1,3.17-1.39h.06V9.42h-.12A3.44,3.44,0,0,0,307.37,11.22Z"/><path class="cls-8" d="M310.54,9.83a3.73,3.73,0,0,0-3.17,1.39,2.55,2.55,0,0,0-.23.62A4,4,0,0,1,310.42,10h.18v-.2Z"/><path class="cls-8" d="M313.83,11.22a3.76,3.76,0,0,0-3.17-1.39h-.06V9.42h.11A3.47,3.47,0,0,1,313.83,11.22Z"/><path class="cls-8" d="M310.66,9.83a3.76,3.76,0,0,1,3.17,1.39,3,3,0,0,1,.22.62A4,4,0,0,0,310.77,10h-.17v-.2Z"/><path class="cls-34" d="M313.87,12.12a3.3,3.3,0,0,0-.64-.85c-.28-.19,0-.3,0-.3l.52.52"/><path class="cls-16" d="M304.78,31.43s-6.37,1-6.78-.14.69-4,1.8-5,4.57-2.07,4-3A2.57,2.57,0,0,1,304,21s1.66-.55.28-2.21a1.8,1.8,0,0,1,.14-2.77,4.35,4.35,0,0,1,.48,1.73c0,.83,1.25,1.25,1.25,1.25s1.1,0-.42,2.07a2.38,2.38,0,0,0-.28,1.8c.28,1-.13,2.36-2.35,3.46,0,0-.69.56.69,1.39S304.78,31.43,304.78,31.43Z"/><path class="cls-16" d="M316.5,31.43s6.37,1,6.79-.14-.7-4-1.8-5-4.57-2.07-4-3a2.54,2.54,0,0,0-.14-2.22s-1.66-.55-.27-2.21a1.81,1.81,0,0,0-.14-2.77,4.29,4.29,0,0,0-.49,1.73c0,.83-1.24,1.25-1.24,1.25s-1.11,0,.41,2.07a2.33,2.33,0,0,1,.28,1.8c-.28,1,.14,2.36,2.35,3.46,0,0,.7.56-.69,1.39S316.5,31.43,316.5,31.43Z"/><path class="cls-16" d="M307.47,32.62s-4.3-2.87,3-3.59v3.41"/><path class="cls-16" d="M313.46,32.62s4.3-2.87-3-3.59v3.41"/><circle class="cls-7" cx="134.45" cy="141.98" r="4.79"/><circle class="cls-7" cx="153.59" cy="141.98" r="4.79"/><circle class="cls-7" cx="185.5" cy="141.98" r="4.79"/><circle class="cls-7" cx="204.64" cy="141.98" r="4.79"/><circle class="cls-7" cx="223.25" cy="141.98" r="4.79"/><circle class="cls-7" cx="242.4" cy="141.98" r="4.79"/><circle class="cls-7" cx="366.83" cy="141.98" r="4.79"/><circle class="cls-7" cx="385.98" cy="141.98" r="4.79"/><circle class="cls-7" cx="404.59" cy="141.98" r="4.79"/><circle class="cls-7" cx="423.73" cy="141.98" r="4.79"/><circle class="cls-7" cx="454.58" cy="141.98" r="4.79"/><circle class="cls-7" cx="473.72" cy="141.98" r="4.79"/><circle class="cls-7" cx="274.84" cy="141.98" r="4.79"/><circle class="cls-7" cx="294.51" cy="141.98" r="4.79"/><circle class="cls-7" cx="315.78" cy="141.98" r="4.79"/><circle class="cls-7" cx="336.52" cy="142.52" r="4.79"/><rect class="cls-39" x="293.67" y="111.67" width="24.26" height="37.58"/><rect class="cls-40" x="298.2" y="116.2" width="15.21" height="28.53"/><rect class="cls-5" x="92.51" y="210.82" width="425.38" height="69.25"/><rect class="cls-6" x="439.43" y="268.81" width="5.02" height="11.26"/><rect class="cls-6" x="444.45" y="268.81" width="73.44" height="4.17"/><rect class="cls-6" x="514.34" y="223.2" width="3.55" height="56.88"/><rect class="cls-6" x="470.18" y="272.98" width="2.36" height="7.09"/><rect class="cls-6" x="477.22" y="272.98" width="2.36" height="7.09"/><rect class="cls-6" x="484.29" y="272.98" width="2.37" height="7.09"/><rect class="cls-6" x="491.32" y="272.98" width="2.36" height="7.09"/><rect class="cls-6" x="456.57" y="272.98" width="2.36" height="7.09"/><rect class="cls-6" x="463.6" y="272.98" width="2.36" height="7.09"/><rect class="cls-6" x="498.6" y="272.98" width="2.36" height="7.09"/><rect class="cls-6" x="505.63" y="272.98" width="2.36" height="7.09"/><rect class="cls-6" x="449.81" y="272.98" width="2.36" height="7.09"/><rect class="cls-6" x="362.27" y="267.56" width="70.62" height="1.25"/><rect class="cls-6" x="362.27" y="271.73" width="77.16" height="1.25"/><rect class="cls-6" x="362.27" y="275.9" width="77.16" height="1.25"/><rect class="cls-6" x="168.87" y="268.81" width="5.02" height="11.26" transform="translate(342.75 548.88) rotate(180)"/><rect class="cls-6" x="94.98" y="268.81" width="73.89" height="4.17" transform="translate(263.85 541.79) rotate(180)"/><rect class="cls-6" x="91.43" y="223.2" width="3.55" height="56.88" transform="translate(186.41 503.27) rotate(180)"/><rect class="cls-6" x="140.77" y="272.98" width="2.36" height="7.09" transform="translate(283.9 553.05) rotate(180)"/><rect class="cls-6" x="133.73" y="272.98" width="2.36" height="7.09" transform="translate(269.83 553.05) rotate(180)"/><rect class="cls-6" x="126.67" y="272.98" width="2.36" height="7.09" transform="translate(255.7 553.05) rotate(180)"/><rect class="cls-6" x="119.63" y="272.98" width="2.37" height="7.09" transform="translate(241.62 553.05) rotate(180)"/><rect class="cls-6" x="154.39" y="272.98" width="2.36" height="7.09" transform="translate(311.14 553.05) rotate(180)"/><rect class="cls-6" x="147.35" y="272.98" width="2.36" height="7.09" transform="translate(297.07 553.05) rotate(180)"/><rect class="cls-6" x="112.36" y="272.98" width="2.36" height="7.09" transform="translate(227.08 553.05) rotate(180)"/><rect class="cls-6" x="105.32" y="272.98" width="2.36" height="7.09" transform="translate(213.01 553.05) rotate(180)"/><rect class="cls-6" x="161.14" y="272.98" width="2.36" height="7.09" transform="translate(324.64 553.05) rotate(180)"/><rect class="cls-6" x="180.43" y="267.56" width="70.62" height="1.25" transform="translate(431.48 536.37) rotate(180)"/><rect class="cls-6" x="173.89" y="271.73" width="77.16" height="1.25" transform="translate(424.94 544.71) rotate(180)"/><rect class="cls-6" x="173.89" y="275.9" width="77.16" height="1.25" transform="translate(424.94 553.05) rotate(180)"/><rect class="cls-6" x="92.51" y="223.2" width="425.38" height="13.07"/><polygon class="cls-41" points="343.85 277.99 330.48 277.99 326.93 274.44 326.93 277.99 326.93 280.07 332.57 280.07 341.76 280.07 347.4 280.07 347.4 277.99 347.4 274.44 343.85 277.99"/><polygon class="cls-41" points="282.84 277.99 269.47 277.99 265.92 274.44 265.92 277.99 265.92 280.07 271.56 280.07 280.75 280.07 286.39 280.07 286.39 277.99 286.39 274.44 282.84 277.99"/><rect class="cls-42" x="356.32" y="223.2" width="1.17" height="13.07"/><rect class="cls-7" x="259.67" y="215.86" width="94.08" height="1.08"/><rect class="cls-7" x="331.52" y="216.47" width="1.25" height="6.73"/><rect class="cls-7" x="327.97" y="216.47" width="1.25" height="6.73"/><rect class="cls-7" x="338.63" y="216.47" width="1.25" height="6.73"/><rect class="cls-7" x="335.08" y="216.47" width="1.25" height="6.73"/><rect class="cls-7" x="345.73" y="216.31" width="1.25" height="6.88"/><rect class="cls-7" x="342.18" y="216.31" width="1.25" height="6.88"/><rect class="cls-7" x="268.84" y="216.55" width="1.25" height="6.73"/><rect class="cls-7" x="265.29" y="216.55" width="1.25" height="6.73"/><rect class="cls-7" x="275.95" y="216.55" width="1.25" height="6.73"/><rect class="cls-7" x="272.4" y="216.55" width="1.25" height="6.73"/><rect class="cls-7" x="283.05" y="216.39" width="1.25" height="6.88"/><rect class="cls-7" x="279.5" y="216.39" width="1.25" height="6.88"/><rect class="cls-7" x="355.81" y="215.82" width="87.31" height="1.08"/><rect class="cls-7" x="421.61" y="216.47" width="1.25" height="6.73"/><rect class="cls-7" x="418.05" y="216.47" width="1.25" height="6.73"/><rect class="cls-7" x="428.71" y="216.47" width="1.25" height="6.73"/><rect class="cls-7" x="425.16" y="216.47" width="1.25" height="6.73"/><rect class="cls-7" x="435.81" y="216.31" width="1.25" height="6.88"/><rect class="cls-7" x="432.26" y="216.31" width="1.25" height="6.88"/><rect class="cls-7" x="365.2" y="216.39" width="1.25" height="6.73"/><rect class="cls-7" x="361.64" y="216.39" width="1.25" height="6.73"/><rect class="cls-7" x="372.3" y="216.39" width="1.25" height="6.73"/><rect class="cls-7" x="368.75" y="216.39" width="1.25" height="6.73"/><rect class="cls-7" x="379.4" y="216.23" width="1.25" height="6.88"/><rect class="cls-7" x="375.85" y="216.23" width="1.25" height="6.88"/><rect class="cls-11" x="443.13" y="210.82" width="2.06" height="12.38"/><rect class="cls-7" x="445.19" y="215.75" width="72.56" height="1.08"/><rect class="cls-7" x="500.06" y="216.47" width="1.25" height="6.73"/><rect class="cls-7" x="496.51" y="216.47" width="1.25" height="6.73"/><rect class="cls-7" x="507.16" y="216.47" width="1.25" height="6.73"/><rect class="cls-7" x="503.61" y="216.47" width="1.25" height="6.73"/><rect class="cls-7" x="510.71" y="216.31" width="1.25" height="6.88"/><rect class="cls-7" x="454.57" y="216.31" width="1.25" height="6.73"/><rect class="cls-7" x="451.02" y="216.31" width="1.25" height="6.73"/><rect class="cls-7" x="461.67" y="216.31" width="1.25" height="6.73"/><rect class="cls-7" x="458.12" y="216.31" width="1.25" height="6.73"/><rect class="cls-7" x="465.22" y="216.15" width="1.25" height="6.88"/><rect class="cls-7" x="170.19" y="215.82" width="87.31" height="1.08" transform="translate(427.7 432.73) rotate(180)"/><rect class="cls-7" x="190.46" y="216.47" width="1.25" height="6.73" transform="translate(382.17 439.67) rotate(180)"/><rect class="cls-7" x="194.01" y="216.47" width="1.25" height="6.73" transform="translate(389.28 439.67) rotate(180)"/><rect class="cls-7" x="183.36" y="216.47" width="1.25" height="6.73" transform="translate(367.96 439.67) rotate(180)"/><rect class="cls-7" x="186.91" y="216.47" width="1.25" height="6.73" transform="translate(375.07 439.67) rotate(180)"/><rect class="cls-7" x="176.25" y="216.31" width="1.25" height="6.88" transform="translate(353.76 439.51) rotate(180)"/><rect class="cls-7" x="179.8" y="216.31" width="1.25" height="6.88" transform="translate(360.86 439.51) rotate(180)"/><rect class="cls-7" x="246.87" y="216.39" width="1.25" height="6.73" transform="translate(494.99 439.51) rotate(180)"/><rect class="cls-7" x="250.42" y="216.39" width="1.25" height="6.73" transform="translate(502.1 439.51) rotate(180)"/><rect class="cls-7" x="239.77" y="216.39" width="1.25" height="6.73" transform="translate(480.79 439.51) rotate(180)"/><rect class="cls-7" x="243.32" y="216.39" width="1.25" height="6.73" transform="translate(487.89 439.51) rotate(180)"/><rect class="cls-7" x="232.66" y="216.23" width="1.25" height="6.88" transform="translate(466.58 439.35) rotate(180)"/><rect class="cls-7" x="236.21" y="216.23" width="1.25" height="6.88" transform="translate(473.68 439.35) rotate(180)"/><rect class="cls-11" x="168.13" y="210.82" width="2.06" height="12.38" transform="translate(338.33 434.02) rotate(180)"/><rect class="cls-7" x="92.51" y="215.75" width="75.62" height="1.08" transform="translate(260.64 432.57) rotate(180)"/><rect class="cls-7" x="110.5" y="216.55" width="1.25" height="6.73" transform="translate(222.25 439.83) rotate(180)"/><rect class="cls-7" x="114.05" y="216.55" width="1.25" height="6.73" transform="translate(229.36 439.83) rotate(180)"/><rect class="cls-7" x="103.4" y="216.55" width="1.25" height="6.73" transform="translate(208.05 439.83) rotate(180)"/><rect class="cls-7" x="106.95" y="216.55" width="1.25" height="6.73" transform="translate(215.15 439.83) rotate(180)"/><rect class="cls-7" x="99.85" y="216.39" width="1.25" height="6.88" transform="translate(200.94 439.67) rotate(180)"/><rect class="cls-7" x="155.99" y="216.39" width="1.25" height="6.73" transform="translate(313.24 439.51) rotate(180)"/><rect class="cls-7" x="159.54" y="216.39" width="1.25" height="6.73" transform="translate(320.34 439.51) rotate(180)"/><rect class="cls-7" x="148.89" y="216.39" width="1.25" height="6.73" transform="translate(299.03 439.51) rotate(180)"/><rect class="cls-7" x="152.44" y="216.39" width="1.25" height="6.73" transform="translate(306.13 439.51) rotate(180)"/><rect class="cls-7" x="145.34" y="216.23" width="1.25" height="6.88" transform="translate(291.93 439.35) rotate(180)"/><polygon class="cls-43" points="283.9 244.75 283.9 246.34 282.35 246.34 282.35 246.79 283.9 246.79 284.34 246.79 284.34 246.34 284.34 244.75 283.9 244.75"/><polygon class="cls-10" points="360.91 236.27 357.15 236.27 357.15 223.2 354.56 223.2 354.56 210.82 352.5 210.82 351.16 223.2 346.15 236.27 346.15 279.27 326.93 279.27 326.93 280.07 347.4 280.07 347.4 280.07 360.91 280.07 360.91 236.27"/><polygon class="cls-44" points="358.4 236.27 358.4 223.2 355.81 223.2 355.81 210.82 353.75 210.82 353.75 223.2 351.16 223.2 351.16 236.27 347.4 236.27 347.4 280.07 362.17 280.07 362.17 236.27 358.4 236.27"/><rect class="cls-45" x="347.4" y="236.27" width="2.51" height="43.81"/><rect class="cls-45" x="351.16" y="223.2" width="1.53" height="13.07"/><rect class="cls-42" x="357.49" y="236.27" width="1.45" height="43.81"/><rect class="cls-42" x="354.65" y="210.82" width="0.47" height="12.38"/><rect class="cls-45" x="351.16" y="234.96" width="7.24" height="1.31"/><rect class="cls-46" x="286.39" y="280.07" width="40.52" height="3.84"/><rect class="cls-47" x="286.39" y="280.53" width="40.52" height="0.92"/><rect class="cls-46" x="284.94" y="284.78" width="42.97" height="3.84"/><rect class="cls-47" x="284.94" y="285.24" width="42.97" height="0.92"/><rect class="cls-3" x="265.92" y="279.27" width="20.47" height="0.81"/><polygon class="cls-10" points="260.99 236.27 260.99 223.2 258.4 223.2 258.4 210.82 256.34 210.82 255 223.2 249.99 236.27 249.99 280.07 264.75 280.07 264.75 236.27 260.99 236.27"/><polygon class="cls-44" points="262.24 236.27 262.24 223.2 259.65 223.2 259.65 210.82 257.59 210.82 257.59 223.2 255 223.2 255 236.27 251.24 236.27 251.24 280.07 266 280.07 266 236.27 262.24 236.27"/><rect class="cls-45" x="251.24" y="236.27" width="2.51" height="43.81"/><rect class="cls-45" x="255" y="223.2" width="1.53" height="13.07"/><rect class="cls-42" x="261.33" y="236.27" width="1.45" height="43.81"/><rect class="cls-42" x="258.48" y="210.82" width="0.47" height="12.38"/><rect class="cls-45" x="255" y="234.96" width="7.24" height="1.31"/><rect class="cls-3" x="264.75" y="226.55" width="82.71" height="7.18"/><rect class="cls-48" x="265.9" y="226.55" width="81.56" height="6.37"/><rect class="cls-49" x="265.9" y="227.17" width="80.25" height="0.66"/><rect class="cls-49" x="343.19" y="229.71" width="5.75" height="0.66" transform="translate(576.11 -116.02) rotate(90)"/><rect class="cls-3" x="361.28" y="226.55" width="71.57" height="7.18"/><rect class="cls-48" x="362.28" y="226.55" width="70.58" height="6.37"/><rect class="cls-49" x="362.28" y="227.17" width="69.44" height="0.66"/><rect class="cls-49" x="428.77" y="229.76" width="5.75" height="0.57" transform="translate(661.68 -201.6) rotate(90)"/><rect class="cls-3" x="437.79" y="226.55" width="71.57" height="7.18"/><rect class="cls-48" x="438.79" y="226.55" width="70.58" height="6.37"/><rect class="cls-49" x="438.79" y="227.17" width="69.44" height="0.66"/><rect class="cls-49" x="505.28" y="229.76" width="5.75" height="0.57" transform="translate(738.2 -278.11) rotate(90)"/><rect class="cls-3" x="99.77" y="226.55" width="71.57" height="7.18"/><rect class="cls-48" x="100.76" y="226.55" width="70.58" height="6.37"/><rect class="cls-49" x="100.76" y="227.17" width="69.44" height="0.66"/><rect class="cls-49" x="167.25" y="229.76" width="5.75" height="0.57" transform="translate(400.17 59.92) rotate(90)"/><rect class="cls-3" x="176.28" y="226.55" width="71.57" height="7.18"/><rect class="cls-48" x="177.28" y="226.55" width="70.58" height="6.37"/><rect class="cls-49" x="177.28" y="227.17" width="69.44" height="0.66"/><rect class="cls-49" x="243.77" y="229.76" width="5.75" height="0.57" transform="translate(476.69 -16.6) rotate(90)"/><polygon class="cls-10" points="382.33 267.56 382.33 236.27 376.92 236.27 376.92 267.56 375.85 267.56 375.85 280.07 376.92 280.07 382.33 280.07 382.77 280.07 382.77 267.56 382.33 267.56"/><rect class="cls-7" x="377.73" y="236.27" width="4.6" height="43.81"/><rect class="cls-50" x="377.73" y="236.27" width="0.78" height="43.81"/><rect class="cls-46" x="380.67" y="236.39" width="0.78" height="43.08"/><rect class="cls-6" x="376.92" y="267.56" width="5.85" height="12.52"/><rect class="cls-51" x="376.92" y="267.56" width="0.81" height="12.52"/><rect class="cls-52" x="380.66" y="267.56" width="0.81" height="12.52"/><rect class="cls-53" x="377.73" y="266.76" width="4.6" height="0.8"/><rect class="cls-50" x="377.73" y="236.27" width="4.6" height="0.8"/><polygon class="cls-10" points="401.79 267.56 401.79 236.27 396.38 236.27 396.38 267.56 395.31 267.56 395.31 280.07 396.38 280.07 401.79 280.07 402.23 280.07 402.23 267.56 401.79 267.56"/><rect class="cls-7" x="397.19" y="236.27" width="4.6" height="43.81"/><rect class="cls-50" x="397.19" y="236.27" width="0.78" height="43.81"/><rect class="cls-46" x="400.13" y="236.39" width="0.78" height="43.08"/><rect class="cls-6" x="396.38" y="267.56" width="5.85" height="12.52"/><rect class="cls-51" x="396.38" y="267.56" width="0.81" height="12.52"/><rect class="cls-52" x="400.12" y="267.56" width="0.81" height="12.52"/><rect class="cls-53" x="397.19" y="266.76" width="4.6" height="0.8"/><rect class="cls-50" x="397.19" y="236.27" width="4.6" height="0.62"/><polygon class="cls-10" points="420.93 267.56 420.93 236.27 415.52 236.27 415.52 267.56 414.46 267.56 414.46 280.07 415.52 280.07 420.93 280.07 421.38 280.07 421.38 267.56 420.93 267.56"/><rect class="cls-7" x="416.34" y="236.27" width="4.6" height="43.81"/><rect class="cls-50" x="416.34" y="236.27" width="0.78" height="43.81"/><rect class="cls-46" x="419.27" y="236.39" width="0.78" height="43.08"/><rect class="cls-6" x="415.53" y="267.56" width="5.85" height="12.52"/><rect class="cls-51" x="415.53" y="267.56" width="0.81" height="12.52"/><rect class="cls-52" x="419.26" y="267.56" width="0.81" height="12.52"/><rect class="cls-53" x="416.34" y="266.76" width="4.6" height="0.8"/><rect class="cls-50" x="416.34" y="236.27" width="4.6" height="0.8"/><polygon class="cls-10" points="196.94 267.56 196.94 236.27 191.53 236.27 191.53 267.56 190.46 267.56 190.46 280.07 191.53 280.07 196.94 280.07 197.38 280.07 197.38 267.56 196.94 267.56"/><rect class="cls-7" x="192.34" y="236.27" width="4.6" height="43.81"/><rect class="cls-50" x="192.34" y="236.27" width="0.78" height="43.81"/><rect class="cls-46" x="195.28" y="236.39" width="0.78" height="43.08"/><rect class="cls-6" x="191.53" y="267.56" width="5.85" height="12.52"/><rect class="cls-51" x="191.53" y="267.56" width="0.81" height="12.52"/><rect class="cls-52" x="195.26" y="267.56" width="0.81" height="12.52"/><rect class="cls-53" x="192.34" y="266.76" width="4.6" height="0.8"/><rect class="cls-50" x="192.34" y="236.27" width="4.6" height="0.8"/><polygon class="cls-10" points="216.4 267.56 216.4 236.27 210.99 236.27 210.99 267.56 209.92 267.56 209.92 280.07 210.99 280.07 216.4 280.07 216.84 280.07 216.84 267.56 216.4 267.56"/><rect class="cls-7" x="211.8" y="236.27" width="4.6" height="43.81"/><rect class="cls-50" x="211.8" y="236.27" width="0.78" height="43.81"/><rect class="cls-46" x="214.74" y="236.39" width="0.78" height="43.08"/><rect class="cls-6" x="210.99" y="267.56" width="5.85" height="12.52"/><rect class="cls-51" x="210.99" y="267.56" width="0.81" height="12.52"/><rect class="cls-52" x="214.73" y="267.56" width="0.81" height="12.52"/><rect class="cls-53" x="211.8" y="266.76" width="4.6" height="0.8"/><rect class="cls-50" x="211.8" y="236.27" width="4.6" height="0.62"/><polygon class="cls-10" points="235.54 267.56 235.54 236.27 230.13 236.27 230.13 267.56 229.06 267.56 229.06 280.07 230.13 280.07 235.54 280.07 235.98 280.07 235.98 267.56 235.54 267.56"/><rect class="cls-7" x="230.94" y="236.27" width="4.6" height="43.81"/><rect class="cls-50" x="230.94" y="236.27" width="0.78" height="43.81"/><rect class="cls-46" x="233.88" y="236.39" width="0.78" height="43.08"/><rect class="cls-6" x="230.13" y="267.56" width="5.85" height="12.52"/><rect class="cls-51" x="230.13" y="267.56" width="0.81" height="12.52"/><rect class="cls-52" x="233.87" y="267.56" width="0.81" height="12.52"/><rect class="cls-53" x="230.94" y="266.76" width="4.6" height="0.8"/><rect class="cls-50" x="230.94" y="236.27" width="4.6" height="0.8"/><rect class="cls-7" x="326.93" y="236.27" width="20.47" height="32.54"/><polygon class="cls-43" points="337.9 265.66 337.9 267.25 336.35 267.25 336.35 267.69 337.9 267.69 338.34 267.69 338.34 267.25 338.34 265.66 337.9 265.66"/><polygon class="cls-43" points="336.47 240.26 336.47 241.85 334.92 241.85 334.92 242.3 336.47 242.3 336.91 242.3 336.91 241.85 336.91 240.26 336.47 240.26"/><polygon class="cls-43" points="334.31 243.98 334.31 245.57 332.76 245.57 332.76 246.01 334.31 246.01 334.75 246.01 334.75 245.57 334.75 243.98 334.31 243.98"/><polygon class="cls-43" points="337.55 245.53 337.55 247.12 336 247.12 336 247.56 337.55 247.56 337.99 247.56 337.99 247.12 337.99 245.53 337.55 245.53"/><polygon class="cls-43" points="332.49 248.98 332.49 250.57 330.93 250.57 330.93 251.01 332.49 251.01 332.93 251.01 332.93 250.57 332.93 248.98 332.49 248.98"/><polygon class="cls-43" points="335.73 250.53 335.73 252.12 334.17 252.12 334.17 252.56 335.73 252.56 336.17 252.56 336.17 252.12 336.17 250.53 335.73 250.53"/><polygon class="cls-43" points="340.6 238.43 340.6 240.02 339.05 240.02 339.05 240.46 340.6 240.46 341.05 240.46 341.05 240.02 341.05 238.43 340.6 238.43"/><polygon class="cls-43" points="343.84 239.97 343.84 241.57 342.29 241.57 342.29 242.01 343.84 242.01 344.29 242.01 344.29 241.57 344.29 239.97 343.84 239.97"/><polygon class="cls-43" points="340.6 249.22 340.6 250.81 339.05 250.81 339.05 251.26 340.6 251.26 341.05 251.26 341.05 250.81 341.05 249.22 340.6 249.22"/><polygon class="cls-43" points="343.84 250.77 343.84 252.36 342.29 252.36 342.29 252.81 343.84 252.81 344.29 252.81 344.29 252.36 344.29 250.77 343.84 250.77"/><polygon class="cls-43" points="337.99 254.95 337.99 256.54 336.44 256.54 336.44 256.99 337.99 256.99 338.43 256.99 338.43 256.54 338.43 254.95 337.99 254.95"/><polygon class="cls-43" points="341.23 256.5 341.23 258.09 339.68 258.09 339.68 258.53 341.23 258.53 341.67 258.53 341.67 258.09 341.67 256.5 341.23 256.5"/><polygon class="cls-43" points="331.59 256.74 331.59 258.33 330.04 258.33 330.04 258.78 331.59 258.78 332.04 258.78 332.04 258.33 332.04 256.74 331.59 256.74"/><polygon class="cls-43" points="334.83 258.29 334.83 259.88 333.28 259.88 333.28 260.33 334.83 260.33 335.28 260.33 335.28 259.88 335.28 258.29 334.83 258.29"/><polygon class="cls-43" points="338.98 261.45 338.98 263.05 337.43 263.05 337.43 263.49 338.98 263.49 339.43 263.49 339.43 263.05 339.43 261.45 338.98 261.45"/><polygon class="cls-43" points="342.22 263 342.22 264.6 340.67 264.6 340.67 265.04 342.22 265.04 342.67 265.04 342.67 264.6 342.67 263 342.22 263"/><polygon class="cls-43" points="333.55 265.04 333.55 266.63 332 266.63 332 267.07 333.55 267.07 333.99 267.07 333.99 266.63 333.99 265.04 333.55 265.04"/><polygon class="cls-43" points="332.12 239.64 332.12 241.24 330.57 241.24 330.57 241.68 332.12 241.68 332.56 241.68 332.56 241.24 332.56 239.64 332.12 239.64"/><rect class="cls-54" x="326.92" y="236.42" width="1.98" height="32.54"/><rect class="cls-46" x="343.97" y="236.65" width="1.98" height="32.16"/><rect class="cls-54" x="326.93" y="236.27" width="20.47" height="1.35"/><rect class="cls-8" x="286.39" y="236.27" width="40.53" height="43.81"/><polygon class="cls-55" points="326.93 236.27 286.39 236.27 286.39 243.63 319.33 243.63 319.33 280.07 326.71 280.07 326.71 243.63 326.93 243.63 326.93 236.27"/><rect class="cls-7" x="265.92" y="236.27" width="20.47" height="32.54"/><polygon class="cls-43" points="275.83 265.37 275.83 266.96 274.28 266.96 274.28 267.4 275.83 267.4 276.27 267.4 276.27 266.96 276.27 265.37 275.83 265.37"/><polygon class="cls-43" points="274.4 239.97 274.4 241.57 272.85 241.57 272.85 242.01 274.4 242.01 274.84 242.01 274.84 241.57 274.84 239.97 274.4 239.97"/><polygon class="cls-43" points="280.66 243.2 280.66 244.8 279.11 244.8 279.11 245.24 280.66 245.24 281.1 245.24 281.1 244.8 281.1 243.2 280.66 243.2"/><polygon class="cls-43" points="270.86 245.59 270.86 247.19 269.31 247.19 269.31 247.63 270.86 247.63 271.3 247.63 271.3 247.19 271.3 245.59 270.86 245.59"/><polygon class="cls-43" points="274.1 247.14 274.1 248.73 272.55 248.73 272.55 249.18 274.1 249.18 274.54 249.18 274.54 248.73 274.54 247.14 274.1 247.14"/><polygon class="cls-43" points="278.53 238.14 278.53 239.73 276.98 239.73 276.98 240.17 278.53 240.17 278.98 240.17 278.98 239.73 278.98 238.14 278.53 238.14"/><polygon class="cls-43" points="281.77 239.69 281.77 241.28 280.22 241.28 280.22 241.72 281.77 241.72 282.22 241.72 282.22 241.28 282.22 239.69 281.77 239.69"/><polygon class="cls-43" points="278.53 248.93 278.53 250.53 276.98 250.53 276.98 250.97 278.53 250.97 278.98 250.97 278.98 250.53 278.98 248.93 278.53 248.93"/><polygon class="cls-43" points="281.77 250.48 281.77 252.07 280.22 252.07 280.22 252.52 281.77 252.52 282.22 252.52 282.22 252.07 282.22 250.48 281.77 250.48"/><polygon class="cls-43" points="275.96 254.66 275.96 256.26 274.41 256.26 274.41 256.7 275.96 256.7 276.4 256.7 276.4 256.26 276.4 254.66 275.96 254.66"/><polygon class="cls-43" points="279.2 256.21 279.2 257.8 277.65 257.8 277.65 258.25 279.2 258.25 279.64 258.25 279.64 257.8 279.64 256.21 279.2 256.21"/><polygon class="cls-43" points="269.52 256.45 269.52 258.05 267.97 258.05 267.97 258.49 269.52 258.49 269.96 258.49 269.96 258.05 269.96 256.45 269.52 256.45"/><polygon class="cls-43" points="272.76 258 272.76 259.6 271.21 259.6 271.21 260.04 272.76 260.04 273.2 260.04 273.2 259.6 273.2 258 272.76 258"/><polygon class="cls-43" points="278.26 260.92 278.26 262.52 276.71 262.52 276.71 262.96 278.26 262.96 278.7 262.96 278.7 262.52 278.7 260.92 278.26 260.92"/><polygon class="cls-43" points="281.5 262.47 281.5 264.06 279.95 264.06 279.95 264.51 281.5 264.51 281.94 264.51 281.94 264.06 281.94 262.47 281.5 262.47"/><polygon class="cls-43" points="271.48 264.75 271.48 266.34 269.93 266.34 269.93 266.79 271.48 266.79 271.92 266.79 271.92 266.34 271.92 264.75 271.48 264.75"/><polygon class="cls-43" points="270.05 239.35 270.05 240.95 268.5 240.95 268.5 241.39 270.05 241.39 270.49 241.39 270.49 240.95 270.49 239.35 270.05 239.35"/><rect class="cls-54" x="265.89" y="236.27" width="1.98" height="32.54"/><rect class="cls-46" x="282.95" y="236.5" width="1.98" height="32.31"/><rect class="cls-54" x="265.92" y="236.27" width="20.47" height="1.35"/><rect class="cls-3" x="264.75" y="236.27" width="1.17" height="43.81"/><rect class="cls-3" x="438.62" y="237.43" width="16.34" height="31.11" rx="1.26"/><rect class="cls-8" x="439.62" y="237.43" width="15.35" height="29.91" rx="1.26"/><path class="cls-9" d="M452.1,237.43v.79H440.43c-.45,0-.81,1-.81,2.22v5H452.1v21.23h2.67c.11,0,.2-.25.2-.56V239.66c0-1.23-.37-2.23-.82-2.23Z"/><rect class="cls-7" x="439.62" y="237.43" width="15.35" height="2.46" rx="0.49"/><rect class="cls-7" x="439.62" y="264.88" width="15.35" height="2.46" rx="0.49"/><rect class="cls-7" x="443.24" y="251.94" width="22.55" height="0.91" rx="0.45" transform="translate(706.9 -202.12) rotate(90)"/><rect class="cls-7" x="428.79" y="252.1" width="22.55" height="0.91" rx="0.45" transform="translate(692.63 -187.51) rotate(90)"/><rect class="cls-3" x="456.76" y="237.43" width="16.34" height="31.11" rx="1.26"/><rect class="cls-8" x="457.76" y="237.43" width="15.35" height="29.91" rx="1.26"/><path class="cls-9" d="M470.24,237.43v.79H458.58c-.46,0-.82,1-.82,2.22v5h12.48v21.23h2.66c.11,0,.21-.25.21-.56V239.66c0-1.23-.37-2.23-.82-2.23Z"/><rect class="cls-7" x="457.76" y="237.43" width="15.35" height="2.46" rx="0.49"/><rect class="cls-7" x="457.76" y="264.88" width="15.35" height="2.46" rx="0.49"/><rect class="cls-7" x="461.38" y="251.94" width="22.55" height="0.91" rx="0.45" transform="translate(725.04 -220.27) rotate(90)"/><rect class="cls-7" x="446.93" y="252.1" width="22.55" height="0.91" rx="0.45" transform="translate(710.77 -205.65) rotate(90)"/><rect class="cls-3" x="475.02" y="237.17" width="16.34" height="31.11" rx="1.26"/><rect class="cls-8" x="476.01" y="237.17" width="15.35" height="29.91" rx="1.26"/><path class="cls-9" d="M488.49,237.17V238H476.83c-.45,0-.82,1-.82,2.23v5h12.48v21.23h2.66c.12,0,.21-.25.21-.56V239.4c0-1.23-.37-2.23-.82-2.23Z"/><rect class="cls-7" x="476.01" y="237.17" width="15.35" height="2.46" rx="0.49"/><rect class="cls-7" x="476.01" y="264.62" width="15.35" height="2.46" rx="0.49"/><rect class="cls-7" x="479.63" y="251.67" width="22.55" height="0.91" rx="0.45" transform="translate(743.03 -238.78) rotate(90)"/><rect class="cls-7" x="465.19" y="251.84" width="22.55" height="0.91" rx="0.45" transform="translate(728.76 -224.17) rotate(90)"/><rect class="cls-3" x="493.16" y="237.17" width="16.34" height="31.11" rx="1.26"/><rect class="cls-8" x="494.15" y="237.17" width="15.35" height="29.91" rx="1.26"/><path class="cls-9" d="M506.63,237.17V238H495c-.45,0-.82,1-.82,2.23v5h12.48v21.23h2.66c.12,0,.21-.25.21-.56V239.4c0-1.23-.36-2.23-.82-2.23Z"/><rect class="cls-7" x="494.15" y="237.17" width="15.35" height="2.46" rx="0.49"/><rect class="cls-7" x="494.15" y="264.62" width="15.35" height="2.46" rx="0.49"/><rect class="cls-7" x="497.77" y="251.67" width="22.55" height="0.91" rx="0.45" transform="translate(761.17 -256.92) rotate(90)"/><rect class="cls-7" x="483.33" y="251.84" width="22.55" height="0.91" rx="0.45" transform="translate(746.9 -242.31) rotate(90)"/><ellipse class="cls-7" cx="447.37" cy="252.59" rx="4.61" ry="4.79"/><ellipse class="cls-7" cx="465.81" cy="252.59" rx="4.61" ry="4.79"/><ellipse class="cls-7" cx="483.74" cy="252.59" rx="4.61" ry="4.79"/><ellipse class="cls-7" cx="502.18" cy="252.59" rx="4.61" ry="4.79"/><rect class="cls-3" x="100.41" y="237.43" width="16.34" height="31.11" rx="1.26"/><rect class="cls-8" x="101.41" y="237.43" width="15.35" height="29.91" rx="1.26"/><path class="cls-9" d="M113.89,237.43v.79H102.23c-.46,0-.82,1-.82,2.22v5h12.48v21.23h2.66c.11,0,.21-.25.21-.56V239.66c0-1.23-.37-2.23-.82-2.23Z"/><rect class="cls-7" x="101.41" y="237.43" width="15.35" height="2.46" rx="0.49"/><rect class="cls-7" x="101.41" y="264.88" width="15.35" height="2.46" rx="0.49"/><rect class="cls-7" x="105.03" y="251.94" width="22.55" height="0.91" rx="0.45" transform="translate(368.69 136.08) rotate(90)"/><rect class="cls-7" x="90.58" y="252.1" width="22.55" height="0.91" rx="0.45" transform="translate(354.42 150.7) rotate(90)"/><rect class="cls-3" x="118.56" y="237.43" width="16.34" height="31.11" rx="1.26"/><rect class="cls-8" x="119.55" y="237.43" width="15.35" height="29.91" rx="1.26"/><path class="cls-9" d="M132,237.43v.79H120.37c-.45,0-.82,1-.82,2.22v5H132v21.23h2.66c.12,0,.21-.25.21-.56V239.66c0-1.23-.37-2.23-.82-2.23Z"/><rect class="cls-7" x="119.55" y="237.43" width="15.35" height="2.46" rx="0.49"/><rect class="cls-7" x="119.55" y="264.88" width="15.35" height="2.46" rx="0.49"/><rect class="cls-7" x="123.17" y="251.94" width="22.55" height="0.91" rx="0.45" transform="translate(386.84 117.94) rotate(90)"/><rect class="cls-7" x="108.73" y="252.1" width="22.55" height="0.91" rx="0.45" transform="translate(372.56 132.55) rotate(90)"/><rect class="cls-3" x="136.81" y="237.17" width="16.34" height="31.11" rx="1.26"/><rect class="cls-8" x="137.8" y="237.17" width="15.35" height="29.91" rx="1.26"/><path class="cls-9" d="M150.28,237.17V238H138.62c-.45,0-.82,1-.82,2.23v5h12.48v21.23h2.66c.12,0,.21-.25.21-.56V239.4c0-1.23-.36-2.23-.82-2.23Z"/><rect class="cls-7" x="137.8" y="237.17" width="15.35" height="2.46" rx="0.49"/><rect class="cls-7" x="137.8" y="264.62" width="15.35" height="2.46" rx="0.49"/><rect class="cls-7" x="141.42" y="251.67" width="22.55" height="0.91" rx="0.45" transform="translate(404.82 99.43) rotate(90)"/><rect class="cls-7" x="126.98" y="251.84" width="22.55" height="0.91" rx="0.45" transform="translate(390.55 114.04) rotate(90)"/><rect class="cls-3" x="154.95" y="237.17" width="16.34" height="31.11" rx="1.26"/><rect class="cls-8" x="155.94" y="237.17" width="15.35" height="29.91" rx="1.26"/><path class="cls-9" d="M168.42,237.17V238H156.76c-.45,0-.82,1-.82,2.23v5h12.48v21.23h2.67c.11,0,.2-.25.2-.56V239.4c0-1.23-.36-2.23-.82-2.23Z"/><rect class="cls-7" x="155.94" y="237.17" width="15.35" height="2.46" rx="0.49"/><rect class="cls-7" x="155.94" y="264.62" width="15.35" height="2.46" rx="0.49"/><rect class="cls-7" x="159.56" y="251.67" width="22.55" height="0.91" rx="0.45" transform="translate(422.97 81.28) rotate(90)"/><rect class="cls-7" x="145.12" y="251.84" width="22.55" height="0.91" rx="0.45" transform="translate(408.69 95.9) rotate(90)"/><ellipse class="cls-7" cx="109.16" cy="252.59" rx="4.61" ry="4.79"/><ellipse class="cls-7" cx="127.6" cy="252.59" rx="4.61" ry="4.79"/><ellipse class="cls-7" cx="145.53" cy="252.59" rx="4.61" ry="4.79"/><ellipse class="cls-7" cx="163.97" cy="252.59" rx="4.61" ry="4.79"/><rect class="cls-56" x="91.91" y="211.65" width="425.42" height="67.54"/><rect class="cls-7" x="355.06" y="210.58" width="8.79" height="69.66"/><rect class="cls-7" x="247" y="210.58" width="8.79" height="69.66"/><rect class="cls-7" x="193.41" y="210.58" width="8.79" height="69.66"/><rect class="cls-7" x="411.29" y="210.58" width="8.79" height="69.66"/><g class="cls-57"><circle class="cls-58" cx="197.73" cy="211.11" r="11.17"/></g><g class="cls-59"><circle class="cls-58" cx="251.44" cy="211.11" r="11.17"/></g><g class="cls-60"><circle class="cls-58" cx="358.86" cy="211.11" r="11.17"/></g><g class="cls-61"><circle class="cls-58" cx="414.69" cy="211.11" r="11.17"/></g><polygon class="cls-62" points="323.18 50.66 323.17 50.66 323.17 50.66 323.18 50.66"/><path class="cls-63" d="M323.17,50.66a3.66,3.66,0,0,0-.94,1Z"/></g></g></svg>