<svg xmlns="http://www.w3.org/2000/svg" viewBox="0 0 783.14 313.94"><defs><style>.cls-1{fill:#fff9f0;}.cls-11,.cls-12,.cls-2,.cls-7,.cls-8{fill:none;stroke:#c42c2c;stroke-miterlimit:10;}.cls-2{stroke-width:1.48px;}.cls-3{fill:#f9dfb4;opacity:0.64;}.cls-10,.cls-4{fill:#c42c2c;}.cls-5{fill:#e9c024;}.cls-6{fill:#006156;}.cls-7{stroke-width:0.72px;}.cls-8{stroke-width:1.04px;}.cls-9{fill:#fff;}.cls-10{opacity:0.4;}.cls-11{stroke-width:0.95px;}.cls-12{stroke-width:0.8px;}</style></defs><title>mp</title><g id="图层_2" data-name="图层 2"><g id="图层_1-2" data-name="图层 1"><rect class="cls-1" x="0.26" y="3.34" width="781.66" height="284.16"/><rect class="cls-2" x="0.74" y="0.74" width="781.66" height="284.16"/><polygon class="cls-3" points="146.58 77.6 133.23 77.6 126.56 89.25 133.23 100.9 146.58 100.9 153.25 89.25 146.58 77.6"/><polygon class="cls-3" points="146.58 186.89 133.23 186.89 126.56 198.54 133.23 210.2 146.58 210.2 153.25 198.54 146.58 186.89"/><polygon class="cls-3" points="221.32 77.6 207.97 77.6 201.3 89.25 207.97 100.9 221.32 100.9 227.99 89.25 221.32 77.6"/><polygon class="cls-3" points="221.32 186.89 207.97 186.89 201.3 198.54 207.97 210.2 221.32 210.2 227.99 198.54 221.32 186.89"/><polygon class="cls-3" points="274.36 77.6 261.01 77.6 254.34 89.25 261.01 100.9 274.36 100.9 281.03 89.25 274.36 77.6"/><polygon class="cls-3" points="274.36 186.89 261.01 186.89 254.34 198.54 261.01 210.2 274.36 210.2 281.03 198.54 274.36 186.89"/><circle class="cls-4" cx="639.89" cy="191.31" r="3.77"/><circle class="cls-4" cx="621.29" cy="191.28" r="3.77"/><circle class="cls-4" cx="605.98" cy="191.25" r="3.77"/><circle class="cls-4" cx="588.33" cy="191.21" r="3.77"/><circle class="cls-4" cx="571.14" cy="191.18" r="3.77"/><circle class="cls-4" cx="555.13" cy="191.15" r="3.77"/><circle class="cls-4" cx="540.3" cy="191.12" r="3.77"/><circle class="cls-4" cx="639.92" cy="174.83" r="3.77"/><circle class="cls-4" cx="621.32" cy="174.8" r="3.77"/><circle class="cls-4" cx="606.02" cy="174.77" r="3.77"/><circle class="cls-4" cx="588.36" cy="174.73" r="3.77"/><circle class="cls-4" cx="571.17" cy="174.7" r="3.77"/><circle class="cls-4" cx="555.16" cy="174.66" r="3.77"/><circle class="cls-4" cx="540.33" cy="174.64" r="3.77"/><circle class="cls-4" cx="639.95" cy="157.88" r="3.77"/><circle class="cls-4" cx="621.35" cy="157.85" r="3.77"/><circle class="cls-4" cx="606.05" cy="157.82" r="3.77"/><circle class="cls-4" cx="588.39" cy="157.78" r="3.77"/><circle class="cls-4" cx="571.21" cy="157.75" r="3.77"/><circle class="cls-4" cx="555.2" cy="157.71" r="3.77"/><circle class="cls-4" cx="540.37" cy="157.68" r="3.77"/><circle class="cls-4" cx="655.66" cy="191.35" r="3.77"/><circle class="cls-4" cx="639.89" cy="206.86" r="3.77"/><circle class="cls-4" cx="621.29" cy="206.82" r="3.77"/><circle class="cls-4" cx="605.98" cy="206.79" r="3.77"/><circle class="cls-4" cx="588.33" cy="206.76" r="3.77"/><circle class="cls-4" cx="571.14" cy="206.72" r="3.77"/><circle class="cls-4" cx="555.13" cy="206.69" r="3.77"/><circle class="cls-4" cx="540.3" cy="206.66" r="3.77"/><circle class="cls-4" cx="655.66" cy="206.89" r="3.77"/><circle class="cls-4" cx="655.69" cy="174.87" r="3.77"/><circle class="cls-4" cx="655.73" cy="157.91" r="3.77"/><circle class="cls-4" cx="641.52" cy="130.84" r="3.77"/><circle class="cls-4" cx="622.92" cy="130.8" r="3.77"/><circle class="cls-4" cx="606.2" cy="130.77" r="3.77"/><circle class="cls-4" cx="588.55" cy="130.73" r="3.77"/><circle class="cls-4" cx="571.36" cy="130.7" r="3.77"/><circle class="cls-4" cx="555.35" cy="130.67" r="3.77"/><circle class="cls-4" cx="540.52" cy="130.64" r="3.77"/><circle class="cls-4" cx="641.55" cy="114.36" r="3.77"/><circle class="cls-4" cx="622.95" cy="114.32" r="3.77"/><circle class="cls-4" cx="606.24" cy="114.29" r="3.77"/><circle class="cls-4" cx="588.58" cy="114.25" r="3.77"/><circle class="cls-4" cx="571.39" cy="114.22" r="3.77"/><circle class="cls-4" cx="555.38" cy="114.18" r="3.77"/><circle class="cls-4" cx="540.55" cy="114.16" r="3.77"/><circle class="cls-4" cx="641.58" cy="99.29" r="3.77"/><circle class="cls-4" cx="622.98" cy="99.25" r="3.77"/><circle class="cls-4" cx="606.27" cy="99.22" r="3.77"/><circle class="cls-4" cx="588.61" cy="99.18" r="3.77"/><circle class="cls-4" cx="571.42" cy="99.15" r="3.77"/><circle class="cls-4" cx="555.41" cy="99.12" r="3.77"/><circle class="cls-4" cx="540.58" cy="99.09" r="3.77"/><circle class="cls-4" cx="641.62" cy="81.87" r="3.77"/><circle class="cls-4" cx="623.02" cy="81.83" r="3.77"/><circle class="cls-4" cx="606.3" cy="81.8" r="3.77"/><circle class="cls-4" cx="588.64" cy="81.76" r="3.77"/><circle class="cls-4" cx="571.46" cy="81.73" r="3.77"/><circle class="cls-4" cx="555.45" cy="81.7" r="3.77"/><circle class="cls-4" cx="540.62" cy="81.67" r="3.77"/><circle class="cls-4" cx="655.88" cy="130.87" r="3.77"/><circle class="cls-4" cx="655.91" cy="114.39" r="3.77"/><circle class="cls-4" cx="655.94" cy="99.32" r="3.77"/><circle class="cls-4" cx="655.98" cy="81.9" r="3.77"/><circle class="cls-5" cx="86.45" cy="114.33" r="3.77"/><circle class="cls-5" cx="86.48" cy="97.85" r="3.77"/><circle class="cls-5" cx="86.51" cy="82.78" r="3.77"/><circle class="cls-5" cx="86.55" cy="65.36" r="3.77"/><circle class="cls-5" cx="86.2" cy="222.89" r="3.77"/><circle class="cls-5" cx="86.23" cy="205.94" r="3.77"/><circle class="cls-5" cx="86.27" cy="189.46" r="3.77"/><circle class="cls-5" cx="86.3" cy="172.51" r="3.77"/><circle class="cls-5" cx="71.6" cy="222.86" r="3.77"/><circle class="cls-5" cx="71.64" cy="205.91" r="3.77"/><circle class="cls-5" cx="71.67" cy="189.43" r="3.77"/><circle class="cls-5" cx="71.7" cy="172.48" r="3.77"/><circle class="cls-5" cx="71.86" cy="114.3" r="3.77"/><circle class="cls-5" cx="71.89" cy="97.82" r="3.77"/><circle class="cls-5" cx="71.92" cy="82.75" r="3.77"/><circle class="cls-5" cx="71.95" cy="65.33" r="3.77"/><circle class="cls-6" cx="122.74" cy="221.49" r="3.77"/><circle class="cls-6" cx="122.77" cy="205.67" r="3.77"/><circle class="cls-6" cx="122.81" cy="189.84" r="3.77"/><circle class="cls-6" cx="122.84" cy="174.01" r="3.77"/><circle class="cls-6" cx="122.99" cy="112.21" r="3.77"/><circle class="cls-6" cx="123.02" cy="97.09" r="3.77"/><circle class="cls-6" cx="123.05" cy="81.97" r="3.77"/><circle class="cls-6" cx="123.09" cy="66.86" r="3.77"/><circle class="cls-6" cx="213.49" cy="221.47" r="3.77"/><circle class="cls-6" cx="214.29" cy="198.97" r="3.77"/><circle class="cls-6" cx="213.58" cy="174.85" r="3.77"/><circle class="cls-6" cx="185.36" cy="221.47" r="3.77"/><circle class="cls-6" cx="185.36" cy="174.08" r="3.77"/><circle class="cls-6" cx="139.36" cy="198.96" r="3.77"/><circle class="cls-6" cx="185.36" cy="113" r="3.77"/><circle class="cls-6" cx="185.36" cy="66.25" r="3.77"/><circle class="cls-6" cx="139.6" cy="89.16" r="3.77"/><circle class="cls-6" cx="241.73" cy="221.47" r="3.77"/><circle class="cls-6" cx="241.76" cy="206.01" r="3.77"/><circle class="cls-6" cx="241.79" cy="190.43" r="3.77"/><circle class="cls-6" cx="241.82" cy="174.85" r="3.77"/><circle class="cls-6" cx="213.49" cy="112.28" r="3.77"/><circle class="cls-6" cx="214.32" cy="89.46" r="3.77"/><circle class="cls-6" cx="213.58" cy="65.53" r="3.77"/><circle class="cls-6" cx="241.73" cy="112.28" r="3.77"/><circle class="cls-6" cx="241.76" cy="96.69" r="3.77"/><circle class="cls-6" cx="241.79" cy="81.11" r="3.77"/><circle class="cls-6" cx="241.82" cy="65.53" r="3.77"/><circle class="cls-6" cx="280.93" cy="221.47" r="3.77"/><circle class="cls-6" cx="281.03" cy="174.08" r="3.77"/><circle class="cls-6" cx="268.23" cy="198.96" r="3.77"/><circle class="cls-6" cx="281.18" cy="113" r="3.77"/><circle class="cls-6" cx="281.28" cy="66.25" r="3.77"/><circle class="cls-6" cx="268.55" cy="89.96" r="3.77"/><polygon class="cls-7" points="146.41 77.46 133.13 77.46 126.49 88.96 133.13 100.46 146.41 100.46 153.05 88.96 146.41 77.46"/><circle class="cls-7" cx="139.77" cy="89.2" r="3.83"/><polygon class="cls-7" points="146.41 186.73 133.13 186.73 126.49 198.23 133.13 209.73 146.41 209.73 153.05 198.23 146.41 186.73"/><circle class="cls-7" cx="139.77" cy="199.19" r="3.83"/><polygon class="cls-7" points="221.17 186.73 207.89 186.73 201.25 198.23 207.89 209.73 221.17 209.73 227.81 198.23 221.17 186.73"/><polygon class="cls-7" points="221.17 77.46 207.89 77.46 201.25 88.96 207.89 100.46 221.17 100.46 227.81 88.96 221.17 77.46"/><circle class="cls-7" cx="214.53" cy="89.92" r="3.83"/><polygon class="cls-7" points="274.85 77.46 261.57 77.46 254.93 88.96 261.57 100.46 274.85 100.46 281.49 88.96 274.85 77.46"/><circle class="cls-7" cx="268.21" cy="89.92" r="3.83"/><polygon class="cls-7" points="274.85 186.73 261.57 186.73 254.93 198.23 261.57 209.73 274.85 209.73 281.49 198.23 274.85 186.73"/><circle class="cls-7" cx="268.21" cy="199.19" r="3.83"/><polyline class="cls-8" points="179.65 60.21 179.65 118.67 108.14 118.67 108.14 60.21 342.97 60.21"/><polyline class="cls-8" points="190.57 60.21 190.57 118.67 319.01 118.67 319.01 93.75 335.3 93.75"/><polyline class="cls-8" points="179.07 226.99 179.07 168.52 108.14 168.52 108.14 226.99 341.06 226.99"/><polyline class="cls-8" points="190.57 227.94 190.57 168.52 319.01 168.52 319.01 193.44 335.3 193.44"/><rect class="cls-9" x="317.09" y="63.08" width="25.88" height="27.8"/><rect class="cls-8" x="335.3" y="93.75" width="92.98" height="99.69"/><polyline class="cls-8" points="400.48 97.59 400.48 192.48 400.48 226.99 455.12 226.99 455.12 258.62 729.25 258.62"/><polyline class="cls-8" points="400.48 189.6 400.48 94.71 400.48 60.21 455.12 60.21 455.12 28.57 729.25 28.57"/><line class="cls-7" x1="407.51" y1="93.91" x2="407.51" y2="192.82"/><line class="cls-7" x1="414.54" y1="93.91" x2="414.54" y2="192.82"/><line class="cls-7" x1="421.57" y1="93.91" x2="421.57" y2="192.82"/><path class="cls-7" d="M367.89,93.91v8.47H357.35a16.47,16.47,0,0,0,9.58,7.67s-5.75,2.87-8.14,8.15h9.1v13.89H353.52s2.87,6.71,14.37,11.51"/><path class="cls-7" d="M367.89,193.72v-9.06H357.35a16.47,16.47,0,0,1,9.58-7.67s-5.75-2.88-8.14-8.15h9.1v-13.9H353.52s2.87-6.71,14.37-11.5"/><rect class="cls-7" x="460.87" y="34.33" width="85.31" height="25.88"/><rect class="cls-7" x="643.94" y="34.33" width="85.31" height="25.88"/><rect class="cls-10" x="460.87" y="34.33" width="85.31" height="25.88"/><rect class="cls-10" x="643.94" y="34.33" width="85.31" height="25.88"/><rect class="cls-10" x="460.87" y="226.21" width="85.31" height="25.88"/><rect class="cls-10" x="643.94" y="226.21" width="85.31" height="25.88"/><rect class="cls-9" x="318.05" y="196.31" width="23" height="27.8"/><path class="cls-4" d="M340.47,299.33c2.26,0,3.69.44,4.68,1.39a4.65,4.65,0,0,1,1.36,3.42,5.28,5.28,0,0,1-2,4.33,7.64,7.64,0,0,1-4.74,1.26H336v-.45c1.38-.13,1.44-.24,1.44-1.55v-6.39c0-1.37-.19-1.44-1.44-1.57v-.44Zm-1.61,8.27c0,1.2.51,1.54,1.71,1.54,2.88,0,4.35-2,4.35-4.77a4.15,4.15,0,0,0-1.85-3.84,5,5,0,0,0-2.74-.64,2.25,2.25,0,0,0-1.26.22c-.15.1-.21.27-.21.9Z"/><path class="cls-4" d="M353,309.92a1.19,1.19,0,0,1-.75-.3,1.48,1.48,0,0,1-.38-.72,5,5,0,0,1-1.93,1,2,2,0,0,1-1.95-2,1.63,1.63,0,0,1,1.31-1.6,12,12,0,0,0,2.53-1V305c0-1.13-.57-1.79-1.4-1.79a1,1,0,0,0-.76.37,3.38,3.38,0,0,0-.43,1,.45.45,0,0,1-.46.37.77.77,0,0,1-.71-.71c0-.22.21-.41.53-.64a6.72,6.72,0,0,1,2.31-1.12,2.26,2.26,0,0,1,1.34.43,2.23,2.23,0,0,1,.82,1.86v3.09c0,.74.27,1,.56,1a1.19,1.19,0,0,0,.57-.18l.16.45Zm-1.17-4.05c-.35.18-1.12.51-1.48.67-.61.28-1,.58-1,1.17a1.17,1.17,0,0,0,1.15,1.24,2.12,2.12,0,0,0,1.31-.58Z"/><path class="cls-4" d="M361,308.29a3.78,3.78,0,0,1-2.73,1.63,3.23,3.23,0,0,1-3.24-3.36,3.82,3.82,0,0,1,1.62-3.14,4.28,4.28,0,0,1,2.43-.91,2.44,2.44,0,0,1,1.49.43.53.53,0,0,1,.26.47.81.81,0,0,1-.58.72c-.08,0-.14,0-.3-.16a2.37,2.37,0,0,0-1.62-.67c-1.06,0-2,.89-2,2.56,0,2.22,1.5,3,2.43,3a2.58,2.58,0,0,0,2-.88Z"/><path class="cls-4" d="M366.2,309.73v-.45c.93-.09,1.06-.17,1.06-1.23v-2.63c0-1.32-.51-2-1.59-2a2.28,2.28,0,0,0-1.69.83v3.78c0,1,.12,1.14,1.09,1.23v.45h-3.49v-.45c.92-.08,1.13-.16,1.13-1.23v-7.72c0-.84,0-1.05-1.12-1.15v-.41a9.69,9.69,0,0,0,2.39-.55v5.46a3.57,3.57,0,0,1,2.32-1.17c1.31,0,2.22.82,2.22,2.74v2.82c0,1.05.13,1.13,1.06,1.21v.45Z"/><path class="cls-4" d="M376.3,308.37a3.66,3.66,0,0,1-2.66,1.55,3.2,3.2,0,0,1-3.14-3.44,4.13,4.13,0,0,1,1-2.8,3.32,3.32,0,0,1,2.39-1.17,2.5,2.5,0,0,1,2.45,2.48c0,.32-.07.47-.32.53s-2.37.21-4.28.27c0,2.15,1.27,3,2.41,3A2.68,2.68,0,0,0,376,308Zm-2.75-5.25c-.74,0-1.46.69-1.69,2,.9,0,1.8,0,2.74,0,.29,0,.39-.08.39-.32A1.5,1.5,0,0,0,373.55,303.12Z"/><path class="cls-4" d="M381.93,309.73v-.45c.93-.09,1-.21,1-1.29v-2.65c0-1.12-.4-1.87-1.45-1.87a2.84,2.84,0,0,0-1.78.83v3.75c0,1.1.1,1.14,1,1.23v.45H377.3v-.45c1.06-.11,1.16-.17,1.16-1.23v-3.3c0-1-.12-1.09-1-1.23v-.42a8.53,8.53,0,0,0,2.24-.64v1.27c.32-.23.67-.47,1.09-.74a2.43,2.43,0,0,1,1.33-.48c1.28,0,2.08.95,2.08,2.5v3c0,1.09.09,1.14,1,1.23v.45Z"/><path class="cls-4" d="M388.3,307.39a1.17,1.17,0,0,0-.53.8c0,.29.27.61,1,.61h1.79c1,0,2.34.33,2.34,1.92s-2,3.23-4.1,3.23c-1.81,0-2.78-1.06-2.81-2a1.24,1.24,0,0,1,.4-.91,14.47,14.47,0,0,1,1.31-1.16,2.06,2.06,0,0,1-1.2-.86,1.39,1.39,0,0,1-.19-.69,3.4,3.4,0,0,0,1.47-1.1Zm.77.16a2.49,2.49,0,0,1-2.73-2.41,2.77,2.77,0,0,1,2.89-2.68,3.36,3.36,0,0,1,1.53.4,10.24,10.24,0,0,0,2.15-.24l.09.15a2,2,0,0,1-.59.85c-.24,0-.77-.07-1-.08a2.46,2.46,0,0,1,.46,1.45A2.59,2.59,0,0,1,389.07,307.55Zm.36,2.37a2,2,0,0,0-1.42.34,1.85,1.85,0,0,0-.77,1.31c0,.88.91,1.54,2.15,1.54,1.52,0,2.38-.79,2.38-1.81a1.21,1.21,0,0,0-.7-1.17A4.24,4.24,0,0,0,389.43,309.92Zm-.36-6.94c-.72,0-1.36.65-1.36,1.92s.64,2.14,1.52,2.14c.7,0,1.32-.62,1.32-1.92S390,303,389.07,303Z"/><path class="cls-4" d="M407.92,305.36c-1,.13-1.06.22-1.06,1.17v1.34a8.74,8.74,0,0,0,.1,1.52,16,16,0,0,1-3.64.58c-3.63,0-5.84-2.26-5.84-5.47,0-3.38,2.75-5.4,5.95-5.4a16.25,16.25,0,0,1,3.33.4c0,.59.12,1.57.24,2.58l-.48.1c-.38-1.37-.84-1.94-1.85-2.28a5.36,5.36,0,0,0-1.49-.21c-2.45,0-4,1.68-4,4.61,0,2.55,1.32,5.08,4.42,5.08a3.18,3.18,0,0,0,1.36-.27,1,1,0,0,0,.55-1v-1.31c0-1.17-.13-1.3-1.67-1.41v-.46h4.12Z"/><path class="cls-4" d="M414.17,309.92a1.19,1.19,0,0,1-.75-.3,1.49,1.49,0,0,1-.39-.72,5,5,0,0,1-1.92,1,2,2,0,0,1-1.95-2,1.63,1.63,0,0,1,1.31-1.6,12,12,0,0,0,2.53-1V305c0-1.13-.58-1.79-1.41-1.79a.93.93,0,0,0-.75.37,3.15,3.15,0,0,0-.43,1,.46.46,0,0,1-.47.37.77.77,0,0,1-.7-.71c0-.22.21-.41.53-.64a6.75,6.75,0,0,1,2.3-1.12,2.29,2.29,0,0,1,1.35.43,2.22,2.22,0,0,1,.81,1.86v3.09c0,.74.28,1,.56,1a1.23,1.23,0,0,0,.58-.18l.16.45ZM413,305.87c-.35.18-1.12.51-1.49.67-.61.28-1,.58-1,1.17a1.17,1.17,0,0,0,1.15,1.24,2.14,2.14,0,0,0,1.31-.58Z"/><path class="cls-4" d="M419.18,309.71a1.58,1.58,0,0,1-.69.21c-1,0-1.57-.62-1.57-1.9v-4.66h-1.1l-.07-.19.43-.47h.74v-1.34c.3-.32.77-.74,1.07-1.06l.24,0c0,.68-.05,1.61-.05,2.37H420a.51.51,0,0,1-.1.66h-1.73v4.1c0,1.29.52,1.53.93,1.53a2.34,2.34,0,0,0,1-.25l.14.41Z"/><path class="cls-4" d="M426.51,308.37a3.66,3.66,0,0,1-2.66,1.55,3.2,3.2,0,0,1-3.14-3.44,4.13,4.13,0,0,1,1-2.8,3.29,3.29,0,0,1,2.39-1.17,2.5,2.5,0,0,1,2.45,2.48c0,.32-.07.47-.32.53s-2.37.21-4.28.27c-.05,2.15,1.27,3,2.4,3a2.68,2.68,0,0,0,1.86-.82Zm-2.76-5.25c-.73,0-1.45.69-1.68,2,.9,0,1.79,0,2.74,0,.29,0,.38-.08.38-.32A1.49,1.49,0,0,0,423.75,303.12Z"/><path class="cls-4" d="M167.53,298.87c2.25,0,3.68.45,4.67,1.4a4.61,4.61,0,0,1,1.36,3.42,5.27,5.27,0,0,1-2,4.32,7.56,7.56,0,0,1-4.74,1.27h-3.74v-.45c1.37-.13,1.44-.24,1.44-1.55v-6.39c0-1.38-.19-1.44-1.44-1.57v-.45Zm-1.62,8.28c0,1.2.51,1.54,1.71,1.54,2.89,0,4.36-2,4.36-4.77a4.17,4.17,0,0,0-1.86-3.85,5.11,5.11,0,0,0-2.74-.64,2.22,2.22,0,0,0-1.26.23c-.14.09-.21.27-.21.89Z"/><path class="cls-4" d="M178.52,309.28h-3.68v-.45c1-.1,1.1-.18,1.1-1.22v-3.33c0-1-.06-1.1-1-1.21v-.4a8.84,8.84,0,0,0,2.26-.66v1.76c.56-.83,1.23-1.71,2-1.71a.83.83,0,0,1,.93.77,1.07,1.07,0,0,1-.55.88.32.32,0,0,1-.41,0,1,1,0,0,0-.72-.4c-.34,0-.93.49-1.28,1.31v3c0,1,.08,1.13,1.31,1.23Z"/><path class="cls-4" d="M188.74,308.91a18.1,18.1,0,0,0-2.44.56v-1.23a4,4,0,0,1-2.45,1.23c-1.08,0-2-.66-2-2.4V304c0-.86-.13-1-.53-1l-.45-.08v-.41a20.39,20.39,0,0,0,2.29-.29c0,.51,0,1.28,0,2.34v2.17c0,1.41.74,1.81,1.46,1.81a2.51,2.51,0,0,0,1.73-.77V304c0-.86-.2-1-.74-1l-.51-.07v-.41a24.27,24.27,0,0,0,2.51-.29v5.36c0,.8.13.91.74.95h.44Z"/><path class="cls-4" d="M198.33,309.28v-.45c.94-.1,1.06-.16,1.06-1.28v-2.67c0-1.14-.39-1.86-1.38-1.86a3,3,0,0,0-1.78.83,5.65,5.65,0,0,1,.05.69v3.11c0,1,.14,1.08,1,1.18v.45h-3.42v-.45c1-.1,1.14-.16,1.14-1.22v-2.75c0-1.18-.37-1.84-1.35-1.84a3.07,3.07,0,0,0-1.76.83v3.76c0,1.06.11,1.12,1,1.22v.45h-3.44v-.45c1.06-.1,1.16-.16,1.16-1.22V304.3c0-1-.07-1.09-1-1.25v-.4a8.51,8.51,0,0,0,2.22-.64v1.3a10.6,10.6,0,0,1,1.18-.83,2.2,2.2,0,0,1,1.27-.42,1.87,1.87,0,0,1,1.74,1.31c.45-.35.87-.62,1.27-.89a2.37,2.37,0,0,1,1.26-.42c1.25,0,2,.9,2,2.46v3.09c0,1.08.1,1.12,1,1.22v.45Z"/><path class="cls-4" d="M211.4,309.28v-.45c.95-.1,1.06-.16,1.06-1.28v-2.67c0-1.14-.39-1.86-1.38-1.86a3,3,0,0,0-1.78.83,5.65,5.65,0,0,1,0,.69v3.11c0,1,.15,1.08,1,1.18v.45H207v-.45c1-.1,1.14-.16,1.14-1.22v-2.75c0-1.18-.37-1.84-1.35-1.84a3.07,3.07,0,0,0-1.76.83v3.76c0,1.06.11,1.12,1,1.22v.45h-3.44v-.45c1.05-.1,1.15-.16,1.15-1.22V304.3c0-1-.07-1.09-1-1.25v-.4A8.51,8.51,0,0,0,205,302v1.3a9.94,9.94,0,0,1,1.19-.83,2.14,2.14,0,0,1,1.26-.42,1.88,1.88,0,0,1,1.75,1.31c.44-.35.86-.62,1.26-.89a2.38,2.38,0,0,1,1.27-.42c1.24,0,2,.9,2,2.46v3.09c0,1.08.1,1.12,1,1.22v.45Z"/><path class="cls-4" d="M215.67,309.28v-.45c1-.1,1.12-.18,1.12-1.26v-3.3c0-1,0-1.06-1-1.22v-.38a10.59,10.59,0,0,0,2.27-.64v5.54c0,1.08.12,1.16,1.16,1.26v.45Zm1.66-8.82a.87.87,0,0,1-.84-.85.86.86,0,0,1,.86-.88.84.84,0,0,1,.82.88A.85.85,0,0,1,217.33,300.46Z"/><path class="cls-4" d="M224.61,309.28v-.45c.93-.1,1-.21,1-1.3v-2.64c0-1.12-.4-1.87-1.46-1.87a2.77,2.77,0,0,0-1.77.83v3.75c0,1.1.09,1.13,1,1.23v.45H220v-.45c1.06-.11,1.15-.18,1.15-1.23v-3.3c0-1-.11-1.09-1-1.23v-.42a9.06,9.06,0,0,0,2.24-.64v1.27c.32-.23.67-.47,1.08-.74a2.46,2.46,0,0,1,1.33-.48c1.28,0,2.08.94,2.08,2.5v3c0,1.09.1,1.13,1,1.23v.45Z"/><path class="cls-4" d="M231,306.94a1.19,1.19,0,0,0-.53.8c0,.29.28.61,1,.61l1.79,0c1,0,2.34.34,2.34,1.92s-2,3.24-4.1,3.24c-1.81,0-2.79-1.06-2.82-2a1.26,1.26,0,0,1,.4-.91,16,16,0,0,1,1.31-1.16,2.13,2.13,0,0,1-1.2-.86,1.5,1.5,0,0,1-.19-.69,3.34,3.34,0,0,0,1.47-1.1Zm.77.16a2.48,2.48,0,0,1-2.72-2.42,2.76,2.76,0,0,1,2.88-2.67,3.36,3.36,0,0,1,1.54.4,10.93,10.93,0,0,0,2.14-.24l.1.15a2,2,0,0,1-.59.84c-.24,0-.77-.06-1-.08a2.42,2.42,0,0,1,.47,1.46A2.59,2.59,0,0,1,231.75,307.1Zm.37,2.37a2,2,0,0,0-1.43.34,1.85,1.85,0,0,0-.76,1.31c0,.88.91,1.54,2.14,1.54,1.52,0,2.39-.79,2.39-1.81a1.2,1.2,0,0,0-.71-1.17A4.21,4.21,0,0,0,232.12,309.47Zm-.37-7c-.72,0-1.36.66-1.36,1.92s.64,2.15,1.52,2.15c.7,0,1.33-.63,1.33-1.92S232.65,302.52,231.75,302.52Z"/><path class="cls-4" d="M244.28,298.87a4.49,4.49,0,0,1,2.7.69,2.7,2.7,0,0,1,1.06,2.27,3.32,3.32,0,0,1-3.52,3.29,2.16,2.16,0,0,1-.43,0L243,304.8v2.49c0,1.35.11,1.38,1.59,1.54v.45h-4.42v-.45c1.38-.14,1.44-.24,1.44-1.57v-6.35c0-1.43-.18-1.46-1.44-1.59v-.45Zm-1.3,5.37a3.07,3.07,0,0,0,1.17.2,2.51,2.51,0,0,0-.1-5,1.42,1.42,0,0,0-.89.19c-.13.11-.18.3-.18.74Z"/><path class="cls-4" d="M254,309.47a1.2,1.2,0,0,1-.76-.3,1.52,1.52,0,0,1-.38-.72,5.08,5.08,0,0,1-1.92,1,2,2,0,0,1-2-2,1.64,1.64,0,0,1,1.32-1.6,13.13,13.13,0,0,0,2.53-1v-.32c0-1.14-.58-1.79-1.41-1.79a.9.9,0,0,0-.75.37,3.35,3.35,0,0,0-.44,1,.44.44,0,0,1-.46.36.77.77,0,0,1-.71-.7c0-.22.21-.42.53-.64a6.72,6.72,0,0,1,2.31-1.12,2.19,2.19,0,0,1,1.34.43,2.23,2.23,0,0,1,.82,1.86v3.09c0,.73.27,1,.56,1a1.27,1.27,0,0,0,.58-.18l.16.45Zm-1.17-4.05c-.36.18-1.12.51-1.49.67-.61.28-1,.58-1,1.17a1.16,1.16,0,0,0,1.15,1.23,2.13,2.13,0,0,0,1.32-.57Z"/><path class="cls-4" d="M262.66,302.68c-.86.12-1,.24-1.39,1.2-.53,1.28-1.44,3.41-2.27,5.57h-.47c-.67-1.84-1.45-3.74-2.2-5.61-.37-.93-.5-1-1.33-1.16v-.43h3.26v.43c-.88.12-.91.23-.65.92.4,1.1,1.07,2.8,1.52,3.92.57-1.43,1.1-2.74,1.45-3.76.27-.79.23-1-.83-1.08v-.43h2.91Z"/><path class="cls-4" d="M263.19,309.28v-.45c1-.1,1.12-.18,1.12-1.26v-3.3c0-1-.05-1.06-1-1.22v-.38a10.59,10.59,0,0,0,2.27-.64v5.54c0,1.08.12,1.16,1.16,1.26v.45Zm1.66-8.82a.88.88,0,0,1-.85-.85.87.87,0,0,1,.87-.88.84.84,0,0,1,.82.88A.85.85,0,0,1,264.85,300.46Z"/><path class="cls-4" d="M267.4,309.28v-.45c1-.1,1.15-.18,1.15-1.23v-7.67c0-1-.08-1.07-1.11-1.2v-.42a11,11,0,0,0,2.37-.54v9.83c0,1,.1,1.13,1.14,1.23v.45Z"/><path class="cls-4" d="M271.78,309.28v-.45c1-.1,1.12-.18,1.12-1.26v-3.3c0-1,0-1.06-1-1.22v-.38a10.85,10.85,0,0,0,2.28-.64v5.54c0,1.08.11,1.16,1.15,1.26v.45Zm1.66-8.82a.87.87,0,0,1-.84-.85.86.86,0,0,1,.86-.88.84.84,0,0,1,.82.88A.85.85,0,0,1,273.44,300.46Z"/><path class="cls-4" d="M279.7,302.06a3.44,3.44,0,0,1,3.49,3.58,3.59,3.59,0,0,1-3.49,3.83,3.51,3.51,0,0,1-3.55-3.57A3.66,3.66,0,0,1,279.7,302.06Zm-.19.54c-1,0-1.86.95-1.86,2.8,0,2,.9,3.51,2.21,3.51,1,0,1.83-.72,1.83-2.91C281.69,304.12,280.92,302.6,279.51,302.6Z"/><path class="cls-4" d="M288.82,309.28v-.45c.93-.1,1-.21,1-1.3v-2.64c0-1.12-.4-1.87-1.46-1.87a2.79,2.79,0,0,0-1.78.83v3.75c0,1.1.1,1.13,1,1.23v.45H284.2v-.45c1.05-.11,1.15-.18,1.15-1.23v-3.3c0-1-.11-1.09-1-1.23v-.42a8.81,8.81,0,0,0,2.24-.64v1.27c.32-.23.68-.47,1.09-.74a2.46,2.46,0,0,1,1.33-.48c1.28,0,2.08.94,2.08,2.5v3c0,1.09.1,1.13,1,1.23v.45Z"/><line class="cls-11" x1="217.48" y1="262.44" x2="217.48" y2="292.86"/><line class="cls-12" x1="379.96" y1="177.16" x2="379.96" y2="292.86"/><circle class="cls-7" cx="214.53" cy="199.19" r="3.83"/><circle class="cls-4" cx="217.38" cy="263.65" r="2.86"/><circle class="cls-4" cx="379.96" cy="178.63" r="2.86"/></g></g></svg>