<svg xmlns="http://www.w3.org/2000/svg" viewBox="0 0 38.18 43.88"><defs><style>.cls-1{fill:#182d45;}.cls-2{fill:none;stroke:#182d45;stroke-linecap:round;stroke-linejoin:round;stroke-width:1.64px;}</style></defs><title>note</title><g id="图层_2" data-name="图层 2"><g id="图层_1-2" data-name="图层 1"><path class="cls-1" d="M15.51,24.81,5.15,26.47l-.09,0H4.67a.46.46,0,0,0-.31.12.42.42,0,0,0-.15.31L4.14,38.77A2.75,2.75,0,0,0,.36,42.5a2.73,2.73,0,0,0,5.11-1.34,1.94,1.94,0,0,0,0-.34.36.36,0,0,0,0-.14l.06-9.63,9.64-1.65,0,6.67a2.75,2.75,0,0,0-3.78,3.73,2.73,2.73,0,0,0,5.11-1.34,1.94,1.94,0,0,0,0-.34.21.21,0,0,0,0-.12l.08-12.75a.48.48,0,0,0-.39-.46c0-.05-.09-.05-.19-.05l-.24,0h0a.49.49,0,0,0-.2,0Z"/><line class="cls-2" x1="17.91" y1="13.82" x2="23.88" y2="0.82"/><line class="cls-2" x1="21.46" y1="17.92" x2="33.08" y2="9.57"/><line class="cls-2" x1="23.21" y1="22.7" x2="37.36" y2="20.55"/></g></g></svg>