<svg xmlns="http://www.w3.org/2000/svg" viewBox="0 0 28.35 28.35"><defs><style>.cls-1{fill:#f9f9e3;}.cls-2{fill:#b92d2c;}</style></defs><title>pattern_butterfly</title><g id="图层_2" data-name="图层 2"><g id="图层_1-2" data-name="图层 1"><circle class="cls-1" cx="14.17" cy="14.17" r="14.17"/><path class="cls-2" d="M9.59,14.33h.06s0,0,0,0S9.6,14.32,9.59,14.33Z"/><path class="cls-2" d="M2.31,20.72h0a3.25,3.25,0,0,0,1.16-2.13c-.09-.3-.46-.31-.6-.55-.15-.57.31-.89.23-1.29s-.41-.28-.47-.52c-.1-.46.38-.49.42-1.11a.85.85,0,0,0-.18-.27A1.19,1.19,0,0,1,3,14.39H3A.61.61,0,0,1,3.4,14a1,1,0,0,0,.34-.55c-1.13-.1-1.15-1.32-1.71-2,0-.5.1-.86-.18-1.11,0-.23.12-.36.09-.64a1,1,0,0,1-.23-.84c-.11-.26-.24-.51-.34-.78a14.15,14.15,0,0,0,.43,13A5.1,5.1,0,0,0,2.31,20.72Z"/><path class="cls-2" d="M26.31,21c-.38-.43-1.13-.9-1.26-.25-.37,0-.8-.28-.88.25-.52.17-.52-.41-.83-.55-.13,0-.11.09-.21.1a1.33,1.33,0,0,1-.7-1c-.11,0-.19-.14-.24-.29a6.57,6.57,0,0,0-.46-.69,9.42,9.42,0,0,0-.48-1.36,10.5,10.5,0,0,0-.6-1.17s-.07-.11-.11-.15.08-.22.11-.35,0,0,0,0a.42.42,0,0,1,.11-.4,9,9,0,0,1,1.13-2.34A6.42,6.42,0,0,1,24,10.87c.37-.15,1-.24,1.3,0a4,4,0,0,1,0,1.77c0,.13.06.26.08.38s-.07.19-.11.28c.25.31-.07.6.18.91-.27.62,0,1.45-1,1.58.16.53.84.46.89,1-.32.37.7.84,0,1.14,0,.42.41.6.28,1-.1,0-.09.09-.2.11-.12.65.6,1.23,1.11,1.45l.24.1A14.17,14.17,0,0,0,2.69,5.87,4.16,4.16,0,0,1,3.38,6a10.79,10.79,0,0,1,6.14,6.19h.19c0-.14-.12-.15-.09-.32a1.44,1.44,0,0,1,.74-.37c.06.26.65.55.18.78.22.07.28-.24.38-.48,0,0,0-.05,0-.08a.66.66,0,0,1,.27-.55A13.65,13.65,0,0,1,13.54,8a9.62,9.62,0,0,1,3.71-2.32c.6-.11,1.6-.07,1.93.43a5.89,5.89,0,0,1-.55,2.63v.59c-.13.07-.14.26-.22.38.27.55-.28.89,0,1.43-.58.85-.4,2.17-1.91,2.08.08.84,1.13.93,1,1.8-.56.46.82,1.47-.27,1.72-.06.63.45,1,.13,1.62-.16,0-.17.1-.33.08-.36.95.54,2,1.26,2.51.56.39,1.23.49,1.06,1.57-.77.55-1.13-.28-1.52-1S16.4,19.89,16,20.82c-.54-.16-1.13-.65-1.39.14-.83.1-.68-.78-1.11-1.07-.17,0-.18.1-.32.1a2,2,0,0,1-.78-1.67c-.17,0-.26-.27-.29-.51-.12-.46-1.12-2.47-1.48-3.19a5.23,5.23,0,0,1-.38.58.43.43,0,0,0,0,.05,2.09,2.09,0,0,1,0,.31.71.71,0,0,0,0,.21c.06.55.37,1.67-.3,1.19h0l0,0h0l0,0h0s0,0,0,0a0,0,0,0,1,0,0,.69.69,0,0,1-.18-.16l0,0s0,0,0,0,0,0,0,0h0v0h0v-.06s0,0,0,0h0a.06.06,0,0,0,0,0,.14.14,0,0,1,0-.07h0v0h0v0h0l0,0h0s0,0,0,0h.06l-.09-1.87h0a.12.12,0,0,0-.09,0,1.46,1.46,0,0,0-.27.41h0a24.48,24.48,0,0,0-1,2.64A7.81,7.81,0,0,1,7.7,19.1v0a4.68,4.68,0,0,1-.49.82c-1-.32-.53,1.14-1.48,1a.7.7,0,0,0-1.21-.23c-.1,0-.09-.09-.22,0a.85.85,0,0,0-.19-.32c-1.11,0-1.29,1-1.76,1.64a14.17,14.17,0,0,0,24.12-.77C26.42,21.15,26.36,21.09,26.31,21Zm-4.63-1.58a.22.22,0,0,1-.09.13c-.24.1-.83-.74-1.32-1.88a7.27,7.27,0,0,1-.56-1.79.67.67,0,0,1-.38-1.19c-.16-.86-.28-2.43.82-3.08h0a.19.19,0,0,1,.2-.17.18.18,0,1,1,0,.35.17.17,0,0,1-.1,0c-1,.57-.91,2-.77,2.85a.6.6,0,0,1,.54.07c0-.82.1-2.69,1.48-3.1a.19.19,0,0,1,.19-.15.18.18,0,1,1,0,.35.16.16,0,0,1-.14-.05c-1.35.41-1.38,2.44-1.36,3.09a.86.86,0,0,1,.1.16.64.64,0,0,1-.1.69l.23.3a1.63,1.63,0,0,0,.11.17,8.46,8.46,0,0,1,.59,1.17h0a7.07,7.07,0,0,1,.47,1.35A1.83,1.83,0,0,1,21.68,19.45Z"/><path class="cls-2" d="M6.58,19h0Z"/><path class="cls-2" d="M15.14,18.1c.4-.16.47-.89.49-1.13a2.81,2.81,0,0,0-.44-2,2.2,2.2,0,0,0-1.45-.81,3.39,3.39,0,0,0-1,0l-.33.06.16.37C13,15.5,14.33,18.42,15.14,18.1Z"/><path class="cls-2" d="M8,12.66l-.26-.22c-.61-.52-2.66-2.2-3.35-1.77-.35.21-.22.73-.18.9a1.83,1.83,0,0,0,.94,1.26,2.33,2.33,0,0,0,1.06.23,4.36,4.36,0,0,0,1.48-.28Z"/><path class="cls-2" d="M8.45,12.53l.09,0a.2.2,0,0,0,.08-.27c-.1-.19-2.5-4.65-5.79-4.65a.2.2,0,0,0,0,.4c3.05,0,5.41,4.4,5.44,4.44A.19.19,0,0,0,8.45,12.53Z"/><path class="cls-2" d="M7.61,14.17l-.34-.07a3.46,3.46,0,0,0-1.53.06,1.85,1.85,0,0,0-.92.61,2.52,2.52,0,0,0-.39,1.92c0,.24.11.95.53,1.13.83.35,2.12-2.44,2.5-3.3Z"/><path class="cls-2" d="M22.37,19.52l0,0,0,0A.17.17,0,0,0,22.37,19.52Z"/><path class="cls-2" d="M24,19.41H24c.23-.05.33-.34.33-.94a2.37,2.37,0,0,0-.73-2A2,2,0,0,0,22,16.2l-.16,0,.07.15C22.36,17.31,23.36,19.41,24,19.41Z"/><path class="cls-2" d="M22.54,19.72h0v0Z"/><path class="cls-2" d="M24.33,12.53a.15.15,0,0,0-.18-.06,12.24,12.24,0,0,0-2.72,2.71.13.13,0,0,0,0,.19.11.11,0,0,0,.08,0,.11.11,0,0,0,.1-.06,12.27,12.27,0,0,1,2.63-2.63A.14.14,0,0,0,24.33,12.53Z"/><path class="cls-2" d="M16.28,10.79c0-.18.07-.71-.3-.88-.75-.32-2.54,1.64-3.07,2.24l-.22.25.33.08a4.4,4.4,0,0,0,1,.1,2.68,2.68,0,0,0,1.55-.41A1.83,1.83,0,0,0,16.28,10.79Z"/><path class="cls-2" d="M12.58,18.51h0s0,0,0,0S12.58,18.53,12.58,18.51Z"/><path class="cls-2" d="M18.26,6.72a.2.2,0,0,0-.2-.21c-3.28,0-6.45,5.48-6.58,5.72a.2.2,0,0,0,.07.27.19.19,0,0,0,.1,0,.22.22,0,0,0,.18-.1c0-.06,3.18-5.51,6.23-5.51A.2.2,0,0,0,18.26,6.72Z"/><path class="cls-2" d="M12.38,18.18l0-.05L12.29,18A.28.28,0,0,0,12.38,18.18Z"/></g></g></svg>