<svg xmlns="http://www.w3.org/2000/svg" viewBox="0 0 28.35 28.35"><defs><style>.cls-1{fill:#f9f9e3;}.cls-2{fill:#af2e2b;}</style></defs><title>pattern_dragon</title><g id="图层_2" data-name="图层 2"><g id="图层_1-2" data-name="图层 1"><circle class="cls-1" cx="14.17" cy="14.17" r="14.17"/><path class="cls-2" d="M14,21a1.29,1.29,0,0,1-.09-.16s0,0-.06-.06,0,0,0,0,0,.14.05.22S13.92,21,14,21Z"/><path class="cls-2" d="M13.81,20.45s0,.06,0,.11a1,1,0,0,1,0,.11s.08.14.12.09,0-.13-.06-.19h0a.31.31,0,0,0-.05-.1s0,0,0-.07l-.05-.07c0-.05,0,0,0-.06s-.11-.13-.12-.1a.58.58,0,0,0,.11.18S13.8,20.43,13.81,20.45Z"/><path class="cls-2" d="M14.48,22.05s0,0,0-.06,0,0,0-.08a.15.15,0,0,1-.11,0s0,0,0,0-.07-.08,0-.12-.2-.1-.23-.19-.12-.1-.18-.18,0,.08,0,.11l.05.06s0,.05,0,.05,0,.06.05.07,0,0,.07,0a.1.1,0,0,1,0,0s0,0,0,0a.26.26,0,0,1,.09.12c0,.07.07.07.1.1s0,0,0,0,0,0,0,0,0,.07.06.09l.16.11s.07.12.13.11,0-.06,0-.09S14.57,22.05,14.48,22.05Z"/><path class="cls-2" d="M13.63,20.21s0,0,0,0a.13.13,0,0,0,0,.11s0,0,0,0,0,0,0,.05-.05.05,0,.09.05.06.08,0-.05-.11-.08-.17S13.68,20.24,13.63,20.21Z"/><path class="cls-2" d="M14.13,21.1c0,.12.14.14.23.2s0-.07.06-.09,0,.1.08.07-.21-.27-.31-.42c-.1.11.17.19.16.32S14.21,21.07,14.13,21.1Z"/><path class="cls-2" d="M15,21.62h-.06c-.05,0-.07-.09-.12-.09s0,0,0,0h-.06s0-.06-.05-.07-.05,0-.08,0,.07.08.11.11h.06c.06,0,0,.08.06.08s0,0,0,0l.2.09s.05,0,0-.05S15,21.64,15,21.62Z"/><path class="cls-2" d="M14.84,22.21s0-.07-.07-.06l.07.1s.05,0,.07,0,0,.07.07,0S14.88,22.25,14.84,22.21Z"/><path class="cls-2" d="M15.21,22.5h-.06s0,0-.05,0,.1.08.12.09.06.07.06,0S15.24,22.52,15.21,22.5Z"/><path class="cls-2" d="M12.73,17.83a.25.25,0,0,0-.05.22c.06,0,0-.07.06-.1s.09-.06.08-.1S12.75,17.87,12.73,17.83Z"/><path class="cls-2" d="M14.59,18.57c0,.05-.1.17,0,.19S14.63,18.56,14.59,18.57Z"/><path class="cls-2" d="M13.1,16.86s-.07-.05-.11,0,0,.3.13.07C13.1,17,13.1,16.88,13.1,16.86Z"/><path class="cls-2" d="M13.61,19.5c.06,0,.05-.1.05-.14v-.05s0-.07,0-.09,0,0,0-.06a.53.53,0,0,1,0-.13.49.49,0,0,1,0-.13l0,0s0-.06,0-.09.05,0,0-.06-.05,0-.08,0a1.52,1.52,0,0,1-.06.32s0,0,0,0,0,0,0,0,0,0,0,0a1.16,1.16,0,0,1,0,.17s0,0,0,0,0,.1,0,.12S13.61,19.47,13.61,19.5Z"/><path class="cls-2" d="M14.65,19.82v-.28a.19.19,0,0,0-.07-.06C14.53,19.51,14.5,19.76,14.65,19.82Z"/><path class="cls-2" d="M14.51,18.85a.23.23,0,0,0,0,.25C14.55,19,14.52,18.94,14.51,18.85Z"/><path class="cls-2" d="M19.3,22.89c0-.06-.17,0-.13,0-.13.07-.35.09-.23.15a.74.74,0,0,0,.19,0c.09,0,.06-.06.15-.11s0,0,.08,0,.07-.11,0-.09S19.32,22.85,19.3,22.89Z"/><path class="cls-2" d="M24.6,4.59c-.9.3-1.83.54-2.72.87a16,16,0,0,0-2.6,1.26,1,1,0,0,0-.5,1c.08.5.69.44,1,.42a20.41,20.41,0,0,0,2.05-.35,4.68,4.68,0,0,1,1.52-.17,1.42,1.42,0,0,1,1,.69,1.4,1.4,0,0,1-.45,1.15,3.06,3.06,0,0,1-3.36.23c1.3-.09,2.07.06,2.18-.55S22,7.93,20,9.43a3.23,3.23,0,0,1-2.73.65,7.66,7.66,0,0,0-8.38,4.78c-2.8,8.62,7,12.81,16.33,8.25A14.13,14.13,0,0,0,24.6,4.59ZM12.92,16.66s0-.1,0-.16a.6.6,0,0,0,.12-.24c.06,0,0-.06.09-.09s0,0,0-.05a.2.2,0,0,1,0-.08.26.26,0,0,0,.05-.09h.08s0,0,0,0,0,0,0,0a.38.38,0,0,0,0,.1s0,.05-.05.09.07,0,.07.08-.11,0-.17.09,0,.11,0,.17,0,.06-.09.09,0,.08,0,.11,0,.17-.1.18A.29.29,0,0,1,12.92,16.66Zm12.79-1.78c-.05,0,0,.11-.07.14s0,0,0,0a.24.24,0,0,1-.06.17c-.05,0,0,0,0,0h0s0,0,0,0,.08-.05.12-.09,0,.06,0,.09v0l0,.05s0,0,0,0l-.07.09s0,.09,0,.1,0-.09,0-.13,0,.05,0,.08-.07,0-.09.06,0,.14-.07.2c.1,0,0,.08.07.16a.15.15,0,0,0,0,.07s0,.05,0,.07l0,0a.22.22,0,0,1,0,.11l-.05.06s0,0,0,0,0,.06,0,.1-.06.09-.07.15,0,.05-.05,0,0,0,0,.08a.17.17,0,0,1-.06.07c.06,0,.05-.06.11-.08a.14.14,0,0,1,0,.14s0,0,0,.05S25,17,25,17s0,0,0,.05.08-.08.14-.13.05,0,0,.1a1.77,1.77,0,0,0-.12.17s0,0,0,0a.28.28,0,0,0-.05.08s0,.05,0,.06,0,0-.05.07a0,0,0,0,1,0,0,.27.27,0,0,0-.06.1.22.22,0,0,1-.09.16c0,.06-.05.1-.07.16s-.12,0-.13.06,0,0,.08,0c0,.18-.19.31-.21.48a.16.16,0,0,0-.09.11.21.21,0,0,0,0,.06c0,.05-.09.12-.13.19s0,0,0,0,0,0,0,0a.15.15,0,0,1,0,.06s0,0,0,0A.25.25,0,0,1,24,19a.54.54,0,0,0-.09.12,1.17,1.17,0,0,1-.05.11s-.06.07-.08.11,0,0,0,0,0,0,0,0,0,0,0,.06l0,0,0,.06s0,0,0,0-.11.13-.16.21-.12.13-.08.21-.07.09-.15.12,0,.05,0,.09l-.08.07s0,0,0,0,0,.08-.06.1a.59.59,0,0,0-.08.08,0,0,0,0,1,0,0s0,.07-.06.1l-.1.12a2,2,0,0,0-.28.3s0,0-.07,0l-.19.13s0,0,0,.06-.1.06-.15.12,0,0,0,0,0,0,0,0,.07-.06.11-.1,0,0,.06-.05a.7.7,0,0,1,.15-.12l.09-.06s0,0-.06.06l-.09.06s0,.08-.07.12l0,0s0,0-.07.08a1.33,1.33,0,0,1-.11.1.69.69,0,0,0-.21.15s0,0,0,.05-.35.22-.49.34a.5.5,0,0,1-.07.08s-.06,0-.08,0-.14.1-.21.14,0,0-.06,0-.17.13-.26.19-.08,0-.12,0,0,0,0,0a1,1,0,0,0-.13,0l-.23.16a3.84,3.84,0,0,1-.35.17l-.21.1-.15.05a.31.31,0,0,1-.1.05l0,0a1.69,1.69,0,0,0-.31.09s0,0,0,0l-.1,0,0,0s0,0,0,0h0c-.07,0-.13.05-.2.06s0,0,0,0-.07,0-.1,0-.06,0-.09,0-.06,0-.1,0-.06,0-.09,0,0,0-.06,0l0,0,0,0,0,0v0H17.9l0,0c-.05,0-.09,0-.15,0s0,0,0,0-.07,0-.11,0l0,0s0,0,0,0,0,0,0,0v0l0,0v0s0,0,0,0h-.25l-.17,0a.41.41,0,0,0-.19,0,.16.16,0,0,0-.12-.06c-.06-.08.07,0,.09,0a.09.09,0,0,0,.12-.06s-.07,0-.1,0H16.7s0,0,0,0-.09,0-.14,0,.05-.06,0-.1-.09.06-.07,0-.06,0-.08,0-.06,0-.08,0,0,0,0,0,0,0,0,0,0,0-.06,0,0,0,0,0S16,23.07,16,23a.11.11,0,0,0-.11,0s0,0,0-.06,0,0-.06,0,.09.1.09.12h0c.07.05.19,0,.24.11a.25.25,0,0,0,.12,0c.08.15.19.05.28.16a.44.44,0,0,1-.27-.07s-.11,0-.16,0a.76.76,0,0,0-.09-.09h-.06s0,0,0-.05H15.8l0,0,0,0s0,0,0,0l0,0a.14.14,0,0,1,0,0,.19.19,0,0,1-.14,0s0-.08-.05-.12-.06,0-.08,0h-.06s0,0,0,0,0-.1,0-.15-.14-.14-.22-.15h0s0-.06,0-.06a.54.54,0,0,0-.11,0c0-.09-.06-.08-.13-.13s0,0,.09.11,0,0,0,0,0,0,.07,0,0,.07.09.09l0,0h0s0,.11.1.13-.09,0-.14-.05L15,22.65H15c-.05,0-.1-.12-.15-.17a.72.72,0,0,0-.28-.16,2,2,0,0,0-.3-.37s0,0-.05,0h-.06l0,0L14,21.79s-.1-.05-.1-.14a1.19,1.19,0,0,1-.15-.09.83.83,0,0,0-.07-.13c0-.06-.1-.1-.13-.14s0-.14-.08-.15,0-.07,0-.1-.24-.25-.24-.39a.91.91,0,0,1-.19-.41.13.13,0,0,1,0-.12s-.07,0-.08-.07S13,20,13,20s-.09-.13-.11-.19,0,0,0,0,0,0,0-.07a1.18,1.18,0,0,1,0-.2s0,0,0,0,0,0,0,0,0-.07,0-.12-.08-.27,0-.39a.65.65,0,0,1,0-.24,1.08,1.08,0,0,0,0-.18s0,0,0-.06,0,0,0-.05,0-.05,0-.06,0,0,0,0v0s0,0,0,0a.09.09,0,0,0,0-.11s0,.08,0,.12a.38.38,0,0,1,0,.1c.06.1.08.2,0,.28s0-.05,0-.08,0,0,0-.06,0-.05,0-.07a2.09,2.09,0,0,1,0-.24s0,0,0,0,0-.07,0-.12,0-.07.05-.11,0-.08,0-.12,0-.05.06-.07,0-.07,0-.1,0,0,0,0l0,0s0,0,0-.05a.57.57,0,0,0,0-.29l.07-.11s0,0,0,0,0-.11.05-.14,0,.13,0,.2a.71.71,0,0,0-.16.34c.08.08,0,.14.07.21s-.08.08-.06.14,0,0,0,0,0-.13.06-.17,0,0,0,0,0-.16.07-.23,0-.08,0-.12A.24.24,0,0,0,13,17s0-.11,0-.16.08,0,.06-.11.07-.1.12-.09,0-.05,0-.08.05-.13.09-.16,0-.07.05-.11.11,0,.18-.08-.08.05-.1,0,0-.25.1-.33.1-.23.1-.23c.55-.9,1.59-2.05,2.79-1.92.2,0,.75.17.83.47,0-.71.92-1.14,1.91-.76a3.54,3.54,0,0,1,1.65,1.3A2.15,2.15,0,0,1,20.8,17c1.39.93.36,2.77-.05,3.3s-2.21,2-3.8.72a1.89,1.89,0,0,1,.23-3.29,1,1,0,0,1,1.15.73c0,.1.06,0,.06,0a.78.78,0,0,0,0-.37,1.85,1.85,0,0,0-.29-.62,1.41,1.41,0,0,0-.49-.42,2,2,0,0,0-1.2-.24,2,2,0,0,0-1.32.7,1.34,1.34,0,0,0-.22.36l-.05.11s0,0,0,0a.15.15,0,0,0,0,0,.15.15,0,0,1,0,.06s0,.07-.05.11,0,0,0,.09,0,0,0,.07,0,0,0,.07,0,0,0,0,0,.1,0,.2a.5.5,0,0,1,0,.13c0,.07,0,.12.09.19s0,.19-.06.27,0,0,0-.06-.06-.08-.07-.13,0,0,0,0a.21.21,0,0,0-.05-.11c-.05,0,0,.09,0,.13s0,0,0,0l0,0s0,.06,0,.08,0,.06,0,.1.09,0,.13.06,0,.06,0,.09,0,.1,0,.13,0,.07,0,.09.07,0,.12.11v.07c.05.06,0,.16.07.23s0,.08.08.07a.25.25,0,0,0,0,.12c.1.07,0,.14.09.18s.05.06.07.12a1.26,1.26,0,0,0,.08.18s0,0,0,0,.05,0,.07,0,0,0,0,.08,0,.11.07.15.13.09.18.15,0,.06.07.08a2.4,2.4,0,0,0,.23.25s-.09,0-.13-.07-.16-.2-.27-.19-.1-.05-.14-.12-.08,0-.11,0,0,0,0-.05l-.08-.07-.05,0s-.05-.1-.1-.1,0-.08,0-.13-.06,0,0-.05-.1,0-.14-.08,0-.06,0-.08,0-.06,0-.08-.09-.09-.14-.11,0,.13,0,.19,0,.09,0,.1,0,0,.06.06a.27.27,0,0,1,.09.12s0,.07,0,.09.1.08.15.13.12.16.19.19l.08,0,.12.06.07.06s0,0,0,0,.06,0,.09.06h0s0,0,.06,0,.07.08.13.11,0,0,0,0h0s.08,0,.11,0l.05,0,.33.2.1.06h.06s0,0,0,0h0a1.21,1.21,0,0,0,.2.09h0l.05,0h.06s0,0,0,0l.22.05a3.56,3.56,0,0,0,.6.11h.06l.15,0,.06,0,.05,0,.06,0s.06,0,.1,0l0,0s0,0,0,0l.06,0s0,0,0,0l.07,0,0,0s0,0,.06,0,0,0,0,0h.19l0,0a.41.41,0,0,0,.11,0s.06,0,.11,0a.1.1,0,0,1,.05,0c.08-.05.15,0,.23-.08a.05.05,0,0,1,.05,0c.13-.09.23,0,.37-.15,0,.07.09,0,.13,0s.11-.05.19-.14c0,.07.09,0,.14,0s.1-.16.23-.19,0,.15-.13.19l0,0h0s-.05.07-.09.09-.06,0-.09,0-.09.09-.15.08-.07.05,0,.08,0,0,0,0,0,0,.1,0h0s.1,0,.15-.06.06,0,.1-.07.17,0,.22-.1,0-.07,0-.1,0-.06,0-.09.12-.06.17-.06-.07.05,0,.09.07,0,.13,0a.1.1,0,0,0,.09,0,.44.44,0,0,0,.1-.15c-.07,0-.07.06-.16.06s-.11,0-.16-.06a.39.39,0,0,0,.2-.14l.05,0s0,0,0-.05a.61.61,0,0,1,.13,0s.08-.08.1-.08,0,0,.05,0,.28-.18.39-.27,0,0,0-.06a1.57,1.57,0,0,0,.32-.24s0-.06.05-.09.1-.06.15-.11.16-.26.3-.31l.08-.13c.1-.08.19-.1.23-.19s0-.05,0-.06.06,0,.07,0,0,0,0-.05l.11-.08s0,0,0,0,0,0,0-.07l.08-.11c.06,0,.13-.07.16-.13s0-.05,0-.06l.1-.09a.62.62,0,0,0,.14-.28c.14-.07,0-.11.15-.19,0,0,0-.08,0-.05a.27.27,0,0,1,.14-.2s0,0,0,.08,0-.05.07-.08a.29.29,0,0,0,.07-.08s0-.05,0-.06.12-.07.09-.13-.09.18-.19.18,0-.17.12-.24.07-.16.13-.19,0,.06,0,.1a.42.42,0,0,0,.12-.26.9.9,0,0,0,.19-.21s0,0,0,0,0,0,0,0,0,0,0-.05,0,0,0,0,0,0,0-.05a.57.57,0,0,0,.08-.13l0-.07s.05-.06,0-.1.05-.07.11-.11l.05-.11,0-.07a.64.64,0,0,0,0-.07.51.51,0,0,0,0-.1.64.64,0,0,0,0-.07.6.6,0,0,0,.09-.13s0,0,0,0,0-.05,0-.07,0-.05,0-.07a.58.58,0,0,0,.05-.11s0,0,0,0,0,0,0,0,0,0,0-.05l0,0s0-.09,0-.13,0-.08,0-.13.11-.18.14-.28a.64.64,0,0,0,0-.2.71.71,0,0,0,.15-.41.2.2,0,0,0,.08-.13s.08-.41.14-.07a.05.05,0,0,1,0,.05c0,.05-.06.13,0,.14S25.7,14.86,25.71,14.88Z"/><path class="cls-2" d="M17.81,27a15.89,15.89,0,0,1-6.2-.71,9.31,9.31,0,0,1-6.44-10,21.89,21.89,0,0,1,1-3.47c0-.12.15-.47.19-.58.16-.56.63-1.25,0-1.62s-1.3.09-1.71.56c-.15.18-.35.34-.5.53-1,1.43-2.54,1.58-4.13,1.48,0,.32,0,.64,0,1a14.12,14.12,0,0,0,1.64,6.66,2.8,2.8,0,0,1,.57-.69c.26-.25.84-.07.73-.37A2,2,0,0,1,4.57,16.8,6.66,6.66,0,0,0,7.3,24.29C5.15,24,4.49,22.07,3.66,21.55c-.5-.32-1.16.57.19,1.64a2,2,0,0,1-.67-.07A14.15,14.15,0,0,0,22.27,25.8,12.64,12.64,0,0,1,17.81,27Z"/><path class="cls-2" d="M25.47,15.31s0,.07,0,.12S25.54,15.3,25.47,15.31Z"/><path class="cls-2" d="M15.17,21.52s0,0,0-.06,0,0,0,0,0,0,0,0-.07,0-.08,0a.93.93,0,0,1-.15-.13s0,0,0,0l-.09-.09s0-.09,0-.13-.21-.17-.27-.26,0-.08,0-.11,0-.15-.11-.2,0-.08,0-.11-.07,0-.09,0,0,0,0-.05,0,0,0,0l0-.07s0,0,0,0-.07-.11-.05-.17,0-.1-.08-.11,0-.09,0-.15,0,.1-.06.06,0-.15,0-.24a1.17,1.17,0,0,1,0-.11.12.12,0,0,1,0-.08s-.05,0-.08,0,0,.09,0,.12,0,0,0,0a.4.4,0,0,0,0,.15s0,0,0,.07,0,0,0,0,0,0,0,.06a.15.15,0,0,0,0,0,.6.6,0,0,0,.06.11s0,0,0,0,0,.07,0,.09a4.59,4.59,0,0,0,.17.48s.09,0,.12.1,0,.07,0,.12a.65.65,0,0,0,0,.13c0,.06.13.11.15.2s.07,0,.1,0,.19.2.3.37c0,0,0,0,0,0s.09,0,.13,0a.12.12,0,0,0,.19,0C15.26,21.5,15.2,21.61,15.17,21.52Z"/><path class="cls-2" d="M7.85,2.91c1.15.6,1.6,1.62,2.36,1.28.43-.2-.46-1.14-1.45-1.83a9.51,9.51,0,0,0-1.31-.67,15.28,15.28,0,0,0-1.53,1A3.69,3.69,0,0,1,7.85,2.91Z"/><path class="cls-2" d="M.62,12.75A4,4,0,0,0,3.3,11,2.58,2.58,0,0,1,5.85,9.3a13.35,13.35,0,0,0,2,0,.58.58,0,1,0-.33-1.11,4.81,4.81,0,0,0-1.43.47,4,4,0,0,1-3,.46,5.14,5.14,0,0,0,2-.73C5.86,7.89,6.24,7,7,6.58A4.8,4.8,0,0,1,10,6a31.44,31.44,0,0,0,3.88.36,12.2,12.2,0,0,0,4-.37A30.19,30.19,0,0,0,22,3.82c.2-.12.67-.31,1.15-.59A14.14,14.14,0,0,0,7.69,1.58,6.12,6.12,0,0,1,9.48,2c.86.47,1.49,1.29,2.19,1.28,1.21,0,1.77-.67,4-.55s2.57,2.58,1.79,3c-.52.26-2.11.36-1.79-.78.16-.58,1.16.33,1.27-.19s-.89-.59-1.15-.54a10,10,0,0,0-2.74.73c-2,1-3.44.92-4.84-.73A7.17,7.17,0,0,0,5.73,2.81,14.12,14.12,0,0,0,.06,13,3.66,3.66,0,0,1,.62,12.75Z"/><path class="cls-2" d="M25.56,15.2s0,0,0,0S25.56,15.19,25.56,15.2Z"/><path class="cls-2" d="M15.65,22.85s0,.13.09.12S15.72,22.82,15.65,22.85Z"/><path class="cls-2" d="M15.48,21.8s-.05-.06-.08,0S15.45,21.82,15.48,21.8Z"/><path class="cls-2" d="M17,23.36h.11s0,0,0,0,.05,0,.06,0h.08s0,0,0,0-.1,0-.15,0S17,23.3,17,23.36Z"/><path class="cls-2" d="M15.42,22.71s0-.05-.06,0a.14.14,0,0,0,.13.11C15.51,22.72,15.45,22.74,15.42,22.71Z"/><path class="cls-2" d="M16.71,22.94s0,0,0-.06a.52.52,0,0,1-.21-.07.46.46,0,0,1-.22-.13c-.06,0-.11,0-.15,0h-.05s0,0,0,0H16s0,0,0,0-.08,0-.11,0,0-.05-.05,0l.06.08s.06,0,.08,0,0,0,.05,0l0,0s.1,0,.11,0,0-.06.09,0,.18,0,.25.16c0,0,0,0,.07,0s.07,0,.09,0,0,0,0,.07l0,0s.1,0,.08,0h-.06S16.73,23,16.71,22.94Z"/><path class="cls-2" d="M17,22.59c0-.07-.08-.06-.11-.07h-.06s0,0-.06,0h-.06l-.11-.05-.11,0s-.05-.07-.1-.06,0,0,0-.06-.11-.05-.17-.08-.06,0-.08,0a.09.09,0,0,1-.07-.1c-.05.06-.09,0-.12,0L15.81,22h0s0-.06-.09-.09h0s0,0,0-.05-.06-.05-.1,0,.23.16.32.3a.37.37,0,0,1,.29.18.88.88,0,0,1,.26.09h.06s.07.07.11.08h.11c.05,0,.06,0,.09,0h.05s0,0,.05,0,0,0,.08,0,.09.08.1,0S17,22.58,17,22.59Z"/></g></g></svg>