<svg xmlns="http://www.w3.org/2000/svg" viewBox="0 0 28.35 28.35"><defs><style>.cls-1{fill:#f9f9e3;}.cls-2{fill:#b92d2c;}</style></defs><title>pattern_lion</title><g id="图层_2" data-name="图层 2"><g id="图层_1-2" data-name="图层 1"><circle class="cls-1" cx="14.17" cy="14.17" r="14.17"/><path class="cls-2" d="M4.45,18.72s.32,0,.08-.27a.83.83,0,0,0-.69-.28.14.14,0,0,0-.08.24C3.9,18.6,4.45,18.72,4.45,18.72Z"/><path class="cls-2" d="M3.17,17.37c.4.49.73-.56.73-.56S2.78,16.9,3.17,17.37Z"/><path class="cls-2" d="M5.36,17.82C6.28,15,9.8,14.19,9.8,14.19s1.6-.44-.15-.4S5.23,15.71,5,17.73A5.05,5.05,0,0,0,6,20.6S5,19,5.36,17.82Z"/><path class="cls-2" d="M5.87,19.44s0,.33.12.4,1.25,0,1.57-.47C7.56,19.37,6.31,19.68,5.87,19.44Z"/><path class="cls-2" d="M9.06,13.54l-.67-.38s-4.11,1.31-3.83,4.4A5.9,5.9,0,0,1,9.06,13.54Z"/><path class="cls-2" d="M8,13l-.44-.27C4.28,14,4.28,16.36,4.28,16.36,5,14.13,8,13,8,13Z"/><path class="cls-2" d="M4.47,14.72c1.52-2,2.78-2.19,2.78-2.19l-.36-.29A3.79,3.79,0,0,0,4.47,14.72Z"/><path class="cls-2" d="M14.23,0A14.13,14.13,0,0,0,3.39,5a1.31,1.31,0,0,1,1.19,1.4c0,.84-.26,1.18-.93,1.18-.4,0-.53-.34-.53-.67s.45-.76.7-.34c0,0,0-.76-.67-.76-.35,0-.68.17-.68.85a2.19,2.19,0,0,0,.59,1.85c.65.53,1.94.08,3.29.08a4.63,4.63,0,0,1,2.19.34A3.35,3.35,0,0,0,7.1,7.65s2.53-.34,3.63.5c0,0,.35-1.37,1.93-.59A.84.84,0,0,1,14,7.48l.51-.34,1,.59s.84-1.09,2.27.17c0,0,.46-1-1.35-1A2.49,2.49,0,0,0,14,6.8a1.28,1.28,0,0,0-1.52.09s-1.43-.34-2,.5a8.19,8.19,0,0,0-3.62-.25S5.08,6.3,5.08,5c0-1.12.89-1.18,1.35-1.18a.92.92,0,0,1,.93,1c0,.59-.85.66-.85.66A.58.58,0,0,0,6.77,5c0-.27-.24-.32-.59-.19a.44.44,0,0,0-.24.49c0,.23.19.55.74.88.79.46,4.38.08,5.39,0L9.46,5s4.21,0,5,.42a1.25,1.25,0,0,1,.82-.31c.68.06.7.56.7.56a.84.84,0,0,1,.73-.08.65.65,0,0,1,.36.51,1.63,1.63,0,0,1,1.08-.11,1,1,0,0,1,.61.7.64.64,0,0,1,.67.08.75.75,0,0,1,.42.59s.53-.51.84-.34,0,.93,0,.93a1.16,1.16,0,0,1,1.2.4,1,1,0,0,1,0,1.11s.61,0,.68.43-1.06.46-1.29,1.36c0,0-.3,1,.36,1.16s.34,1.1.34,1.1a.81.81,0,0,1-.17,1.09.86.86,0,0,1-1.1-.08,5.23,5.23,0,0,1-1,.45c-.61.17-1.32,0-1.37-.64,0-.47.21-.72.44-.72a.58.58,0,0,1,.57.28s-.57-.28-.56.35c0,.28.29.34.63.32s.45-.36.4-.72-.53-.69-1.2-.56a.86.86,0,0,0-.63,1.26,4.11,4.11,0,0,1-1.71-.86c-.76-.68-1-1.52-2-1.86a2.1,2.1,0,0,0-1.6,0L7.27,10.51S12.58,8.83,14.6,9s3.28.93,3.71,1.77l.25-.17a5,5,0,0,0-4-2.35c-2.78-.17-8.17,1.85-8.17,1.85s-3.09.64-4.55-1a2.28,2.28,0,0,1-.49-1A14.17,14.17,0,0,0,4.47,24.5,3.42,3.42,0,0,0,4.77,23c0-1.73-3.39-2.95-3.35-5.86A6.47,6.47,0,0,1,6.26,11a6.78,6.78,0,0,0,4.44,2.74,5.74,5.74,0,0,0,5.08.38,3.5,3.5,0,0,0,2.06.72,2,2,0,0,1,.07.7c2.34,1.2,3.45-.18,3.45-.18a1.07,1.07,0,0,0,1.14-1.6c.61-.57-.05-1.33-.05-1.33,1.48-.37,1.75,1.9,1.75,1.9l.42.17s-.19-.58.26-.76.71.29.71.29.25-1,.89-.8c1.3.35,0,2.66,0,2.66s.92.17.29,1.6c-1,2.23-4.3,2.4-5.05,2.1a1.22,1.22,0,0,1-.8-1c-2.53-.71-3-1.64-3-1.64l.29-.34a10.36,10.36,0,0,0,2.53,1.1,6,6,0,0,0,2.69,0s0-.25-.38-.38-.54.13-1.22.09a6.64,6.64,0,0,1-2.31-.8,2.09,2.09,0,0,0-1.22-.3l0-.42-.35-.38a1.53,1.53,0,0,1-.57,1.1c-.73.56-1.27.8-1.73.59s0-1.35,0-1.35-.08-.55-1.05-.34-1,.34-.93.51,1.14.12,1.14.12-1.05,1.81,1.35,2c0,0,.5,1.31,1.43,1.08.22-.06-.19-.82-.31-1l0-.06,0,.06a7.48,7.48,0,0,0,2.92,2.38s-.32,0-.4.24.11.73-.27.94a1.87,1.87,0,0,0,.84-.92c.06-.26.42-.13.63,0s.55,1.6-2.78,1.14c0,0,1-.19,1.1-.85a1.92,1.92,0,0,1-2.15.13s-1.05.42-1.48-.42c0,0-1.75-.17-1.81-1.35,0-.84.68-.82.93-.82s.84.25.84.72-.63.31-.63.31,0,.76.8.47.13-1.1,0-1.27a1.35,1.35,0,0,0-1.6-.5l-.38-.09a2,2,0,0,0-.42,1.46s-.25.48-.42,0,0-.92-.09-1.13-.46.21-.46.5-.72-.84-.29-1.3c0,0-.82-.61-.55.5.15.61-.44-.17-.44-.17a.94.94,0,0,1,.27-1c.58-.63,1.47.46,1.81-.05s-.54-1,0-1.77a.7.7,0,0,1,.76-.33.81.81,0,0,0-1.1-.13c-.79.65.16,1-.25,1.39-.68.65-2.21.78-3.31,1.07A1.33,1.33,0,0,0,8.2,18.87c0,1.56,2,1.54,2.27,4.53a4.42,4.42,0,0,1-1.64.21c-1.18,0-1.68-.38-2.53-.26s-.88.24-.88.24l0,.21s.08-.17,1-.17,1.3.31,2.4.33a3.52,3.52,0,0,0,1.76-.33l.05.19a3.49,3.49,0,0,1-1.75.44,16.11,16.11,0,0,0-2.32-.21,2.71,2.71,0,0,0-2,.48A14.17,14.17,0,1,0,14.23,0Zm-2,12.49s-1,.19,1.52,1.16a5.64,5.64,0,0,1-2.36-.78s-1.18.1.8.84a4,4,0,0,1-1.56-.51,3.43,3.43,0,0,1-1.43-.42,11.79,11.79,0,0,1-2.61-1.93s5,.92,5.81,1.3c0,0,.21-.21.89-.08s2.06,1.56,2.06,1.56A8.79,8.79,0,0,1,12.28,12.49Zm10-.56a.59.59,0,0,1-.59-.6.58.58,0,0,1,.59-.59.59.59,0,0,1,.6.59A.6.6,0,0,1,22.24,11.93Z"/><path class="cls-2" d="M3.88,14.55a3.62,3.62,0,0,1,2.36-3l-.19-.29A3,3,0,0,0,3.88,14.55Z"/><path class="cls-2" d="M5.19,22.57s.69,1,1.2-.46A1.22,1.22,0,0,1,5.19,22.57Z"/><path class="cls-2" d="M4.18,14.64a5,5,0,0,1,2.5-2.57l-.29-.34A3.53,3.53,0,0,0,4.18,14.64Z"/><path class="cls-2" d="M25.06,15.23c-.37.54-.08,1.15-.4,1.43a2.54,2.54,0,0,1-.8.25c.38,0,.31.08.53.21a.5.5,0,0,0,.7-.13c.27-.29-.07-1,.19-1.57a2.64,2.64,0,0,1,.9-.95A2.28,2.28,0,0,0,25.06,15.23Z"/><path class="cls-2" d="M24.48,16.11a2.74,2.74,0,0,1-1.14-.18S23.65,16.6,24.48,16.11Z"/><path class="cls-2" d="M6.83,18.49a1.31,1.31,0,0,1-1.22,0,.79.79,0,0,0,0,.4S6.56,19,6.83,18.49Z"/><path class="cls-2" d="M14.77,11s0,.76,1.81.76C16.58,11.73,16.2,10.85,14.77,11Z"/><path class="cls-2" d="M14.68,10.76a2.12,2.12,0,0,1,2.15.89S16.58,10.09,14.68,10.76Z"/><path class="cls-2" d="M22.16,18.72a2.78,2.78,0,0,0,2.25.17c1.48-.46,1.31-1.6,1.31-1.6C24.88,18.89,22.16,18.72,22.16,18.72Z"/><path class="cls-2" d="M23.69,14.83s.31.68,1.13.19A2.6,2.6,0,0,1,23.69,14.83Z"/><path class="cls-2" d="M7.32,21.2c-.86,0-.23.3-.23.3a4.22,4.22,0,0,0,2.1.42c.38,0,.19-.28.19-.28A8.44,8.44,0,0,0,7.32,21.2Z"/><path class="cls-2" d="M9.66,23.21c.69-.14,0-.3,0-.3s-2.16.35-2.89-.62c-.42-.56-.23.16-.23.16S7.15,23.71,9.66,23.21Z"/><path class="cls-2" d="M7.22,20.5c-.69,0-.19.24-.19.24a3.47,3.47,0,0,0,1.69.33c.29,0,.14-.22.14-.22A6.49,6.49,0,0,0,7.22,20.5Z"/><path class="cls-2" d="M22.53,16.75A2.14,2.14,0,0,1,21,16.44S21.22,17.55,22.53,16.75Z"/><path class="cls-2" d="M11.48,14.43a7.1,7.1,0,0,0-4.71,2.08,2.18,2.18,0,0,0-.3,1.77,2,2,0,0,1,.63-1.52c1.33-1.6,4.49-1.91,4.49-1.91S12.39,14.53,11.48,14.43Z"/></g></g></svg>