<svg xmlns="http://www.w3.org/2000/svg" viewBox="0 0 28.35 28.35"><defs><style>.cls-1{fill:#f9f9e3;}.cls-2{fill:#b92d2c;}</style></defs><title>pattern_flower</title><g id="图层_2" data-name="图层 2"><g id="图层_1-2" data-name="图层 1"><circle class="cls-1" cx="14.17" cy="14.17" r="14.17"/><path class="cls-2" d="M15.49,11.9a.65.65,0,0,0,.28.08.52.52,0,0,0,.25-.07.51.51,0,0,0,.23-.27.55.55,0,0,0,0-.36A.51.51,0,0,0,16,11a.52.52,0,0,0-.25-.07.52.52,0,0,0-.52.5v0A.52.52,0,0,0,15.49,11.9Z"/><path class="cls-2" d="M12.94,10.83s0,.07,0,.11a.53.53,0,0,0,.51.41.59.59,0,0,0,.23,0,.53.53,0,0,0,0-.93.59.59,0,0,0-.23,0,.52.52,0,0,0-.51.42S12.94,10.8,12.94,10.83Z"/><path class="cls-2" d="M16.22,12.39a.48.48,0,0,0,0,.18.51.51,0,0,0,.48.34h0a.55.55,0,0,0,.33-.12.52.52,0,0,0,.18-.4.53.53,0,0,0-.18-.39.55.55,0,0,0-.33-.12h0a.51.51,0,0,0-.48.34A.47.47,0,0,0,16.22,12.39Z"/><path class="cls-2" d="M14.38,11.36a.47.47,0,0,0,.24.05.52.52,0,0,0,0-1,.61.61,0,0,0-.24.06.51.51,0,0,0-.28.46A.53.53,0,0,0,14.38,11.36Z"/><path class="cls-2" d="M14.23,0A14.18,14.18,0,1,0,28.35,14.23,14.17,14.17,0,0,0,14.23,0Zm4.23,6.31a.23.23,0,0,1,.12-.06l0,0a1.91,1.91,0,0,1,.84-.16,1.57,1.57,0,0,1,1.39,1,2.21,2.21,0,0,1,.19.9,1.33,1.33,0,0,1,.95.25,2,2,0,0,1,.3,2.5.22.22,0,0,0-.09.07l-.21.31a2.7,2.7,0,0,1-.77.63,2.57,2.57,0,0,1-.37.16,2.81,2.81,0,0,1-.69.14c.62-1.05.61-2.19-.7-2.64l-.09,0a2.46,2.46,0,0,0-.75-1.55l0,0-.12-.08a1,1,0,0,0-.67-.16.76.76,0,0,0-.16,0,1.15,1.15,0,0,0-.29.11,4.25,4.25,0,0,1,.29-.56s0,0,0,0a.79.79,0,0,1,.14-.18A2.05,2.05,0,0,1,18.46,6.31ZM8.08,15.57a1.15,1.15,0,0,1-.16-.31,1.11,1.11,0,0,1-.07-.71,1.19,1.19,0,0,1,.07-.23,2.09,2.09,0,0,1,.36-.57,1.51,1.51,0,0,0,.35.23,2.2,2.2,0,0,0,.95.25h.34l.45-.07h.05l-.05,0a2.14,2.14,0,0,0-.42.37,2.55,2.55,0,0,0-.37.59,3.92,3.92,0,0,0-.26.73c-.05.15.14.27.26.22L9.64,16a7.62,7.62,0,0,1,.73-.67l.29-.2a3.33,3.33,0,0,1,.48-.28,1.93,1.93,0,0,0-.26.59,3,3,0,0,0,0,1.41.19.19,0,0,0,.36,0,.14.14,0,0,0,0-.09l.21-.45.2-.31a3.15,3.15,0,0,1,.24-.3,3.18,3.18,0,0,1,.49-.38l0,0,.29-.14.25-.09.16,0A.26.26,0,0,0,13.2,15,2,2,0,0,1,13,16.8a1.48,1.48,0,0,1-.25.31,1.45,1.45,0,0,1-.29.26l0,0a2.24,2.24,0,0,1-.73.35l-.2,0-.21,0a2,2,0,0,1-.88-.16l-.15-.07-.09,0a3.37,3.37,0,0,1-.55,0c-1-.08-1.88-.5-1.47-1.79A.3.3,0,0,0,8.08,15.57ZM9.76,9.93a2.63,2.63,0,0,0,.61.89,3.27,3.27,0,0,0,.74.56l0,.1a3.38,3.38,0,0,1-.69-.34,4.87,4.87,0,0,1-.74-.6l-.05,0a.2.2,0,0,0-.27.17,1.9,1.9,0,0,0,.27,1,1.27,1.27,0,0,0,.21.25l-.21-.07a6,6,0,0,1-.87-.39.19.19,0,0,0-.26.23A2.65,2.65,0,0,0,9.4,13l.18.12a1.81,1.81,0,0,0,.79.2,2.61,2.61,0,0,0,.53-.06,2.63,2.63,0,0,0,.09.3,4.12,4.12,0,0,1-.62.21,2.94,2.94,0,0,1-.49.08h-.3a1.66,1.66,0,0,1-.77-.2,1.78,1.78,0,0,1-.89-1.2,3.89,3.89,0,0,1-.1-.56.49.49,0,0,0,0-.11A2.33,2.33,0,0,1,7.3,11a1,1,0,0,1,0-.62,1,1,0,0,1,.32-.43,1.14,1.14,0,0,1,.3-.21l0,0a.19.19,0,0,0,.1-.14,1,1,0,0,1,1.52-.72l.05,0A1.71,1.71,0,0,0,9.76,9.93ZM16.25,7.3a1.28,1.28,0,0,1,.48.65,1.21,1.21,0,0,0,.05.18.35.35,0,0,0-.05.08,2.54,2.54,0,0,0-.45,1.12h0L16,9.42l-.14.08a1.45,1.45,0,0,0-.39-.59.78.78,0,0,0-.24-.16,1.18,1.18,0,0,0-.87-.1,1.46,1.46,0,0,0-.56.3.56.56,0,0,0-.13-.07,1.77,1.77,0,0,0-.56-.19,1.72,1.72,0,0,0-.07-.83,1.1,1.1,0,0,1,.63-.68,1.15,1.15,0,0,1,.69,0,2.84,2.84,0,0,1,.65.2h.15l.07-.05.24-.09a1.23,1.23,0,0,1,.53,0h0A.67.67,0,0,1,16.25,7.3Zm2.35,3.44s0,0,0,0a1.27,1.27,0,0,1-.12-.1,1.93,1.93,0,0,0-.61-.3.67.67,0,0,1-.06-.15c-.06-.09-.11-.19-.16-.27a1.43,1.43,0,0,0-.56-.49,1.46,1.46,0,0,0-.34-.1h-.06a1,1,0,0,1,.06-.23,2.06,2.06,0,0,1,.34-.68,1.53,1.53,0,0,1,.35-.33A.64.64,0,0,1,17.63,8a.43.43,0,0,1,.16,0,.72.72,0,0,1,.67.24l.12.15,0,0A2.53,2.53,0,0,1,19,9.49a.24.24,0,0,0,.14.17l.32.1c1,.42.87,1.35.27,2.24a.45.45,0,0,1-.11,0,.49.49,0,0,0-.16-.05,1.31,1.31,0,0,0-.48-.05A1.41,1.41,0,0,0,18.6,10.74ZM13.69,9.31l.05,0a.21.21,0,0,0,.23,0A1.16,1.16,0,0,1,14.38,9a.82.82,0,0,1,.87.17,1,1,0,0,1,.24.35,1.2,1.2,0,0,1,.08.27.2.2,0,0,0,.3.12l.15-.1a1,1,0,0,1,.23-.11,1,1,0,0,1,.48-.06.91.91,0,0,1,.34.14,1.51,1.51,0,0,1,.46.71.31.31,0,0,0,.1.1l0,0,.13,0a1,1,0,0,1,.79.85,2.28,2.28,0,0,1,0,.37v0l-.11,0a1.5,1.5,0,0,0-.41.18,1.34,1.34,0,0,0-.26.19,1.17,1.17,0,0,0-.16.15,1.93,1.93,0,0,0-.54,1.28h0a2.15,2.15,0,0,0-.34.05l-.13,0a3.37,3.37,0,0,0-.35-.22,1,1,0,0,0-.23-.11,1.89,1.89,0,0,0-.41-.1,1.82,1.82,0,0,0-.12-1,1.33,1.33,0,0,0-.24-.4,1.18,1.18,0,0,0-.87-.43,1.26,1.26,0,0,0-.69.15,1.87,1.87,0,0,0-.46.35A1.84,1.84,0,0,0,13,11.2a1.21,1.21,0,0,0-.21-.24.05.05,0,0,0,0,0,.85.85,0,0,0-.29-.17h0l-.05,0a1.71,1.71,0,0,1,.05-1.33l0,0a.7.7,0,0,1,.29-.25,1,1,0,0,1,.25,0h0A1.25,1.25,0,0,1,13.69,9.31Zm2,8.45a2.43,2.43,0,0,1-.2-.28.69.69,0,0,0-.05-.13,1.67,1.67,0,0,1-.13-.92l.18,0,.17,0A2.64,2.64,0,0,0,15.69,17.76Zm-.2-1.68-.24,0a2.69,2.69,0,0,1-.87-.37,2.38,2.38,0,0,1-.69-.72l0,0h0s0,0,.06,0a1,1,0,0,0,.41-.51,1.55,1.55,0,0,0,.07-.31l.15-.06a2.57,2.57,0,0,1,.87-.2h.24a1.55,1.55,0,0,1,.53.15,1.71,1.71,0,0,1,.23.13l.19.14a.22.22,0,0,0,.17,0l.12,0a1.16,1.16,0,0,1,.34-.06.54.54,0,0,1,.43.11.55.55,0,0,1,.13.24.78.78,0,0,1,0,.16,1.11,1.11,0,0,1,0,.17,1.45,1.45,0,0,1-.16.42,1.92,1.92,0,0,1-.4.51,3.87,3.87,0,0,1-.34.21,1.92,1.92,0,0,1-.48.15h-.32Zm-.65,2.22a2,2,0,0,1-.46-.83.43.43,0,0,1,0,0,2.16,2.16,0,0,1,0-.8c0-.14.08-.3.13-.45a3.61,3.61,0,0,0,.42.16A4.54,4.54,0,0,0,14.84,18.3Zm-3.6-2.72a.13.13,0,0,0,0-.06,2.06,2.06,0,0,1,.21-.42,2.56,2.56,0,0,1,.2-.26,2,2,0,0,1,.21-.2,2.51,2.51,0,0,0,.52.25h.08l-.06,0,0,0a2.61,2.61,0,0,0-.73.52l0,0c-.06.06-.11.13-.17.2l-.21.28-.09.16A2.52,2.52,0,0,1,11.24,15.58Zm-.79-.73-.08.05c-.14.11-.28.21-.41.33a2,2,0,0,1,.28-.45.71.71,0,0,0,.13-.12,1.76,1.76,0,0,1,.88-.45l.09,0,.12.13,0,0,0,0-.21.06A6.71,6.71,0,0,0,10.45,14.85Zm2-.35h0a2,2,0,0,1-.73-.51,2.34,2.34,0,0,1-.2-.27,2.14,2.14,0,0,1-.1-.22,3.25,3.25,0,0,1-.11-.37,2.88,2.88,0,0,1,0-.83,3.06,3.06,0,0,1,.14-.56.29.29,0,0,1,0-.09l.05-.12a.71.71,0,0,1,.2-.27.74.74,0,0,1,.52-.16.6.6,0,0,1,.21.08l0,0,.09.06a.88.88,0,0,1,.2.28,1.58,1.58,0,0,1,.15.67.34.34,0,0,0,.09.15h0a2.26,2.26,0,0,1,.74.82,1.82,1.82,0,0,1,.16.52,1,1,0,0,1,0,.52.55.55,0,0,1-.11.2.93.93,0,0,1-.15.13.83.83,0,0,1-.59.1,1.38,1.38,0,0,1-.25-.05h0l-.06,0Zm1.1-2.17.18-.14a1.05,1.05,0,0,1,.69-.24,1,1,0,0,1,.87,1,1.5,1.5,0,0,1,0,.3s0,.08,0,.11a2.88,2.88,0,0,0-.86.18l-.16.06a2.31,2.31,0,0,0-.53-1.12Zm-.76-3.61H12.7a1.08,1.08,0,0,0-.29.13l0,0a1.71,1.71,0,0,0-.46,1.84,1,1,0,0,0-.23.07l0,0a.59.59,0,0,0-.2.12.47.47,0,0,0-.14.14l-.07,0a3.06,3.06,0,0,1-.88-.78,2.75,2.75,0,0,1-.27-.46,1.05,1.05,0,0,1,.27-1.35A1.47,1.47,0,0,1,11,8.25a.23.23,0,0,0,.16-.11A1.47,1.47,0,0,0,11.25,8a1.94,1.94,0,0,1,.21-.3.79.79,0,0,1,.2-.17.63.63,0,0,1,.73,0h0A.89.89,0,0,1,12.7,8,1.3,1.3,0,0,1,12.75,8.72Zm-2.38,3.13a1.34,1.34,0,0,1-.31-.22,1.21,1.21,0,0,1-.29-.46,4.27,4.27,0,0,0,.6.41,3.86,3.86,0,0,0,.59.27,1.55,1.55,0,0,0,0,.21A3.16,3.16,0,0,1,10.37,11.85Zm.49.61a3.09,3.09,0,0,0,0,.43,2.15,2.15,0,0,1-.49,0,1.41,1.41,0,0,1-.77-.24l0,0A1.94,1.94,0,0,1,9,12l.57.22.19.06c.2.05.4.11.6.14A2.72,2.72,0,0,0,10.86,12.46Zm1.84,5.16a1.69,1.69,0,0,0,.25-.2,2.33,2.33,0,0,0,.74-1.55,1.31,1.31,0,0,0,0-.28v0a2.14,2.14,0,0,0,.49.42A2.61,2.61,0,0,0,14,17.5a1.87,1.87,0,0,0,.37.83A3.29,3.29,0,0,0,15,19a.2.2,0,0,0,.22,0,.19.19,0,0,0,.08-.2c0-.1-.05-.22-.08-.33a5.74,5.74,0,0,1-.1-.82l.1.18.24.31a4,4,0,0,0,.53.45l.06.05a.17.17,0,0,0,.17,0,.17.17,0,0,0,.1-.25h0a1.62,1.62,0,0,1-.1-.18l0-.09-.11-.27c0-.09-.06-.19-.08-.28h0a2.22,2.22,0,0,1,0-1h0s0,0,0,0l.22,0h.16a4.07,4.07,0,0,0,.32.44,2.85,2.85,0,0,0,.34.36,3.28,3.28,0,0,0,.56.42l.16.09a2.53,2.53,0,0,0,.67.23l.12,0h0a1.79,1.79,0,0,0,.4,0,1.54,1.54,0,0,1-.4,1.45l0,0a.54.54,0,0,0-.12.09,2,2,0,0,1-.61.26s-.05,0-.06.05a.16.16,0,0,0-.06.05c0,.07-.07.12-.1.18a1.3,1.3,0,0,1-.56.47,1.07,1.07,0,0,1-.34.09,1.94,1.94,0,0,1-.48,0L16,20.63l-.14-.05h0a.29.29,0,0,0-.13,0l-.26.08-.24.05a1.43,1.43,0,0,1-.87-.1,1.38,1.38,0,0,1-.69-1,3.79,3.79,0,0,1-.08-.52.28.28,0,0,0-.12-.16,1.68,1.68,0,0,1-.54-.35,1.07,1.07,0,0,1-.34-.85A.2.2,0,0,0,12.7,17.62Zm5.9.05h0l-.12,0a1.73,1.73,0,0,1-.67-.26l-.16-.1a3,3,0,0,1-.56-.52,3.69,3.69,0,0,1-.29-.4l.29-.14a1.85,1.85,0,0,0,.37-.31l.19.09.16.05a1.91,1.91,0,0,0,.67.1l.12,0h0l.23,0a2.23,2.23,0,0,0,.61-.28,3.27,3.27,0,0,0,.67-.63.19.19,0,0,0-.19-.3,4.15,4.15,0,0,1-.48.11,3.48,3.48,0,0,1-.54.07,1.11,1.11,0,0,0,.24-.16,1.27,1.27,0,0,0,.3-.31,2.63,2.63,0,0,0,.4-1.12.19.19,0,0,0-.32-.16h0l-.08.06-.16.14-.24.16a2.58,2.58,0,0,1-.44.22h0l-.12,0a2.5,2.5,0,0,1-.66.09,0,0,0,0,1,0,0l0,0a.54.54,0,0,0-.12-.09l-.16-.07a1.51,1.51,0,0,1,.16-.68,1.32,1.32,0,0,1,.16-.25,1.51,1.51,0,0,1,.45-.42,1.47,1.47,0,0,1,.22-.1.33.33,0,0,1,.12,0h0a.88.88,0,0,1,.26-.06,1.28,1.28,0,0,1,.58.05h0a1.26,1.26,0,0,1,.79,1.08.25.25,0,0,0,.15.15,2.07,2.07,0,0,1,.42.14c.94.43.75,1.39,0,2a1.94,1.94,0,0,1-.41.27.19.19,0,0,0-.1.13,2,2,0,0,1-.88,1.39A1.43,1.43,0,0,1,18.6,17.67ZM18,14.41a2.57,2.57,0,0,0,.46-.07.21.21,0,0,1,.12,0h0a3.37,3.37,0,0,0,.64-.3l.11-.08a1.39,1.39,0,0,1-.44.7.77.77,0,0,1-.31.16h0l-.12.05a1.75,1.75,0,0,1-.46,0,1.64,1.64,0,0,0,0-.22A2.11,2.11,0,0,0,18,14.41Zm.46,1h.44a4.35,4.35,0,0,0,.48,0,1.91,1.91,0,0,1-.65.33l-.13,0h-.14a1.44,1.44,0,0,1-.67-.11l-.1,0,.1-.15a.06.06,0,0,1,0,0,.61.61,0,0,0,.07-.14A3,3,0,0,0,18.46,15.43ZM12.7,5.15a.13.13,0,0,0,0-.08.09.09,0,0,0,0-.06A2.72,2.72,0,0,1,13,4.69a1.79,1.79,0,0,1,.74-.47,1.82,1.82,0,0,1,.69-.09,1.79,1.79,0,0,1,.87.28,1,1,0,0,1,.24.21,1.25,1.25,0,0,1,.29.44L16,5h0l.23-.06a1.94,1.94,0,0,1,.48,0,2.29,2.29,0,0,1,.34.07,1.76,1.76,0,0,1,.56.33l.16.18A1.32,1.32,0,0,1,18,6l-.22.25a1.4,1.4,0,0,0-.16.2,4.74,4.74,0,0,0-.56.91,2,2,0,0,0-.1.21,2.15,2.15,0,0,0-.24-.37,1.29,1.29,0,0,0-.48-.33A1.55,1.55,0,0,0,16,6.81a1.21,1.21,0,0,0-.53,0,1.53,1.53,0,0,0-.24.07L15.09,7a3.61,3.61,0,0,0-.71-.21,2,2,0,0,0-.69,0,1.28,1.28,0,0,0-.74.49,1.74,1.74,0,0,0-.11.18,1.74,1.74,0,0,0-.14-.12s0,0,0,0l0-.12a2.32,2.32,0,0,0,.22-1A2.39,2.39,0,0,0,12.7,5.15ZM7.3,6.1a2.06,2.06,0,0,1,.62-.33,1.66,1.66,0,0,1,1.18,0A2.45,2.45,0,0,1,9.58,5a1.82,1.82,0,0,1,.79-.52,1.76,1.76,0,0,1,.88,0,1.66,1.66,0,0,1,.21.06l.2.09a1.57,1.57,0,0,1,.73.79.08.08,0,0,1,0,0,1.79,1.79,0,0,1,.14.75,1.83,1.83,0,0,1-.14.71s0,0,0,.05-.05.11-.07.16a1.07,1.07,0,0,0-.66,0,1.24,1.24,0,0,0-.2.1,1.37,1.37,0,0,0-.21.15,2,2,0,0,0-.36.52,1.59,1.59,0,0,0-.52.13,1.21,1.21,0,0,0-.59.48l-.2-.08a1.38,1.38,0,0,0-1.66.47,1.91,1.91,0,0,0-.15.28,5.29,5.29,0,0,1-.47-.4A2.84,2.84,0,0,1,6.75,8,1.57,1.57,0,0,1,7.3,6.1ZM5,11.54H5a1.74,1.74,0,0,1,0-2,1.8,1.8,0,0,1,.36-.37,2.24,2.24,0,0,1,.78-.37,1.94,1.94,0,0,1,.64,0v0a4,4,0,0,0,.47.54l.27.21-.2.16-.07.06a1.52,1.52,0,0,0,0,2.08l.15.19a2.78,2.78,0,0,0,.47,1.38l.09.12-.09.12a2.18,2.18,0,0,0-.44.87.77.77,0,0,0,0,.15l-.16,0a3.43,3.43,0,0,1-.77.12,2,2,0,0,1-.35,0,1.91,1.91,0,0,1-.78-.23A2.25,2.25,0,0,1,5,14.3,1.7,1.7,0,0,1,5,11.54Zm6.62,6.77a5.36,5.36,0,0,0-.17.57l0,.11a3.66,3.66,0,0,1-.21.55,2,2,0,0,1-.88,1,1.69,1.69,0,0,1-.66.15H9.58a2,2,0,0,1-1-.45c-.4-.31-.53-.38-.62-.36A1.1,1.1,0,0,1,7.3,20H7.17a2,2,0,0,1-1-.34,1.78,1.78,0,0,1-.78-1.2v0h0a1.14,1.14,0,0,1,0-.45h0v0a2.21,2.21,0,0,1,.23-.65A1.66,1.66,0,0,1,5.4,17h0a1.51,1.51,0,0,1,0-1.67h0l.13-.2a4.78,4.78,0,0,0,.65.07h.37A4.69,4.69,0,0,0,7.3,15l.16,0a1.61,1.61,0,0,0,.27.7,1.56,1.56,0,0,0,.19,1.52,2.35,2.35,0,0,0,1.66.67,4.53,4.53,0,0,0,.52,0,1.25,1.25,0,0,0,.27.1,2.06,2.06,0,0,0,.88.12h.21l.2,0h.09C11.72,18.14,11.69,18.23,11.66,18.31Zm6.94,4.6s0,.06,0,.09-.08.19-.12.28a1.81,1.81,0,0,1-.67.72l-.16.09a1.83,1.83,0,0,1-.56.13,1.28,1.28,0,0,1-.34,0,1.69,1.69,0,0,1-.48-.12A1.15,1.15,0,0,1,16,24a2.48,2.48,0,0,1-.53-.36c-.07-.06-.13-.13-.2-.2s0,0,0,0a3.55,3.55,0,0,1-.87.12,2.16,2.16,0,0,1-.69-.07A1.65,1.65,0,0,1,13,23.1a3.47,3.47,0,0,1-.25-.29,2.46,2.46,0,0,1-.29-.61s0-.05,0-.08a5.54,5.54,0,0,1-.18-1.72,5.17,5.17,0,0,1,.18-.87s0-.05,0-.07a3.6,3.6,0,0,1,.29-.63h0A1.5,1.5,0,0,0,13,19l.29.17a2.57,2.57,0,0,0,.45,1.3,1.4,1.4,0,0,0,.69.51,1.9,1.9,0,0,0,.87.07l.24,0,.32-.08L16,21a1.06,1.06,0,0,0,.23.05,1.55,1.55,0,0,0,.48,0l.34-.06a1.51,1.51,0,0,0,.56-.32l.16-.15s.06-.07.08-.11a2.55,2.55,0,0,0,.59.92.71.71,0,0,0,.12.13l0,0,.17.14A3.51,3.51,0,0,1,18.6,22.91Zm4.88-3.71a1.91,1.91,0,0,1-1.42.78,2.14,2.14,0,0,1-.09.69,1.57,1.57,0,0,1-1.14,1,3.2,3.2,0,0,1-.46.06,2.33,2.33,0,0,1-.93-.13A1.82,1.82,0,0,1,18.6,21s0,0,0,0a.94.94,0,0,1-.12-.18,2.41,2.41,0,0,1-.28-.63c.09-.05.19-.08.28-.12a.35.35,0,0,1,.12-.07l0,0a1.86,1.86,0,0,0,.77-2l.07,0a2.19,2.19,0,0,0,1.18-1.51l.21.18a2.24,2.24,0,0,0,1.14.44,2.18,2.18,0,0,0,.71-.06l.16,0a2.1,2.1,0,0,1,.64.66A1.42,1.42,0,0,1,23.48,19.2Zm0-3.05a1.91,1.91,0,0,1-1.51.51,2,2,0,0,1-1.11-.52c1.19-.78,1.43-2.3,0-2.85l-.22-.08a1.9,1.9,0,0,0-.4-.83,3.77,3.77,0,0,0,.62-.13,2.65,2.65,0,0,0,.54-.22,2.71,2.71,0,0,0,.6-.42,3,3,0,0,0,.45-.54,1.37,1.37,0,0,1,1.06.6,1.26,1.26,0,0,1,.24.54,1.24,1.24,0,0,1-.24.93s0,.06-.06.1l-.06.07a.2.2,0,0,0,0,.24l.1.12A1.69,1.69,0,0,1,23.48,16.15Z"/></g></g></svg>