<svg xmlns="http://www.w3.org/2000/svg" viewBox="0 0 27 27"><defs><style>.cls-1{fill:#f9f9e3;}.cls-2{fill:#af2e2b;}</style></defs><title>pattern_cloud</title><g id="图层_2" data-name="图层 2"><g id="图层_1-2" data-name="图层 1"><circle class="cls-1" cx="13.5" cy="13.5" r="13.5"/><path class="cls-2" d="M2.69,12.7A9.12,9.12,0,0,0,.18,11.29,15,15,0,0,0,0,13a28.94,28.94,0,0,1,6,4.21s3.74,3.78,6.46,1.12c1.93-2.7-.15-4.37-.15-4.37a3,3,0,0,0-2.54-.39c-.89.83-.31,2.21.62,2.08s1.06-1,1.06-1,.52,2.56-1.63,2.8-3-1.78-2.82-3.24C7,14.12,4.17,14.25,2.69,12.7Z"/><path class="cls-2" d="M18.55,15.27c0-2.18-3-2.7-3.76-1.19-.5,1.61,1.15,2.1,1.55,1.67a1.89,1.89,0,0,0,.37-1.5,1.91,1.91,0,0,1,.75,2.13,4.43,4.43,0,0,1-1.69,2C16,18.42,18.54,17.42,18.55,15.27Z"/><path class="cls-2" d="M13.54,0A13.5,13.5,0,0,0,.25,10.86a9.18,9.18,0,0,1,1.88.69c2.67,1.37,4.35,2,5.71.62a2.78,2.78,0,0,0,.44-2.29S7.61,12,6.19,11.24a1.85,1.85,0,0,1-.48-3A2.61,2.61,0,0,1,9.6,9.64a4.84,4.84,0,0,1,.26,1.75s2.57.37,3.36,1.68c0,0,1.51.34,1.52-.77A1.18,1.18,0,0,0,13.39,11c-.59,0-3,.37-3-1.63s2.51-1.83,3-1.45a2.57,2.57,0,0,1,3.31-2.08A2.26,2.26,0,0,1,18.28,7.2s2.45-.29,2,3c-.7,2.56-3.46,1.34-3.46,1.34a1.64,1.64,0,0,1-.29-1.72c.5-.71,1.25-.14,1.15.2s-.4.79-.86.3c0,0-.2,1.12,1.09.71S18.94,9,17.69,8.4s-2.84,1-2.22,2.88,3.56,1.6,4.32.86,2.85-3.21,4.19-.73c0,0,2.77-.25,1.94,2.42h0l-.2.33s.72,3.09-1.59,3.26c-2.15.14-2-1.74-1.94-2.57.33-.87,1.42-.32,1.42-.32s-.63.13-.53,1.12,1.88.68,1.68-.93S22.19,13.38,21.6,14a27.41,27.41,0,0,0-2.69,4.38s-3.13,5.28-8.3,3.73c0,0-3.27-.54-7-4.63A15,15,0,0,0,0,14.14,13.49,13.49,0,1,0,13.54,0Z"/></g></g></svg>