<svg xmlns="http://www.w3.org/2000/svg" viewBox="0 0 28.35 28.35"><defs><style>.cls-1{fill:#f9f9e3;}.cls-2{fill:#b92d2c;}</style></defs><title>pattern_sun</title><g id="图层_2" data-name="图层 2"><g id="图层_1-2" data-name="图层 1"><circle class="cls-1" cx="14.17" cy="14.17" r="14.17"/><path class="cls-2" d="M7.31,16.13c0,.05,0,.07,0,.11s0,0,0,.05,0,.05,0,0,0,0,.06-.11,0,0,0-.06S7.3,16.15,7.31,16.13Z"/><path class="cls-2" d="M7.81,16.87a.19.19,0,0,1,0-.08.56.56,0,0,1,0-.1.33.33,0,0,0,0-.06h0s0,0,0-.06,0-.06,0-.1h0l0,0s0,0,0,0,0,.09,0,.11h0v.05s0,0,0,0v0h0s0,.05,0,.07h0s0,0,0,0a.25.25,0,0,1,0,.09l0,0a.14.14,0,0,0,0,.06l-.06.1s0,0,0,.06h0s0,0,0,0-.07,0-.08,0,.1.06.09.07v0s0,0,.06,0h0a.52.52,0,0,1,0,.11.07.07,0,0,1-.06,0,.29.29,0,0,1,0,.11l0,.06s0,0,0,0,0,0,0,.06,0,0,0,0,0,0,0,.08,0,0,.07-.07a.76.76,0,0,0,0-.11s0,0,0,0v0a1.55,1.55,0,0,0,0-.23l0,0s0-.08,0-.08,0,0,0,0,0,0,0,0,0,0,0,0a.09.09,0,0,1,.06-.06v0a0,0,0,0,1,0,0s0,0,0,0a.45.45,0,0,1,0-.16S7.77,16.88,7.81,16.87Z"/><path class="cls-2" d="M7.22,16.65s.07-.15,0-.13Z"/><path class="cls-2" d="M8,15.12s0,0,0,0l0,0h.06s0,0,0,0v0h0s0,0,0,0V14.8l0,0h0a.11.11,0,0,0,0,0s0-.06,0-.07h0s0,.06-.06.09h0s0,0,0,0,0,0,0,0,0,0,0,0l0,0,0,0,0,0s0,0,0,.05,0,.07,0,.09-.15-.05-.12,0a.07.07,0,0,1,.08,0C7.88,15.11,8,15.09,8,15.12Z"/><path class="cls-2" d="M7.21,16.71s0,0,0,0a.27.27,0,0,0-.08.15s0,0-.06.07,0,.06,0,.09,0,.06,0,.1,0,0,0,.06,0,0,0,.05,0-.08,0-.15a.18.18,0,0,0,.09-.18C7.14,16.82,7.19,16.79,7.21,16.71Z"/><path class="cls-2" d="M7.45,15.93s0,.07,0,.08.13-.17.18-.27,0,0,.06,0,0-.07,0-.1,0,0,0,0v0h0v0s0-.07,0-.08,0,0,0,0h0s0,0,0,0,0,0,0,0l0,0s.07,0,.09,0,0-.07-.1-.08-.06.06-.1.09a.15.15,0,0,1-.06.11l0,0a.08.08,0,0,0-.07,0l0,.09s-.07.1-.09.18,0,0,0,0,0,0,0,0,0,0,0,.08S7.45,15.88,7.45,15.93Z"/><path class="cls-2" d="M7.17,16.49s0,.16,0,.15S7.19,16.5,7.17,16.49Z"/><path class="cls-2" d="M7,21.49s0,0,0-.06v-.09s0,0,0,0h0s0-.11,0-.16v0s0-.05,0-.05v0l0,0s0,0,0,0L7,21v0H7a0,0,0,0,1,0,0,.28.28,0,0,1,0-.11s0,0,0-.05,0,0,0-.06,0-.06,0-.07a.23.23,0,0,1,0,0H7v-.05s0,0,0-.07H7s0,0,0,0,0,0,0,0,0,.06,0,.08a0,0,0,0,1,0,0v0s0,0,0,0v0H7v0h0a0,0,0,0,0,0,0s0,0,0,.06,0,0,0,0,0,0,0,0,0,.06,0,.08,0,0,0,0h0v.07s0,0,0,0a0,0,0,0,1,0,0s0,0,0,0H7a.2.2,0,0,0,0,.07l0,0a.21.21,0,0,1,0,.08v0s0,0,0,0,0,0,0,0,0,0,0,0S7,21.47,7,21.49Z"/><path class="cls-2" d="M6.85,18.06s0-.06,0-.1l0-.08s0,0,0,0,0,.07,0,.11S6.78,18.06,6.85,18.06Z"/><path class="cls-2" d="M7.08,18.81h0a.1.1,0,0,1,0,0s0,0,0,0A.24.24,0,0,1,7,19H7s0,0,0,0,0,0,0,0v0H7s0,.06,0,.07,0,0,0,0l0,0v.09s0,0,0,.05a.07.07,0,0,1,0,.05l0,.12s0,0,0,.06,0,0,0,0a0,0,0,0,0,0,0l0,.05s.06,0,.06,0,0,0,0,0,0,0,0,0H7v.13s0,0,0,0,0,0,0,0,0,.1,0,.15a.14.14,0,0,1,0,.06s0,0,0,0,0,0,0,0a.08.08,0,0,0,0,.06s0,0,0,0H7s0,0,0-.05a.28.28,0,0,1,0-.09.06.06,0,0,1,0,0,.08.08,0,0,1,0,0v0c0-.06,0-.16,0-.23s0,0,0,0,0-.08,0-.08a.06.06,0,0,0,0,0s0,0,0,0,0,0,0,0A.11.11,0,0,1,7,19.57v0s0,0,0,0a0,0,0,0,1,0,0,.27.27,0,0,1,0-.16s0-.06.07-.07,0-.07,0-.09a.39.39,0,0,1,0-.11.11.11,0,0,0,0-.05s0,0,0,0,0,0,0-.06S7.1,18.85,7.08,18.81Z"/><path class="cls-2" d="M6.84,17.81s.13-.27.08-.28S6.79,17.81,6.84,17.81Z"/><path class="cls-2" d="M6.9,17.45a.23.23,0,0,0,0-.1C6.88,17.32,6.84,17.43,6.9,17.45Z"/><path class="cls-2" d="M9.27,13.77a.17.17,0,0,1-.14.09c0,.05-.06.07,0,.08s0-.06.06,0a.12.12,0,0,0,.14,0S9.31,13.78,9.27,13.77Z"/><path class="cls-2" d="M9,14s0,0,0,.06S9.05,14.05,9,14Z"/><path class="cls-2" d="M7.41,17.86a.19.19,0,0,1,0-.08.75.75,0,0,1,0-.11l0-.05a0,0,0,0,1,0,0s0-.05,0-.07,0-.06,0-.1,0,0,0,0l0,0s0,0,0,0,0,.09,0,.11a0,0,0,0,1,0,0s0,0,0,0,0,0,0,0v0h0s0,.05,0,.07l0,0,0,0a.28.28,0,0,1,0,.09s0,0,0,0a.14.14,0,0,0,0,.06.54.54,0,0,0,0,.11.43.43,0,0,0,0,.05h0s0,0,0,0,0,0,0,0,.06,0,0,.05v0s0,0,.06,0h0s0,.07,0,.11a.07.07,0,0,1-.06,0,.75.75,0,0,1,0,.11s0,.06,0,.07v0c0,.07,0,0,0,.07s0,0,0,0,0,.05,0,.08,0,0,.06-.07,0-.09,0-.12,0,0,0,0v0c0-.06,0-.16,0-.23l0,0s0-.08,0-.09a.08.08,0,0,0,0,0s0,0,0,0,0,0,0,0a.13.13,0,0,1,.07-.06v0a0,0,0,0,1,0,0l0-.05a.76.76,0,0,1,0-.16C7.38,17.94,7.37,17.87,7.41,17.86Z"/><path class="cls-2" d="M8.78,14.3s0,0,0,0v0l0,0s.1,0,.11-.09Z"/><path class="cls-2" d="M8.83,14.26a.13.13,0,0,0,.1-.08S8.83,14.2,8.83,14.26Z"/><path class="cls-2" d="M9.42,13.64a.05.05,0,0,0,.07,0s0,0,0,0,0-.06,0-.07h0c0-.08.07,0,.09-.09a.09.09,0,0,0-.09-.05c0,.07,0,.05-.06.06s0,.06,0,.06-.09.07-.15.07-.06.06,0,.14,0,0,0,.06A.21.21,0,0,0,9.42,13.64Z"/><path class="cls-2" d="M9.75,13.33a.21.21,0,0,0,0,.08C9.82,13.42,9.83,13.33,9.75,13.33Z"/><path class="cls-2" d="M8.67,14.49s0,0,0-.07A.15.15,0,0,0,8.67,14.49Z"/><path class="cls-2" d="M7.55,23.39c0-.08,0-.11,0-.17a.35.35,0,0,0,0-.13.11.11,0,0,0,0-.05s0,0,0-.05,0,0,0,0,0,.15,0,.24S7.49,23.34,7.55,23.39Z"/><path class="cls-2" d="M7.85,15.61s.05-.12,0-.11S7.79,15.61,7.85,15.61Z"/><path class="cls-2" d="M7.42,22.73c-.06,0,0,.2,0,.21S7.4,22.77,7.42,22.73Z"/><path class="cls-2" d="M8.63,14.58s0-.1,0-.1a.06.06,0,0,1,0,.07.15.15,0,0,0,0,.06s0,0,0,0l0,0S8.59,14.58,8.63,14.58Z"/><path class="cls-2" d="M8.75,15.59c.14-.2.28-.39.43-.58a5.47,5.47,0,0,1,1.33-1.21,4.21,4.21,0,0,1,1.55-.5,2.6,2.6,0,0,1,1.92.49,2,2,0,0,1,.9,2,1.89,1.89,0,0,0,0-1.35A2.84,2.84,0,0,0,12,13.11c-2.59.41-3.7,3.16-3.7,3.16A4.21,4.21,0,0,1,8.75,15.59Z"/><path class="cls-2" d="M8.3,24.55v0l0,0h0s0,0,0,0Z"/><path class="cls-2" d="M10.16,26.68c0,.05-.09.1,0,.15s0,0,.11,0,0,.07.06.07S10.21,26.75,10.16,26.68Z"/><path class="cls-2" d="M10,26.38s0,.08.05.09S10.05,26.35,10,26.38Z"/><path class="cls-2" d="M8.29,24.65s0,0,0,0S8.25,24.65,8.29,24.65Z"/><path class="cls-2" d="M10.5,27,10.4,27s0,0,0-.05-.08,0-.08,0,.12.16.22.21a.08.08,0,0,0,0-.05A.13.13,0,0,0,10.5,27Z"/><path class="cls-2" d="M10.82,27.45c0,.05,0,.07.06.09s.09.06.07.11.05,0,.05,0h0s0,0,.05,0a.46.46,0,0,0,.07.07h0s0,0,0,0h0a.34.34,0,0,0-.06-.06s0-.05,0-.06,0,0,0-.05,0,0,0,0v0s0,0,0,0,0,0,0,0S10.83,27.47,10.82,27.45Z"/><path class="cls-2" d="M10.29,27.05c0-.06-.06-.15-.11-.12l.06.06S10.26,27,10.29,27.05Z"/><polygon class="cls-2" points="13.12 8.34 13.12 8.34 13.12 8.34 13.12 8.34"/><polygon class="cls-2" points="10.65 27.9 10.64 27.9 10.65 27.9 10.65 27.9"/><path class="cls-2" d="M4.66,22.57s0,0,0,0,0,0,0,0Z"/><path class="cls-2" d="M4.68,22.5c0-.1,0-.15-.08-.22s0,.11,0,.16,0,.06,0,.09,0,0,0,0S4.69,22.52,4.68,22.5Z"/><path class="cls-2" d="M14,8.22s0,0,0,0,0,0,0,0,0,0,0,0l.08,0s.05,0,.06-.06-.09,0-.13,0-.06,0-.11,0-.06,0-.08.08h0S14,8.22,14,8.22Z"/><path class="cls-2" d="M9.9,26.33a.08.08,0,0,1,0,0c-.07,0-.07-.07-.13-.08s-.05-.1-.08-.06a.16.16,0,0,1,.09.15.23.23,0,0,1,.12.2l.06,0c0,.06,0,.08,0,.15H10c0-.05.1-.09,0-.13s0-.06-.07-.09l0,0s0,0,0-.06S9.91,26.35,9.9,26.33Z"/><path class="cls-2" d="M8.47,25v0l-.05-.08h0A.12.12,0,0,0,8.47,25Z"/><path class="cls-2" d="M12.19,8.88s0,.06,0,.08,0,0,.09,0,0,0,0-.07S12.25,8.88,12.19,8.88Z"/><path class="cls-2" d="M11.33,10.33s-.08,0-.06.08l.08,0S11.35,10.35,11.33,10.33Z"/><path class="cls-2" d="M13.06,9.3s.06,0,.08,0,0,0,0,0-.15,0-.22.07S13,9.31,13.06,9.3Z"/><path class="cls-2" d="M11.46,10.3s-.1,0-.1,0S11.46,10.36,11.46,10.3Z"/><path class="cls-2" d="M22.63,2.8a2.72,2.72,0,0,1-.13.49A4,4,0,0,1,22,4l-.32.36a1.29,1.29,0,0,1,.59,1.29v.08s0,0,0,.07a.17.17,0,0,1,0,.07s0,0,0,0,0,0,0,0V6l0,0v0s0,0,0,0a0,0,0,0,0,0,0,1.54,1.54,0,0,1-.17.43s0,0,0,0,0,.06,0,.09h0v0h0v0h0s0,0,0,0-.08.15-.13.22h0s0,0,0,0,0,0,0,0-.09.13-.13.19a0,0,0,0,0,0,0,.09.09,0,0,0,0,.08.3.3,0,0,0-.08.08s0,0,0,0,0,.12-.09.14h0s-.09,0-.11,0a.27.27,0,0,1,0,.07s0,0,0,0h0l0,0a.61.61,0,0,1,0,.06s0,0,0,0h0L21,8l0,0a.17.17,0,0,0-.05.09.1.1,0,0,0-.07,0,.18.18,0,0,1-.16.14.42.42,0,0,1-.22.13s0,0-.05.08-.12.11-.22.09.13-.05.16-.15.1-.08.17-.07.06-.07.1-.09,0,0,0,0h0s0-.05.05-.06h0s0,0,0-.06,0,0-.05,0h-.06a.44.44,0,0,1-.07.09s0,0,0,.06,0,0,0,0l0,0s-.06,0-.08,0l-.05,0,0,0h0s0,0,0,0,0,0,0,.06-.06,0-.1,0,0,0-.07,0,0,.07,0,.05a.18.18,0,0,1,0,.13l-.28,0,0,0-.05.06c0,.08.08.09,0,.18s-.07-.06-.13-.08a.31.31,0,0,0-.11.09c-.05,0-.07.05-.13,0s0,.06,0,.1.07,0,.12,0-.36,0-.38.09.1-.07.06-.1,0,0-.05,0,0-.1,0-.1S19,9,19,9.05h-.1s0,0,0,0h0l0,0s0,0,0,0-.1,0-.11-.05-.09.08-.14.09l-.07,0s0,0,0,.08,0,0-.09,0,0,0,0,.06l-.13-.07s-.14-.09-.18,0-.12,0-.16.1,0,0-.05,0,0,0-.05-.05,0,.05-.05.09a.31.31,0,0,1-.12.05s0,0,0,.07-.2-.07-.28,0l0,.08h0l0,0,0,0,0,0v0a.39.39,0,0,1-.14.05c-.05.06-.15,0-.21,0s-.05.05-.06.11-.23,0-.27,0-.12.12-.21.11,0-.05,0,0-.11,0-.12-.07,0,.06-.06.07,0,0-.09,0a.13.13,0,0,0-.12,0s-.06,0-.08,0a.29.29,0,0,1-.06.17l-.25,0a.11.11,0,0,0,0,0h-.1s0,0,0,0a.15.15,0,0,0-.19,0,1.31,1.31,0,0,1-.26.09.77.77,0,0,0-.23.06s-.06,0-.1,0l0,0v0s0,0,0,0l-.17,0,0,0,0,0s0,0-.06,0-.05,0-.08,0-.05,0-.07,0l-.07,0s-.16,0-.21,0l-.06,0h-.05l0,0h0l-.11.05s0,0,0,0l-.08,0-.09,0-.14,0-.4.12a.05.05,0,0,1,0,0l-.09,0-.07,0h0a.26.26,0,0,1-.14.05s0,0,0,0-.13.06-.18.07h0L12,10.9h-.05l-.18.08h-.09s-.05,0-.08,0-.16.08-.23.15l0,0s0,0-.07,0a.91.91,0,0,0-.53.23s-.05,0-.08,0a.18.18,0,0,0-.13.06l0,0s0,0,0,0h0l-.07,0s0,0-.06.07l-.06,0c-.1.11-.25.12-.37.17s0,0-.05,0l-.07.09s0,0,0,0a.36.36,0,0,1-.09.08h0c0,.05-.15.07-.21.1l.07.06h0a0,0,0,0,1,0,0h0l-.05,0h0s0,0,0,.05H9.26l0,0-.08,0-.07.06H9s0,0,0,0H9s-.08,0-.11.06h0s0,.06-.06.07,0,0,0,.05,0,0,0,0-.09,0-.13,0,0,0,0,0l0,0,0,0s0,0-.06.05l0,0s0,0-.08.07a1.47,1.47,0,0,0-.1.13H8.17c0,.05-.05,0-.06.09s-.07.06-.12.06,0,.07-.07.12a.28.28,0,0,0-.12.1c-.06,0-.14,0-.13.11s-.07.06-.1.08,0,0,0,0-.1.1-.13.18l-.08,0L7.25,14c0,.06-.09,0-.11.12s-.06,0-.1,0a.47.47,0,0,0-.08.14l0,.05h0s0,.1,0,.12,0,0,0,0,0,0,0,.07h0s0,0-.06,0a.46.46,0,0,1-.13.19l-.09.09c0,.06,0,.12-.1.19s0,.06-.07.05a.08.08,0,0,0,0,.07l0,0s0,0,0,0,0,.11-.07.16,0,.07-.09.08,0,0,0,.06a.67.67,0,0,0-.09.21s0,0,.06.06-.07.08-.11.09-.07.22-.12.3a.1.1,0,0,1,0,0,3.54,3.54,0,0,1-.18.55s0,0,0,0l0,.07a3.14,3.14,0,0,0-.08.38.43.43,0,0,1-.06.12l0,.18a1.93,1.93,0,0,0-.09.31s0,0,0,.09,0,0,0,0v0s0,0,0,.05,0,.07,0,.14a.78.78,0,0,0,0,.26s0,0,0,.06,0,0,0,0a.24.24,0,0,1,0,.08s0,.06,0,.09a1.79,1.79,0,0,0,0,.23s0,0,0,.06,0,0,0,0h0s0,0,0,0a.06.06,0,0,1,0,.06s0,0,0,0,0,.06,0,.07,0,0,0,.07l0,0c0,.07,0,.09,0,.15s0,0,0,0,0,.1,0,.14v.13s0,.05,0,.07,0,.14,0,.22a.34.34,0,0,1,0,.1s0,0,0,0,0,0,0,.05v0s0,0,0,0h0v.11s0,0,0,0,0,0,0,0a.2.2,0,0,0,0,.08s0,0,0,0,0,.06,0,.06a.2.2,0,0,1,0,.11,2,2,0,0,0,.06.35c0,.06,0,.07,0,.12s0,0,0,.06a.3.3,0,0,0,0,.21.79.79,0,0,1,0,.13s0,0,0,0v0h0s0,0,0,0h0s0,0,0,0h0s0,0,0,0h0v0a1.56,1.56,0,0,1,.11.26s-.05,0-.1,0,0,0,0-.06,0-.06,0-.09l0,0s0,0,0,0,0,0,0,0,0,0,0-.05,0,0,0-.05a.25.25,0,0,1,0-.13c0-.06,0-.15-.07-.2s0,.24,0,.1c0,0,0,0,0,0s0,.1,0,.11a.15.15,0,0,0,0,.09s0,.06,0,.06,0,.11,0,.15a.17.17,0,0,0,0,.17.33.33,0,0,0,0,.06s0,0,0,0,0,0,0,0a.16.16,0,0,1,.07.09.26.26,0,0,1,0,.05s0,0,0,.09,0,0-.05-.06,0,0,0,0a.07.07,0,0,0,.06.07l0,.1s0,.05,0,.09,0,.07,0,.08,0-.11,0-.21.09.13.09.2a1.06,1.06,0,0,1,0,.31s0-.05,0,0,0-.07,0-.1,0,0,0,0,0,0,0,0,0,.06,0,.08l0,0s0,0,0,0,.08.09.07.16,0,.05.06.07.07.11.08.15,0,0,0,0,.06.11.07.15,0,.05,0,.09,0,.08,0,.1l.06.09s0,0,0,.06,0,0,0,.11.06.07.07.12,0,.06,0,.08,0,.05,0,.06.06.14.08.18a.18.18,0,0,0,.07.05.22.22,0,0,0,0,.16h0s0,0,0,.05,0,0,0,0,0,.09.07.08,0,.09,0,.12,0,.07,0,.21,0,0,.08,0a.87.87,0,0,0,.16.3c0,.09,0,.05.07.12a.08.08,0,0,1,0,.07s0,0,0,.06,0,0,0,0l.14.18h0s0,.06,0,.11.07,0,.09,0,0,.05,0,.06l.16.14.18.17a.1.1,0,0,1,0,0s0,0,0,.05a1.35,1.35,0,0,1,.09.11l0,0-.13-.09-.34-.24-.23-.18,0,0L6.82,26l-.1-.07s0-.05,0-.06,0,0,0,0v0h0s0,0,0,0,0,0,0,0v0s0,0,0-.07-.1,0-.13-.08,0,0,0,0,0,0,0,0,0-.1-.1-.12-.06-.05-.06-.1,0,0-.08,0a.08.08,0,0,0,0-.07s0,0,0,0A.18.18,0,0,0,6,25.07c0-.06,0-.06,0-.1s0-.08-.09-.1a.21.21,0,0,0-.09-.13.44.44,0,0,0-.2-.25.7.7,0,0,0,0-.14c-.07,0-.09-.09-.09-.16s0,0,0-.06A.29.29,0,0,0,5.34,24c0-.08,0,0,0-.09a.17.17,0,0,1-.1,0,.43.43,0,0,1,0-.12l0,0s0,0,0,0a.06.06,0,0,1,0-.07.64.64,0,0,1-.1-.13l0,0s0,0,0-.06-.07-.06-.09-.1a1.5,1.5,0,0,0-.09-.18s0-.06,0-.07,0,0,0,0l0,0s0,0,0,0l0,0a.1.1,0,0,1,0,0s0,0,0,0,0-.06,0-.09a.19.19,0,0,0,0-.07l0-.06s0,0,0,0h0a.1.1,0,0,1,0,0s0,0,0,0a0,0,0,0,1,0,.05c-.06,0,0-.08-.11-.12s0-.06,0-.09,0-.14-.07-.14,0-.12,0-.17l0,0s0-.11,0-.14,0-.16,0-.23a.08.08,0,0,1,0-.07v-.06a.08.08,0,0,1,0-.09.27.27,0,0,0-.07-.12c0-.06.05,0,.06-.08s0,0,0,0,0,0-.06,0l0-.08s0-.29-.05-.42,0-.16,0-.22,0,0,0-.06a.08.08,0,0,1,0-.07s0,0,.06,0,0,0,0,.08l0,0s0,0,0,.08a.62.62,0,0,0,.07.19s0-.05,0-.09,0,0,0-.06,0,0,0-.06,0,0,0-.06v-.06s0,0,0-.05h0s0,0,0,0v-.06s0-.09,0-.13,0,0,0,0,0,0,0-.07a.13.13,0,0,0,0-.12.18.18,0,0,0,0-.09c0-.05,0-.1,0-.13v-.06a.22.22,0,0,0,0-.1c0-.08,0-.12,0-.21s0-.09,0-.13,0-.11,0-.13,0,.15-.08.17,0-.06,0-.08,0,0,0-.06,0-.06,0-.06,0,0,0,0,0-.05,0-.07l0,0s0-.1,0-.14,0,0,0,0a0,0,0,0,1,0,0s0,0,0,0,0,0,0,0a.08.08,0,0,0,0-.06h0s0,0,0,0l0,0s0-.05,0-.08a.14.14,0,0,1,0-.06s0,0,0,0,0,0,0,0,0-.05,0-.07l0-.14a.19.19,0,0,1,0-.08s0,0,.06,0A.43.43,0,0,1,4.3,18c0-.05,0,0,0-.08s0,0,0-.06a1.07,1.07,0,0,1,0-.25s0,.11-.07.08a1.77,1.77,0,0,1,0,.21.39.39,0,0,1-.06.2s0-.05,0-.12v0l0,0s0,0,0-.06.06-.12,0-.14a.29.29,0,0,0,0-.14s0-.06,0,0,0,0,0,0,0,0,0-.06,0-.14.06-.22l.06-.34s0,0,0,0,0-.19,0-.21a.9.9,0,0,1,0-.16v0l0-.07a.27.27,0,0,1,0-.09c0-.1.09-.21.12-.31s0-.08,0-.12,0,.06,0,.08a.85.85,0,0,0-.06.19s0,.08,0,.1,0,0,0,0,0-.09,0-.16a.43.43,0,0,0,0-.12s0-.06,0-.1,0,0,0-.05,0-.11,0-.14.05-.08.07-.15,0-.11,0-.19,0-.06,0-.09a1.76,1.76,0,0,1,0-.19s0,0,0-.07l0-.06,0,0,0,0s0,0,0,0,0,0,0,0,0,0,0-.07,0-.05,0-.1l0,0s0-.07,0-.13.1-.12.08-.16,0,0,0,0a.52.52,0,0,0,.06-.13s0,0,0,0l0-.06L5.35,14l0,0s0-.07.07-.11h0l.06-.06s0-.06,0-.1-.06-.05,0-.1l0,0c0-.08.06-.17.14-.21s0-.05,0-.09.1-.05.13-.12.08,0,.11,0,0,0-.05-.05l.16-.16a0,0,0,0,0,0,0s.06-.08.09-.13h0l0,0s0,0,0,0,0,0,0,0h0l.06-.11s0,0,0,0a.67.67,0,0,1,.06-.12s0,0,0,0l.08,0s0,0,0-.07,0-.07.08-.07.1-.18.17-.25a0,0,0,0,0,0,0h0s0,0,0,0,0,0,0,0l0,0,.06-.05,0,0s0,0,0,0H7a0,0,0,0,0,0,0H7s0,0,0,0,0-.11,0-.15h0l0,0,.07-.06s.06-.06.09,0-.17.23-.27.38-.06,0-.07,0a.14.14,0,0,1,0,.06s0,.08-.06.11,0,0,0,0h0a.89.89,0,0,0-.13.14c-.07,0-.11.05-.16.1s.05,0,0,.09l-.06,0H6.46s0,0,0,0,0,.09-.09.14h0s0,0,0,0,0,0,0,.06h0a.41.41,0,0,1-.05.09h0l-.06.09h0A.11.11,0,0,1,6,13s0,.07,0,.1-.14.1-.18.2,0,0,0,0l-.1,0a3,3,0,0,0-.15.45s0,.11,0,.08.06,0,.07,0,0-.2.12-.15a.1.1,0,0,0,0-.1s-.08,0-.12,0l0,0h0l0,0s0,0,0-.05l0,0s0-.05,0-.07h0l0,0,0-.08.1-.11h.13s0-.12,0-.15,0,0,.05-.05.09-.08.12-.15,0,0,.08,0-.09-.16,0-.23h0l0,0h0a.6.6,0,0,0,.06-.11s0,0,0,0l0,0s.09-.06.13-.1,0-.06,0-.1.06,0,.09-.07a0,0,0,0,0,0,0l.08,0s0,0,0,0a.14.14,0,0,1,0-.06l0,0H7s0-.05,0-.06.08,0,.11,0-.08-.11,0-.17.07,0,.09,0,0-.09.09-.05,0,0,0-.08.06-.07.1-.06,0,0,0-.1,0,0,0,.05.09-.07.14-.1,0,0,0-.06,0,0,0,0,0-.11,0-.12,0,.11,0,.14,0-.05,0-.05a.1.1,0,0,0,0-.07s0-.06,0-.08,0-.1,0-.13,0,0,.07,0a.37.37,0,0,0,.15,0c0-.05,0-.13,0-.13s.07,0,.1,0,0-.1.08-.19,0,0,0,.08a0,0,0,0,0,0,0s0,.16,0,.19a0,0,0,0,0,.05,0s0-.06,0-.12l.05,0c0-.07,0-.15-.08-.15a.32.32,0,0,0,.12-.15s.06-.05.1-.05,0-.07.09-.08,0,.15-.08.13,0,.06-.05.08v0s0,0-.06.07.05,0,.06,0l.11,0c0-.06,0-.13.08-.14s0,.05,0,.06,0,0,0-.08.08-.1.17,0,.07-.09.1-.17.05,0,.1,0,.07,0,.09-.09l.05,0s0-.05,0-.07h.07s0,0,.06,0a.16.16,0,0,1,.07-.1s0,0,.06,0a.34.34,0,0,0,.06-.12c.08,0,.12-.11.22-.06a.08.08,0,0,0,.05-.06s0,0,.06,0,.11,0,.17,0l0-.07s0,0,.06,0,0,0,.07,0,.1-.13.18-.12,0,0,.05-.07h.05s0,0,.07,0l.05,0,0,0s.05,0,.08,0,.06-.06.09-.09.16,0,.19-.06,0,0,0,0,0-.05.06-.06.08,0,.12,0l0-.06a.08.08,0,0,1,.11,0c0,.06,0,.05-.05.1s0,0,.06,0A.31.31,0,0,1,11.35,9a1.22,1.22,0,0,1,.27,0s-.07,0-.08,0a.65.65,0,0,0,.2,0s0,0,0,0-.08,0,0-.09.05.06.08.08.05,0,.06,0h0s.09,0,.12,0-.07,0-.1-.05.06,0,.09,0,0,0,0,0,0,0,0,0l0-.08s0,0,.08,0,0,0,.06,0,.05,0,.07,0,.23-.08.36-.08,0,0,.08-.05.05,0,.09,0a1.65,1.65,0,0,1,.21,0c0-.05,0-.06.06-.09s.07,0,.12,0,.05,0,.07-.07h.13s0,0,0-.06l.16-.05,0,0s.07,0,.08,0h.05l.07,0s-.07,0-.11,0a.3.3,0,0,0-.15.07s-.08,0-.1,0,0,0-.06,0,0,0-.05.06-.09,0-.14.07,0,0,0,0-.07,0-.1,0a.63.63,0,0,0-.2.06s0,0-.08,0-.23,0-.35.08l-.06,0h0s-.05,0-.06,0l-.08,0a.09.09,0,0,1,0,0s0,0,0,0a.13.13,0,0,1-.12,0s0,0,0,0,0,0,0,0,.07,0,.12,0a1.28,1.28,0,0,1,.21-.14s.06,0,.1,0a.9.9,0,0,1,.16,0l.15,0s0-.09,0-.11,0,0,0,.06,0,0,0,.06,0,0,.07,0h.06l0,0a.12.12,0,0,0-.08,0s.05,0,.05-.09,0,.08,0,.13,0,0,0,0a.11.11,0,0,0,0-.08l.05-.05s0,.06,0,.08l.14,0s0-.05,0-.06a.11.11,0,0,1,.15,0s0,0,0,0,.13,0,.19-.06a.17.17,0,0,0,.13,0,.32.32,0,0,0,.14,0s.05,0,.07-.05.05,0,.08,0,.18,0,.24-.09a1.85,1.85,0,0,0,.53-.18c.07,0,.12,0,.18-.06h.06s0,0,0,0l0,0,.1-.06.2,0s0,0,0,0,.05,0,.09,0a.53.53,0,0,0,.1-.06l.1,0s0,0,0,0h0s0,0,0,0,.07,0,.08,0,.05,0,.07,0l0,0h0l.05,0s0,0,0,0l0,0h0s0,0,0,0,0,0,.06,0a.26.26,0,0,0,.09-.09h0l0,0,.11-.09a.31.31,0,0,1,.1,0,1.45,1.45,0,0,0,.32-.18c.1-.07.16-.16.26-.22a3.22,3.22,0,0,0,1.2-1.85,1.59,1.59,0,0,0,0-.81,1.89,1.89,0,0,0-.43-.77,1.53,1.53,0,0,0-.4-.31,1.87,1.87,0,0,0-1.89,0,1.52,1.52,0,0,0-.66,1.57s.17-.4.2-.44a1.09,1.09,0,0,1,.37-.4,1.08,1.08,0,0,1,1.21.14,1.45,1.45,0,0,1,.23,1.6,2.09,2.09,0,0,1-.77,1,2.71,2.71,0,0,1-1.49.44,2.93,2.93,0,0,1-1.28-.22,2.37,2.37,0,0,1-1.25-1.28,3.09,3.09,0,0,1-.24-1,5.32,5.32,0,0,1,1-3.09A4.13,4.13,0,0,1,14.33,0h-.1a14.18,14.18,0,0,0-3.64,27.89s0,0,0,0,0,0,0,0-.09,0-.11-.08,0,0-.05,0-.06-.08-.14-.09,0,0,0,0,0,0,0,0,0,0-.05,0a0,0,0,0,1,0,0c0-.06-.08,0-.11-.07s0,0,0-.05l0-.05,0,0s0,0-.05,0l0,0s-.08-.05-.06-.06a0,0,0,0,0,0,0l-.11-.06a.1.1,0,0,1-.05,0s0,0,0,0,0,0,0,0h0l0,0h0s0,0-.06-.05A.24.24,0,0,0,9.32,27h0s0,0-.06-.05,0,0,0,0h0l0,0,0,0,0,0s0,0,0,0v0s0,0,0,0H9s0,0,0,0,0,0,0,0h0l0,0s0,0,0-.05l0,0h0s0,0,0,0,0,0,0-.06,0,0,0,0l0,0a0,0,0,0,1,0,0s-.06,0-.07-.06v0h0l0,0h0s0,0,0,0a.13.13,0,0,1,0-.08l0,0a.1.1,0,0,1,0-.07s0,0,0,0h0s0,0,0,0h0s0,0-.05,0l0,0s0,0,0-.06,0,0,0,0h0s0,0,0,0-.08-.06-.1-.11H8.14s0,0,0-.06l0,0s0,0,0,0,0,0,0,0l0,0a.06.06,0,0,0,0,0s0,0-.06-.06l-.06-.12,0,0,0,0h0s0,0,0-.05l0,0a.37.37,0,0,0-.07-.12.21.21,0,0,1,0-.06L7.6,25s0,0,0-.05l0-.06,0-.05s0,0,0,0,0,0,0-.05h0s0,0,0-.06a.62.62,0,0,1-.09-.12s0,0,0-.07,0,0,0,0,0,0,0,0a.11.11,0,0,0,0-.05l0-.05s0-.06,0-.09l0-.05s0-.05,0-.07,0,0-.05-.06,0,0,0,0a.1.1,0,0,0,0-.05v-.05l0-.05s0,0,0,0,0,0,0,0,0,0,0,0,0,0,0-.06a.33.33,0,0,1,0-.06,0,0,0,0,0,0,0s0,0,0-.07a.33.33,0,0,0,0-.06l0-.05a.35.35,0,0,0,0-.08l0,0a.1.1,0,0,1,0,0h0a.1.1,0,0,1,0,0s0,0,0-.08,0,0,0-.06,0,0,0,0a.34.34,0,0,1,0-.1h0s0,0,0,0,0,0,0,0,0-.07,0-.09,0,0,0,0,0,0,0,0a.17.17,0,0,0,0-.07s0,0,0-.06v0a.17.17,0,0,0,0-.05.41.41,0,0,1,0-.11s0,0,0-.06,0,0,0,0l0,0a.06.06,0,0,0,0,0,.25.25,0,0,1,0-.09v0s0,0,0,0,0,0,0-.06,0,0,0,0v0s0,0,0-.07,0,0,0,0,0-.14,0-.2a.25.25,0,0,0,0-.2.3.3,0,0,0,0-.13s0-.06,0-.08,0,0,0,0,0-.06,0-.09,0,0,0,0,0,0,0-.06,0,0,0,0,0,0,0,0a.19.19,0,0,1,0-.13.28.28,0,0,0,0-.13s0-.15,0-.18h0s0,0,0,0,0,0,0,0v-.14c0-.09,0-.24,0-.36a.14.14,0,0,1,0-.09s0-.05,0-.05a.79.79,0,0,0,0-.09s0,0,0-.06v0s0-.06,0-.08a.29.29,0,0,1,0-.09s0-.08,0-.11,0,0,0-.06,0,0,0-.06a.56.56,0,0,0,0-.17.1.1,0,0,1,0,0s0,0,0-.06a1.77,1.77,0,0,1,.06-.3.17.17,0,0,0,0-.08c0-.08,0-.18.05-.25a.25.25,0,0,0,0-.11s0-.07,0-.11,0,0,0,0h0s0,0,0-.08l0,0a.63.63,0,0,0,.07-.25.49.49,0,0,1,0-.19s0,0,0,0,0-.06,0-.08a.7.7,0,0,1,0-.12l0,0s0-.06,0-.08l0-.08c0-.05,0-.12,0-.15s0-.21.06-.35,0,0,0,0l0,0s0-.05,0-.06,0,0,0-.07a.93.93,0,0,0,.05-.1s0,0,0-.06,0-.14.09-.17a.41.41,0,0,1,.12-.18,1.38,1.38,0,0,1,.18-.46s.05-.06.08-.06a1.54,1.54,0,0,0,.05-.17h0s0,0,0-.07.1,0,.14,0,0,0,0,0l0,0s-.08,0,0,0,0,0,0,0,0,0,0-.07,0,0,.09,0a.16.16,0,0,1,.08-.14v-.14h.06v0s0,0,0,0,0,0,.05-.06l0,0,0,0,0-.07s0-.07.06,0,0,0,0-.06.09,0,.14,0,0,0,0-.09,0,0,0,0a.29.29,0,0,0,.1,0A.17.17,0,0,1,8.8,14a.06.06,0,0,1,0,.06s0,0-.07.07l0,0h0s0,0,0,0-.07.05-.07.12H8.52c0,.05,0,.07,0,.1s0,0-.05,0,0,.06,0,.1l-.06.11s0,0,.06,0,0-.05,0-.07.06,0,.07-.08.07,0,.12,0,0-.12,0-.19.06,0,.11,0,0,0,0-.07h.06c0-.08,0-.11.07-.14s0-.07,0-.12h0s0,.06,0,.09S9,14,9,14s0,0,.09,0,0-.1,0-.2h0s0,.08,0,.1,0,0,0-.07,0,0,0,0a.06.06,0,0,1,0,0,.2.2,0,0,0,.09-.11c.07,0,.1-.07.16-.09s0,0,0-.08,0,0,.07,0l.11-.05s.06,0,.07-.1l.14,0s0,0,0,0,.07,0,.08,0,0-.06,0-.1,0,0,.07,0,0-.1,0-.14a.18.18,0,0,1,.07,0s0,0,.08,0,.07.06.11,0,0,0,0-.08a.28.28,0,0,1,0-.14s0,0,0,0,.08,0,.11,0a3,3,0,0,0,.31-.16l.08,0s.06-.09.08-.13h0s0,0-.06-.06,0,0,0,0,0,0-.07,0-.07,0-.07,0,0,0,.06,0-.07,0-.08.07,0,0-.05,0-.07,0-.12,0,0,0-.05.07,0,0-.09,0a.18.18,0,0,1-.13.09l0,.06s0,0-.06,0L10,13l0,0,0,0h0s0,0-.08,0,0,0,0,0,0,0,0,0,0-.08,0-.06,0,0,0,0,0-.05.1,0,.14-.1.19-.18,0,0,.06,0a.39.39,0,0,1,.1-.08.13.13,0,0,0,.05-.07c.07,0,.09-.07.16,0s.09-.11.16-.13,0,0,0-.07,0,0,.07,0,0-.05.07-.06.13-.08.23-.06,0-.05,0-.07.07,0,.14,0,0-.1.07-.1h0a0,0,0,0,0,.06,0,.18.18,0,0,1,.23,0s0,.06,0,.06h-.06s0,.05-.08,0-.1,0-.13.08h0s0,.06-.06.07l-.1,0c0,.05,0,.05,0,.1s-.1,0-.11.09-.08,0-.12,0h0l0,0,.08-.05s0,0,.08.05,0-.07,0-.12,0,0,.09,0,0,0,0,0l0,0a.12.12,0,0,1,.1,0s0-.12,0-.17.08.05.12.07,0-.05,0-.06,0,0,0,0,0,0,0-.06a.35.35,0,0,1,.11,0s0,0,0-.09,0,.05,0,.09,0-.06.07-.05.05,0,.11,0,0,0,0-.08,0-.12,0-.19.08.08,0,.13,0,0,0,.07,0,0,0,0,0,0,0,0,0,0,.06,0h0v0s0-.06,0-.12,0,.09.09.12l.09,0s0-.08,0-.1.12,0,.22,0,0-.06.06,0,0,0,0,.1,0,0,0,0,0,0-.06,0a.28.28,0,0,0,0,.13s0,0,0,0,0,0,.06,0h0s0,0,0,0,0-.07,0-.09-.09,0-.06-.08h0s0,0,.06,0,0,0,0,0h0c.05.07.1-.06.17,0s0,0,0,.07-.09,0-.12,0,0,0,0,0,0,0,0,0,0,0,0,0,0,0,.06,0,0,0,0,.06S13,12,13,12s.12,0,.2,0,.06-.07.11-.07l.15,0s0,0,0,0,0,0,0,0,0,0,0,0h.08s0-.05.11,0,0,0,0,.1.05,0,.06,0,0-.05,0,0l.05-.07L14,12s0,0,0,.09a.19.19,0,0,0,.1,0c0-.05,0,0,0-.08s0,.07.08.09,0,0,0,0,0,0,0,0,0,0,.07,0,0-.05,0-.05-.07,0,0-.06l.08,0,0,0s0,0,0,0a.57.57,0,0,0,.26,0s0,0,.06,0,.11,0,.15,0,.06,0,.08,0,.14,0,.2,0,0,0,0,0l.1.06.18.07v0a.67.67,0,0,0-.19-.1c-.07-.11-.08,0-.23-.08s0,0-.08-.05l-.1,0c-.05,0,0,0-.07-.05s-.06,0-.07,0,0,0-.09,0-.05,0-.11,0h0s0-.05,0-.05h0a.6.6,0,0,1-.11-.06s-.07,0-.09,0a.07.07,0,0,0-.06,0c-.06,0-.05,0-.09,0s0,0,0,0,0,0,0,0v0s.1,0,.13,0,.09,0,.09,0,0,0,.05,0,.06,0,.1,0h.1c.07,0,.18.05.27.06s.06,0,.12.05,0,0,0,0h0l0,0h.06s0,0,0,.05h0s0,0,.08,0l.06,0h0s0,0,0,0,0,0,.06,0l.09.05.17.12c1.89,1.42.79,2.57.79,2.57s.41.15.47.18a1.83,1.83,0,0,1,.42,1.87,2.52,2.52,0,0,1-.35.81,2.33,2.33,0,0,1-1.31,1,1,1,0,0,1-.89-.08c-.18.78-1.28,1.7-3.54.65a2.26,2.26,0,0,1-1.1-3.19,1.62,1.62,0,0,1,2.65-.41,1.22,1.22,0,0,1,.21,1c-.1.28-.27.41-.75.44-.1,0,.27.16.3.16a.88.88,0,0,0,.84-.17,1.57,1.57,0,0,0,.51-.94,2.57,2.57,0,0,0,0-.62s0-.26-.05-.27,0-.11,0-.14h0l0,0h0s0-.09,0-.1l0,0,0,0a.78.78,0,0,0-.18-.33s0,0,0,0h0s0-.07,0-.08l0,0h0v0h0s0,0,0,0,0,0,0,0,.1,0,.09,0l0,0,0,0h0l-.09,0a.11.11,0,0,1-.08,0l0,0s0,0,0,0h0l-.07,0s0,0,0,0l0,0h0a.05.05,0,0,1,.05,0s0,0,0,0l.19.05s0,0,0,0h0a.27.27,0,0,0,.11.1s0,0,0-.07,0,0,0-.06,0,0,0,0-.14,0-.13,0,0,0-.06,0,0,0-.05,0,0,0-.06,0l-.11,0h0s0,0,0,0a0,0,0,0,1,0,0l0,0h-.14a.4.4,0,0,0-.15,0s-.05,0-.06,0h0s0,0-.06,0h-.09s-.05,0-.09,0,0,0,0,0h0l0,0H12l-.07,0s0,0-.05,0,0,0,0,0h0s0,0-.05,0h0l-.05,0h-.07s0-.11,0-.11,0,0-.06,0h-.1a.22.22,0,0,0-.12.05s0,0,0,0-.05,0-.06,0a.2.2,0,0,1-.06.07l-.07.08H11s0,.06,0,.07,0,0-.08,0h0l0,0h0l0,0s0,0,0,0l0,0s0,.11,0,.12h-.12s0,.12,0,.11l-.08.05-.06,0-.12.08-.08,0c-.05,0-.1.11-.18.13s-.09.09-.12.16l-.07,0s0,0,0,0,0,0-.06,0l0,.08s0,0,0,0-.06.17-.08.18l0,0,0,0v0s0,0-.06,0,0,0,0,0,0,0,0,0,0,0,0,.06l0,0,0,0,0,0h0a1.39,1.39,0,0,0-.15.19h0l0,0,0,0a.25.25,0,0,0,0,.07s0,0,0,0a0,0,0,0,0-.05,0,.14.14,0,0,0,0,.06s0,0,0,0l0,0a.09.09,0,0,0,0,.05c0,.06,0,.08,0,.13s0,0,0,.08l0,0v0l0,0s0,0,0,.06-.09.16-.13.25,0,0,0,.07,0,0,0,.05l0,0s0,.09-.06.12a.19.19,0,0,0,0,.08l-.05.08c0,.06,0,.12-.08.19s-.07.18-.11.29a1.08,1.08,0,0,0-.08.19.13.13,0,0,0,0,.06s0,0,0,0,0,0,0,.06a.23.23,0,0,1,0,.09l0,.12a.58.58,0,0,1,0,.13s0,.1,0,.16l-.05.15s0,0,0,.05,0,.14,0,.21,0,0,0,0a3.2,3.2,0,0,0-.07.33c0,.11,0,.23-.06.33s0,0,0,.05,0,.14,0,.21,0,0,0,.05a.66.66,0,0,0,0,.15,1.23,1.23,0,0,0,0,.13c0,.09,0,.24,0,.34v.14c0,.06,0,.13,0,.17v.22a1.27,1.27,0,0,0,0,.2s0,0,0,0,0,.05,0,.09,0,0,0,0,0,0,0,.06,0,0,0,0v.05s0,.12,0,.18,0,0,0,.05,0,.06,0,.09a.86.86,0,0,0,0,.16l0,0s0,0,0,0h0s0,.05,0,.07,0,0,0,.07a1.09,1.09,0,0,0,0,.17l0,0a.1.1,0,0,0,0,0,.22.22,0,0,1,0,.08.25.25,0,0,1,0,.08s0,0,0,0,0,0,0,0h0s0,0,0,0h0a.1.1,0,0,1,0,0,.86.86,0,0,1,0,.15v.05l0,0s0,0,0,0h0s0,0,0,0h0s0,0,0,0l0,0a.17.17,0,0,1,0,.07.54.54,0,0,1,0,.11s0,0,0,.07,0,0,0,0v.05l0,0a.1.1,0,0,0,0,0A.52.52,0,0,1,8,23.9S8,24,8,24s0,0,0,.05a.1.1,0,0,1,0,0h0s0,.05,0,.07,0,0,0,0,0,0,0,0a6.76,6.76,0,0,1,.14.29s0,0,0,0v0a.06.06,0,0,1,0,0c-.06-.32-.18-.62-.21-.95a3.21,3.21,0,0,1,1-2.86,1.27,1.27,0,0,1,.71-.29.71.71,0,0,1,.71.33,1,1,0,0,1,1.17-.53,1.26,1.26,0,0,1,.76.42.85.85,0,0,1,.1,1c.42-.09.63.29.67.62a1.85,1.85,0,0,1-.41,1.23,1.43,1.43,0,0,1-1.09.55,1.16,1.16,0,0,1-.83-.27,1,1,0,0,1-.3-.76.66.66,0,0,1,.39-.56.49.49,0,0,1,.52.12.42.42,0,0,1,.12.28.27.27,0,0,1,0,.12s.06,0,.08,0a.57.57,0,0,0,.07-.61,1,1,0,0,0-.58-.41,1.23,1.23,0,0,0-1,.2,1,1,0,0,0-.2.15s-.05,0-.06,0,0,0,0,0a1,1,0,0,0-.09.1s0,0,0,0,0,0,0,.06,0,.08-.07.12,0,0,0,0h0s0,0,0,0-.1.32-.13.4a0,0,0,0,0,0,0v.07h0v.07a4,4,0,0,0-.06,1.14s.05-.09.06-.05,0,.08,0,.09,0,.05,0,.07h0a.85.85,0,0,0,0,.16,0,0,0,0,1,0,0,.57.57,0,0,0,0,.12s0,0,0,0a0,0,0,0,0,0,0,.2.2,0,0,0,0,.07s0,0,0,0,0,.11,0,.16,0,0,0,0v0a.46.46,0,0,1,0,.09.76.76,0,0,0,0,.11.23.23,0,0,0,0,.09v0a1,1,0,0,1,0,.11s0,0,0,0,0,0,0,0a.61.61,0,0,0,.07.17l0,0s0,0,0,.06a.15.15,0,0,1,0,.11,1,1,0,0,1,.09.13.1.1,0,0,1,0,0s0,0,0,0,.09.08.09.12,0,0,0,.07h0s0,0,0,0,0,0,0,0a.08.08,0,0,1,0,0s0,0,0,.05.06,0,0,.07l.08.06s0,.05.07.06.06.11.09.15a.22.22,0,0,1,.05.08l.06.05s0,0,0,.06l0,0s0,0,0,0a.16.16,0,0,1,.07.07.85.85,0,0,1,.11.14l0,0,.06.06s0,.06.05.08l.08,0,0,.07.06.06.05.06s0,.05,0,.07a.5.5,0,0,0,.13.12l0,0s0,0,0,0,0,0,0,0l.08.1a14.33,14.33,0,0,0,2.56.25A14.17,14.17,0,0,0,22.63,2.8ZM12,8.63s.07,0,.14,0-.08.05-.12.06,0,0,0,0-.09,0-.12,0S12,8.72,12,8.63Zm-.15.08s0,0,0,.06h-.06S11.8,8.73,11.82,8.71Zm-.08,0,0,0,0,0h0Zm-.2.06,0,0s0,0,0,0h0Zm0,0h0s0,0,0,0l0,0S11.48,8.87,11.49,8.85Zm-.17,0,.06,0c0,.07-.09,0-.14.07S11.3,8.94,11.32,8.89Zm-.26,0a.37.37,0,0,1,.16,0s0,0,0,0,0,0-.07,0-.05.08-.08.11S11,9,11,9h0s0,0,0,0S11,8.92,11.06,8.93ZM10.85,9s0,.06,0,.07l0,0S10.83,9.06,10.85,9Zm-.14,0s0,.08.07.1-.1.15-.16.07.05,0,.08,0S10.67,9.08,10.71,9Zm-.13.22c0,.07-.08,0-.11.08A.07.07,0,0,1,10.58,9.24Zm-.19.06s-.07,0-.1,0S10.35,9.27,10.39,9.3Zm-.21.07s0,0,.05-.06,0,0,0,0,0,0,0,0-.1,0-.13,0S10.13,9.34,10.18,9.37Zm-.27.11s0,0,0-.05H10s0,0,.08,0,0,0,0,0,0,0,0,0l0,0s-.08.05-.11,0S9.89,9.5,9.91,9.48Zm-.19.09h0s0-.08.08,0,0,0-.08,0,0,0,0,0A.06.06,0,0,0,9.72,9.57Zm-.17.09a0,0,0,1,1,0,.05S9.54,9.68,9.55,9.66Zm0,.07s0,0,0,0S9.46,9.68,9.52,9.73Zm-.18,0c.08,0,0,.11,0,.13S9.32,9.83,9.34,9.78Zm-.17.11c0-.07.07-.07.09-.13s0,.07,0,.1,0,0-.06,0,0,0,0,.09,0,0-.05,0a.31.31,0,0,1-.09-.07C9.09,9.86,9.14,9.9,9.17,9.89ZM9,10c.07,0,0,.11,0,.06Zm-.12,0a.65.65,0,0,0,.08.09l-.07.07s0,.07-.08,0,.05,0,.07-.07S8.8,10.08,8.83,10Zm-.22.19s0,0-.06,0S8.6,10.2,8.61,10.22Zm.05,0s0,0,0,0l0,0a.13.13,0,0,1-.09.06s-.06.05-.11,0S8.62,10.28,8.66,10.24Zm-.21,0s0,0,.06,0,0,0-.06.06S8.43,10.29,8.45,10.26Zm-.06.11s-.05.08-.1.06S8.34,10.35,8.39,10.37Zm-.14.07H8.3s0,0,0,0,0,0-.06,0S8.24,10.45,8.25,10.44Zm-.61.6s0,.11,0,.08,0-.11,0-.17A.09.09,0,0,1,7.64,11Zm1.19,2.85s0,0,0,0h0s0-.08,0-.07,0,0,0,0S8.86,13.9,8.83,13.89ZM9,13.73H9a.24.24,0,0,1-.06.09s0,0,0,0,0,0,0,0l0,0s0,0,0-.06.06,0,.07-.07S9,13.71,9,13.73Zm.19-.2c0-.08.08,0,.09-.11h0C9.29,13.5,9.22,13.56,9.18,13.53Zm.42-.27a.08.08,0,0,0-.07,0l0,0s0,.07-.09,0,0,0,0-.08,0-.05.06-.07h.12s0,0,0,0h.05C9.71,13.25,9.62,13.2,9.6,13.26Zm.54-.51h0s0,0,0,0,0,0-.06.06,0,.05,0,.07h0s0,.06-.06,0,0,0,0,0h0s0-.05,0-.07h0s0,0,0,0,0,0,0-.06h0s0-.05.07,0S10.15,12.75,10.14,12.75Zm2-.86h0l-.06,0s.07,0,0-.07,0,0,0,0,0,.05,0,.09ZM13,11.7a0,0,0,0,1,0,0h0v0l0,0h0a.06.06,0,0,1-.07,0s0,0,0,0l.06,0v0h0l0,0h0A0,0,0,0,1,13,11.7Zm.24-.08s0,0,0,.06h0Zm-.06,0s0,0,0,0h0Zm-.07.08s-.07,0-.05-.07S13.1,11.66,13.09,11.71Zm0-.1s0,0,0,0,0,0,0,.06Zm0,.18c0-.08.08-.06.14,0s.06,0,0,.08A.34.34,0,0,1,13.11,11.79Zm.22,0s0,0,.06,0,0-.07,0-.1h.05s0,.06,0,.08S13.36,11.82,13.33,11.77Zm.18,0s0,0,0-.08A.05.05,0,0,1,13.51,11.77Zm.25,0s0,0-.07,0h0s0,0,0,0-.06,0,0-.07a.1.1,0,0,0,.15,0S13.76,11.69,13.76,11.73Zm0,0s0-.06,0-.09h0C13.84,11.76,13.87,11.8,13.79,11.78Zm.12-.09s0,0,0,0,0,0,0,0S13.87,11.79,13.91,11.69Zm.88-1.35a.28.28,0,0,1-.16,0s-.05,0-.1,0,0,0,0-.05,0,0,.08,0,.11,0,.13,0,0,0,.05,0S14.8,10.33,14.79,10.34Zm.55-.12c-.06,0-.08,0-.14,0s.12-.06.17-.09,0,0,.05,0S15.37,10.21,15.34,10.22Zm.59-.19s-.06.1-.1.12,0,0-.07,0-.1.07-.18,0,.13-.05.19-.09.05,0,.06-.08A.16.16,0,0,0,16,9.93c.06,0,.1,0,.11.05S16,10,15.93,10Zm3.54-1s0,0,0-.08l0,0s0,0,0,0,.07.06.05.12,0,0-.05,0-.05,0-.09,0S19.45,9,19.47,9Zm-2.15.85-.18.06c-.05-.05-.09,0-.14,0h-.07a.23.23,0,0,0-.15,0,.26.26,0,0,0-.2,0c-.06,0-.09,0-.14,0s-.07.06-.13,0,0,0,0,.06-.06,0-.1,0,0,0,.06,0,0,0,0,0h0l.1,0h.09s.06,0,.09,0l.12-.05a.62.62,0,0,0,.19,0H17s.06,0,.08,0,.06,0,.08,0l.06,0,.08,0h0s0,0,0,0,0-.05,0-.08.06,0,.09,0,.07-.05.06,0-.07.06,0,.11.08,0,.11-.06.08,0,.13,0,0,0,0-.05v0l.13,0c.05,0,.09,0,.12,0s0,0,.06-.06,0,0,.06,0h.06l.06,0,0,0,.12,0h.11c.05,0,0-.08,0-.13l.12.08.12,0,0-.06c.06,0,.1-.05.16-.06l0,0c0,.06-.06.09-.08.14s-.14.05-.22,0h0s0,.07-.05.09h0l-.19,0a.86.86,0,0,0-.07.1.16.16,0,0,1-.07-.07s-.05.05-.07.09a.45.45,0,0,0-.11,0s-.09,0-.11.06-.06,0-.1,0-.08,0-.12.06l-.15,0s-.07,0-.11,0-.05,0-.08,0A.23.23,0,0,0,17.32,9.85Zm4.1,15.72a4.08,4.08,0,0,1-3.85-.78,4,4,0,0,1,.17-6.54A4.25,4.25,0,0,1,19,17.63a4.16,4.16,0,0,1,2.46,7.94Z"/><path class="cls-2" d="M8.36,24.73a.17.17,0,0,0,0-.07.19.19,0,0,0,0,.08S8.35,24.74,8.36,24.73Z"/><path class="cls-2" d="M10.19,13.59l0,0h0s0,0,0,0h0s0,0,0,0,0,0,0,.08,0,0,0,0l0,0c0-.08.05,0,.09,0s0,0,0,0,0-.07,0-.06,0,0,0,0,0-.06,0-.06l.05,0s0,0,0,0,0,0,0,0,0,0,0-.07,0,0,.06,0,0,0,0,0h0s.05,0,.07,0,0,0-.06-.08l0,0h0s0,0,0,0,0,0,0,0-.1,0-.11,0-.06.07-.11.08,0,0-.06,0,0,0,0,.07Z"/><path class="cls-2" d="M11.82,9.6s-.13.08-.13.11a1.3,1.3,0,0,0,.25-.1Z"/><path class="cls-2" d="M9.22,25.78s-.09,0-.11-.08,0-.07,0-.07v.1a.09.09,0,0,1,0,.05h0l.07,0s0,0,0,0h0a0,0,0,0,1,0,0l0,.05h0s0,0,0,0l0,0h0s0,.09,0,.11,0,0,0,0a.31.31,0,0,0,0-.1l0,0s0-.05-.06-.06S9.21,25.84,9.22,25.78Z"/><path class="cls-2" d="M13.2,9.78s0,0,0,0,0,0,.07,0,.05,0,.08,0h0s0,0,.06,0,0,0-.07,0h0s0,0,0,0h-.06s0,0-.06,0l0,0s0,0,0,0S13.18,9.78,13.2,9.78Z"/><path class="cls-2" d="M13.07,9.83s0,.08.08,0,0-.08-.06-.12-.16,0-.16.07A.17.17,0,0,1,13.07,9.83Z"/><path class="cls-2" d="M6.19,14.35s0-.07,0-.09S6.14,14.34,6.19,14.35Z"/><path class="cls-2" d="M6.23,13.92s.07-.05,0-.06S6.22,13.91,6.23,13.92Z"/><path class="cls-2" d="M6.31,13.77a.89.89,0,0,1,.06-.2c.06,0,.08-.05.13,0a.29.29,0,0,1,.06-.11c0-.05,0-.12.06-.13l.06,0s0,0,0,0,0-.06,0-.08.08-.06.08-.12,0,0,0,0H6.72s0,0,0,0-.06.1-.07.13h0l0,.05s0,0,0,0l0,0v0s0,.06,0,.07l0,0s0,0-.05,0a1.17,1.17,0,0,1,0,.11s0,0,0,0l0,.07-.1.12s0,.05,0,.07h0l0,0H6s.12.1.11.11l0,0s0,0,.08,0,0,0,0,0,0,.07,0,.13a.24.24,0,0,1-.09,0,.49.49,0,0,1-.08.13l0,.08s0,0,0,0-.06,0,0,.08,0,0,0,0-.05,0,0,.09.08,0,.11-.06.06-.1.09-.14l0,0s0,0,0,0,.08-.19.13-.27a.09.09,0,0,1,0,0s0-.11,0-.12,0,0,0,.05,0-.07,0-.08-.06,0,0-.05a.14.14,0,0,1,.1-.05l0,0h0Z"/><path class="cls-2" d="M7.57,11.46s.1,0,.07-.08S7.55,11.42,7.57,11.46Z"/><path class="cls-2" d="M8,11s0-.07,0-.1a.36.36,0,0,0-.08.12A.05.05,0,0,0,8,11Z"/><path class="cls-2" d="M4.57,16.34a.38.38,0,0,0,0,.17s0,0,0,0,0-.1,0-.14S4.61,16.36,4.57,16.34Z"/><path class="cls-2" d="M5.89,14.73c.09,0,.09,0,.11-.08s.07,0,.08-.05a.07.07,0,0,0,0-.08s0,.08-.07.12A.19.19,0,0,0,5.89,14.73Z"/><path class="cls-2" d="M5.84,14.42s.11-.08,0-.12-.17.16-.11.23S5.82,14.46,5.84,14.42Z"/><path class="cls-2" d="M7.87,12l0,0h0l.06,0a.88.88,0,0,1,.12-.17c.05.06.1,0,.14,0a.35.35,0,0,1,.1-.08l.09-.09.08,0h0s0,0,.06-.06.09,0,.12-.08,0,0,0,0H8.62s0,0,0,0a.33.33,0,0,1-.12.1s0,0,0,0l0,0h0l0,0h0l-.07.06H8.18l-.09.08-.06,0-.06,0-.14.08s0,0,0,.06h0l0,0s-.1,0-.11,0,.07.14,0,.15l0,0s.05,0,.08,0l0,0-.1.11a.17.17,0,0,1-.1,0,.44.44,0,0,1-.11.1l-.08,0s0,0,0,0-.06,0-.06.06h0s0,0,.08,0,0,.05,0,.05h0l0,0s0,0,0,.05l0,0c.06,0,.1-.08.14-.1h0l0,0c.08,0,.15-.15.22-.21l.06,0s.07-.09.05-.11a.05.05,0,0,0-.05,0s0-.07,0-.08-.06,0,0-.06A.13.13,0,0,1,7.87,12Z"/><path class="cls-2" d="M7.1,12.75s.08,0,.09,0a.3.3,0,0,1-.11-.07c0,.06-.16.07-.1.16A.21.21,0,0,1,7.1,12.75Z"/><path class="cls-2" d="M7.69,11.38s-.05,0,0-.09.05,0,.06-.07h.11a.14.14,0,0,0-.07-.17s0,0,0,.07,0,.08-.05.09,0,0,0,.06,0,0,0,0v0s0,0,0,.05Z"/><path class="cls-2" d="M7.12,12.06s0,0,0,0-.18.14-.15.22.07-.06.09-.13A.1.1,0,0,0,7.12,12.06Z"/><path class="cls-2" d="M7.2,12h0s0-.06,0-.05a.33.33,0,0,1,0-.17s.05,0,.06-.05h0c0-.1.11-.11.16-.17s0,0,0,0,0,0,0,0,0,0-.06,0,0,0,0,.08,0,0-.07,0,0,0,0,0l0,0h0s0,.09,0,.13,0,0,0,.05,0,0,0,.07h0s0,0,0,0S7.18,12,7.2,12Z"/><path class="cls-2" d="M5.94,14.27l0,0a.07.07,0,0,0,0,0S5.9,14.26,5.94,14.27Z"/><path class="cls-2" d="M5.56,13.86c-.07,0-.13.16-.11.18S5.59,13.88,5.56,13.86Z"/><path class="cls-2" d="M5.41,14.05s-.08.16,0,.18S5.54,14.22,5.41,14.05Z"/><path class="cls-2" d="M5.07,15V15h0l0,0H5S5,15,5,15s0,0,0,0l0,0s0,0,0,0S5.05,15,5.07,15Z"/><path class="cls-2" d="M5.57,15.37c0-.08.06-.17,0-.23a.26.26,0,0,0-.07.18s0,0,0,0-.06,0-.07.06S5.54,15.36,5.57,15.37Z"/><path class="cls-2" d="M5.34,14.51s.07-.15,0-.2a1.06,1.06,0,0,0-.1.12h0s0,.06,0,.08,0,0,0,.06,0,0,0,0,0,.11,0,.14,0,0,0,0,0,0,0,0,0,0,0-.05,0,0,0,0,0-.05,0-.07.06-.07,0-.11,0,0,.06,0,0-.11,0-.09S5.31,14.49,5.34,14.51Z"/><path class="cls-2" d="M10.81,12.72h-.07s-.07.07-.11.08-.06,0-.08,0-.07.1-.11.14-.08,0-.09.05,0,0,0,0,.07,0,.09-.05,0,0,.07,0a.27.27,0,0,1,.08-.07l0,0c0-.05.1-.05.13-.07l.05,0s0,0,0,0,0,0,.05-.08a.12.12,0,0,0-.07,0S10.82,12.67,10.81,12.72Z"/><path class="cls-2" d="M5.94,13.39h0a.84.84,0,0,0-.1.22C6.39,13.25,6,13.24,5.94,13.39Z"/><path class="cls-2" d="M13.77,9.06l0,0s0,0,0,0,.07,0,.11,0h0l0,0s0,0,0,0h0l.06,0h0l.06,0h0a.07.07,0,0,1,.06,0l0,0,.21-.08.06,0,.14-.1.82-.28a15.94,15.94,0,0,0,2.69-1.16c.73-.44,1.86-1.3,1.7-2.61a2.87,2.87,0,0,0-1.06-1.84,3.19,3.19,0,0,1,.8,1.64c.28,2.74-4.56,4-4.68,4l-.19.07v0s-.09.12-.13,0a.06.06,0,0,0,0,.06l-.35.13h0v0a.5.5,0,0,0-.19.11s0,0-.05,0S14,9,14,9h-.14l-.07,0s0,0,0,0H13.6s0,0,0,.05-.05,0-.09,0h0l0,0,0,.06h0a.79.79,0,0,0,.13,0s.08,0,.13,0,0,0,0-.06Z"/><path class="cls-2" d="M6,14.07s-.11,0-.07.09S6.07,14.13,6,14.07Z"/><path class="cls-2" d="M6.91,12.25s0,0,0,0-.09.12-.14.18.07-.05.1-.08S6.91,12.29,6.91,12.25Z"/><path class="cls-2" d="M5.62,15s0-.1,0-.11S5.61,15.06,5.62,15Z"/><path class="cls-2" d="M5.67,14.9c.12,0,.12-.16.1-.18S5.62,14.89,5.67,14.9Z"/><path class="cls-2" d="M12.36,13.55s-.06,0-.06.08S12.42,13.59,12.36,13.55Z"/><path class="cls-2" d="M12.47,13.57h0s0,0,0,.06S12.47,13.62,12.47,13.57Z"/><path class="cls-2" d="M11.11,10.47s.14,0,.1-.07-.22,0-.22.13S11.07,10.49,11.11,10.47Z"/><path class="cls-2" d="M11.39,14s0,0,.07,0l0,0s.05,0,.1,0,0-.08.07-.08.05,0,.08,0,0,0,.05,0,0,0,0,0,.05,0,.09,0,.07,0,.11-.08.13,0,.13-.06-.1,0-.17,0h-.08s-.07,0-.1,0,0,0-.06,0-.09,0-.13,0-.07,0-.12,0,0,0,0-.07.05,0,.09,0,0,0,0,0l0,0s0,0,0,0,0,0,0-.06.09,0,0-.06-.05,0-.08,0l-.1.07s0,0,0,0-.1.07-.13.17,0,0,0,.05S11.39,13.9,11.39,14Z"/><path class="cls-2" d="M12.28,13.74s-.06,0,0,0,.06,0,.1,0h.05l0,0s0,0,.05,0,0,0,0,0,.06,0,.1.05.05-.06.09-.06,0,0,.07,0,.05,0,.08,0,.15-.09.15-.11h0s0,.06-.05,0a.29.29,0,0,1-.11,0c-.06.05-.15,0-.22,0l0,0s0,.06,0,.06-.09,0-.1,0,0-.05,0,0a0,0,0,0,0-.06,0s0,0-.05,0Z"/><path class="cls-2" d="M12.11,13.63h.05s0,0,0,0,0,0-.06,0,0,0,0,0,0,0,0,0S12.09,13.63,12.11,13.63Z"/><path class="cls-2" d="M11.94,13.61v.05h0s0,0,0,0Z"/><path class="cls-2" d="M13.47,14.14s0,0,0,0-.08,0-.13,0,0,0,0,0l0,0h.05s0,.06,0,.07h.07s0,.05,0,0,0,0,.05,0,0-.08,0-.09Z"/><path class="cls-2" d="M11.34,12.41a0,0,0,0,1-.06,0,.11.11,0,0,1-.1.07s0,.08,0,.09.11-.11.17-.06,0-.06,0-.06l0,0a.39.39,0,0,1,.14-.08s0-.08,0-.07,0,0,0,0l0,0s0,0,0,0,0-.05,0,0,0,0,0,0l0,0s0,0,0,0,.12,0,.13-.08l-.12,0,0,0s0,0,0,0-.05,0-.07,0h-.1c0,.08-.08,0-.09.11a0,0,0,0,0-.06,0s-.07,0-.08,0,0,0,0,0S11.38,12.42,11.34,12.41Z"/><path class="cls-2" d="M14.45,12.06s-.06,0-.09,0,0,.07.08.08Z"/><path class="cls-2" d="M11,12.68h0l0,0h.06s0-.05,0-.08h-.06s0,0,0,0,0,0,0,0l-.06,0,0,0h0s0,0,0,.07S11,12.69,11,12.68Z"/><path class="cls-2" d="M12.25,12.06s0,0,.07,0,0,0,0-.08,0-.07,0-.07a.17.17,0,0,1-.18,0,.18.18,0,0,0,0,.13s-.06,0-.09,0v0a.1.1,0,0,0,.09,0s0,0,0,0h0c0-.06,0-.05,0-.1S12.2,12,12.25,12.06Z"/><path class="cls-2" d="M12.5,12c0-.07,0-.13,0-.15s-.07,0-.07.11l0,0S12.47,12,12.5,12Z"/><path class="cls-2" d="M10.29,11c0,.05.05,0,.07.05s.14-.1.14-.17a.24.24,0,0,0-.15.11s.05,0,0,0S10.33,11,10.29,11Z"/><path class="cls-2" d="M9.56,11s.08-.09.1-.09l.08,0h0l.06-.06s.1,0,.12-.07,0,0,0,0,0,0-.07,0,0,0,0,0a.61.61,0,0,1-.12.09h0l0,0s0,0,0,0l0,0h0s-.05,0-.07.05H9.4L9.31,11H9.25l-.07,0L9,11.09s0,0,0,.06H9l0,0s-.09-.06-.11-.05.06.14,0,.15l0,0s0,0,.07,0,0,0,0,0l-.11.1s-.06,0-.09,0-.1.07-.12.09l-.08.05,0,0c-.08,0-.07,0-.07.06s0,0,0,0-.06,0-.08.07.09,0,.13,0,.1-.07.14-.09h0s0,0,0,0,.15-.14.23-.19H9s.07-.09,0-.11l0,0s0-.07,0-.07-.06,0,0-.07a.17.17,0,0,1,.12,0l0,0h0l.07,0A.61.61,0,0,1,9.32,11c0,.06.09,0,.14,0S9.53,11,9.56,11Z"/><path class="cls-2" d="M7.28,12.46h0S7.28,12.48,7.28,12.46Z"/><path class="cls-2" d="M9.4,11.94s0,.08-.05.13a.13.13,0,0,0-.14.07c.06,0,.08,0,.12,0s0-.1.09-.17S9.45,12,9.4,11.94Z"/><path class="cls-2" d="M10.08,10.49c0-.05.05,0,.07,0s0,0,0-.06l0-.06S10.06,10.45,10.08,10.49Z"/><path class="cls-2" d="M7.2,12.54h0s0,0,0,0h0c-.06,0-.06,0-.07.08h0S7.2,12.56,7.2,12.54Z"/><path class="cls-2" d="M11.06,9.85S11,9.9,11,9.93,11.2,9.8,11.06,9.85Z"/><path class="cls-2" d="M9,12.27c-.17.1.05.05.07,0S9,12.21,9,12.27Z"/><path class="cls-2" d="M10.65,10.25s.14-.08.14-.15a1.55,1.55,0,0,0-.15,0h0l-.08,0s0,0-.08,0,0,0,0,0-.1.06-.13.08,0,0-.05,0,0,0,0,.06,0,0,.06,0l.06,0,.06-.06s.08,0,.1-.06,0,0,.06,0,0-.1.09-.06S10.63,10.22,10.65,10.25Z"/><path class="cls-2" d="M7.18,12.55s0,0,0,.07h0s0,0,0,0,0,0,.06,0h0s0-.05,0-.07H7.18Z"/><path class="cls-2" d="M11.11,10.75s.06,0,.09,0a0,0,0,0,0,0-.08s-.08,0-.12.06a.11.11,0,0,0-.12,0C11,10.84,11.05,10.79,11.11,10.75Z"/><path class="cls-2" d="M11,9.91s-.23.13-.21.16A.54.54,0,0,0,11,9.91Z"/></g></g></svg>