<svg xmlns="http://www.w3.org/2000/svg" viewBox="0 0 28.35 28.35"><defs><style>.cls-1{fill:#f9f9e3;}.cls-2{fill:#b92d2c;}</style></defs><title>pattern_phoenix</title><g id="图层_2" data-name="图层 2"><g id="图层_1-2" data-name="图层 1"><circle class="cls-1" cx="14.17" cy="14.17" r="14.17"/><path class="cls-2" d="M14.23,0A14.12,14.12,0,0,0,5.17,3.23a19.32,19.32,0,0,1,2.33,2s1.26-1,1.89.25a1.08,1.08,0,0,1-.27,1.47,4.61,4.61,0,0,1,.55,4.67S8.21,13.65,9,14.31c0,0,.74,1.1,2.92-.1a7.25,7.25,0,0,1,6-1,17.37,17.37,0,0,0,3-1.56,3.08,3.08,0,0,1,3.55-.4l-1.17.54a2.55,2.55,0,0,0-1.07,0s2.11.07,2.94,1.31a1.47,1.47,0,0,1-1.43,0,3.83,3.83,0,0,0-1.58-.42s1.93.5,2.38,1.63A4.37,4.37,0,0,1,22.43,14s-.88-.33-1.13-.09a4.63,4.63,0,0,1,1.72.67,2.25,2.25,0,0,1-2.47.41,2.26,2.26,0,0,0-1.88.22,3.08,3.08,0,0,0-3.8.44,3.85,3.85,0,0,1-1.63,2.85,2.07,2.07,0,0,1-1.65.19,2,2,0,0,0-1.37.31s.57-.81,2.23-.55c0,0,1.92,0,1.42-2.54,0,0,0-.38-.65,0,0,0-3.37,1.33-5-.85,0,0-1.18-1.49.65-3.65,0,0,1.38-1.66-.64-4.13A34.51,34.51,0,0,0,4.81,3.53,14.18,14.18,0,1,0,14.23,0Zm1.5,9.06a8.15,8.15,0,0,1,3.59-2.15,4.58,4.58,0,0,0-.95,1.35,3.18,3.18,0,0,1-2.1,1.87l.21-.91ZM17.1,4.68a3.41,3.41,0,0,0-.36,1.46,3,3,0,0,1-1.33,2.57l-.08-1-.79.14A7.8,7.8,0,0,1,17.1,4.68ZM14.62,3.31a4.14,4.14,0,0,0,.07,1.86,2.6,2.6,0,0,1-.62,2.67l-.33-.9L13,7.31A7.48,7.48,0,0,1,14.62,3.31ZM13,13.24a2.67,2.67,0,0,0-.79-1.35c-1-.59-.86-1.13-.86-1.13a8.12,8.12,0,0,0,0-1.73,1.79,1.79,0,0,1,.28.91A1.31,1.31,0,0,0,12,11a3.11,3.11,0,0,1,1.62,2A3.27,3.27,0,0,0,13,13.24Zm-.91-2.54c.05-1,.28-.84.28-.84A1.31,1.31,0,0,1,12.11,10.7Zm1.26.62c.56-.55.66-.3.66-.3C14.09,11.22,13.37,11.32,13.37,11.32Zm1,.23c0,.24-.76.25-.76.25C14.24,11.35,14.32,11.55,14.32,11.55Zm-1.43-.48c.56-.72.64-.52.64-.52C13.68,10.78,12.89,11.07,12.89,11.07Zm-.43-.16c.37-.9.54-.78.54-.78C13.13,10.41,12.46,10.91,12.46,10.91Zm1.33,1.35c.7-.4.74-.15.74-.15C14.45,12.28,13.79,12.26,13.79,12.26Zm.1.47c.9-.37.92-.08.92-.08C14.75,12.91,13.89,12.73,13.89,12.73Zm1.76.16a2.38,2.38,0,0,1-.35-1.11.94.94,0,0,1-.15-1.39.87.87,0,0,0-.43.41.74.74,0,0,1-.45-.66s-.45.09-.69-.57c0,0-.52.19-1.09-.5a.93.93,0,0,1-.92-.61s-.24-.58.25-.79a.6.6,0,0,1,.73.5s.62-.64,1.18.43c0,0,.59-.3.95.66,0,0,.79-.08.76.89,0,0,.6.12.37,1a.83.83,0,0,1,.73,1.12,1.22,1.22,0,0,1,.41.57A2.62,2.62,0,0,0,15.65,12.89Zm1-2.36a6.94,6.94,0,0,1,3.22-1.38A2.6,2.6,0,0,0,19,10,3,3,0,0,1,17,11.49l.29-.76Zm.4,2,.56-.4-.4-.4a6.5,6.5,0,0,1,2.84-.05C18,13.09,17.07,12.55,17.07,12.55Zm1.85-1.48c1-1.41,1.9-1,1.9-1a2.87,2.87,0,0,0,1.57,0C21.31,12.35,18.92,11.07,18.92,11.07Zm-2.36,4.29s-.09.26-1.07.13C15.49,15.49,16.33,15.05,16.56,15.36Zm-.13.62c-.07.29-1-.21-1-.21C16.23,15.73,16.43,16,16.43,16Zm-.22.57c-.13.29-1-.42-1-.42C16.22,16.34,16.21,16.55,16.21,16.55Zm-.18.53s-.13.28-.92-.45C15.11,16.63,16.06,16.82,16,17.08Zm-.22.46s-.35.05-.87-.57C14.94,17,16,17.37,15.81,17.54Zm-.23.48c-.23.26-.9-.68-.9-.68C15.59,17.77,15.58,18,15.58,18Zm-.31.47c-.22.19-.85-.64-.85-.64C15.33,18.26,15.27,18.49,15.27,18.49Zm-.42.47c-.21.15-.68-.72-.68-.72C14.91,18.7,14.85,19,14.85,19Zm-.57.35c-.2.18-.42-.7-.42-.7C14.36,19.18,14.28,19.31,14.28,19.31Zm-.52.36c-.2.08-.29-.69-.29-.69C13.94,19.58,13.76,19.67,13.76,19.67Zm-.68-.59c.32.75.1.82.1.82C12.89,19.88,13.08,19.08,13.08,19.08Zm-.38.1c.15.88,0,.89,0,.89C12.34,20,12.7,19.18,12.7,19.18Zm-.43.08c.05.89-.26.91-.26.91C11.71,20,12.27,19.26,12.27,19.26Zm-.5-.06c-.13.94-.39,1-.39,1C11.22,20,11.77,19.2,11.77,19.2Zm-.29-.06c-.41,1-.71.93-.71.93C10.79,19.47,11.48,19.14,11.48,19.14ZM11,19.05a1.55,1.55,0,0,1-.75.71C10.17,19.33,11,19.05,11,19.05Zm-3.92,6A8.15,8.15,0,0,1,9,21.43l.22.83.85-.4c.22,1.08-1.15,2-1.15,2C8.48,24.09,7.05,25.06,7.05,25.06Zm3.71-.68a10,10,0,0,0-1.51,1.29,8.92,8.92,0,0,1,1.45-3.74l.3.7.83-.43C12.17,23.35,10.76,24.38,10.76,24.38Zm2.49-.11a8.67,8.67,0,0,0-1,1.89,11.87,11.87,0,0,1,0-4.11l.55.5.67-.62C14.14,22.85,13.25,24.27,13.25,24.27Zm2.08-.57a13.37,13.37,0,0,0-.64,1.53,8.49,8.49,0,0,1-.44-3.39l.52.45.52-.6A2.35,2.35,0,0,1,15.33,23.7Zm-.64-3a.68.68,0,0,1-1,.34.87.87,0,0,1-1.31.22.62.62,0,0,1-1,.13.69.69,0,0,1-1-.14s-.59.33-1-.41c0,0-.93,0-.62-.9a1.39,1.39,0,0,1,1-.51s.15.31.33.61a1.37,1.37,0,0,1,.77.38,1.1,1.1,0,0,1,.88.18.77.77,0,0,1,.78-.18,1.87,1.87,0,0,1,1.17-.33s.57-.5.88-.46c0,0,.38-.61.76-.63,0,0,.16-.65.65-.73a1.41,1.41,0,0,1,.52-.87s0-.7.43-.91a.91.91,0,0,1,.21-.9s-.06-.48.33-.6a1.3,1.3,0,0,1,1,.32.6.6,0,0,1-.37.8.65.65,0,0,1-.44,1,.67.67,0,0,1-.56,1s.43,1.09-.89.94a.7.7,0,0,1-.65,1A.67.67,0,0,1,14.69,20.74Zm2.18,2.15s-.17.71-.07.86a6.43,6.43,0,0,1-1.09-2.88l.48.3.31-.63S17.19,21.19,16.87,22.89Zm0-3.06.58.05V19.3a1.44,1.44,0,0,1,.8,1.14,9.71,9.71,0,0,0,.3,1.55A6.82,6.82,0,0,1,16.9,19.83Zm.94-1,.48-.11-.1-.61c1.25.44,1.85,2.3,1.85,2.3A8.66,8.66,0,0,1,17.84,18.78Zm.8-1.27.39-.16-.24-.58s.9-.18,1.77,1.16a2.71,2.71,0,0,0,.48.61A8.84,8.84,0,0,1,18.64,17.51Z"/></g></g></svg>