<svg xmlns="http://www.w3.org/2000/svg" viewBox="0 0 26.99 26.99"><defs><style>.cls-1{fill:#f9f9e3;}.cls-2{fill:#af2e2b;}</style></defs><title>pattern_engraved</title><g id="图层_2" data-name="图层 2"><g id="图层_1-2" data-name="图层 1"><circle class="cls-1" cx="13.49" cy="13.49" r="13.49"/><path class="cls-2" d="M13.55,0A13.5,13.5,0,1,0,27,13.55,13.5,13.5,0,0,0,13.55,0ZM16.2,19.27a1.61,1.61,0,0,0,.51-.89l.11-.88a.65.65,0,0,1,.73-.42c.33.06.44.38.35,1a12.66,12.66,0,0,1-.43,1.77c-.2.58-1.33,1-3.4,1.11v1.27c.42,0,.84,0,1.26,0l.74,0,.61.11a5,5,0,0,0-.1-.71,3,3,0,0,1-.07-.56.61.61,0,0,1,.24-.38c.16-.13.36-.11.62.06a.91.91,0,0,1,.27.52,6.3,6.3,0,0,1,.11,1.07c0,.46,0,.81,0,1a2.44,2.44,0,0,1-1.25,2.21,7.15,7.15,0,0,1-3.2.54c-1.79,0-2.86-.16-3.22-.46a1.92,1.92,0,0,1-.68-.89,4.1,4.1,0,0,1-.14-1.13,9.48,9.48,0,0,1,0-1,6.19,6.19,0,0,1,.19-1.07c.09-.38.26-.56.49-.56a.63.63,0,0,1,.48.19.65.65,0,0,1,.08.47l-.13.61c.84,0,1.65-.07,2.43-.07V20.89c-.47,0-1,0-1.66-.08a2.13,2.13,0,0,1-1.41-.54,2.54,2.54,0,0,1-.58-.79,6.78,6.78,0,0,1-.3-1.22c-.11-.59.11-.88.65-.87a.46.46,0,0,1,.39.18,1.15,1.15,0,0,1,.11.56,2.94,2.94,0,0,0,.11.71,1.76,1.76,0,0,0,.45.66c.23.23,1,.33,2.28.29V18.74a3.26,3.26,0,0,1-.86-.21,1.7,1.7,0,0,1-.6-.51,1.33,1.33,0,0,1-.27-.87v-.88c-1.07.05-1.76.11-2.05.16a1.13,1.13,0,0,1-.63,0A.6.6,0,0,1,8.2,16a.54.54,0,0,1,.26-.57A1.5,1.5,0,0,1,9,15.24c.26,0,1-.1,2.1-.15S13,15,13.49,15s1.08,0,1.84,0,1.39.05,1.87,0,.74.13.79.41a.64.64,0,0,1-.13.59,1.06,1.06,0,0,1-.68.15H15.67c0,.41-.05.73-.08.95a2.25,2.25,0,0,1-.26.72.88.88,0,0,1-.47.48l-.79.36v1.05A3.76,3.76,0,0,0,16.2,19.27Zm3.8-14a.35.35,0,0,1-.34.27,1.06,1.06,0,0,1-.54-.14,5.87,5.87,0,0,0-1-.31l-1.54-.42a13.21,13.21,0,0,0-1.72-.37,7.79,7.79,0,0,0-.7,1.28,1.7,1.7,0,0,0-.12.65v.32a35.5,35.5,0,0,1,3.75.12c.57.08.86.23.88.43a.43.43,0,0,1-.2.44,1,1,0,0,1-.55.13L16,7.59H14.17l0,1.84c.88,0,1.51,0,1.88.05s.93,0,1.67,0A2.71,2.71,0,0,1,19,9.68l.31.29a.53.53,0,0,1,.14.22c0,.05-.07.13-.21.23a1.1,1.1,0,0,1-.56.19,8.87,8.87,0,0,1-1,0c-.47,0-1.62-.07-3.43-.1l0,2c.59,0,1.35,0,2.28.1a5.63,5.63,0,0,1,1.71.26c.2.12.29.26.26.42s-.18.29-.45.39a3.27,3.27,0,0,1-1.29,0,12.51,12.51,0,0,0-1.92-.11H11.47c-.67,0-1.24.09-1.7.15a1.48,1.48,0,0,1-.92-.09.44.44,0,0,1-.2-.41.51.51,0,0,1,.3-.37,5.84,5.84,0,0,1,1.74-.27A20.33,20.33,0,0,1,13,12.47v-2c-2.16,0-3.79,0-4.88.1a1.13,1.13,0,0,1-.64-.11.39.39,0,0,1-.18-.39q0-.25.36-.42a1.26,1.26,0,0,1,.56-.09c.23,0,.85,0,1.84-.06l1.35,0L13,9.45l0-1.89c-1.8,0-3.15,0-4.06,0a1.12,1.12,0,0,1-.64-.09.44.44,0,0,1-.22-.31c0-.12.08-.24.29-.38a1.78,1.78,0,0,1,.93-.16c.43,0,1.68,0,3.76-.1a6.25,6.25,0,0,0-.42-1.07,11.51,11.51,0,0,0-1-1.36L10,4.72c-.3.11-.68.26-1.14.46l-1,.41a1.34,1.34,0,0,1-.52.11A.38.38,0,0,1,7,5.48a.35.35,0,0,1,0-.42,3.78,3.78,0,0,1,1.35-.65A22.75,22.75,0,0,0,11,3.31c-.44-.45-.83-.81-1.17-1.1s-.5-.49-.49-.63a.62.62,0,0,1,.18-.35.54.54,0,0,1,.4-.15c.17,0,.57.32,1.19.94a16.93,16.93,0,0,1,1.34,1.46l.93,1.17c.18-.25.31-.45.39-.59L14.39,3q.21-.33.72-1A4.76,4.76,0,0,1,16,1c.26-.2.45-.23.59-.11a.48.48,0,0,1,.17.43,1.41,1.41,0,0,1-.4.67,10.75,10.75,0,0,0-1,1.35c.68.15,1.18.27,1.52.36l1.73.51a2.65,2.65,0,0,1,1.1.47C20,4.88,20.07,5.06,20,5.24Z"/><path class="cls-2" d="M14.6,16.71v-.48c-.84,0-1.66,0-2.45,0a3.72,3.72,0,0,0,0,.67.89.89,0,0,0,.15.45,1.07,1.07,0,0,0,.57.28,2.53,2.53,0,0,0,1.1,0C14.41,17.54,14.62,17.24,14.6,16.71Z"/><path class="cls-2" d="M12.3,23.28c-.48,0-1.11,0-1.9.13a3,3,0,0,0,0,.74.91.91,0,0,0,.26.44,1.54,1.54,0,0,0,.79.28,17.84,17.84,0,0,0,2.26.09,4.87,4.87,0,0,0,2.15-.31,1.07,1.07,0,0,0,.55-.69l.15-.55A37.67,37.67,0,0,0,12.3,23.28Z"/></g></g></svg>