<svg xmlns="http://www.w3.org/2000/svg" xmlns:xlink="http://www.w3.org/1999/xlink" viewBox="0 0 224.77 267.59"><defs><style>.cls-1{fill:none;}.cls-2{fill:#fbd09c;}.cls-3{fill:#434244;}.cls-4{fill:#150d10;}.cls-5{clip-path:url(#clip-path);}.cls-6{fill:#f8ac76;}.cls-7{clip-path:url(#clip-path-2);}.cls-8{clip-path:url(#clip-path-3);}.cls-9{clip-path:url(#clip-path-4);}.cls-10{clip-path:url(#clip-path-5);}.cls-11{clip-path:url(#clip-path-6);}.cls-12{fill:#eaa978;}.cls-13{fill:#d76644;}.cls-14{fill:#eae4cd;}.cls-15{fill:#875731;}.cls-16{fill:#b53a5a;}.cls-17{fill:#c4c6b8;}.cls-18{fill:#8f9093;}.cls-19{fill:#2da8ad;}.cls-20{fill:url(#linear-gradient);}.cls-21{fill:#ffd244;}</style><clipPath id="clip-path"><rect class="cls-1" x="17.75" y="161.81" width="30.79" height="12.13"/></clipPath><clipPath id="clip-path-2"><rect class="cls-1" x="42.77" y="161.86" width="21.8" height="8.59"/></clipPath><clipPath id="clip-path-3"><rect class="cls-1" x="96.84" y="161.81" width="30.79" height="12.13"/></clipPath><clipPath id="clip-path-4"><rect class="cls-1" x="117.64" y="161.86" width="21.8" height="8.59"/></clipPath><clipPath id="clip-path-5"><rect class="cls-1" x="176.27" y="161.81" width="30.79" height="12.13" transform="translate(383.34 335.75) rotate(-180)"/></clipPath><clipPath id="clip-path-6"><rect class="cls-1" x="160.24" y="161.86" width="21.8" height="8.59" transform="translate(342.28 332.31) rotate(-180)"/></clipPath><linearGradient id="linear-gradient" x1="108.66" y1="13.66" x2="116.23" y2="13.66" gradientUnits="userSpaceOnUse"><stop offset="0" stop-color="#ca5649"/><stop offset="1" stop-color="#fa6d62"/></linearGradient></defs><title>pavilion</title><g id="图层_2" data-name="图层 2"><g id="图层_1-2" data-name="图层 1"><rect class="cls-2" x="168.89" y="161.76" width="7.04" height="105.83"/><rect class="cls-2" x="183.18" y="161.76" width="12.16" height="105.83"/><rect class="cls-2" x="107.91" y="161.76" width="13.08" height="105.83"/><rect class="cls-2" x="125.42" y="161.76" width="7.04" height="105.83"/><rect class="cls-2" x="49.95" y="161.2" width="7.04" height="106.39"/><rect class="cls-2" x="29.43" y="161.21" width="13.08" height="106.39"/><polyline class="cls-3" points="35.87 67.02 58.2 108.68 166.44 110.86 189.22 67.02"/><path class="cls-4" d="M35.86,51.92l0,11.84L36,66.24S48.28,89.93,79.41,89.93s33-22,33-22V44.36h-3S101.84,70,67.26,70C42.36,70,36.86,57.86,35.86,51.92Z"/><path class="cls-4" d="M189.22,56.15l-.34,9.42-.09,2.48s-12.31,21.88-43.43,21.88-33-22-33-22V44.36h3s7.84,23.26,42.43,23.26C182.72,67.62,188.22,62.09,189.22,56.15Z"/><rect class="cls-4" x="57" y="128.6" width="106.87" height="33.21"/><path class="cls-4" d="M0,139c7.61,20.7,26.74,22.63,26.74,22.63H80.38c30.81,0,31.4-23.65,31.4-23.65H57.16S24.94,146.5,1.5,121.73Z"/><path class="cls-4" d="M224.77,139c-7.62,20.7-26.75,22.63-26.75,22.63H144.39C113.57,161.61,113,138,113,138H167.6s32.23,8.54,55.67-16.23Z"/><g class="cls-5"><ellipse class="cls-6" cx="34.33" cy="162.26" rx="9.95" ry="9.44"/></g><g class="cls-7"><ellipse class="cls-6" cx="54.51" cy="162.18" rx="7.04" ry="6.68"/></g><g class="cls-8"><ellipse class="cls-6" cx="113.43" cy="162.26" rx="9.95" ry="9.44"/></g><g class="cls-9"><ellipse class="cls-6" cx="129.38" cy="162.18" rx="7.04" ry="6.68"/></g><g class="cls-10"><ellipse class="cls-6" cx="190.49" cy="162.26" rx="9.95" ry="9.44"/></g><g class="cls-11"><ellipse class="cls-6" cx="170.3" cy="162.18" rx="7.04" ry="6.68"/></g><path class="cls-12" d="M.6,128.11c7.62,20.7,26.75,22.63,26.75,22.63H81c30.82,0,31.4-23.65,31.4-23.65H57.77S25.54,135.64,2.1,110.86Z"/><rect class="cls-13" x="58.32" y="108.68" width="54.06" height="18.41"/><rect class="cls-14" x="65.22" y="114.31" width="47.16" height="9.14" transform="translate(177.6 237.77) rotate(180)"/><path class="cls-1" d="M35.24,39.37a13.17,13.17,0,0,1-.13-3.91Z"/><path class="cls-12" d="M224.16,128.11c-7.61,20.7-26.74,22.63-26.74,22.63H143.79c-30.82,0-31.4-23.65-31.4-23.65H167s32.23,8.55,55.67-16.23Z"/><rect class="cls-13" x="112.39" y="108.68" width="54.06" height="18.41"/><rect class="cls-14" x="112.39" y="114.31" width="47.16" height="9.14"/><path class="cls-1" d="M189.66,35.46a13.6,13.6,0,0,1-.13,3.91Z"/><polygon class="cls-15" points="112.38 21.27 112.15 21.27 108.7 21.27 108.7 27.46 112.15 27.46 112.38 27.46 116.07 27.46 116.07 21.27 112.38 21.27"/><ellipse class="cls-16" cx="112.29" cy="2.94" rx="1.55" ry="1.32"/><path class="cls-16" d="M111.4,1.85s.37-.38.21-1.56c0,0,.16-.29.79-.29,0,0,.47,0,.63.29a5.77,5.77,0,0,0,.14,1.56"/><path class="cls-17" d="M112.24,4.81a4.13,4.13,0,0,0-3,1.16,1.47,1.47,0,0,1,.21-.39.83.83,0,0,0-.21.39c-.11.7,1.38,1.28,3.09,1.28h.05V4.82Z"/><path class="cls-17" d="M112.56,4.81a4.1,4.1,0,0,1,3,1.16,1.2,1.2,0,0,0-.2-.39.73.73,0,0,1,.2.39c.12.7-1.38,1.28-3.08,1.28h0V4.82Z"/><path class="cls-18" d="M110.9,4.78s-2.16-1.09,1.5-1.36V4.71"/><path class="cls-18" d="M113.9,4.78s2.16-1.09-1.5-1.36V4.71"/><path class="cls-17" d="M109.85,5.63a5.73,5.73,0,0,1,5,0h0l.09-.16-1.27-.66h-2.4l-1.11.3"/><path class="cls-3" d="M109.47,5.58a4.06,4.06,0,0,1,2.88-.89h.05V4.43h-.11A3.49,3.49,0,0,0,109.47,5.58Z"/><path class="cls-3" d="M112.35,4.69a4.06,4.06,0,0,0-2.88.89,1.47,1.47,0,0,0-.21.39,4.13,4.13,0,0,1,3-1.16h.16V4.69Z"/><path class="cls-3" d="M115.33,5.58a4.06,4.06,0,0,0-2.88-.89h0V4.43h.11A3.49,3.49,0,0,1,115.33,5.58Z"/><path class="cls-3" d="M112.45,4.69a4.06,4.06,0,0,1,2.88.89,1.2,1.2,0,0,1,.2.39,4.1,4.1,0,0,0-3-1.16h-.16V4.69Z"/><path class="cls-17" d="M115.37,6.15a2.39,2.39,0,0,0-.58-.54c-.25-.13,0-.19,0-.19l.47.33"/><ellipse class="cls-19" cx="112.44" cy="7.05" rx="2.75" ry="2.35"/><path class="cls-17" d="M112.2,10.63a4.56,4.56,0,0,0-3.72,1.94,2.75,2.75,0,0,1,.26-.66,1.56,1.56,0,0,0-.26.65c-.14,1.17,1.73,2.13,3.85,2.13h.07v-4Z"/><path class="cls-17" d="M112.6,10.63a4.56,4.56,0,0,1,3.72,1.94,2.75,2.75,0,0,0-.26-.66,1.56,1.56,0,0,1,.26.65c.14,1.17-1.73,2.13-3.85,2.13h-.07v-4Z"/><ellipse class="cls-20" cx="112.44" cy="13.66" rx="3.79" ry="3.23"/><path class="cls-17" d="M112.19,18a4.81,4.81,0,0,0-3.87,1.93,3.42,3.42,0,0,1,.27-.65,1.46,1.46,0,0,0-.27.65c-.14,1.17,1.8,2.13,4,2.13h.07V18Z"/><path class="cls-17" d="M112.61,18a4.77,4.77,0,0,1,3.86,1.93,2.85,2.85,0,0,0-.26-.65,1.44,1.44,0,0,1,.26.65c.15,1.17-1.79,2.13-4,2.13h-.07V18Z"/><ellipse class="cls-21" cx="112.44" cy="21.45" rx="3.79" ry="3.23"/><path class="cls-18" d="M109.78,25.71s-3.77-2.35,2.62-2.94v2.8"/><path class="cls-18" d="M115,25.71s3.77-2.35-2.62-2.94v2.8"/><path class="cls-18" d="M110.08,17.93s-3.34-1.41,2.32-1.77v1.68"/><path class="cls-18" d="M114.72,17.93s3.34-1.41-2.32-1.77v1.68"/><path class="cls-18" d="M110.52,10.58s-2.7-1.81,1.88-2.26v2.15"/><path class="cls-18" d="M114.28,10.58s2.7-1.81-1.88-2.26v2.15"/><path class="cls-17" d="M109.09,19.35s3.46-2.24,6.48,0l.12-.27L114,18h-3.11l-1.44.49"/><path class="cls-3" d="M108.59,19.26a4.6,4.6,0,0,1,3.74-1.48h.07v-.44h-.14A4.16,4.16,0,0,0,108.59,19.26Z"/><path class="cls-3" d="M112.33,17.78a4.6,4.6,0,0,0-3.74,1.48,3.42,3.42,0,0,0-.27.65A4.81,4.81,0,0,1,112.19,18h.21v-.21Z"/><path class="cls-3" d="M116.21,19.26a4.6,4.6,0,0,0-3.74-1.48h-.07v-.44h.14A4.16,4.16,0,0,1,116.21,19.26Z"/><path class="cls-3" d="M112.47,17.78a4.6,4.6,0,0,1,3.74,1.48,2.85,2.85,0,0,1,.26.65A4.77,4.77,0,0,0,112.61,18h-.21v-.21Z"/><path class="cls-17" d="M109.22,12s3.3-2.23,6.18,0l0,0,.11-.27L114,10.63h-3l-1.39.5"/><path class="cls-3" d="M108.74,11.91a4.35,4.35,0,0,1,3.59-1.48h.07V10h-.14A3.94,3.94,0,0,0,108.74,11.91Z"/><path class="cls-3" d="M112.33,10.43a4.35,4.35,0,0,0-3.59,1.48,2.75,2.75,0,0,0-.26.66,4.56,4.56,0,0,1,3.72-1.94h.2v-.21Z"/><path class="cls-3" d="M116.06,11.91a4.36,4.36,0,0,0-3.59-1.48h-.07V10h.13A4,4,0,0,1,116.06,11.91Z"/><path class="cls-3" d="M112.47,10.43a4.36,4.36,0,0,1,3.59,1.48,2.75,2.75,0,0,1,.26.66,4.56,4.56,0,0,0-3.72-1.94h-.2v-.21Z"/><path class="cls-4" d="M77.52,90S118,96,153,89.36,128.84,64,128.84,64l-26.59,3.62"/><path class="cls-12" d="M189.53,39.37l-.66,19.56-.08,2.48S176.44,73,145.22,73s-33.07-22-33.07-22V27.46h3s8.42,28.46,43.1,28.46C183.25,55.92,188.53,45.31,189.53,39.37Z"/><path class="cls-12" d="M125.54,57.63,112.39,44.36h0V27.46h-3a42.43,42.43,0,0,1-21,23.67L72.47,55.61a58.81,58.81,0,0,1-6.07.31c-24.9,0-30.16-10.61-31.16-16.55l.65,19.56L36,61.41a25.86,25.86,0,0,0,4.64,3.18h0s57.46,35.09,133.12,4.46Z"/><path class="cls-17" d="M114.76,11.18l.11.44s1,.54,1.25,1.25,0-.43,0-.43l-.45-.51-.35-.36S115,11.28,114.76,11.18Z"/></g></g></svg>