<svg xmlns="http://www.w3.org/2000/svg" viewBox="0 0 87.64 67.94"><defs><style>.cls-1,.cls-3{fill:none;stroke-miterlimit:10;}.cls-1{stroke:#e3494e;stroke-width:2.84px;}.cls-2{fill:#1a2f47;}.cls-3{stroke:#1a2f47;stroke-width:0.82px;}.cls-4{font-size:11.35px;font-family:MinionPro-Semibold, Minion Pro;font-weight:600;}.cls-5{letter-spacing:0.02em;}.cls-6{letter-spacing:0em;}.cls-7{letter-spacing:0em;}.cls-8{letter-spacing:0em;}.cls-9{letter-spacing:-0.01em;}.cls-10{letter-spacing:0em;}.cls-11{letter-spacing:-0.01em;}.cls-12{letter-spacing:-0.01em;}.cls-13{letter-spacing:0em;}.cls-14{letter-spacing:0em;}.cls-15{letter-spacing:0em;}</style></defs><title>recomment-icon</title><g id="图层_2" data-name="图层 2"><g id="图层_1-2" data-name="图层 1"><circle class="cls-1" cx="42.77" cy="23.87" r="22.45"/><path class="cls-2" d="M51.13,35.62a7,7,0,0,1-5-2,6.86,6.86,0,0,1,0-9.78,7.07,7.07,0,0,1,9.9,0,6.88,6.88,0,0,1,0,9.78,7,7,0,0,1-4.95,2Zm0-12.85a6,6,0,0,0-4.26,1.74,5.89,5.89,0,0,0,0,8.4,6.07,6.07,0,0,0,8.51,0,5.87,5.87,0,0,0,0-8.4,6,6,0,0,0-4.25-1.74ZM39.5,20.37a2.54,2.54,0,0,1-1-.19l-2.56-1.09c-.52-.22-.59-.54-.59-.71s.07-.5.59-.71l2.56-1.09a2.87,2.87,0,0,1,2,0l2.56,1.09c.51.21.59.54.59.71s-.08.49-.59.71l-2.56,1.09a2.58,2.58,0,0,1-1,.19Zm-3.28-2,0,0,2.56,1.09a2.17,2.17,0,0,0,1.38,0l2.56-1.09s0,0,0,0h0l-2.56-1.09a2,2,0,0,0-1.38,0l-2.56,1.09Zm6.94,13.8a18.82,18.82,0,0,1-3.51.32c-5.14,0-8.73-1.92-8.73-3.63a1.6,1.6,0,0,1,.52-1.22h0a.57.57,0,0,0,.12-.37.52.52,0,0,0-.48-.55.47.47,0,0,0-.34.16h0a3,3,0,0,0-.84,2c0,2.73,4.18,4.79,9.73,4.79a19.58,19.58,0,0,0,4.05-.4,8.24,8.24,0,0,1-.54-1.07Z"/><path class="cls-2" d="M39.65,28.57a19.88,19.88,0,0,0,3-.21,8.06,8.06,0,0,1,.22-1.21,18.4,18.4,0,0,1-3.18.27c-5.14,0-8.72-1.92-8.72-3.64a1.57,1.57,0,0,1,.51-1.21h0v0h0a.59.59,0,0,0,.12-.37.52.52,0,0,0-.48-.56.45.45,0,0,0-.34.17h0a3,3,0,0,0-.84,2c0,2.73,4.19,4.79,9.74,4.79Zm0-5.1c5.56,0,9.75-2.08,9.75-4.82s-4.19-4.82-9.75-4.82-9.76,2.07-9.76,4.82,4.2,4.82,9.76,4.82Zm0-8.66c5.12,0,8.69,2.13,8.69,3.84s-3.57,3.67-8.69,3.67-8.7-2-8.7-3.67,3.57-3.84,8.7-3.84Z"/><path class="cls-3" d="M50.81,27.37a2.34,2.34,0,0,1,.85.09l2.16.73c.43.15.52.41.53.55s0,.41-.44.62l-2,1.05a2.41,2.41,0,0,1-1.67.13l-2.16-.74c-.44-.14-.52-.4-.53-.54s0-.41.44-.62l2-1.05a2.11,2.11,0,0,1,.82-.22Z"/><text class="cls-4" transform="translate(0 63.85)"><tspan class="cls-5">C</tspan><tspan class="cls-6" x="7.83" y="0">e</tspan><tspan class="cls-7" x="12.7" y="0">l</tspan><tspan class="cls-8" x="15.8" y="0">e</tspan><tspan class="cls-9" x="20.68" y="0">b</tspan><tspan class="cls-10" x="26.52" y="0">r</tspan><tspan class="cls-11" x="30.97" y="0">i</tspan><tspan x="34.11" y="0">ty </tspan><tspan class="cls-8" x="45.57" y="0">Re</tspan><tspan class="cls-12" x="57.75" y="0">f</tspan><tspan class="cls-13" x="61.24" y="0">e</tspan><tspan x="66.12" y="0">r</tspan><tspan class="cls-14" x="70.57" y="0">ra</tspan><tspan class="cls-15" x="80.31" y="0">ls</tspan></text></g></g></svg>