<svg xmlns="http://www.w3.org/2000/svg" viewBox="0 0 58.84 329.87"><defs><style>.cls-1{opacity:0.4;}.cls-2{font-size:26.16px;font-family:FZCUJINLJW--GB1-0, FZJinLS-B-GB;}.cls-3{font-size:11.35px;font-family:MinionPro-Semibold, Minion Pro;font-weight:600;}.cls-4{letter-spacing:-0.01em;}.cls-5{letter-spacing:0em;}.cls-6{letter-spacing:-0.01em;}.cls-7{letter-spacing:-0.01em;}.cls-8{letter-spacing:-0.01em;}.cls-9{letter-spacing:-0.04em;}.cls-10{letter-spacing:0em;}.cls-11{letter-spacing:0.01em;}.cls-12{letter-spacing:0em;}.cls-13{letter-spacing:0em;}.cls-14{letter-spacing:0.01em;}.cls-15{letter-spacing:-0.01em;}.cls-16{letter-spacing:-0.02em;}.cls-17{letter-spacing:-0.01em;}.cls-18{letter-spacing:0em;}.cls-19{letter-spacing:0em;}.cls-20{letter-spacing:0.01em;}.cls-21{letter-spacing:0em;}.cls-22{letter-spacing:-0.1em;}.cls-23{letter-spacing:-0.01em;}.cls-24{opacity:0.5;}.cls-25{fill:#e3494e;}</style></defs><title>review-icon-false</title><g id="图层_2" data-name="图层 2"><g id="图层_1-2" data-name="图层 1"><g class="cls-1"><text class="cls-2" transform="translate(16.06 33.06)">娼</text></g><g class="cls-1"><text class="cls-2" transform="translate(17.38 101.68)">戏</text></g><g class="cls-1"><text class="cls-2" transform="translate(17.38 167.79)">艺</text></g><g class="cls-1"><text class="cls-2" transform="translate(17.38 233.89)">走</text></g><g class="cls-1"><text class="cls-2" transform="translate(16.06 299.43)">席</text></g><text class="cls-3"><tspan class="cls-4" x="3.7" y="62.34">Pr</tspan><tspan x="14.57" y="62.34">o</tspan><tspan class="cls-5" x="20.48" y="62.34">s</tspan><tspan x="24.71" y="62.34">t</tspan><tspan class="cls-6" x="28.41" y="62.34">i</tspan><tspan class="cls-7" x="31.55" y="62.34">t</tspan><tspan class="cls-6" x="35.1" y="62.34">u</tspan><tspan class="cls-8" x="41.2" y="62.34">t</tspan><tspan x="44.79" y="62.34">es</tspan></text><text class="cls-3"><tspan class="cls-9" x="10.83" y="195.77">J</tspan><tspan x="14.42" y="195.77">u</tspan><tspan class="cls-10" x="20.61" y="195.77">g</tspan><tspan class="cls-11" x="26.13" y="195.77">g</tspan><tspan class="cls-12" x="31.71" y="195.77">l</tspan><tspan class="cls-13" x="34.81" y="195.77">e</tspan><tspan x="39.69" y="195.77">rs</tspan></text><text class="cls-3"><tspan x="19.31" y="129.5">a</tspan><tspan class="cls-14" x="24.48" y="129.5">c</tspan><tspan class="cls-8" x="29.35" y="129.5">t</tspan><tspan class="cls-15" x="32.94" y="129.5">o</tspan><tspan x="38.72" y="129.5">r</tspan></text><text class="cls-3"><tspan class="cls-16" x="0" y="260.98">H</tspan><tspan class="cls-17" x="8.56" y="260.98">a</tspan><tspan x="13.67" y="260.98">i</tspan><tspan class="cls-4" x="16.9" y="260.98">r</tspan><tspan class="cls-18" x="21.24" y="260.98">d</tspan><tspan class="cls-4" x="27.37" y="260.98">r</tspan><tspan x="31.7" y="260.98">e</tspan><tspan class="cls-19" x="36.62" y="260.98">s</tspan><tspan class="cls-20" x="40.86" y="260.98">s</tspan><tspan class="cls-19" x="45.23" y="260.98">e</tspan><tspan class="cls-21" x="50.12" y="260.98">rs</tspan></text><text class="cls-3"><tspan class="cls-22" x="14.1" y="325.78">W</tspan><tspan class="cls-23" x="24.08" y="325.78">a</tspan><tspan class="cls-6" x="29.19" y="325.78">i</tspan><tspan class="cls-8" x="32.33" y="325.78">t</tspan><tspan class="cls-19" x="35.92" y="325.78">e</tspan><tspan x="40.8" y="325.78">rs</tspan></text><g class="cls-24"><path class="cls-25" d="M29.59,49.72A24.86,24.86,0,1,0,4.73,24.86,24.89,24.89,0,0,0,29.59,49.72Zm0-46.88A22,22,0,0,1,47.2,38.07L12.83,10.59A22,22,0,0,1,29.59,2.84Zm-18.46,10L45.35,40.23A22,22,0,0,1,11.13,12.87Z"/><path class="cls-25" d="M29.59,68.63A24.86,24.86,0,1,0,54.45,93.49,24.89,24.89,0,0,0,29.59,68.63Zm-22,24.86A21.83,21.83,0,0,1,10.5,82.54l34,27.17A22,22,0,0,1,7.57,93.49Zm38.87,14.16L12.07,80.16a22,22,0,1,1,34.37,27.49Z"/><path class="cls-25" d="M29.59,134.73a24.86,24.86,0,1,0,24.86,24.86A24.89,24.89,0,0,0,29.59,134.73Zm0,46.89A22,22,0,0,1,11.26,147.4l34.25,27.39A22,22,0,0,1,29.59,181.62Zm17.75-9L13,145.15a22,22,0,0,1,34.35,27.46Z"/><path class="cls-25" d="M29.59,200.84A24.86,24.86,0,1,0,54.45,225.7,24.89,24.89,0,0,0,29.59,200.84Zm-22,24.86A21.81,21.81,0,0,1,10.93,214l34.15,27.31A22,22,0,0,1,7.57,225.7ZM47,239.21,12.59,211.72A22,22,0,0,1,47,239.21Z"/><path class="cls-25" d="M29.59,266.38a24.86,24.86,0,1,0,24.86,24.86A24.89,24.89,0,0,0,29.59,266.38Zm-22,24.86a22,22,0,0,1,3-11.14l34,27.21a22,22,0,0,1-37-16.07Zm39,14L12.2,277.75a22,22,0,1,1,34.38,27.49Z"/></g></g></g></svg>