<svg xmlns="http://www.w3.org/2000/svg" viewBox="0 0 49.72 265.07"><defs><style>.cls-1{fill:none;stroke:#e3494e;stroke-miterlimit:10;stroke-width:2.84px;}.cls-2{font-size:26.16px;font-family:FZCUJINLJW--GB1-0, FZJinLS-B-GB;}.cls-10,.cls-3{font-size:11.35px;font-family:MinionPro-Semibold, Minion Pro;font-weight:600;}.cls-3{letter-spacing:0.01em;}.cls-4{letter-spacing:-0.01em;}.cls-5{letter-spacing:-0.01em;}.cls-6{letter-spacing:0em;}.cls-7{letter-spacing:0em;}.cls-8{letter-spacing:-0.02em;}.cls-9{letter-spacing:0em;}.cls-11{letter-spacing:-0.02em;}.cls-12{letter-spacing:-0.01em;}.cls-13{letter-spacing:-0.09em;}.cls-14{letter-spacing:-0.01em;}.cls-15{letter-spacing:0em;}.cls-16{letter-spacing:0em;}.cls-17{letter-spacing:0em;}.cls-18{letter-spacing:-0.02em;}.cls-19{letter-spacing:0em;}.cls-20{letter-spacing:-0.01em;}</style></defs><title>review-icon</title><g id="图层_2" data-name="图层 2"><g id="图层_1-2" data-name="图层 1"><circle class="cls-1" cx="24.86" cy="24.86" r="23.44"/><text class="cls-2" transform="translate(11.33 33.06)">士</text><circle class="cls-1" cx="24.86" cy="91.59" r="23.44"/><text class="cls-2" transform="translate(11.33 99.78)">农</text><circle class="cls-1" cx="24.86" cy="159.54" r="23.44"/><text class="cls-2" transform="translate(11.33 168.4)">工</text><circle class="cls-1" cx="24.86" cy="226.66" r="23.44"/><text class="cls-2" transform="translate(11.33 236.08)">商</text><text class="cls-3"><tspan x="6.72" y="62.34">L</tspan><tspan class="cls-4" x="13.06" y="62.34">i</tspan><tspan class="cls-5" x="16.21" y="62.34">t</tspan><tspan class="cls-6" x="19.8" y="62.34">e</tspan><tspan class="cls-7" x="24.68" y="62.34">r</tspan><tspan class="cls-8" x="29.18" y="62.34">a</tspan><tspan class="cls-9" x="34.18" y="62.34">ti</tspan></text><text class="cls-10"><tspan class="cls-11" x="6.72" y="129.5">F</tspan><tspan class="cls-12" x="12.71" y="129.5">a</tspan><tspan x="17.82" y="129.5">rm</tspan><tspan class="cls-6" x="31.74" y="129.5">e</tspan><tspan x="36.62" y="129.5">r</tspan></text><text class="cls-10"><tspan class="cls-13" x="6.72" y="196.66">W</tspan><tspan class="cls-14" x="16.72" y="196.66">o</tspan><tspan x="22.5" y="196.66">r</tspan><tspan class="cls-15" x="26.95" y="196.66">k</tspan><tspan class="cls-16" x="32.65" y="196.66">e</tspan><tspan class="cls-17" x="37.53" y="196.66">r</tspan></text><text class="cls-10"><tspan class="cls-18" x="3.88" y="260.98">M</tspan><tspan class="cls-6" x="13.73" y="260.98">e</tspan><tspan class="cls-5" x="18.62" y="260.98">r</tspan><tspan class="cls-19" x="22.95" y="260.98">c</tspan><tspan x="27.7" y="260.98">h</tspan><tspan class="cls-12" x="33.87" y="260.98">a</tspan><tspan class="cls-20" x="38.98" y="260.98">n</tspan><tspan x="45.19" y="260.98">t</tspan></text></g></g></svg>