<svg xmlns="http://www.w3.org/2000/svg" viewBox="0 0 50.68 50.68"><defs><style>.cls-1{fill:none;stroke:#f8d069;stroke-miterlimit:10;stroke-width:2px;}.cls-2{fill:#1f334a;}</style></defs><title>singer</title><g id="图层_2" data-name="图层 2"><g id="图层_1-2" data-name="图层 1"><circle class="cls-1" cx="25.34" cy="25.34" r="24.34"/><path class="cls-2" d="M41.84,42.43l.32-.26a3.09,3.09,0,0,0,0-.55,12.18,12.18,0,0,0-.8-4A22.16,22.16,0,0,0,33.26,27a2.73,2.73,0,0,0-1.14-.54c-.17,0-.12-.14-.12-.24,0-.49,0-1-.05-1.48,0-.16.07-.44-.19-.42s-.16.28-.16.44A13.83,13.83,0,0,1,31.31,28a4.88,4.88,0,0,0-.12.55.24.24,0,0,0,.16.3c.14,0,.21-.07.26-.18a1.58,1.58,0,0,0,.09-.31A8.63,8.63,0,0,0,31.94,27c0-.35.08-.38.4-.22l.63.39c.22.14.25.29.1.52A7.53,7.53,0,0,1,29.37,31a8.49,8.49,0,0,1-2.67.56c-.1,0-.27.08-.23-.16.1-.6,0-1.2.08-1.8a1.53,1.53,0,0,0-.62-1.54c-.15-.11-.13-.21,0-.32A8.3,8.3,0,0,1,27,27c1.28-.78,2.64-1.42,3.93-2.18a3,3,0,0,0,.42-.27c.08-.06.18-.13.13-.25s-.17-.1-.27-.07-.28.09-.41.15L29.52,25c-.08,0-.21.15-.2-.06a2.13,2.13,0,0,1,.29-1.21,8.56,8.56,0,0,0,1.77-4c0-.06,0-.16.08-.13.4.15.22-.18.26-.32a6.36,6.36,0,0,1-.08-1.15c0-.95.07-1.89.12-2.84,0-.1,0-.2,0-.3s0-.17-.13-.18-.09.1-.13.15l-.09.43c-.26,1.43-.23,2.89-.39,4.33a2.32,2.32,0,0,1-.05.38,9.33,9.33,0,0,1-1.79,3.45,5,5,0,0,1-2.95,1.73,5.55,5.55,0,0,1-1.82.07c-.12,0-.25-.05-.36,0a5,5,0,0,0,5-1,1.07,1.07,0,0,1-.83,1.33l-.08,0a9.24,9.24,0,0,0-2.32,1.65c-.21.24-.29.2-.48,0a10.62,10.62,0,0,0-2.86-2.27.77.77,0,0,1-.45-.64c.48.2.91.59,1.54.36l-.67-.36a5.79,5.79,0,0,1-3.29-5.43,17.66,17.66,0,0,0-.28-2.6c-.12-.81-.62-1.47-.69-2.3a5.49,5.49,0,0,1,.26-2.69A4.54,4.54,0,0,1,21.66,8.8a13.22,13.22,0,0,1,3.45-.75,5.32,5.32,0,0,1,2.38.12,7,7,0,0,1,2.8,1.59,2.85,2.85,0,0,1,.73.87,4.65,4.65,0,0,1,.59,1.81c0,.11,0,.23.16.23s.16-.15.15-.26a6,6,0,0,0-.09-1.13,10.54,10.54,0,0,0-.94-2.66,5.37,5.37,0,0,0-3.71-2.87,9.59,9.59,0,0,0-2.88,0A5.93,5.93,0,0,0,20,7.82a7.7,7.7,0,0,0-1.66,3.24,9.77,9.77,0,0,0-.15,2.64,3.07,3.07,0,0,0,.24,1.4c.09.11,0,.24.07.36a12.21,12.21,0,0,1,.51,2.4,1.48,1.48,0,0,1,0,.47.4.4,0,0,1-.36.29c-.15,0-.19-.11-.19-.23a4.29,4.29,0,0,0-.59-1.84,1.64,1.64,0,0,1-.22-.81c0-.13-.06-.3.09-.37s.24.05.34.12.17.15.3.14.09-.23,0-.33l-.07-.07a.66.66,0,0,0-.73-.29c-.31.08-.29.37-.31.62a2.47,2.47,0,0,0,.27,1.19,4.26,4.26,0,0,1,.51,1.8.62.62,0,0,0,.78.6A2.07,2.07,0,0,0,19.2,19a6.68,6.68,0,0,0,.22,1.29,5.52,5.52,0,0,0,2,3.82,1.13,1.13,0,0,1,.34.79c-.22-.13-.47-.09-.58-.36s-.2-.08-.29,0a.78.78,0,0,0-.21.35,6.48,6.48,0,0,0-.43,1.9c0,.17-.06.42.17.44s.2-.24.21-.41a6.15,6.15,0,0,1,.44-1.93c.13.07.26.12.37.19s.53.16.51.54c0,.1.15.18.2.08.15-.3.29-.1.42,0,.3.2.6.41.88.63.91.73,1.63,1.64,2.46,2.45a.58.58,0,0,1,.13.44c0,.7,0,1.41,0,2.12,0,.21,0,.23-.23.21a6.67,6.67,0,0,1-3.1-1.33A9,9,0,0,1,19.78,27a3.19,3.19,0,0,1-.3-.85c0-.09,0-.22-.15-.2s-.13.14-.12.25a1.37,1.37,0,0,0,0,.19,4.15,4.15,0,0,0,.46,1.23,9.52,9.52,0,0,0,3.54,3.61,6.3,6.3,0,0,0,5.52.62c.22-.07.43-.16.71-.26-.06.09-.08.12-.1.13a13.61,13.61,0,0,1-5.17,3.15,1.48,1.48,0,0,1-1.25-.11,15.14,15.14,0,0,1-4.67-4,11,11,0,0,1-1.75-3c-.09-.26-.05-.4.17-.53.44-.29.87-.61,1.32-.88a6.54,6.54,0,0,1,1.6-.87c.11,0,.24-.06.21-.21s-.15-.16-.26-.16a1.31,1.31,0,0,0-.7.21,21.45,21.45,0,0,0-2.24,1.39c-.42.31-.42.31-.54-.23,0,0,0,0-.08,0-.11.37.12.73,0,1.09,0,0,.06.09.14.11s.12.18.13.29-.09.07-.14.07a2.43,2.43,0,0,0-1.45.46,19.67,19.67,0,0,0-2.79,2A26.89,26.89,0,0,0,5.59,38c.09.13.18.28.26.42a27.12,27.12,0,0,1,8.67-9.52,5.45,5.45,0,0,1,1.16-.64c.56-.21.65-.17.88.37a.36.36,0,0,1,0,.09A13.93,13.93,0,0,0,22.32,35c.1.05.23.07.27.2a3.26,3.26,0,0,1-1.52,0c-.43-.09-.92-.07-1.23-.51-.08-.11-.56,0-.59.09-.15.61-.49.79-1.05.58-.15,0-.29-.12-.43-.18a.28.28,0,0,1-.2-.27.33.33,0,0,0-.44-.3.82.82,0,0,0-.47,1c.13.26.62.37.73.12.19-.43.37-.16.58-.06s.24.11.37.15.18.11.1.27A9.47,9.47,0,0,0,18,37a.26.26,0,0,1-.33.19,3.17,3.17,0,0,1-.44-.12c-.16-.05-.31-.12-.28-.35a.35.35,0,0,0-.26-.46c-.23-.06-.82.05-.86.19a.89.89,0,0,0,0,.7.47.47,0,0,0,.57.21.81.81,0,0,1,.85.11.68.68,0,0,0,.2.07c.27,0,.25.14.18.35a22.81,22.81,0,0,0-1,6.62,1.34,1.34,0,0,0,.4,1.09c0-.31.09-.61.1-.91a28.14,28.14,0,0,1,.49-4.58,14.52,14.52,0,0,1,1.24-3.93c.17-.33.38-.65.57-1,.09-.16.19-.17.35-.08a4.48,4.48,0,0,0,3,.47A2.61,2.61,0,0,1,24,35.56a.33.33,0,0,0,.35-.15c.09-.11.18-.24.3-.28a14,14,0,0,0,4.84-3,17.47,17.47,0,0,1,1.43-1.3,9,9,0,0,0,2.6-2.87c.11-.2.19-.21.36-.06a22,22,0,0,1,7.63,12A9.19,9.19,0,0,1,41.84,42.43Z"/><path class="cls-2" d="M40.42,18.44V21c0,.17-.06.33-.22.37s-.51.14-.71-.06a1.11,1.11,0,0,1-.4-.75c0-.55.12-.8.66-.9.11,0,.16-.07.17-.18,0-.63.06-1.26.08-1.89,0-.22-.14-.13-.24-.1l-1.15.36a2.55,2.55,0,0,1-.91.1c-.16,0-.23,0-.23.21a29.18,29.18,0,0,0-.08,3,.79.79,0,0,1-1.17.82c-.27-.12-.36-.37-.28-.78a.67.67,0,0,1,.65-.64c.25,0,.29-.08.3-.29,0-.87.19-1.74.21-2.61,0-.32.1-.38.36-.21a.43.43,0,0,0,.35,0,10.78,10.78,0,0,0,1.86-.56c.51-.16.72,0,.75.53l.06.85v.22Z"/><path class="cls-2" d="M32.34,18.12c-.09.16-.11.36-.31.45a.25.25,0,0,1-.33-.08c-.09-.11,0-.2.07-.27a.51.51,0,0,0,.16-.39c0-.28,0-.57.05-.85a.83.83,0,0,1,.3-.63,2,2,0,0,0,.57-1.63c0-.17-.11-.17-.24-.17a2.63,2.63,0,0,0-.8.28c-.15.05,0,.33-.14.49,0-.1,0-.2,0-.31s-.1-.11-.18,0c.05-.36.1-.73.16-1.09,0-.06,0-.14.09-.14s.1.09.1.16c0,.23,0,.46,0,.73a2,2,0,0,1,.77-.42c.42-.09.64.06.65.5a2.21,2.21,0,0,1-.67,2,.36.36,0,0,0-.13.28Z"/><path class="cls-2" d="M29.59,14.74A3.46,3.46,0,0,0,28,14.65a2.54,2.54,0,0,0-1,.28c-.05,0-.1.07-.16,0a.19.19,0,0,1,0-.18.46.46,0,0,1,.26-.25,3.66,3.66,0,0,1,2.79-.23.23.23,0,0,1,.18.29C30,14.7,29.87,14.76,29.59,14.74Z"/><path class="cls-2" d="M16.59,19.38a1.64,1.64,0,0,1-.32-.14,10.9,10.9,0,0,1-2-1.77c-.06-.06-.11-.14,0-.22s.15,0,.22,0a3.8,3.8,0,0,1,.78.55,5.44,5.44,0,0,0,1.6,1.1.2.2,0,0,1,.12.29C16.88,19.35,16.78,19.4,16.59,19.38Z"/><path class="cls-2" d="M28.74,16.91a3.66,3.66,0,0,1-1.09-.18c-.12-.05-.31-.07-.27-.24s.21-.09.32-.08a3.22,3.22,0,0,0,2.13-.33.25.25,0,0,1,.38.14.27.27,0,0,1-.15.39A4,4,0,0,1,28.74,16.91Z"/><path class="cls-2" d="M23.55,15.12a8.05,8.05,0,0,0-1.35-.33,7.59,7.59,0,0,0-1.07-.08c-.09,0-.2,0-.22-.09s.08-.18.19-.21a3.47,3.47,0,0,1,1.16-.06,4.39,4.39,0,0,1,1.38.27.25.25,0,0,1,.19.31C23.8,15.08,23.68,15.11,23.55,15.12Z"/><path class="cls-2" d="M25.2,17.11c0,.41-.05.82-.09,1.22a.55.55,0,0,0,.14.49.65.65,0,0,1,.2.35c0,.13,0,.25-.11.32s-.26,0-.34-.12a1.26,1.26,0,0,1-.27-1.16,5.21,5.21,0,0,0,.17-1.53c0-.12,0-.27.15-.26s.12.14.13.24,0,.3,0,.45Z"/><path class="cls-2" d="M22.7,16.9a2.33,2.33,0,0,1-1.44-.44c-.06-.05-.16-.1-.12-.19s.14-.11.24-.08a3.74,3.74,0,0,0,1.88.13.24.24,0,0,1,.29.22.26.26,0,0,1-.2.31A2,2,0,0,1,22.7,16.9Z"/><path class="cls-2" d="M14.81,20.83a6.72,6.72,0,0,0,1.5.53c.17,0,.35.1.3.32s-.25.17-.43.12A3.59,3.59,0,0,1,15,21.27C14.91,21.17,14.77,21.07,14.81,20.83Z"/><path class="cls-2" d="M22.46,8a.91.91,0,0,1,.82-.09l-.75.16A.07.07,0,0,1,22.46,8Z"/><path class="cls-2" d="M16.19,37c0-.14.1-.13.15-.17s.05-.19.17-.15,0,.1,0,.16a.17.17,0,0,1-.2.17Z"/><path class="cls-2" d="M22.46,8l.07.07a1.17,1.17,0,0,1-.64.11A.82.82,0,0,1,22.46,8Z"/><path class="cls-2" d="M17.16,35.17c0,.15,0,.26-.08.32s-.1,0-.11-.07S17.07,35.25,17.16,35.17Z"/><path class="cls-2" d="M26.43,21a1.53,1.53,0,0,0-1.51-1.27.43.43,0,0,0-.38.22,3.74,3.74,0,0,0-.41,1.74V22a1.18,1.18,0,0,0,.92,1.27,1.22,1.22,0,0,0,1.27-.89A2.67,2.67,0,0,0,26.43,21Zm-.67,1.5a.66.66,0,0,1-.62.34.72.72,0,0,1-.6-.48,2.25,2.25,0,0,1-.12-1.1,3.32,3.32,0,0,1,.07-.61.59.59,0,0,1,.94-.38,1.2,1.2,0,0,1,.59.88A2,2,0,0,1,25.76,22.54Z"/><path class="cls-2" d="M31.64,14.55l0-.4h0v.4Z"/><path class="cls-2" d="M15.1,23.33a3.51,3.51,0,0,0,1.59-.41c.15-.07,0-.29-.12-.21a3.3,3.3,0,0,1-1.47.37c-.16,0-.17.26,0,.25Z"/></g></g></svg>