<svg xmlns="http://www.w3.org/2000/svg" viewBox="0 0 167.27 46.43"><defs><style>.cls-1{fill:#e9c026;}</style></defs><title>temp_singer_queue</title><g id="图层_2" data-name="图层 2"><g id="图层_1-2" data-name="图层 1"><circle class="cls-1" cx="94.86" cy="22.26" r="5.09"/><circle class="cls-1" cx="117.3" cy="22.26" r="5.09"/><circle class="cls-1" cx="139.74" cy="22.26" r="5.09"/><circle class="cls-1" cx="162.18" cy="22.26" r="5.09"/><circle class="cls-1" cx="94.86" cy="5.09" r="5.09"/><circle class="cls-1" cx="117.3" cy="5.09" r="5.09"/><circle class="cls-1" cx="139.74" cy="5.09" r="5.09"/><circle class="cls-1" cx="162.18" cy="5.09" r="5.09"/><circle class="cls-1" cx="5.09" cy="5.09" r="5.09"/><circle class="cls-1" cx="27.53" cy="5.09" r="5.09"/><circle class="cls-1" cx="49.97" cy="5.09" r="5.09"/><circle class="cls-1" cx="72.41" cy="5.09" r="5.09"/><circle class="cls-1" cx="5.09" cy="41.34" r="5.09"/><circle class="cls-1" cx="27.53" cy="41.34" r="5.09"/><circle class="cls-1" cx="49.97" cy="41.34" r="5.09"/><circle class="cls-1" cx="72.41" cy="41.34" r="5.09"/><circle class="cls-1" cx="5.09" cy="22.26" r="5.09"/><circle class="cls-1" cx="27.53" cy="22.26" r="5.09"/><circle class="cls-1" cx="49.97" cy="22.26" r="5.09"/><circle class="cls-1" cx="72.41" cy="22.26" r="5.09"/></g></g></svg>