<svg xmlns="http://www.w3.org/2000/svg" viewBox="0 0 168.54 169.18"><defs><style>.cls-1{fill:#c42c2c;}</style></defs><title>temp_dancer_queue</title><g id="图层_2" data-name="图层 2"><g id="图层_1-2" data-name="图层 1"><circle class="cls-1" cx="5.09" cy="5.72" r="5.09"/><circle class="cls-1" cx="27.71" cy="5.72" r="5.09"/><circle class="cls-1" cx="50.34" cy="5.72" r="5.09"/><circle class="cls-1" cx="72.96" cy="5.09" r="5.09"/><circle class="cls-1" cx="94.13" cy="5.72" r="5.09"/><circle class="cls-1" cx="118.21" cy="5.72" r="5.09"/><circle class="cls-1" cx="140.56" cy="5.72" r="5.09"/><circle class="cls-1" cx="163.46" cy="5.09" r="5.09"/><circle class="cls-1" cx="5.09" cy="28.3" r="5.09"/><circle class="cls-1" cx="27.71" cy="28.3" r="5.09"/><circle class="cls-1" cx="50.34" cy="28.3" r="5.09"/><circle class="cls-1" cx="72.96" cy="27.66" r="5.09"/><circle class="cls-1" cx="94.13" cy="28.3" r="5.09"/><circle class="cls-1" cx="118.21" cy="28.3" r="5.09"/><circle class="cls-1" cx="140.56" cy="28.3" r="5.09"/><circle class="cls-1" cx="163.46" cy="27.66" r="5.09"/><circle class="cls-1" cx="5.09" cy="50.87" r="5.09"/><circle class="cls-1" cx="27.71" cy="50.87" r="5.09"/><circle class="cls-1" cx="50.34" cy="50.87" r="5.09"/><circle class="cls-1" cx="72.96" cy="50.23" r="5.09"/><circle class="cls-1" cx="94.13" cy="50.87" r="5.09"/><circle class="cls-1" cx="118.21" cy="50.87" r="5.09"/><circle class="cls-1" cx="140.56" cy="50.87" r="5.09"/><circle class="cls-1" cx="163.46" cy="50.23" r="5.09"/><circle class="cls-1" cx="5.09" cy="73.44" r="5.09"/><circle class="cls-1" cx="27.71" cy="73.44" r="5.09"/><circle class="cls-1" cx="50.34" cy="73.44" r="5.09"/><circle class="cls-1" cx="72.96" cy="72.8" r="5.09"/><circle class="cls-1" cx="94.13" cy="73.44" r="5.09"/><circle class="cls-1" cx="118.21" cy="73.44" r="5.09"/><circle class="cls-1" cx="140.56" cy="73.44" r="5.09"/><circle class="cls-1" cx="163.46" cy="72.8" r="5.09"/><circle class="cls-1" cx="5.09" cy="96.01" r="5.09"/><circle class="cls-1" cx="27.71" cy="96.01" r="5.09"/><circle class="cls-1" cx="50.34" cy="96.01" r="5.09"/><circle class="cls-1" cx="72.96" cy="95.37" r="5.09"/><circle class="cls-1" cx="94.13" cy="96.01" r="5.09"/><circle class="cls-1" cx="118.21" cy="96.01" r="5.09"/><circle class="cls-1" cx="140.56" cy="96.01" r="5.09"/><circle class="cls-1" cx="163.46" cy="95.37" r="5.09"/><circle class="cls-1" cx="5.09" cy="118.58" r="5.09"/><circle class="cls-1" cx="27.71" cy="118.58" r="5.09"/><circle class="cls-1" cx="50.34" cy="118.58" r="5.09"/><circle class="cls-1" cx="72.96" cy="117.95" r="5.09"/><circle class="cls-1" cx="94.13" cy="118.58" r="5.09"/><circle class="cls-1" cx="118.21" cy="118.58" r="5.09"/><circle class="cls-1" cx="140.56" cy="118.58" r="5.09"/><circle class="cls-1" cx="163.46" cy="117.95" r="5.09"/><circle class="cls-1" cx="5.09" cy="141.15" r="5.09"/><circle class="cls-1" cx="27.71" cy="141.15" r="5.09"/><circle class="cls-1" cx="50.34" cy="141.15" r="5.09"/><circle class="cls-1" cx="72.96" cy="140.52" r="5.09"/><circle class="cls-1" cx="94.13" cy="141.15" r="5.09"/><circle class="cls-1" cx="118.21" cy="141.15" r="5.09"/><circle class="cls-1" cx="140.56" cy="141.15" r="5.09"/><circle class="cls-1" cx="163.46" cy="140.52" r="5.09"/><circle class="cls-1" cx="5.09" cy="163.72" r="5.09"/><circle class="cls-1" cx="27.71" cy="163.72" r="5.09"/><circle class="cls-1" cx="50.34" cy="163.72" r="5.09"/><circle class="cls-1" cx="72.96" cy="164.09" r="5.09"/><circle class="cls-1" cx="94.13" cy="163.72" r="5.09"/><circle class="cls-1" cx="118.21" cy="163.72" r="5.09"/><circle class="cls-1" cx="140.56" cy="163.72" r="5.09"/><circle class="cls-1" cx="163.46" cy="163.09" r="5.09"/></g></g></svg>