<svg xmlns="http://www.w3.org/2000/svg" viewBox="0 0 386.75 242.27"><defs><style>.cls-1{opacity:0.8;}.cls-2{fill:#72695e;}.cls-3{fill:#231f20;}.cls-4{fill:#1b3046;}.cls-5{fill:#f8d069;}.cls-6{fill:#f7c768;}.cls-7{fill:#174076;}.cls-8{fill:#fff;}.cls-9{fill:#c42c2c;}.cls-10{fill:#dd9eb2;}.cls-11{fill:#026258;}.cls-12{fill:#1c3148;}.cls-13{fill:#1c3047;}.cls-14{fill:#20344b;}.cls-15{fill:#ef7903;}.cls-16{fill:#1d3248;}.cls-17{fill:#23374e;}.cls-18{fill:#293d53;}.cls-19{fill:#3c3140;}.cls-20{fill:#1e3249;}.cls-21{fill:#23364a;}.cls-22{fill:#25394f;}.cls-23{fill:#28394b;}.cls-24{fill:#1e3349;}.cls-25{fill:#779fbe;}</style></defs><title>temp_material</title><g id="图层_2" data-name="图层 2"><g id="图层_1-2" data-name="图层 1"><g class="cls-1"><path class="cls-2" d="M247.38,200.18a1.34,1.34,0,1,1-1.34-1.34A1.34,1.34,0,0,1,247.38,200.18Z"/></g><g class="cls-1"><path class="cls-2" d="M247.38,202.5a1.34,1.34,0,1,1-2.67,0,1.34,1.34,0,0,1,2.67,0Z"/></g><path class="cls-3" d="M209.44,63.53l.05,0-.05,0Z"/><path class="cls-4" d="M346.08,59.36c0-1.77.13-3.56-.76-5.31-.2,1.82-.42,3.65-.6,5.48a.64.64,0,0,0,.67.77C345.93,60.27,346.08,59.82,346.08,59.36Z"/><path class="cls-4" d="M345.37,61.57c-.79,0-.52,1.06-.54,1.67s-.21,1.36.65,1.31c.7,0,.48-.8.5-1.38C345.8,62.65,346.21,61.57,345.37,61.57Z"/><path class="cls-4" d="M345.73,67h0l-5.17,0-.29,0a3.18,3.18,0,0,0,.48.28,18.12,18.12,0,0,0,4.88.06,17.08,17.08,0,0,1,4-.23,5.26,5.26,0,0,0,.85-.09h0Z"/><path class="cls-4" d="M347.41,68a17.82,17.82,0,0,1-2.31-.06,2.83,2.83,0,0,0-2,.2c.92,0,1.84,0,2.75,0a6.87,6.87,0,0,0,1.81-.17A2.43,2.43,0,0,1,347.41,68Z"/><path class="cls-4" d="M353.52,28.77c-1.31,3.6-.64,7.36-1.46,10.94-1.11,4.84-3,9.3-6.69,12.74a10.07,10.07,0,0,0-2.72,3.41,13.79,13.79,0,0,0-.39,10.82c-1.77.16-3.47-.18-5.12.29a42.31,42.31,0,0,1,4.91-.12h.24c.27-.21.22-.61,0-1.41a11.2,11.2,0,0,1-.48-4.57,12.76,12.76,0,0,1,4.13-8.44c3.72-3.35,5.44-8,6.55-12.83.73-3.13.28-6.37,1-9.49.37-1.51,0-1.89-1.61-1.84a1.71,1.71,0,0,0-1.35.4l.18.15A6.75,6.75,0,0,1,353.52,28.77Z"/><path class="cls-4" d="M347.34,66.85A.88.88,0,0,1,347,67c.32,0,.73,0,.72.44s-.46.43-.78.42a8.17,8.17,0,0,1-2.14-.16c-.68-.2-1.44-.38-1.92.44a2.8,2.8,0,0,1,2-.2,18,18,0,0,0,2.32.06,2.43,2.43,0,0,0,.27,0,1.43,1.43,0,0,0,.41-.21.61.61,0,0,0,.09-.39C347.91,67,347.66,66.86,347.34,66.85Z"/><path class="cls-4" d="M347.74,66.85a42.31,42.31,0,0,0-4.91.12h0c1.59,0,3.18,0,4.76,0h0a.88.88,0,0,0,.35-.15Z"/><path class="cls-4" d="M241.3,55.65a49.7,49.7,0,0,0,8.16.4,2.47,2.47,0,0,1,1.44.27,3.8,3.8,0,0,0,.42-.57C247.92,55.55,244.53,55.77,241.3,55.65Z"/><path class="cls-4" d="M245.86,56.32a1.17,1.17,0,0,1,.24.21,1,1,0,0,0,.66-.75l-.49,0A4.57,4.57,0,0,1,245.86,56.32Z"/><path class="cls-4" d="M251.72,56.32a2.47,2.47,0,0,0-1.44-.27,49.7,49.7,0,0,1-8.16-.4c3.23.12,6.62-.1,10,.1a2.29,2.29,0,0,0,.14-.27,3.83,3.83,0,0,0-2.45-.33c-2.84.07-5.69,0-8.53,0-.36,0-.91-.09-.94.41s.57.56,1,.59a74.06,74.06,0,0,0,10.21.39l.13-.15Z"/><path d="M30.55,93.07c-1.05.17-1.16.26-1.16,1.42v1.43a10.12,10.12,0,0,0,.11,1.74,24,24,0,0,1-4.27.61c-4.18,0-6.63-2.56-6.63-6.15,0-4,3.23-6.08,7-6.08a23.55,23.55,0,0,1,3.68.43c0,.75.16,2,.29,3.06l-.65.12A3.28,3.28,0,0,0,26.73,87a5.74,5.74,0,0,0-1.58-.22c-2.38,0-4.07,1.89-4.07,5.06s1.25,5.68,4.39,5.68a2.74,2.74,0,0,0,1.28-.27c.31-.18.49-.45.49-1.07V94.65c0-1.28-.22-1.42-1.81-1.58v-.61h5.12Z"/><path d="M36.23,89.82a4,4,0,0,1,4.07,4.06,4.15,4.15,0,1,1-8.29.23A4.21,4.21,0,0,1,36.23,89.82ZM36,90.5c-.89,0-1.73.9-1.73,3.07s.83,4,2.09,4c.83,0,1.64-.59,1.64-3.16C38,92,37.3,90.5,36,90.5Z"/><path d="M41.31,98v-.57c1.07-.15,1.14-.24,1.14-1.39V87.7c0-1-.1-1.11-1.11-1.28v-.54a16,16,0,0,0,3.12-.62V96c0,1.19.07,1.27,1.15,1.39V98Z"/><path d="M55.63,97.54a26,26,0,0,0-3.27.69V97.14c-.32.21-.78.47-1.1.68a2.25,2.25,0,0,1-1.08.4,3.84,3.84,0,0,1-3.59-4,4.64,4.64,0,0,1,4.88-4.41,3.27,3.27,0,0,1,.89.11V87.65c0-1-.1-1.09-1.27-1.22v-.55a22,22,0,0,0,3.29-.62V95.79c0,1,.12,1.07.8,1.14l.45,0Zm-3.27-6a1.67,1.67,0,0,0-1.54-.91c-.66,0-2,.45-2,3.06,0,2.29,1.33,3.26,2.26,3.27a2.19,2.19,0,0,0,1.26-.42Z"/><path d="M227.09,93.89c-.13.7-.65,2.6-.82,3.11h-8.73v-.61c1.6-.13,1.74-.24,1.74-1.76v-7c0-1.52-.18-1.64-1.56-1.76V85.3h5.34v.61c-1.41.13-1.6.24-1.6,1.76v7.11c0,1,.07,1.41,1.08,1.42l1.1,0a1.8,1.8,0,0,0,1.69-.65,7.05,7.05,0,0,0,1.12-1.87Z"/><path d="M235.27,95.32a4.09,4.09,0,0,1-3.19,1.9,3.65,3.65,0,0,1-3.69-3.91,4.7,4.7,0,0,1,1.29-3.21,3.91,3.91,0,0,1,2.76-1.28,2.9,2.9,0,0,1,2.9,2.89c0,.32,0,.58-.28.64s-2.81.22-4.69.29c0,2.09,1.23,3.07,2.52,3.07a3.13,3.13,0,0,0,2.07-.85Zm-3.21-5.78c-.76,0-1.44.82-1.6,2.26.83,0,1.63,0,2.49-.06.28,0,.39-.06.39-.36C233.36,90.46,232.87,89.54,232.06,89.54Z"/><path d="M242.31,97.22a1.52,1.52,0,0,1-1-.37,1.64,1.64,0,0,1-.46-.72,6.11,6.11,0,0,1-2,1.09,2.32,2.32,0,0,1-2.36-2.29c0-.93.45-1.41,1.42-1.78A14.57,14.57,0,0,0,240.77,92v-.64c0-1-.45-1.65-1.28-1.65a.92.92,0,0,0-.76.38,3.54,3.54,0,0,0-.45,1.18.64.64,0,0,1-.69.54,1,1,0,0,1-1-.88c0-.3.22-.53.62-.81A8.58,8.58,0,0,1,240,88.82a2.87,2.87,0,0,1,1.73.51,2.45,2.45,0,0,1,1,2.17v3.24c0,.85.29,1.08.59,1.08a1.27,1.27,0,0,0,.59-.16l.2.57Zm-1.54-4.55c-.35.19-.86.44-1.24.63-.6.29-1,.62-1,1.26a1.26,1.26,0,0,0,1.17,1.37,1.48,1.48,0,0,0,1-.41Z"/><path d="M248.29,97a2,2,0,0,1-.74.21c-1.31,0-2.06-.67-2.06-2.24v-5.1h-1.18l-.1-.22.51-.62h.77v-1.5c.52-.41,1.27-1,1.8-1.36l.25.11c0,.58,0,1.57,0,2.75h1.89a.71.71,0,0,1-.13.84H247.5v4.48c0,1.43.57,1.62,1,1.62a2.49,2.49,0,0,0,.95-.21l.17.58Z"/><path d="M255.3,97v-.57c.88-.12,1-.24,1-1.29V92.05c0-1.42-.58-2-1.46-2a2.13,2.13,0,0,0-1.52.67v4.41c0,1,.11,1.17,1,1.29V97h-4.15v-.57c.93-.11,1.12-.17,1.12-1.33V86.64c0-.87-.09-1.08-1.16-1.22v-.54a14.94,14.94,0,0,0,3.17-.62V90a3.87,3.87,0,0,1,2.49-1.22c1.54,0,2.51,1,2.51,3V95.1c0,1.16.13,1.2,1.06,1.33V97Z"/><path d="M267.29,95.32a4.08,4.08,0,0,1-3.19,1.9,3.65,3.65,0,0,1-3.69-3.91,4.7,4.7,0,0,1,1.29-3.21,3.91,3.91,0,0,1,2.76-1.28,2.9,2.9,0,0,1,2.9,2.89c0,.32,0,.58-.28.64s-2.8.22-4.69.29c0,2.09,1.24,3.07,2.53,3.07a3.11,3.11,0,0,0,2.06-.85Zm-3.21-5.78c-.76,0-1.44.82-1.6,2.26.83,0,1.63,0,2.49-.06.28,0,.39-.06.39-.36C265.38,90.46,264.89,89.54,264.08,89.54Z"/><path d="M273,97h-4.54v-.57c1-.11,1.12-.2,1.12-1.31V91.24c0-1-.08-1.08-1-1.24v-.52a14.56,14.56,0,0,0,3-.7v2c.75-1.14,1.44-1.92,2.23-1.92a1,1,0,0,1,1.13,1,1.58,1.58,0,0,1-.81,1.34.45.45,0,0,1-.53-.07c-.29-.26-.52-.51-.83-.51s-.84.35-1.19,1.11v3.41c0,1.12.12,1.18,1.42,1.32Z"/><path class="cls-5" d="M38.5,77A38.5,38.5,0,1,1,77,38.5,38.54,38.54,0,0,1,38.5,77Zm0-74A35.5,35.5,0,1,0,74,38.5,35.54,35.54,0,0,0,38.5,3Z"/><path class="cls-4" d="M24.76,29.38c2.78,2.43,5.58,4.85,8.34,7.3s5.67,4.57,8.23,7.18c.37.38.75.3,1.26.2,2.47-.47,5-.86,7.45-1.29a32,32,0,0,1,4.38-1.32h0c1.1-.38,2.21-.75,3.3-1.15a1.13,1.13,0,0,0,.64-1.87c-1.31-2.16-2.25-4.51-3.51-6.69-.48-.83-.57-1.82-1.45-2.52C48.1,25,42.72,20.89,37.13,17.07a5.54,5.54,0,0,0-2.42-1.27v0a.35.35,0,0,1-.05.08c-.15,1,.81,1.3,1.38,1.74,4.72,3.62,9.32,7.39,14.07,11a9.9,9.9,0,0,1,2.67,2.46,24.52,24.52,0,0,0-4.58,1.22c-2.18,1-3.68.25-5.31-1.26-3.71-3.42-7.43-6.85-11.38-10-1.1-.88-2.26-1.69-3.45-2.67,1.91-.61,3.63-1.22,5.37-1.77a1.94,1.94,0,0,0,1.23-.67s0-.08,0-.12h0c-.07-.87-.58-.91-1.27-.68l-7,2.3a1,1,0,0,0-.61.53c-1.25,2.41-2.48,4.82-3.71,7.23a1,1,0,0,0,0,1.16A21.88,21.88,0,0,0,24.76,29.38Zm24.91,4.11a9.54,9.54,0,0,0,2.58-.57c1.47-.53,2.22,0,2.7,1.39s1.17,2.85,1.82,4.24c.23.48.29.69-.32.89A115.66,115.66,0,0,1,43.32,43c.67-2.4,2-4.29,2.58-6.42A3.65,3.65,0,0,1,49.67,33.49ZM23.72,24.43c.74-1.62,1.58-3.18,2.27-4.81.4-.93.73-.8,1.35-.24q6,5.46,12.11,10.88c1.47,1.31,3,2.56,4.48,3.83.48.42,1,.9,1.78.52l-3.87,7.82c-.3.07-.48-.26-.7-.45-5.41-4.84-11.06-9.38-16.63-14C22.77,26.52,22.78,26.47,23.72,24.43Z"/><path class="cls-4" d="M34.66,15.91a.35.35,0,0,0,.05-.08v0h0S34.67,15.87,34.66,15.91Z"/><path class="cls-4" d="M30.86,61a1.93,1.93,0,0,0,1.61.28c4.7-1.53,9.54-2.65,14.17-4.43.62-.23,1-.52.53-1.22a81.27,81.27,0,0,0-4.53-7.25,1.38,1.38,0,0,0-1.79-.51,61.47,61.47,0,0,0-5.73,2.27C34,50.6,33,51,32,49.79a5.3,5.3,0,0,0-1.24-.93c-5.87-4-11-9-17.1-13.26l6.88-3.45c.44-.22,1.2-.36.89-1s-.93-.2-1.37,0c-2.09,1-4.16,2.11-6.25,3.16a2.24,2.24,0,0,0-1.15,1.18c-.93,2.5-2.42,4.72-3.5,7.15-.33.77-.44,1.21.34,1.74a59.37,59.37,0,0,1,6.53,5.31A89.84,89.84,0,0,0,30.86,61Zm3-8.4a2,2,0,0,1,1.44-1.65c1.91-.6,3.81-1.27,5.68-2a.87.87,0,0,1,1.31.51c1,1.92,1.95,3.83,3,5.72.39.71.34,1-.52,1.22-3.64,1-7.3,2-10.86,3.28l-2.55.92C32.72,57.93,33.08,55.18,33.84,52.56ZM10.3,43.3c1.12-2.25,2.13-4.56,3.27-7l7.88,7A54.48,54.48,0,0,0,31.92,51c1,.52,1.12,1.1.73,2.11A49.3,49.3,0,0,0,31,58.42c-.27,1.08-.62.93-1.37.46A91.75,91.75,0,0,1,18.24,50.2a73.11,73.11,0,0,0-7.6-6C10.3,44,10,43.9,10.3,43.3Z"/><path class="cls-4" d="M63.41,44.54c-.69-1.21-1.44-1.21-2.62-.95-2.55.57-4.86,1.94-7.52,2.07-.35,0-.49.42-.59.73-1,3.4-2.69,6.56-3.49,10-.32,1.4-.09,1.74,1.28,1.38,3.65-1,7.29-2,10.93-3,2-.54,3.94-1,5.74-1.52.59.25,1,.19,1.16-.2s-.11-.83-.31-1.15C66.47,49.46,64.84,47.06,63.41,44.54Zm2,7.85a139.18,139.18,0,0,0-14.69,4.42c.48-2.66,1.61-5,2.12-7.4a3.5,3.5,0,0,1,3.42-3.19A33.18,33.18,0,0,0,61.38,45c.77-.22,1.09.06,1.41.68,1,1.9,2,3.81,3.07,5.66C66.27,52,66.13,52.18,65.37,52.39Z"/><path class="cls-4" d="M67.73,24.26c-1.8-.36-3.68-.61-4.09-3-.06-.38-.19-1.05-.78-1s-.49.69-.55,1a3.14,3.14,0,0,1-3.11,2.79,6.81,6.81,0,0,0-1.47.4c-.38.15-.83.31-.86.82s.49.62.85.75c2.51.91,4.36,2.37,4.52,5.28a1.35,1.35,0,0,0,.24.64c.09.15.28.23.4.32a.85.85,0,0,0,.75-.61,8.83,8.83,0,0,0,.69-2.11c.13-1.92,1.46-2.64,2.94-3.29.26-.11.51-.22.76-.35.41-.21.92-.43.88-1S68.25,24.36,67.73,24.26ZM63,30c-.5-2.14-1.29-3.86-3.61-4.42,1.81-.61,3.65-.89,3.51-3.45.19,2.32,2.18,2.33,3.72,3.1C64.57,26.2,62.94,27.38,63,30Z"/><polygon class="cls-6" points="7.33 18.59 16.8 18.59 21.54 10.38 16.8 2.18 7.33 2.18 2.59 10.38 7.33 18.59"/><path d="M12.52,6c.29.43.51.74.66.94l.91,1.22c.27.39.46.64.57.77a2.09,2.09,0,0,1,.22.31.45.45,0,0,1,0,.2.38.38,0,0,1-.06.13.14.14,0,0,1-.15.06c-.16,0-.42-.26-.76-.79l-.79-1.06-.89-1.27-.43-.57c-.17.26-.34.51-.48.74l-.3.46c-.06.07-.24.33-.55.76l-.63.85a8,8,0,0,1-.71.88.63.63,0,0,1-.29.11c-.12,0-.16-.07-.13-.27A1.1,1.1,0,0,1,9,9l.85-1.1.48-.62c.05-.07.18-.25.37-.54L11.21,6a5.28,5.28,0,0,0,.32-.45.77.77,0,0,1,.18-.25.28.28,0,0,1,.17-.07q.09,0,.24.21Zm-.38,6.7c0,.24,0,.63,0,1.17s0,.84,0,.88l0,.85c.66,0,1.21,0,1.66,0a3.31,3.31,0,0,1,.78.07.19.19,0,0,1,.13.13.18.18,0,0,1-.06.17.37.37,0,0,1-.19.09,1.87,1.87,0,0,1-.34,0l-.84,0-1.86,0-1.19,0c-.48,0-.78,0-.89,0a.38.38,0,0,1-.24,0,.31.31,0,0,1-.1-.15.21.21,0,0,1,.07-.19.46.46,0,0,1,.17-.1,1.37,1.37,0,0,1,.53-.05c.25,0,.88,0,1.88,0V14.06c0-1,0-1.59,0-1.75l0-.66v-.29c-.27,0-.47,0-.6,0l-.53,0-.54,0a.5.5,0,0,1-.32-.05.37.37,0,0,1-.08-.18.17.17,0,0,1,.1-.18A.48.48,0,0,1,9.89,11l.67,0h1.11a7.89,7.89,0,0,1,0-.81.89.89,0,0,1,.2-.58c.13-.17.43-.24.91-.24s.78.06.78.17,0,.17,0,.2a.27.27,0,0,1-.13.07,3,3,0,0,1-.51,0,1,1,0,0,0-.58.09.34.34,0,0,0-.15.22,2.86,2.86,0,0,0,0,.37v.53h1a3.13,3.13,0,0,1,.8.08c.1,0,.15.1.15.17a.18.18,0,0,1-.11.17.44.44,0,0,1-.26.07l-.85,0h-.66C12.13,12,12.14,12.41,12.14,12.65Zm-2.12,2,.17-.49c.06-.21.11-.42.15-.64a2.78,2.78,0,0,0,0-.71,1.4,1.4,0,0,1,0-.54c0-.11.09-.16.17-.16a.18.18,0,0,1,.16.11,1.21,1.21,0,0,1,.07.38,4.8,4.8,0,0,1,0,.64c0,.34-.08.61-.12.82a3.4,3.4,0,0,1-.23.65c-.11.23-.2.31-.28.24S10,14.84,10,14.8A.62.62,0,0,1,10,14.67Zm2.76-6.12a8.35,8.35,0,0,0-1.52,0,.92.92,0,0,1-.58,0q-.19-.09-.18-.21a.21.21,0,0,1,.07-.14.46.46,0,0,1,.29-.12A10.84,10.84,0,0,1,12,8.06h.78c.19,0,.3,0,.34.12a.24.24,0,0,1,0,.18A.29.29,0,0,1,13,8.5.49.49,0,0,1,12.78,8.55ZM13.11,13V12.6a1.34,1.34,0,0,1,.06-.43.24.24,0,0,1,.16-.09.21.21,0,0,1,.18.12,1.3,1.3,0,0,1,0,.38c0,.21,0,.42,0,.61a3.39,3.39,0,0,0,.07.49,1.72,1.72,0,0,0,.18.54.8.8,0,0,1,.09.44c0,.11-.08.17-.15.17s-.14,0-.21-.12a1,1,0,0,1-.16-.35,5.47,5.47,0,0,1-.16-.59A4.89,4.89,0,0,1,13.11,13Z"/><path class="cls-5" d="M140.9,77a38.5,38.5,0,1,1,38.5-38.5A38.54,38.54,0,0,1,140.9,77Zm0-74a35.5,35.5,0,1,0,35.5,35.5A35.53,35.53,0,0,0,140.9,3Z"/><path class="cls-4" d="M131.29,63.31c2,1.18,4.18,1.52,6.34,2.1a35,35,0,0,0,11.48,1.13c7-.48,13.45-7.29,10.6-15.73a21,21,0,0,0-6.5-9.08h0a1.23,1.23,0,0,1-1.19,0l-7.94-.85c-2.46.44-5,.09-7.43.56-2.86.54-2.87.47-3.84-2.3C131,33.78,131.42,27.5,136.7,23.7a11.38,11.38,0,0,0,2-2.07c1.2-1.48,2.23-3.07,1.93-5.12-.11-.75.29-.86.86-.85,1.22,0,2.44.05,3.67,0,1,0,2-.16.88-1.43-.3-.35,0-.41.08-.59,1-2.93.38-3.82-2.71-3.75h-.3c-2.59.11-2.83.38-2.6,2.93a3.73,3.73,0,0,1,0,.46c-.06.49.26,1.09-.17,1.44s-.71-.64-1.41-.34c1.17,1.95.64,3.71-.52,5.4a15.74,15.74,0,0,1-3.34,3.33,11.09,11.09,0,0,0-3.68,4.6c-1.83,4.75-1.74,9.34,1.23,13.67.16.24.71.5.32.83-.66.56-.94,1.4-1.72,1.9a12.45,12.45,0,0,0-3.47,3.61C123.91,53.49,125.33,59.74,131.29,63.31Zm10.81-52c.46,0,.92.09,1.37,0,1.08-.11,1.52.3,1.19,1.36-.17.55.18,1,.36,1.51h-1.27c-1.92.06-2.29-.37-2.3-2.35C141.45,11.26,141.77,11.29,142.1,11.28ZM128.33,49.6a12.69,12.69,0,0,1,6.45-6.22,12.29,12.29,0,0,1,5.69-1.13,41.42,41.42,0,0,1,11.91.81,2,2,0,0,1,.91.52A16.49,16.49,0,0,1,159,54.34a6.67,6.67,0,0,1-.45,3.27h0a8.49,8.49,0,0,1-2.29,4.07,7.72,7.72,0,0,1-6.37,3.41A37.21,37.21,0,0,1,141.3,65h0c-4-.29-7.79-1.27-10.88-4.11C127,57.74,126.17,53.78,128.33,49.6Z"/><path class="cls-4" d="M153.88,28.48a12.43,12.43,0,0,1,.59,12.08c-.25.16-.5.32-.75.46l-.46.64a4.57,4.57,0,0,0,3.16-3.5c.93-4.21.53-8.21-2.53-11.58a63.34,63.34,0,0,1-4.33-4.93,9.42,9.42,0,0,1-1.94-6.88,12,12,0,0,0,0-1.34,7.43,7.43,0,0,0-.54,6c.79,2.66,2.7,4.64,4.36,6.75h0C152.83,26.34,153.35,27.55,153.88,28.48Z"/><path class="cls-4" d="M154.11,40.47l-.39.55c.25-.14.5-.3.75-.46a12.43,12.43,0,0,0-.59-12.08c-.53-.93-1-2.14-2.42-2.29h0a18,18,0,0,1,1.69,1.92A12.29,12.29,0,0,1,154.11,40.47Z"/><polygon class="cls-7" points="109.77 18.59 119.25 18.59 123.99 10.38 119.25 2.18 109.77 2.18 105.03 10.38 109.77 18.59"/><path class="cls-8" d="M116.47,4.4c.14,0,.26.09.37.37s0,.48,0,.37c0,.39,0,.6,0,.64C118,6.1,118.6,7.17,118.63,9a13.61,13.61,0,0,1-.1,2.44,2.28,2.28,0,0,1-1,1.58,3.3,3.3,0,0,0-1,2c-.18.56-.37,1.16-.59,1.8a.29.29,0,0,1-.21.1.14.14,0,0,1-.1-.21c.28-2,.81-3.38,1.58-4a2,2,0,0,0,.9-1.42,12.58,12.58,0,0,0,.06-2.17c0-1.66-.45-2.54-1.22-2.65-.14,0-.23,0-.26-.1a.23.23,0,0,1-.22.1c-.88,0-1.27,1-1.16,3a4.59,4.59,0,0,0,1,2.9.31.31,0,0,1,.1.32.19.19,0,0,1-.26,0c-.82-.49-1.26-1.57-1.33-3.22V9c-.1,0-.24-.09-.42-.26a2.39,2.39,0,0,0-1.22-.8c-.14,0-.38.16-.74.48a6.92,6.92,0,0,1-1.32,1c-.17-.08-.16-.3.06-.69a9.21,9.21,0,0,1,1.32-1.11.77.77,0,0,0,.26-.53V6.47a2.8,2.8,0,0,0-1,.63,8.07,8.07,0,0,1-.69.53c-.11,0-.18,0-.21,0s0-.16,0-.27a4.78,4.78,0,0,1,1.85-1.48v-1c0-.46.11-.67.21-.64.29.11.43.39.43.85v.37a2,2,0,0,0-.06.42,4.48,4.48,0,0,1,1.59.9c.11.11.14.19.11.27A2.16,2.16,0,0,1,116,5.88c.22-.1.27-.38.16-.84A.69.69,0,0,1,116.47,4.4Zm-1.7,5.87c0,.22-.19.3-.47.27h-1a.83.83,0,0,0,.1.9,3.07,3.07,0,0,1,.06,2.8,3.92,3.92,0,0,1-2.07,2.27.29.29,0,0,1-.26,0c0-.07,0-.15,0-.26a3.22,3.22,0,0,1,.69-.69,3.73,3.73,0,0,0,1.16-1.48,2.35,2.35,0,0,0-.1-2.38,1.3,1.3,0,0,1-.27-1.16,6.81,6.81,0,0,0-.9.16c-.31.07-.46-.11-.42-.53,0-.21.12-.28.26-.21a1.51,1.51,0,0,0,.8,0,7.23,7.23,0,0,1,1.74,0C114.58,10,114.77,10.1,114.77,10.27Zm-.68-1.37c.14,0,.19.14.16.32a.26.26,0,0,1-.27.21,10.59,10.59,0,0,0-1.8.05c-.17,0-.26-.14-.26-.42s.1-.28.32-.21a2.9,2.9,0,0,0,.74,0A6.76,6.76,0,0,1,114.09,8.9Zm-.53-1.53a.84.84,0,0,1,.26.21,8.14,8.14,0,0,1,1,.74,3.94,3.94,0,0,1,.16-1.17.22.22,0,0,1-.31-.05,4.74,4.74,0,0,0-1.33-.63v.58C113.29,7.15,113.38,7.26,113.56,7.37Zm3.54-.16c.32.17.48.37.48.58a1.17,1.17,0,0,1-.11,1,.77.77,0,0,1-.47.48,2.67,2.67,0,0,1-.53,1.16.36.36,0,0,0-.06.42,1,1,0,0,0,.37.58,2.16,2.16,0,0,0,.43-1.63c.1-.15.26-.06.47.26,0,1.06-.28,1.71-.84,2a1.2,1.2,0,0,1-.9-1,1.45,1.45,0,0,1,.16-1,.76.76,0,0,0,.31-.69.86.86,0,0,1-.63-.37,1.48,1.48,0,0,1-.32-1.06,1,1,0,0,1,.42-.58A1.17,1.17,0,0,1,117.1,7.21Zm-.84.47a.48.48,0,0,0-.32.53.41.41,0,0,0,.32.42h.21q.36.06.42,0a.48.48,0,0,0,.32-.52c0-.25-.14-.39-.32-.43A1,1,0,0,0,116.26,7.68Z"/><path class="cls-5" d="M246.56,77a38.5,38.5,0,1,1,38.5-38.5A38.54,38.54,0,0,1,246.56,77Zm0-74a35.5,35.5,0,1,0,35.5,35.5A35.53,35.53,0,0,0,246.56,3Z"/><path class="cls-4" d="M223.69,41.4a9.3,9.3,0,0,0,5.69,1.31c1.5-.14,2.64-.86,2.65-2.57a.8.8,0,0,1,.68-.91A15.66,15.66,0,0,0,238.9,35a14.65,14.65,0,0,0,2-3.38,4.08,4.08,0,0,0,.23-2.1c-.11-.54-.22-1.27-.82-1.28-.78,0-.52.8-.59,1.28a9,9,0,0,1-3.56,5.5h0a14.78,14.78,0,0,1-7.92,4.17c.65.56,1.57.39,2.46.55a1.75,1.75,0,0,1-2,1.27c-.44,0-.88,0-1.32-.07-3.54-.5-4.3-1.49-3.75-5,.17-1.08.43-2.14.65-3.22a18.9,18.9,0,0,1,4.92-8.41,7.4,7.4,0,0,1,2.32-1.54c.78-.33,1.57-.71,1.83.61.1.48.54.53.93.44s.51-.53.52-.92c0-1.92.1-3.85,0-5.76,0-1.07.32-1.11,1.11-.69a9.85,9.85,0,0,1,2.76,2.3c.73.85.18,1.61.06,2.42-.08.5-.56,1.08.06,1.51.47.33.94.08,1.35-.25s.91,0,1.31.24c3.69,2.14,5,5.82,3.62,10a11.36,11.36,0,0,1-1.68,3.53h0c-1.6,3-3.73,5.32-7.25,6.22,3.2,1.16,4.59,2.31,4.57,5.12,0,3,.18,6,.33,9a4.76,4.76,0,0,0,.7,2.93,2.4,2.4,0,0,0,1-2.23c.08-2.92,0-5.83-.22-8.73-.18-2.47-.43-4.91-3.32-6.13,3.15-1.1,4.72-3.4,6.2-5.82,1.42-2.85,2.37-5.8,1.76-9.05a8.72,8.72,0,0,0-3.82-5.64c2.83-.33,12,3.12,14.94,5.55-1.76,1.64-3.53,3.27-5.27,4.92-.41.4-1.1.87-.5,1.49s1.06-.06,1.47-.47c1.49-1.47,3-2.89,4.42-4.44.75-.83,1.24-.87,2.12-.17,2.28,1.83,2.33,1.79.39,3.94-1.48,1.63-3,3.23-4.48,4.85-.44.49-1.08,1.06-.45,1.69s1.16-.11,1.55-.57c1.84-2.12,3.68-4.23,5.44-6.41.52-.64.85-.78,1.37-.11l.11.12c1.08,1.31,2.8,2.49,3.09,4s-2,2.19-3.07,3.36c-1.3,1.48-2.88,2.71-4.33,4.06-.43.41-1,.85-.49,1.51s1.1.15,1.54-.26c1.28-1.22,2.54-2.44,3.78-3.69a20.46,20.46,0,0,0,3.39-3.91A17.1,17.1,0,0,1,271,48.5c-.07.76-.44,1-1.17,1q-5.77,0-11.56.07c-.55,0-.74-.18-.82-.73a8,8,0,0,0-.55-1.53c-2.5-2.69-4.81-2.6-7.12.32-2.08,2.63-2.22,5.67-1.63,8.78.5,2.65,1.49,5.07,4.1,6.41.2-.89-.42-1.5-.79-2.16a13.38,13.38,0,0,1-1.62-9.36,6.28,6.28,0,0,1,1.63-3.17c1.91-2,4.3-1.58,5,1.15.33,1.35,1,1.47,2.07,1.5,3.89.12,7.75.73,11.73.37-.35,1.93-1.47,3.33-2.18,4.91a1,1,0,0,1-.66.75C264.26,62,259.33,64,253.65,64.7a3.68,3.68,0,0,1-1.94-.19,9,9,0,0,1-3.66-.85c-1.72-.72-3.47-1.38-5.24-2-4.53-1.5-9.14-2.43-13.94-1.58a3.39,3.39,0,0,0-2.7,1.55c.19.06.32.15.4.12,4.19-1.48,8.33-.71,12.49.24,3.38.78,6.52,2.27,9.9,3.07a16.84,16.84,0,0,0,12.45-1.38,24.47,24.47,0,0,0,5.16-3.8c4.47-4.24,7-9.31,6.16-15.62-.66-5.13-3.36-9.23-6.91-12.82a36.26,36.26,0,0,0-24.08-10.82c-.73-.05-.71-.34-.82-.86a7.07,7.07,0,0,0-5.35-5c-1.09-.16-2-.05-2.06,1.36-.06,1.21-.16,2.41-.24,3.61,0,.67-.19,1.07-1,1.12a7.64,7.64,0,0,0-5.2,2.89,20.48,20.48,0,0,0-5.27,14.35A3.76,3.76,0,0,0,223.69,41.4Z"/><path class="cls-4" d="M234,31.2H234c-.07-.76-.11-1.53-.2-2.29a1,1,0,0,0-.91-1c-.64,0-1.35.25-1.42.89a20,20,0,0,0-.06,4.09c.08.88,1,.94,1.7.9s1-.55.89-1.26C234,32.07,234,31.63,234,31.2Z"/><polygon class="cls-9" points="212.3 18.59 221.77 18.59 226.51 10.38 221.77 2.18 212.3 2.18 207.56 10.38 212.3 18.59"/><path class="cls-8" d="M214.13,6.88h.52a3.59,3.59,0,0,0,.75,0,9.34,9.34,0,0,1,.1-1.64c.07-.21.19-.24.37-.1a1,1,0,0,1,.16.89,3.13,3.13,0,0,0-.11.85c.43,0,1,0,1.59,0h.58V6.72a.47.47,0,0,1-.05-.16V5.29c0-.14.09-.21.16-.21s.14.07.21.21a8.39,8.39,0,0,1,.21,1.59,8.42,8.42,0,0,1,.9,0c.18,0,.28.11.32.21s-.09.23-.27.27a7.87,7.87,0,0,1-.95,0,4.64,4.64,0,0,0-.05.48q-.1,1-.9,1.11h-.21v.37a1.91,1.91,0,0,0-.06.42c.18,0,.45,0,.8.05h.69a5.12,5.12,0,0,1-.06-.9.29.29,0,0,1,.06-.21.31.31,0,0,1,.21.11,3.61,3.61,0,0,1,.26,2.54c-.14.56-.4.84-.79.84h-1.22v1c.39,0,.9,0,1.54.06h.74c.35,0,.45.16.31.37s-.35.21-.84.21-1.15,0-1.75,0v1.48a7.05,7.05,0,0,1-.16,1.9.3.3,0,0,1-.16.21.21.21,0,0,1-.21-.16V13.81h-2a2.6,2.6,0,0,1-.42,0c-.32.07-.49-.07-.53-.42s.19-.46.58-.32a3.54,3.54,0,0,0,1,.1h1.37v-1a9.48,9.48,0,0,0-1.16,0c-.46.07-.74,0-.85-.26a2.42,2.42,0,0,1-.37-1.27,5.81,5.81,0,0,1,.21-1.8,1.42,1.42,0,0,1,.11-.16.18.18,0,0,1,.16.11c.18.14.21.49.11,1.06h.15a12.14,12.14,0,0,1,1.59-.11V9.05h-.42a.86.86,0,0,1-.69-.43,2.8,2.8,0,0,1-.21-1,10.74,10.74,0,0,0-1.17,0c-.38,0-.58-.07-.58-.32A.37.37,0,0,1,214.13,6.88Zm2,4.81h.31a1.9,1.9,0,0,1,.37,0V10.42a18.35,18.35,0,0,0-1.85.21,1.4,1.4,0,0,0,.11.53C215.11,11.55,215.47,11.73,216.14,11.69ZM218,8a4,4,0,0,1,.05-.53H216a.59.59,0,0,0,.05.21V8c0,.28.25.44.63.47a3.81,3.81,0,0,0,1,0A.45.45,0,0,0,218,8Zm.85,3.17a2.64,2.64,0,0,0,.05-.63l-1-.11a5.17,5.17,0,0,0-.53-.05c0,.39-.05.79-.05,1.22.32,0,.67,0,1.06,0S218.85,11.53,218.89,11.21Z"/><path d="M127,93.07c-1.06.17-1.17.25-1.17,1.42v1.43a10.18,10.18,0,0,0,.11,1.74,24,24,0,0,1-4.26.61c-4.18,0-6.64-2.56-6.64-6.15,0-4,3.23-6.08,7-6.08a23.38,23.38,0,0,1,3.68.43c0,.75.16,2,.29,3.06l-.64.12c-.44-1.53-1-2.26-2.17-2.63a5.49,5.49,0,0,0-1.58-.23c-2.39,0-4.07,1.89-4.07,5.06s1.24,5.68,4.38,5.68a2.69,2.69,0,0,0,1.29-.27c.3-.18.48-.45.48-1.07V94.65c0-1.28-.22-1.42-1.8-1.58v-.61H127Z"/><path d="M132.69,89.82a4,4,0,0,1,4.06,4.06,4.14,4.14,0,1,1-8.28.23A4.2,4.2,0,0,1,132.69,89.82Zm-.22.68c-.89,0-1.73.9-1.73,3.07s.84,4,2.09,4c.84,0,1.64-.59,1.64-3.16C134.47,92,133.75,90.5,132.47,90.5Z"/><path d="M146.93,97.57a32.29,32.29,0,0,0-3.19.65V96.94a4.16,4.16,0,0,1-2.58,1.28c-1.4,0-2.32-.89-2.32-2.62V92c0-.88-.12-1-.59-1.09l-.43-.1v-.54c.87,0,2.21-.18,3.08-.31,0,.69-.05,1.61-.05,2.69v2.56c0,1.32.67,1.73,1.37,1.73a2,2,0,0,0,1.52-.64V92c0-.88-.13-1-.68-1.1l-.55-.1v-.54a31.31,31.31,0,0,0,3.25-.31v5.93c0,.92.12,1.09.74,1.14l.43,0Z"/><path d="M152.33,98h-4.54v-.57c1-.11,1.11-.2,1.11-1.31V92.24c0-1-.07-1.08-1-1.24v-.52a14.56,14.56,0,0,0,3-.7v2c.75-1.14,1.43-1.92,2.23-1.92a1,1,0,0,1,1.13,1,1.58,1.58,0,0,1-.81,1.34.45.45,0,0,1-.53-.07c-.3-.26-.52-.51-.84-.51s-.83.35-1.18,1.11v3.41c0,1.12.12,1.18,1.42,1.32Z"/><path d="M163.93,97.54a26,26,0,0,0-3.27.69V97.14c-.32.21-.78.47-1.1.68a2.27,2.27,0,0,1-1.09.4,3.83,3.83,0,0,1-3.58-4,4.63,4.63,0,0,1,4.87-4.41,3.34,3.34,0,0,1,.9.11V87.65c0-1-.1-1.09-1.28-1.22v-.55a22.36,22.36,0,0,0,3.3-.62V95.79c0,1,.11,1.07.79,1.14l.46,0Zm-3.27-6a1.68,1.68,0,0,0-1.54-.91c-.66,0-2,.45-2,3.06,0,2.29,1.32,3.26,2.25,3.27a2.22,2.22,0,0,0,1.27-.42Z"/><path class="cls-5" d="M345.4,77a38.5,38.5,0,1,1,38.5-38.5A38.54,38.54,0,0,1,345.4,77Zm0-74a35.5,35.5,0,1,0,35.5,35.5A35.53,35.53,0,0,0,345.4,3Z"/><path class="cls-4" d="M349.5,67.7a8.17,8.17,0,0,0,2.14.16c.33,0,.76,0,.78-.42S352,67,351.7,67a5.26,5.26,0,0,1-.85.09,17.08,17.08,0,0,0-4,.23,18.12,18.12,0,0,1-4.88-.06,3.18,3.18,0,0,1-.48-.28c-4.1.29-4.1.19-4.05-4.06,0-1.54,0-3.09,0-4.62.14-4.19,2.58-6.66,6.23-8.17a15,15,0,0,1,1.6-.54c.2-.16.41-.31.63-.46,1.6-.87,3.41-1.28,4.94-2.36a6.88,6.88,0,0,0,3-7.78c-1.07-4.56-4.86-7.44-10-7.61-.87,0-1.73,0-2.6,0-.66,0-1.52.2-1.83-.52a1.85,1.85,0,0,1,.63-2.2h0a3.76,3.76,0,0,0-3.4-3.51c-.38-.05-.4-.27-.45-.59-.42-2.55-1.4-3.33-4-3.22-.39,0-.85.36-1.17-.18-1.35-2.25-3.57-2.38-5.83-2.37-2.63,0-4,1.41-3.74,4,.06.74-.12.86-.78,1a4.69,4.69,0,0,0-3.41,2.66c-1.17,2.25.81,5.64,3.29,5.75,4.45.19,8.89.41,13.33.63a6.53,6.53,0,0,0,3.56-.37c1.56-.9,3.15-.65,4.73-.52a14.18,14.18,0,0,1,7.35,2.35,7.51,7.51,0,0,1,3.33,7.27c-.36,3-2.57,4.66-5.35,5.91.19-1.3.14-2.46-1-2.92a2.32,2.32,0,0,1-1.5-2,3.44,3.44,0,0,0-2.92-2.82c-2-.25-3.27.29-4.1,1.94-.28.56-.44.52-.92.28-1.39-.65-2.15-.35-2.7,1.08a1.44,1.44,0,0,1-.9.95c-1.62.69-2.25,2.18-1.83,4.11.35,1.6,1.66,1.7,2.93,1.78,1.5.08,3,.05,4.5.11.44,0,.95-.2,1.5.44a5.36,5.36,0,0,0-.54.26,8.52,8.52,0,0,0-3.9,6.45c-.39,2.52.14,5,0,7.52-.14,2.85-.2,3,2.5,3.33a36.71,36.71,0,0,0,8.95.2C348.06,67.32,348.82,67.5,349.5,67.7ZM338.39,29.93c-.69,2.07-1.4,2.37-3.52,1.87-3-.69-6.05-.46-9.08-.56h0c-1.49.05-3,.05-4.47.15s-2.1-1-2.78-1.94a2.46,2.46,0,0,1,0-2.85c.95-1.6,2.18-2.05,4.84-1.82,0-.09.08-.22,0-.26a2.93,2.93,0,0,1-.78-3.29c.56-1.33,1.83-1.52,3-1.53,1.7,0,3.4.16,4.57,1.67.16.71.36,1.32,1.32.87a1.76,1.76,0,0,1,.86,0,2.59,2.59,0,0,1,2.47,1.2,2.1,2.1,0,0,1-.63,2.48.55.55,0,0,0,.75.23c1.31-.74,2.22,0,3.05.82A2.79,2.79,0,0,1,338.39,29.93Zm-2.75,19c-.93,0-1.9.38-2.79-.21h0a5.33,5.33,0,0,1-.14-2.14,1.83,1.83,0,0,1,.92-1.55c.7-.44.69.66,1.4.63,0-.61,0-1.25.1-1.88.17-1.17.84-1.54,1.79-.89s1.17.42,1.47-.53A2.62,2.62,0,0,1,341,40.51c1.23-.06,2.29.18,2.77,1.51a.84.84,0,0,1,.4.73c.12,1.09.33,2,1.65,2.33.83.22.93,1.14.75,2a1.71,1.71,0,0,1-1.7,1.49C341.82,48.68,338.73,48.83,335.64,48.92Z"/><path class="cls-4" d="M339.4,30.85c.31.72,1.17.49,1.83.52.87,0,1.73,0,2.6,0,5.16.17,8.95,3.05,10,7.61a6.88,6.88,0,0,1-3,7.78c-1.53,1.08-3.34,1.49-4.94,2.36-.22.15-.43.3-.63.46.28-.09.57-.17.85-.27h0A19.3,19.3,0,0,0,351,47.16a7.39,7.39,0,0,0,3.29-4.41,9.65,9.65,0,0,0-7.06-11.21c-2.52-.7-5.07-.55-7.71-.58.19-.82.37-1.56.54-2.31h0A1.85,1.85,0,0,0,339.4,30.85Z"/><path class="cls-4" d="M372.16,21.82c-.58-.2-1.05-.26-1-1.08A2.48,2.48,0,0,0,369.26,18a2.81,2.81,0,0,0-3.36,1.35c-.31.52-.46.5-.94.17-1.93-1.33-3.38-.83-4,1.45-.19.7-.43.83-1.06.73a2.73,2.73,0,0,0-2.79,1.1c-1.88,2.45-.51,5.53,2.71,6-.53,1.2-1.05,2.4-1.61,3.69a12,12,0,0,0-6-3.26,37.53,37.53,0,0,0-11.82-.55h0a12.26,12.26,0,0,0,4.13.4c4.65.19,9.09,1,13.06,3.6,1.08.71,1.32.55,1.66-.72a4,4,0,0,1,.48-1.5,1.81,1.81,0,0,1,.37-.24l.33-1.35h0l.14-.06-.18-.15a1.71,1.71,0,0,1,1.35-.4c1.59-.05,2,.33,1.61,1.84-.77,3.12-.32,6.36-1,9.49-1.12,4.84-2.84,9.48-6.56,12.83a12.76,12.76,0,0,0-4.13,8.44,11,11,0,0,0,.49,4.57c.22.8.27,1.2,0,1.41.31,0,.57.1.58.55a.61.61,0,0,1-.09.39c.5-.38.47-1.14.19-2.63a3.31,3.31,0,0,1-.12-.42c-.05-4.11-.67-8.4,3.55-11.15a5.52,5.52,0,0,0,1-1,24.68,24.68,0,0,0,6.34-15.8c.12-2.32-.08-4.64.25-7,.11-.74.3-1.09,1.16-1.08,1.88.05,3.77,0,5.66-.09a4.9,4.9,0,0,0,3.84-2.24C375.59,24.83,374.42,22.59,372.16,21.82Zm1.34,3.54a2.77,2.77,0,0,1-3,2c-2.61-.38-5.21.23-7.81.14h0c-1.19.18-2.38.38-3.58.52-.8.1-1.91-1.85-1.75-3A2.49,2.49,0,0,1,360,22.65c.85,0,1.5-.1,1.67-1.13a1.84,1.84,0,0,1,1.51-1.74c.92-.09,1.41.66,1.81,1.39.33,0,.75.67,1-.16a2.64,2.64,0,0,1,.49-.88c.55-.79,1.2-1.46,2.27-1.17a2,2,0,0,1,1.56,2.17c0,1.06.31,1.38,1.32,1.58A2.33,2.33,0,0,1,373.5,25.36Z"/><path class="cls-4" d="M341.53,29.24c1.87.15,3.75.27,5.63.44a20.87,20.87,0,0,1,10.44,3.54c1.38,1,1.59.77,1.91-.85.12-.66.33-1.3.49-1.95h0l.05-.19a1.81,1.81,0,0,0-.37.24,4,4,0,0,0-.48,1.5c-.34,1.27-.58,1.43-1.66.72-4-2.63-8.41-3.41-13.06-3.6a12.26,12.26,0,0,1-4.13-.4C340.51,29.37,341.08,29.2,341.53,29.24Z"/><polygon class="cls-10" points="313.18 18.59 322.66 18.59 327.4 10.38 322.66 2.18 313.18 2.18 308.44 10.38 313.18 18.59"/><path class="cls-8" d="M317.81,4.43c.25,0,.39.23.43.58V7.49a.4.4,0,0,0-.06.16,4.29,4.29,0,0,0,1.17-.16c.35-.07.56-.33.63-.79a4.93,4.93,0,0,0-.1-1.48c0-.25,0-.37.21-.37a.42.42,0,0,1,.42.32,4.43,4.43,0,0,1-.05,2,1.57,1.57,0,0,1-1.38,1.11,6.64,6.64,0,0,1-.9.05v.74a1.85,1.85,0,0,1,1.43,1.11,9.48,9.48,0,0,1,.85,2.91,7.9,7.9,0,0,1,.16,2.27c0,.21-.07.32-.21.32s-.23-.16-.27-.37-.09-1-.26-2.11a6.05,6.05,0,0,0-.11-.8,5.12,5.12,0,0,0-.74-1.95,1,1,0,0,0-.85-.53v1c0,.39,0,1.18,0,2.38v1a11.27,11.27,0,0,1-.1,2.22q-.06.42-.27.48c-.1,0-.17-.14-.21-.43s-.05-1.05-.05-2.11a16.55,16.55,0,0,0,0-1.75V9.93h-.11c-.56,0-1,.53-1.32,1.58a8.52,8.52,0,0,0-.42,2.28c0,.24-.07.58-.11,1a4,4,0,0,0,0,.53c0,.18-.12.26-.26.26s-.22-.08-.22-.26V14.16a17.56,17.56,0,0,1,.27-2,5.89,5.89,0,0,1,.95-2.38,1.74,1.74,0,0,1,1.27-.74V8.39a1.81,1.81,0,0,1-.42-.05h-.32a1.9,1.9,0,0,1-1.38-1,2.58,2.58,0,0,1-.26-2c.11-.35.21-.53.32-.53s.23.21.26.53a1.34,1.34,0,0,1,0,.58v.58a.93.93,0,0,0,.95,1,1.19,1.19,0,0,1,.32,0,4,4,0,0,0,.53.05v-.1A22.88,22.88,0,0,0,317.5,5C317.5,4.62,317.6,4.43,317.81,4.43Z"/><path d="M339.71,86.91c-1.29.16-1.5.39-2,1.87s-1.89,5.9-3,9.42h-.87c-.92-2.67-2-5.62-3-8.31-1,2.85-1.94,5.64-2.81,8.31h-.89c-.78-2.74-1.89-6.34-2.89-9.51-.45-1.4-.7-1.67-1.82-1.78V86.3h5.09v.61c-1.35.13-1.38.37-1.13,1.3.63,2.19,1.29,4.4,1.94,6.57.94-2.66,1.88-5.52,2.74-8.37h.82c1,2.86,2,5.6,3,8.38.7-2.1,1.62-5.17,1.92-6.39.26-1.06.09-1.35-1.45-1.49V86.3h4.3Z"/><path d="M342.91,89.82A4,4,0,0,1,347,93.88a4.15,4.15,0,1,1-8.29.23A4.21,4.21,0,0,1,342.91,89.82Zm-.22.68c-.88,0-1.72.9-1.72,3.07s.83,4,2.09,4c.83,0,1.64-.59,1.64-3.16C344.7,92,344,90.5,342.69,90.5Z"/><path d="M352.54,89.82a4,4,0,0,1,4.07,4.06,4.15,4.15,0,1,1-8.29.23A4.21,4.21,0,0,1,352.54,89.82Zm-.22.68c-.88,0-1.72.9-1.72,3.07s.83,4,2.09,4c.83,0,1.64-.59,1.64-3.16C354.33,92,353.6,90.5,352.32,90.5Z"/><path d="M367,97.54a26,26,0,0,0-3.27.69V97.14c-.32.21-.78.47-1.1.68a2.27,2.27,0,0,1-1.09.4,3.83,3.83,0,0,1-3.58-4,4.63,4.63,0,0,1,4.87-4.41,3.34,3.34,0,0,1,.9.11V87.65c0-1-.1-1.09-1.27-1.22v-.55a22.47,22.47,0,0,0,3.29-.62V95.79c0,1,.12,1.07.79,1.14l.46,0Zm-3.27-6a1.68,1.68,0,0,0-1.54-.91c-.66,0-2,.45-2,3.06,0,2.29,1.32,3.26,2.25,3.27a2.22,2.22,0,0,0,1.27-.42Z"/><path class="cls-5" d="M39.87,220a38.5,38.5,0,1,1,38.5-38.5A38.54,38.54,0,0,1,39.87,220Zm0-74a35.5,35.5,0,1,0,35.5,35.5A35.53,35.53,0,0,0,39.87,146Z"/><path class="cls-4" d="M63.45,189.64a.69.69,0,0,1,.24-.31c.55-.29.63-.43.37-.81a1.73,1.73,0,0,0-1.47-.74,9.9,9.9,0,0,0-3.11.37,24.39,24.39,0,0,0-8.37,3.65c-.19-3.42-.16-6.75-.21-10.08a1.72,1.72,0,0,1,1-1.93c.88-.41,1.71-1,.93-2.2-1.27-1.08-.2-1.41.58-1.82h0c.54-1.07-.16-1.6-.94-2a2.61,2.61,0,0,1-1.36-2.7c.27-6,.44-12,.66-18,0-1-.25-1.12-1.13-.62-2.26,1.31-4.57,2.55-6.88,3.77-1,.54-1.84.62-2.51-.7-1.75-3.42-6.82-5.89-10.65-5.42-1.24.14-1.4.7-.89,1.68.18.34.36.68.56,1a13.89,13.89,0,0,0,8.54,6.58l-1.17.46a9.84,9.84,0,0,0-5.1,4.76c-.4.81-.49,1.39.79,1.64a8.57,8.57,0,0,0,7.73-1.92c.22-.18.35-.63.88-.32a27,27,0,0,0,.43,6.34,2.59,2.59,0,0,1-1.54,3.27c-1.38.73-1.38,1.5-.36,2.77.2.24.48.29.15.76a1.74,1.74,0,0,0,.66,2.83,1.27,1.27,0,0,1,.83,1.3q-.2,4.65-.16,9.3c0,2.55.07,5-1.78,7.12a1.5,1.5,0,0,0,.47,2.52c.19.12.48.2.12.6-1.24,1.39-1.19,1.71.5,2.69a1.52,1.52,0,0,1,.84,1.67,52.35,52.35,0,0,0,0,6.86c.08,1.11.54,1.52,1.55,1.53,1.63,0,3.25.06,4.87.07s2.45-.75,2.34-2.39c-.14-2.14-.37-4.27-.6-6.4A1.59,1.59,0,0,1,51,203a2.35,2.35,0,0,0,1.22-2.54l-1.9-1.16c.61-.64,1.1-.89,1.54.12a5.08,5.08,0,0,0,.77,1h0A12.41,12.41,0,0,0,62.31,203c.84-.12,1.34-.08,1.85.63.43-4.53-2.6-6.55-6.13-8.3C60.33,193.76,62.35,192.13,63.45,189.64ZM37,157.24c-3-1.24-5.09-3.53-7-6.3a12.54,12.54,0,0,1,8.85,3.61c.91.91,2.16,2.31,1.57,3.22S38.09,157.71,37,157.24Zm4,5.56a9,9,0,0,1-5.57,2.6c-.66,0-1.32,0-2.24,0a11.06,11.06,0,0,1,7.51-5.32c.36-.08.53,0,.62.33C41.47,161.26,41.72,162.08,40.93,162.8Zm.3,12.31c-.26-.55.55-.84,1-1,1.5-.63,1.79-1.69,1.63-3.21-.4-3.69-.68-7.38-.85-11.09-.1-2.15-.23-2.14,1.92-2.92a33,33,0,0,0,5.92-3.51c-.19,2.1-.31,4-.52,5.81a70.81,70.81,0,0,0-.27,10.7c0,1.77-.15,3.81,1.9,4.87-2.5,2.13-5.4,1.25-8.15,1.33h0a6.62,6.62,0,0,1-1,.09A1.94,1.94,0,0,1,41.23,175.11Zm9.27,26.81a2.1,2.1,0,0,0-1.16,2.4c.27,2,.3,4.07.38,6.11,0,.57.26,1.22-.23,1.74H47.18l-1.7,0h0c-2.25.21-2.25.21-2.32-2.1,0-1.76-.14-3.52-.15-5.27,0-1.12-.21-2-1.45-2.36-.24-.07-.43-.33-.74-.6,1.08-.66,2.44-.45,3.21-1.46,1.34-.54,2.78.16,4.12-.25a3.19,3.19,0,0,1,2.15.24C51.49,200.82,51.34,201.42,50.5,201.92Zm0-4.26A5.65,5.65,0,0,1,46.31,199h0a10.9,10.9,0,0,1-5.11,0c-.5-1.18.53-1.79,1.07-2.48a3.77,3.77,0,0,0,.93-2.44c-.05-4.65-.11-9.31-.15-14,0-.61-.37-.77-.82-1s-1-.4-.82-1,.79-.68,1.27-.6c1,.16,1.83-.57,2.79-.28,1.76.09,3.51.21,5.27.27.6,0,1.14.23,1.22.75s-.57.69-.94.66c-1-.05-.75.66-.77,1.15-.22,4-.33,7.91-.19,11.87.06,1.72-.78,3.63.86,5.13C51.23,197.38,50.72,197.49,50.53,197.66Zm8.56-.56A10.58,10.58,0,0,1,63,201.61a13,13,0,0,1-9.78-2.06c-.54-.39-1-.83-.8-1.51s-.14-1.07-.76-1.67C54.36,196.65,56.8,195.36,59.09,197.1ZM58,193.66a9.3,9.3,0,0,1-5.4,1.58c-.46,0-1.25.36-1.34-.31s-.32-1.73.6-2.32c3.35-2.16,7.09-3.08,11.39-3.67C61.22,190.67,59.88,192.46,58,193.66Z"/><path class="cls-4" d="M35.91,207.77c-.68-.27-.73-.72-.69-1.36a88,88,0,0,0,.14-10,1.52,1.52,0,0,1,.81-1.62c1-.59,1-1.25,0-1.95a4.38,4.38,0,0,0-1.41-.56A4,4,0,0,1,35.87,191a.66.66,0,0,0,.12-1.1c-.73-.57-.62-1.32-.61-2.06,0-2.72,0-5.44,0-8.16a1.13,1.13,0,0,1,.67-1.23c1.05-.51,1-1.49.67-2.36s-.69-1.59-1.9-1.52c-2.7.15-5.41.12-8.12.21-1,0-1.23.95-1.56,1.66a1.07,1.07,0,0,0,.56,1.56c.92.32.86,1,.85,1.7,0,2-.06,3.92-.09,5.87,0,.62-.07,1.24,0,1.86,0,1-.6,1.24-1.34,1.35s-.4-.65-.55-1a4.11,4.11,0,0,0-1-1.55,12.23,12.23,0,0,0-9.39-3c-1.77.19-1.8.37-1,1.88a9.9,9.9,0,0,0,2.26,2.73,29.56,29.56,0,0,0,3.64,2.23c.63-.15,1.17.24,1.77.32.26,0,.68,0,.69.31s-.35.52-.7.56h0c-.48.5-1,1-1.44,1.51-.81,1-1.83,1.89-1.73,3.36a.67.67,0,0,0,.79-.44c1.38-2.54,3.86-3.83,6.08-5.43.15-.1.31-.26.5-.12s.22.49.12.76a7.89,7.89,0,0,1-2.46,3.59,8,8,0,0,1-4.23,2.13h0c-.17.2-.5.43-.47.61,0,.33.43.29.69.26.6-.06,1.19-.18,1.79-.28h0a10.51,10.51,0,0,0,4-2.69c.44-.52.67-.32.88.16h0c.52.37,1.48.28,1.37,1.31-.39,3.59.18,7.14.35,10.71.05,1.09,0,1.88-1.26,2.21a1.39,1.39,0,0,0-1,1.45c0,.62.59.77,1.09,1a19.93,19.93,0,0,0,9.12,1,2.31,2.31,0,0,0,2-2.13A2.06,2.06,0,0,0,35.91,207.77ZM13.79,184.14c4,.36,7.64,1.4,10.23,4.89C20.41,189.79,14.77,187.09,13.79,184.14Zm13.13,4.7a1.67,1.67,0,0,0,.66-1.6c-.06-3-.12-5.89-.15-8.83,0-.48-.05-.74-.58-.94-1.23-.46-1.22-.81,0-1.71,2.79-.45,5.59.24,8.38,0,.44,0,.57.26.67.59a.82.82,0,0,1-.39,1.1,1.52,1.52,0,0,0-.89,1.48c-.09,2.86-.23,5.71-.34,8.56,0,1-.23,2.06,1.09,2.59-2,1.52-4.18,1-6.21,1.14h0A2.77,2.77,0,0,1,27.2,191C25.84,190.26,25.72,189.74,26.92,188.84ZM36,210a2,2,0,0,1-1.71,1.31c-1,.09-2.08,0-3.12,0h0c-1.62.33-3.08-.37-4.59-.72-.21,0-.51-.08-.54-.38a.54.54,0,0,1,.51-.58c1.32-.24,1.62-1.24,1.64-2.32.08-4-.67-7.88-.55-11.85,0-.46-.37-.74-.66-1.05s-1.18-.17-.91-.83a1.88,1.88,0,0,1,1.53-1.15c.7-.07,1.42,0,2.14,0,1.37-.05,2.74-.18,4.11-.12.94,0,1.55.79,2.38,1.54-1.44.12-1.74,1-1.85,2h0q0,3.15-.1,6.28c0,1.14-.1,2.27-.17,3.4s-.26,2.44,1.33,3A1.05,1.05,0,0,1,36,210Z"/><polygon class="cls-11" points="8.7 162.29 18.17 162.29 22.91 154.08 18.17 145.87 8.7 145.87 3.96 154.08 8.7 162.29"/><path class="cls-8" d="M11.21,148.09c.3,0,.44.27.4.81a5.09,5.09,0,0,1,0,1.23q0,.36.21.36a1.44,1.44,0,0,1,.46.46,4.41,4.41,0,0,1,.46,1.84,46.27,46.27,0,0,1,.2,4.8c0,.2-.12.3-.25.3s-.21-.1-.21-.3c0-.65-.1-1.86-.2-3.63,0-.51-.05-.85-.05-1,0-.95-.17-1.5-.41-1.64a.6.6,0,0,0-.21-.1.46.46,0,0,0-.05.26c0,1.16,0,1.92.05,2.3s0,1,0,1.68V157c0,1,0,1.63,0,2s-.08.51-.25.51-.17-.14-.21-.51v-.51c0-.58,0-1,0-1.38v-1.64c0-.78-.05-1.39-.05-1.84v-2.19c0-.14,0-.21-.1-.21a.3.3,0,0,0-.26.05,2.1,2.1,0,0,0-.4,1.44c0,.44-.06,2.06-.06,4.85,0,.2-.06.32-.2.36s-.26-.06-.26-.26c0-.58-.05-1.43-.05-2.55,0-1,0-1.81.11-2.56a3.2,3.2,0,0,1,.51-1.63.8.8,0,0,1,.35-.36c.21-.14.31-.27.31-.41,0-.68-.07-1.14-.1-1.38C10.88,148.36,11,148.12,11.21,148.09Zm3.93,0c.17,0,.27.22.31.56s.05.85.05,1.53a.46.46,0,0,0,.3.41.83.83,0,0,1,.26.25l.15.16a2.77,2.77,0,0,1,.51,1.74c.1,1.87.14,3.38.1,4.54a.37.37,0,0,1-.3.36c-.14,0-.22-.1-.26-.31,0-2,0-3.47-.05-4.39a3.8,3.8,0,0,0-.41-1.58c-.1-.14-.17-.19-.2-.16s-.1.09-.1.26v5.31a15.58,15.58,0,0,1,0,1.69v.61c0,.34-.14.51-.31.51s-.12-.15-.15-.46,0-1,0-2.09v-4.5c0-.51-.06-.87-.06-1.07s0-.22,0-.26a.18.18,0,0,0-.2.05,2.81,2.81,0,0,0-.46,1.49q0,.45,0,3.57v1.18a.31.31,0,0,1-.26.35c-.17,0-.27-.05-.3-.25,0-.38-.05-1.14-.05-2.3s.06-2,.1-2.81a2.79,2.79,0,0,1,.56-1.53.82.82,0,0,1,.36-.41.46.46,0,0,0,.3-.36,4.46,4.46,0,0,0,0-.66,3.44,3.44,0,0,0-.05-.72C14.83,148.36,14.93,148.12,15.14,148.09Z"/><path d="M16.12,235.59c1.83.33,3.19,1.2,3.19,2.92a3.18,3.18,0,0,1-1.74,2.75,6.67,6.67,0,0,1-3.31.74H9.43v-.61c1.44-.14,1.56-.26,1.56-1.74v-7c0-1.5-.2-1.65-1.55-1.75v-.61h5.21a5.12,5.12,0,0,1,2.89.63,2.31,2.31,0,0,1,1.09,2A2.91,2.91,0,0,1,16.12,235.59Zm-2.21-.23c1.8,0,2.49-.75,2.49-2.14A2,2,0,0,0,14.22,231a1.65,1.65,0,0,0-.9.16c-.18.11-.19.29-.19.74v3.42Zm-.78,4.25c0,1.3.49,1.67,1.57,1.66A2.32,2.32,0,0,0,17,238.68c0-1.78-1-2.59-3.11-2.59h-.71Z"/><path d="M26.66,242.22a1.55,1.55,0,0,1-1-.37,1.7,1.7,0,0,1-.45-.72,6.11,6.11,0,0,1-2,1.09,2.32,2.32,0,0,1-2.36-2.29c0-.93.45-1.41,1.42-1.78A14.84,14.84,0,0,0,25.12,237v-.64c0-1.05-.45-1.65-1.28-1.65a.94.94,0,0,0-.77.38,3.54,3.54,0,0,0-.45,1.18.62.62,0,0,1-.68.54,1,1,0,0,1-1-.88c0-.3.22-.53.62-.81a8.58,8.58,0,0,1,2.78-1.27,2.9,2.9,0,0,1,1.73.51,2.45,2.45,0,0,1,1,2.17v3.24c0,.85.29,1.08.59,1.08a1.31,1.31,0,0,0,.59-.16l.19.57Zm-1.54-4.55c-.35.19-.86.44-1.24.63-.6.29-1,.62-1,1.26a1.26,1.26,0,0,0,1.17,1.37,1.5,1.5,0,0,0,1-.41Z"/><path d="M39,242v-.57c.84-.11,1-.18,1-1.34V237c0-1.42-.61-1.88-1.37-1.88a2.5,2.5,0,0,0-1.56.7c0,.21,0,.46,0,.76v3.59c0,1,.09,1.14,1,1.25V242h-4v-.57c.9-.11,1-.17,1-1.27V237c0-1.3-.48-1.83-1.29-1.83a2.72,2.72,0,0,0-1.6.68v4.36c0,1.07.12,1.16.91,1.27V242h-4v-.57c1.06-.12,1.14-.2,1.14-1.31v-3.79c0-1.06,0-1.19-.95-1.33v-.54a15.19,15.19,0,0,0,2.94-.69v1.39c.39-.28.73-.54,1.18-.81a2.65,2.65,0,0,1,1.49-.53,2.08,2.08,0,0,1,2,1.41c.46-.35.86-.62,1.31-.93a2.74,2.74,0,0,1,1.43-.48c1.51,0,2.35,1,2.35,2.86v3.48c0,1.07.1,1.13,1,1.27V242Z"/><path d="M47.66,234.11a2.76,2.76,0,0,1,1.11-.29,3.67,3.67,0,0,1,3.61,3.81,4.64,4.64,0,0,1-4.63,4.59,7.8,7.8,0,0,1-3-.65c0-.45,0-.94,0-1.41v-8.45c0-1.06-.09-1.19-1.15-1.27v-.56a21.27,21.27,0,0,0,3.16-.62v5.27ZM46.72,240a1.42,1.42,0,0,0,1.55,1.5c1.16,0,1.89-1.16,1.89-3.31S49,235,47.76,235a2.83,2.83,0,0,0-1,.2Z"/><path d="M57.94,233.82A4,4,0,0,1,62,237.88a4.14,4.14,0,1,1-8.28.23A4.2,4.2,0,0,1,57.94,233.82Zm-.21.68c-.89,0-1.73.9-1.73,3.07s.84,4,2.09,4c.83,0,1.64-.59,1.64-3.16C59.73,236,59,234.5,57.73,234.5Z"/><path d="M67.57,233.82a4,4,0,0,1,4.07,4.06,4.14,4.14,0,1,1-8.28.23A4.2,4.2,0,0,1,67.57,233.82Zm-.21.68c-.89,0-1.73.9-1.73,3.07s.84,4,2.09,4c.83,0,1.64-.59,1.64-3.16C69.36,236,68.64,234.5,67.36,234.5Z"/><path class="cls-5" d="M140.41,220a38.5,38.5,0,1,1,38.5-38.5A38.54,38.54,0,0,1,140.41,220Zm0-74a35.5,35.5,0,1,0,35.5,35.5A35.53,35.53,0,0,0,140.41,146Z"/><path class="cls-12" d="M151.14,195.57a33.39,33.39,0,0,0,.36-7.33c-.13-7-.12-14.05-.39-21.07-.17-4.45-1.1-5.89-4.63-7.45a11.7,11.7,0,0,0-3-.93c-.66-.1-.76-.26-.75-.93,0-.82.49-1.91-.62-2.4-3.05-1.34-6.17-2.08-9.45-.78-.59.23-1.26.51-1.15,1.24.29,1.85-.67,2.54-2.28,2.94A8.92,8.92,0,0,0,127,160a6.2,6.2,0,0,0-3.24,5.68c-.09,7.6-.39,15.2-.55,22.8a35.58,35.58,0,0,0,0,5.93c.68,4.67,4.4,8.16,8.51,7.94l.6,0h0a63.15,63.15,0,0,0,7.66-.05c.77-.46,1.6-.17,2.41-.19h0a6.5,6.5,0,0,0,2.62-.39A7.21,7.21,0,0,0,151.14,195.57Zm-18-40a9.9,9.9,0,0,1,3.21-.25c1.75-.18,3.27.66,4.84,1.2,1,.35.28,1.29.61,2.14-1.8-.74-3.52-.43-5.15-.79-1.29.74-2.53-.24-3.82-.19-.38,0-.35-1-.43-1.5S132.73,155.66,133.1,155.59Zm-6.61,6c2.73-1.81,5.62-3,9-2.61,3.14.39,6.37.25,9.4,1.37a12.24,12.24,0,0,1,3.2,1.78,4.48,4.48,0,0,1,1.51,1.83c.56,1.39.42,1.54-1.06,1.54-7.9,0-15.74.46-23.55,2.69,0-1.46,0-2.83,0-4.19A2.75,2.75,0,0,1,126.49,161.63Zm-.86,7.2a43.71,43.71,0,0,1,4.69-.79A74.78,74.78,0,0,1,141.4,167c2.49-.15,5-.17,7.48-.33.79,0,1.08.08,1,.94a42.6,42.6,0,0,0,0,4.52c.07,1.1-.23,1.49-1.38,1.33-3.87-.54-7.75-1-11.62-1.5l-6.31-.76h0l-4.76,0c-.47,0-1.06.08-.9-.65C125.1,169.92,124.45,169.06,125.63,168.83Zm-.74,3.56c0-.74.45-.62.93-.66,1.56-.16,3,.7,4.55.58a69.4,69.4,0,0,1,9,1.22c3.29.48,6.58.94,9.93,1.18a29.07,29.07,0,0,1-5.81,2.34l-13.37,4.06h0L125.52,183c-.55.23-.86.18-.84-.55Q124.83,177.4,124.89,172.39Zm-.28,14.07a.61.61,0,0,0,0-.14c0-2.3,0-2.31,2.19-3,.89-.29,1.79-.52,2.69-.78,4.35-1.55,8.84-2.62,13.25-3.93,2.44-.72,4.89-1.37,6.92-3.09.14.2.27.31.27.41.08,3.11.13,6.23.23,9.34,0,.81-.16,1.12-1,.87a12.1,12.1,0,0,0-3.8-.15c-5.28.16-10.56.1-15.83.49h0c-1.39.22-2.79.38-4.16.67C124.66,187.27,124.52,187.07,124.61,186.46Zm-.16,3.73c.1-2.61.1-2.61,2.73-2.61a29.11,29.11,0,0,1,6-.3c4.38-.07,8.77.07,13.14-.23a7.67,7.67,0,0,0,2.37-.32c1.44-.59,1.54.1,1.49,1.23-.05,1.45,0,2.9,0,4.46a9.57,9.57,0,0,0-3.32-.31c-7.31.27-14.58-.73-21.89-.53-.22,0-.49.07-.54-.27h0C124.46,190.94,124.44,190.56,124.45,190.19ZM144,200.87c-1.92.17-3.86.23-5.79.33l-5.47.31a8.21,8.21,0,0,1-8.42-8.31c.06-1,.45-1,1.21-.94a178.79,178.79,0,0,0,19.91,1,16.08,16.08,0,0,0,3.92-.42c.77-.22.82.06.89.71a5.88,5.88,0,0,1-1,3.56A6.5,6.5,0,0,1,144,200.87Z"/><path class="cls-13" d="M165.68,187.12c-.28-.2-.5.08-.7.28-1,1-2.08,2.06-3.14,3.06a175.92,175.92,0,0,0-15.06,15.71,9.27,9.27,0,0,0-1.65,3.58c-.09,1.7.83,2.44,2.28,2a7.73,7.73,0,0,0,3.9-2.67c4.72-6.25,9.12-12.71,13.37-19.28a18.62,18.62,0,0,0,1-1.86C165.82,187.65,166,187.31,165.68,187.12Zm-6.06,8.22L151.1,207.5h0a15.1,15.1,0,0,1-3.86,2.93c-.82.45-1.15,0-1-.79a6.12,6.12,0,0,1,2.24-3.64c3.48-3.78,7.13-7.41,10.8-11a3.63,3.63,0,0,1,1.74-1.42Z"/><path class="cls-14" d="M141.65,202.72c.19,1,.13,2-1.24,2.41a11.42,11.42,0,0,1-5.82.38h0c-1.83,0-1.84,0-2.19-2.79a1.19,1.19,0,0,1-.66-.33,6.33,6.33,0,0,0-.22,2.08c0,.52-.05,1,.6,1.27a13.81,13.81,0,0,0,7,1.08c3-.43,3.65-1.4,3.2-4.42,0-.09,0-.18.06-.27a2.17,2.17,0,0,1-.87.31A.67.67,0,0,1,141.65,202.72Z"/><polygon class="cls-15" points="109.28 161.26 118.76 161.26 123.5 153.05 118.76 144.84 109.28 144.84 104.54 153.05 109.28 161.26"/><path class="cls-8" d="M110.37,157.7a1.62,1.62,0,0,1,0-.64v-.52a9.71,9.71,0,0,1,.32-1.91,1.9,1.9,0,0,1,1-1.48l0-.53-.16,0a.83.83,0,0,1-.84-.26q-.37-.32-.21-1.11c.07-.46.44-.74,1.11-.85.14,0,.21-.1.21-.31a.15.15,0,0,0-.06-.11l-.1-.11c-.11,0-.16,0-.16.06-.32.1-.62,0-.9-.43a1.43,1.43,0,0,1-.1-1.11c.07-.21.4-.42,1-.63.21-.07.3-.16.26-.26a.37.37,0,0,1,0-.22.5.5,0,0,1,0-.15c0-.22,0-.3.26-.27.29.18.43.37.43.58a.91.91,0,0,1-.06.32q1,0,1.17.63a.5.5,0,0,1,0,.27,1,1,0,0,1,.05.26,1,1,0,0,1-.26.64c-.18.21-.34.3-.48.26h-.53v.27a1.73,1.73,0,0,0,0,.31,1.13,1.13,0,0,1,1.27.53,1,1,0,0,1,.05,1,1,1,0,0,0-.16.26.68.68,0,0,1-.58.37h-.37v.58c.6.25,1,1,1.11,2.17.07.81.11,1.57.11,2.28,0,.28,0,.42-.05.42a.15.15,0,0,1-.22.1.2.2,0,0,1-.15-.21,12.31,12.31,0,0,1-.11-1.74,12.16,12.16,0,0,0-.11-1.48q-.15-.8-.63-.9c0,.88,0,1.69,0,2.43q-.06.79-.06,1.53a4.53,4.53,0,0,1,0,1.17c0,.24-.11.35-.21.32s-.21-.06-.21-.27a10.87,10.87,0,0,1,0-1.64,29,29,0,0,0,0-3.49,1.57,1.57,0,0,0-.69.74,1.23,1.23,0,0,1-.11.37,4.38,4.38,0,0,0-.1.79c0,.85-.07,1.49-.11,1.91,0,.21-.12.3-.26.26S110.37,157.88,110.37,157.7Zm1.27-9.31c-.42.07-.65.27-.69.58s.19.46.58.43a3,3,0,0,1,1.33-.06c.07,0,.12-.05.15-.16v-.42c0-.17-.19-.3-.47-.37h-.21A2.56,2.56,0,0,0,111.64,148.39Zm-.32,2.8a.46.46,0,0,0-.32.48q0,.53.48.42h.42a2.15,2.15,0,0,1,.64,0c.32,0,.49-.07.53-.31a.87.87,0,0,0-.06-.32c0-.21-.08-.32-.26-.32a.45.45,0,0,1-.32-.16,1.17,1.17,0,0,1-.42.06A1.87,1.87,0,0,0,111.32,151.19Zm3,6.67a6.39,6.39,0,0,1,0-1.48,7.9,7.9,0,0,1,.21-1.8,1.38,1.38,0,0,1,1.06-1.27v-.58h-.21c-.25.1-.53,0-.85-.37a1.17,1.17,0,0,1-.21-1.11c-.07-.39.26-.62,1-.69a.24.24,0,0,0,.21-.32.91.91,0,0,0-.11-.32h-.1a.89.89,0,0,1-.9-.42,2.24,2.24,0,0,1-.11-1c.07-.35.41-.62,1-.8q.26,0,.21-.21a.46.46,0,0,0-.06-.16.5.5,0,0,1,0-.15c0-.18.11-.27.32-.27a.65.65,0,0,1,.42.53.63.63,0,0,1,0,.26,1.28,1.28,0,0,1,1,.48,1,1,0,0,1,.26.69,1.37,1.37,0,0,1-.21.68.73.73,0,0,1-.58.32H116v.27a.93.93,0,0,1,0,.42c.88.07,1.34.34,1.37.79a1.85,1.85,0,0,1-.1.8.48.48,0,0,1-.27.31l-.26.16a.14.14,0,0,1-.11,0,.89.89,0,0,1-.53.11V153a1.81,1.81,0,0,0,0,.32c.78.07,1.2.79,1.27,2.17,0,.49,0,1,.05,1.37a3.6,3.6,0,0,1,.06.74c0,.32,0,.48-.11.48a.14.14,0,0,1-.21.1A.16.16,0,0,1,117,158a18.44,18.44,0,0,1-.16-1.91,5.91,5.91,0,0,0-.1-1.37c-.18-.53-.41-.81-.69-.85,0,1,0,2.12,0,3.28a6,6,0,0,1,0,1.8c0,.24-.11.37-.21.37s-.18-.07-.21-.21,0,0,0-.11v-.69a6.58,6.58,0,0,0-.06-1v-3.44a1,1,0,0,0-.58.74,10.83,10.83,0,0,0-.21,1.59c0,.77,0,1.3-.05,1.58s-.07.27-.22.27A.36.36,0,0,1,114.28,157.86Zm.9-9.52a.41.41,0,0,0-.47.47c.07.36.26.53.58.53a4.68,4.68,0,0,1,.9.06.38.38,0,0,0,.37-.27.38.38,0,0,0,0-.42c0-.25-.12-.37-.26-.37a2.73,2.73,0,0,1-.43-.16.19.19,0,0,0-.26,0A.65.65,0,0,1,115.18,148.34Zm-.1,2.91c-.25.07-.36.21-.32.42a.63.63,0,0,0,.63.53.85.85,0,0,1,.59,0c.52.07.82-.09.89-.48a.65.65,0,0,0-.37-.53,3.2,3.2,0,0,1-.68-.05A.93.93,0,0,0,115.08,151.25Z"/><path d="M132,233.19c-.34-1.17-.84-2.43-2.51-2.43a1.71,1.71,0,0,0-1.79,1.82c0,1.08.71,1.68,2.26,2.47,2,1,3.14,1.91,3.14,3.67,0,2-1.72,3.55-4.21,3.55a9.41,9.41,0,0,1-2.93-.57c-.12-.45-.4-2.09-.52-3l.65-.16c.36,1.16,1.29,3,3.1,3a1.76,1.76,0,0,0,1.87-1.91c0-1.17-.68-1.76-2.21-2.59-1.88-1-3.05-1.9-3.05-3.71s1.43-3.29,4-3.29a11.8,11.8,0,0,1,2.51.34c.07.66.18,1.52.32,2.66Z"/><path d="M134.37,242v-.57c1-.12,1.14-.2,1.14-1.46v-3.58c0-1.18-.08-1.25-1-1.38v-.54a17,17,0,0,0,3-.67V240c0,1.22.09,1.34,1.18,1.46V242Zm2-9.54a1.17,1.17,0,1,1,0-2.34,1.16,1.16,0,0,1,1.17,1.18A1.17,1.17,0,0,1,136.39,232.46Z"/><path d="M139.43,242v-.57c1.07-.15,1.15-.24,1.15-1.39V231.7c0-1-.11-1.11-1.12-1.28v-.54a15.74,15.74,0,0,0,3.12-.62V240c0,1.19.08,1.27,1.15,1.39V242Z"/><path d="M153.84,242c-1.26,0-2.42,0-3,0-.07-.11-2.49-3.47-2.57-3.59s-.31-.33-.42-.34a.81.81,0,0,0-.22,0v1.95c0,1.19.09,1.23,1.13,1.37V242H144.5v-.57c1-.14,1.13-.2,1.13-1.37v-8.35c0-1-.1-1.11-1.11-1.31v-.52a14.38,14.38,0,0,0,3.12-.62v8.35a2.24,2.24,0,0,0,1.06-.68A12.07,12.07,0,0,0,150,235.3c.27-.44,0-.6-.7-.7V234l3.8-.15v.54a3.39,3.39,0,0,0-2.35,1.11c-.3.31-.85,1-1.31,1.49.42.63,2.17,2.85,2.7,3.46a2.12,2.12,0,0,0,1.66.94Z"/><g class="cls-1"><path class="cls-2" d="M259.4,195.53a1.34,1.34,0,1,1-1.34-1.33A1.34,1.34,0,0,1,259.4,195.53Z"/></g><path class="cls-5" d="M246,220a38.5,38.5,0,1,1,38.5-38.5A38.54,38.54,0,0,1,246,220Zm0-74a35.5,35.5,0,1,0,35.5,35.5A35.54,35.54,0,0,0,246,146Z"/><path class="cls-16" d="M275.7,180.7c.13-.56-.35-.82-.9-.9-2-.32-4.07-.69-6.11-1-1.89-.27-3.76-.43-4.46,2-.08.27-.39.48-.53.74a2.05,2.05,0,0,1-2.16,1.09,72.36,72.36,0,0,0-9,.3c-1.17.11-1.17.12-1.5-1.12h1.31c3,0,6.06.22,9-.5,1.36-.33,1.5-.54,1.12-1.77-.07-.22.09-.3.17-.44.28-.47.08-.92,0-1.39-.53-2.63-1.81-5-2.65-7.49-.5-1.48-1.3-2.46-2.84-2.37-2.35.14-2.83-1.2-3.06-3.13-.21-1.77-.74-2.19-2.46-2.34a36,36,0,0,1-7.79-1.16,1.66,1.66,0,0,0-2.2,1.1,29.2,29.2,0,0,1-2.45,4.49c-.55.81-1,1.06-1.86.45A7.35,7.35,0,0,0,229,167c-3,1.67-6.28,2.65-9.12,4.56a1.7,1.7,0,0,0,1.14.4,1,1,0,0,1,.95-.3q5.76.66,11.47,1.56a2.19,2.19,0,0,1,.48.26,2.36,2.36,0,0,1,2.17.94c1.76,1.89,3.47,3.84,5.41,5.56a2.2,2.2,0,0,0,1.72.68,2.15,2.15,0,0,1,2.39,1.74c.27,1,.22,2.31,1.48,2.93.31.15,0,.55-.2.8a.43.43,0,0,1,.09.1,1.23,1.23,0,0,1-.14,1c-.73,1.41-1.26,2.9-1.87,4.35-.29.7-.72,1.26-1.56,1.14-3.3-.46-6.63-.59-9.92-1.15a6.37,6.37,0,0,1-3.89-2.17c.48,1-.11,1.27-.83,1.43a8,8,0,0,1-3.51-.31c-2.47-.57-4.91-1.29-7.37-1.95a1.41,1.41,0,0,1-1.22-1.79,58.65,58.65,0,0,1,3.13-13c.17-.46.26-1.07,1-1.06-.07-.86-.56-.54-.84-.21a5.2,5.2,0,0,0-.77,1.36,58,58,0,0,0-3.65,14c-.14.85.18,1.28,1,1.5,1.74.44,3.45,1,5.19,1.46a24.13,24.13,0,0,0,6.57,1.27c.86,0,1.77.05,2.09-1.24a2.66,2.66,0,0,0,2.33,1.49c1.65.23,3.26.67,4.94.77s3.14.32,4.71.52c.86.11,1.42.45.88,1.45a3.76,3.76,0,0,0-.31.87c-.43,1.66-.28,1.9,1.4,2.27a9.14,9.14,0,0,1,1.27.34c3.91,1.51,8.07,1.78,12.15,2.24,3.26.37,6.57-.34,9.85-.48a4.82,4.82,0,0,0,4.07-2.2,3.17,3.17,0,0,1,3-1.53c1.1,0,1.54-.56,1.68-1.58a41,41,0,0,0,0-9.06C276.13,184.15,275.27,182.51,275.7,180.7Zm-36-13.13a14.7,14.7,0,0,0,2.69-4.33c.26-.58.54-1.18,1.35-.84,2.32,1,4.79,1,7.23,1.24,1.17.1,1.82.44,2,1.84.34,2.37,1,4.7,1.59,7.05.1.42.19,1,.76.88s.71-.7.57-1.25c-.23-1-.46-2-.75-2.93-.19-.62-.07-.81.59-.68,1.52.32,2.83.64,3.3,2.55a62.35,62.35,0,0,0,2.37,6.49c.12.33.3.67-.05,1-1.16.94-2.09,2.23-3.85,2.18-1.18,0-2.37.09-3.55.14-.57,0-1.14,0-1.71,0-1.87.07-2.51-.3-3.11-2.11a24.73,24.73,0,0,1-1-3.94,1.82,1.82,0,0,0-1.28-1.63,18.91,18.91,0,0,0-4.3-1.18c-.34,0-.8.09-.71-.46.29-1.6-.94-2.14-2-2.78C239.29,168.39,239.11,168.19,239.72,167.57ZM246.56,181c-.14-.93-1-1-1.59-1.12a7.28,7.28,0,0,1-4.16-2.5,61.15,61.15,0,0,0-5.29-4.88,2.23,2.23,0,0,0-1.51-.59,35.93,35.93,0,0,1-6.94-.57,39.58,39.58,0,0,1-4.66-.43l1.52-.54c2.62-1.08,5.26-2.13,7.85-3.27a3.12,3.12,0,0,1,2.75.16,38.72,38.72,0,0,1,5.15,2.88,1.75,1.75,0,0,1,.92,1.72,12.8,12.8,0,0,0,.19,2.22c.07.5.25,1,.87.93s.54-.68.43-1.17c-.06-.3-.11-.59-.19-1a15.27,15.27,0,0,1,4.52,1.39c.44.17.5.56.58,1,.21,1,.47,2,.67,3.08a7.76,7.76,0,0,0,2,3.62c.22.25.59.65.13.8-1,.32-1.39,1.15-2.05,1.85A20.28,20.28,0,0,1,246.56,181Zm28.49,12.68c0,.89-.22,1.34-1.31,1.49a33.25,33.25,0,0,0-7.26,1.8c-.48.18-1.14.34-.88,1.05s.89.45,1.44.27c1-.33,2.07-.61,3.3-1a2.42,2.42,0,0,1-2.19,1.5c-2.93.24-5.84.61-8.77.94-.56.06-1,.13-1.42-.52s-1.2-.42-1.83-.43c-2.19,0-4.4.13-6.53-.59-.41-.14-.87-.12-1.22-.44-1.14-.3-2.27-.62-3.42-.88-.7-.17-.75-.53-.53-1.13a91.17,91.17,0,0,1,4.24-10.41,1.73,1.73,0,0,1,1.91-1.21c1.27.1,2.59-.21,3.9-.11,4.09-.26,8.17,0,12.25,0,.22,0,.44,0,.66,0,.44,0,.79-.19.79-.68s-.37-.68-.8-.69c-1,0-2,0-3.16,0l1.7-2.53a1.07,1.07,0,0,1,1.19-.32c2.17.35,4.33.74,6.48,1.12a.73.73,0,0,1,.67.67A48.68,48.68,0,0,1,275.05,193.66Z"/><path class="cls-16" d="M233.9,173.45a2.19,2.19,0,0,0-.48-.26q-5.71-.9-11.47-1.56a1,1,0,0,0-.95.3l12.67,1.56Z"/><path class="cls-16" d="M219.78,173.75a58.65,58.65,0,0,0-3.13,13,1.41,1.41,0,0,0,1.22,1.79c2.46.66,4.9,1.38,7.37,1.95a8,8,0,0,0,3.51.31c.72-.16,1.31-.43.83-1.43a6.37,6.37,0,0,0,3.89,2.17c3.29.56,6.62.69,9.92,1.15.84.12,1.27-.44,1.56-1.14.61-1.45,1.14-2.94,1.87-4.35a1.23,1.23,0,0,0,.14-1,.43.43,0,0,0-.09-.1l0,0c-.81,1.93-1.64,3.86-2.43,5.8a.65.65,0,0,1-.9.47c-2.14-.52-4.35-.43-6.52-.74-2.59-.38-5.4-.19-7.2-2.72a.78.78,0,0,0-1.07-.14c.05.64.85.84.89,1.48a6.13,6.13,0,0,1-2.48.18c-3.27-.48-6.36-1.65-9.57-2.32-.64-.14-.66-.51-.6-1.06a55.72,55.72,0,0,1,1.95-9.51,17.78,17.78,0,0,1,1.84-4.88C220,172.68,220,173.29,219.78,173.75Z"/><path class="cls-17" d="M251.87,188.75c.43.5.2,1.05.07,1.58-.37,1.55-.74,3.11-1.12,4.67a6.12,6.12,0,0,0,.86-2.49c.29-1.19.54-2.38.79-3.58a1.89,1.89,0,0,0-.07-1.22A.94.94,0,0,1,251.87,188.75Z"/><path class="cls-17" d="M252.47,188.93c-.25,1.2-.5,2.39-.79,3.58a6.12,6.12,0,0,1-.86,2.49c.38-1.56.75-3.12,1.12-4.67.13-.53.36-1.08-.07-1.58h0a4.47,4.47,0,0,1-.08.91,49.44,49.44,0,0,1-1.4,4.93c-.17.41-.39,1,.22,1.26s.73-.45.83-.88c.48-2,1-4,1.37-6,.1-.51.49-1.24-.42-1.54l0,.3A1.89,1.89,0,0,1,252.47,188.93Z"/><path class="cls-17" d="M252.4,187.71l-.08-.16c-.16.4-.31.79-.46,1.19h0A.94.94,0,0,0,252.4,187.71Z"/><path class="cls-18" d="M254.61,192.15c-.7,0-.33,1.09-.48,1.69s-.33,1.59.43,1.63c1,.05.35-1,.6-1.6C254.77,193.35,255.45,192.2,254.61,192.15Z"/><polygon class="cls-19" points="215.78 161.26 225.26 161.26 230 153.05 225.26 144.84 215.78 144.84 211.04 153.05 215.78 161.26"/><path class="cls-8" d="M223.16,149a19.86,19.86,0,0,0-4.17.1.71.71,0,0,0-.53.85,28.28,28.28,0,0,1-.06,6.24,12.26,12.26,0,0,0-.21,1.53,7.07,7.07,0,0,1-.42,2q-.17.26-.27.21c-.1,0-.14-.16-.1-.37s.12-.92.26-1.9a8.74,8.74,0,0,0,.16-1.11c0-.29.07-.69.11-1.22.1-1.23.16-2.08.16-2.54a6.4,6.4,0,0,0-.37-2.85.66.66,0,0,1,.05-.9c.39-.46,1.32-.71,2.8-.74a17.46,17.46,0,0,1,2.59.15c.25,0,.39.15.43.32S223.41,149,223.16,149Zm-2.91,1.42a1.19,1.19,0,0,1-.05.32.85.85,0,0,1,0,.32c0,.21.09.3.26.26.35,0,1-.05,1.91-.05.14,0,.21,0,.21-.26v-.69c0-.21.1-.34.21-.37s.16.09.26.26a6,6,0,0,1,.06,3.28c-.18.67-.69,1-1.54,1a1.34,1.34,0,0,1-1.48-.74,4.24,4.24,0,0,1-.26-3.33c.07-.18.16-.26.26-.26S220.25,150.27,220.25,150.44Zm2.12,1.54a5.34,5.34,0,0,0-1.85.1c-.21,0-.28.18-.21.43a1.27,1.27,0,0,0,.16.58.79.79,0,0,0,.47.53,2.61,2.61,0,0,0,1.17,0,.53.53,0,0,0,.42-.42,4.47,4.47,0,0,0,.1-1,.23.23,0,0,0-.21-.31Z"/><path d="M232.24,231.19c-.34-1.17-.84-2.43-2.51-2.43a1.71,1.71,0,0,0-1.79,1.82c0,1.08.71,1.68,2.27,2.47,2,1,3.13,1.91,3.13,3.67,0,2-1.72,3.55-4.21,3.55a9.47,9.47,0,0,1-2.93-.57c-.12-.45-.39-2.09-.52-3l.65-.16c.36,1.16,1.3,3,3.1,3a1.77,1.77,0,0,0,1.88-1.91c0-1.17-.68-1.76-2.22-2.59-1.88-1-3.05-1.9-3.05-3.71s1.43-3.29,4-3.29a11.69,11.69,0,0,1,2.51.34c.07.66.18,1.52.32,2.66Z"/><path d="M238.3,240a2,2,0,0,1-.74.21c-1.31,0-2.06-.67-2.06-2.24v-5.1h-1.18l-.1-.22.51-.62h.77v-1.5c.52-.41,1.28-.95,1.8-1.36l.25.11c0,.58-.05,1.57,0,2.75h1.89a.71.71,0,0,1-.13.84h-1.76v4.48c0,1.43.58,1.62,1,1.62a2.49,2.49,0,0,0,.95-.21l.17.58Z"/><path d="M244.35,231.82a4,4,0,0,1,4.06,4.06,4.14,4.14,0,1,1-8.28.23A4.2,4.2,0,0,1,244.35,231.82Zm-.22.68c-.89,0-1.72.9-1.72,3.07s.83,4,2.08,4c.84,0,1.64-.59,1.64-3.16C246.13,234,245.41,232.5,244.13,232.5Z"/><path d="M254.7,240v-.57c.86-.11.93-.2.93-1.44v-3c0-1.27-.56-1.83-1.39-1.83a2.56,2.56,0,0,0-1.58.68v4.31c0,1.15.09,1.21.94,1.32V240h-4.08v-.57c1-.15,1.13-.19,1.13-1.37v-3.73c0-1.11-.13-1.17-1-1.33v-.54a15.33,15.33,0,0,0,3-.69c0,.31,0,.92,0,1.34.36-.25.75-.52,1.18-.8a2.6,2.6,0,0,1,1.44-.49c1.45,0,2.36,1.06,2.36,2.87v3.41c0,1.15.11,1.21,1,1.33V240Z"/><path d="M266.65,238.32a4.11,4.11,0,0,1-3.19,1.9,3.64,3.64,0,0,1-3.69-3.91,4.69,4.69,0,0,1,1.28-3.21,3.93,3.93,0,0,1,2.77-1.28,2.9,2.9,0,0,1,2.89,2.89c0,.32,0,.58-.28.64s-2.8.22-4.69.29c0,2.09,1.24,3.07,2.53,3.07a3.15,3.15,0,0,0,2.07-.85Zm-3.22-5.78c-.76,0-1.44.82-1.6,2.26.84,0,1.64,0,2.5-.06.28,0,.38-.06.38-.36C264.73,233.46,264.24,232.54,263.43,232.54Z"/><path class="cls-20" d="M373.93,186.84c-.85.06-1-.49-1.34-1a7.19,7.19,0,0,0-8.07-3,11.45,11.45,0,0,0-5.89,3.7c-1.09,1.22-2.48,1.23-2.91.13-1.68-4.22-5.11-5.85-9.58-4.65a5,5,0,0,0-3.95,4c-.19.95-.57,1.12-1.41,1.11-2.58,0-5.17.05-7.76,0-3.68-.05-7.37-.07-11,.23-.84.07-1.41.12-.89,1.23,4.89,10.63,12.71,17.3,24.7,18.38h0l5.3,0h0c1.13-.24,2.27-.41,3.38-.72,6.8-1.86,12.92-4.9,17.58-10.38a15.45,15.45,0,0,0,3.47-7C375.84,187.21,375.49,186.74,373.93,186.84Zm.49,2.51c-2.52,6.09-7.28,9.88-13,12.7a33.58,33.58,0,0,1-14.07,3.74c-4.1.1-8-1.34-11.65-3.15-5.94-2.92-9.94-7.84-13.31-13.34-.69-1.14.14-1,.82-1,6,.11,12,.72,18,.67,1,0,1.5-.13,1.69-1.36.47-3.14,2.26-4.52,5.44-4.57s5.32,1.37,6,4.44c.2.95.54,1.32,1.48,1.32,1.22,0,2.61.52,3.39-.92,2.33-4.34,8.48-5.44,11.83-2,1,1,2,1.94,3.47,2h0c.7.42.09.81,0,1.21A.39.39,0,0,1,374.42,189.35Z"/><path class="cls-21" d="M352.56,169.88c0-2.27-2-4.06-4.64-4.06a3.85,3.85,0,0,0-4,4.05,4.07,4.07,0,0,0,4.24,4A4.43,4.43,0,0,0,352.56,169.88Zm-7.58,0a3.08,3.08,0,0,1,2.68-3.31,3.36,3.36,0,0,1,3.68,3.17,3.08,3.08,0,0,1-2.83,2.82C346.52,172.6,345,171.47,345,169.89Z"/><path class="cls-22" d="M348,180.57a2.45,2.45,0,0,0,2.75-2.22,2.36,2.36,0,0,0-2.28-2.81A2.58,2.58,0,0,0,345.8,178,2.35,2.35,0,0,0,348,180.57Zm.51-3.79c.79,0,1.14.48,1.17,1.33a1.39,1.39,0,0,1-1.45,1.35c-.76,0-1.31-.35-1.26-1.14A1.53,1.53,0,0,1,348.46,176.78Z"/><path class="cls-23" d="M348.23,188.33c-.73,0-.92.51-1,1.07a1,1,0,0,0,1,1.22c.71,0,.92-.44,1-1.08S349,188.36,348.23,188.33Z"/><path class="cls-5" d="M348.25,220a38.5,38.5,0,1,1,38.5-38.5A38.54,38.54,0,0,1,348.25,220Zm0-74a35.5,35.5,0,1,0,35.5,35.5A35.54,35.54,0,0,0,348.25,146Z"/><path class="cls-24" d="M345,155.4h0a10.12,10.12,0,0,1,4.24,2c2.25,2.1,2.89,5.31,1.46,7.61a6.51,6.51,0,0,1-7.5,2.24,10.75,10.75,0,0,1-1.21-.52c-3.23-1.69-4.1-4.76-2.22-7.93a9.37,9.37,0,0,1,3.89-3.46c-3.83-.09-7.16,5.24-5.67,9.06a7.49,7.49,0,0,0,12.37,2.32c2.08-2.26,2.71-4.87,1.68-7C350.9,157.37,347.47,155.26,345,155.4Z"/><path class="cls-24" d="M339.78,158.83c-1.88,3.17-1,6.24,2.22,7.93a10.75,10.75,0,0,0,1.21.52,6.51,6.51,0,0,0,7.5-2.24c1.43-2.3.79-5.51-1.46-7.61a10.12,10.12,0,0,0-4.24-2c-.36,1.07.56.53.85.59a6.71,6.71,0,0,1,5.15,7.19c-.41,2.62-3.23,4.38-6.44,4-4.16-.45-6.45-4.1-4.75-7.66a7.57,7.57,0,0,1,2.87-3.1c.38-.25,1.17-.26,1-1.08A9.37,9.37,0,0,0,339.78,158.83Z"/><path class="cls-14" d="M335.15,174.25c.05-2.3-2.44-5-4.71-5.11s-4.88,2.83-5,5.31c-.08,2.14,2.15,4,5,4A4.45,4.45,0,0,0,335.15,174.25Zm-8.54.07c0-1.78,2.22-4.12,3.89-4.08s3.64,1.93,3.62,3.28a3.71,3.71,0,0,1-3.56,3.61C328.57,177.1,326.63,175.72,326.61,174.32Z"/><polygon class="cls-25" points="318.06 161.26 327.54 161.26 332.28 153.05 327.54 144.84 318.06 144.84 313.32 153.05 318.06 161.26"/><path class="cls-8" d="M320.16,154.89a3.29,3.29,0,0,1,.89,0h.8a5.22,5.22,0,0,0,.58.05c0-2.19,0-3.69-.11-4.5a7.3,7.3,0,0,1,.06-2.16c0-.22.14-.32.31-.32s.27.1.37.32a4,4,0,0,1,.06,1.58c-.07.6-.11,2.29-.11,5.08h1a3.14,3.14,0,0,1,1.27.1c.28.15.29.34,0,.59a3.63,3.63,0,0,1-.95.05c-.18,0-.44,0-.8-.05H323c0,.38,0,.93.05,1.64v1h.69c1.45,0,2.13.07,2.06.22.22.21.18.35-.1.42s-1.18,0-2.7,0a18,18,0,0,0-1.8,0h-.31a2.32,2.32,0,0,1-1.11,0c-.18-.11-.27-.21-.27-.32a.43.43,0,0,1,.58-.42,13.48,13.48,0,0,0,2.28.1c0-.91.05-1.81.05-2.69a8.92,8.92,0,0,0-1.8.16q-.84.15-.84-.48C319.75,155,319.87,154.85,320.16,154.89Z"/><path d="M339.94,231.19c-.34-1.17-.84-2.43-2.51-2.43a1.71,1.71,0,0,0-1.79,1.82c0,1.08.72,1.68,2.27,2.47,2,1,3.13,1.91,3.13,3.67,0,2-1.72,3.55-4.21,3.55a9.47,9.47,0,0,1-2.93-.57c-.12-.45-.39-2.09-.52-3l.65-.16c.36,1.16,1.3,3,3.1,3a1.76,1.76,0,0,0,1.88-1.91c0-1.17-.68-1.76-2.22-2.59-1.88-1-3.05-1.9-3.05-3.71s1.43-3.29,4-3.29a11.68,11.68,0,0,1,2.5.34c.07.66.18,1.52.33,2.66Z"/><path d="M346.65,231.82a4,4,0,0,1,4.06,4.06,4.14,4.14,0,1,1-8.28.23A4.2,4.2,0,0,1,346.65,231.82Zm-.22.68c-.89,0-1.72.9-1.72,3.07s.83,4,2.08,4c.84,0,1.65-.59,1.65-3.16C348.44,234,347.71,232.5,346.43,232.5Z"/><path d="M351.81,240v-.57c1-.12,1.14-.2,1.14-1.46v-3.58c0-1.18-.08-1.25-1-1.38v-.54a16.93,16.93,0,0,0,3-.67V238c0,1.22.09,1.34,1.18,1.46V240Zm2-9.54a1.2,1.2,0,0,1-1.18-1.16,1.19,1.19,0,0,1,1.2-1.18A1.15,1.15,0,0,1,355,229.3,1.17,1.17,0,0,1,353.83,230.46Z"/><path d="M356.87,240v-.57c1.07-.15,1.14-.24,1.14-1.39V229.7c0-1-.1-1.11-1.11-1.28v-.54a15.74,15.74,0,0,0,3.12-.62V238c0,1.19.07,1.27,1.15,1.39V240Z"/></g></g></svg>