<svg xmlns="http://www.w3.org/2000/svg" viewBox="0 0 168.54 88.86"><defs><style>.cls-1{fill:#006156;}</style></defs><title>temp_musician_queue</title><g id="图层_2" data-name="图层 2"><g id="图层_1-2" data-name="图层 1"><circle class="cls-1" cx="5.09" cy="5.72" r="5.09"/><circle class="cls-1" cx="27.71" cy="5.72" r="5.09"/><circle class="cls-1" cx="50.34" cy="5.72" r="5.09"/><circle class="cls-1" cx="72.96" cy="5.09" r="5.09"/><circle class="cls-1" cx="5.09" cy="25.26" r="5.09"/><circle class="cls-1" cx="27.71" cy="25.26" r="5.09"/><circle class="cls-1" cx="50.34" cy="25.26" r="5.09"/><circle class="cls-1" cx="72.96" cy="25.26" r="5.09"/><circle class="cls-1" cx="94.13" cy="5.72" r="5.09"/><circle class="cls-1" cx="118.21" cy="5.72" r="5.09"/><circle class="cls-1" cx="140.56" cy="5.72" r="5.09"/><circle class="cls-1" cx="163.46" cy="6.09" r="5.09"/><circle class="cls-1" cx="94.13" cy="25.26" r="5.09"/><circle class="cls-1" cx="118.21" cy="25.26" r="5.09"/><circle class="cls-1" cx="140.56" cy="25.26" r="5.09"/><circle class="cls-1" cx="163.46" cy="25.26" r="5.09"/><circle class="cls-1" cx="5.09" cy="44.89" r="5.09"/><circle class="cls-1" cx="27.71" cy="44.89" r="5.09"/><circle class="cls-1" cx="50.34" cy="44.89" r="5.09"/><circle class="cls-1" cx="72.96" cy="44.89" r="5.09"/><circle class="cls-1" cx="5.09" cy="64.24" r="5.09"/><circle class="cls-1" cx="27.71" cy="64.24" r="5.09"/><circle class="cls-1" cx="50.34" cy="64.24" r="5.09"/><circle class="cls-1" cx="72.96" cy="64.6" r="5.09"/><circle class="cls-1" cx="94.13" cy="44.89" r="5.09"/><circle class="cls-1" cx="118.21" cy="44.89" r="5.09"/><circle class="cls-1" cx="140.56" cy="44.89" r="5.09"/><circle class="cls-1" cx="163.46" cy="44.89" r="5.09"/><circle class="cls-1" cx="94.13" cy="63.33" r="5.09"/><circle class="cls-1" cx="118.21" cy="63.33" r="5.09"/><circle class="cls-1" cx="140.56" cy="63.33" r="5.09"/><circle class="cls-1" cx="163.46" cy="62.69" r="5.09"/><circle class="cls-1" cx="5.09" cy="83.77" r="5.09"/><circle class="cls-1" cx="27.71" cy="83.77" r="5.09"/><circle class="cls-1" cx="50.34" cy="83.77" r="5.09"/><circle class="cls-1" cx="72.96" cy="83.77" r="5.09"/><circle class="cls-1" cx="94.13" cy="83.77" r="5.09"/><circle class="cls-1" cx="118.21" cy="83.77" r="5.09"/><circle class="cls-1" cx="140.56" cy="83.77" r="5.09"/><circle class="cls-1" cx="163.46" cy="83.77" r="5.09"/></g></g></svg>