<svg xmlns="http://www.w3.org/2000/svg" viewBox="0 0 230 230"><defs><style>.cls-1{fill:#eab6b2;opacity:0.3;}.cls-2{fill:#c42c2c;}.cls-3{font-size:48.8px;font-family:Arial-Black, Arial;font-weight:800;}.cls-3,.cls-4{fill:#fff;}</style></defs><title>temp_prop</title><g id="图层_2" data-name="图层 2"><g id="图层_1-2" data-name="图层 1"><circle class="cls-1" cx="115" cy="115" r="115"/><circle class="cls-2" cx="115" cy="115" r="98.43"/><text class="cls-3" transform="translate(83.44 110.69)">98</text><path class="cls-4" d="M87.53,128a9.85,9.85,0,0,1,5.4,1.23,5,5,0,0,1,2.34,4.5c0,4.35-3.69,6.18-6.9,6.21a7.52,7.52,0,0,1-.9-.06l-1.73-.45v4.08c0,2.52.2,2.64,2.81,2.88v1.11H79v-1.11c2.25-.27,2.55-.36,2.55-2.88V132.07c0-2.52-.3-2.79-2.55-2.94V128Zm-1.79,10.17a3.76,3.76,0,0,0,1.58.3c1.38,0,3.63-.81,3.63-4.77,0-3.36-1.83-4.47-3.78-4.47a1.85,1.85,0,0,0-1.17.3c-.21.18-.26.48-.26.93Z"/><path class="cls-4" d="M105,147.52H97.11v-1c1.58-.18,1.73-.33,1.73-2.13V137.8c0-1.5-.12-1.65-1.52-2v-.93a29,29,0,0,0,5.39-1.14V137c1.35-2.07,2.43-3.18,3.66-3.18a1.82,1.82,0,0,1,1.95,1.8,2.92,2.92,0,0,1-1.53,2.55.82.82,0,0,1-.93-.15c-.51-.42-.9-.9-1.41-.9s-1.2.39-1.74,1.53v5.7c0,1.8.21,1.89,2.31,2.13Z"/><path class="cls-4" d="M116.57,133.84a6.67,6.67,0,0,1,6.9,6.78,7.07,7.07,0,1,1-14.13.33A7.08,7.08,0,0,1,116.57,133.84Zm-.36,1.2c-1.29,0-2.55,1.35-2.55,5s1.23,6.57,3.12,6.57c1.14,0,2.37-.78,2.37-5.16C119.15,137.32,118.07,135,116.21,135Z"/><path class="cls-4" d="M125.28,134.89a50.86,50.86,0,0,0,5.51-1.35v2.16c.06,0,2-1.2,2.1-1.23a3.86,3.86,0,0,1,2-.63c3.3,0,5.19,3,5.19,5.91,0,4.38-3.48,7.29-7.35,8.13a5.49,5.49,0,0,1-1.89-.27v3.6c0,1.68.15,1.86,2.22,2.13v1h-8v-1c1.83-.18,2-.45,2-2.1V137.86c0-1.62-.18-1.8-1.64-2Zm5.51,10.44a4.12,4.12,0,0,0,2.46,1.11c1.59,0,2.76-1.95,2.76-5.19,0-3.69-1.83-5.1-3.33-5.1a3.26,3.26,0,0,0-1.89.66Z"/><path class="cls-4" d="M150.5,138.1c-.78-2.1-1.8-3.06-3.21-3.06a1.54,1.54,0,0,0-1.59,1.59c0,1.05.75,1.62,2.31,2.31,2.43,1.08,4.08,2.1,4.08,4.47,0,3-2.85,4.47-5.46,4.47a9.94,9.94,0,0,1-3.81-.9c-.12-.69-.39-2.76-.48-3.81l1-.18c.63,1.89,1.86,3.66,3.81,3.66a1.52,1.52,0,0,0,1.71-1.56c0-.93-.45-1.62-2.31-2.52s-3.9-2-3.9-4.5,2-4.23,5.13-4.23a13.83,13.83,0,0,1,3.24.45c.09.81.36,2.73.48,3.54Z"/></g></g></svg>