<svg xmlns="http://www.w3.org/2000/svg" viewBox="0 0 285.39 285.39"><defs><style>.cls-1{opacity:0.3;}.cls-2{fill:#eab6b2;}.cls-3{fill:#c42c2c;}</style></defs><title>temp_instrument</title><g id="图层_2" data-name="图层 2"><g id="图层_1-2" data-name="图层 1"><g class="cls-1"><circle class="cls-2" cx="142.69" cy="142.69" r="142.69"/></g><path class="cls-3" d="M142.69,264.44A121.75,121.75,0,1,1,264.44,142.69,121.89,121.89,0,0,1,142.69,264.44Zm0-240.5A118.75,118.75,0,1,0,261.44,142.69,118.88,118.88,0,0,0,142.69,23.94Z"/><path class="cls-3" d="M102.22,86.21l-.11,52.67-14.55,0,.07-34.52a43.51,43.51,0,0,1-6.85,4.33,52.92,52.92,0,0,1-8.29,3.17l0-11.8a35,35,0,0,0,11.43-5.67,23,23,0,0,0,6.37-8.18Z"/><path class="cls-3" d="M142.51,129.28l-26.21-.05,0-11.84,26.28-31.1,12.54,0-.07,31.83,6.5,0,0,11.16h-6.5l0,9.68-12.54,0Zm0-11.16,0-16.3-13.89,16.27Z"/><path class="cls-3" d="M207.75,99l-14.31,1.74a7.62,7.62,0,0,0-1.88-4.24,4.58,4.58,0,0,0-3.27-1.24q-3.49,0-5.44,3.52-1.42,2.54-2.11,10.87a18.36,18.36,0,0,1,5.31-3.86,15,15,0,0,1,6.29-1.24,15.7,15.7,0,0,1,11.7,5A17.34,17.34,0,0,1,208.8,122a18.55,18.55,0,0,1-2.44,9.35,15.74,15.74,0,0,1-6.73,6.4,23.71,23.71,0,0,1-10.76,2.15q-7.77,0-12.46-2.67a18.62,18.62,0,0,1-7.49-8.48q-2.8-5.82-2.78-15.39,0-14,5.94-20.53t16.37-6.49a27.27,27.27,0,0,1,9.77,1.45,15,15,0,0,1,5.94,4.2A18.51,18.51,0,0,1,207.75,99Zm-26.54,23a9.59,9.59,0,0,0,2.1,6.59,6.72,6.72,0,0,0,5.19,2.4,6.05,6.05,0,0,0,4.74-2.15q1.92-2.14,1.92-6.42c0-2.92-.65-5.15-2-6.69a6.22,6.22,0,0,0-4.91-2.3,6.53,6.53,0,0,0-5,2.21A9.12,9.12,0,0,0,181.21,122Z"/><path class="cls-3" d="M68.33,180v-1.11c2.28-.21,2.55-.39,2.55-2.91V164.59c0-2.52-.3-2.76-2.55-2.94v-1.11H77.6v1.11c-2.25.21-2.55.42-2.55,2.94V176c0,2.49.27,2.67,2.55,2.91V180Z"/><path class="cls-3" d="M87.41,180v-1c1.26-.18,1.35-.3,1.35-2.37v-5.13c0-2.13-1.05-2.79-2.1-2.79a3.67,3.67,0,0,0-2.25.9v7.26c0,1.83.12,2,1.35,2.13v1h-7v-1c1.56-.27,1.74-.3,1.74-2.25v-6.24c0-1.8-.24-1.89-1.56-2.16v-1a31.32,31.32,0,0,0,5.49-1.14c0,.42-.06,1.47-.06,2.16.6-.42,1.23-.87,1.92-1.29a4.11,4.11,0,0,1,2.34-.78c2.43,0,4,1.77,4,4.83v5.67c0,1.86.18,1.95,1.62,2.16v1Z"/><path class="cls-3" d="M104.12,170.62c-.78-2.1-1.8-3.06-3.21-3.06a1.54,1.54,0,0,0-1.59,1.59c0,1,.75,1.62,2.31,2.31,2.43,1.08,4.08,2.1,4.08,4.47,0,3-2.85,4.47-5.46,4.47a9.94,9.94,0,0,1-3.81-.9c-.12-.69-.39-2.76-.48-3.81l1-.18c.63,1.89,1.86,3.66,3.81,3.66a1.52,1.52,0,0,0,1.71-1.56c0-.93-.45-1.62-2.31-2.52s-3.9-2-3.9-4.5,1.95-4.23,5.13-4.23a13.83,13.83,0,0,1,3.24.45c.09.81.36,2.73.48,3.54Z"/><path class="cls-3" d="M113.54,180.07a3.28,3.28,0,0,1-1.2.33c-2.31,0-3.69-1.08-3.69-3.81v-8.37h-1.92l-.18-.36.87-1.14h1.23v-2.49c1-.72,2.49-1.68,3.54-2.4l.39.24c0,.81-.09,2.4-.06,4.65h3a1.29,1.29,0,0,1-.24,1.5h-2.76v7.35c0,2.34,1,2.61,1.53,2.61a3.65,3.65,0,0,0,1.44-.3l.3,1.08Z"/><path class="cls-3" d="M124.79,180h-7.92v-1c1.59-.18,1.74-.33,1.74-2.13v-6.57c0-1.5-.12-1.65-1.53-1.95v-.93a28.89,28.89,0,0,0,5.4-1.14v3.24c1.35-2.07,2.43-3.18,3.66-3.18a1.82,1.82,0,0,1,2,1.8,2.92,2.92,0,0,1-1.53,2.55.82.82,0,0,1-.93-.15c-.51-.42-.9-.9-1.41-.9s-1.2.39-1.74,1.53v5.7c0,1.8.21,1.89,2.31,2.13Z"/><path class="cls-3" d="M145,179.32c-1.8.24-3.72.63-5.7,1.08v-2c-1.23,1-2.49,2-4.14,2-2.52,0-3.93-1.62-3.93-4.29V169.9c0-1.38-.18-1.53-1-1.74l-.63-.18v-1c1.53-.06,3.9-.27,5.58-.51-.06,1.26-.09,2.82-.09,4.53v4.38c0,2,1,2.61,2,2.61a2.69,2.69,0,0,0,2.16-.87v-7.23c0-1.38-.15-1.62-1-1.77l-.9-.18v-1a56.2,56.2,0,0,0,5.79-.51v9.78c0,1.56.18,1.89,1.14,2l.66.06Z"/><path class="cls-3" d="M162.89,180v-1c1.2-.18,1.41-.3,1.41-2.13V171.7c0-2.49-1.17-2.94-2.1-2.94a3.42,3.42,0,0,0-2.22.93c0,.36.06.81.06,1.26V177c0,1.68.09,1.83,1.47,2v1h-6.75v-1c1.32-.18,1.44-.27,1.44-2v-5.46c0-2.13-.84-2.82-1.95-2.82a3.77,3.77,0,0,0-2.31.9V177c0,1.68.18,1.83,1.29,2v1h-6.87v-1c1.65-.21,1.74-.33,1.74-2.13v-6.36c0-1.68,0-1.95-1.44-2.16v-1a31.63,31.63,0,0,0,5.28-1.14v2.25c.66-.45,1.2-.84,1.83-1.23a4.76,4.76,0,0,1,2.55-.93,3.44,3.44,0,0,1,3.36,2.28c.72-.54,1.32-1,2.07-1.47a4.59,4.59,0,0,1,2.4-.81c2.61,0,4,1.77,4,4.83V177c0,1.65.15,1.77,1.62,2v1Z"/><path class="cls-3" d="M183.35,177.1a6.86,6.86,0,0,1-5.49,3.3c-4,0-6.3-3-6.3-6.54a7.89,7.89,0,0,1,2.25-5.4,6.72,6.72,0,0,1,4.68-2.1,4.92,4.92,0,0,1,4.95,4.89c0,.51,0,1-.39,1.11-.57.15-4.8.36-7.71.48.12,3.18,1.89,4.8,4,4.8a5.17,5.17,0,0,0,3.42-1.35Zm-5.46-9.51c-1.2,0-2.22,1.41-2.4,3.78l3.63-.09c.42,0,.6-.09.6-.6C179.75,169.18,179.06,167.59,177.89,167.59Z"/><path class="cls-3" d="M193.85,180v-1c1.26-.18,1.35-.3,1.35-2.37v-5.13c0-2.13-1-2.79-2.1-2.79a3.67,3.67,0,0,0-2.25.9v7.26c0,1.83.12,2,1.35,2.13v1h-7v-1c1.56-.27,1.74-.3,1.74-2.25v-6.24c0-1.8-.24-1.89-1.56-2.16v-1a31.32,31.32,0,0,0,5.49-1.14c0,.42-.06,1.47-.06,2.16.6-.42,1.23-.87,1.92-1.29a4.11,4.11,0,0,1,2.34-.78c2.43,0,4,1.77,4,4.83v5.67c0,1.86.18,1.95,1.62,2.16v1Z"/><path class="cls-3" d="M208.4,180.07a3.28,3.28,0,0,1-1.2.33c-2.31,0-3.69-1.08-3.69-3.81v-8.37h-1.92l-.18-.36.87-1.14h1.23v-2.49c1-.72,2.49-1.68,3.54-2.4l.39.24c0,.81-.09,2.4-.06,4.65h3a1.29,1.29,0,0,1-.24,1.5h-2.76v7.35c0,2.34,1,2.61,1.53,2.61a3.65,3.65,0,0,0,1.44-.3l.3,1.08Z"/><path class="cls-3" d="M220.13,170.62c-.78-2.1-1.8-3.06-3.21-3.06a1.54,1.54,0,0,0-1.59,1.59c0,1,.75,1.62,2.31,2.31,2.43,1.08,4.08,2.1,4.08,4.47,0,3-2.85,4.47-5.46,4.47a9.94,9.94,0,0,1-3.81-.9c-.12-.69-.39-2.76-.48-3.81l1-.18c.63,1.89,1.86,3.66,3.81,3.66a1.52,1.52,0,0,0,1.71-1.56c0-.93-.45-1.62-2.31-2.52s-3.9-2-3.9-4.5,1.95-4.23,5.13-4.23a13.83,13.83,0,0,1,3.24.45c.09.81.36,2.73.48,3.54Z"/></g></g></svg>