<svg xmlns="http://www.w3.org/2000/svg" viewBox="0 0 51.31 51.31"><defs><style>.cls-1{fill:#1a2f46;}.cls-2{fill:#1f334a;}.cls-3{fill:#fefefe;}.cls-4{fill:none;stroke:#f8d069;stroke-miterlimit:10;stroke-width:3px;}</style></defs><title>五官端正</title><g id="图层_2" data-name="图层 2"><g id="图层_1-2" data-name="图层 1"><path class="cls-1" d="M15.48,37c-.35.25-.73.12-1.09.07s-.56,0-.52.43a1.18,1.18,0,0,1-.35,1.11c-.29.27,0,1.28.47,1.59a7,7,0,0,0,2.64,1.06,16.58,16.58,0,0,0,4.16.32,5.54,5.54,0,0,1,2.44.28,9.6,9.6,0,0,1-1.34.54c1.51,1.15,1.88,2.91,2.64,4.45a1.12,1.12,0,0,1,.09.36.42.42,0,0,1-.39.5.44.44,0,0,1-.54-.33c-.34-.89-.69-1.77-1-2.66a5.9,5.9,0,0,0-1.09-1.69,1.19,1.19,0,0,0-1.15-.45,8.55,8.55,0,0,1-2.9-.11A9.66,9.66,0,0,1,14,41.22,2.07,2.07,0,0,1,12.89,39c.11-.54-.22-1-.17-1.52,0-.18-.24-.27-.44-.28a1,1,0,0,1-.45-.11.39.39,0,0,1-.2-.4c0-.16.13-.21.28-.26.47-.16,1,0,1.44-.17l0,0a.21.21,0,0,0,0-.07c-.42-.12-.81-.31-1.24-.4s-.42-.38-.08-.71a4,4,0,0,0,.8-1.37A21,21,0,0,1,10.37,33c-1-.41-1.23-1-.61-1.89a41.71,41.71,0,0,0,2.93-4.65,14.54,14.54,0,0,1,.91-1.7.74.74,0,0,0,.08-.5,11.08,11.08,0,0,1,1.13-5.66,11.38,11.38,0,0,1,4.29-4.7,13.67,13.67,0,0,1,6.21-2,14.72,14.72,0,0,1,5.41.37c.16,0,.31.12.35-.18C31.4,10,32.71,9.25,34.58,9a5.21,5.21,0,0,1,5.17,2.21,4,4,0,0,1,.68,3.27,3.35,3.35,0,0,1-1.76,2.06c-.36.22-.32.34-.05.57a5.11,5.11,0,0,0,1.77.82c.6.22,1.23.38,1.84.55.16,0,.29.07.26.25s-.18.15-.31.14A7.07,7.07,0,0,1,40,18.32s-.11,0-.12,0,0,.06.06.07c.23.41.69.63.93,1.2-1.16-.57-1.72-1.74-2.89-2.22a13.35,13.35,0,0,1,.53,8.93c-.22.95-.52,1.87-.81,2.79a14,14,0,0,1-1,2.12A13.29,13.29,0,0,0,35.57,35a13.76,13.76,0,0,0,1,7.76A6,6,0,0,0,37.93,45c.25.24.16.39,0,.59s-.35,0-.46-.08a6,6,0,0,1-1.55-2.17,14,14,0,0,1-1.21-5.26,15.88,15.88,0,0,1,1.35-7c.18-.41.35-.84.52-1.26.07-.18,0-.29-.19-.29a5.59,5.59,0,0,1-2.65-.65A3.3,3.3,0,0,1,32,31.06a2.68,2.68,0,0,0-1.16,2c-.17,1.07-.52,1.73-1.36,1.93a2,2,0,0,1-2.42-1,1.13,1.13,0,0,1-.1-.95c0-.1.08-.25.24-.26s.22.12.27.23a2,2,0,0,0,.56.81,1,1,0,0,0,1.8-.49,7.1,7.1,0,0,1,.73-1.77c.21-.3-.15-.26-.18-.4a2.33,2.33,0,0,1,.81-.55,3.88,3.88,0,0,0,1.36-1.34,1.42,1.42,0,0,0-.43-1.95,2.19,2.19,0,0,1-.56-.43,2.34,2.34,0,0,0-2.15-.67,1.48,1.48,0,0,0-1.17.7c-.1.13-.18.27-.28.39s-.18.25-.34.16a.35.35,0,0,1-.17-.4A2,2,0,0,1,29,25.55l.65-.11A10.82,10.82,0,0,1,27.06,23a.22.22,0,0,0-.32-.09,8.56,8.56,0,0,1-4.14.3c-2.28-.12-4.53-.6-6.79-.91a3.25,3.25,0,0,1-1.39-.43,24.81,24.81,0,0,0-.31,3.17c-.25.11-.23.34-.23.56a29,29,0,0,1-3.25,5.64s-.07.1-.1.16c-.33.51-.33.52.25.72a10,10,0,0,0,2.1.45c.16,0,.35.09.35-.2a.22.22,0,0,1,.27-.2.28.28,0,0,1,.24.26,1.61,1.61,0,0,1-.09.87,6.51,6.51,0,0,1-1,1.95l2.51.52.36.08c.21.07.43.14.47.4s-.15.39-.35.49S15.48,36.9,15.48,37ZM38.11,16l-.12,0,0,0,.1-.06,0-.05Zm1.13-1.18a.72.72,0,0,0,.48-1c-.15.18-.09.46-.31.56a4.08,4.08,0,0,0-.85-3.27,2.38,2.38,0,0,0-.53-.47.48.48,0,0,0-.53.08c-.09.06-.08.16,0,.25a5.58,5.58,0,0,1,.84,2.36,4.11,4.11,0,0,1,.1,1.94c-.05.16,0,.24.15.3s.21,0,.25-.12A2.18,2.18,0,0,1,39.24,14.84Zm-2,12.9c0-.16-.06-.19-.15-.23-.26-.13-.51-.25-.76-.39a16.25,16.25,0,0,1-6.53-5.88,10.37,10.37,0,0,1-1.15-2.67c0-.11-.05-.3-.2-.27s-.11.23-.07.35c.14.43.27.87.44,1.29a14.31,14.31,0,0,0,4.71,5.77,19.38,19.38,0,0,0,3.39,2C37,27.79,37.18,27.93,37.26,27.74Zm-6.84-8.11s-.09,0-.1.07,0,.18.05.26c.31.49.6,1,.94,1.46a12.1,12.1,0,0,0,5.2,4.27c.13.06.33.21.42,0s-.16-.22-.29-.27a11.35,11.35,0,0,1-3.12-2A13.77,13.77,0,0,1,30.72,20,.66.66,0,0,0,30.42,19.63ZM15.49,21c.22-.05.21-.26.25-.41a10.55,10.55,0,0,1,3.55-5.41c.11-.09.34-.18.22-.35s-.27,0-.38.12a10.62,10.62,0,0,0-3.34,4.57c-.15.38-.26.77-.38,1.16C15.37,20.82,15.32,21,15.49,21Zm16.56-1.28c-.21.17-.06.28,0,.39,1.21,1.52,2.93,2.39,4.49,3.46.07,0,.15.08.21,0s0-.17-.06-.23l-.24-.16c-1.47-1-3.11-1.84-4.24-3.31A.72.72,0,0,0,32.05,19.75Zm6.41-3.89,0-.08-.08,0s0,.06,0,.08Z"/><path class="cls-2" d="M17.4,25.74l3.17.6c.37.07.74.14,1.11.23s.69.42.58.74-.49.46-1,.29l-.84-.3c-.32-.13-.41-.06-.33.3.17.77-.1,1.27-.75,1.44a.92.92,0,0,1-1.26-.8,4.9,4.9,0,0,1-.1-1.32c0-.22,0-.33-.28-.37a6.14,6.14,0,0,1-.8-.25c-.14,0-.3-.1-.29-.25s.16-.23.31-.25S17.25,25.76,17.4,25.74Z"/><path class="cls-2" d="M33,39.37a.21.21,0,0,1,.15.18,18.78,18.78,0,0,0,2.47,5.17c.1.17.31.34.08.52s-.42,0-.53-.21a13.11,13.11,0,0,1-2-4.66A2.43,2.43,0,0,1,33,39.37Z"/><path class="cls-2" d="M32.68,44.56A16,16,0,0,0,34,46.05c.11.1.19.24.08.36s-.25,0-.33-.06A4.4,4.4,0,0,1,32.68,44.56Z"/><path class="cls-2" d="M33.68,44.21c.22.31.43.61.66.91s.29.33.43.5.19.2,0,.32-.25,0-.32-.08a3.43,3.43,0,0,1-.37-.54c-.19-.35-.35-.7-.53-1.06Z"/><path class="cls-2" d="M13.88,25.64c0-.22,0-.45.23-.56C14.07,25.28,14.39,25.64,13.88,25.64Z"/><path class="cls-2" d="M15.48,37c0-.14,0-.27.21-.26C15.67,36.91,15.63,37,15.48,37Z"/><path class="cls-2" d="M13.34,36.11a.21.21,0,0,1,0,.07l0,0Z"/><path class="cls-2" d="M39.24,14.84a.88.88,0,0,1,.17-.41c.22-.1.16-.38.31-.56A.72.72,0,0,1,39.24,14.84Z"/><path class="cls-2" d="M38.46,15.86l-.08,0s0-.06,0-.08l.08,0Z"/><path class="cls-2" d="M38.12,16l-.1.06,0,0,.12,0Z"/><path class="cls-2" d="M38.11,16l0,0,0,.05Z"/><path class="cls-3" d="M39.9,18.39s-.09,0-.06-.07.08,0,.12,0Z"/><circle class="cls-4" cx="25.66" cy="25.66" r="24.16"/></g></g></svg>