<svg xmlns="http://www.w3.org/2000/svg" viewBox="0 0 50.46 50.46"><defs><style>.cls-1{fill:none;stroke:#e3494e;stroke-miterlimit:10;stroke-width:3px;}.cls-2{fill:#1a2f47;}</style></defs><title>名人引荐</title><g id="图层_2" data-name="图层 2"><g id="图层_1-2" data-name="图层 1"><circle class="cls-1" cx="25.23" cy="25.23" r="23.73"/><path class="cls-2" d="M33.33,37.66a7.37,7.37,0,0,1-5.23-2.14,7.24,7.24,0,0,1,0-10.34,7.46,7.46,0,0,1,10.46,0,7.27,7.27,0,0,1,0,10.34,7.39,7.39,0,0,1-5.23,2.14Zm0-13.59a6.35,6.35,0,0,0-4.5,1.84,6.23,6.23,0,0,0,0,8.88,6.42,6.42,0,0,0,9,0,6.23,6.23,0,0,0,0-8.88,6.35,6.35,0,0,0-4.5-1.84ZM21,21.53A2.8,2.8,0,0,1,20,21.34l-2.71-1.16c-.55-.23-.63-.57-.63-.75s.08-.52.63-.75L20,17.52a3.06,3.06,0,0,1,2.15,0l2.71,1.16c.54.23.62.57.62.75s-.08.52-.62.75l-2.71,1.16a2.85,2.85,0,0,1-1.08.19Zm-3.46-2.1,0,0,2.71,1.15a2.25,2.25,0,0,0,1.45,0l2.71-1.15s0,0,0,0h0l-2.71-1.15a2.12,2.12,0,0,0-1.45,0L17.6,19.42ZM24.9,34a20,20,0,0,1-3.71.34c-5.43,0-9.22-2-9.22-3.84a1.65,1.65,0,0,1,.54-1.28v0h0a.58.58,0,0,0,.14-.39.56.56,0,0,0-.51-.59.46.46,0,0,0-.36.17h0a3.16,3.16,0,0,0-.89,2.12c0,2.89,4.42,5.06,10.28,5.06a21.08,21.08,0,0,0,4.29-.42A9.25,9.25,0,0,1,24.9,34Z"/><path class="cls-2" d="M21.19,30.2A22,22,0,0,0,24.31,30a8.9,8.9,0,0,1,.24-1.27,20.64,20.64,0,0,1-3.37.27C15.75,29,12,27,12,25.14a1.67,1.67,0,0,1,.54-1.28l0,0h0a.67.67,0,0,0,.14-.4.55.55,0,0,0-.51-.58.46.46,0,0,0-.36.17h0a3.15,3.15,0,0,0-.88,2.12c0,2.88,4.43,5.06,10.29,5.06Zm0-5.39c5.88,0,10.31-2.19,10.31-5.1s-4.43-5.09-10.31-5.09-10.31,2.19-10.31,5.09,4.43,5.1,10.31,5.1Zm0-9.15c5.42,0,9.19,2.25,9.19,4.05s-3.77,3.89-9.19,3.89S12,21.51,12,19.71s3.78-4.05,9.2-4.05Z"/></g></g></svg>