<svg xmlns="http://www.w3.org/2000/svg" viewBox="0 0 50.63 50.63"><defs><style>.cls-1{fill:none;stroke:#e3494e;stroke-miterlimit:10;stroke-width:3px;}.cls-2{fill:#25394f;}.cls-3{fill:#293c52;}.cls-4{fill:#fcfcfd;}</style></defs><title>理解能力</title><g id="图层_2" data-name="图层 2"><g id="图层_1-2" data-name="图层 1"><circle class="cls-1" cx="25.32" cy="25.32" r="23.82"/><path class="cls-2" d="M38,22.06a.24.24,0,0,0,0,.26c.12.07.14.14,0,.23a1.09,1.09,0,0,0,.08.59l.3.22a3.07,3.07,0,0,0,0-1.17c-.09-.06-.09-.13,0-.2a1.43,1.43,0,0,0-.05-.71c-.24-.15-.12-.36-.1-.56a.23.23,0,0,0,0-.24c-.12-.06-.16-.13,0-.23a.23.23,0,0,0-.06-.24,5.88,5.88,0,0,1-.59-1.82l-.08-.27a3,3,0,0,1-.74-1.45,1.19,1.19,0,0,0-.39-.64c-.17,0-.21-.13-.19-.28V15.5l0,0a.2.2,0,0,1-.19-.26l-.16-.2a.32.32,0,0,1-.31-.37,1.21,1.21,0,0,0-.49-.56,1.71,1.71,0,0,1-.92-.91.73.73,0,0,0-.44-.37.32.32,0,0,1-.36-.3.07.07,0,0,0-.09,0c-.15,0-.24,0-.26-.2a.24.24,0,0,0-.21-.15c-.27,0-.52-.09-.6-.4l-.16-.08c-.3,0-.56-.06-.66-.39A13.88,13.88,0,0,0,23,9.76a11.89,11.89,0,0,0-3.48.79A11.29,11.29,0,0,0,13,18.26a17.21,17.21,0,0,0,1.2,12.07,12.67,12.67,0,0,0,1.23,2.3,5.4,5.4,0,0,1,.89,2.88A9.73,9.73,0,0,1,14.53,42,17,17,0,0,0,13.4,43.9a2,2,0,0,0,1.92-1,9.52,9.52,0,0,0,2.1-6.53c0-.4,0-.81-.05-1.21a7.93,7.93,0,0,0-1.07-3.55,17.13,17.13,0,0,1-2.6-9.19,12,12,0,0,1,3.37-8.8c.45-.45,1-.83,1.44-1.25,0-.17.13-.21.28-.19l.3-.17c0-.17.14-.19.28-.17a.63.63,0,0,0,.41-.19,6,6,0,0,1,2.76-.84.23.23,0,0,0,.25,0,.3.3,0,0,1,.47,0,.37.37,0,0,0,.35,0c.25-.28.53-.19.81-.05h.82c.2-.14.4-.2.58,0a.89.89,0,0,0,.58.07c.09-.11.17-.09.23,0a.44.44,0,0,0,.37,0c.2,0,.42-.13.56.12l.24,0a.6.6,0,0,1,.8.23l.27.06a2.82,2.82,0,0,1,1.7.73l.16.08c.15,0,.27,0,.3.18a1.08,1.08,0,0,0,.52.29c.14,0,.27,0,.3.17s0,.06.07.05.25,0,.27.19,0,.06.08,0a.32.32,0,0,1,.39.29s0,.07.07.06a.34.34,0,0,1,.4.31.19.19,0,0,0,.18.16c.25,0,.38.09.38.35a.11.11,0,0,0,.12.1.87.87,0,0,1,.7.71l.83,1c.17,0,.22.11.2.26l.29.43c.33.08.39.34.41.62a.05.05,0,0,0,0,.08c.22,0,.25.21.33.36a12.94,12.94,0,0,1,1.16,3.07A2.59,2.59,0,0,1,38,22.06Z"/><path class="cls-3" d="M38.39,23.36l-.3-.22c-.05.19-.15.25-.33.12s-.35-.19-.51,0-.06.37,0,.55a13.29,13.29,0,0,0,1,1.76c.79,1.26,1.61,2.5,2.35,3.79.22.4.15.64-.24.83a3.46,3.46,0,0,1-2.1.67c-.43-.06-.41.32-.3.62.18.47.36.94.57,1.39s.1.53-.27.69A11.74,11.74,0,0,0,36,34.7c-.23.17-.44.35-.35.66s.39.4.69.39l1.1,0c.31,0,.41.1.25.37a3.13,3.13,0,0,0-.18,2.25c.19,1.15.09,1.32-1,1.73a37,37,0,0,1-5.41,1.29c-.62.12-1.24.27-1.87.4-1.75.35-2.37,2.33-2.47,3.55a.49.49,0,0,0,.53.55c.35,0,.4-.28.41-.58a4.84,4.84,0,0,1,.53-2,.81.81,0,0,1,.72-.46c2.8-.46,5.63-.78,8.24-2a1.69,1.69,0,0,0,1.19-2.11c0-.39-.09-.77-.15-1.15A2.06,2.06,0,0,1,38.63,36a1,1,0,0,1,.9-.42c.19,0,.48-.14.32-.31s0-.8-.58-.58c-.27.11-.51.3-.85.16.19-.39.63-.4.93-.57.59-.32.61-.71.38-1.25-.14-.31-.52-.64-.38-.92s.59-.29.89-.46c.53-.29,1-.59,1.55-.91A.83.83,0,0,0,42,29.48a52,52,0,0,0-3.19-4.76A1.81,1.81,0,0,1,38.39,23.36Z"/><path class="cls-3" d="M27.12,28.09a9.32,9.32,0,0,1-1.49-.94c-.34-.22-.67-.48,0-.71a2.59,2.59,0,0,0,.35-.23l-1.25-.08a9.2,9.2,0,0,1-4.46-1.47,3.36,3.36,0,0,1-1.58-4.18,4.63,4.63,0,0,1,2-2.73,9.65,9.65,0,0,1,4.52-1.66,2.2,2.2,0,0,0,.37-.07s.05-.06.16-.2a10.19,10.19,0,0,0-1.47,0c-2.61.39-4.89,1.34-6.11,3.9a4.71,4.71,0,0,0-.36,2.91A2.86,2.86,0,0,0,19,24.59a9.71,9.71,0,0,0,4.62,2.07.62.62,0,0,1,.42.23,13.92,13.92,0,0,0,3.45,2.44,1.54,1.54,0,0,0,.47.16c.5.08.74-.2.56-.67a6.31,6.31,0,0,0-.38-.73,4.57,4.57,0,0,1-.69-1.62c0-.13-.06-.27-.2-.28s-.24.14-.28.29a2.25,2.25,0,0,0,.27,1.46c.05.06.08.14,0,.2S27.17,28.11,27.12,28.09Z"/><path class="cls-3" d="M27.83,25.69a1.37,1.37,0,0,0,1.45-.16A4.89,4.89,0,0,0,31,19.23a6,6,0,0,0-2.91-3A1.27,1.27,0,0,0,27,16.06a.3.3,0,0,0-.21.29c0,.1.08.13.17.14a4.66,4.66,0,0,1,3,2.64,4,4,0,0,1-.79,5.24C28.81,24.82,28.33,25.23,27.83,25.69Z"/><path class="cls-2" d="M35,25.88c0-.44-.1-.92-.17-1.39s-.41-.61-.85-.54-.68.25-.65.76a7.93,7.93,0,0,0,.11,2.12.93.93,0,0,0,1,.7c.51-.07.57-.44.57-.86C35,26.42,35,26.17,35,25.88Z"/><path class="cls-3" d="M27.24,22.3a.8.8,0,0,0,.81-.92c0-.65-.35-1-.9-1a.85.85,0,0,0-.83,1A.87.87,0,0,0,27.24,22.3Z"/><path class="cls-3" d="M23.5,21.31c0,.56.3,1,.8.94a.74.74,0,0,0,.82-.77,1,1,0,0,0-.81-1.1A.85.85,0,0,0,23.5,21.31Z"/><path class="cls-3" d="M22.57,21.55a1.13,1.13,0,0,0-1-1c-.5,0-.68.37-.67.82a.92.92,0,0,0,.95,1A.78.78,0,0,0,22.57,21.55Z"/><path class="cls-3" d="M38,22.06a2.59,2.59,0,0,0-.19-1.29,12.94,12.94,0,0,0-1.16-3.07c-.08-.15-.11-.34-.33-.36A19.82,19.82,0,0,1,38,22.06Z"/><path class="cls-3" d="M22.54,10.76a6,6,0,0,0-2.76.84Z"/><path class="cls-3" d="M30.57,11.94a2.82,2.82,0,0,0-1.7-.73Z"/><path class="cls-3" d="M37.55,18.19A5.88,5.88,0,0,0,38.14,20,4.49,4.49,0,0,0,37.55,18.19Z"/><path class="cls-3" d="M36.73,16.47a3,3,0,0,0,.74,1.45A4.63,4.63,0,0,0,36.73,16.47Z"/><path class="cls-3" d="M34,13.18a1.71,1.71,0,0,0,.92.91A2.59,2.59,0,0,0,34,13.18Z"/><path class="cls-3" d="M34.51,14.92a.87.87,0,0,0-.7-.71A2.63,2.63,0,0,0,34.51,14.92Z"/><path class="cls-3" d="M24.42,10.6c-.28-.14-.56-.23-.81.05A2.22,2.22,0,0,0,24.42,10.6Z"/><path class="cls-3" d="M28.6,11.15a.6.6,0,0,0-.8-.23A1.89,1.89,0,0,0,28.6,11.15Z"/><path class="cls-3" d="M31.26,11.24c.1.33.36.39.66.39A1.31,1.31,0,0,0,31.26,11.24Z"/><path class="cls-3" d="M36.24,17.26c0-.28-.08-.54-.41-.62A1.53,1.53,0,0,0,36.24,17.26Z"/><path class="cls-3" d="M32.08,11.71c.08.31.33.37.6.4A1.16,1.16,0,0,0,32.08,11.71Z"/><path class="cls-3" d="M25.82,10.64c-.18-.24-.38-.18-.58,0A1,1,0,0,0,25.82,10.64Z"/><path class="cls-3" d="M23.26,10.7a.3.3,0,0,0-.47,0A.55.55,0,0,0,23.26,10.7Z"/><path class="cls-3" d="M27.56,10.88c-.14-.25-.36-.13-.56-.12A.63.63,0,0,0,27.56,10.88Z"/><path class="cls-3" d="M38.27,20.72c0,.2-.14.41.1.56A.66.66,0,0,0,38.27,20.72Z"/><path class="cls-3" d="M32.66,13.23a.32.32,0,0,0-.39-.29A.53.53,0,0,0,32.66,13.23Z"/><path class="cls-3" d="M35.45,14.65a.32.32,0,0,0,.31.37A.49.49,0,0,0,35.45,14.65Z"/><path class="cls-3" d="M33.24,12.51a.32.32,0,0,0,.36.3A.44.44,0,0,0,33.24,12.51Z"/><path class="cls-3" d="M33.69,14.11c0-.26-.13-.37-.38-.35A.81.81,0,0,0,33.69,14.11Z"/><path class="cls-3" d="M33.13,13.6a.34.34,0,0,0-.4-.31A.63.63,0,0,0,33.13,13.6Z"/><path class="cls-3" d="M35.92,15.22a.2.2,0,0,0,.19.26A.29.29,0,0,0,35.92,15.22Z"/><path class="cls-3" d="M36.15,15.55c0,.15,0,.26.19.28A.32.32,0,0,0,36.15,15.55Z"/><path class="cls-3" d="M35.54,16.21c0-.15,0-.25-.2-.26A.32.32,0,0,0,35.54,16.21Z"/><path class="cls-3" d="M32.19,12.9c0-.16-.12-.21-.27-.19A.31.31,0,0,0,32.19,12.9Z"/><path class="cls-3" d="M31.85,12.66c0-.17-.16-.2-.3-.17A.35.35,0,0,0,31.85,12.66Z"/><path class="cls-3" d="M32.89,12.26c0,.16.11.21.26.2A.29.29,0,0,0,32.89,12.26Z"/><path class="cls-3" d="M18.79,12.13c-.15,0-.26,0-.28.19A.32.32,0,0,0,18.79,12.13Z"/><path class="cls-3" d="M38.2,20.25c-.11.1-.07.17,0,.23A.16.16,0,0,0,38.2,20.25Z"/><path class="cls-3" d="M31,12.2c0-.18-.15-.2-.3-.18A.39.39,0,0,0,31,12.2Z"/><path class="cls-3" d="M19.37,11.79c-.14,0-.25,0-.28.17A.31.31,0,0,0,19.37,11.79Z"/><path class="cls-3" d="M26.63,10.74c-.06-.12-.14-.14-.23,0A.2.2,0,0,0,26.63,10.74Z"/><path class="cls-3" d="M38.42,22c-.09.07-.09.14,0,.2A.12.12,0,0,0,38.42,22Z"/><path class="cls-3" d="M38,22.55c.11-.09.09-.16,0-.23A.2.2,0,0,0,38,22.55Z"/><path class="cls-4" d="M26.91,27.63c.05,0,.12.06.13,0s0-.12,0-.18Z"/></g></g></svg>