<svg xmlns="http://www.w3.org/2000/svg" viewBox="0 0 57.97 57.97"><defs><style>.cls-1{fill:none;stroke:#f8d069;stroke-miterlimit:10;stroke-width:3px;}.cls-2{fill:#1f334a;}.cls-3{fill:#314459;}.cls-4{fill:#fdfdfd;}</style></defs><title>礼生</title><g id="图层_2" data-name="图层 2"><g id="图层_1-2" data-name="图层 1"><circle class="cls-1" cx="28.99" cy="28.99" r="27.49"/><path class="cls-2" d="M43.23,23l.18.23c0,.37.17.87-.5.87h0c0-.15,0-.24-.2-.26l-.16-.31c-.18-.29-.39-.23-.62-.06l-.65,0c-.25,0-.5-.15-.7.11l-.38.05c-.19-.11-.37-.15-.48.1l-.37.05c-.17-.16-.29-.13-.36.1l-.53.08a.28.28,0,0,0-.33.09l-.18,0c-.16,0-.33-.07-.44.11l-.25.06c-.24-.2-.48.18-.78,0a.51.51,0,0,0,.43-.25,25.18,25.18,0,0,1,4.71-.94,1.31,1.31,0,0,1-.58-1.14c0-.25-.24-.27-.41-.28s-.15.21-.18.35.22.73-.27.71-.27-.47-.28-.75,0-.59-.32-.79a.79.79,0,0,1-.37-.73c0-.38-.22-.42-.48-.33a7.4,7.4,0,0,0-1.12.48,20.4,20.4,0,0,0-6,5.12,9.29,9.29,0,0,1-1.4,1.6L30,27.14l.12-.2c.13,0,.16-.13.15-.25a19.63,19.63,0,0,1,7-6.39l.49-.25a.4.4,0,0,0,.09-.13c-.48-.34-1.06-.59-1.15-1.29,0-.26-.3-.16-.46-.19-1.07-.13-1.45-.52-1.41-1.59,0-.35-.11-.36-.37-.35a5.55,5.55,0,0,1-1.52-.12,1.21,1.21,0,0,1-.79-.43c-.32-.54-.75-.47-1.21-.3a15.44,15.44,0,0,1-6.42,1,17.64,17.64,0,0,1-3.32-.51c-.49-.13-.53,0-.57.44a7.84,7.84,0,0,0,1.39,5l-.16.18a6.76,6.76,0,0,1-1.28-7.29,7.67,7.67,0,0,1,5.22-4.73,7.13,7.13,0,0,1,6.11.9.21.21,0,0,0,.29.2,5,5,0,0,1,1.68,1.6.21.21,0,0,0,.21.26l.16.23a.21.21,0,0,0,.18.26,4.79,4.79,0,0,1,.67,1c0,.21.16.24.33.18l.16.1c0,.16.12.2.26.19a.35.35,0,0,1,.24.23c0,.24,0,.5.29.64l0,.25c-.13.3-.22.61.1.86a3.38,3.38,0,0,1,.9,0c.17.31.51.2.75.31a.35.35,0,0,1,.26.33.23.23,0,0,0,.11.29s0,.07,0,.11a.14.14,0,0,1,0,.06.53.53,0,0,0,.36.61c.12,0,.08-.23.11-.35l.25,0a.32.32,0,0,0,.47,0l.24.05c0,.14.14.17.27.16a.38.38,0,0,1,.25.32c0,.17-.07.36.17.43l0,.25c-.11.3-.22.61.12.85s.67.22.89.53a.2.2,0,0,0,.22.2.86.86,0,0,1,.24.63c-.06.29-.07.56.35.57s.7.29.64.77C43,22.93,43.08,23,43.23,23Z"/><path class="cls-3" d="M30,27.14l.18.18c0,.09-.06.19-.1.28s-.17.22-.08.33.26,0,.38,0a13.66,13.66,0,0,1,2.4-.92c.3-.06.75-.24.87.09s-.39.33-.64.43a38,38,0,0,0-7.82,4.26,1.62,1.62,0,0,0-.75,1.6,17,17,0,0,0,1.11,5c0,.1.05.19.08.3-.51-.1-.64-.2-.89-.79A10.65,10.65,0,0,1,24,33.5a1.92,1.92,0,0,0-.81-1.67,10.94,10.94,0,0,1-2.73-4.92c-.22-.74-.28-.8-1-.43A17.32,17.32,0,0,0,12.31,33,15.25,15.25,0,0,0,11,36.08a.49.49,0,0,0,.15.58,33.49,33.49,0,0,0,9.25,7c.31.15.6.34.93.52-.25.36-.58.24-.87.16a11.28,11.28,0,0,1-3.26-1.66,33.25,33.25,0,0,1-5.77-5.09,2.81,2.81,0,0,1-.24-.34c-.28,0-.21.17-.23.26s0,.2,0,.37a1.53,1.53,0,0,0-.08-.5c-.65-1-.23-2,.15-2.92a12.27,12.27,0,0,1,1.79-3.12.64.64,0,0,0,0-.91,2.4,2.4,0,0,1-.58-1.82A.67.67,0,0,0,12,28a8.09,8.09,0,0,0-2-1.94c-.2-.11-.44-.25-.42-.49.06-.74-.47-1.14-.88-1.59-1.14-1.25-1.05-1.61.54-2.2a3.39,3.39,0,0,0,.89-.5.66.66,0,0,0,.11-1.07.46.46,0,0,1,0-.58,5.32,5.32,0,0,1,3.11-2.37c.2-.07.28.06.37.22a.87.87,0,0,0,1.27.38c.75-.38.8-.29,1.28.42,1.57,2.27,2.7,4.8,4.15,7.13a4,4,0,0,1,.27.94,13.3,13.3,0,0,0,2.81,4.82c.64.69.76.67,1.46.1A23.77,23.77,0,0,1,29,28.64a1.28,1.28,0,0,0,.86-1.14C29.84,27.38,30,27.26,30,27.14ZM19.68,25.77l-.37-.64C18.16,23,17,20.81,15.88,18.64c-.27-.51-.63-.56-1-.08-.09.13-.11.36-.3.32-.46-.1-.72.23-1,.43-1.43.93-2.74,2-4.08,3-.14.12-.38.39-.47.24-.28-.46-.36,0-.5.07s-.16.37,0,.56.51.59.77.87c.58.65.57.64,1.32.12.39-.28.72-.7,1.26-.77,0,.32-.19.43-.36.57a7,7,0,0,1-1.38.9c-.41.21-.46.62,0,.83,1.4.71,2.22,2.05,3.35,3.05.14.12.27.29.13.48s-.32.1-.47,0-.19-.22-.39-.11c0,.39.32.63.5.94s.32.22.51,0A19.21,19.21,0,0,1,19.68,25.77Zm-5.82-7.34a.93.93,0,0,0-1.06-.38,5.43,5.43,0,0,0-2.12,1.48.58.58,0,0,0,0,.85c.16.16.26.18.44.05C12,19.76,12.93,19.11,13.86,18.43ZM12.7,29l0,0s0,0,0,0l0,0Z"/><path class="cls-2" d="M27.72,44.7c.68,0,1.32.17,2,.22A17.3,17.3,0,0,0,38,43.37a54.75,54.75,0,0,0,5.61-3c.09,0,.16-.13.27-.07-.35,1.11-6.15,4.17-9.15,4.82C32,45.72,28.45,45.51,27.72,44.7Z"/><path class="cls-2" d="M31.4,45.6c-1.77,0-3.3-.29-3.77-.82l-.2-.22h.3c.38,0,.76.07,1.11.12s.57.09.86.11a17,17,0,0,0,8.21-1.54,48.32,48.32,0,0,0,4.94-2.6l.7-.4a.32.32,0,0,1,.35,0l.09,0,0,.11c-.36,1.16-6.15,4.23-9.25,4.9A16.1,16.1,0,0,1,31.4,45.6Zm-3.25-.74c1.14.57,4.12.67,6.51.15,2.87-.61,7.91-3.29,8.9-4.47l-.59.34a47.67,47.67,0,0,1-5,2.61,17.42,17.42,0,0,1-8.33,1.56c-.29,0-.59-.07-.87-.11Z"/><path class="cls-3" d="M21.84,21.79l.16-.18c.21.06.25.61.66.2.14-.14.27.18.31.34.21.87.41,1.75.61,2.62s.57,1.11,1.35.5c.53-.42.64-.15.77.27s.41.68.92.4a2.24,2.24,0,0,1,1-.29c.33,0,.54.22.28.43-.63.49-.48.81.2,1.15a9.65,9.65,0,0,0-1.78,0c-.08-.53-.85-.35-.91-.92,0-.33-.23-.33-.53-.24C23,26.64,23.36,26.38,23,25a8.62,8.62,0,0,1-.21-1A2.83,2.83,0,0,0,21.84,21.79Z"/><path class="cls-3" d="M31.68,21a8.28,8.28,0,0,1-.33,2c-.05.21-.13.43-.4.35s-.21-.3-.16-.5a5.8,5.8,0,0,0,.26-2.77,1.91,1.91,0,0,0-.19-.57,1.09,1.09,0,0,0-1.09-.53c-.44,0-.58.39-.69.75-.06.2,0,.56-.32.48s-.08-.39,0-.59a1.18,1.18,0,0,1,1.12-1.1,1.57,1.57,0,0,1,1.62.94A3.35,3.35,0,0,1,31.68,21Z"/><path class="cls-2" d="M26.47,52.14a3,3,0,0,1-.14-1c0-2.12.13-4.24.27-6.36a1,1,0,0,1,0-.24c0-.12,0-.28.18-.27s.19.18.19.32c0,.55-.08,1.1-.1,1.65-.07,1.65-.12,3.31-.19,5A1.6,1.6,0,0,1,26.47,52.14Z"/><path class="cls-2" d="M26.43,52.41l-.08-.23a3,3,0,0,1-.14-1v0c0-2.1.12-4.21.27-6.37a.84.84,0,0,1,0-.27v0c0-.11.07-.32.28-.32h0a.35.35,0,0,1,.22.1.49.49,0,0,1,.08.36c0,.2,0,.4,0,.6,0,.35-.05.7-.06,1.05C27,47,27,47.7,27,48.45s-.07,1.8-.11,2.7v.13a1.47,1.47,0,0,1-.27.93Zm.39-8.07s0,.09-.05.13v.05a.73.73,0,0,0,0,.22c-.15,2.15-.28,4.25-.27,6.35v0a3.26,3.26,0,0,0,.05.68,1.48,1.48,0,0,0,.08-.54v-.13c0-.9.07-1.8.11-2.7,0-.75.05-1.5.08-2.25l.06-1c0-.2,0-.4,0-.6a.31.31,0,0,0,0-.19Z"/><path class="cls-2" d="M46.82,32.34l-.27.23,0-1c.17-.2,0-.27-.13-.36a1.41,1.41,0,0,1-.17-.66c-.07-.42,0-.88-.42-1.19l-.18-.56c-.08-.37-.08-.78-.44-1L45,27.34a.23.23,0,0,0-.14-.29c0-.09-.09-.19-.14-.28a.59.59,0,0,1,.28-.32,1.14,1.14,0,0,1,.28.57c0,.13,0,.24.13.29s.09.19.14.28,0,.28.15.33l.2.55a1.56,1.56,0,0,0,.4,1.05,2.06,2.06,0,0,1,.22.78c0,.13,0,.25.11.32l.05.25c-.16.21,0,.35.12.47Z"/><path class="cls-3" d="M36.92,24a.51.51,0,0,1-.43.25c.3.22.54-.16.78,0L34,25.22,33.87,25A14.89,14.89,0,0,1,36.92,24Z"/><path class="cls-3" d="M24.57,23.32c-.14-.05-.4.08-.41-.19s.22-.18.37-.2c.55-.07.92-.32.95-.92,0-.16,0-.35.26-.32s.23.2.26.37C26.09,22.73,25.44,23.3,24.57,23.32Z"/><path class="cls-2" d="M44.51,26.33l-.27-.55c0-.25,0-.47-.3-.56l-.43-.86.35,0a8.38,8.38,0,0,1,.8,1.47C44.54,26,45,26.25,44.51,26.33Z"/><path class="cls-3" d="M43.86,24.32l-.35,0c-.09-.34-.5.1-.6-.24.67,0,.48-.5.5-.87Z"/><path class="cls-3" d="M44.51,26.33c.45-.08,0-.38.15-.54a1.13,1.13,0,0,1,.33.66.59.59,0,0,0-.28.32A.72.72,0,0,1,44.51,26.33Z"/><path class="cls-3" d="M45.78,29.38c.39.31.35.77.42,1.19A3.93,3.93,0,0,1,45.78,29.38Z"/><path class="cls-3" d="M36.5,16.66c-.32-.25-.23-.56-.1-.86Z"/><path class="cls-3" d="M45.16,27.79c.36.25.36.66.44,1A3.77,3.77,0,0,1,45.16,27.79Z"/><path class="cls-3" d="M46.29,29.52a1.56,1.56,0,0,1-.4-1.05A2.79,2.79,0,0,1,46.29,29.52Z"/><path class="cls-3" d="M40.8,20.08c-.34-.24-.23-.55-.12-.85A1.65,1.65,0,0,1,40.8,20.08Z"/><path class="cls-3" d="M39,18.06c0,.12,0,.39-.11.35a.53.53,0,0,1-.36-.61C38.66,18,38.77,18.11,39,18.06Z"/><path class="cls-3" d="M38.15,17c-.24-.11-.58,0-.75-.31A.92.92,0,0,1,38.15,17Z"/><path class="cls-3" d="M41.94,23.5c.23-.17.44-.23.62.06Z"/><path class="cls-3" d="M40.59,23.65c.2-.26.45-.12.7-.11A.91.91,0,0,1,40.59,23.65Z"/><path class="cls-3" d="M36.36,15.55c-.26-.14-.24-.4-.29-.64A.79.79,0,0,1,36.36,15.55Z"/><path class="cls-3" d="M42.5,22c-.42,0-.41-.28-.35-.57A.91.91,0,0,0,42.5,22Z"/><path class="cls-3" d="M39.73,23.8c.11-.25.29-.21.48-.1A.55.55,0,0,1,39.73,23.8Z"/><path class="cls-3" d="M39.73,18a.32.32,0,0,1-.47,0A.44.44,0,0,1,39.73,18Z"/><path class="cls-3" d="M43.94,25.22c.28.09.32.31.3.56A1.18,1.18,0,0,1,43.94,25.22Z"/><path class="cls-3" d="M46.79,31.34c-.16-.12-.28-.26-.12-.47A.54.54,0,0,1,46.79,31.34Z"/><path class="cls-3" d="M39,24c.07-.23.19-.26.36-.1A.37.37,0,0,1,39,24Z"/><path class="cls-3" d="M37.52,24.25c.11-.18.28-.13.44-.11A.43.43,0,0,1,37.52,24.25Z"/><path class="cls-3" d="M40.66,19c-.24-.07-.19-.26-.17-.43A.46.46,0,0,1,40.66,19Z"/><path class="cls-3" d="M46.37,31.23c.13.09.3.16.13.36A.41.41,0,0,1,46.37,31.23Z"/><path class="cls-3" d="M35.41,14.39c-.17.06-.3,0-.33-.18Z"/><path class="cls-3" d="M43.23,23c-.15,0-.24-.09-.09-.24Z"/><path class="cls-3" d="M30.3,26.69c0,.12,0,.22-.15.25C30.13,26.82,30.2,26.75,30.3,26.69Z"/><path class="cls-3" d="M35.83,14.68c-.14,0-.24,0-.26-.19A.27.27,0,0,1,35.83,14.68Z"/><path class="cls-3" d="M41.91,20.81a.2.2,0,0,1-.22-.2A.22.22,0,0,1,41.91,20.81Z"/><path class="cls-3" d="M45.4,27.31c-.14,0-.16-.16-.13-.29A.28.28,0,0,1,45.4,27.31Z"/><path class="cls-3" d="M45.69,27.92c-.19-.05-.2-.18-.15-.33Z"/><path class="cls-3" d="M38.52,17.63a.23.23,0,0,1-.11-.29A.22.22,0,0,1,38.52,17.63Z"/><path class="cls-3" d="M40.24,18.23c-.13,0-.23,0-.27-.16A.24.24,0,0,1,40.24,18.23Z"/><path class="cls-3" d="M42.72,23.87c.16,0,.21.11.2.26A.27.27,0,0,1,42.72,23.87Z"/><path class="cls-3" d="M46.62,30.62c-.15-.07-.15-.19-.11-.32A.28.28,0,0,1,46.62,30.62Z"/><path class="cls-3" d="M38.14,24.12a.28.28,0,0,1,.33-.09A.27.27,0,0,1,38.14,24.12Z"/><path class="cls-3" d="M32.18,10.87a.21.21,0,0,1-.29-.2A.33.33,0,0,1,32.18,10.87Z"/><path class="cls-3" d="M34.07,12.73a.21.21,0,0,1-.21-.26A.33.33,0,0,1,34.07,12.73Z"/><path class="cls-3" d="M34.41,13.22a.21.21,0,0,1-.18-.26A.27.27,0,0,1,34.41,13.22Z"/><path class="cls-3" d="M44.85,27.05a.23.23,0,0,1,.14.29A.27.27,0,0,1,44.85,27.05Z"/><path class="cls-4" d="M12.7,29l0,0,0,0s0,0,0,0Z"/><path class="cls-3" d="M13.21,27.39c-.19-.35,0-.52.2-.67a26.57,26.57,0,0,1,2.47-1.9c.13-.1.31-.19.44,0s0,.35-.13.46L14.53,26.4A7.34,7.34,0,0,0,13.21,27.39Z"/><path class="cls-3" d="M14.1,22.7c.71-.39,1.37-.75,2-1.1.16-.08.4-.16.49,0s-.17.28-.33.33c-.56.18-1,.56-1.59.71C14.52,22.73,14.36,22.84,14.1,22.7Z"/><path class="cls-2" d="M47.11,48.33c.27-3.77.23-7.54.13-11.31a31.8,31.8,0,0,0-.42-4.68l-.27.23c.09,1.52.22,3,.25,4.57.07,3.92.06,7.83-.06,11.75a2.18,2.18,0,0,0,.09.88l.13-.11C47,49.16,47.08,48.74,47.11,48.33Z"/><path class="cls-2" d="M46.78,50l-.07-.18a2.19,2.19,0,0,1-.1-.87v-.07c.12-3.8.14-7.75.06-11.74,0-1-.08-2.11-.15-3.13q-.06-.72-.09-1.44v-.06l.48-.41,0,.21A31.38,31.38,0,0,1,47.37,37c.09,3.57.15,7.42-.13,11.32,0,.34-.07.68-.12,1.07l0,.31Zm-.1-17.38L46.77,34c.06,1,.14,2.1.15,3.15.08,4,.06,7.94-.06,11.75V49a2.87,2.87,0,0,0,0,.41c.05-.38.09-.72.12-1h0c.28-3.89.22-7.73.13-11.3a31.18,31.18,0,0,0-.39-4.44Z"/></g></g></svg>