<svg xmlns="http://www.w3.org/2000/svg" viewBox="0 0 57.97 57.97"><defs><style>.cls-1{fill:none;stroke:#f8d069;stroke-miterlimit:10;stroke-width:3px;}.cls-2{fill:#1a2f46;}.cls-3{fill:#2c3f55;}.cls-4{fill:#22364d;}.cls-5{fill:#fdfdfd;}</style></defs><title>舞生</title><g id="图层_2" data-name="图层 2"><g id="图层_1-2" data-name="图层 1"><circle class="cls-1" cx="28.99" cy="28.99" r="27.49"/><path class="cls-2" d="M20.62,27.9a.2.2,0,0,1,.18-.09c.1,0,.19,0,.21-.11a.55.55,0,0,1,.28-.12c.09,0,.16,0,.2-.09a.19.19,0,0,1,.17-.08c.11,0,.19,0,.22-.1a.42.42,0,0,1,.28-.12.74.74,0,0,0,.58-.25.26.26,0,0,1,.2-.07,2.53,2.53,0,0,0,1.14-.46,1.29,1.29,0,0,0,.66-.62,1.35,1.35,0,0,0,.35-.92,3.46,3.46,0,0,0-.07-1.2c0-.11-.21-.42.19-.24a.47.47,0,0,1,.26.4c-.08.07,0,.11,0,.15a.15.15,0,0,1,0,.17,3.39,3.39,0,0,0,0,.9s0,0,0,.05l0,0c.1.38.39.13.59.17a.07.07,0,0,1,.1,0c.12.1.23.2.39.11l.16.05a.74.74,0,0,0,.5.24.36.36,0,0,1,.29.15.13.13,0,0,0,.16.09.55.55,0,0,1,.31.18c0,.18.18.2.33.21l.07,0c0,.1.08.13.17.12a.61.61,0,0,1,.3.2c0,.09.07.12.16.12l.15.1a.22.22,0,0,0,.27.2,1.21,1.21,0,0,1,.44.37c.08.18.17.31.32.06a1.14,1.14,0,0,1,.28-.49c.09,0,.11-.09.1-.18a.05.05,0,0,1,0-.06c.11,0,.13-.09.12-.19a.29.29,0,0,1,.14-.2.14.14,0,0,0,.11-.16.19.19,0,0,1,.1-.16c.1,0,.13-.07.13-.16a1.24,1.24,0,0,1,.34-.47c.1,0,.13-.07.13-.16a.43.43,0,0,1,.19-.23.22.22,0,0,0,.21-.24A3.51,3.51,0,0,1,33,24c.09,0,.19,0,.14-.14L33,23.51c0-.09,0-.15-.12-.17s-.05,0-.05-.05a.2.2,0,0,0-.2-.26.18.18,0,0,1-.1-.15.21.21,0,0,0-.21-.24.43.43,0,0,1-.18-.24.14.14,0,0,0-.12-.16,1.47,1.47,0,0,1-.36-.53c0-.15,0-.28-.21-.33a.29.29,0,0,1-.11-.21.6.6,0,0,0-.26-.5A10.39,10.39,0,0,1,30,16.81a1,1,0,0,0-.35.41,5.92,5.92,0,0,1-1.23,1.27,1.35,1.35,0,0,1-.45.22.23.23,0,0,1-.25-.08c-.09-.1,0-.17.07-.23a4.68,4.68,0,0,1,.39-.38,6.65,6.65,0,0,0,1.23-1.42,2.64,2.64,0,0,0,.43-1.83.86.86,0,0,0-.69-.88,1.41,1.41,0,0,1-.24-.13c-.22-.18-.4-.11-.55.1a3.13,3.13,0,0,0-.79.75l-.09.12-.08-.09v-.21a1.61,1.61,0,0,1,.56-.68.15.15,0,0,0,.16-.13c.12-.1.1-.21,0-.31a.15.15,0,0,0-.16-.12l-.16-.11c0-.09-.07-.12-.16-.12a5.39,5.39,0,0,1-1-.89.23.23,0,0,0-.21-.22,6,6,0,0,1-1.13-1.33c0-.09,0-.15-.12-.16a.55.55,0,0,1-.2-.3c0-.09,0-.15-.11-.17a.37.37,0,0,1-.12-.23.37.37,0,0,0-.17-.32,1.9,1.9,0,0,1-.31-.75.56.56,0,0,0-.16-.43L24,8c.07-.06,0-.11,0-.15A3.87,3.87,0,0,1,23.83,7c0-.17.14-.39-.11-.51l-.38.08a.37.37,0,0,0-.36.14,15.23,15.23,0,0,0-1.74.93,8.39,8.39,0,0,0-2.17,2.53.34.34,0,0,0-.17.36.64.64,0,0,1-.14.35.32.32,0,0,0-.14.39l0,.16c-.09,0-.09.13-.07.22v.1a.17.17,0,0,0-.06.21V12c-.08,0-.11.09,0,.16l0,.24c-.17.14-.13.3,0,.47v1c-.08.15-.14.3.08.39a.16.16,0,0,1,0,.23c-.16.19,0,.33.08.48l0,.06s0,0,0,0a.15.15,0,0,0,.06.21l.05.17-.16.15a.56.56,0,0,1-.15-.35,1.17,1.17,0,0,0-.26-.76A1,1,0,0,1,18,14c0-.18.1-.38-.08-.54a3.11,3.11,0,0,1,0-1c.16-.16.08-.35.07-.53a.15.15,0,0,1,0-.18c.07,0,.09-.09,0-.15l0-.16a1.2,1.2,0,0,0,.24-.77.65.65,0,0,1,.16-.41.34.34,0,0,0,.17-.36l.05-.12c.15-.05.18-.18.19-.32s0-.06,0-.07.13-.1.11-.2L19.22,9a.14.14,0,0,0,.13-.17l.11-.15c.1,0,.14-.07.13-.17a2.64,2.64,0,0,1,.79-.77.72.72,0,0,0,.47-.38.5.5,0,0,1,.31-.18c.27,0,.41-.17.56-.35l.07,0a8.46,8.46,0,0,0,1.43-.67.93.93,0,0,1,.5-.13c.1,0,.22.06.28-.09h.17A1,1,0,0,0,25,5.68h.31s0,.09.06.09c.66,0,1.3.22,2,.16l.18,0a.17.17,0,0,0,.21.06.33.33,0,0,1,.26.07c.1.17.28.17.44.18a1.33,1.33,0,0,1,.58.29.23.23,0,0,0,.26.19.63.63,0,0,1,.37.27.15.15,0,0,0,.16.13h0a.47.47,0,0,0,.4.39h0a.23.23,0,0,0,.22.24.37.37,0,0,1,.17.22.73.73,0,0,0,.38.56,0,0,0,0,1,0,.06.61.61,0,0,0,.27.5.48.48,0,0,1,.13.34,5.69,5.69,0,0,0,.41,1.39l0,.16c-.07.06-.05.11,0,.15l0,.18a1.85,1.85,0,0,0,.26.92l0,.4c-.06.18-.06.34.19.38a.13.13,0,0,1,.13.09c0,.14.07.22.21.23l0,.11c0,.16,0,.3.19.37s.13.15.11.27a3.09,3.09,0,0,0,.3,1,.29.29,0,0,1,0,.24c-.05,0-.11,0-.1.08s.06.08.11.08h0a4.31,4.31,0,0,1,.85.62l0,.18a1.57,1.57,0,0,0,.26.84l0,.24c-.08.06-.06.11,0,.16l0,.06s0,0,0,0,0,.23-.06.34.05.25.22.25a.13.13,0,0,1,.13.1.22.22,0,0,0,.2.23l0,.11c0,.18,0,.35.19.44l.19.35c.13.2.37.31.48.54s.12.45.32.6l0,.17c.06.26-.09.55.15.78l.11.1a.23.23,0,0,0,.22.22h0c0,.1,0,.2.14.22l.18.11c.24.3.6.26.92.34l.1,0a7.47,7.47,0,0,0,1.68.76.24.24,0,0,1,.21.1c.06.19.2.22.37.2a.41.41,0,0,1,.26.13c0,.17.19.19.34.2l.21.11c.1.27.34.3.57.36a.6.6,0,0,1,.3.19.21.21,0,0,0,.27.2.91.91,0,0,1,.17.09,16.84,16.84,0,0,1,6,8.51c0,.12,0,.24.22.27s.1.24.11.38a18.72,18.72,0,0,1-.42,3.58,30,30,0,0,1-6.74,13.67c-.76.92-1.59,1.78-2.39,2.67a6.37,6.37,0,0,1-.86.67c-.34.25-.77.08-1.14.23-.28-.5-1-.39-1.29-.87a.22.22,0,0,0-.25-.23.23.23,0,0,1-.15-.14.44.44,0,0,0-.37-.41l-.11-.13a.21.21,0,0,0-.2-.27.16.16,0,0,1-.1-.15c0-.15,0-.28-.22-.32a.16.16,0,0,1-.1-.15c0-.14,0-.28-.2-.32a.27.27,0,0,1-.12-.21c0-.09,0-.17-.11-.19a.42.42,0,0,1-.14-.25c0-.17,0-.32-.19-.38a0,0,0,0,1,0-.06,1,1,0,0,0-.34-.8.58.58,0,0,1-.06-.34.48.48,0,0,1,0-.12c0-.12-.32-.1-.11-.26s.09-.36.34-.29l.22,0a1.25,1.25,0,0,0,.83-.43.87.87,0,0,1,.37-.19c.15,0,.28,0,.33-.2l.22-.11c.2,0,.41-.07.49-.3a.16.16,0,0,1,.15-.09c.08,0,.15,0,.15-.13s-.06-.1-.13-.11,0,0,0-.05,0-.17-.12-.18a.08.08,0,0,1,0-.07c0-.14,0-.28-.2-.33A17.69,17.69,0,0,0,33.6,44a.22.22,0,0,0-.22-.19s0,0,0,0a.2.2,0,0,1,.18-.12,7.58,7.58,0,0,1,2.07,2c.27.37.52.75.78,1.13a1.92,1.92,0,0,0,.48.55c.15.1.45.24.26.56,0,0,0,.16.1.24a17.89,17.89,0,0,1,2,4.59c.07.28.17.24.32.07,3.92-4.35,7-9.16,8.35-15,0-.23,0-.22,0-.37h0l.48-2.2a2,2,0,0,0-.24-1.12c-.29-.71-.5-1.46-.82-2.17a17.3,17.3,0,0,0-4.71-6.26,20.12,20.12,0,0,0-4.74-2.68c-.07,0-.16-.09-.21,0s0,.18.1.21a3.24,3.24,0,0,0,.41.13c.24.08.36.23.29.48a.37.37,0,0,1-.46.26.38.38,0,0,1-.19-.05c-.56-.43-1.26-.62-1.8-1.08a.64.64,0,0,0-.45-.19H33.61c-.09,0-.21,0-.24.08s.05.14.09.2a1.6,1.6,0,0,0,.38.4.43.43,0,0,1,.16.55c-.1.22-.29.22-.47.14s-.28.05-.36.15a10.76,10.76,0,0,0-2.63,4.19c0,.15-.11.3-.3.31s-.27-.11-.33-.28a1.22,1.22,0,0,0-.46-.57,15.59,15.59,0,0,0-2.76-1.94,2.89,2.89,0,0,0-1.07-.36c-.14,0-.34,0-.26.21s-.39.45-.37.78c-.46.06-.61.51-.9.77,0,0-.08-.05-.08-.07,0-.45,0-.44-.38-.27A44.53,44.53,0,0,0,13,33.78c-2.64,2.15-5.15,4.46-7.66,6.77a3,3,0,0,1-.33.27c-.08.06-.18.12-.28,0a.2.2,0,0,1,0-.29,5.8,5.8,0,0,1,.49-.62A76.29,76.29,0,0,1,17.78,29.47c.18-.11.37-.2.55-.3s.39-.08.48-.29a0,0,0,0,1,.06,0,.14.14,0,0,0,.18-.11l.11-.06c.16,0,.31,0,.36-.21a.26.26,0,0,1,.2-.1c.15,0,.29,0,.35-.19a.76.76,0,0,1,.38-.19C20.52,28,20.59,28,20.62,27.9ZM34.53,49.18c-.1,0-.19,0-.22.1a3.31,3.31,0,0,1-.41.14c-.16,0-.25.11-.23.29-.05,0-.12,0-.09.07s.1.06.15.08l.2.5c0,.17,0,.32.21.37a.24.24,0,0,1,.11.19c0,.11,0,.19.12.21a1.61,1.61,0,0,1,.34.52c0,.1,0,.17.13.18a16.81,16.81,0,0,0,1.24,1.42,3,3,0,0,0,2,.9.7.7,0,0,0,.7-.74,18.09,18.09,0,0,0-2-5c-.11-.2-.2-.21-.4-.1a6.77,6.77,0,0,1-1.42.72c-.1,0-.19,0-.22.1A.18.18,0,0,1,34.53,49.18ZM30.3,15.63a11.26,11.26,0,0,0,2.61,6.8.29.29,0,0,0,.34.11,4.2,4.2,0,0,1,1.16-.19c.46,0,.81,0,.92-.63.07-.38.09-.6-.25-.82a6,6,0,0,1-1.48-2.14,1,1,0,0,1-.05-.35.43.43,0,0,0-.38-.54,2.22,2.22,0,0,1-1.11-.72A1.31,1.31,0,0,1,31.7,16c.1-.45-.14-.68-.41-.93s-.3-.18-.42-.33a.63.63,0,0,0-.51-.11c-.18.05-.05.25-.06.38S30.3,15.42,30.3,15.63Z"/><path class="cls-2" d="M15.22,51.44c.76-.39,1-1.17,1.46-1.82a72.88,72.88,0,0,0,4.74-8.28,32.47,32.47,0,0,0,1.44-3.57c0-.12,0-.39.22-.33a.42.42,0,0,1,.26.48c-.07.31-.18.6-.26.91s-.18.35.1.45c0,0,.08.11.06.13-.22.31.06.51.17.73a29.43,29.43,0,0,1,1.72,3.58,4.51,4.51,0,0,0,1.16,1.55c.38.37.67.26,1.05.13.77-.27,1.54-.51,2.32-.75.28-.08.4-.14.12-.4a7.19,7.19,0,0,1-.7-.85.19.19,0,0,1,0-.25c.06-.07.15,0,.22,0a1.54,1.54,0,0,1,.31.17,7.55,7.55,0,0,0,1.06.8c.36.19.34.28,0,.56a3.64,3.64,0,0,1-1.09.61L26,46.58a2.49,2.49,0,0,0-.76.41,5.63,5.63,0,0,0,2.33-.13,6.72,6.72,0,0,1,2.26-.43,1.35,1.35,0,0,1-.63.5,7.57,7.57,0,0,1-2.88.7,4.66,4.66,0,0,0-.84.19c-.21,0-.16.19-.05.29a1,1,0,0,0,.65.23c.21,0,.47,0,.47.3s-.26.28-.48.3a1.41,1.41,0,0,1-1.16-.56.52.52,0,0,1,0-.63.32.32,0,0,0-.1-.5,1.14,1.14,0,0,1-.15-.23c-.21-.34-.18-.48.16-.65.54-.28.54-.29.28-.82a11.89,11.89,0,0,1-.6-1.49,15,15,0,0,0-1.15-2.67A3.63,3.63,0,0,1,23,40.25a3.84,3.84,0,0,0-.15-.44,3,3,0,0,0-.37.78,44.36,44.36,0,0,1-5.65,9.73A2.51,2.51,0,0,1,15.22,51.44Z"/><path class="cls-2" d="M33.52,43.65a.2.2,0,0,0-.18.12l-.2-.11c-.13-.08-.27-.29-.4-.2s.07.25.09.4,0,.32-.15.4a.31.31,0,0,1-.4-.06l-1.35-1.42a.84.84,0,0,1-.21-.33c-.12-.4-.36-.42-.69-.25a1.42,1.42,0,0,0-.74.6c0,.06-.07.14-.14.11a.25.25,0,0,1-.11-.15.46.46,0,0,1,.14-.5,2.46,2.46,0,0,1,.82-.53c.6-.25.82-.19,1.18.36a6.72,6.72,0,0,0,.87.9c.11.11.17.06.27-.05a62,62,0,0,1,7.49-7.45A5.52,5.52,0,0,1,41,34.73c.11,0,.25-.17.35,0s0,.24-.14.32l-1.6,1.45c-1.62,1.43-3.13,3-4.68,4.49-.65.64-1.32,1.28-2,1.91-.22.21-.29.36.08.49A.92.92,0,0,1,33.52,43.65Zm-.9-.42c-.08,0-.12.06-.11.13s0,.09.1.09.09-.06.08-.12S32.68,43.23,32.62,43.23Z"/><path class="cls-2" d="M33.58,49c-.25-.07-.22.2-.34.29s.14.14.11.26a.48.48,0,0,0,0,.12.61.61,0,0,0-.63-.18,12.84,12.84,0,0,1-2.32.1.6.6,0,0,0-.67.44,7.28,7.28,0,0,1-.56,1.16,1.54,1.54,0,0,1-1.48.85c-.49,0-.66-.3-.54-.78a2.64,2.64,0,0,1,.35-.74c.48-.84.9-1.71,1.45-2.52-.21-.1-.31.06-.44.13a7.52,7.52,0,0,1-1,.52c-.14.05-.29.06-.37-.1s0-.29.18-.34c.73-.23,1.31-.78,2.09-1a4.92,4.92,0,0,0,1.19-.68c.14-.09.33-.3.46-.06s-.12.3-.26.41l-.1.06a3.75,3.75,0,0,0-1.9,2.09c-.28.69-.63,1.36-.94,2,0,.08-.12.18,0,.25s.17,0,.25,0a1.07,1.07,0,0,0,.63-.6A21.35,21.35,0,0,1,30,48.21c.17-.28.32-.51.71-.32.18.09.31-.09.44-.19s.29-.18.4,0,0,.28-.17.37c-.35.2-.76.32-.95.72,0,.09-.15.18-.07.29s.16,0,.25,0L32.45,49s.11,0,.15,0c.3.12.62.42.83-.12C33.44,48.84,33.56,48.92,33.58,49Z"/><path class="cls-2" d="M36.09,26.31c.24,1.47-.67,2.24-1.63,2.92a7.86,7.86,0,0,1-5.17,1.27A8.76,8.76,0,0,1,25,29.23a3.11,3.11,0,0,1-1.15-1c0-.07-.23-.11-.07-.24s.16,0,.22.09a6.66,6.66,0,0,0,3,1.54A9.29,9.29,0,0,0,33.71,29a6.09,6.09,0,0,0,2.13-2A6.15,6.15,0,0,0,36.09,26.31Z"/><path class="cls-2" d="M18.47,15.64l.16-.15c.1.08,0,.44.36.15s.24.11.24.26a9.8,9.8,0,0,1-.16,1.52c-.09.6-.16,1.2-.25,1.79,0,.24.07.34.29.36a1.91,1.91,0,0,0,1.08-.1c.2-.11.29,0,.33.17v.12c0,.31-.11.72.13.89s.57.06.87.06a2.74,2.74,0,0,1,.7.08.29.29,0,0,1,.25.22.28.28,0,0,1-.18.31l-.81.35c.61.32.66.91.84,1.43a.42.42,0,0,0,.46.33c.35,0,.7,0,1.07,0a1.78,1.78,0,0,1-1.21.5.68.68,0,0,1-.65-.43,2.39,2.39,0,0,1-.26-.65,1.19,1.19,0,0,0-.87-1l-.28-.13c-.08,0-.16-.07-.13-.17s.1-.06.16-.07.24.06.32-.09c-.1-.1-.22-.06-.33-.06-.55-.05-.64-.12-.58-.68,0-.33-.06-.43-.38-.39a5,5,0,0,1-1.09-.11.42.42,0,0,1-.39-.53,23.73,23.73,0,0,1,.4-2.36A1.86,1.86,0,0,0,18.47,15.64Z"/><path class="cls-3" d="M34.05,22.87a2,2,0,0,1,.64.3,9,9,0,0,1,1.66,1.66.32.32,0,0,1,0,.49c-.19.17-.37.07-.51-.09-.31-.39-.58-.81-.92-1.17s-.5-.77-1-.75c-.09,0-.12-.12-.11-.22S33.92,22.9,34.05,22.87Z"/><path class="cls-2" d="M25.21,23.43c-.4-.18-.17.13-.19.24-.29-.34-.28-.41.07-.61a19.94,19.94,0,0,0,2.46-1.84c.08-.06.15-.14.24-.2a.24.24,0,0,1,.35,0,.24.24,0,0,1-.06.35c-.32.25-.63.51-1,.75a9.46,9.46,0,0,1-1.77,1.09C25.26,23.27,25.19,23.31,25.21,23.43Z"/><path class="cls-2" d="M22.34,17.08h0c-.26,0-.66.05-.66-.32s.38-.26.62-.29a1.09,1.09,0,0,0,.72-.36,4.17,4.17,0,0,1,.34-.38.33.33,0,0,1,.47,0,.31.31,0,0,1,.05.46A1.74,1.74,0,0,1,22.34,17.08Z"/><path class="cls-2" d="M22.56,14a2.86,2.86,0,0,1,1.07.18c.19.07.35.17.27.4s-.26.25-.45.17a4.49,4.49,0,0,0-2.24-.22c-.1,0-.27.06-.29-.1s.12-.15.21-.2A3.42,3.42,0,0,1,22.56,14Z"/><path class="cls-3" d="M27.36,5.93c-.66.06-1.3-.2-2-.16,0,0,0-.06-.06-.09A6,6,0,0,1,27.36,5.93Z"/><path class="cls-3" d="M39.84,23.34a7.47,7.47,0,0,1-1.68-.76A6.88,6.88,0,0,1,39.84,23.34Z"/><path class="cls-3" d="M23.22,6.07a8.46,8.46,0,0,1-1.43.67A3.92,3.92,0,0,1,23.22,6.07Z"/><path class="cls-3" d="M36.29,20.59c-.2-.15-.22-.4-.32-.6s-.35-.34-.48-.54C36.07,19.61,36.14,20.13,36.29,20.59Z"/><path class="cls-3" d="M31.82,10.84a5.69,5.69,0,0,1-.41-1.39A3.25,3.25,0,0,1,31.82,10.84Z"/><path class="cls-3" d="M24.08,26.41a2.53,2.53,0,0,1-1.14.46A3.9,3.9,0,0,1,24.08,26.41Z"/><path class="cls-3" d="M34.21,16.11a4.31,4.31,0,0,0-.85-.62A.91.91,0,0,1,34.21,16.11Z"/><path class="cls-3" d="M25,5.68a1,1,0,0,1-.86.16A2.52,2.52,0,0,1,25,5.68Z"/><path class="cls-3" d="M25.51,25.05a3.39,3.39,0,0,1,0-.9A1.27,1.27,0,0,1,25.51,25.05Z"/><path class="cls-3" d="M33.36,15.08a3.09,3.09,0,0,1-.3-1A1.56,1.56,0,0,1,33.36,15.08Z"/><path class="cls-3" d="M33.41,50a1,1,0,0,1,.34.8A2,2,0,0,1,33.41,50Z"/><path class="cls-3" d="M38.06,22.54c-.32-.08-.68,0-.92-.34A3.1,3.1,0,0,1,38.06,22.54Z"/><path class="cls-3" d="M25.09,24.87a1.35,1.35,0,0,1-.35.92Z"/><path class="cls-3" d="M34.63,48.55a1.25,1.25,0,0,1-.83.43A3.83,3.83,0,0,1,34.63,48.55Z"/><path class="cls-3" d="M32.15,12.25a1.85,1.85,0,0,1-.26-.92A1.88,1.88,0,0,1,32.15,12.25Z"/><path class="cls-3" d="M34.51,17.13a1.57,1.57,0,0,1-.26-.84A1.57,1.57,0,0,1,34.51,17.13Z"/><path class="cls-3" d="M36.48,21.54c-.24-.23-.09-.52-.15-.78A1.32,1.32,0,0,1,36.48,21.54Z"/><path class="cls-3" d="M18.06,14.53a1.17,1.17,0,0,1,.26.76A1.61,1.61,0,0,1,18.06,14.53Z"/><path class="cls-3" d="M18.31,10.7a1.2,1.2,0,0,1-.24.77A1.74,1.74,0,0,1,18.31,10.7Z"/><path class="cls-3" d="M21.72,6.78c-.15.18-.29.37-.56.35A1.27,1.27,0,0,1,21.72,6.78Z"/><path class="cls-3" d="M41.8,24.44c-.23-.06-.47-.09-.57-.36A1.54,1.54,0,0,1,41.8,24.44Z"/><path class="cls-3" d="M31,8.55A.73.73,0,0,1,30.61,8,1.25,1.25,0,0,1,31,8.55Z"/><path class="cls-3" d="M20.85,7.31a.72.72,0,0,1-.47.38A.88.88,0,0,1,20.85,7.31Z"/><path class="cls-3" d="M34.73,18.22c-.17,0-.27,0-.22-.25s0-.23.06-.34C34.73,17.79,34.48,18.08,34.73,18.22Z"/><path class="cls-3" d="M28.33,13.86c.15-.21.33-.28.55-.1A1.49,1.49,0,0,0,28.33,13.86Z"/><path class="cls-3" d="M26.1,25.29c-.2,0-.49.21-.59-.17C25.67,25.3,25.93,25.14,26.1,25.29Z"/><path class="cls-3" d="M30.22,7.53a.47.47,0,0,1-.4-.39A.89.89,0,0,1,30.22,7.53Z"/><path class="cls-3" d="M35.27,53.25a.44.44,0,0,1,.37.41A.92.92,0,0,1,35.27,53.25Z"/><path class="cls-3" d="M22.74,26.94a.74.74,0,0,1-.58.25A1.37,1.37,0,0,1,22.74,26.94Z"/><path class="cls-3" d="M31.28,9.11a.61.61,0,0,1-.27-.5A.88.88,0,0,1,31.28,9.11Z"/><path class="cls-3" d="M18.81,28.88c-.09.21-.29.24-.48.29A1,1,0,0,1,18.81,28.88Z"/><path class="cls-3" d="M17.92,13.5c.18.16.08.36.08.54A.78.78,0,0,1,17.92,13.5Z"/><path class="cls-3" d="M27.25,25.7a.74.74,0,0,1-.5-.24A.79.79,0,0,1,27.25,25.7Z"/><path class="cls-3" d="M18,12c0,.18.09.37-.07.53A.7.7,0,0,1,18,12Z"/><path class="cls-3" d="M36,47.75c-.08.23-.29.26-.49.3A1.14,1.14,0,0,1,36,47.75Z"/><path class="cls-3" d="M18.32,12.88c-.09-.17-.13-.33,0-.47A1.25,1.25,0,0,1,18.32,12.88Z"/><path class="cls-3" d="M23.72,6.44c.25.12.08.34.11.51C23.7,6.8,23.78,6.6,23.72,6.44Z"/><path class="cls-3" d="M31.05,20.67a.6.6,0,0,1,.26.5A1.1,1.1,0,0,1,31.05,20.67Z"/><path class="cls-3" d="M35.3,19.1c-.21-.09-.21-.26-.19-.44A.71.71,0,0,1,35.3,19.1Z"/><path class="cls-3" d="M18.5,15c-.1-.15-.24-.29-.08-.48C18.43,14.69,18.53,14.84,18.5,15Z"/><path class="cls-3" d="M18.4,14.3c-.22-.09-.16-.24-.08-.39Z"/><path class="cls-3" d="M26.59,25.41c-.16.09-.27,0-.39-.11A.46.46,0,0,1,26.59,25.41Z"/><path class="cls-3" d="M24.07,8.16a.56.56,0,0,1,.16.43A.58.58,0,0,1,24.07,8.16Z"/><path class="cls-3" d="M28.45,6.26c-.16,0-.34,0-.44-.18A.7.7,0,0,1,28.45,6.26Z"/><path class="cls-3" d="M18.62,11.22a.32.32,0,0,1,.14-.39A.66.66,0,0,1,18.62,11.22Z"/><path class="cls-3" d="M32.37,13c-.25,0-.25-.2-.19-.38Z"/><path class="cls-3" d="M30.22,27.54c-.15.25-.24.12-.32-.06C30,27.49,30.1,27.62,30.22,27.54Z"/><path class="cls-3" d="M40.42,23.64c-.17,0-.31,0-.37-.2A.59.59,0,0,1,40.42,23.64Z"/><path class="cls-3" d="M24.54,9.34a.37.37,0,0,1,.17.32A.39.39,0,0,1,24.54,9.34Z"/><path class="cls-3" d="M19.52,28.47c-.05.2-.2.22-.36.21A.69.69,0,0,1,19.52,28.47Z"/><path class="cls-3" d="M23,6.66a.37.37,0,0,1,.36-.14A.46.46,0,0,1,23,6.66Z"/><path class="cls-3" d="M33,13.83c-.19-.07-.21-.21-.19-.37A.82.82,0,0,1,33,13.83Z"/><path class="cls-3" d="M18.9,10.48a.34.34,0,0,1,.17-.36A.53.53,0,0,1,18.9,10.48Z"/><path class="cls-3" d="M28.34,26.33c-.15,0-.29,0-.33-.21A.61.61,0,0,1,28.34,26.33Z"/><path class="cls-3" d="M35.33,48.16c0,.17-.18.2-.33.2A.59.59,0,0,1,35.33,48.16Z"/><path class="cls-3" d="M18.64,9.93a.34.34,0,0,1-.17.36A.53.53,0,0,1,18.64,9.93Z"/><path class="cls-3" d="M34.64,52.38c.17,0,.2.17.22.32A.49.49,0,0,1,34.64,52.38Z"/><path class="cls-3" d="M41,24c-.15,0-.29,0-.34-.2A.6.6,0,0,1,41,24Z"/><path class="cls-3" d="M18.88,9.49c0,.14,0,.27-.19.32A.42.42,0,0,1,18.88,9.49Z"/><path class="cls-3" d="M20.07,28.18c-.06.17-.2.19-.35.19A.53.53,0,0,1,20.07,28.18Z"/><path class="cls-3" d="M35.83,46.79c.17.05.19.19.2.33A.54.54,0,0,1,35.83,46.79Z"/><path class="cls-3" d="M34.34,51.91c.16,0,.19.18.2.32A.52.52,0,0,1,34.34,51.91Z"/><path class="cls-3" d="M33.78,50.88c.19.06.21.21.19.38A.63.63,0,0,1,33.78,50.88Z"/><path class="cls-3" d="M31.42,21.38c.17.05.2.18.21.33A.59.59,0,0,1,31.42,21.38Z"/><path class="cls-3" d="M35.79,53.8A.22.22,0,0,1,36,54,.38.38,0,0,1,35.79,53.8Z"/><path class="cls-3" d="M29.29,6.74A.23.23,0,0,1,29,6.55.32.32,0,0,1,29.29,6.74Z"/><path class="cls-3" d="M29.46,27.11a.22.22,0,0,1-.27-.2A.43.43,0,0,1,29.46,27.11Z"/><path class="cls-3" d="M30.44,7.77a.23.23,0,0,1-.22-.24A.4.4,0,0,1,30.44,7.77Z"/><path class="cls-3" d="M26.39,11.85a.23.23,0,0,1,.21.22A.31.31,0,0,1,26.39,11.85Z"/><path class="cls-3" d="M33.38,43.8a.22.22,0,0,1,.22.19A.27.27,0,0,1,33.38,43.8Z"/><path class="cls-3" d="M36.81,21.86a.23.23,0,0,1-.22-.22A.27.27,0,0,1,36.81,21.86Z"/><path class="cls-3" d="M35,52.85a.21.21,0,0,1,.2.27A.46.46,0,0,1,35,52.85Z"/><path class="cls-3" d="M42.37,24.83a.21.21,0,0,1-.27-.2A.42.42,0,0,1,42.37,24.83Z"/><path class="cls-3" d="M35.06,18.55a.22.22,0,0,1-.2-.23A.25.25,0,0,1,35.06,18.55Z"/><path class="cls-3" d="M32.29,22.64a.21.21,0,0,1,.21.24A.39.39,0,0,1,32.29,22.64Z"/><path class="cls-3" d="M32.11,24.84a.22.22,0,0,1-.21.24A.3.3,0,0,1,32.11,24.84Z"/><path class="cls-3" d="M32.6,23a.2.2,0,0,1,.2.26A.52.52,0,0,1,32.6,23Z"/><path class="cls-3" d="M32.71,13.35c-.14,0-.2-.09-.21-.23A.32.32,0,0,1,32.71,13.35Z"/><path class="cls-3" d="M36.21,47.42c.07,0,.13,0,.13.11s-.07.12-.15.13Z"/><path class="cls-3" d="M24,5.85c-.06.15-.18.1-.28.09A.32.32,0,0,1,24,5.85Z"/><path class="cls-3" d="M27.45,14.73l.09-.12c0,.05.1.09,0,.15A.07.07,0,0,1,27.45,14.73Z"/><path class="cls-3" d="M37,22.09c-.14,0-.13-.12-.14-.22S36.93,22,37,22.09Z"/><path class="cls-3" d="M29.82,7.14A.15.15,0,0,1,29.66,7,.18.18,0,0,1,29.82,7.14Z"/><path class="cls-3" d="M24,7.84c.08,0,.11.09,0,.15A.11.11,0,0,1,24,7.84Z"/><path class="cls-3" d="M19.59,8.46c0,.1,0,.16-.13.17A.23.23,0,0,1,19.59,8.46Z"/><path class="cls-3" d="M19.35,8.78a.14.14,0,0,1-.13.17A.2.2,0,0,1,19.35,8.78Z"/><path class="cls-3" d="M19,9.22c0,.1,0,.18-.11.2A.2.2,0,0,1,19,9.22Z"/><path class="cls-3" d="M32,22.24a.14.14,0,0,1,.12.16A.15.15,0,0,1,32,22.24Z"/><path class="cls-3" d="M34.56,17.53c-.08-.05-.1-.1,0-.16S34.6,17.47,34.56,17.53Z"/><path class="cls-3" d="M33.35,15.48c-.05,0-.11,0-.11-.08s0-.07.1-.08Z"/><path class="cls-3" d="M32.85,23.34c.09,0,.12.08.12.17A.18.18,0,0,1,32.85,23.34Z"/><path class="cls-3" d="M25.51,24c-.08,0-.12-.08,0-.15A.11.11,0,0,1,25.51,24Z"/><path class="cls-3" d="M33.1,23.83c0,.15-.05.14-.14.14Z"/><path class="cls-3" d="M18.58,15.32a.15.15,0,0,1-.06-.21A.17.17,0,0,1,18.58,15.32Z"/><path class="cls-3" d="M18.4,12.17c-.08-.07,0-.12,0-.16A.12.12,0,0,1,18.4,12.17Z"/><path class="cls-3" d="M21,27.7c0,.13-.11.13-.21.11A.31.31,0,0,1,21,27.7Z"/><path class="cls-3" d="M20.62,27.9c0,.08-.1.09-.17.09S20.54,27.88,20.62,27.9Z"/><path class="cls-3" d="M29,26.81c-.09,0-.15,0-.16-.12A.17.17,0,0,1,29,26.81Z"/><path class="cls-3" d="M30.76,26.62c0,.1,0,.17-.12.19A.22.22,0,0,1,30.76,26.62Z"/><path class="cls-3" d="M19.05,28.74a.14.14,0,0,1-.18.11A.17.17,0,0,1,19.05,28.74Z"/><path class="cls-3" d="M27.62,13c.09,0,.15,0,.16.12A.17.17,0,0,1,27.62,13Z"/><path class="cls-3" d="M18.44,11.91a.17.17,0,0,1,.06-.21A.16.16,0,0,1,18.44,11.91Z"/><path class="cls-3" d="M30.6,26.87c0,.09,0,.15-.1.18A.16.16,0,0,1,30.6,26.87Z"/><path class="cls-3" d="M18,11.63c.07.06.05.11,0,.15A.12.12,0,0,1,18,11.63Z"/><path class="cls-3" d="M28.58,26.49c-.09,0-.16,0-.17-.12A.18.18,0,0,1,28.58,26.49Z"/><path class="cls-3" d="M36.07,47.19c.11,0,.13.08.12.18A.21.21,0,0,1,36.07,47.19Z"/><path class="cls-3" d="M27.94,13.19a.15.15,0,0,1,.16.12A.16.16,0,0,1,27.94,13.19Z"/><path class="cls-3" d="M18.51,11.6c0-.09,0-.17.07-.22A.19.19,0,0,1,18.51,11.6Z"/><path class="cls-3" d="M31,26.26a.14.14,0,0,1-.11.16C30.89,26.33,30.94,26.29,31,26.26Z"/><path class="cls-3" d="M21.88,27.31c0,.12-.11.13-.22.1A.27.27,0,0,1,21.88,27.31Z"/><path class="cls-3" d="M31.87,11.15c-.07,0-.09-.09,0-.15A.11.11,0,0,1,31.87,11.15Z"/><path class="cls-3" d="M25.14,10.36c.09,0,.12.07.12.16A.16.16,0,0,1,25.14,10.36Z"/><path class="cls-3" d="M31.71,25.31c0,.09,0,.15-.13.16A.2.2,0,0,1,31.71,25.31Z"/><path class="cls-3" d="M27.7,25.94a.13.13,0,0,1-.16-.09A.13.13,0,0,1,27.7,25.94Z"/><path class="cls-3" d="M28.1,13.62a.15.15,0,0,1-.16.13A.18.18,0,0,1,28.1,13.62Z"/><path class="cls-3" d="M31.24,25.94c0,.09,0,.15-.13.16A.17.17,0,0,1,31.24,25.94Z"/><path class="cls-3" d="M27.38,14.43v.21C27.28,14.57,27.3,14.5,27.38,14.43Z"/><path class="cls-3" d="M27.75,6A.17.17,0,0,1,27.54,6,.19.19,0,0,1,27.75,6Z"/><path class="cls-3" d="M21.49,27.49c0,.1-.11.11-.2.09A.2.2,0,0,1,21.49,27.49Z"/><path class="cls-3" d="M24.83,9.89c.1,0,.12.08.11.17A.18.18,0,0,1,24.83,9.89Z"/><path class="cls-3" d="M34.11,51.51c.1,0,.12.1.11.19A.19.19,0,0,1,34.11,51.51Z"/><polygon class="cls-4" points="47.84 37.5 47.84 37.52 47.83 37.51 47.84 37.5"/><path class="cls-3" d="M33.93,50.36a.66.66,0,0,1,.21.37C33.94,50.68,33.92,50.53,33.93,50.36Z"/><path class="cls-3" d="M33.67,49.71a.15.15,0,0,1,.06.15s-.13,0-.15-.08S33.62,49.71,33.67,49.71Z"/><path class="cls-3" d="M34.92,49a.24.24,0,0,1-.22.1C34.73,49,34.82,49,34.92,49Z"/><path class="cls-3" d="M34.53,49.18a.28.28,0,0,1-.22.1C34.34,49.15,34.43,49.15,34.53,49.18Z"/><path class="cls-3" d="M34.25,50.92a.24.24,0,0,1,.12.21C34.25,51.11,34.23,51,34.25,50.92Z"/><path class="cls-3" d="M34.71,51.65a.18.18,0,0,1,.13.18C34.73,51.82,34.7,51.75,34.71,51.65Z"/><path class="cls-5" d="M32.62,43.23c.06,0,.07.05.07.1s0,.13-.08.12-.1,0-.1-.09S32.54,43.25,32.62,43.23Z"/></g></g></svg>