<svg xmlns="http://www.w3.org/2000/svg" viewBox="0 0 51.31 51.31"><defs><style>.cls-1{fill:none;stroke:#f8d069;stroke-miterlimit:10;stroke-width:3px;}.cls-2{fill:#1f334a;}.cls-3{fill:#25384f;}</style></defs><title>身材匀称</title><g id="图层_2" data-name="图层 2"><g id="图层_1-2" data-name="图层 1"><circle class="cls-1" cx="25.66" cy="25.66" r="24.16"/><path class="cls-2" d="M44.44,26.57a2.52,2.52,0,0,1-.86.73,22.81,22.81,0,0,1-4.66,2.13,5.2,5.2,0,0,1-1.25.22c-.4,0-.69.1-.85.58a13.34,13.34,0,0,1-1.34,2.53,15.11,15.11,0,0,1-1.81,2.6.42.42,0,0,0-.11.44,2.47,2.47,0,0,1,0,.39l.06,3.93a10.39,10.39,0,0,1-.18,2.36c-.08.38-.32.57-.65.5s-.4-.32-.31-.69a8.2,8.2,0,0,0,.19-1.91c0-1.58.06-3.16,0-4.74a1.66,1.66,0,0,1,.45-1.22,27.8,27.8,0,0,0,2.89-4.1,3.66,3.66,0,0,0,.45-1.19c0-.21.11-.44.43-.25s.33-.08.5-.11a10.67,10.67,0,0,0,2.09-.45,26.29,26.29,0,0,0,2.71-1.07c.45-.21.88-.44,1.31-.68a.36.36,0,0,0,.22-.37c0-.43,0-.87,0-1.29a14.08,14.08,0,0,0-.58-3,12,12,0,0,0-2.29-3.86s-.07-.06-.08-.1-.16-.16-.06-.25.16,0,.23.06l.17.1a.21.21,0,0,0,.11,0c.06,0,0-.1,0-.14a2.73,2.73,0,0,0-.33-.43,17.07,17.07,0,0,0-3.08-2.8,5.45,5.45,0,0,0-3-.91.58.58,0,0,0-.63.43,2.34,2.34,0,0,0,.26,2.21c.24.29.54.28.83.34.56.12,1.12.26,1.66.43.75.23,1,.51,1,1.31a40.72,40.72,0,0,1,.28,4.13,5.48,5.48,0,0,1,0,.7c0,.2-.19.19-.35.17s-.24-.18-.39-.22a2.91,2.91,0,0,0-2.69.17.58.58,0,0,0-.35.49c0,.16-.12.39-.32.34s-.66.07-.71-.29-.45-.58-.78-.7a5.64,5.64,0,0,0-2.51-.32c-.48,0-1,0-1.44.11s-.71-.16-.81-.66a8.83,8.83,0,0,1-.11-1.62,6.82,6.82,0,0,1-.09-.79s0-.07,0-.08c-.51-.22-.1-.31.06-.42a5.72,5.72,0,0,0,2.05-1.95,1.18,1.18,0,0,0,.18-.63,6.77,6.77,0,0,0-.16-1.95,4.47,4.47,0,0,0-1.67-2.18,5.31,5.31,0,0,0-1.76-.77,2.23,2.23,0,0,0-1.23.24,4.18,4.18,0,0,0-2.51,2.54,3.56,3.56,0,0,0,0,2.72A4.14,4.14,0,0,0,24.11,19l.55.38c.16.12.17.3,0,.36s-.14.15-.15.26a10.67,10.67,0,0,1-.11,1.88c-.06.3,0,.66-.28.91a.61.61,0,0,1-.53.15,7.25,7.25,0,0,0-3.64.13,4.23,4.23,0,0,0-.48.23.4.4,0,0,0-.25.34c0,.32-.32.51-.74.49s-.34-.25-.35-.49a.31.31,0,0,0-.11-.21,2.08,2.08,0,0,0-1.41-.57,2.57,2.57,0,0,0-1.6.42c-.23.18-.44.05-.45-.24a19.43,19.43,0,0,1,.11-3.24,12.89,12.89,0,0,1,.26-2.06,1,1,0,0,1,.82-.77c.51-.11,1-.3,1.51-.41a1.76,1.76,0,0,1,.38-.06.66.66,0,0,0,.48-.29A2.27,2.27,0,0,0,18.36,14a.55.55,0,0,0-.6-.44,5.25,5.25,0,0,0-3.45,1.46,17,17,0,0,0-2.47,2.62c-.05.07-.1.11-.08.21s.19-.09.28-.15.18-.12.26,0,0,.18-.05.25c-.4.53-.77,1.07-1.14,1.61A9.25,9.25,0,0,0,9.8,22.68a14.15,14.15,0,0,0-.38,3.49.44.44,0,0,0,.21.39,20.58,20.58,0,0,0,4.29,1.91,3.45,3.45,0,0,0,1.19.23.93.93,0,0,1,.49.14c.08,0,.15.08.24,0s.33,0,.39.17a17.12,17.12,0,0,0,3.14,5.32,4.41,4.41,0,0,0,.36.49.5.5,0,0,1,.13.47,7.57,7.57,0,0,0-.05,2c0,1.24,0,2.49.06,3.74a5.08,5.08,0,0,0,.18,1.29.62.62,0,0,1-.24.69.58.58,0,0,1-.67-.23A3.19,3.19,0,0,1,19,42a42.91,42.91,0,0,1,0-6.21,1,1,0,0,0-.33-.7,24.93,24.93,0,0,1-2.29-3.77,6.36,6.36,0,0,1-.58-1.4.23.23,0,0,0-.23-.18,14.81,14.81,0,0,1-5.42-2.05,5.6,5.6,0,0,1-1.25-.92.74.74,0,0,1-.26-.56,17,17,0,0,1,.16-2.56,13.08,13.08,0,0,1,.62-2.54,7.53,7.53,0,0,1,1.68-2.7c.07-.07.19-.13.12-.26a1,1,0,0,1,.2-1.07,12.73,12.73,0,0,1,3-3.2,6.74,6.74,0,0,1,3.47-1.26,1.75,1.75,0,0,1,1.36,1.07,6.06,6.06,0,0,1,.21,1.84,2.41,2.41,0,0,1-1.37,1.85,16.45,16.45,0,0,1-2.05.48c-.19,0-.23.14-.25.28-.07.51-.16,1-.19,1.53a20.87,20.87,0,0,0-.11,2.24c0,.2,0,.28.28.24a3.09,3.09,0,0,1,2.61.51.37.37,0,0,0,.52,0,5.62,5.62,0,0,1,2.67-.89l1.74-.08c.17,0,.35.18.47,0s-.07-.32,0-.49c0-.53-.17-1-.1-1.56,0-.19-.11-.22-.21-.27a3.3,3.3,0,0,1-2-2.26,5.06,5.06,0,0,1,0-1.86,5,5,0,0,1,1.49-3,4.32,4.32,0,0,1,2.26-1.23,3.59,3.59,0,0,1,1.87,0,5.32,5.32,0,0,1,3.58,3.11,4.42,4.42,0,0,1,.06,3.51,3.42,3.42,0,0,1-1.8,1.67c-.22.1-.3.16-.3.45a4.58,4.58,0,0,1-.16,1.52c0,.14-.1.31,0,.43s.24,0,.36,0a2.7,2.7,0,0,1,1.06,0c.56.09,1.13.06,1.69.16a6.27,6.27,0,0,1,1.44.49,2.45,2.45,0,0,1,.81.44c.08.07.13,0,.22,0a3.41,3.41,0,0,1,3-.62c.17,0,.27,0,.27-.21a17.77,17.77,0,0,0-.19-2.72A7.25,7.25,0,0,0,37,18.12c0-.12,0-.26-.21-.26a7.34,7.34,0,0,1-1.46-.33c-.18,0-.36-.05-.54-.08a2,2,0,0,1-1.34-1.06,2.77,2.77,0,0,1-.22-2.25,1.9,1.9,0,0,1,1-1.34,1.58,1.58,0,0,1,.91-.11,7,7,0,0,1,3.27,1.18,12.75,12.75,0,0,1,3.26,3.25c.21.27.48.62.22,1-.08.13.06.21.14.29a7.4,7.4,0,0,1,1.76,2.68c.21.56.36,1.16.53,1.74a1.13,1.13,0,0,1,0,.26c.09.3,0,.65.19.92v2.52Z"/><path class="cls-3" d="M28.16,41.27l-.07-.05a6.75,6.75,0,0,1-.3-1.15c0-.45-.1-.88-.14-1.33-.07-.93,0-1.86,0-2.79a.9.9,0,0,1,.85-.88h.42a.25.25,0,0,1,.27.22c0,.17-.06.26-.19.33a.25.25,0,0,1-.12,0c-.71.09-.83.24-.84,1s0,1.33,0,2a6.38,6.38,0,0,0,.1,1.15c.13.65.36.86,1,.91.42,0,.57.15.51.4s-.39.2-.6.18a1.22,1.22,0,0,1-.48-.15C28.25,40.94,28.24,41,28.16,41.27Z"/><path class="cls-3" d="M29.11,32.94A3.61,3.61,0,0,1,28,32.3a2.87,2.87,0,0,1-1.14-2.42c0-.43,0-.86,0-1.29,0-.19,0-.37.25-.37s.31.17.31.36c0,.52,0,1,0,1.55a1.78,1.78,0,0,0,.86,1.47c.38.28.78.52,1.16.78a.33.33,0,0,1,.12.4C29.49,33,29.35,33,29.11,32.94Z"/><path class="cls-3" d="M24.51,28.88c0-.21,0-.41,0-.61s.08-.18.2-.18.17.05.2.18a2.83,2.83,0,0,1-.31,2.42,4.61,4.61,0,0,1-1.66,1.79l-.09.05c-.2,0-.45.22-.58,0s.18-.27.31-.38a5.4,5.4,0,0,0,1.88-2.54c0-.05.05-.1.05-.15Z"/><path class="cls-3" d="M23.74,35.63a.7.7,0,0,1,1.05.12,3.81,3.81,0,0,1,.51,1.35,9.92,9.92,0,0,1,.1,2.37,8.46,8.46,0,0,1-.12.86.47.47,0,0,1-.19.28c-.24.18-.54.23-.75.45s-.28,0-.36-.11,0-.21.12-.28.26-.28.42-.34c.37-.14.41-.44.47-.77a6.32,6.32,0,0,0-.26-3A1.16,1.16,0,0,0,23.74,35.63Z"/><path class="cls-3" d="M44.44,26.57V24.16a8.55,8.55,0,0,1,.13,2A.79.79,0,0,1,44.44,26.57Z"/><path class="cls-3" d="M44.44,24.05c-.24-.27-.1-.62-.19-.92C44.45,23.41,44.37,23.74,44.44,24.05Z"/></g></g></svg>