<svg xmlns="http://www.w3.org/2000/svg" viewBox="0 0 812.07 30.6"><defs><style>.cls-1{fill:#fff;stroke:#204a46;stroke-miterlimit:10;stroke-width:0.92px;}.cls-2{fill:#1f4945;}</style></defs><title>faction-time-axis</title><g id="图层_2" data-name="图层 2"><g id="图层_1-2" data-name="图层 1"><line class="cls-1" x1="74.89" y1="7.4" x2="783.89" y2="7.4"/><path class="cls-2" d="M5.45,2.25A4.55,4.55,0,0,1,10.1,6.89a4.61,4.61,0,0,1-4.72,4.87A4.62,4.62,0,0,1,.61,7,4.67,4.67,0,0,1,5.45,2.25Zm-.23.58c-1.48,0-2.66,1.37-2.66,3.9s1.11,4.44,3,4.44c1.46,0,2.58-1.28,2.58-3.89C8.17,4.45,6.92,2.83,5.22,2.83Z" transform="translate(-0.61 -2.25)"/><path class="cls-2" d="M14.76,11.55H11.23V11.1c.79-.08.87-.15.87-1v-3c0-.78-.06-.84-.77-1V5.7a10.94,10.94,0,0,0,2.33-.55V6.68c.58-.89,1.11-1.49,1.73-1.49a.81.81,0,0,1,.88.78,1.21,1.21,0,0,1-.63,1,.33.33,0,0,1-.41,0c-.23-.2-.41-.4-.65-.4s-.65.27-.92.87v2.65c0,.87.09.92,1.1,1Z" transform="translate(-0.61 -2.25)"/><path class="cls-2" d="M17,11.55V11.1c.8-.09.89-.15.89-1.13V7.18c0-.91-.06-1-.79-1.07V5.69a13.51,13.51,0,0,0,2.35-.52V10c0,.95.07,1,.91,1.13v.45Zm1.57-7.42a.91.91,0,1,1,0-1.82.89.89,0,0,1,.9.92A.91.91,0,0,1,18.52,4.13Z" transform="translate(-0.61 -2.25)"/><path class="cls-2" d="M23,9.41a.89.89,0,0,0-.32.56c0,.23.25.52.82.52h1.58c.86,0,2.08.33,2.08,1.71,0,1.53-1.86,2.83-3.73,2.83s-2.58-.9-2.59-1.69a.92.92,0,0,1,.4-.78c.34-.28.77-.6,1.08-.81a2,2,0,0,1-1-.78,1.21,1.21,0,0,1-.2-.71,3.79,3.79,0,0,0,1.43-1Zm.67.14c-1.49,0-2.54-.83-2.54-2.11a2.44,2.44,0,0,1,2.65-2.27,3.28,3.28,0,0,1,1.5.36,9.91,9.91,0,0,0,1.91-.2l.07.12a1.76,1.76,0,0,1-.51.82c-.23,0-.65,0-.84-.07a1.87,1.87,0,0,1,.36,1.19C26.26,8.84,25,9.55,23.66,9.55Zm.22,2.24a1.86,1.86,0,0,0-1.26.28,1.23,1.23,0,0,0-.49.9c0,.75.73,1.33,1.9,1.33s1.86-.57,1.86-1.38a1,1,0,0,0-.71-1A4.07,4.07,0,0,0,23.88,11.79Zm-.21-6.12c-.5,0-1,.54-1,1.59s.41,1.79,1.1,1.79,1-.56,1-1.62S24.38,5.67,23.67,5.67Z" transform="translate(-0.61 -2.25)"/><path class="cls-2" d="M27.74,11.55V11.1c.8-.09.89-.15.89-1.13V7.18c0-.91-.06-1-.78-1.07V5.69a13.6,13.6,0,0,0,2.34-.52V10c0,.95.07,1,.92,1.13v.45Zm1.57-7.42a.91.91,0,1,1,0-1.82.89.89,0,0,1,.9.92A.91.91,0,0,1,29.31,4.13Z" transform="translate(-0.61 -2.25)"/><path class="cls-2" d="M35.8,11.55V11.1c.67-.08.72-.15.72-1.11V7.62c0-1-.44-1.42-1.08-1.42a2,2,0,0,0-1.23.53v3.35c0,.89.07.94.73,1v.45H31.77V11.1c.8-.11.88-.14.88-1.06V7.14c0-.87-.11-.91-.77-1V5.69a13,13,0,0,0,2.35-.54c0,.24,0,.71,0,1,.28-.2.58-.41.92-.62a2,2,0,0,1,1.12-.38c1.13,0,1.84.82,1.84,2.23v2.65c0,.9.08.94.8,1v.45Z" transform="translate(-0.61 -2.25)"/><path class="cls-2" d="M45.75,11.55a1.46,1.46,0,0,1-.58.17c-1,0-1.6-.52-1.6-1.74V6h-.92l-.07-.17L43,5.35h.6V4.19c.41-.32,1-.74,1.41-1.05l.19.08c0,.45,0,1.22,0,2.13H46.6a.54.54,0,0,1-.1.66H45.13V9.5c0,1.1.45,1.26.75,1.26a1.79,1.79,0,0,0,.74-.17l.13.46Z" transform="translate(-0.61 -2.25)"/><path class="cls-2" d="M47.3,11.55V11.1c.8-.09.89-.15.89-1.13V7.18c0-.91-.06-1-.79-1.07V5.69a13.51,13.51,0,0,0,2.35-.52V10c0,.95.07,1,.92,1.13v.45Zm1.57-7.42a.91.91,0,1,1,0-1.82.89.89,0,0,1,.9.92A.91.91,0,0,1,48.87,4.13Z" transform="translate(-0.61 -2.25)"/><path class="cls-2" d="M59.05,11.55V11.1c.65-.08.75-.14.75-1V7.67c0-1.1-.47-1.46-1.06-1.46a2,2,0,0,0-1.22.54,5,5,0,0,1,0,.59v2.79c0,.82.08.89.76,1v.45H55.22V11.1c.7-.08.78-.13.78-1V7.62c0-1-.37-1.42-1-1.42a2.09,2.09,0,0,0-1.24.53v3.39c0,.83.09.9.7,1v.45H51.32V11.1c.83-.09.89-.15.89-1V7.14c0-.82,0-.93-.74-1V5.69a12.18,12.18,0,0,0,2.29-.54V6.22c.3-.21.57-.41.92-.62a2,2,0,0,1,1.16-.41,1.62,1.62,0,0,1,1.55,1.09c.36-.27.67-.48,1-.72a2.07,2.07,0,0,1,1.11-.37c1.18,0,1.83.81,1.83,2.22v2.71c0,.83.08.88.8,1v.45Z" transform="translate(-0.61 -2.25)"/><path class="cls-2" d="M68.34,10.24a3.2,3.2,0,0,1-2.48,1.48,2.84,2.84,0,0,1-2.87-3,3.68,3.68,0,0,1,1-2.5,3.05,3.05,0,0,1,2.15-1A2.26,2.26,0,0,1,68.4,7.43c0,.25,0,.45-.22.5s-2.18.17-3.65.23c0,1.62,1,2.38,2,2.38a2.39,2.39,0,0,0,1.6-.66Zm-2.5-4.49c-.59,0-1.12.64-1.24,1.75l1.94,0c.22,0,.3,0,.3-.28C66.85,6.46,66.47,5.75,65.84,5.75Z" transform="translate(-0.61 -2.25)"/><path class="cls-2" d="M91.52,15.39c-.8.08-.87.14-.87,1v3.89c0,.83.08.88.87,1v.34h-3v-.34c.81-.1.87-.13.87-1V18.33h-3v1.92c0,.83.09.87.86,1v.34H84.42v-.34c.76-.08.86-.13.86-1V16.36c0-.83-.09-.9-.86-1v-.34h2.93v.34c-.77.07-.86.14-.86,1v1.49h3V16.36c0-.83-.1-.89-.87-1v-.34h3Z" transform="translate(-0.61 -2.25)"/><path class="cls-2" d="M95.32,21.67a.86.86,0,0,1-.56-.2,1,1,0,0,1-.26-.4,3.23,3.23,0,0,1-1.11.6,1.29,1.29,0,0,1-1.31-1.27c0-.51.25-.78.79-1a8.62,8.62,0,0,0,1.6-.66V18.4c0-.58-.25-.91-.71-.91a.54.54,0,0,0-.43.21,2.32,2.32,0,0,0-.25.65.35.35,0,0,1-.38.3.56.56,0,0,1-.53-.49c0-.16.12-.29.34-.44A4.65,4.65,0,0,1,94.05,17a1.65,1.65,0,0,1,1,.28,1.36,1.36,0,0,1,.53,1.21v1.8c0,.47.16.6.33.6a.82.82,0,0,0,.33-.09l.11.31Zm-.85-2.52-.69.35c-.33.16-.53.34-.53.69a.7.7,0,0,0,.65.77.85.85,0,0,0,.57-.23Z" transform="translate(-0.61 -2.25)"/><path class="cls-2" d="M99.56,21.55v-.32c.47-.06.52-.11.52-.8V18.75c0-.71-.32-1-.78-1a1.39,1.39,0,0,0-.87.38V20.5c0,.64,0,.67.52.73v.32H96.68v-.32c.57-.08.63-.1.63-.76V18.4c0-.61-.07-.65-.55-.73v-.3A9.33,9.33,0,0,0,98.44,17c0,.17,0,.51,0,.74.2-.14.41-.29.65-.44a1.42,1.42,0,0,1,.8-.27c.8,0,1.31.59,1.31,1.59v1.89c0,.64.06.68.57.74v.32Z" transform="translate(-0.61 -2.25)"/><circle class="cls-2" cx="92.39" cy="7.3" r="2"/><path class="cls-2" d="M78.6,31.66c-.11.36-.24.77-.32,1.07h-3v-.2c.44-.43.92-.9,1.32-1.36a3.24,3.24,0,0,0,1-1.92c0-.67-.35-1.05-.94-1.05a1.39,1.39,0,0,0-1.1.74l-.18-.16.45-.65a1.45,1.45,0,0,1,1.1-.48A1.31,1.31,0,0,1,78.25,29a2.6,2.6,0,0,1-1,1.94c-.35.36-.85.84-1.19,1.17h1.52c.44,0,.56,0,.83-.54Z" transform="translate(-0.61 -2.25)"/><path class="cls-2" d="M80.83,27.65c1.2,0,1.65,1.34,1.65,2.58s-.45,2.59-1.65,2.59-1.67-1.32-1.67-2.58S79.62,27.65,80.83,27.65Zm0,.28c-.74,0-.93,1.17-.93,2.29s.23,2.32.93,2.32.91-1.19.91-2.31S81.54,27.93,80.83,27.93Z" transform="translate(-0.61 -2.25)"/><path class="cls-2" d="M86.36,31.66c-.11.36-.24.77-.32,1.07H83v-.2c.44-.43.92-.9,1.31-1.36a3.2,3.2,0,0,0,1-1.92c0-.67-.35-1.05-.94-1.05a1.39,1.39,0,0,0-1.1.74l-.18-.16.45-.65a1.45,1.45,0,0,1,1.1-.48A1.31,1.31,0,0,1,86,29,2.6,2.6,0,0,1,85,31c-.35.36-.85.84-1.19,1.17h1.52c.44,0,.56,0,.83-.54Z" transform="translate(-0.61 -2.25)"/><path class="cls-2" d="M91.6,29.91c.77.13,1.39.5,1.39,1.27a1.36,1.36,0,0,1-.78,1.23,2.54,2.54,0,0,1-1.38.32h-2V32.5c.68-.06.72-.13.72-.77v-3.2c0-.67-.07-.72-.72-.78v-.22H91a2.1,2.1,0,0,1,1.23.28,1,1,0,0,1,.47.89A1.26,1.26,0,0,1,91.6,29.91Zm-.92-.09c.88,0,1.24-.36,1.24-1s-.35-1-1.11-1a.79.79,0,0,0-.45.08c-.07,0-.09.13-.09.39v1.53Zm-.41,1.9c0,.57.14.72.7.72a1.13,1.13,0,0,0,1.24-1.18c0-.81-.58-1.17-1.56-1.17h-.38Z" transform="translate(-0.61 -2.25)"/><path class="cls-2" d="M94.13,32.84a.48.48,0,0,1-.48-.51.49.49,0,0,1,.48-.52.51.51,0,0,1,.51.52A.49.49,0,0,1,94.13,32.84Z" transform="translate(-0.61 -2.25)"/><path class="cls-2" d="M100,31.45a11.24,11.24,0,0,1-.44,1.2,7,7,0,0,1-1.47.2,2.64,2.64,0,0,1-2.88-2.68,2.76,2.76,0,0,1,3-2.75,8.16,8.16,0,0,1,1.51.18c0,.36.09.84.15,1.24l-.25.06a1.39,1.39,0,0,0-.76-1,2.25,2.25,0,0,0-.84-.15c-1.32,0-2,1-2,2.3,0,1.54.8,2.53,2.09,2.53.82,0,1.22-.37,1.63-1.17Z" transform="translate(-0.61 -2.25)"/><path class="cls-2" d="M102.57,31.16h-1.83l.05-.49h1.84Z" transform="translate(-0.61 -2.25)"/><path class="cls-2" d="M106.62,31.66c-.1.36-.24.77-.32,1.07h-3v-.2c.44-.43.92-.9,1.31-1.36a3.24,3.24,0,0,0,1-1.92c0-.67-.35-1.05-.93-1.05a1.39,1.39,0,0,0-1.11.74l-.18-.16.46-.65a1.43,1.43,0,0,1,1.09-.48A1.31,1.31,0,0,1,106.27,29a2.6,2.6,0,0,1-1,1.94c-.34.36-.84.84-1.19,1.17h1.53c.43,0,.55,0,.82-.54Z" transform="translate(-0.61 -2.25)"/><path class="cls-2" d="M110.5,31.66c-.1.36-.24.77-.32,1.07h-3v-.2c.44-.43.92-.9,1.31-1.36a3.24,3.24,0,0,0,1-1.92c0-.67-.35-1.05-.93-1.05a1.39,1.39,0,0,0-1.11.74l-.18-.16.46-.65a1.43,1.43,0,0,1,1.09-.48A1.31,1.31,0,0,1,110.15,29a2.6,2.6,0,0,1-1,1.94c-.34.36-.85.84-1.19,1.17h1.53c.43,0,.55,0,.82-.54Z" transform="translate(-0.61 -2.25)"/><path class="cls-2" d="M112.73,27.65c1.2,0,1.65,1.34,1.65,2.58s-.45,2.59-1.65,2.59-1.67-1.32-1.67-2.58S111.52,27.65,112.73,27.65Zm0,.28c-.74,0-.92,1.17-.92,2.29s.22,2.32.92,2.32.92-1.19.92-2.31S113.45,27.93,112.73,27.93Z" transform="translate(-0.61 -2.25)"/><path class="cls-2" d="M241.94,16.66c-.19-.65-.47-1.35-1.4-1.35a1,1,0,0,0-1,1c0,.6.4.94,1.26,1.37,1.11.56,1.74,1.06,1.74,2a2.1,2.1,0,0,1-2.34,2,5.06,5.06,0,0,1-1.62-.32c-.07-.24-.22-1.16-.29-1.65l.36-.09c.2.65.72,1.66,1.72,1.66a1,1,0,0,0,1-1.07c0-.64-.38-1-1.23-1.43-1-.57-1.69-1.06-1.69-2.06s.79-1.83,2.23-1.83a6.49,6.49,0,0,1,1.39.19c0,.36.1.84.18,1.48Z" transform="translate(-0.61 -2.25)"/><path class="cls-2" d="M245.67,17a2.19,2.19,0,0,1,2.25,2.25,2.3,2.3,0,1,1-4.6.13A2.34,2.34,0,0,1,245.67,17Zm-.12.38c-.5,0-1,.5-1,1.7s.46,2.19,1.16,2.19c.46,0,.91-.33.91-1.75S246.26,17.39,245.55,17.39Z" transform="translate(-0.61 -2.25)"/><path class="cls-2" d="M253.58,21.31a17.94,17.94,0,0,0-1.77.36V21a2.3,2.3,0,0,1-1.43.71c-.78,0-1.29-.5-1.29-1.45v-2c0-.48-.07-.54-.33-.6l-.24-.06v-.3c.49,0,1.23-.1,1.71-.17,0,.38,0,.89,0,1.49V20c0,.73.38,1,.76,1a1.14,1.14,0,0,0,.85-.36V18.2c0-.49-.08-.57-.38-.62l-.3,0v-.3a16,16,0,0,0,1.8-.17v3.29c0,.51.07.61.41.63l.24,0Z" transform="translate(-0.61 -2.25)"/><path class="cls-2" d="M256.08,21.55a.93.93,0,0,1-.41.12c-.72,0-1.14-.37-1.14-1.24V17.6h-.65l-.06-.12.29-.35h.42V16.3c.29-.23.71-.53,1-.75l.14,0c0,.33,0,.87,0,1.53h1a.39.39,0,0,1-.08.47h-1v2.48c0,.8.32.91.53.91a1.52,1.52,0,0,0,.53-.12l.09.32Z" transform="translate(-0.61 -2.25)"/><path class="cls-2" d="M260,21.55v-.32c.49-.06.54-.13.54-.71V18.8c0-.79-.32-1.1-.81-1.1a1.17,1.17,0,0,0-.85.37v2.45c0,.58.07.65.57.71v.32h-2.3v-.32c.52-.06.62-.09.62-.74V15.8c0-.48-.05-.6-.65-.68v-.3a8.72,8.72,0,0,0,1.76-.34v3.21a2.15,2.15,0,0,1,1.39-.68c.85,0,1.39.55,1.39,1.68V20.5c0,.64.07.66.59.73v.32Z" transform="translate(-0.61 -2.25)"/><path class="cls-2" d="M266.64,20.62a2.28,2.28,0,0,1-1.77,1.05,2,2,0,0,1-2.05-2.17,2.59,2.59,0,0,1,.72-1.78,2.15,2.15,0,0,1,1.53-.71,1.61,1.61,0,0,1,1.61,1.6c0,.18,0,.32-.16.36s-1.55.12-2.6.16c0,1.16.69,1.7,1.4,1.7a1.71,1.71,0,0,0,1.15-.47Zm-1.78-3.21c-.42,0-.8.45-.89,1.25l1.39,0c.15,0,.21,0,.21-.2C265.58,17.92,265.31,17.41,264.86,17.41Z" transform="translate(-0.61 -2.25)"/><path class="cls-2" d="M269.8,21.55h-2.52v-.32c.56-.06.62-.11.62-.73V18.35c0-.55,0-.6-.55-.68v-.29A9.07,9.07,0,0,0,269,17v1.08c.42-.63.8-1.06,1.24-1.06a.57.57,0,0,1,.62.56.84.84,0,0,1-.45.74.23.23,0,0,1-.29,0c-.16-.14-.29-.28-.46-.28s-.46.19-.66.62V20.5c0,.62.06.66.79.73Z" transform="translate(-0.61 -2.25)"/><path class="cls-2" d="M274.15,21.55v-.32c.47-.06.51-.11.51-.8V18.75c0-.71-.31-1-.77-1a1.43,1.43,0,0,0-.88.38V20.5c0,.64.05.67.52.73v.32h-2.26v-.32c.57-.08.63-.1.63-.76V18.4c0-.61-.08-.65-.55-.73v-.3A9.33,9.33,0,0,0,273,17c0,.17,0,.51,0,.74.2-.14.42-.29.66-.44a1.42,1.42,0,0,1,.8-.27c.8,0,1.31.59,1.31,1.59v1.89c0,.64.06.68.57.74v.32Z" transform="translate(-0.61 -2.25)"/><path class="cls-2" d="M282.91,16.66c-.19-.65-.47-1.35-1.4-1.35a.94.94,0,0,0-1,1c0,.6.4.94,1.26,1.37,1.11.56,1.74,1.06,1.74,2a2.1,2.1,0,0,1-2.34,2,5,5,0,0,1-1.62-.32c-.07-.24-.22-1.16-.29-1.65l.36-.09c.2.65.72,1.66,1.72,1.66a1,1,0,0,0,1-1.07c0-.64-.38-1-1.23-1.43-1.05-.57-1.69-1.06-1.69-2.06s.79-1.83,2.22-1.83a6.28,6.28,0,0,1,1.39.19c0,.36.1.84.18,1.48Z" transform="translate(-0.61 -2.25)"/><path class="cls-2" d="M286.64,17a2.19,2.19,0,0,1,2.25,2.25,2.3,2.3,0,1,1-4.6.13A2.34,2.34,0,0,1,286.64,17Zm-.12.38c-.5,0-1,.5-1,1.7s.46,2.19,1.16,2.19c.46,0,.91-.33.91-1.75S287.23,17.39,286.52,17.39Z" transform="translate(-0.61 -2.25)"/><path class="cls-2" d="M292.39,21.55v-.32c.47-.06.51-.11.51-.8V18.75c0-.71-.31-1-.77-1a1.43,1.43,0,0,0-.88.38V20.5c0,.64.05.67.52.73v.32h-2.26v-.32c.57-.08.63-.1.63-.76V18.4c0-.61-.08-.65-.55-.73v-.3a9.33,9.33,0,0,0,1.68-.39c0,.17,0,.51,0,.74.2-.14.42-.29.66-.44a1.42,1.42,0,0,1,.8-.27c.8,0,1.31.59,1.31,1.59v1.89c0,.64.06.68.57.74v.32Z" transform="translate(-0.61 -2.25)"/><path class="cls-2" d="M296.55,20a.58.58,0,0,0-.23.39c0,.17.18.37.58.37H298c.62,0,1.48.24,1.48,1.22s-1.32,2-2.65,2S295,23.39,295,22.83a.66.66,0,0,1,.28-.56c.25-.2.55-.42.77-.58a1.42,1.42,0,0,1-.75-.55,1,1,0,0,1-.14-.51,2.69,2.69,0,0,0,1-.71Zm.48.1c-1.07,0-1.82-.6-1.82-1.51A1.74,1.74,0,0,1,297.1,17a2.2,2.2,0,0,1,1.07.26,7.06,7.06,0,0,0,1.37-.15l0,.09a1.23,1.23,0,0,1-.37.58c-.16,0-.46,0-.6-.05a1.33,1.33,0,0,1,.26.85A1.65,1.65,0,0,1,297,20.13Zm.16,1.59a1.32,1.32,0,0,0-.91.2.91.91,0,0,0-.35.64c0,.54.53,1,1.36,1s1.33-.41,1.33-1a.7.7,0,0,0-.51-.7A2.76,2.76,0,0,0,297.19,21.72ZM297,17.36c-.35,0-.7.38-.7,1.13s.29,1.28.79,1.28.69-.41.69-1.16S297.54,17.36,297,17.36Z" transform="translate(-0.61 -2.25)"/><circle class="cls-2" cx="267.27" cy="7.3" r="2"/><path class="cls-2" d="M251.61,32.73V32.5c.88,0,.93-.09.93-.69V28.74c0-.41,0-.43-.41-.46l-.39,0V28a7.14,7.14,0,0,0,1.47-.39v4.16c0,.6,0,.64.94.69v.23Z" transform="translate(-0.61 -2.25)"/><path class="cls-2" d="M255.49,32.73V32.5c.88,0,.93-.09.93-.69V28.74c0-.41-.05-.43-.41-.46l-.39,0V28a7.14,7.14,0,0,0,1.47-.39v4.16c0,.6,0,.64.94.69v.23Z" transform="translate(-0.61 -2.25)"/><path class="cls-2" d="M262.24,31.66c-.11.36-.24.77-.32,1.07h-3v-.2c.44-.43.92-.9,1.31-1.36a3.2,3.2,0,0,0,1-1.92c0-.67-.35-1.05-.94-1.05a1.39,1.39,0,0,0-1.1.74l-.18-.16.45-.65a1.45,1.45,0,0,1,1.1-.48A1.31,1.31,0,0,1,261.89,29a2.6,2.6,0,0,1-1,1.94c-.35.36-.85.84-1.19,1.17h1.52c.44,0,.56,0,.83-.54Z" transform="translate(-0.61 -2.25)"/><path class="cls-2" d="M266.2,27.85c-.77,1.62-1.51,3.24-2.29,4.89l-.58.06-.05-.09a45.27,45.27,0,0,0,2.34-4.37h-1.71c-.52,0-.55.07-.77.6h-.24c.08-.45.11-.85.15-1.2h3.1Z" transform="translate(-0.61 -2.25)"/><path class="cls-2" d="M268.63,31.16h-1.84l.06-.49h1.84Z" transform="translate(-0.61 -2.25)"/><path class="cls-2" d="M269.81,32.73V32.5c.88,0,.93-.09.93-.69V28.74c0-.41-.05-.43-.41-.46l-.39,0V28a7.14,7.14,0,0,0,1.47-.39v4.16c0,.6,0,.64.94.69v.23Z" transform="translate(-0.61 -2.25)"/><path class="cls-2" d="M276.56,31.66c-.11.36-.24.77-.32,1.07h-3v-.2c.44-.43.92-.9,1.31-1.36a3.2,3.2,0,0,0,1-1.92c0-.67-.35-1.05-.94-1.05a1.39,1.39,0,0,0-1.1.74l-.19-.16.46-.65a1.45,1.45,0,0,1,1.1-.48A1.3,1.3,0,0,1,276.2,29a2.59,2.59,0,0,1-1,1.94c-.35.36-.85.84-1.19,1.17h1.52c.44,0,.55,0,.83-.54Z" transform="translate(-0.61 -2.25)"/><path class="cls-2" d="M280.52,27.85c-.77,1.62-1.51,3.24-2.29,4.89l-.58.06,0-.09a45.27,45.27,0,0,0,2.34-4.37h-1.71c-.52,0-.55.07-.77.6h-.25c.08-.45.12-.85.16-1.2h3.1Z" transform="translate(-0.61 -2.25)"/><path class="cls-2" d="M283.48,30.41l-.53.27a1,1,0,0,1-.48.12A1.42,1.42,0,0,1,281,29.3a1.65,1.65,0,0,1,1.64-1.65c1,0,1.61.91,1.61,2a3.19,3.19,0,0,1-2,3,3.75,3.75,0,0,1-.95.21l-.06-.24A2.68,2.68,0,0,0,283.48,30.41Zm-.91-2.48c-.62,0-.84.59-.84,1.15a1.15,1.15,0,0,0,1.07,1.29,1.24,1.24,0,0,0,.72-.24,4.63,4.63,0,0,0,0-.51C283.55,28.9,283.35,27.93,282.57,27.93Z" transform="translate(-0.61 -2.25)"/><path class="cls-2" d="M434.58,22.55v-.34c.78-.08.82-.14.82-1.1v-4c-.76,1.75-1.73,4-2.32,5.4h-.31c-.54-1.38-1.4-3.55-2.13-5.32-.14,3.27-.15,3.95-.15,4.25,0,.54.23.66,1,.73v.34H429v-.34c.58-.05.83-.17.91-.74,0-.35.08-.85.32-4.27,0-.49-.05-.73-.92-.81v-.34h2l2,4.64,2.09-4.64h2v.34c-.83.09-.92.17-.9.94l.06,3.78c0,1,.06,1,.89,1.1v.34Z" transform="translate(-0.61 -2.25)"/><path class="cls-2" d="M437.93,22.55v-.32c.57-.06.64-.11.64-.81v-2c0-.65,0-.69-.56-.76v-.3a10.23,10.23,0,0,0,1.67-.37v3.42c0,.68.05.75.66.81v.32Zm1.13-5.29a.67.67,0,0,1-.66-.65.65.65,0,0,1,.67-.65.63.63,0,0,1,.64.65A.66.66,0,0,1,439.06,17.26Z" transform="translate(-0.61 -2.25)"/><path class="cls-2" d="M443.69,22.55v-.32c.47-.06.52-.11.52-.8V19.75c0-.71-.32-1-.78-1a1.39,1.39,0,0,0-.87.38V21.5c0,.64,0,.67.52.73v.32h-2.27v-.32c.57-.08.63-.1.63-.76V19.4c0-.61-.07-.65-.55-.73v-.3a9.33,9.33,0,0,0,1.68-.39c0,.17,0,.51,0,.74.2-.14.41-.29.65-.44A1.42,1.42,0,0,1,444,18c.8,0,1.31.59,1.31,1.59v1.89c0,.64.06.68.57.74v.32Z" transform="translate(-0.61 -2.25)"/><path class="cls-2" d="M447.85,21a.58.58,0,0,0-.23.39c0,.17.18.37.58.37h1.13c.62,0,1.49.24,1.49,1.22s-1.33,2-2.66,2-1.84-.65-1.85-1.21a.66.66,0,0,1,.28-.56c.25-.2.55-.42.78-.58a1.34,1.34,0,0,1-.75-.55.9.9,0,0,1-.15-.51,2.69,2.69,0,0,0,1-.71Zm.48.1c-1.07,0-1.82-.6-1.82-1.51A1.75,1.75,0,0,1,448.4,18a2.2,2.2,0,0,1,1.07.26,7.06,7.06,0,0,0,1.37-.15l.05.09a1.23,1.23,0,0,1-.37.58c-.16,0-.46,0-.6-.05a1.33,1.33,0,0,1,.26.85A1.65,1.65,0,0,1,448.33,21.13Zm.16,1.59a1.36,1.36,0,0,0-.91.2.89.89,0,0,0-.34.64c0,.54.52,1,1.35,1s1.33-.41,1.33-1a.7.7,0,0,0-.51-.7A2.73,2.73,0,0,0,448.49,22.72Zm-.15-4.36c-.36,0-.7.38-.7,1.13s.28,1.28.78,1.28.69-.41.69-1.16S448.84,18.36,448.34,18.36Z" transform="translate(-0.61 -2.25)"/><circle class="cls-2" cx="439.2" cy="7.3" r="2"/><path class="cls-2" d="M423.54,32.73V32.5c.88,0,.93-.09.93-.69V28.74c0-.41-.05-.43-.41-.46l-.39,0V28a6.56,6.56,0,0,0,1.47-.39v4.16c0,.6,0,.64.94.69v.23Z" transform="translate(-0.61 -2.25)"/><path class="cls-2" d="M427.13,28.61l.37-.51a1.44,1.44,0,0,1,1-.45,1.09,1.09,0,0,1,1.2,1.06.88.88,0,0,1-.24.59,3.79,3.79,0,0,1-.57.44A1.31,1.31,0,0,1,430.11,31c0,1.3-1.53,1.85-2.1,1.85a1.27,1.27,0,0,1-.83-.28.33.33,0,0,1-.12-.26.51.51,0,0,1,.18-.31.17.17,0,0,1,.21,0,1.48,1.48,0,0,0,1,.43c.58,0,1-.44,1-1.21a1,1,0,0,0-1.05-1,2,2,0,0,0-.54.09l-.05-.24c.71-.23,1.28-.55,1.28-1.14a.69.69,0,0,0-.76-.74,1.25,1.25,0,0,0-1,.63Z" transform="translate(-0.61 -2.25)"/><path class="cls-2" d="M432.23,29.71a1.1,1.1,0,0,1,.51-.13,1.42,1.42,0,0,1,1.44,1.48,1.69,1.69,0,0,1-1.65,1.76c-.95,0-1.66-.77-1.66-2a3.27,3.27,0,0,1,2.21-3,8.85,8.85,0,0,1,.9-.21l0,.26a4.64,4.64,0,0,0-.87.28A2.51,2.51,0,0,0,431.7,30Zm.19.32a1.6,1.6,0,0,0-.77.22,3,3,0,0,0,0,.55c0,1,.38,1.73,1.06,1.73s.81-.65.81-1.19S433.15,30,432.42,30Z" transform="translate(-0.61 -2.25)"/><path class="cls-2" d="M436.46,27.65a1.22,1.22,0,0,1,1.3,1.18,1,1,0,0,1-.22.65,7.7,7.7,0,0,1-.67.51c.55.31,1.1.69,1.1,1.39a1.52,1.52,0,0,1-1.61,1.44,1.37,1.37,0,0,1-1.54-1.32,1,1,0,0,1,.36-.79,8.53,8.53,0,0,1,.72-.49A1.47,1.47,0,0,1,435,29,1.34,1.34,0,0,1,436.46,27.65Zm0,4.9a.83.83,0,0,0,.86-.94c0-.63-.54-.95-1.18-1.26a1.23,1.23,0,0,0-.68,1.1A1,1,0,0,0,436.46,32.55Zm-.11-4.64a.74.74,0,0,0-.72.83c0,.58.39.8,1,1.12a1.17,1.17,0,0,0,.53-1C437.17,28.2,436.77,27.91,436.35,27.91Z" transform="translate(-0.61 -2.25)"/><path class="cls-2" d="M438.87,30.82h1.91v.37h-1.91Z" transform="translate(-0.61 -2.25)"/><path class="cls-2" d="M442.06,32.73V32.5c.88,0,.93-.09.93-.69V28.74c0-.41-.05-.43-.41-.46l-.39,0V28a6.56,6.56,0,0,0,1.47-.39v4.16c0,.6,0,.64.94.69v.23Z" transform="translate(-0.61 -2.25)"/><path class="cls-2" d="M446.87,29.71a1.1,1.1,0,0,1,.51-.13,1.42,1.42,0,0,1,1.44,1.48,1.69,1.69,0,0,1-1.65,1.76,1.77,1.77,0,0,1-1.67-2,3.28,3.28,0,0,1,2.22-3,8.24,8.24,0,0,1,.9-.21l.05.26a4.64,4.64,0,0,0-.87.28A2.51,2.51,0,0,0,446.34,30Zm.19.32a1.6,1.6,0,0,0-.77.22,3,3,0,0,0-.05.55c0,1,.38,1.73,1.06,1.73s.81-.65.81-1.19S447.79,30,447.06,30Z" transform="translate(-0.61 -2.25)"/><path class="cls-2" d="M452,31.27v.61c0,.53,0,.57.6.62v.23h-1.87V32.5c.6,0,.64-.1.64-.63v-.6h-2.11V31c.76-1.08,1.58-2.25,2.38-3.36H452v3.22h.78v.38Zm-.63-2.76c-.51.74-1.07,1.55-1.62,2.38h1.62Z" transform="translate(-0.61 -2.25)"/><path class="cls-2" d="M455.88,31.27v.61c0,.53,0,.57.6.62v.23h-1.87V32.5c.6,0,.64-.1.64-.63v-.6h-2.11V31c.76-1.08,1.58-2.25,2.38-3.36h.36v3.22h.78v.38Zm-.63-2.76c-.51.74-1.07,1.55-1.62,2.38h1.62Z" transform="translate(-0.61 -2.25)"/><path class="cls-2" d="M590,15.91a3.24,3.24,0,0,1,3.31,3.31,3.39,3.39,0,1,1-6.77.11A3.34,3.34,0,0,1,590,15.91Zm-.17.42c-1.06,0-1.9,1-1.9,2.78s.79,3.17,2.16,3.17c1,0,1.84-.91,1.84-2.78S591,16.33,589.79,16.33Zm.72,5.63a13.71,13.71,0,0,0,3.06,1.92l-.08.28a5.61,5.61,0,0,1-1.51-.1,10.62,10.62,0,0,1-2.73-1.69Z" transform="translate(-0.61 -2.25)"/><path class="cls-2" d="M594.12,22.55v-.32c.57-.06.63-.11.63-.81v-2c0-.65,0-.69-.55-.76v-.3a10.23,10.23,0,0,0,1.67-.37v3.42c0,.68,0,.75.65.81v.32Zm1.12-5.29a.67.67,0,0,1-.65-.65.65.65,0,0,1,.66-.65.64.64,0,0,1,.65.65A.66.66,0,0,1,595.24,17.26Z" transform="translate(-0.61 -2.25)"/><path class="cls-2" d="M599.87,22.55v-.32c.48-.06.52-.11.52-.8V19.75c0-.71-.32-1-.77-1a1.41,1.41,0,0,0-.88.38V21.5c0,.64,0,.67.52.73v.32H597v-.32c.57-.08.63-.1.63-.76V19.4c0-.61-.08-.65-.55-.73v-.3a9.43,9.43,0,0,0,1.67-.39c0,.17,0,.51,0,.74.2-.14.41-.29.65-.44a1.45,1.45,0,0,1,.8-.27c.81,0,1.31.59,1.31,1.59v1.89c0,.64.06.68.58.74v.32Z" transform="translate(-0.61 -2.25)"/><path class="cls-2" d="M604,21a.57.57,0,0,0-.24.39c0,.17.18.37.59.37h1.13c.61,0,1.48.24,1.48,1.22s-1.33,2-2.66,2-1.84-.65-1.85-1.21a.65.65,0,0,1,.29-.56c.24-.2.55-.42.77-.58a1.42,1.42,0,0,1-.75-.55.81.81,0,0,1-.14-.51,2.77,2.77,0,0,0,1-.71Zm.47.1c-1.06,0-1.81-.6-1.81-1.51A1.74,1.74,0,0,1,604.59,18a2.23,2.23,0,0,1,1.07.26,7,7,0,0,0,1.36-.15l.06.09a1.23,1.23,0,0,1-.37.58c-.17,0-.46,0-.6-.05a1.39,1.39,0,0,1,.26.85A1.66,1.66,0,0,1,604.51,21.13Zm.16,1.59a1.31,1.31,0,0,0-.9.2.87.87,0,0,0-.35.64c0,.54.53,1,1.35,1s1.34-.41,1.34-1a.71.71,0,0,0-.52-.7A2.73,2.73,0,0,0,604.67,22.72Zm-.15-4.36c-.36,0-.7.38-.7,1.13s.29,1.28.79,1.28.68-.41.68-1.16S605,18.36,604.52,18.36Z" transform="translate(-0.61 -2.25)"/><circle class="cls-2" cx="596.46" cy="7.3" r="2"/><path class="cls-2" d="M580.79,32.73V32.5c.89,0,.94-.09.94-.69V28.74c0-.41-.06-.43-.41-.46l-.39,0V28a7,7,0,0,0,1.46-.39v4.16c0,.6.05.64,1,.69v.23Z" transform="translate(-0.61 -2.25)"/><path class="cls-2" d="M585.61,29.71a1.1,1.1,0,0,1,.51-.13,1.41,1.41,0,0,1,1.43,1.47,1.69,1.69,0,0,1-1.65,1.77c-.94,0-1.66-.77-1.66-2a3.28,3.28,0,0,1,2.22-3,6.09,6.09,0,0,1,.9-.21l0,.26a4.41,4.41,0,0,0-.87.28A2.54,2.54,0,0,0,585.07,30Zm.19.32a1.68,1.68,0,0,0-.78.22,3,3,0,0,0,0,.55c0,1,.37,1.73,1,1.73s.82-.65.82-1.19S586.53,30,585.8,30Z" transform="translate(-0.61 -2.25)"/><path class="cls-2" d="M588.26,28.61l.38-.51a1.42,1.42,0,0,1,1-.45,1.09,1.09,0,0,1,1.21,1.06.84.84,0,0,1-.25.59,3.79,3.79,0,0,1-.57.44A1.31,1.31,0,0,1,591.25,31c0,1.3-1.54,1.85-2.11,1.85a1.3,1.3,0,0,1-.83-.28.36.36,0,0,1-.12-.26.47.47,0,0,1,.19-.31.15.15,0,0,1,.2,0,1.5,1.5,0,0,0,1,.43c.57,0,1-.44,1-1.21a1,1,0,0,0-1.06-1,2,2,0,0,0-.53.09l-.06-.24c.71-.23,1.29-.55,1.29-1.14a.7.7,0,0,0-.77-.74,1.27,1.27,0,0,0-1,.63Z" transform="translate(-0.61 -2.25)"/><path class="cls-2" d="M593.37,29.71a1.1,1.1,0,0,1,.51-.13,1.41,1.41,0,0,1,1.43,1.47,1.69,1.69,0,0,1-1.65,1.77c-.94,0-1.66-.77-1.66-2a3.28,3.28,0,0,1,2.21-3,6.61,6.61,0,0,1,.91-.21l0,.26a4.73,4.73,0,0,0-.88.28A2.55,2.55,0,0,0,592.83,30Zm.19.32a1.68,1.68,0,0,0-.78.22,3,3,0,0,0,0,.55c0,1,.37,1.73,1,1.73s.82-.65.82-1.19S594.29,30,593.56,30Z" transform="translate(-0.61 -2.25)"/><path class="cls-2" d="M597.81,31.16H596l0-.49h1.84Z" transform="translate(-0.61 -2.25)"/><path class="cls-2" d="M599,32.73V32.5c.89,0,.94-.09.94-.69V28.74c0-.41-.06-.43-.41-.46l-.39,0V28a7,7,0,0,0,1.46-.39v4.16c0,.6,0,.64.95.69v.23Z" transform="translate(-0.61 -2.25)"/><path class="cls-2" d="M604.91,30.41l-.53.27a1,1,0,0,1-.49.12,1.42,1.42,0,0,1-1.43-1.5,1.64,1.64,0,0,1,1.64-1.65c1,0,1.6.91,1.6,2a3.18,3.18,0,0,1-2,3,3.84,3.84,0,0,1-.95.21l-.07-.24A2.68,2.68,0,0,0,604.91,30.41ZM604,27.93c-.62,0-.84.59-.84,1.15s.39,1.29,1.06,1.29a1.19,1.19,0,0,0,.72-.24,3,3,0,0,0,0-.51C605,28.9,604.78,27.93,604,27.93Z" transform="translate(-0.61 -2.25)"/><path class="cls-2" d="M606.75,32.73V32.5c.89,0,.94-.09.94-.69V28.74c0-.41-.06-.43-.41-.46l-.39,0V28a7,7,0,0,0,1.46-.39v4.16c0,.6,0,.64.94.69v.23Z" transform="translate(-0.61 -2.25)"/><path class="cls-2" d="M613.5,31.66c-.1.36-.24.77-.32,1.07h-3v-.2c.44-.43.92-.9,1.31-1.36a3.24,3.24,0,0,0,1-1.92c0-.67-.35-1.05-.93-1.05a1.39,1.39,0,0,0-1.11.74l-.18-.16.46-.65a1.43,1.43,0,0,1,1.09-.48A1.31,1.31,0,0,1,613.15,29a2.6,2.6,0,0,1-1,1.94c-.34.36-.85.84-1.19,1.17h1.53c.43,0,.55,0,.82-.54Z" transform="translate(-0.61 -2.25)"/><path class="cls-2" d="M743.58,22.62l-.33,0c-1.08-.05-1.45-.3-1.8-.78s-.71-1.16-1-1.73c-.17-.28-.3-.34-.69-.34h-.25v1.5c0,.82.1.89.87,1v.34h-2.92v-.34c.78-.08.86-.15.86-1V17.35c0-.81-.1-.89-.86-1v-.34h2.77a3,3,0,0,1,1.74.37,1.53,1.53,0,0,1,.67,1.33,1.75,1.75,0,0,1-1.26,1.65c.16.3.56,1,.86,1.42a9.22,9.22,0,0,0,.77,1,1.37,1.37,0,0,0,.67.45Zm-3.77-3.26a1.5,1.5,0,0,0,1-.28,1.39,1.39,0,0,0,.5-1.18c0-1.07-.64-1.45-1.28-1.45a.74.74,0,0,0-.48.1c-.08.06-.1.18-.1.4v2.41Z" transform="translate(-0.61 -2.25)"/><path class="cls-2" d="M747.69,21.62a2.28,2.28,0,0,1-1.77,1.05,2,2,0,0,1-2-2.17,2.59,2.59,0,0,1,.72-1.78,2.15,2.15,0,0,1,1.53-.71,1.61,1.61,0,0,1,1.61,1.6c0,.18,0,.32-.15.36s-1.56.12-2.61.16c0,1.16.69,1.7,1.4,1.7a1.71,1.71,0,0,0,1.15-.47Zm-1.78-3.21c-.42,0-.8.45-.89,1.25.47,0,.91,0,1.39,0,.15,0,.21,0,.21-.2C746.63,18.92,746.36,18.41,745.91,18.41Z" transform="translate(-0.61 -2.25)"/><path class="cls-2" d="M748.33,18.35a11.66,11.66,0,0,0,1.71-.44v.75l.75-.44a1.28,1.28,0,0,1,.63-.21A1.83,1.83,0,0,1,753.16,20a2.86,2.86,0,0,1-2.47,2.71,1.6,1.6,0,0,1-.65-.12V23.8c0,.62.06.68.77.77v.31h-2.57v-.31c.63-.07.68-.14.68-.74V19.35c0-.57,0-.62-.59-.69ZM750,21.81a1.41,1.41,0,0,0,.86.38c.65,0,1.1-.68,1.1-1.77s-.62-1.7-1.19-1.7A1.42,1.42,0,0,0,750,19Z" transform="translate(-0.61 -2.25)"/><path class="cls-2" d="M758.84,22.31a17.94,17.94,0,0,0-1.77.36V22a2.3,2.3,0,0,1-1.43.71c-.78,0-1.29-.5-1.29-1.45v-2c0-.48-.07-.54-.33-.6l-.24-.06v-.3c.49,0,1.23-.1,1.71-.17,0,.38,0,.89,0,1.49V21c0,.73.38,1,.76,1a1.14,1.14,0,0,0,.85-.36V19.2c0-.49-.08-.57-.38-.62l-.3,0v-.3a16,16,0,0,0,1.8-.17v3.29c0,.51.07.61.41.63l.24,0Z" transform="translate(-0.61 -2.25)"/><path class="cls-2" d="M761.36,18.17A1.57,1.57,0,0,1,762,18a2,2,0,0,1,2,2.11,2.58,2.58,0,0,1-2.58,2.55,4.36,4.36,0,0,1-1.69-.36V16.84c0-.59-.05-.66-.63-.71v-.31a11.75,11.75,0,0,0,1.75-.34V18.4Zm-.52,3.26a1,1,0,0,0,0,.34,1,1,0,0,0,.81.49c.65,0,1-.64,1-1.84s-.65-1.79-1.33-1.79a1.56,1.56,0,0,0-.58.12Z" transform="translate(-0.61 -2.25)"/><path class="cls-2" d="M764.55,22.55v-.32c.59-.08.63-.13.63-.77V16.83c0-.55-.06-.61-.62-.71v-.3a9.28,9.28,0,0,0,1.73-.34v6c0,.66.05.71.64.77v.32Z" transform="translate(-0.61 -2.25)"/><path class="cls-2" d="M767.41,22.55v-.32c.57-.06.64-.11.64-.81v-2c0-.65,0-.69-.56-.76v-.3a10.23,10.23,0,0,0,1.67-.37v3.42c0,.68.05.75.66.81v.32Zm1.13-5.29a.67.67,0,0,1-.66-.65.65.65,0,0,1,.67-.65.63.63,0,0,1,.64.65A.66.66,0,0,1,768.54,17.26Z" transform="translate(-0.61 -2.25)"/><path class="cls-2" d="M774.21,21.6a2.3,2.3,0,0,1-1.73,1.07,2.08,2.08,0,0,1-2.13-2.13,2.4,2.4,0,0,1,1-1.93A2.81,2.81,0,0,1,773,18a1.53,1.53,0,0,1,.9.25.38.38,0,0,1,.18.34.59.59,0,0,1-.42.52.3.3,0,0,1-.21-.1,1.63,1.63,0,0,0-1-.49c-.48,0-1,.44-1,1.51a1.61,1.61,0,0,0,1.44,1.79,1.53,1.53,0,0,0,1.12-.46Z" transform="translate(-0.61 -2.25)"/><path class="cls-2" d="M779.25,18a2.19,2.19,0,0,1,2.25,2.25,2.3,2.3,0,1,1-4.6.13A2.34,2.34,0,0,1,779.25,18Zm-.12.38c-.5,0-1,.5-1,1.7s.46,2.19,1.16,2.19c.46,0,.91-.33.91-1.75S779.84,18.39,779.13,18.39Z" transform="translate(-0.61 -2.25)"/><path class="cls-2" d="M782.74,18.13V17.9a2.52,2.52,0,0,1,.92-1.9,2.24,2.24,0,0,1,1.19-.52,1.22,1.22,0,0,1,.85.29.39.39,0,0,1,.08.42.83.83,0,0,1-.32.4.26.26,0,0,1-.34,0c-.22-.23-.52-.52-.81-.52s-.47.53-.46,1.64v.44h1a.48.48,0,0,1-.13.47h-.84v2.86c0,.66.09.69.76.77v.32h-2.5v-.32c.58-.07.63-.12.63-.75V18.6h-.68l0-.12.25-.35Z" transform="translate(-0.61 -2.25)"/><path class="cls-2" d="M793.63,20.87a12.91,12.91,0,0,1-.56,1.58,8.85,8.85,0,0,1-1.84.25c-2.58,0-3.73-1.68-3.73-3.33,0-2.05,1.57-3.46,3.91-3.46a10.08,10.08,0,0,1,1.89.24c.05.46.12,1.15.19,1.61l-.37.07a1.7,1.7,0,0,0-1-1.33,2.58,2.58,0,0,0-.94-.16c-1.52,0-2.29,1.21-2.29,2.81,0,1.87,1,3.1,2.41,3.1.91,0,1.44-.45,2-1.51Z" transform="translate(-0.61 -2.25)"/><path class="cls-2" d="M797.16,22.55v-.32c.49-.06.54-.13.54-.71V19.8c0-.79-.32-1.1-.81-1.1a1.17,1.17,0,0,0-.85.37v2.45c0,.58.06.65.57.71v.32H794.3v-.32c.53-.06.63-.09.63-.74V16.8c0-.48,0-.6-.65-.68v-.3a8.72,8.72,0,0,0,1.76-.34v3.21a2.15,2.15,0,0,1,1.39-.68c.85,0,1.39.55,1.39,1.68V21.5c0,.64.07.66.59.73v.32Z" transform="translate(-0.61 -2.25)"/><path class="cls-2" d="M799.93,22.55v-.32c.57-.06.64-.11.64-.81v-2c0-.65-.05-.69-.56-.76v-.3a10.23,10.23,0,0,0,1.67-.37v3.42c0,.68.05.75.66.81v.32Zm1.13-5.29a.67.67,0,0,1-.66-.65.65.65,0,0,1,.67-.65.63.63,0,0,1,.64.65A.66.66,0,0,1,801.06,17.26Z" transform="translate(-0.61 -2.25)"/><path class="cls-2" d="M805.69,22.55v-.32c.47-.06.51-.11.51-.8V19.75c0-.71-.31-1-.77-1a1.43,1.43,0,0,0-.88.38V21.5c0,.64.05.67.53.73v.32h-2.27v-.32c.57-.08.63-.1.63-.76V19.4c0-.61-.08-.65-.55-.73v-.3a9.33,9.33,0,0,0,1.68-.39c0,.17,0,.51,0,.74l.66-.44A1.42,1.42,0,0,1,806,18c.8,0,1.31.59,1.31,1.59v1.89c0,.64.06.68.57.74v.32Z" transform="translate(-0.61 -2.25)"/><path class="cls-2" d="M811.68,22.67a.89.89,0,0,1-.57-.2,1.1,1.1,0,0,1-.25-.4,3.42,3.42,0,0,1-1.11.6,1.29,1.29,0,0,1-1.31-1.27c0-.51.25-.78.79-1a8.62,8.62,0,0,0,1.6-.66V19.4c0-.58-.25-.91-.71-.91a.54.54,0,0,0-.43.21,2.32,2.32,0,0,0-.25.65.35.35,0,0,1-.38.3.57.57,0,0,1-.54-.49c0-.16.13-.29.35-.44a4.65,4.65,0,0,1,1.54-.71,1.62,1.62,0,0,1,1,.28,1.35,1.35,0,0,1,.54,1.21v1.8c0,.47.16.6.33.6a.82.82,0,0,0,.33-.09l.1.31Zm-.85-2.52-.69.35c-.34.16-.53.34-.53.69a.7.7,0,0,0,.65.77.87.87,0,0,0,.57-.23Z" transform="translate(-0.61 -2.25)"/><circle class="cls-2" cx="774.39" cy="7.3" r="2"/><path class="cls-2" d="M756.73,32.73V32.5c.89,0,.93-.09.93-.69V28.74c0-.41,0-.43-.41-.46l-.39,0V28a7.14,7.14,0,0,0,1.47-.39v4.16c0,.6,0,.64.94.69v.23Z" transform="translate(-0.61 -2.25)"/><path class="cls-2" d="M762.65,30.41l-.54.27a1,1,0,0,1-.48.12,1.43,1.43,0,0,1-1.44-1.5,1.65,1.65,0,0,1,1.64-1.65c1,0,1.61.91,1.61,2a3.19,3.19,0,0,1-2,3,3.9,3.9,0,0,1-1,.21l-.06-.24A2.69,2.69,0,0,0,762.65,30.41Zm-.92-2.48c-.62,0-.83.59-.83,1.15s.39,1.29,1.06,1.29a1.21,1.21,0,0,0,.72-.24,4.63,4.63,0,0,0,0-.51C762.71,28.9,762.51,27.93,761.73,27.93Z" transform="translate(-0.61 -2.25)"/><path class="cls-2" d="M764.49,32.73V32.5c.89,0,.93-.09.93-.69V28.74c0-.41,0-.43-.41-.46l-.39,0V28a7.14,7.14,0,0,0,1.47-.39v4.16c0,.6,0,.64.94.69v.23Z" transform="translate(-0.61 -2.25)"/><path class="cls-2" d="M771.24,31.66c-.11.36-.24.77-.32,1.07h-3v-.2c.44-.43.92-.9,1.31-1.36a3.2,3.2,0,0,0,1-1.92c0-.67-.35-1.05-.94-1.05a1.39,1.39,0,0,0-1.1.74l-.18-.16.45-.65a1.45,1.45,0,0,1,1.1-.48A1.31,1.31,0,0,1,770.89,29a2.6,2.6,0,0,1-1,1.94c-.35.36-.85.84-1.19,1.17h1.52c.44,0,.56,0,.83-.54Z" transform="translate(-0.61 -2.25)"/><path class="cls-2" d="M773.75,31.16h-1.84l.06-.49h1.84Z" transform="translate(-0.61 -2.25)"/><path class="cls-2" d="M774.93,32.73V32.5c.88,0,.93-.09.93-.69V28.74c0-.41-.05-.43-.41-.46l-.39,0V28a7.14,7.14,0,0,0,1.47-.39v4.16c0,.6,0,.64.94.69v.23Z" transform="translate(-0.61 -2.25)"/><path class="cls-2" d="M780.85,30.41l-.54.27a1,1,0,0,1-.48.12,1.42,1.42,0,0,1-1.44-1.5A1.65,1.65,0,0,1,780,27.65c1,0,1.61.91,1.61,2a3.19,3.19,0,0,1-2,3,3.75,3.75,0,0,1-1,.21l-.06-.24A2.71,2.71,0,0,0,780.85,30.41Zm-.92-2.48c-.62,0-.84.59-.84,1.15a1.15,1.15,0,0,0,1.07,1.29,1.21,1.21,0,0,0,.72-.24,4.63,4.63,0,0,0,0-.51C780.91,28.9,780.71,27.93,779.93,27.93Z" transform="translate(-0.61 -2.25)"/><path class="cls-2" d="M784.87,31.27v.61c0,.53,0,.57.6.62v.23H783.6V32.5c.6,0,.64-.1.64-.63v-.6h-2.11V31c.76-1.08,1.58-2.25,2.38-3.36h.36v3.22h.78v.38Zm-.63-2.76c-.51.74-1.07,1.55-1.62,2.38h1.62Z" transform="translate(-0.61 -2.25)"/><path class="cls-2" d="M788.61,30.41l-.54.27a1,1,0,0,1-.48.12,1.42,1.42,0,0,1-1.44-1.5,1.65,1.65,0,0,1,1.64-1.65c1,0,1.61.91,1.61,2a3.19,3.19,0,0,1-2,3,3.75,3.75,0,0,1-1,.21l-.06-.24A2.71,2.71,0,0,0,788.61,30.41Zm-.92-2.48c-.62,0-.84.59-.84,1.15a1.15,1.15,0,0,0,1.07,1.29,1.21,1.21,0,0,0,.72-.24,4.63,4.63,0,0,0,0-.51C788.67,28.9,788.47,27.93,787.69,27.93Z" transform="translate(-0.61 -2.25)"/></g></g></svg>