<svg xmlns="http://www.w3.org/2000/svg" viewBox="0 0 340.32 179.13"><defs><style>.cls-1{fill:#204a46;}</style></defs><title>hand_default</title><g id="图层_2" data-name="图层 2"><g id="图层_1-2" data-name="图层 1"><path class="cls-1" d="M106.66,5.7c9,1,17.76,2.77,26.6,4.42q23.3,4.32,46.33,9.94c31.93,7.8,63.28,17.28,92.87,31.89.92.49,2.09.19,2.94.92,2.77,1.52,5.41,2.91,8.84,1.59a9.7,9.7,0,0,1,7.41.56c1,.42,1.93.86,2.19,2a1.76,1.76,0,0,1-.76,1.36c-1.32.22-2.29-.72-3.45-1a10.13,10.13,0,0,0-5.9-.08c1.68,1,3.35,1.72,3.47,3.89a.82.82,0,0,1-1.36.26,266.24,266.24,0,0,0-38.66-18.78,489.27,489.27,0,0,0-58-18.45C167.21,18.57,145,14,122.73,9.77,115.88,8.48,109,7.55,102.17,6,103.58,4.35,105.16,5.71,106.66,5.7Z"/><path class="cls-1" d="M317,80.23a9.47,9.47,0,0,1,5,3.17c2.27,2.78,1.87,5.5-1.1,7.75-.62.3-1,.17-1.23-.53,2.43-4.29.78-7.48-4.39-8.57-1.61-.34-2.3.13-2.21,1.81.16,3.2.78,6.39.4,9.62s-.44,6.25-.78,9.36c-.2,1.83.29,2.85,2.28,2.86a2.72,2.72,0,0,1,3,2c4.43,3,5.23,6.54,2.34,10.28-.84.07-.9-.56-1-1.13.63-4.24-.11-5.92-3.41-7.83-2.15-1.24-3-.85-3.25,1.61a97.76,97.76,0,0,1-3.26,17.4c-1.3,2.21-1.24,4.79-1.93,7.16a28.65,28.65,0,0,1-3.23,8.31,3,3,0,0,0-.85,1.61c-1.3,4.07-4.13,7.14-6.78,10.33a8.72,8.72,0,0,1-.79.82c-3.46,2.86-6.65,6.08-10.79,8.05a14.65,14.65,0,0,1-3.89,1.42,14.58,14.58,0,0,0-1.93.45,33.57,33.57,0,0,1-5.58-.31,2.63,2.63,0,0,1-2.5-1.46c.15-1,1-1,1.67-1.09,10.2,1.4,16.7-4.75,22.68-11.5,5.5-6.21,8.17-13.95,10.23-21.85a137.67,137.67,0,0,0,4.54-27.56c.81-15.39-1.15-30.29-8.7-44.06a5.75,5.75,0,0,1-.82-2.2c.18-2,1.21-1.39,2.26-.71,2.71,3,4.09,6.77,5.66,10.41a83.35,83.35,0,0,1,3.12,10.81c.28,1.13.5,2.28,2,2.34C314.88,79.3,315.87,80,317,80.23Z"/><path class="cls-1" d="M165.12,46.33q-29.52-5.86-59.18-11C87.87,32.27,69.75,29.59,51.47,28c-5.51-.91-11.1-1-16.63-1.58-.9-.1-1.94.22-2.68-.62.35-.85,1.05-.51,1.59-.47Q54.35,27,75,28.72a2.34,2.34,0,0,1,.73.25c13,1.45,25.9,3.78,38.8,6q25.68,4.41,51.18,9.72c.84-.37,1.3.09,1.67.76l.48.56C167.12,47.75,166.05,46.51,165.12,46.33Z"/><path class="cls-1" d="M119.76,65.84c-5.89-.39-11.72-1.31-17.57-2.1-3.67-.72-7.4-1.19-11.09-1.55C81.2,61.21,71.34,60,61.43,59,52.24,58.2,43,57.82,33.84,56.87c-.86-.08-1.88.22-2.64-.71,1.07-.92,2.28,0,3.29-.46,12.85,0,25.6,1.3,38.34,2.79C94.4,61,116,63.62,137.52,66.21c3.38.4,6.74.9,10.11,1.36,1.28.65,2.87.07,4.08,1.2C141,68.66,130.4,66.87,119.76,65.84Z"/><path class="cls-1" d="M52.51,86l-18.4.14c-.33-.26-.71-.5-.43-1,13-1.56,26.05-.6,39.07-.08,22.3.91,44.55,2.57,66.69,5.54,1.46.73,3.26,0,4.7,1-.46.93-1.18.82-1.84.66a62.06,62.06,0,0,0-6.23-.66c-13.48-1.78-27-2.83-40.59-3.81-12.06-.87-24.14-1.27-36.21-1.86A58.73,58.73,0,0,0,52.51,86Z"/><path class="cls-1" d="M181.83,164.5c-9,1.42-18.15,2.18-27.24,3.17q-20.26,2.19-40.29,6c-.82.1-1.85.76-2.1-.75,20.74-5.33,42-7,63.2-9.09,1.81-.17,3.62-.25,5.41-.59h0a4.89,4.89,0,0,1,3.22.36C183.55,164.84,182.32,163.73,181.83,164.5Z"/><path class="cls-1" d="M73.21,78.73C87.07,83.63,99.09,81,109.06,70a3,3,0,0,1,.6-.47.68.68,0,0,1,.26,0c.06.14.22.37.17.43-2.29,2.8-.38,4.37,1.62,6.12a49.71,49.71,0,0,0,15.1,8.65,27.28,27.28,0,0,0,11.92,1.49l0,0a4.64,4.64,0,0,1,3.19.36c-.35,1.31-1.74,0-2.1,1a30.68,30.68,0,0,1-9.51-.54c-2.09-.71-4.23-1.29-6.35-1.92a34.83,34.83,0,0,1-14.5-9.37c-1.43-1.55-2.16-1.67-3.8-.26a30.56,30.56,0,0,1-34.14,3.7C71.76,77.93,72.54,78.55,73.21,78.73Z"/><path class="cls-1" d="M182.2,106.68a37.65,37.65,0,0,1-19.45-10.25c-.66-.63-1.15-1.81-2.27-1.48s-1.33,1.73-1.55,2.79c-1.45,7.15,1.14,12.81,6.64,17.3a31.12,31.12,0,0,0,9.76,5.28c-.53,1.31-1.59.61-2.27.4a8,8,0,0,1-2.33-.87,25.75,25.75,0,0,1-9.67-7.24c-4.35-5.45-4.87-11.43-2.56-17.83-.31-1,1-.57,1.16-1.24-1.18-2-2.48-3.9-3.51-6-2.07-4.12-2.67-8.32-.11-12.52,1.13.34.51,1.08.39,1.7C154.21,84.84,159,90.1,164,95.26c4.4,4.63,10,7.35,15.88,9.58a31.85,31.85,0,0,0,5.44,1.28.46.46,0,0,1,.24.68A4.61,4.61,0,0,1,182.2,106.68Z"/><path class="cls-1" d="M215.83,159.87l5.39-.62c1.54-.38,3.16-.32,4.71-.69,8.34-1.25,16.68-2.44,25-3.78,4.2-.67,8.37-1.58,12.54-2.44a37.27,37.27,0,0,0,17.84-8.72c.5-.1.69.22.82.62.05,1.71-1.09,2.75-2.28,3.6-2.9,2.09-5.86,4.12-9.43,4.93a7.29,7.29,0,0,0-2.39.86,6.78,6.78,0,0,1-2.18.45,7.09,7.09,0,0,0-2.85.78,32.82,32.82,0,0,1-10.21,1.65l-23.16,2.94c-1.77.29-3.61.1-5.33.74a43.09,43.09,0,0,1-7.92.82,1.38,1.38,0,0,1-.51.11c-.56-.09-1.5.21-1.58-.46C214.16,159.53,215.42,160.39,215.83,159.87Z"/><path class="cls-1" d="M98.75,107.36c-10.58,3-20.69,3.26-29.19-5.2-1-1-1.66-.76-2.68-.26-5.2,2.56-10.58,4.54-16.5,4.5a17.91,17.91,0,0,1-7.31-.91c3.16-.29,6.33-.14,9.46-.58,5.24-1.14,10.49-2.19,15.07-5.32.91-.62,2,.64,2.83,1.38a23,23,0,0,0,17,6.25c3.09-.1,6.17-.49,9.26-.74C97.49,106.44,98.66,105.6,98.75,107.36Z"/><path class="cls-1" d="M292.47,122.36c3.65-15,4.3-30,.52-45-.15-.76-.49-1.62.79-1.72,2.23,1.79,2.76,4.48,3.16,7,2.14,13.51,1.72,26.93-2.28,40.11-.32,1-.45,2.3-1.87,2.58C291.46,124.45,292.27,123.37,292.47,122.36Z"/><path class="cls-1" d="M178.57,30.06c-6.31,6.42-14,8.37-22.57,6.4a55.47,55.47,0,0,1-20.33-9.79c-.07-.6.1-.9.75-.63,5.71,2.93,11.25,6.16,17.5,8,9.2,2.68,17.14.5,24.24-5.6C179.4,28.69,178.87,29.41,178.57,30.06Z"/><path class="cls-1" d="M258.86,96.12c-2.32-.74-4.64-1.5-7-2.21-1.75-.54-3-.42-2.85,2a21,21,0,0,1-.37,3.59.28.28,0,0,1-.51.18c-.12-.17,0-.48-.06-.73-.31-1.69.19-3.35.19-5-.31-1.2-1.3-1.21-2.26-1.28-3.62-.27-7.23-.65-10.85-.85-.45.17-.58,1-1.31.61-.37-.47-1.12-.75-.83-1.57l.64-.5a1.58,1.58,0,0,1,1.17-.32,83.8,83.8,0,0,1,10.14.53c1.75.2,2.44-.41,2.12-2.18a38.73,38.73,0,0,1-.53-4.14c-.18-2.32-1.29-3.5-3.65-3.44-1-.11-2.05-.12-3.06-.32-.79-.16-1.77-.19-1.73-1.41h0c2.66-.39,5.28.67,7.93.2.65-1.32-.35-2.36-.67-3.47-1-3.57-2.24-7.09-3.39-10.62-.29-.64-.63-1.29.5-1.42,2.73,4.67,4.09,9.82,5.2,15,.45,1.22,1.55.9,2.44,1,1.58.26,3.24,0,5.22.89a9,9,0,0,1-5.36-.06c-1,0-1.81.13-1.59,1.6.4,2.74.59,5.5.85,8.26.07.79.09,1.45,1.12,1.74,3.06.86,6.08,1.85,9.12,2.79C259.81,95.71,259.77,96.18,258.86,96.12Z"/><path class="cls-1" d="M205,138c-16.91-5.06-32.13-2.36-45.23,9.9a4.44,4.44,0,0,1-3.07,1.16c-2.07.08-4.15.58-6.23.13,1.49-1.33,3.3-.47,4.54-.89a71.16,71.16,0,0,1-8.28.23c-1.13-.07-2.27.07-3.08-1,4.17,0,8.35,0,12.51.13a5,5,0,0,0,4.15-1.5c6.46-6.3,14-10.6,23.08-11.76A48.52,48.52,0,0,1,203,136.21a27,27,0,0,1,2.75,1.07c.33.17.5.45.13.76S205.27,138.16,205,138Z"/><path class="cls-1" d="M34.49,55.7c-.73.79-1.87-.08-2.88.79,6,.16,11.61,1.22,17.36.92,3.42-.17,6.7,1,10.09,1.21,11.39.62,22.68,2.24,34,3.5,3,.33,6.21.42,9.13,1.62-10.32-1.16-20.64-2.36-31-3.48-16.68-1.81-33.36-3.41-50.18-3-4,.09-7.93,1.14-12,.57a5,5,0,0,1-3.35-.35c.72-1,1.71-.35,2.38-.72,7.15-.28,14.26-1.36,21.44-1.24C31.21,55.52,32.85,55.63,34.49,55.7Z"/><path class="cls-1" d="M155.57,112.35c-10.34,5.84-21.43,6.82-32.88,4.8-5.35-1-10.61-2.42-15-6,0-.94.48-1,1.16-.55,15,7.89,30.26,7.14,45.61,1C155.13,111.45,155.67,111.4,155.57,112.35Z"/><path class="cls-1" d="M44.93,36c4.07,5.16,8.88,9.36,15.22,11.51a29.92,29.92,0,0,0,22-.55c.76-.45,1-.2.94.63-5.35,3.82-11.38,3.83-17.48,2.95A30.53,30.53,0,0,1,46.09,39.49a2.4,2.4,0,0,0-2.45-.9A13.77,13.77,0,0,1,35.38,37c.19-1.53,1.13-.81,1.88-.63a28.49,28.49,0,0,0,6.42,1C44.55,37.34,43.77,35.78,44.93,36Z"/><path class="cls-1" d="M19,64.37c5.62,7.55,13.72,9.91,22.52,10.57a32.72,32.72,0,0,0,17.89-3.63c.53-.23.32-1.38,1.3-1l1.31,1.39c-.28,1.16-1.67.52-2.15,1.34C50.62,78.13,41,77.87,31.19,74.81a28.14,28.14,0,0,1-11.37-7.2c-.26-1-1.69-1.42-1.38-2.71C18.34,64.39,18.57,64.24,19,64.37Z"/><path class="cls-1" d="M159.66,93.54l-1.16,1.24a110.86,110.86,0,0,0-11.91-1.56c-18-2.64-36-4.11-54.12-5.35C79.94,87,67.4,86.38,54.85,86.19c-.78,0-1.56-.14-2.34-.22a16.29,16.29,0,0,1,6.17-.39c7.93.44,15.86.76,23.78,1.12,13.35.59,26.64,1.78,39.94,3,7,.64,14,1.67,21.36,2.18-1.5-1-3.17-.26-4.32-1.31,5.95.42,11.78,1.65,17.66,2.61C158,93.31,158.8,93.42,159.66,93.54Z"/><path class="cls-1" d="M302.84,145c0-.65-.09-1.32.7-1.62a11.44,11.44,0,0,1,3.63,2c1.37.66,1.4,2.35,2.5,3.23a4.69,4.69,0,0,1,.7,5.8c-1.89,3.24-5.1,2.22-7.93,2.12,1.86,7.36,8.43,6.78,13.79,8.22,1.35.36,2.91.07,4.6,1.42-4.23.47-7.7-.55-11.13-1.5-2.5-.7-5-2.34-5.76,2a2.17,2.17,0,0,1-1.86,1.9c-.53.11-1.06.19-1.33-.46.93-2,2.62-3.75,1.79-6.19a12.25,12.25,0,0,0-4.44-6.16c-1-2,.28-2.07,1.64-1.79a19.73,19.73,0,0,0,4.87.84c1.52-.05,3.08-.22,3.85-1.73s-.31-2.8-1.25-4C305.94,147.54,304,146.67,302.84,145Z"/><path class="cls-1" d="M297.69,38.76a1.92,1.92,0,0,0,.51.1c5.91-.48,5.92-.48,8.62,5a1.35,1.35,0,0,0,1.25.73,5.51,5.51,0,0,1,4,2.09c.51.69,1.2.61,1.88.57A62,62,0,0,1,338.28,51c-.55,1.32-1.48.44-2.27.39-6.45-1.34-12.86-2.87-19.51-3-2.4-.06-4.05,0-3.93,3,0,.46-.36.94-.57,1.44.66.85,1.87.21,2.59.9-1.58,1.1-2.86.71-3.92-.77a3,3,0,0,1-.21-1.53c.29-3.59-1.48-5.26-5.08-4.8-1.22.15-2.34.75-3.58.79a1.26,1.26,0,0,1-1.2-.82c.06-1.58,1.4-1.77,2.47-2.27.66-.31,1.67-.26,1.67-1.32a2.59,2.59,0,0,0-1.59-2.19c-1.67-1-3.4.08-5.09-.21C296.75,39.63,296.7,39.39,297.69,38.76Z"/><path class="cls-1" d="M88.85,45.9c5.09,2.84,10.25,5.48,16.07,6.56a37.47,37.47,0,0,0,23.19-2.79.64.64,0,0,1,.9,0,.7.7,0,0,1,0,1.09c-6.56,4.28-13.88,4.7-21.33,3.92a38.62,38.62,0,0,1-19.9-8.25C87.79,45.46,88.21,45.44,88.85,45.9Z"/><path class="cls-1" d="M219.47,102.37a79.61,79.61,0,0,1,49,12.73c-1.71.67-2.61-.73-3.82-1.34-13.34-6.82-27.39-10.62-42.46-10.16-.51,0-1-.07-1.55-.11a3.67,3.67,0,0,1-2.76-.32C218,102.07,219,102.76,219.47,102.37Z"/><path class="cls-1" d="M234.58,90.38l-.9-.07c-.37-2.66-.83-5.31-1.09-8-.17-1.74-.91-2-2.56-1.88a106.61,106.61,0,0,0-26.58,5.82c-.66.17-1.42.56-1.53-.63a88.85,88.85,0,0,1,26.43-6.32c3.63-.33,3.64-.22,2.78-3.81-.14-.59-.24-1.19-.36-1.78s-.6-1.44.64-1.5c.15.4.34.79.45,1.2.45,1.67.46,3.64,1.41,4.92,1.08,1.47,3.27,0,4.87.68,1.58,1.4,3.64.42,5.36,1.1-.92,1.6-2.43.94-3.7.86-5.6-.33-5.57-.37-4.84,5.26C235.14,87.62,235.93,89.12,234.58,90.38Z"/><path class="cls-1" d="M167.42,50.71c.59,4.9.86,9.84,2,14.68a38.32,38.32,0,0,0,12.21,21,9.36,9.36,0,0,0,1.75,1c.41.19.7.46.48.93-.12.26-.38.19-.6.07-3.07-.74-4.94-3.15-6.88-5.28-6.19-6.78-8.65-15.14-9.73-24-.1-.86-.13-1.73-.2-2.59.15-2.61-.77-5.26.14-8.07C167.71,49,166.84,50.13,167.42,50.71Z"/><path class="cls-1" d="M136.42,26l-.75.63c-2.21-1.87-4.66-1.86-7.47-1.57-8.53.9-16.59-.51-23.44-6.21-.23-.34-.61-.71-.35-1.12s.72-.33,1.09,0c8.55,5.87,17.91,7,27.84,4.75a8.07,8.07,0,0,1,3.73-.05c-.4,1.27-1.63,1.13-2.46,1.62C134.61,25.28,136.06,25.17,136.42,26Z"/><path class="cls-1" d="M129.71,53.86A43.49,43.49,0,0,0,156,64.32a57.35,57.35,0,0,0,7.3-.29c.67-.06,1.71-.79,1.91.47s-.9,1-1.63,1.14A39,39,0,0,1,135,59.25C132.88,57.83,130.74,56.38,129.71,53.86Z"/><path class="cls-1" d="M37.26,36.34c-.66.1-1.44-.14-1.88.63-4.25-2.14-6.89-5.78-9-9.84-.71-1.35-.76-2.65,1.44-2.45,15.81,1.43,31.68,2.06,47.43,4a1.35,1.35,0,0,1,.45.25c-5.48-.42-11-.82-16.43-1.26-8.78-.7-17.56-1.43-26.39-1.63,5.3.44,10.59.85,15.88,1.31.93.08,1.95-.13,2.73.64a215.27,215.27,0,0,1-24.66-2.55C29.62,30.29,32.63,34.07,37.26,36.34Z"/><path class="cls-1" d="M309.67,148.58c-1.49-.37-1.5-2.2-2.77-2.78.94-1,2.13-.44,3.21-.51,3-.18,4.16-2,3.11-4.76-1.21-3.22-4-5.47-6.48-5.31.71-2.41.32-5.13,2.06-7.25,1.09,1.08.07,2.22.1,3.33,1.42,1.79,5.07,2.23,6.63.8,1.72-1.57,1.6-4-.17-6-1.26-1.42-3.26-2-4.17-3.79a1.05,1.05,0,0,1,.79-1.21c1.24-.27,1.49,1,2.25,1.45,2.31,1.33,4.46,2.81,4.74,5.77.38,4.13-2.14,6.25-7.19,6,.16,1.28,1.29,1.8,1.93,2.63,1.48,1.92,2.54,4,2,6.49a4.91,4.91,0,0,1-5,3.7C309.21,147.12,309.21,147.12,309.67,148.58Z"/><path class="cls-1" d="M310.91,52.44c.84,1.56,2.3,1.28,3.68,1.25,5.48,2.09,5.79,6.23.81,12.4,3,1,6.79,1.15,7.3,5.15.36,2.83-1.75,4.57-3.95,6-.67.43-1,.1-1.19-.54.06-1.16,1-1.74,1.65-2.55,1.83-2.35,1.28-4.16-1.6-5.05a30.71,30.71,0,0,0-4.88-.61c-.76-.11-1.76-.1-2-.93s.78-1.21,1.32-1.73a8.32,8.32,0,0,0,3.93-4c1.53-3.68-.63-6.66-4.6-6.48-1,0-2.55,1.19-2.92-.37C308.14,53.6,309.61,52.85,310.91,52.44Z"/><path class="cls-1" d="M149.19,119.18c5.47,3.9,11,7.79,17.65,9.41,4.69,1.13,9.43,1.73,14.18.27-.44,1.78-.55,1.93-3,2.3-6.46,1-12.49-.53-18.24-3.32a48.46,48.46,0,0,1-11.77-8.17C148.1,118.76,148.54,118.73,149.19,119.18Z"/><path class="cls-1" d="M143.62,147.57c4.16.78,8.37.51,12.57.67-1.87.69-3.91.18-5.75.95-5.49,0-11,0-16.46.07a25.11,25.11,0,0,0-16.1,5.74c-.78.29-1.24.15-1.09-.81,5.16-5,11.56-6.66,18.5-6.74C138.07,147.41,140.84,147.52,143.62,147.57Z"/><path class="cls-1" d="M105.5,17.75c-1-.08-.88.51-.74,1.14-3-1.9-5.13-4.68-7.51-7.21-.56-.59-.91-1.38-2.1-1.15-7.87,1.51-13.28-2.79-18.23-8A14,14,0,0,0,75.07.71C76.48-.72,77.2.28,78,1.37a18.7,18.7,0,0,0,15.06,8c1.52,0,1.53-.09,1.87-2.24A119,119,0,0,0,105.5,17.75Z"/><path class="cls-1" d="M109.54,161.29c-4.85,1.2-9.78,2.19-13.13,6.46C94,170.8,92.22,174.09,91.89,178a.83.83,0,0,1-.19,1.09c-1.61-.09-.78-1.28-.74-1.93.56-8.73,6.56-15.27,15.38-16.86,1-.35,2,0,3-.41.36-.17,1.11-.25,1.22.46S109.7,160.79,109.54,161.29Z"/><path class="cls-1" d="M318,107.67c-1.06-1.3-2.59-1.19-4-1.28s-2.18-.77-2-2.32c.35-3.69.65-7.39,1-11.09,1.37.52,1,1.72.9,2.66-.29,2.52.06,5,0,7.54-.06,1.48.69,2,2.07,2a8.09,8.09,0,0,0,2.54-.51c3.21-1.23,3.72-3.54,1.34-6a15.27,15.27,0,0,0-2.73-2c-.77-.52-1.72-.92-1.77-2.07.71-1,1.53-.49,2.34-.19a8.66,8.66,0,0,1,3.9,2.51c3.69,3.76,2.93,7.56-1.92,9.6C318.88,106.76,318.06,106.74,318,107.67Z"/><path class="cls-1" d="M26.22,99.17c-3.71,2.2-7.57,2-11.26.18-4.08-2-7.31-4.92-8.6-9.52-.1-.55-.21-1.1.52-1.33,2,1.62,2.92,4,4.88,5.71,3.52,3,7.1,5.37,12,3.88a3.28,3.28,0,0,1,1.56,0C25.86,98.24,26.45,98.39,26.22,99.17Z"/><path class="cls-1" d="M197.47,155.91c-6.73-5.76-13.42-11.53-22.59-14.63C180.66,140.58,195.66,150.48,197.47,155.91Z"/><path class="cls-1" d="M297.69,38.76c-1,.85.35,1,.47,1.49a3.79,3.79,0,0,1,0,1.3c-.35,1.33-.53,3.36-2.06,3.21s-.82-2.12-.84-3.31c0-1.66.27-3.47-1.69-4.25s-3.67.11-5,1.73c-1.13,1.35-1.72,3-2.75,4.43-.36.46-.47,1.1-.92,1.48-.73.62-1.44.87-1.75-.42,1-2,2-4,3.14-5.9a7.66,7.66,0,0,1,4.48-3.77C294.1,33.83,296.05,35,297.69,38.76Z"/><path class="cls-1" d="M52.53,104.91c-2.9,1-5.89.64-8.89.94l6.74.55c-8.36.73-15.6-2-22.1-7.08,0-.86.59-.82,1.17-.86a116.73,116.73,0,0,0,13.69,5.79,13,13,0,0,0,6.27.48Z"/><path class="cls-1" d="M292.47,122.36c.24.92-.53,2,.44,2.79a1.83,1.83,0,0,1,.14,2c-2.6,5.55-4.48,11.52-9,16-.61.61-1.15,1.33-2.15,1.27l-.58-.77C286.86,137.49,289.67,129.93,292.47,122.36Z"/><path class="cls-1" d="M106.66,5.7c-1.48.35-3-.73-4.49.27A158.28,158.28,0,0,1,79.86,1.36c2.64-.52,5.1.32,7.6.75C93.88,3.21,100.26,4.49,106.66,5.7Z"/><path class="cls-1" d="M2.7,58.31c3.05,3.5,5.77,7.37,10.34,9.15,1,.85,2.27.36,3.38.65.56.15,1.52-.17,1.25,1-4.45,1-7.94-.81-11-3.88a50.44,50.44,0,0,1-6.14-8c0-.7.36-.92,1-.75C2.5,56.72,2.57,57.54,2.7,58.31Z"/><path class="cls-1" d="M191.93,64.82a54,54,0,0,0,18.82,1.47c1,0,2.17-.71,2.67.82a43.42,43.42,0,0,1-24.12-1.86C190,63.72,191,64.55,191.93,64.82Z"/><path class="cls-1" d="M191.93,64.82c-.89.08-1.89-.55-2.63.43a39.21,39.21,0,0,1-16.88-12c-.06-.61.19-.84.78-.63A46.37,46.37,0,0,0,191.93,64.82Z"/><path class="cls-1" d="M233,90.81l.94,1.13c-1.4.49-2.83-.37-4.23.07a68.36,68.36,0,0,0-16.35,3c-.58.1-1.21.29-1.16-.68C218.94,91.79,225.81,90.24,233,90.81Z"/><path class="cls-1" d="M119.76,65.84c4.53.11,9,.7,13.49,1.26,5.95.73,11.95,1,17.87,1.52-1-.78-2.54,0-3.49-1.05A41.11,41.11,0,0,1,156,68.76c1.1.65,2.56,0,3.59,1.2a77,77,0,0,1-12.23-.84C138.11,68.21,128.89,67.41,119.76,65.84Z"/><path class="cls-1" d="M293.72,75.74c-.73.32-.53,1.06-.73,1.62-1.54-4-2.81-8.1-4.72-12a16.48,16.48,0,0,0-2.43-3.94c.46-.11,1-.13,1.25-.6A1.94,1.94,0,0,1,288.74,62a43.2,43.2,0,0,1,5.37,12.08A1.54,1.54,0,0,1,293.72,75.74Z"/><path class="cls-1" d="M109.54,161.29c-.34-.37,1.43-.9,0-1a21.67,21.67,0,0,1-3.23.05c4.07-1.1,5.89-2.15,9.4-5.42a8.54,8.54,0,0,1,1.05-.73c.14.57.62.69,1.09.81a38,38,0,0,0-9.55,12.84c-1.12-.33-.48-1.07-.39-1.69.64-1.28,1.28-2.56,1.91-3.84C110.06,161.89,110.49,161.37,109.54,161.29Z"/><path class="cls-1" d="M208.39,105.17a62.74,62.74,0,0,0-15.49,6.5c-.71.34-1.15.27-1-.67a38.32,38.32,0,0,1,15.3-6.65C207.46,104.81,208.21,104.58,208.39,105.17Z"/><path class="cls-1" d="M108.88,110.62a1.12,1.12,0,0,0-1.16.55,8.07,8.07,0,0,1-3.26-2.44c-1.61-2.09-3.42-2.54-5.71-1.37-.4-1-1.35-.71-2.1-.88l10.12-3c-.82,1.57-2.26,1.52-3.2,2.38C104.81,108.06,107.39,108.74,108.88,110.62Z"/><path class="cls-1" d="M112.2,172.91c.48.88,1.42.45,2.1.75l-15,3.53c-.65.11-1.45.55-1.55-.66C102.52,175.17,107.22,173.46,112.2,172.91Z"/><path class="cls-1" d="M33.68,85.1l.43,1c-1.67,1-3.59.48-5.26.46-3.18,0-6.29.8-9.46.5-1.1-.12-2.46.77-3.17-.84l9-.88c2.31-.17,4.63-.19,6.93-.47Z"/><path class="cls-1" d="M283.15,44.42c2.22,1.7,1.14-1.41,2.15-1.47,1.35.72,3.3,0,4.2,1.81-.52.76-1.39.66-2.13.89-3.68.24-7.09,1-9.76,3.94a28.19,28.19,0,0,0-2.7,3.7L272.46,52c1,0,1.41-.74,2-1.39C276.88,47.86,279.17,44.93,283.15,44.42Z"/><path class="cls-1" d="M139.77,87.57c.16-.92,1.22-.34,1.66-1l-2.75-.37c4.74-1,9.67-1.28,13.89-4C149.48,86.63,144.5,86.82,139.77,87.57Z"/><path class="cls-1" d="M147.32,69.12l12,1c-1.12-1.17-2.57-.31-3.33-1.34a16.9,16.9,0,0,1,4.63.68c1.21.36,1.46.93.34,1.68a14.16,14.16,0,0,0-4.5,5.64l-.39-1.7c.23-2,2.06-2.81,3.07-4.31a4.89,4.89,0,0,0-2.76-.39C153.36,69.77,150.27,70,147.32,69.12Z"/><path class="cls-1" d="M201.92,85.64c.33.66,1,.47,1.53.63a94.39,94.39,0,0,0-13.16,6.27c-.53,0-1.15,1.15-1.56-.13A47.37,47.37,0,0,1,201.92,85.64Z"/><path class="cls-1" d="M59.91,73c.31-1.11,1.51-.77,2.15-1.34a69.28,69.28,0,0,0,11.15,7.07c-.59.12-1.28-.17-1.74.45-3.4-1.13-6.15-3.33-8.86-5.56C61.74,72.91,61,72.45,59.91,73Z"/><path class="cls-1" d="M173.2,52.67l-.78.63c-1.86-1.42-2.94-3.53-4.76-5.5l-.24,2.91c-.55-.38-.35-1.08-.71-2.14-.6,3,.32,5.47-.31,7.88a24.79,24.79,0,0,1-.31-7.78c.11-1,.12-1.87-1-2.34.86-.39,1.9.66,2.69-.33Z"/><path class="cls-1" d="M215.83,159.87l-1.16.78,1.72.36a61.13,61.13,0,0,1-14.67.71l-.06-.71Z"/><path class="cls-1" d="M208.39,105.17c-.48-.16-1-.25-1.2-.82a38,38,0,0,1,12.28-2l-1.37.72,2.49.4Z"/><path class="cls-1" d="M181.83,164.5c.28-.78,1.3-.18,1.75-1l-2.79-.23c3.35-.93,6.83-.56,10.22-1.08.89-.26,1.86-.9,2.39.51A52.18,52.18,0,0,1,181.83,164.5Z"/><path class="cls-1" d="M250,80.65l4.31.35,0-.55c-1.61-.13-3.22-.25-4.83-.4-.83-.08-1.84,0-1.82-1.28,1.23,1.1,2.8.78,4.23,1,3.83.56,7.64,1.11,11.1,3.16Z"/><path class="cls-1" d="M191.89,111c.15.51.57.59,1,.67-2.77,2.26-5.92,4.08-8.2,6.94C186,115,188.78,112.88,191.89,111Z"/><path class="cls-1" d="M300.89,167.8c.2.56.74.58,1.19.76-2.3,1.56-4.28,0-6.36-.65-.92.22-1.56-3.55-2.7-.19-1.3-1.3-1.25-1.55.58-2.84C296.26,165.29,298.53,166.67,300.89,167.8Z"/><path class="cls-1" d="M212.24,94.36c.23.5.74.53,1.16.68-2.93,1.37-6,2.33-8.82,4-.62.15-1.19.23-1.1-.71A35,35,0,0,1,212.24,94.36Z"/><path class="cls-1" d="M314.23,122.55c-1.1.21-1.33-1.22-2.31-1.23a1.11,1.11,0,0,1,.76-1c2.56-.83,4.59-2.67,7.07-3.62.12.43,0,1,.55,1.22-1,1.84-2.93,2.27-4.63,3.06C315.05,121.3,313.63,121.05,314.23,122.55Z"/><path class="cls-1" d="M16.22,86.23c.86,1,2.18.32,3.17.84L15,87.7a9.27,9.27,0,0,1-5.6.53,2.06,2.06,0,0,1-1.3-1.15A28.17,28.17,0,0,1,16.22,86.23Z"/><path class="cls-1" d="M2.7,58.31C2,58,2.12,55.94.57,57.21c-.61-.53-1-1.44.18-1.15,2.46.61,5,.19,7.38.67-.39.49-1,.41-2.27.52l3.24.55C7,58.78,4.75,57.11,2.7,58.31Z"/><path class="cls-1" d="M229.75,92a7.18,7.18,0,0,1,4.23-.07c.12.39.28.57.56.1q.18-.27.36-.18t.18.18c-.45,2.27.59,4.6-.33,7.47C234.39,98,233.87,97,234,96,234.36,92.68,232.55,91.87,229.75,92Z"/><path class="cls-1" d="M188.73,92.41c.46.76,1.06-.14,1.56.13-1.71,1.64-4.15,2.51-5.17,4.9-.16.38-.55.78-1,.45s-.31-.75,0-1.15A12.43,12.43,0,0,1,188.73,92.41Z"/><path class="cls-1" d="M29.42,98.86c-.43,0-.88,0-1.14.46a2.37,2.37,0,0,0-2.06-.15c-.19-.53-.72-.52-1.12-.72a15.56,15.56,0,0,0-.56-3c-.08-.6-.05-1.29.61-1.56s1,.3,1.2.73C27.09,96.22,29.1,96.93,29.42,98.86Z"/><path class="cls-1" d="M203.48,98.34c.09.67.7.53,1.1.71l-7.22,4.14A14.55,14.55,0,0,1,203.48,98.34Z"/><path class="cls-1" d="M44.93,36c-.63.26-.24,1.45-1.25,1.37.46-1.27-.64-2.1-.92-3.16-.51-1.95-.39-2.73,1.39-4.42C43.26,32.3,44.27,34.12,44.93,36Z"/><path class="cls-1" d="M97.74,176.53c.29.77,1.05.41,1.55.66-2.4,1.13-5.07,1.25-7.59,1.94l.19-1.09Z"/><path class="cls-1" d="M213.42,67.11c-.64-1.07-1.82-.42-2.67-.82l6.54-1.5c.66-.34,1.08-.29,1,.6A8.16,8.16,0,0,1,213.42,67.11Z"/><path class="cls-1" d="M235.08,92h-.54c.65-.9,1.58-.5,2.39-.44,3,.22,6,.49,9.06.74,1,.08,2.14,0,2.59,1.29-.13.17-.25.22-.37.15s-.16-.14-.15-.2C243.86,92,239.46,92.1,235.08,92Z"/><path class="cls-1" d="M317.78,76.59c.13.5.57.56,1,.65-.75,1.11-2.21,1.19-3.15,2.14l1.44.85c-1.36.35-2.49-.43-3.7-.8A4.31,4.31,0,0,1,317.78,76.59Z"/><path class="cls-1" d="M205,138a2,2,0,0,0,.5-.11c.23-.11.44-.27.05-.46L203,136.21c2.93-.09,4.48,2,6.64,4.18A11.65,11.65,0,0,1,205,138Z"/><path class="cls-1" d="M231.41,72.23c-.73.28-.46,1-.64,1.5-.71-2.18-1.42-4.35-2.14-6.53A6.86,6.86,0,0,1,231.41,72.23Z"/><path class="cls-1" d="M138.73,86.15a18.24,18.24,0,0,1-11.92-1.49l2.95.38C132.64,86.29,135.73,85.86,138.73,86.15Z"/><path class="cls-1" d="M193.4,162.66c-.68-.7-1.61-.26-2.39-.51a14.77,14.77,0,0,1,7.41-.31A10.54,10.54,0,0,1,193.4,162.66Z"/><path class="cls-1" d="M319.86,90.62l1,.53A11.93,11.93,0,0,1,317,93.46c-.41.41-.85.89-1.45.47s-.18-.86.05-1.29C316.87,91.63,317.9,90.14,319.86,90.62Z"/><path class="cls-1" d="M170.73,119.85c1.57-.19,3,1.44,4.6.47a5.09,5.09,0,0,1,2.94.58A8.12,8.12,0,0,1,170.73,119.85Z"/><path class="cls-1" d="M88.85,45.9l-1.07.49c-1.21-1-2.8-1.67-2.93-4.31Z"/><path class="cls-1" d="M185.43,105.92l7-.68A10.92,10.92,0,0,1,188,107c-.72-.53-1.84.36-2.43-.66h0A.24.24,0,0,1,185.43,105.92Z"/><path class="cls-1" d="M178.57,30.06c-.11-.55.5-1.28-.41-1.63.28-1.46,1.64-1.88,2.59-2.74C180.15,27.23,179.8,28.86,178.57,30.06Z"/><path class="cls-1" d="M218.3,65.39c-.11-.58-.6-.51-1-.6,1.13-1.42,2.77-1.45,4.47-1.42Z"/><path class="cls-1" d="M17.67,69.13c-1.13-1.71-3.48,0-4.63-1.67a19,19,0,0,0,6.84.1A2.25,2.25,0,0,1,17.67,69.13Z"/><path class="cls-1" d="M183.21,88.35c.69-.25.13-.66.12-1,1.56.3,2.67,1.36,4.34,2.29A5.54,5.54,0,0,1,183.21,88.35Z"/><path class="cls-1" d="M242.51,63.73c-.66.3-.33.94-.5,1.42l-1.93-3.74c-.07-.5.15-.59.56-.41C241.46,61.78,242.58,62.35,242.51,63.73Z"/><path class="cls-1" d="M107.94,166.15c.14.56-.17,1.23.39,1.69a5.13,5.13,0,0,1-1.21,2.78C106.39,168.74,107.16,167.44,107.94,166.15Z"/><path class="cls-1" d="M258.86,96.12c.53-.17.83-.48.65-1.08,1.45.28,1.86,1.65,3.4,2.94A11.72,11.72,0,0,1,258.86,96.12Z"/><path class="cls-1" d="M246.07,79.24c-2.66.91-5.29-.06-7.93-.2A36.25,36.25,0,0,1,246.07,79.24Z"/><path class="cls-1" d="M167.33,45.44l-1.67-.76c-.1-1.35-.74-2.7.36-4.54C165.79,42.4,166.82,43.83,167.33,45.44Z"/><path class="cls-1" d="M155.57,112.35c-.12-.61-.67-.54-1.08-.7.84-1,2.36-1,3.35-2.62C157.86,111.26,156.89,112,155.57,112.35Z"/><path class="cls-1" d="M123.91,85.11A13.72,13.72,0,0,1,130.26,87,18.13,18.13,0,0,1,123.91,85.11Z"/><path class="cls-1" d="M32.1,84.88a15.06,15.06,0,0,1-6.93.47A22.42,22.42,0,0,1,32.1,84.88Z"/><path class="cls-1" d="M185.52,106.33c.84.12,1.84-.35,2.43.66a7.64,7.64,0,0,1-5.75-.31C183.27,106.26,184.5,107.28,185.52,106.33Z"/><path class="cls-1" d="M8.14,87.08l1.11.61a3.5,3.5,0,0,1-2.2,1l-.69,1.19C5.35,87.12,5.45,87,8.14,87.08Z"/><path class="cls-1" d="M316,92.83c-.05.33-.84,1,.34.78.24,0,.48-.1.72-.15l.48.93c-.73.2-1.62-.34-2.23.46-.92.36-1.4-.12-1.28-.94C314.15,92.84,314.76,92.18,316,92.83Z"/><path class="cls-1" d="M185.43,105.92l.09.41a10.44,10.44,0,0,1-5.69-1.49Z"/><path class="cls-1" d="M240.64,61l-.56.41a3.65,3.65,0,0,1-1.51-2.91C239.38,59.23,240.4,59.76,240.64,61Z"/><path class="cls-1" d="M129,50.72c.28-.84-.07-1.15-.9-1,.52-.58,1.07-1.79,1.82-1.08S130.13,50.33,129,50.72Z"/><path class="cls-1" d="M270.83,118.63c-.39.11-.49.17-.52.14a4.25,4.25,0,0,1-1.77-2.41c0-.11.45-.45.52-.4C270.11,116.57,270,117.79,270.83,118.63Z"/><path class="cls-1" d="M180.81,163.23a8.68,8.68,0,0,1-5.41.59A15.22,15.22,0,0,1,180.81,163.23Z"/><path class="cls-1" d="M83.09,47.6,82.15,47l2.45-2.32C84.24,46,84.2,47.09,83.09,47.6Z"/><path class="cls-1" d="M149.19,119.18c-.43,0-.9,0-1.13.49a2,2,0,0,1-1.34-2.37A4.16,4.16,0,0,1,149.19,119.18Z"/><path class="cls-1" d="M224.31,160.19c1.66-1.09,3.48-1,5.33-.74A19.59,19.59,0,0,1,224.31,160.19Z"/><path class="cls-1" d="M225.93,158.56a7.53,7.53,0,0,1-4.71.69A9.25,9.25,0,0,1,225.93,158.56Z"/><path class="cls-1" d="M248.06,93.58l.52,0-.48,5.3A19.56,19.56,0,0,1,248.06,93.58Z"/><path class="cls-1" d="M336,51.42c.74-.2,1.61.33,2.27-.39a2.52,2.52,0,0,1,2,1.15A6.51,6.51,0,0,1,336,51.42Z"/><path class="cls-1" d="M19,64.37l-.6.53c-1.66-1.11-2-2.79-2.27-5.19A13.35,13.35,0,0,1,19,64.37Z"/><path class="cls-1" d="M60.75,70.27l-1.3,1c-.08-1.63-2-2.35-2.07-4.32A7.59,7.59,0,0,1,60.75,70.27Z"/><path class="cls-1" d="M290.53,145.78c9.42-12.53,11.28-27.29,12.17-42.24a88.64,88.64,0,0,0-4.12-34A51.31,51.31,0,0,0,293,58.36a1.16,1.16,0,0,1,.74-1.08c2.39,1.67,3.51,4.27,4.67,6.75,5,10.65,6.48,22,6.43,33.62-.06,13.15-1.4,26.13-6.5,38.44a31.31,31.31,0,0,1-6.6,10.55c-.37.2-.76.59-1.17.31S290.31,146.18,290.53,145.78Z"/><path class="cls-1" d="M301.76,53.86c.34.69.68,1.38,1,2.07-.57.39-1.13-2-1.72,0-2.73-3.42-5.39-6.91-9.31-9.11-.16-.79.4-.86.95-.92C297.08,47,299.42,50.42,301.76,53.86Z"/><path class="cls-1" d="M281.14,165.18c-.71,2.7,1.1,4.12,2.87,5.51.85.67,1.81,1.21,2.73,1.8-.4.54-1,.08-1.47.32a8.53,8.53,0,0,1-5.74-7.24A1.47,1.47,0,0,1,281.14,165.18Z"/><path class="cls-1" d="M265.94,157.13a16.34,16.34,0,0,0,7,6.77c-.54.25-1.28-.2-1.72.44-3-1-4.48-3.57-5.87-6.16C265.21,157.64,265,157,265.94,157.13Z"/><path class="cls-1" d="M265.94,157.13l-.59,1.05a3.86,3.86,0,0,1-.75-2.62c.2-1.4-.72-1.2-1.5-1.3a4,4,0,0,1,2.79-.74C264.33,154.74,266.31,155.92,265.94,157.13Z"/><path class="cls-1" d="M270.22,152.3a.77.77,0,0,0-.11,1.33c-.08.39-.46.42-.71.6-.77,0-1.14-.61-1.54-1.13C268.63,152.78,269.19,151.85,270.22,152.3Z"/><path class="cls-1" d="M285.27,172.81c.4-.53,1-.26,1.47-.32,2.86,1,3.55.76,4.43-1.88a10.3,10.3,0,0,0-.06-6.07c-.2-.78-.17-1.38.89-1.23l1.79,1.76c-.72.75-1.89,1.37-.77,2.65a13.19,13.19,0,0,1,0,1.54C292.41,174.12,289.74,175.34,285.27,172.81Z"/><path class="cls-1" d="M299.55,48.81c-.44-.11-1.8.77-.94-.74a3.93,3.93,0,0,1,2.16-1.8c.14.5.57.57,1,.64C301,47.55,300.29,48.18,299.55,48.81Z"/><path class="cls-1" d="M289.47,44.76a6.13,6.13,0,0,1,3.31,1.52l-1,.52-4.48-1.57C287.87,44.47,288.74,44.94,289.47,44.76Z"/><path class="cls-1" d="M269.4,154.23l.71-.6,1.41.32a22.93,22.93,0,0,0,6.81.51c5.09-1.46,8.58-5.16,12.2-8.68-.06.94.47,1,1.21.86-3.3,4.15-7.22,7.42-12.41,8.94a32.29,32.29,0,0,1-8.44-.68C270.24,155,269.83,154.6,269.4,154.23Z"/><path class="cls-1" d="M270.89,154.9l8.44.68A11.84,11.84,0,0,1,270.89,154.9Z"/><path class="cls-1" d="M278.33,154.46a8.6,8.6,0,0,1-6.81-.51Z"/><path class="cls-1" d="M292,163.31c-.62.17-.74.71-.89,1.23-.23-1.27-2.69-2.46-.14-3.83C290.85,161.76,291.56,162.48,292,163.31Z"/></g></g></svg>