<svg xmlns="http://www.w3.org/2000/svg" viewBox="0 0 339.59 189.96"><defs><style>.cls-1{fill:#204a46;}</style></defs><title>hand_bo</title><g id="图层_2" data-name="图层 2"><g id="图层_1-2" data-name="图层 1"><path class="cls-1" d="M114.41,70.24l.33-.19A.56.56,0,0,0,114.41,70.24Z"/><path class="cls-1" d="M211.25,26.93l-.12.1A.29.29,0,0,0,211.25,26.93Z"/><path class="cls-1" d="M303.23,137.82a101.35,101.35,0,0,0,2.15-17.35c1.24-19,2.67-37.95,5-56.82,2.43-19.39,8-37.78,19.68-53.86,1.57-2.17,2.12-4.47.9-6.87s-3.64-3-6.26-2.9a48.53,48.53,0,0,0-15.29,3.77,13,13,0,0,1-7.48.84c-1.73-.32-3.48-.48-5.22-.68A106.93,106.93,0,0,0,241,12.4c-10.14,4.41-20,9.44-29.76,14.53a.29.29,0,0,1-.12.1l-.56.45c.38.35.82.11,1.22,0s.9-.36,1.4-.17c.23-.08.48-.14.7-.24C223,23,232.07,18.58,241.31,14.65A107.29,107.29,0,0,1,296.9,6.42c6.23.74,12.44,1.74,18.74,1.83,2.11,0,4.25.18,6.55-.79-4.17-1.27-8.25-1.25-12.76-2a25.86,25.86,0,0,1,5.85-2.07,37.37,37.37,0,0,1,10.16-1.83c1.72,0,3.27.45,4.11,2.11A4.27,4.27,0,0,1,329,8.28c-.25.36-.51.72-.77,1.07-10.21,13.85-15.59,29.71-19,46.32-2.16,10.65-2.57,21.55-3.71,32.34-1.46,13.8-2,27.67-3.19,41.5a53.81,53.81,0,0,1-1.09,8.39c-.61,2.46-1.81,2.91-3.9,1.54a25.7,25.7,0,0,1-7.06-7,60.08,60.08,0,0,1-6.9-13.61,101,101,0,0,1-4.77-17,3.73,3.73,0,0,1,.85-3.25,77.77,77.77,0,0,0,14.65-29.85c-.21-1.61.88-3,.68-4.67-.89-.06-.45,1.14-1.19,1.17-.58.53-.33,1.29-.52,1.94a87.88,87.88,0,0,1-19.3,34.66,272.37,272.37,0,0,1-23.78,22.68c-3.91,3.38-7.34,7.39-12.09,9.73.09,1.82-1.58,1.93-2.6,2.67-3.35,2.7-6,6.07-8.62,9.39-6.11,7.59-12.63,14.8-20.75,20.3-13.56,9.19-28.59,14.93-44.48,18.57-1.23,1-2.8.7-4.19,1.1-.39.11-.86,0-1.15.41h0a6.27,6.27,0,0,1,3.1,1.1c1.37-1,3-.71,4.54-1a120.8,120.8,0,0,0,23.48-7.39c15.54-6.34,28.78-15.72,38.83-29.34,4.28-5.81,8.63-11.54,14.85-15.57a60.75,60.75,0,0,0,5.77-4.11,322.9,322.9,0,0,0,24.45-22.32c2-2,3.89-4.16,6-6.41.11.75.2,1.24.26,1.73a76.63,76.63,0,0,0,8.75,27.45c4.06,7.37,9.91,12.58,18.29,14.5,1.95.45,4.1.92,5.53-1.26-2.28-.63-4.48-1.25-6.7-1.84-1.39-.38-2.38-.81-.91-2.37A4.54,4.54,0,0,0,303.23,137.82Z"/><path class="cls-1" d="M153.52,96.36c0,.12,0,.27,0,.36a42.1,42.1,0,0,0,18.8,15c8.61,3.56,17.71,4.49,26.88,5,.64,0,1.36-.21,2,.4-.76,1-1.53,2-2.26,3-2,2.8-4.43,5.58-4.93,9a11.58,11.58,0,0,1-4,7.16,6.73,6.73,0,0,0-.74.85c-3.24,4.08-5.81,8.42-5.2,14.07a23.57,23.57,0,0,0-12.78,1.22,56.64,56.64,0,0,0-24.9,19.42,27.31,27.31,0,0,0-4.69,9c-.12.44-.48,1,.15,1.34s1-.21,1.32-.73a7,7,0,0,0,.36-.66,53,53,0,0,1,11.34-14.9c5.79-5.28,12-10.12,19.73-12,8-1.92,15.35-.77,21.19,5.73.64.71,1.19,2.49,2.11,1.8s-.28-2.06-.88-2.92a17.16,17.16,0,0,0-10.52-6.78c-1-.24-1.56-.51-1.23-1.75a27.75,27.75,0,0,1,7.19-13.23c4.53-4.42,8.93-9.1,15.87-10.17-1.73-1.54-3.39-1-4.94-.43a28,28,0,0,0-7.62,4.76.66.66,0,0,1-.76.64c-.53-.08-.41-.54-.32-.89s.2-1,.69-1.26c1.33-3.56,3.5-6.63,5.56-9.78,1.24-1.89,2.53-3.31,5.06-3a12.41,12.41,0,0,0,3-.44,8.68,8.68,0,0,0-5.06-1.71c-6-.55-12-.84-18-1.71-12.58-1.82-23.46-6.81-31.65-16.86C153.81,95.57,153.6,95.85,153.52,96.36Z"/><path class="cls-1" d="M1.67,81.56c1-.25,1.49-1.6,2.75-1.14,6.31-2.19,12.5-4.7,18.91-6.61A145.57,145.57,0,0,1,40.16,69.4h0A11.15,11.15,0,0,1,41.39,69a251.57,251.57,0,0,1,26.16-4.32c21.34-2.41,42.79-3.33,64.17-5.2,12.7-1.1,25.44-1.52,38.19-1.43a49,49,0,0,0,10.66-1,17.18,17.18,0,0,0,6.63-2.59,5.72,5.72,0,0,0-2,.08c-6.64,1.74-13.41,1.78-20.2,1.73-7.91-.07-15.81.09-23.7.66-11.27.81-22.53,1.67-33.8,2.44-13.78.93-27.56,1.7-41.28,3.26A223.6,223.6,0,0,0,.62,80,1.51,1.51,0,0,0,1.67,81.56Z"/><path class="cls-1" d="M17.26,55.1A16,16,0,0,0,19,55c4.35-.61,8.7-1.17,13-1.86a615,615,0,0,1,65-6.36c17.23-.88,34.46-1.12,51.69-1.14,10.55,0,21.09.34,31.63.66a10.45,10.45,0,0,0,5.38-1,1.44,1.44,0,0,0-1.34-.56c-13-1-26.07-1.55-39.12-1.33-4.86.09-8.42-1.85-11.67-5-.45-.43-.88-.88-1.32-1.32-1.79-.24.11,1-.5,1.23.91,2.06,3,3.08,4.42,4.72a2.69,2.69,0,0,1-1.93.32c-3.39.06-6.78,0-10.17.11-16.63.38-33.24,1.28-49.83,2.52-6.25.47-12.49,1.13-18.73,1.85C47.19,48.74,39,50,30.73,51.4L17.21,53.75c-.54.09-1.3.17-1.22.88S16.77,55.11,17.26,55.1Z"/><path class="cls-1" d="M80.68,11.07a21.26,21.26,0,0,0,11-1A3.94,3.94,0,0,1,92.6,10c1-.13,1.51-1,2.22-1.52-.07-.52.29-1.16-.39-1.52a4.1,4.1,0,0,1-.74.54C84.35,11.09,75.47,9.61,66.9,5c-.25-.13-.6-.23-.5-.7a33.89,33.89,0,0,1,6-.56,119,119,0,0,1,40.13,3.33c11.17,3,21.9,7.25,32.78,11.06,6,2.09,11.86,4.42,18.06,5.8,1.34-.32-.11-.8.07-1.18-.33-.17-.66-.37-1-.51C149.06,16.92,135.62,11.87,122,7.36c-14.33-4.73-29-7-44.11-5.84-3.68.29-7.35.83-11,1.19-1.13.11-2.35.71-3.37-.4-.29-.33-.74-1-1.09-.18-.22.53-.68,1.36.1,1.85,3.1,2,5.94,4.38,9.48,5.6a25.51,25.51,0,0,1,6.61,3C78.79,11.41,79.39,10.82,80.68,11.07Z"/><path class="cls-1" d="M163.7,24.05l-.37-.14A1,1,0,0,0,163.7,24.05Z"/><path class="cls-1" d="M28.17,97.38h0c.39-.19.8-.35,1.16-.56A178,178,0,0,1,89,74.22c8.46-1.54,17-2.66,25.45-4a.56.56,0,0,1,.33-.19l1.07-.59h-3.7l.53-.1a3.51,3.51,0,0,0-.53.1c-6.23.63-12.42,1.59-18.61,2.58C76,74.86,59,79.59,43,87.39a5.26,5.26,0,0,1-2.5.65c-2.26-.07-4.53,0-6.78-.11-3.42-.23-6.89-.28-10.07-1.86a.6.6,0,0,1-.19,0c-1.05-.39-2.64-.76-2.69-1.7s1.63-.9,2.55-1.26a41.06,41.06,0,0,0,10.12-5.3,8.92,8.92,0,0,0,3-3.53c.34-.79.71-1.64-.12-2.46-2.14,3.6-5.6,5.55-9.16,7.26a41.69,41.69,0,0,1-9.15,3c-4.71,1-9,.17-13.52-.56-1-.17-.94-.42-.63-.68-.73.25-1.31,1-2.13.91h0v.15c2.8,1.57,5.92,2,9,2.56.61.12,1.27,0,1.81.4h0c1.67-.13,3.36-.24,5-.39a1.69,1.69,0,0,1,1.52.54c2.36,2.62,5.58,3.38,8.82,4.07,3,.63,6,.55,9.51.81-3.63,2.42-7.32,3.85-10.43,6.22C25.87,98,27.6,97.13,28.17,97.38Z"/><path class="cls-1" d="M4.42,80.42c-1.26-.46-1.77.89-2.75,1.14h0l0,.23h0c.82,0,1.4-.66,2.13-.91A5.11,5.11,0,0,0,4.42,80.42Z"/><path class="cls-1" d="M80.94,94.74c2.55-2.38,4.78-4.95,5.23-9.09-8.94,13.92-26.45,22.22-38.77,18.54l3-1.55a.91.91,0,0,0-.37,0c-4.82,2.58-10.08,1.68-15.19,1.9a4.89,4.89,0,0,0,2.37.49,83.09,83.09,0,0,1,14.06,1.22c9.9,1.74,18.49-1.4,25.89-8C78.16,96.8,79.17,95.36,80.94,94.74Z"/><path class="cls-1" d="M338.33,55.52c0,4.46,0,8.87,0,13.27,0,2.51-.06,5-.13,7.54,0,.78.1,1.66-.74,2.19-1.08.21-1.37-.71-1.76-1.34a20.77,20.77,0,0,1-2.38-5.49,58.45,58.45,0,0,1-1.8-15.8c0-5.62.21-11.25.33-16.88h0c-.41-3,.35-5.93.32-8.91,0-.68,0-1.36,0-2.2-.63,1,0,2-.69,2.77a225.31,225.31,0,0,0-1.1,31.17,36.29,36.29,0,0,0,3,14.07,10.8,10.8,0,0,0,2.47,3.74c1.35,1.18,2.59.84,3.16-.87a6.63,6.63,0,0,0,.34-1.65A113.31,113.31,0,0,0,339,57C338.4,56.71,338.8,56,338.33,55.52Z"/><path class="cls-1" d="M151,91.67c.33-.07.63-.17.58-.56-.08-.57-.47-.41-.83-.29a2.22,2.22,0,0,1-1.44.07c-1.28.28-2.58.51-3.84.85-11.17,2.92-22.17,3.06-32.87-1.92-.48-.23-1-.61-1.57-.21,4.75,6.68,26.23,8.51,38,3.25A2.45,2.45,0,0,1,151,91.67Z"/><path class="cls-1" d="M37.09,104c1.62,0,3.24,0,4.85,0a12.47,12.47,0,0,0,5.28-1c1-.42,2-1.11,3.16-.33a24,24,0,0,0,9.9-7.46c2.93-3.69,3.38-5.9,1.92-10.86a11.49,11.49,0,0,0-.64,3.85,7.3,7.3,0,0,1-.75,3c-1.18,2.52-3.48,3.92-5.41,5.63a24.38,24.38,0,0,1-19.24,6.24,13.27,13.27,0,0,1-8-3.31c-.92-.85-1.1-1.62,0-2.4h0c-.6.32-1.31.63-1.81,0s.37-.85.61-1.27c-1.58.39-1.32,1.62-.86,2.49a11,11,0,0,0,8.71,5.91C35.44,103.86,36.29,104,37.09,104Z"/><path class="cls-1" d="M26.36,97.42c.5.59,1.21.28,1.81,0-.57-.25-2.3.65-1.2-1.23C26.73,96.57,25.85,96.81,26.36,97.42Z"/><path class="cls-1" d="M50,102.65a.91.91,0,0,1,.37,0c-1.14-.78-2.18-.09-3.16.33a12.47,12.47,0,0,1-5.28,1c-1.61,0-3.23,0-4.85,0-.8,0-1.65-.1-2.27.59C39.93,104.33,45.19,105.23,50,102.65Z"/><path class="cls-1" d="M164.12,23.84a.37.37,0,0,1-.42.21c7,2.62,13.94,5.57,21.26,7.35a51.67,51.67,0,0,0,17.9,1.43c.9-.1,2.44-.12,2.29-1.39-.11-.94-1.51-.45-2.29-.42a70.93,70.93,0,0,1-23.74-3.21c-5.25-1.66-10.48-3.39-15.72-5.08C163.72,23.05,164.36,23.22,164.12,23.84Z"/><path class="cls-1" d="M163.33,23.91l.37.14a.37.37,0,0,0,.42-.21c.24-.62-.4-.79-.72-1.11C163.22,23.11,164.67,23.59,163.33,23.91Z"/><path class="cls-1" d="M108.86,21.24a2.26,2.26,0,0,1,1.4.37c0-.85.77-1,1.24-1.47,1.09-1.06-.4-.5-.54-.81l.33-.12-.33.12c-.62.05-1.25.05-1.87.14-10.3,1.47-19.64-1.08-28.21-6.79-.27-.18-.77-.27-.54-.75h2.85c3.27,0,6.5-.23,9.41-2a22,22,0,0,1-11.49,1.47c-1.23-.18-1.58,1-2.53,1.17a12.35,12.35,0,0,0,2.94,2.25c5.27,3.57,10.87,6.33,17.36,6.82h0C102.2,21.4,105.56,22,108.86,21.24Z"/><path class="cls-1" d="M81.11,11.43A22,22,0,0,0,92.6,10a3.94,3.94,0,0,0-.92.08,21.26,21.26,0,0,1-11,1c-1.29-.25-1.89.34-2.1,1.53C79.53,12.46,79.88,11.25,81.11,11.43Z"/><path class="cls-1" d="M131.33,36.84c.31-.44.6.06.88.2-.29-.76-.62-1.5-.87-2.27-.4-1.26-.36-2.07,1.43-2,1.48,0,3.13.15,4.57-1.08-1.73-1.28-3.65-1.11-5.46-1.1-6.82,0-13-1.8-18.24-6.28-1.53-.33-2.06-1.94-3.32-2.61l0,.05h0c0,.24,0,.49,0,.74.87,1,1.68,2.11,2.62,3.06a22.84,22.84,0,0,0,16,7.14c1.1,0,1.57.31,1.43,1.53a4.71,4.71,0,0,0,1.41,4.09C131.58,37.79,130.94,37.38,131.33,36.84Z"/><path class="cls-1" d="M132.21,37c-.28-.14-.57-.64-.88-.2s.25.95.38,1.43C132.32,38,130.42,36.8,132.21,37Z"/><path class="cls-1" d="M110.26,21.71h0l0-.05,0,0Z"/><path class="cls-1" d="M79.41,96.6l1.53-1.86c-1.48.93-2.49,2.37-3.8,3.48,1.09-1,2.28-.77,3.51-.31a23,23,0,0,0,4.85,1.48c10.23,1.49,17.92-3.2,24.63-10.21.76-.79.76-1.84.81-3C102.81,94.63,91.88,101.31,79.41,96.6Z"/><path class="cls-1" d="M80.94,94.74c-1.77.62-2.78,2.06-3.8,3.48C78.45,97.11,79.46,95.67,80.94,94.74Z"/><path class="cls-1" d="M22.1,58.55c-.4.19-1-.14-1.23.46,6.49,2.8,13.31,3.39,20.24,2.78a25.07,25.07,0,0,0,13.74-5.07,3.46,3.46,0,0,0,1.56-3.07c-2.15,2.2-7.06,4.82-10.89,5.71A45.83,45.83,0,0,1,22.1,58.55Z"/><path class="cls-1" d="M116.09,69.32c-.35.78-.92.64-1.35.73l-.33.19a10.84,10.84,0,0,0,3.16-.25c10.43-1.32,20.85-2.68,31.33-3.57l11.77-1h-5.58c1.2-.83,2.31,0,3-.89-2.74.22-5.49.37-8.22.65q-12.59,1.3-25.16,2.71c-4,.46-8.11.65-12.1,1.45A23.08,23.08,0,0,1,116.09,69.32Z"/><path class="cls-1" d="M115.81,69.46l-1.07.59c.43-.09,1,0,1.35-.73a23.08,23.08,0,0,0-3.45,0l-.53.1Z"/><path class="cls-1" d="M323.5,128.21a72.79,72.79,0,0,1-3.69-12.41c-.68-.27-.22-1-.73-1.55,0,.87-.08,1.64-.12,2.4l-.12-.68a5.09,5.09,0,0,0,.12.68,43.7,43.7,0,0,0,5.74,17,21.86,21.86,0,0,0,7.87,8.19c.89.51,1.86,1.11,3,.14a5.41,5.41,0,0,1-2.22-1.15A30.28,30.28,0,0,1,323.5,128.21Z"/><path class="cls-1" d="M155.76,65.19c.33,0,.67,0,1,0A1.31,1.31,0,0,0,155.76,65.19Z"/><path class="cls-1" d="M157.65,65.1a7.09,7.09,0,0,0,1.36-.2,1.42,1.42,0,0,1,1.66.54l.53,0A4.29,4.29,0,0,1,163,65l24.27.05h0a3.47,3.47,0,0,0,2.68-.89c-5.69-.22-11.36-.22-17-.22a70.52,70.52,0,0,0-9.53.27c-1.62.8-3.33.34-5,.36l.34-.07-.34.07a.16.16,0,0,0-.26,0A1,1,0,0,1,157.65,65.1Z"/><path class="cls-1" d="M155.09,65.44h5.58A1.42,1.42,0,0,0,159,64.9a7.09,7.09,0,0,1-1.36.2,1.5,1.5,0,0,1-.87,0c-.35,0-.69,0-1,0a1.31,1.31,0,0,1,1,0l.87,0a1,1,0,0,0,.47-.55C157.4,65.4,156.29,64.61,155.09,65.44Z"/><path class="cls-1" d="M157.65,65.1l-.87,0A1.5,1.5,0,0,0,157.65,65.1Z"/><path class="cls-1" d="M319,113.81c1,.52.21,1.53.82,2-1-7.86-1.39-15.72-.17-23.6.06-.39.16-.9-.41-1.1-.42.06-.43.38-.45.69-.25,2.87-.6,5.74-.73,8.61a66,66,0,0,0,.79,15.57A6.24,6.24,0,0,1,319,113.81Z"/><path class="cls-1" d="M319.08,114.25c.51.5.05,1.28.73,1.55-.61-.46.16-1.47-.82-2a6.24,6.24,0,0,0-.15,2.16l.12.68C319,115.89,319,115.12,319.08,114.25Z"/><path class="cls-1" d="M332.19,27.21c.53,4.23-.29,8-.34,11.8h0c.59-1.69.37-3.47.53-5.2a116.33,116.33,0,0,0,.46-14.46c0-.78.16-1.71-1-2a4,4,0,0,0-3.47,1.5c.3-.12.52-.23.76-.3,2.56-.73,2.62-.7,2.57,1.95-.06,3.37-.17,6.75-.26,10.13C331.94,29.71,331.25,28.56,332.19,27.21Z"/><path class="cls-1" d="M332.17,30.1c0,3-.73,5.92-.32,8.91,0-3.79.87-7.57.34-11.8-.94,1.35-.25,2.5-.72,3.46.7-.75.06-1.82.69-2.77C332.16,28.74,332.16,29.42,332.17,30.1Z"/><path class="cls-1" d="M154.55,188.37a23.78,23.78,0,0,1-8.2-.13h0a3,3,0,0,1-2.56-1.14c-.26-.14-.51-.29-.76-.44h0c-.38.05-.79.07-.36.61.25.31.72.48.7,1,4.56,2.48,9.26,1.84,14,.66A3.46,3.46,0,0,0,154.55,188.37Z"/><path class="cls-1" d="M159,185.79c.81-.21,1.67-.3,2.48-.59a15.05,15.05,0,0,0-1.66.2,8.2,8.2,0,0,1-5.44-.52c-2.86-1.29-6-1.33-9.06-1.13-.35,0-.76,0-.82.9,4.08-.38,7.85.85,11.64,2.06C156.83,185.52,158.09,186,159,185.79Z"/><path class="cls-1" d="M157.33,186.3c1.39-.4,3-.08,4.19-1.1-.81.29-1.67.38-2.48.59s-2.21-.27-2.86.92C156.47,186.29,156.94,186.41,157.33,186.3Z"/><path class="cls-1" d="M338,75.22c-.1-6.34.17-12.68-.14-19,0-.43,0-.88.55-1.05.67.49,0,1.35.53,1.88a15.91,15.91,0,0,0-2.15-7.91,132.85,132.85,0,0,1,.63,29.39A7.17,7.17,0,0,0,338,75.22Z"/><path class="cls-1" d="M338.2,76.33c.07-2.52.12-5,.13-7.54,0-4.4,0-8.81,0-13.27.47.44.07,1.19.65,1.52-.49-.53.14-1.39-.53-1.88-.56.17-.57.62-.55,1.05.31,6.33,0,12.67.14,19a7.17,7.17,0,0,1-.58,3.3C338.3,78,338.18,77.11,338.2,76.33Z"/><path class="cls-1" d="M151.87,91c.1.6-.18.88-.82.92a3.94,3.94,0,0,0-2,1c1.71-1,2.76-.59,3.22,1.43a3.61,3.61,0,0,0,1.23,2.07c-.1-.3-.2-.65.1-.83s.56.06.74.32a20.58,20.58,0,0,1-3.15-9.08,1.84,1.84,0,0,0-.47,2c.6,1.5-.42,1.79-1.4,2.17.45-.2,1,0,1.43-.31S151.75,90.28,151.87,91Z"/><path class="cls-1" d="M153.62,95.53c-.3.18-.2.53-.1.83.08-.51.29-.79.84-.51C154.18,95.59,153.94,95.33,153.62,95.53Z"/><path class="cls-1" d="M150.78,90.82c.36-.12.75-.28.83.29,0,.39-.25.49-.58.56a2.45,2.45,0,0,0-2,1.19,3.94,3.94,0,0,1,2-1c.64,0,.92-.32.82-.92s-.6-.7-1.1-.41-1,.11-1.43.31A2.22,2.22,0,0,0,150.78,90.82Z"/><path class="cls-1" d="M178.07,65.13c-4.08,0-8.16,0-12.23,0a19.48,19.48,0,0,0-4.64.28q12.12,0,24.23-.06a9.79,9.79,0,0,0,1.84-.35C184.21,65.3,181.13,65.1,178.07,65.13Z"/><path class="cls-1" d="M163,65a4.29,4.29,0,0,0-1.8.46,19.48,19.48,0,0,1,4.64-.28c4.07,0,8.15,0,12.23,0,3.06,0,6.14.17,9.2-.12h0Z"/><path class="cls-1" d="M156.18,186.71c.84,1.27-.32,1.09-.92,1.18a35.89,35.89,0,0,1-8.35.23.44.44,0,0,0-.27-.08l.27.08-.35.08.21.06c2.78.05,5.55.35,8.33-.22.78-.15,1.92-.45,2.26.88a2.64,2.64,0,0,0,1.92-1.11C158,188.27,157.2,187.12,156.18,186.71Z"/><path class="cls-1" d="M156.18,186.71c1,.41,1.78,1.56,3.1,1.1a6.27,6.27,0,0,0-3.1-1.1Z"/><path class="cls-1" d="M155.1,188c-2.78.57-5.55.27-8.33.22l-.21-.06-.21,0h0a23.78,23.78,0,0,0,8.2.13,3.46,3.46,0,0,1,2.81.55C157,187.59,155.88,187.89,155.1,188Z"/><path class="cls-1" d="M22.1,58.55c-1.72-1.09-3.83-1.19-5.61-2.19.81,2,2.8,2,4.38,2.65C21,58.09,21.56,58.36,22.1,58.55Z"/><path class="cls-1" d="M22.1,58.55c-.54-.19-1.11-.46-1.23.46C21.11,58.41,21.7,58.74,22.1,58.55Z"/><path class="cls-1" d="M110.2,21.71a.83.83,0,0,1-.53-.1c-1.93-.25-3.81.41-5.74.22-1.68-.17-3.38.13-5.05-.16a22.74,22.74,0,0,0,9,.12,2.11,2.11,0,0,1,2.3.66A.67.67,0,0,1,110.2,21.71Z"/><path class="cls-1" d="M103.93,21.83c1.93.19,3.81-.47,5.74-.22a.83.83,0,0,0,.53.1l.06-.08h0s0,0,0,0a2.26,2.26,0,0,0-1.4-.37c-3.3.71-6.66.16-10,.43h0C100.55,22,102.25,21.66,103.93,21.83Z"/><path class="cls-1" d="M110.2,21.71a.67.67,0,0,0,0,.74c0-.25,0-.5,0-.74Z"/><polygon class="cls-1" points="110.25 21.63 110.25 21.63 110.25 21.63 110.25 21.63 110.25 21.63"/><path class="cls-1" d="M110.26,21.63l-.06.08h.06v-.08Z"/><path class="cls-1" d="M112.1,19.43c.28.48-.22.82-.55,1a4.88,4.88,0,0,0-1.22,1.22c1.53.32,2,2,3.31,2.62-.51-.54-1-1.1-1.53-1.6-.85-.8-1.88-1.51,0-2.38a1.21,1.21,0,0,0,.59-1.61l-1.4.53C111.6,19.11,111.92,19.1,112.1,19.43Z"/><path class="cls-1" d="M111.5,20.14c-.47.46-1.26.62-1.24,1.47h0l.06,0a4.88,4.88,0,0,1,1.22-1.22c.33-.18.83-.52.55-1-.18-.33-.5-.32-.81-.22l-.33.12C111.1,19.64,112.59,19.08,111.5,20.14Z"/><path class="cls-1" d="M110.33,21.65h0c1.26.67,1.79,2.28,3.32,2.61C112.35,23.63,111.86,22,110.33,21.65Z"/><path class="cls-1" d="M110.27,21.63h0l0,0h0Z"/><path class="cls-1" d="M110.26,21.61s0,0,0,0h0Z"/><path class="cls-1" d="M110.27,21.63h0Z"/><polygon class="cls-1" points="110.25 21.63 110.26 21.63 110.26 21.63 110.25 21.63"/><polygon class="cls-1" points="110.27 21.62 110.25 21.63 110.25 21.63 110.25 21.63 110.26 21.63 110.27 21.62"/><polygon class="cls-1" points="110.27 21.63 110.26 21.63 110.26 21.63 110.27 21.63 110.27 21.63"/><path class="cls-1" d="M238,134.27c-.63,1.12-1.81,1.71-2.6,2.67C236.39,136.2,238.06,136.09,238,134.27Z"/><path class="cls-1" d="M294,64.84c0-.51.16-1.13.81-1s.37.88.28,1.3c-.24,1.21-.59,2.4-.87,3.6a14,14,0,0,0,1.2-4.06c.16-.61.24-1.36-.6-1.49s-.82.61-1,1.13a7,7,0,0,0-.14.92A.49.49,0,0,0,294,64.84Z"/><path class="cls-1" d="M294.85,64.09c.2,1.63-.89,3.06-.68,4.67.28-1.2.63-2.39.87-3.6.09-.42.38-1.13-.28-1.3s-.77.47-.81,1a.49.49,0,0,1-.29.42C294.4,65.23,294,64,294.85,64.09Z"/><path class="cls-1" d="M142.4,187.24c-.28-.67-.06-.9.63-.58-.66-.73-.82-1.82-1.78-2.57-.56,2.21.59,3.29,2.12,4.17C143.12,187.84,142.59,187.68,142.4,187.24Z"/><path class="cls-1" d="M142.67,187.27c-.43-.54,0-.56.36-.61h0c-.69-.32-.91-.09-.63.58.19.44.72.6,1,1C143.39,187.75,142.92,187.58,142.67,187.27Z"/><path class="cls-1" d="M210.18,27.54c-.12-.66.59-.34.95-.51l.12-.1c-.63.13-1.78-.34-1.66.78.09.78,1.12.52,1.77.38a2.76,2.76,0,0,0,1.83-.76,9.91,9.91,0,0,1-1.75.49C211,27.82,210.3,28.18,210.18,27.54Z"/><path class="cls-1" d="M211.79,27.5c-.4.09-.84.33-1.22,0l.56-.45c-.36.17-1.07-.15-.95.51s.82.28,1.26.28a9.91,9.91,0,0,0,1.75-.49C212.69,27.14,212.25,27.4,211.79,27.5Z"/><path class="cls-1" d="M94.82,8.44c.7-.24.49-.91.61-1.4s.4-1.31-.18-1.42-.86.65-.82,1.3C95.46,7.2,95,7.86,94.82,8.44Z"/><path class="cls-1" d="M94.82,8.44c.14-.58.64-1.24-.39-1.52C95.11,7.28,94.75,7.92,94.82,8.44Z"/><path class="cls-1" d="M163.39,64.17a18.73,18.73,0,0,0-4.67.29C160.27,64.18,161.87,64.71,163.39,64.17Z"/><path class="cls-1" d="M163.39,64.17c-1.52.54-3.12,0-4.67.29l-.34.07C160.06,64.51,161.77,65,163.39,64.17Z"/><path class="cls-1" d="M1.66,81.89a.59.59,0,0,1,0-.14C1,81.34.18,81.09.62,80-1,81,1.15,81.19,1,81.85H1A.47.47,0,0,1,1.66,81.89Z"/><path class="cls-1" d="M1.64,81.75a.68.68,0,0,1,0-.19h0A1.51,1.51,0,0,1,.62,80C.18,81.09,1,81.34,1.64,81.75Z"/><path class="cls-1" d="M1.66,81.89l.05,0v-.15l-.06,0A.59.59,0,0,0,1.66,81.89Z"/><path class="cls-1" d="M1.67,81.56h0a.68.68,0,0,0,0,.19l.06,0,0-.23Z"/><path class="cls-1" d="M1.66,81.89a.47.47,0,0,0-.65,0H1l.67.08S1.67,81.91,1.66,81.89Z"/><path class="cls-1" d="M1.68,81.93h0l-.05,0S1.67,81.92,1.68,81.93Z"/><path class="cls-1" d="M195.79,130.89c-1.13-.24,0-1.09-.39-1.51a2.67,2.67,0,0,0-.42,1.18C194.92,131.26,195.35,131.2,195.79,130.89Z"/><path class="cls-1" d="M194.71,130.64c-.09.35-.21.81.32.89a.66.66,0,0,0,.76-.64c-.44.31-.87.37-.81-.33a2.67,2.67,0,0,1,.42-1.18C194.91,129.65,194.83,130.17,194.71,130.64Z"/><path class="cls-1" d="M146.64,188l-2.85-.94a8.43,8.43,0,0,0,2.63,1.05A.31.31,0,0,1,146.64,188Z"/><path class="cls-1" d="M146.35,188.24a.71.71,0,0,1,.07-.09,8.43,8.43,0,0,1-2.63-1.05A3,3,0,0,0,146.35,188.24Z"/><path class="cls-1" d="M146.42,188.15l.14,0,.35-.08-.27-.08A.31.31,0,0,0,146.42,188.15Z"/><path class="cls-1" d="M146.35,188.24h0l.21,0-.14,0A.71.71,0,0,0,146.35,188.24Z"/></g></g></svg>