<svg xmlns="http://www.w3.org/2000/svg" viewBox="0 0 319.69 236.38"><defs><style>.cls-1{fill:#204a46;}</style></defs><title>hand_tuo</title><g id="图层_2" data-name="图层 2"><g id="图层_1-2" data-name="图层 1"><path class="cls-1" d="M244.06,16.6c1.71-1,3.34-2.07,5.5-2A3.7,3.7,0,0,1,253.1,17a14.77,14.77,0,0,1,1.06,5.21c.63,11.33.11,22.67.41,34a149.26,149.26,0,0,0,5.68,37.09,3.36,3.36,0,0,0,.34.65A99,99,0,0,0,266,109.78c4.34,10.23,9.65,19.87,17.5,27.9,1.26,1.28,2.4,2.74,4.2,3.35.25.43-.21.56-.36.82-1.31.63-2.28-.19-3.33-.74-.73-.39-1.25-1.1-2.11-1.27-8.16-1.62-14.36-6.6-20.28-12a82.56,82.56,0,0,1-13-15.43,18,18,0,0,1-1.12-2.29c-.11-.35-.25-.78.27-.86s.68.42.91.76A100.25,100.25,0,0,0,265,128a52.58,52.58,0,0,0,11.52,7.79c.51.24,1,.45,2,.87-1.94-2.63-3.67-4.84-5.25-7.15-7.38-10.8-12.11-22.79-15.65-35.29-.37-1.31-.83-1.69-2.21-1.59A84.3,84.3,0,0,1,235,91.82a2.73,2.73,0,0,0-2,0,57.54,57.54,0,0,1,3.89,17c.87,10.4-.41,20.61-2.64,30.73-4.19,19.1-7.94,38.28-11.55,57.5-1.85,9.86-1.69,19.6-1.52,29.45,0,2.22.48,4.43.41,6.66a2.92,2.92,0,0,1-1.7,3,2.72,2.72,0,0,1-3.23-1,17.52,17.52,0,0,1-3.58-5.34c-.2-.4-.37-.9.1-1.13s.74.51,1.18.67c1.15,1.43,2.28,2.88,3.45,4.29.35.43.75,1,1.42.71s.55-.84.57-1.33a17.32,17.32,0,0,0-.06-2.28,144.26,144.26,0,0,1,.08-27.49c1-10.05,2.8-20,4.75-30,2.83-14.43,6.77-28.63,9.25-43.12,1.95-11.4,2.21-22.82-.87-34.1a13.87,13.87,0,0,0-2.2-5.39c-.5-.62,0-2,.08-3.41,1.81,2.79,1.81,2.79,5.33,3.13a146,146,0,0,0,18.71.24c1,0,1.72-.1,1.37-1.49-4.08-16-4.63-32.21-4.07-48.57.18-5.41.23-10.82.31-16.24a20.79,20.79,0,0,0-.78-6.79,4,4,0,0,0-4.85-1.15,7,7,0,0,0-2,1.11h0c-.5.15-1,.92-1.48.3S243.91,17.05,244.06,16.6Z"/><path class="cls-1" d="M228.75,27.44c.29,1.37,1.08.42,1.56.26Q238.58,25,247,23c1.21-.29,2.45-.7,3.76.09-11.84,4.18-23.92,7.61-35.43,12.67a379.55,379.55,0,0,0-33.78,17.37c-.13-1.83,1.28-2.23,2.09-3.06.38-.4,1.21-.61,1.05-1.21s-1-.62-1.65-.67a20,20,0,0,0-7.36.89,95,95,0,0,0-14.58,5.52,95.46,95.46,0,0,0-17,8.2c-13.35,7.87-25,17.95-36.18,28.55-22,20.79-40.59,44.38-57.1,69.68a64.39,64.39,0,0,1-5.74,8.19c-.83.39-1-.09-.8-.72s.62-1.24.82-1.9c2.57-4.54,5.38-8.94,8.19-13.32,4.51-7,9.19-13.9,14.35-20.44a3.16,3.16,0,0,0,.83-1.45c1.84-.76,2.62-2.55,3.74-4a325.34,325.34,0,0,1,55.79-56.32c14-10.94,29.71-18.41,46.58-23.64a22.84,22.84,0,0,1,5.44-1c1.41-.08,3-.36,4.14.38,2.18,1.46,3.7.31,5.45-.71A223.91,223.91,0,0,1,225.8,29.31c1.23-.45,1.39-.78.93-2.09a15.71,15.71,0,0,1,2.55-15.5,24.09,24.09,0,0,1,8.14-6.51,4,4,0,0,1,3.83-.27,23.8,23.8,0,0,0-10.47,8.17C227.56,17.47,227.2,22.35,228.75,27.44Z"/><path class="cls-1" d="M51.34,165.12a339.63,339.63,0,0,1,55.75-42c10.94-6.59,22.17-12.62,34.18-17.06a34.61,34.61,0,0,1,8.1-2.21,5.39,5.39,0,0,1,4.11.72c-.3.62-.81.59-1.2.64-8.78,1.11-16.52,5.11-24.21,9.05a338.62,338.62,0,0,0-91.57,69Q20.62,199.94,6.31,218a2.14,2.14,0,0,1-.45.32c-1,.32-1.08-.15-.86-.93a181.23,181.23,0,0,1,12.33-16q12.14-14.7,25.61-28.2a36.66,36.66,0,0,1,3.43-3.51C48.21,168.38,49.51,166.47,51.34,165.12Z"/><path class="cls-1" d="M272.79,9.84c1.26,2.11,1.4,4.46,1.5,6.82.41,10.14-.57,20.24-.77,30.37-.16,7.65-.31,15.29,1.14,22.85.67,3.52,1.7,6.93,4.07,9.76.61.73,1.27,1.62,2.34,1.33s1.11-1.35,1.27-2.21c1-5.48.88-11,.78-16.57,0-2.41.19-4.84-.36-7.23a11.45,11.45,0,0,1,0-4.7,2.07,2.07,0,0,0,0-1.47l0-1.1c-.4-4.38-.59-8.78-.92-13.16-.13-1.75-.44-3.47-.6-5.2.09-.53-.9-1.2-.14-1.48s1.1.67,1.25,1.3a100.73,100.73,0,0,1,2,14.36c1,11.28,1.68,22.61,4.62,33.62,3.43,12.91,9.52,24.22,20,32.86a8.08,8.08,0,0,0,1.05.8c1,.56,1.64.64,1.5-.9-1.28-13.7-.81-27.48-1.69-41.21-.19-2.91-.4-5.83-.61-8.74,1.18.22,1.17,1.24,1.26,2.07a94.31,94.31,0,0,1,.82,12c-.14,8.4,0,16.81.54,25.17s.77,16.93,3.29,25.11c.24.78.49,1.61-.22,2.32-1.77-4.07-2.32-8.44-2.93-12.78-.18-1.32-.34-2.22-2-1.8a3.86,3.86,0,0,1-2.85-.9c-4.61-2.76-7.78-6.92-10.75-11.22-5.45-7.88-8.65-16.69-10.56-26a12.94,12.94,0,0,0-.72-2.35c-.46,2.41-.11,4.87-.66,7.25-.09.37-.1.76-.19,1.13-.94,3.9-3.85,4.76-6.73,1.94A17.47,17.47,0,0,1,273.18,74c-2.11-7-2.17-14.19-2.08-21.4.1-8.73.88-17.43,1.45-26.14.27-4,.23-8,.22-12a11.31,11.31,0,0,0-1.14-4.6h0c-.18-.28-.24-.64.09-.75C272.32,8.9,272.51,9.47,272.79,9.84Z"/><path class="cls-1" d="M195.9,134.85c.3,3.32-2.62,5.12-3.7,7.81-3.16,7.9-5.72,15.93-5.78,24.55a21.48,21.48,0,0,0,3.89,13.13c1.16,1.61,1.32,1.6,2.17-.17a31.92,31.92,0,0,1,5.8-8.34,2.64,2.64,0,0,1,2.78-1c-3.85,3.63-6.13,8-7.94,12.88a39.25,39.25,0,0,0-2.65,9.8c-1.08,10.71,3.43,19.14,11.05,26.21,1.16,1.08,2.41,2.06,3.62,3.08.31.57,1.24.72,1.09,1.65-.74.3-1.3-.28-1.94-.39-4.45-1.79-7.44-5.27-10.14-9-6.61-9.1-7.75-19-4-29.55a2.43,2.43,0,0,0-.65-3.11c-4.11-3.91-5.12-9.09-5.19-14.42-.12-8.43,2.32-16.34,5.64-24,.23-.52.46-1,.66-1.58,0-.1,0-.24-.07-.53-3.12,1.8-6.15,3.63-9.25,5.32-8.24,4.5-16.68,8.49-25.95,10.46-11.3,2.41-22.15,1.42-32.4-4.23-.39-.22-.8-.39-1.2-.59s-.58-.36-.38-.65.69-.36,1,0c5.44,2.17,10.93,4.08,16.84,4.54,9.43.73,18.37-1.24,27-4.76a169.24,169.24,0,0,0,25.94-13.81c1.46-.92,1.69-2.63,2.86-3.68.27-.16.5-.58.88-.21C196.18,134.46,196.08,134.67,195.9,134.85Z"/><path class="cls-1" d="M314.84,126.59c-.65-3.08-1.21-6.18-1.95-9.24-.81-3.35-.68-6.78-1-10.17-1.25-11.87-1.15-23.79-1.22-35.7,0-3.22-.45-6.43-.75-9.63a3,3,0,0,0-.73-1.91C308,51,306.55,42.1,303.42,33.57a88.4,88.4,0,0,0-9.61-18.32,21.66,21.66,0,0,0-3.56-4.58,2.29,2.29,0,0,1-1.05-1.12c-.79-1.55-2.3-2.45-3.37-3.75-.35-.42-1.05-1,.31-.93a46.85,46.85,0,0,1,4.64,4.6,15.82,15.82,0,0,0,2,2.21,69.25,69.25,0,0,1,13.32,23.19c4.84,13.76,6,28.1,6.53,42.52.47,12.16.2,24.36,1.76,36.46A76.15,76.15,0,0,0,318,129.67a3.74,3.74,0,0,0,1.74,2.29C317.37,132,315.9,130.35,314.84,126.59Z"/><path class="cls-1" d="M27.65,130c-6.52,4.55-17.64,2.87-22.56-3.42a2.12,2.12,0,0,1-.47-2.3,1.94,1.94,0,0,1,2.11-1c8.28.32,16.25-1.56,24-4,6.88-2.1,13.71-4.35,20.64-6.28,10.86-3,22-5.09,32.72-8.46,1.88-.59,3.6-1.66,5.77-1.4-.25.79-.85.91-1.49,1.21-7,3.25-14.45,4.87-21.84,6.7C51.17,114.92,36,119.46,20.62,123.4a62.63,62.63,0,0,1-11.88,1.84c-.45,0-1.15-.26-1.31.4s.5.84.88,1.13A16,16,0,0,0,25,129.06c1.52-.61,2.95-1.47,4.42-2.22.41-.16.89-.37,1.19.09s-.23.64-.4.95C29.66,128.93,28.51,129.28,27.65,130Z"/><path class="cls-1" d="M4.53,174a6.83,6.83,0,0,1-1.29-.23c-.65-.24-1.44-.51-1.51-1.29s.84-.61,1.27-.85c4.48-2.43,8.92-4.94,13.5-7.14,9.16-4.39,16.28-11.17,22.91-18.67A37.4,37.4,0,0,1,55,135.2c1.58-.48,3.19-.82,4.73-1.43a.29.29,0,0,1,.31-.06c1-.26,2.07-.48,3.1-.77s1.06.12.61.86a3.71,3.71,0,0,1-1.64.71,11.25,11.25,0,0,0-3.71,1.13c-3.61,1.64-7.36,3-10.43,5.66-4.42,2.39-7.59,6.21-10.78,9.89a59.9,59.9,0,0,1-16,13.18c-5.16,2.9-10.55,5.4-15.69,7.87,5.3.21,10.84.2,16-2.38,3.88-1.94,7.3-4.43,9.19-8.54a6.45,6.45,0,0,0,.84-3.29c0-.33,0-.71.31-.85s.71.15,1,.43a4.14,4.14,0,0,1,.72,4.13c-1.14,3.88-3.74,6.59-6.94,8.84-.67.48-1.35.95-2.05,1.4-2.59,1.06-5,2.58-8,2.45-1.19-.54-2.35,0-3.52.06A46.51,46.51,0,0,1,4.53,174Z"/><path class="cls-1" d="M287.36,141.85l.36-.82c1.66.12,1-.61.5-1.32a65.8,65.8,0,0,1-9.61-17.43,3.41,3.41,0,0,1-.08-.37,61.26,61.26,0,0,1-1.56-6.1h0c0-1.31-.77-2.7.43-3.87h0c.71,2.25.46,4.71,1.52,6.89a74.56,74.56,0,0,0,21.41,30,72.41,72.41,0,0,0,14.55,9.28c1.46.72,3.08.25,4.47.6-5.08,2.92-9.19-.05-13.27-2.53A59.16,59.16,0,0,1,291.74,144C290.57,142.61,289.32,141.54,287.36,141.85Z"/><path class="cls-1" d="M46,196.77a63.37,63.37,0,0,0,6.8-8.45,11.5,11.5,0,0,0,1.6-3.66c.3-1.36.62-2.75-1.71-2.7a2.51,2.51,0,0,1,2.39-.84c11.25-.07,19.55-5.87,26.41-14,1.41-1.68,2.22-1.66,3.89-1.1,3.45,1.15,6.92.44,10.37-.16,0,1-.81,1-1.4,1.23a10.9,10.9,0,0,1-5.23.37l-.19,0v0c2.76.54,5.39-.16,8-.81.89-.22,1.8-.77,2.68,0-5.24,2.28-10.49,2.88-15.76.09-.46-.24-1-.86-1.22.23-.94,4.27-4.19,6.74-7.47,9-4.09,2.85-8.38,5.42-13.45,6.24a20.13,20.13,0,0,1-5.14.14c-1-.09-1.62.12-1.33,1.31a7.12,7.12,0,0,1-1.15,5.45c-1.79,3-3.68,5.93-6.48,8.13-.63.27-1.09.81-1.72,1.09-.35.15-.65.75-1.08.24s.12-.77.35-1.11S45.79,197.12,46,196.77Z"/><path class="cls-1" d="M204.29,224l1.71.21-.86-1.47c2.62,1.52,2.62,1.52,4.67,1.17a27.15,27.15,0,0,1-2.2-11.72c.28-5.56,2.14-10.33,6.8-13.68,1.4-1,2.88-2,4.76-1.36.33.1.61.29.63.64s-.32.44-.65.49c-3.79.65-6.07,3.25-7.58,6.44-3,6.42-2.13,12.89.3,19.28a28.64,28.64,0,0,0,2.53,5.3c-.49,0-1.39-1.19-1.28.46-.52-.46-.48-1.15-.72-1.72-1.05-2.48-2.2-3.15-5-3A4.43,4.43,0,0,1,204.29,224Z"/><path class="cls-1" d="M99.59,166.67,92.93,168a12.17,12.17,0,0,1-6.06-.65c2.92-.75,6.15.46,8.83-1.53,9.45-3.34,16.5-9.86,22.92-17.22.51-.05.74.27.64.68-.32,1.32-.37,2.78-1.72,3.61A48.31,48.31,0,0,1,101.35,166,3.71,3.71,0,0,1,99.59,166.67Z"/><path class="cls-1" d="M5,217.37c.06.52.28.89.86.93L.64,225.12c4.09-.26,7.82-.22,11.24-2.22a26.79,26.79,0,0,0,8.71-8.4A72.71,72.71,0,0,0,26,204.37a3.28,3.28,0,0,1,.15,3.11A30.53,30.53,0,0,1,17,221.71c-.21.84-1.18.67-1.61,1.21a15,15,0,0,1-11.76,3.23c-.44-.06-.88-.11-1.33-.15-2.83-.28-2.87-.3-1.26-2.84A36.64,36.64,0,0,1,5,217.37Z"/><path class="cls-1" d="M46,196.77c0,.7-1,.91-1,1.72,1-.16,1.54-1.25,2.59-1.21-1.56,1-2,2.69-2.76,4.27-5,10.22-12.42,17.75-23.65,20.95a5.44,5.44,0,0,1-1.15.06,4.8,4.8,0,0,1-1.69.11c-.31,0-.71,0-.64-.44s.51-.29.77-.46c7.6-1.76,13.6-6.05,18.66-11.81a49.74,49.74,0,0,0,6.55-9.59,2.39,2.39,0,0,0,.33-1.7C43.87,197.75,44.92,197,46,196.77Z"/><path class="cls-1" d="M4.53,174A67.89,67.89,0,0,0,17,174c1.92.66,3.92.29,5.82.08a53.19,53.19,0,0,0,15.22-4.21,8.91,8.91,0,0,0,4.62-4.1,4.9,4.9,0,0,1,.76-1.1c1-1.15,1.56-1,2.08.61-.39,2.59-2.26,4.1-4.12,5.61-7,3.48-14.35,5.79-22.32,5.22-1.29-.09-2.7,0-3.54-1.4-.3-.51-.94-.14-1.43-.11A28.46,28.46,0,0,1,4.53,174Z"/><path class="cls-1" d="M27.65,130c.81-.78,1.68-1.51,2.42-2.34,1-1.09-.29-.62-.61-.81a25.49,25.49,0,0,0,2.48-1.76A5,5,0,0,1,30.53,128c-1.09,1-.79,1.3.51,1.58,7.58,1.61,15,1.58,22.12-2a12.74,12.74,0,0,1,1.37-.61c1-.2,1.06.29.63,1-3.06,2.94-6.9,4-11,4.3-5.05.35-10.08.06-14.63-2.54C28.71,129.26,28.29,130,27.65,130Z"/><path class="cls-1" d="M60.14,127.64a28.51,28.51,0,0,0,11.17-3.18c-.41,2.84-8.26,5.26-12.33,4C58.85,127.4,59.91,128.13,60.14,127.64Z"/><path class="cls-1" d="M286.14,4.87c-1.17.45-.05.72.12,1,.88,1.31,2.67,1.91,2.94,3.72A62.67,62.67,0,0,0,282,2.81c-.65-.47-1.35-.89-2-1.33.48-1.34,1.06-.16,1.6-.06C283.26,2.37,285,3.23,286.14,4.87Z"/><path class="cls-1" d="M117.54,152.91c.45-.94.9-1.88,1.33-2.82.25-.54.4-1.08-.25-1.47a3.52,3.52,0,0,1,.95-2.43,8.33,8.33,0,0,1,.16,3.23c-.21.5-.43,1-.67,1.56,1.13.57,2.58,0,3.36,1.2-.33.11-1.12-.25-.66.65C120.34,152.39,118.93,152.08,117.54,152.91Z"/><path class="cls-1" d="M248.68,110c-.39,0-.89-1.21-1.18.1a16.14,16.14,0,0,1-2.45-7.83C245.81,105.11,247.55,107.43,248.68,110Z"/><path class="cls-1" d="M63.57,133.71c.17-.45.19-.66-.44-.51a6.68,6.68,0,0,1-3.06.51,49.69,49.69,0,0,1,8.46-2.3c.29.65.45,1.26-.48,1.51C66.52,133,65.23,134.42,63.57,133.71Z"/><path class="cls-1" d="M41.42,170.87a14.89,14.89,0,0,0,3.78-5.39c.47.27.16.81.39,1.16-.29.65-.57,1.31-.89,2s0,.63.44.64c-.43.59-.58,1.47-1.7.48C42.93,169.27,42.41,171,41.42,170.87Z"/><path class="cls-1" d="M60.14,127.64l-1.16.78c-1.32.31-2.55-.28-3.82-.43,0-.71-.09-1.15-.93-.67a1.24,1.24,0,0,1-1.07.25c.55-.81,1.72-.77,2.26-1.83,0,1.62.91,1.86,2.09,1.83C58.38,127.55,59.26,127.61,60.14,127.64Z"/><path class="cls-1" d="M272.79,9.84c-.39.29-.8-1.5-1.16,0-.67-.43-1-1.33-2-1.35a.49.49,0,0,1-.47-.67c.1-.39.48-.4.77-.37A3.1,3.1,0,0,1,272.79,9.84Z"/><path class="cls-1" d="M281.6,1.42c-.53.09-1.1-.75-1.6.06A6.26,6.26,0,0,1,277.21.05,4.86,4.86,0,0,1,281.6,1.42Z"/><path class="cls-1" d="M18.47,221.77c.24.17-.94.56.1.61.49,0,1,.12,1.46.18-1.51.36-3,.86-4.61.36A2.34,2.34,0,0,1,17,221.71Z"/><path class="cls-1" d="M51.34,165.12a20.68,20.68,0,0,1-5,4.59A21.27,21.27,0,0,1,51.34,165.12Z"/><path class="cls-1" d="M278.92,118.84c-1.55-2.07-1.25-4.54-1.52-6.89C278.45,114.12,278.31,116.57,278.92,118.84Z"/><path class="cls-1" d="M290.25,10.67a8.5,8.5,0,0,1,3.56,4.58A32.12,32.12,0,0,1,290.25,10.67Z"/><path class="cls-1" d="M277,115.81a25.68,25.68,0,0,1,1.56,6.1A13.8,13.8,0,0,1,277,115.81Z"/><path class="cls-1" d="M59.76,133.77A9.45,9.45,0,0,1,55,135.2,11.57,11.57,0,0,1,59.76,133.77Z"/><path class="cls-1" d="M271.63,9.85a5.39,5.39,0,0,1,1.14,4.6Z"/><path class="cls-1" d="M277.4,112c-.79,1.22,0,2.61-.43,3.87a5.34,5.34,0,0,1,.09-4.34.47.47,0,0,1,.3.12C277.42,111.68,277.39,111.83,277.4,112Z"/><path class="cls-1" d="M292.82,11.68a3.19,3.19,0,0,1-2-2.21A4.24,4.24,0,0,1,292.82,11.68Z"/><path class="cls-1" d="M244.06,16.6l-.42,1c.43.38.82-.38,1.27-.12l-6.25,4.91c-.55.35-.78.17-.75-.45C239.91,20.12,241.72,18.06,244.06,16.6Z"/><path class="cls-1" d="M244.9,17.5c1.52-2,3.64-1.75,5.72-1.49a1.31,1.31,0,0,1,1.12,1.53c-1.23-1.77-2.87-1.54-4.58-.95C246.39,16.86,245.65,17.19,244.9,17.5Z"/><path class="cls-1" d="M195.9,134.85c0-.7-.53-.27-.81-.38,0-.06,0-.14,0-.18.57-.67,1.13-2.09,2-1.48C197.71,133.27,196.51,134.24,195.9,134.85Z"/><path class="cls-1" d="M237.91,22a.84.84,0,0,0,.75.45c-.57.83-1.31.7-2.2.49C236.82,22.14,237.42,22.14,237.91,22Z"/><path class="cls-1" d="M62.12,134.18a9.15,9.15,0,0,1-3.89,1.12A6.14,6.14,0,0,1,62.12,134.18Z"/></g></g></svg>