<svg xmlns="http://www.w3.org/2000/svg" viewBox="0 0 335.55 235.46"><defs><style>.cls-1{fill:#204a46;}</style></defs><title>hand_da</title><g id="图层_2" data-name="图层 2"><g id="图层_1-2" data-name="图层 1"><path class="cls-1" d="M35,36.85C29.84,35.5,24.58,35,19.37,34.3c-2.43-.33-4.88-.47-7.32-.75-1.1-.12-1.48.21-1.53,1.38C10.36,38.5,12,41.06,14.8,43c6.7,4.72,13.93,4.83,21.43,2.36l.88-.31a4.44,4.44,0,0,1-3,2.69c-6.81,2.83-16.77.49-21.76-5A9.89,9.89,0,0,1,9.69,35c.06-.81.37-1.77-.92-2a.43.43,0,0,1-.26-.6c.2-.46.63-.24,1-.24a100,100,0,0,1,10.66.52c20.43,1.82,40,7.18,59.16,14.33.8.29,1.62.51,2.43.77,5,2,10,3.94,15.06,5.87,11.73,4.51,23.42,9.12,35.31,13.19a2.88,2.88,0,0,0,2,.32,57.22,57.22,0,0,1-8.7-8.77A21.27,21.27,0,0,1,121.29,51c-.27-1.07-1-1.08-1.77-1.23-11-2.14-19.22-8.25-25-17.73a16.19,16.19,0,0,1-2.3-8.79,3.53,3.53,0,0,0-1.15-2.74A25,25,0,0,1,85,11.91c-.41-1.11-.68-2.26-1.11-3.36v0a29.15,29.15,0,0,1-.12-4.67c0-.35.14-.57.53-.53l0,2.13c.26,1.52.29,3.1,1.12,4.48,5.8,10.32,14.34,16.67,26.31,18.27-.11,1.41-1.17,1.69-2.4,1.66-4.11-.1-7.74-1.7-11.2-3.76-1.51-.9-2.93-1.95-4.65-3.1a12,12,0,0,0,2.1,7.59c7.86,11.54,18.4,18.11,32.85,17,.54,0,1.07-.19,2-.36-2.07,2.91-5,2.52-7.79,3a21.39,21.39,0,0,0,4.52,7.3c5.68,6.57,12.35,11.7,20.8,14.26a4.2,4.2,0,0,0,3.32-.27,49.12,49.12,0,0,1,11.82-4,7.57,7.57,0,0,1,3.3,0,19.15,19.15,0,0,1-5.4,2.33q-3.59,1.15-7.19,2.26c-.6.19-1.35.35-1.28,1.08s.87.58,1.36.72c7.12,2.06,14.25,4.1,21.69,6.23a13.36,13.36,0,0,1-5.37.08c-13.64-2.39-26.74-6.73-39.8-11.19-17.87-6.1-35.32-13.35-53-20A253.77,253.77,0,0,0,36.76,37.05C36.17,36.94,35.56,36.91,35,36.85Z"/><path class="cls-1" d="M109.7,76.48c-6.85-2.34-13.82-4.25-20.76-6.27-13.42-3.89-26.76-8.09-40.33-11.45A97.57,97.57,0,0,0,19.42,56a15.18,15.18,0,0,1-3.3,0c-.6-.11-2.86,1-1.5-1.44.24-.44-.65-.93-1-1.36a13.34,13.34,0,0,1-3.7-10.07c0-.5-.17-1.14.54-1.41.54.41.34,1,.37,1.51a14,14,0,0,0,3.37,8.38,7.42,7.42,0,0,0,7,2.91c10.47-1,20.8.24,31,2.75s20.36,5.45,30.51,8.32c.64.18,1.3.27,1.95.41,5.24,1.87,10.64,3.19,16,4.79,20.24,6.11,40.21,12.9,59.28,22.14a36.65,36.65,0,0,1,5.38,3.31c-.61,1.13-1.21-.23-1.81,0l-1.05-.44a30.66,30.66,0,0,1-2.94-1.12C143.32,87.87,127,81.72,110.23,76.54A3,3,0,0,0,109.7,76.48Z"/><path class="cls-1" d="M91,3.34c7.17,4.39,13.88,9.44,20.69,14.34C134.38,34,158.34,48.19,184.17,59.07c2,.83,2.82,3.22,4.84,4.23-1.73-.64-3.59-.85-5-2.06a14.33,14.33,0,0,0-4.83-2.53C166.61,54.45,155,48.22,143.61,41.56,127.23,32,112.05,20.62,96.92,9.22c-2.24-1.69-4.52-3.36-6.78-5-.19-.41-1-.63-.61-1.15S90.48,3.22,91,3.34Z"/><path class="cls-1" d="M300,42.69a21.13,21.13,0,0,1,7.69-8.94c2.45-1.63,4.58-1,7.09,1.32.82.77,1.31,2.34,2.44,2.18.9-.12,1.63-1.37,2.46-2.09a42,42,0,0,1,11.89-7.57,7.79,7.79,0,0,1,1.38-.48c.86-.18,2.12-.93,2.49.07s-1.1,1.2-1.83,1.5a59.59,59.59,0,0,0-14.78,9.19c-.8.66-1,1.08-.37,2.06,5,7.9,9,16.31,13,24.71a6.26,6.26,0,0,1,.87,3.86A4.27,4.27,0,0,1,329.87,66c-3.53-6.87-7-13.77-10.6-20.6a29,29,0,0,0-4-6.1c-.93-1-1.56-2.52-2.7-3.54a3.15,3.15,0,0,0-4.2-.38,28.53,28.53,0,0,0-7.59,7.78c-.15.27-.37.54-.68.35S299.91,43,300,42.69Z"/><path class="cls-1" d="M153.94,211.83a5.3,5.3,0,0,1-2.06,4c-4.51,2.91-9.09,5.69-13.46,8.82-4.55,2.59-8.74,5.75-13.35,8.25a19.61,19.61,0,0,1-7.2,2.49c-1.17.13-1.23-.34-1.21-1.16a1.44,1.44,0,0,1,1-.13c1.7.06,3-.92,4.38-1.7,5.54-3.14,10.62-7,16-10.44a98.62,98.62,0,0,1,11.66-6.93,3.31,3.31,0,0,0,2-2.74c.26-1.38.18-3.09,1.82-3.88.95,1.53-.24,2.75-.56,4.07.09-.09.12-.26.21-.4S153.59,211.66,153.94,211.83Z"/><path class="cls-1" d="M181.55,98.14c-1.59-.14-3.18-.26-4.77-.41-.36,0-.79-.14-.78-.61s.47-.49.81-.51c2.08-.16,4.16-.31,6.24-.42A11.06,11.06,0,0,0,188,95c.72-.41,1.6-.75,2.09.19.59,1.1-.43,1.48-1.17,1.89C186.6,98.29,184.07,98.19,181.55,98.14Z"/><path class="cls-1" d="M292,40.2c-1.23.37.36.83-.05,1.22-2.36-1.49-4.67-3.1-7.4-3.89a6.51,6.51,0,0,0-4.29-.19c.18-1.57-.92,0-1.18-.47,1.06-1.51,2.4-.79,3.76-.59a22.21,22.21,0,0,1,8.29,3.09C291.46,39.58,291.94,39.67,292,40.2Z"/><path class="cls-1" d="M91,3.34l-1.28-.21.45,1.06L84.21.54,84.5,0A16.34,16.34,0,0,1,91,3.34Z"/><path class="cls-1" d="M163.44,96.22c.6-.44,1.21.74,1.81,0a19.47,19.47,0,0,1,4.64,3.12A29.58,29.58,0,0,1,163.44,96.22Z"/><path class="cls-1" d="M311.88,64.51a.83.83,0,0,0-.77.43l-2.84-2.75A5,5,0,0,1,311.88,64.51Z"/><path class="cls-1" d="M273.5,51.86c.44.87,1.1-.1,1.61.18l-2.74,2c-.25.18-.49.4-.76.09s-.05-.59.11-.81A3.4,3.4,0,0,1,273.5,51.86Z"/><path class="cls-1" d="M84.29,3.37c-.84,1.68-.05,3.48-.41,5.2-.9-2.3-.3-4.6-.1-6.91C84.55,2.13,84.42,2.75,84.29,3.37Z"/><path class="cls-1" d="M275.1,52.05a7.53,7.53,0,0,1,5.2-1.85Z"/><path class="cls-1" d="M299.35,46.1c-1.37-.41-2.09-1.57-2.94-2.58A7.55,7.55,0,0,1,299.35,46.1Z"/><path class="cls-1" d="M85.45,10A5.48,5.48,0,0,1,84.33,5.5Z"/><path class="cls-1" d="M313.75,68.92A4.62,4.62,0,0,1,315.18,73C314.7,71.64,314.22,70.28,313.75,68.92Z"/><path class="cls-1" d="M300,42.69c.11.41.27.71.77.45A2,2,0,0,1,300,45,2.39,2.39,0,0,1,300,42.69Z"/><path class="cls-1" d="M83.88,8.55A5.73,5.73,0,0,1,85,11.91,5.66,5.66,0,0,1,83.88,8.55Z"/><path class="cls-1" d="M159.45,94.66a5.55,5.55,0,0,1,2.94,1.12A4.06,4.06,0,0,1,159.45,94.66Z"/><path class="cls-1" d="M316,71.48a4.15,4.15,0,0,1-1.18-2.85A4.66,4.66,0,0,1,316,71.48Z"/><path class="cls-1" d="M75.08,134.49c9.69-2.09,16.69-8.19,23-14.92a2.56,2.56,0,0,1-.5,2.48c-.55,1-.47,1.34.71,1.18A42,42,0,0,0,117,116.3c-.44-.74-1.18-.89-1.79-1.2-5.53-2.8-10.56-6.23-14.47-11.13a18.47,18.47,0,0,1-3.14-5.37c-.32-1-.82-1.29-1.76-1l-.18,0a31.66,31.66,0,0,0-10.84,3.93c-5.86,3.66-12.27,6.16-18.58,8.87A480.53,480.53,0,0,1,9.3,130.41a18.13,18.13,0,0,1-5.92,1.18c-.16.06-.35.14-.43-.07-.25-.64.57-.42.66-.8,2.43-1.36,5.14-1.94,7.76-2.76,21.12-6.63,42.05-13.73,62.36-22.58,4.38-1.91,8.82-3.72,12.69-6.6.39-.29.86-.49,1-1.15-1.27-.26-2.53-.48-3.78-.77-9.31-2.15-16.75-7.3-22.93-14.44-.61-.7-1.1-1.3-2.29-1-9,2.17-17.43.47-25.4-3.82a74,74,0,0,1-17.7-13c0-.71.39-.66.87-.49,6.24,4.88,12.69,9.45,20,12.58a35.16,35.16,0,0,0,24.63,1.56,12,12,0,0,0,2.55-1.33c-.11,1.33-.41,2.45-1.56,3.09s-.61,1.05,0,1.64C70.51,89.89,80.55,95,92.72,95.31a14.79,14.79,0,0,1,2.75.22c1.14.24,1.17-.2,1.07-1.16a12.2,12.2,0,0,1,.21-5.06,1,1,0,0,1,.77,1.22c-.3,7.34,3.7,12.33,9,16.57A36.62,36.62,0,0,0,118,113.67c2.24.72,4.28,1.86,6.55,2.48,8.58,2.35,17.14,2.93,25.73.13a6,6,0,0,1,2.43,0c-.16.86-.83,1.17-1.43,1.55-3.05,2-6.51,2.5-10,2.76a48.31,48.31,0,0,1-20.58-3.12,2.9,2.9,0,0,0-3,.42c-6.23,4.24-13,6.72-20.69,6.5a2.91,2.91,0,0,0-2.2,1.07c-5,4.63-10.48,8.49-17.24,10.13a6.69,6.69,0,0,1-.9.08c-1.63.06-3.27.6-4.89-.13C72.81,134.86,74,135,75.08,134.49Z"/><path class="cls-1" d="M140.66,123.1c.78,2.75,3,4.12,5.08,5.6a60.21,60.21,0,0,0,39.11,11.51c2.67-.15,5.42.23,8-.64.49-.16.51.13.58.4a1.24,1.24,0,0,1-.44,1.48,7.2,7.2,0,0,1-2.75,1,3.15,3.15,0,0,1-1.08.19c-3.5-.5-5,1.57-6,4.47a37.42,37.42,0,0,0-1.63,5.07c-.25,1.22-.24,1.91,1.38,1.25a5.33,5.33,0,0,1,5.14.27c-1.86.61-3.58.76-5,1.58-.76.42-1.84.52-2,1.72a.71.71,0,0,1-.47.47c-5.88,1-9.75,5.19-13.77,9a20.52,20.52,0,0,0-5.51,9.83c-.37,1.35-.32,2,1.37,2a11.22,11.22,0,0,1,5.17,1.12c.54.26,1.58.31,1.32,1.15-.21.65-1.08.26-1.66.18-.91-.12-1.82-.28-2.73-.36-11.93-1.05-21.34,3.9-29.36,12.25-4.37,4.54-7.89,9.53-9.17,15.85a6.78,6.78,0,0,0-.22,1.07,6.21,6.21,0,0,0,.13,1.08c-2.3-.49-2-2.26-1.9-3.77a19.08,19.08,0,0,1,2.7-7.57c3.29-5.74,7.93-10.25,13.14-14.22a32.21,32.21,0,0,1,17.67-6.84c.67,0,1.13-.14,1.23-1,.82-7.19,5.15-12.14,10.54-16.38a48,48,0,0,1,8.26-5.15,2.52,2.52,0,0,0,1.62-2.16,22.26,22.26,0,0,1,3.44-8.84c.28-.45,1-.87.68-1.4s-1.11-.25-1.69-.27c-7.91-.17-15.64-1.26-22.95-4.5a62.91,62.91,0,0,1-15.5-9.78C141.68,127.3,140.2,125.66,140.66,123.1Z"/><path class="cls-1" d="M117.52,234.61l-.86-.33c-.6-4.69,1.1-8.82,3.29-12.75,4-7.28,10.2-12.46,17.24-16.66a57.66,57.66,0,0,1,14.65-6.28,2.76,2.76,0,0,1,2.75.4c.19.14.49.36.48.52-.26,4.12,1.15,8.39-1.13,12.32-.94.46-.53,1.66-1.35,2.49-.46-2.24,1.36-3.92.89-5.91-.67-.82-.36-1.74-.22-2.63.24-1.6.54-3.51-.66-4.52s-2.65.28-3.91.81a65,65,0,0,0-17.49,10.31c-6.09,5.18-10.48,11.43-12.37,19.3C118.58,232.72,118.57,233.91,117.52,234.61Z"/><path class="cls-1" d="M75.08,134.49c-.82.72-1.86.66-2.85,1.13h4.43A26.63,26.63,0,0,1,62.88,135a3.07,3.07,0,0,0-2.86.42,46.44,46.44,0,0,1-33.75,6.87,7,7,0,0,1-5.14-3.35c3,2.26,6.59,2,10,2.12a49,49,0,0,0,29.64-8,28.8,28.8,0,0,0,2.33-1.79,7.32,7.32,0,0,1,2.55-1.78c-.17,1.74-1.54,2.4-2.34,3.44-.24.32-.85.45-.66,1s.7.44,1.1.51A41.89,41.89,0,0,0,75.08,134.49Z"/><path class="cls-1" d="M12.75,55.13c3,6.51,9,6.62,14.58,7.39a37.56,37.56,0,0,0,13.35-.8c.77-.17,2-.64,2.31.28.35,1.1-1,1.4-1.78,1.71A23.53,23.53,0,0,1,32.89,65c-6,.07-11.77-.66-17-3.81C13.19,59.58,12.2,57.72,12.75,55.13Z"/><path class="cls-1" d="M3.61,130.72c.14.35-.8.4-.23.87-.79.24-1.49.48-.29,1.24a14.78,14.78,0,0,0,7.08,2.34,37.46,37.46,0,0,0,20.57-4.4c.25-.13.45-.55.74-.24a1,1,0,0,1,.15.85,3.47,3.47,0,0,1-2,2,35.93,35.93,0,0,1-18.92,3.54,15.38,15.38,0,0,1-10-4.49c-.25-.25-.76-.38-.64-.8s.68-.36,1.09-.42C2,131.08,2.78,130.89,3.61,130.72Z"/><path class="cls-1" d="M16.23,64.09c-.34.08-.7.12-.87.49a3.73,3.73,0,0,1-1.83-3.34Z"/><path class="cls-1" d="M275.11,52Z"/><path class="cls-1" d="M330,177.15A28.3,28.3,0,0,1,318,163.31a85,85,0,0,1-4.35-13.26,14.47,14.47,0,0,0-2.82-5.67,1.51,1.51,0,0,0-1.95-.65c1.83,2.08,2.47,4.5,3.05,7a1.93,1.93,0,0,1,0,1.42c-1.88,3.72-3.62,7.53-6.43,10.69-3.24,3.65-6.67,3.59-9.78-.16a33.68,33.68,0,0,1-5.64-11.08,12.06,12.06,0,0,1-.89-5.4c.64-5.18.93-10.38,1.16-15.59a373.59,373.59,0,0,0-.75-49.85c-.63-7-1.89-13.85-2.89-20.77-.43-2.94-.64-6-2-8.76a3.52,3.52,0,0,0-4.29-2.25,18.09,18.09,0,0,0-7,2.93c.37,1.49,1.07.11,1.61.18a16.85,16.85,0,0,1,5.19-1.84c2.07-.41,3.08.66,3.57,2.52a41.71,41.71,0,0,1,.84,4.32c.23,1.58-.35,1.52-1.46,1a15.13,15.13,0,0,0-7.83-1.59c-2.5.14-5,.12-7.52.26-1.2.07-1.43-.27-.89-1.32.67-1.3,1.19-2.69,1.9-4a55.46,55.46,0,0,1,11.34-14c.15-.25.54-.52.28-.78-.57-.54-1,.17-1.46.31a40,40,0,0,0-12.41,15.47c-1.47,3.25-3,5.52-6.75,6-1.53.22-2.93,1.44-4.45,1.62a54.5,54.5,0,0,0-7.76,1.48A124.24,124.24,0,0,1,212,65.64c-8.65-.21-17.23-1-25.82-1.92a44.81,44.81,0,0,0-7.55-.08c.51.39.59.51.68.51,6.94.38,13.71,2,20.61,2.72,14.41,1.42,28.77,2,43-1.59,4.22-1.06,8.62-1.7,12.5-3.69a28.73,28.73,0,0,1,13.28-3.13c5.07,0,10.15-.13,15.06,1.5.9.3,1.46.64,1.59,1.71.64,5.42,1.5,10.81,2,16.24a322.82,322.82,0,0,1,1.05,42.3,2.61,2.61,0,0,1-1.09,2.13,128.06,128.06,0,0,0-12.95,11.44,293.32,293.32,0,0,1-34.07,31.37,305.44,305.44,0,0,1-41.69,27.22,2.93,2.93,0,0,1-1.33.56c-1-.05-1-.12-1.64.52-.25.26-.55.48-.83.72a4.85,4.85,0,0,0-3.37,2.5c-.45.41-.86.86-1.34,1.22-8.5,6.41-18.26,10.24-28.12,13.88-3.24,1.6-6.41,3.36-9.94,4.28-.32.37-.33.66.25.66a9.44,9.44,0,0,0,3.25-.59c4.16-1.46,8.32-3,12.48-4.43,8.06-2.86,15.83-6.27,22.77-11.41,2.28-1.69,3.56-4.47,6.12-5.64s5.29-2,7.78-3.3c23-12.29,43.44-28,61.95-46.32,1.94-1.93,3.76-4,5.88-6.24.84,3.11,1.3,6,2.43,8.72,1.62,3.91,3,7.93,5.57,11.36,1,1.34,2.22,2.59,4.12,2.26s2.45-1.91,2.89-3.47.69-3,1.13-5c.61,1.63,1,2.83,1.5,4,1.31,3.27,2.82,6.41,5.43,8.88a7.06,7.06,0,0,0,9.24.94,15,15,0,0,0,4.71-5.09c1.17-1.9,2.22-3.89,3.46-6.09.26.78.48,1.34.64,1.91a62.31,62.31,0,0,0,2.79,8c2.2,5,5.24,9.42,10,12.41a5.36,5.36,0,0,0,3.09,1.06,1.28,1.28,0,0,0,1.25-.63C331.05,177.38,330.28,177.34,330,177.15Zm-44.34-22c-.2,1.23-.18,3.09-1.46,3.32s-2.11-1.49-2.71-2.63a66.66,66.66,0,0,1-6.91-17.75,2.61,2.61,0,0,1,.74-2.49c3.88-4.19,8.2-7.93,12.32-11.88.11-.11.31-.13.75-.3C287.85,134.16,287.29,144.69,285.61,155.12Z"/><path class="cls-1" d="M291.94,41.42c1.38,1.13,2.81,2.21,4.12,3.41a39.9,39.9,0,0,1,8.78,10.78c1.17,2.23,2,4.58,1.08,7.07a65.08,65.08,0,0,0-3.5,17.24c-1.14,12.1-2.18,24.21-.82,36.36a52.74,52.74,0,0,0,5.31,18.65c.56,1.09,1.33,2.23,2.77,2.09s1.88-1.41,2.24-2.61a33.07,33.07,0,0,0,1.3-10.18c-.16-8-.4-16.07-.57-24.1a18.86,18.86,0,0,0-.72-5.06,15.68,15.68,0,0,0-.32,2.88q-.19,14.26-.37,28.53a21,21,0,0,1-1,6.33c-.19.57-.35,1.34-1,1.41s-.85-.76-1.07-1.28a59.88,59.88,0,0,1-4.54-17.37c-1-8.88-.67-17.78-.11-26.66s.86-17.66,4-26.08a8.17,8.17,0,0,0-.46-6.11,30.54,30.54,0,0,0-7.69-10.62c-1.11-.72-1.82-1.87-2.94-2.58L292,40.2c-.27-.21-.61-.24-.71.09C291.1,40.85,291.79,41,291.94,41.42Z"/><path class="cls-1" d="M315.18,73c.4,2.17.85,4.33,1.19,6.51,1.36,8.79,1.69,17.7,2.82,26.52a40.86,40.86,0,0,0,1.95,9.34c.39,1,.87,2,2.32,2a14.25,14.25,0,0,0-.23-2.22c-2.38-9.25-2.66-18.81-4.05-28.2-.77-5.21-1.36-10.45-3.19-15.44-.63-.85-.62-2-1.18-2.85a18.05,18.05,0,0,0-2.93-4.12c-.47-.23-.82-.26-.77.43l2.64,4A9.46,9.46,0,0,1,315.18,73Z"/></g></g></svg>