<svg xmlns="http://www.w3.org/2000/svg" viewBox="0 0 340.94 239.85"><defs><style>.cls-1{fill:#204a46;}</style></defs><title>hand-mo</title><g id="图层_2" data-name="图层 2"><g id="图层_1-2" data-name="图层 1"><path class="cls-1" d="M49.87,94q39.57-5.2,79.43-7c8.11-.35,16.26-1,24.25.68,3.47.72,6.15,0,9.18-1.39,10.58-4.81,20-11.56,30-17.44,7.84-4.62,15.9-8.83,24.08-12.81,7.8-3.8,16.25-5.08,24.65-6.52,7.23-1.23,14.49-2.28,21.71-3.51,1.18-.2,2.41.35,3.52-.35a2.51,2.51,0,0,1,1.33-.82c1.69-1.51,4-2.13,5.57-3.77,2.09-2.2,5.07-2.93,7.51-4.57,1-.66,2.05-1.22,3.08-1.83.47-.28,1.1-.54,1-1.2s-.76-.95-1.35-1.17c-1.89-.71-5.2.46-6.75,2.46a22.64,22.64,0,0,0-2.55,4.12c-.26.54-.43,1.48-1.43.8-.15-5,4.63-10,9.58-10.09,3,0,4.95,1.7,6.13,4.34,2.24,5,2.85,10.42,3.69,15.76.25,1.6.36,3.21.53,4.82.32,2.15.42,4.34.88,6.48.08.37.09.79-.3.82s-.79-.48-1.1-.85c-1.22-2-1.29-4.29-1.61-6.5-.8-5.44-1.49-10.9-2.79-16.25-.71-2.95-.74-2.89-3.25-1.34a160,160,0,0,1-19.33,10.44c-3.15,1.38-6.73,1-10.09,1.67-10.45,1.95-21.11,2.94-31.28,6.18-8.84,2.82-16.8,7.61-24.88,12.06-5.12,2.82-10.25,5.66-15.14,8.83-8.36,5.43-17.25,9.8-26.19,14.1a1.35,1.35,0,0,1-.41.06,41.72,41.72,0,0,0-3.9,1.64l-.75.48a14.9,14.9,0,0,0-1.54.55c-.59.28-1.4.91-1.83.2s.55-1.08,1-1.52a6.4,6.4,0,0,1,1.62-.68c.6-.17,1.24-.26,1.61-.88-.2-.71-.79-.49-1.21-.5-6.32,0-12.61-.86-18.95-.1-3.75.45-7.59,0-11.37.49a7,7,0,0,0-2,.46c-3.37.87-6.84.52-10.26.83-11.12,1-22.27,1.58-33.36,2.84-9.92.6-19.75,2.19-29.64,3.13-2.26-.21-4.46.34-6.69.6a9.62,9.62,0,0,1-2.51.12c-.67-.1-1.25-.4-1.23-1.19s.67-.69,1.22-.81C41.75,95,45.85,94.71,49.87,94Z"/><path class="cls-1" d="M265.8,30.39c2.39-14.34,11.45-21.7,24.3-18.55A6.54,6.54,0,0,1,293,13.11c1.18,1,2.61,1.6,3.87,2.49l0,0c1.11.65,2,1.72,3.42,1.74A59.66,59.66,0,0,1,319,30.37c9.86,9.94,16.57,21.65,19.15,35.56a64.22,64.22,0,0,1,.63,8.42c0,.52,0,1.28-.76,1.26s-.52-.72-.6-1.18c-1.33-7.07-2.68-14.14-5.52-20.8a70.78,70.78,0,0,0-26.25-31.56l-3.35-2.22c-.42-.19-.78-.72-1.29-.44s-.24.58,0,.87c3.1,4.76,3.84,10.23,4.63,15.67.94,6.49,1.44,13,3.17,19.41A32.81,32.81,0,0,0,319.62,72a2.62,2.62,0,0,0,2.87.75c1.1-.48,1-1.63,1-2.59.08-9.63-2.87-18-10.09-24.68-.72-.67-1.41-1.37-2.11-2.06,0,0,0-.13,0-.37,1-.32,1.78.35,2.5.88a28.59,28.59,0,0,1,11.76,20.7c.2,1.75.16,3.52.31,5.28a4.58,4.58,0,0,1-2.4,4.8c-1.82,1-3.4-.09-4.86-1.12-6.75-4.74-10.68-11.29-12.4-19.26-1.33-6.15-1.79-12.42-2.56-18.65A44.13,44.13,0,0,0,301,24.12c-4.23-10.28-16.37-14.39-25.26-8.56-3.8,2.49-5.68,6.35-7.27,10.39-.36.92-.64,1.87-.95,2.81-.65,1.35-.57,2.95-1.37,4.49A3.36,3.36,0,0,1,265.8,30.39Z"/><path class="cls-1" d="M61.25,235.75c3.8-3.56,7.64-7.07,11.36-10.7,2.27-2.21,4.39-4.58,6.51-6.94a19.66,19.66,0,0,0,4.25-6.85c1.25-3.61,3.47-6.9,5.38-10.27a348.64,348.64,0,0,1,35.3-50.7c.49-.6,1-1.22,1.83-2.34-5.4,2.3-10.12,4.76-15.34,5.83-1.08.07-2.08.67-3.2.55-.27,0-.54,0-.69-.36.08-.79.95-.24,1.24-.68,4.91-1.7,9.77-3.47,14.52-5.61a25.87,25.87,0,0,0,10.62-8c2.65-3.54,6.33-6.37,8.62-10.09,4.34-7.06,10.37-12.39,16.41-17.74a139.91,139.91,0,0,1,21.8-16.23,12.42,12.42,0,0,1,1.81-.94c.33-.13.67-.12.76.33s-.22.46-.42.63a209.57,209.57,0,0,0-34.14,28c-2.76,2.79-4.4,6.35-6.9,9.33-10.72,12.81-21.32,25.73-31,39.39A352.65,352.65,0,0,0,84.66,213.1a9.5,9.5,0,0,1-.85,1.18c-.35,1.18-1.37,2-1.72,3.19-1.1,2.43-3.11,4.17-4.83,6.1-4.23,4.74-8.69,9.26-14.16,12.62a2,2,0,0,1-1.18.4C61.49,236.48,61.05,236.37,61.25,235.75Z"/><path class="cls-1" d="M158.21,227.68c2.45-.85,5.27-1.34,7-3.14,2.26-2.33,5-2.46,7.75-3.07a26.51,26.51,0,0,0,5.89-2.28,3.78,3.78,0,0,0,1.6-2c2.51,3.42,2.94,7.26,3.24,11.12s.25,3.92,4.35,3.46c5-.56,9.92-1,14.9-1.39,7.9-.56,13.85-4.39,18.82-10.36a104.31,104.31,0,0,1,20.38-19.21,36.62,36.62,0,0,1,6.7-4c.44-.21,1-.44,1.26.1s-.55.83-.75,1.3a109.12,109.12,0,0,0-19.22,15.79c-2.45,2.54-4.92,5.07-7.21,7.74-5.14,6-11.41,9.52-19.4,10.13-6.38.49-12.72,1.46-19.09,2.18-5.63.63-16,1.27-21.09.12-1.05-.6-2.48,0-3.58-1.33,2.47-.91,4.88.23,7.19-.19,3.87.25,7.71-.29,11.56-.48,2.55-.12,3.13-.87,2.74-3.35-.34-2.16-.23-4.35-.69-6.49-.2-.94-.58-1.25-1.42-.76a24,24,0,0,1-9.42,2.84,5.08,5.08,0,0,0-2.43,1.18,14.41,14.41,0,0,1-5,2.66c-2.08.35-4.05,1.1-6.1,1.54a2.6,2.6,0,0,1-1,0c-.56-.26-1.45-.44-.19-1.06C156.06,228.35,157.27,228.38,158.21,227.68Z"/><path class="cls-1" d="M249.38,198.28c.09-.57,1.26-1.52-.51-1.4a43.13,43.13,0,0,1,6.22-3.5c5.23-2.41,7.85-7.26,10.73-11.76,6.83-10.7,11.65-22.37,15.9-34.25A140.14,140.14,0,0,1,304,107.1c1.22-1.53,2.39-3.13,3.58-4.7.55-.11.76-1.31,1.44-.66s-.13,1.23-.4,1.82a4.07,4.07,0,0,1-.33.48,15.44,15.44,0,0,0-1.82,2.51,2.51,2.51,0,0,1-.32.46,6.91,6.91,0,0,0-1.82,3.08,28.44,28.44,0,0,1-3.76,5.58c-1.15,1.53-1.68,3-.93,4.86.38,1,.95,2.12,0,3.18-1-.13-.73-1-.92-1.56-.3,1.2,1.27,2.46,0,3.74-1-1.9-.91-4-1.3-6.44a83,83,0,0,0-7.63,13.11c-3.78,7.89-6.41,16.23-9.65,24.34-4.25,10.6-8.89,21-15.63,30.33-2.09,2.89-4.22,5.57-8,6.62-1.9.52-3.46,2.24-5.21,3.37A4.69,4.69,0,0,1,249.38,198.28Z"/><path class="cls-1" d="M298.83,125.89c.33-1.33-.73-2.56-.25-3.93.91.16.45,1.4,1.24,1.65,1.42.54,1.44,2,1.88,3.1a13.86,13.86,0,0,0,4,6.11c2.45,2,4.81,1.44,6.18-1.42,1.48-3.11,1.79-6.5,2.08-9.87a107.81,107.81,0,0,0-.82-23.13c-.1-2.22.06-4.49-1.09-6.53-3.23-9.71-9-17.81-15.71-25.38-.22-.43-.39-.92.07-1.25s.6.08.79.38c2.17,2.58,4.89,4.6,7,7.22a53.87,53.87,0,0,1,10.14,18.6c3.74,12.29,3.77,24.75,1.47,37.28-.48,1.23-.59,2.6-1.36,3.73-2.71,5.27-7.44,6-11.53,1.6A15.46,15.46,0,0,1,298.83,125.89Z"/><path class="cls-1" d="M303.52,141c3.37,8.33,7.12,16.44,13.09,23.3a27.35,27.35,0,0,0,5.12,4.73c4.21,2.91,8.3,2.13,11.08-2.17,3-4.71,3.9-10.08,4.59-15.48,1-8.15.69-16.34.5-24.52a12.15,12.15,0,0,0-1.1-4.83,8.33,8.33,0,0,1,2.63,5.27c1.89,11.86,1.54,23.61-2,35.16a19.61,19.61,0,0,1-3.09,6c-3.41,4.54-8.22,5.47-13,2.43a29.69,29.69,0,0,1-7.66-7.5,73.67,73.67,0,0,1-10.12-19,20.71,20.71,0,0,1-1-3.34c0-.41-.08-1,.51-.91C303.36,140.2,303.31,140.74,303.52,141Z"/><path class="cls-1" d="M118.05,110.92C108,114.68,97.72,118,87.7,122a293.3,293.3,0,0,0-54,28.06l-2.44,1.57c-.32.22-.67.25-.86-.09s.14-.61.31-.89a203.5,203.5,0,0,1,28.86-17.77,303.51,303.51,0,0,1,31.45-14c6.44-2.48,13-4.75,19.51-6.92.64-.21,1.27-.46,2.44-.89-3.15-.21-5.72-.32-8.28-.58a15.09,15.09,0,0,1-7.48-2.44c-.61-.78-.48-1.2.58-1.18,1.74.78,3.68.85,5.46,1.53,4.85,1.1,9.76.61,14.65.55a4,4,0,0,1,.68-.17c1,0,2.47-.53,2.71.62.21,1-1.42.6-2.12,1C118.84,110.68,118.39,110.66,118.05,110.92Z"/><path class="cls-1" d="M209.68,181.14a20.49,20.49,0,0,1,11.62.94A7.23,7.23,0,0,1,223,183c.39.29,1,.69.68,1.25-.49.83-.88,0-1.34-.19a17.73,17.73,0,0,0-12.33-.6c-9.15,3-14.94,9.41-18.84,17.88-.2.42-.23,1.34-1.05,1s-.91-1.09-.58-2a31.43,31.43,0,0,1,7.41-11.44,32.85,32.85,0,0,1,8.35-6.07c.69-.35,1.37-.56.81-1.68-3.35-6.74-3.34-13.88-2.34-21.09a32.32,32.32,0,0,1,3.37-10.86,27.11,27.11,0,0,1,3.16-5.06c.27-.31.48-.84,1-.61s.27.84.1,1.28a6.93,6.93,0,0,1-.48.94c-5.88,10.85-6.35,22.17-2.88,33.82C208.23,180.34,208.25,181.52,209.68,181.14Z"/><path class="cls-1" d="M148.53,226.55a4.72,4.72,0,0,1,.27-2.9c4.49-10.33,11.18-18.58,22.11-22.48,6.06-2.16,12.24-2.24,18,1.16,5,2.94,7.76,7.56,9.14,13.08a7,7,0,0,1,0,1.89c0,.7-.42,1.4-1,1.48s-.64-.74-.84-1.25a36.87,36.87,0,0,0-3.69-7.83c-4.79-7.07-13-9.65-21.72-6.25-10.61,4.14-17.31,12.23-21.37,22.68C149.17,226.31,149,226.82,148.53,226.55Z"/><path class="cls-1" d="M300.21,17.32c-1.57.27-2.57-.59-3.42-1.74A37,37,0,0,1,310.8,4,41.36,41.36,0,0,1,322.8.1a10.11,10.11,0,0,1,6.14,1.16c-9.6.2-18.13,4.1-26.43,10C315.69,12.21,326,18,335,26.64a42.22,42.22,0,0,1,4.92,6,3.45,3.45,0,0,1,1,1.74c.21,1.26-.48.77-1,.42a56.58,56.58,0,0,0-12.22-12.06C321,18,313.72,14.27,305.52,12.79a7.28,7.28,0,0,0-5.15.46c-1,.57-2.08,1.26-2.24,2.38C297.94,17,299.67,16.53,300.21,17.32Z"/><path class="cls-1" d="M144.74,171.93a62.22,62.22,0,0,0,11.64-6.07c7.05-4.77,12.39-10.91,15.4-19a30.61,30.61,0,0,0,1.57-9c0-.6-.43-1.69.64-1.64s.53,1.1.58,1.72a28.65,28.65,0,0,1-1.83,12.89c-2.33,6.55-6.83,11.43-12.2,15.56-4,3.11-8.38,5.74-13.61,6.39a17.84,17.84,0,0,1-5.1,0C142.92,171.73,144,172.47,144.74,171.93Z"/><path class="cls-1" d="M115.44,193.84a52.06,52.06,0,0,1-2.07,6.45c-.36,1.51-1.28,2.8-1.64,4.3-5.08,10.71-11.06,20.64-22.45,25.82-2,.89-4,1.46-6.19.42a31.2,31.2,0,0,0,14.21-8.27,70.51,70.51,0,0,0,16.07-26.51A7,7,0,0,1,115,193C115.65,193,115.93,193.24,115.44,193.84Z"/><path class="cls-1" d="M103.65,150.7l-1.71,2.57a14.16,14.16,0,0,1-1.21,2.19A73.27,73.27,0,0,1,79,179.88a6.7,6.7,0,0,1-2.8,1.38c-3.91,1.46-7.87,2-12,.57,2.52-.54,5.14-.33,7.62-1.1,8.39-2.51,13.83-8.87,19.51-14.93,4-4.27,6.8-9.39,10.1-14.16a8.46,8.46,0,0,1,1.19-1.4c.34-.08.59-.63,1-.23C103.93,150.24,103.82,150.48,103.65,150.7Z"/><path class="cls-1" d="M105.83,123.72c-5.16,4.13-10.69,7.76-16.11,11.53-8.36,5.84-17,11.33-25.62,16.72a18.09,18.09,0,0,1-1.88.91c-.32.21-.69.25-.88-.09s.14-.61.36-.86l43.15-28.77C105.4,123,105.86,122.91,105.83,123.72Z"/><path class="cls-1" d="M172.74,150.88c.39-1.77.71-3.56,1.19-5.3.84-3,.29-6,.12-9-.75,3.46-.4,7.13-2.27,10.3,1.12-4.52,1.06-9.24,2.18-13.77a22.14,22.14,0,0,1,.93,8.78,2.09,2.09,0,0,0,1.65,2.45c8.09,3.19,16.5,3.46,25,2.81a21.92,21.92,0,0,0,5.68-.73c-.94,2.54-3.16,2.72-5.12,2.94-9.06,1-17.89.31-26.12-4-1.15-.61-1.39-.32-1.62.79A11.49,11.49,0,0,1,172.74,150.88Z"/><path class="cls-1" d="M61.7,151.93c-.16.5-.22.94.52.95a2.21,2.21,0,0,1-1.86.85c-2.19-.19-3,1.23-3.85,2.85-4.46,8.31-10.6,15.41-16.58,22.62-4.67,5.63-9.34,11.27-14.49,16.49-.49.24-.66.86-1.15,1.07-.73.33-1,.14-.66-.67,6.24-7.28,12.51-14.52,18.69-21.84,4.32-5.12,8.64-10.28,12-16.11C56,155.06,57.77,152.27,61.7,151.93Z"/><path class="cls-1" d="M81.69,217.33c.07-1.45,1.38-2.05,2.12-3.05.07,1.19.06,2.4.22,3.58,1.36,9.92-3.15,17.11-12.64,20.19a47,47,0,0,1-8.46,1.77c-1.9.25-2.84-1.11-3.45-2.27s1.19-1.15,1.77-1.8a1.21,1.21,0,0,0,1,.57c-.41.94-.52,1.52.92,1.3a31.23,31.23,0,0,0,13.16-4.85A12,12,0,0,0,80,228.51a20,20,0,0,0,2.31-9.12C82.38,218.67,82.58,217.8,81.69,217.33Z"/><path class="cls-1" d="M111.73,204.59c-.07-1.67.9-2.94,1.64-4.3-.05,1.6.72,1.08,1.53.62a35.27,35.27,0,0,0,9.6-8.41c4.86-5.86,8.32-12.61,12.2-19.09.59-1,1.35-1.88,2-2.81.25-.22.52-.53.86-.35s.3.54.1.85h0c-.67.53.09,2-1.33,2-3,5.21-5.42,10.75-8.92,15.68-3.15,4.43-6.41,8.74-11.06,11.76a5.86,5.86,0,0,1-3.06,1.34C113.31,201.87,112.35,202.92,111.73,204.59Z"/><path class="cls-1" d="M9.22,176.58c5.11-1.71,10.3-3.21,14.65-6.63a68,68,0,0,0,5.14-4.9c1.07.08.78.69.51,1.3-1.92,3.72-5.1,6.13-8.69,8-6,3.08-12.39,5-19.28,4.55-.55,0-1.2.13-1.47-.53s.19-1.08.57-1.48a11.08,11.08,0,0,1,2.6-2.42c.53-.25,1-.27,1,.5h0a2.32,2.32,0,0,0-.55.62c-.28.38-.82.66-.59,1.24s.81.41,1.28.43A11.26,11.26,0,0,0,9.22,176.58Z"/><path class="cls-1" d="M61.77,189.27c-.81,2.57-2.65,4.42-4.45,6.25a61.23,61.23,0,0,1-18.13,12.53c-2.25,1-2.84,1-4.29.67,9.93-5.47,19.94-10.89,26.34-20.86C61.94,188.13,61.1,189,61.77,189.27Z"/><path class="cls-1" d="M31.93,200.29a12.09,12.09,0,0,1-3.55,7.19,22.55,22.55,0,0,1-15.75,6A5.53,5.53,0,0,1,8,211.28C18.74,213.47,26.46,209.43,31.93,200.29Z"/><path class="cls-1" d="M92.65,103.75c-7.3,3.48-14.89,4.83-22.89,3-.23-.54-1.44,0-1.17-.75.33-.94,1.39-.63,2.2-.6a5.12,5.12,0,0,1,.68.14c4.51.22,9,.61,13.42-.93,3.85-1.38,7.64-2.91,11.38-4.56.67-.19,1.37-.8,2,.11-.55,1.31-1.82,1.87-2.82,2.7C94.61,103.45,93.49,103.17,92.65,103.75Z"/><path class="cls-1" d="M150.67,91.9,149.74,93c1.16.19,2-1.11,3.14-.69-5.56,2.82-11.37,5.06-17.11,7.45a14.63,14.63,0,0,0-4.23,2.62c-.88-.78-.88-.8.1-2.4a7.73,7.73,0,0,1,3.53-2.19c4.52-1.75,8.92-3.75,13.36-5.69C149.2,91.84,149.88,91.28,150.67,91.9Z"/><path class="cls-1" d="M54.53,104.19c-5,.79-10,.83-14.46-2.06-.06-.95.66-.86,1.25-.95,2.42.55,4.8,1.38,7.35,1.09,4.37.35,8.59-.6,12.81-1.5.86,0,1.88-.1,1.37,1.33a2.6,2.6,0,0,1-1.49.92C59.25,104.37,56.77,103.6,54.53,104.19Z"/><path class="cls-1" d="M105.83,123.72c-.18-.44-.61-.46-1-.56q6.9-5.32,13.81-10.65c.71-.55,1.37-1.18,2.12-1.82-1.06-.48-1.84.39-2.73.23.73-1,2-.78,3.13-1.56l-2.7-.13c.22-1.19,1.2-.93,2-.92a12.21,12.21,0,0,0,3.08-.24c.46.05.95.06.89.73-5.46,5.35-11.62,9.83-17.64,14.5A4.62,4.62,0,0,1,105.83,123.72Z"/><path class="cls-1" d="M4.2,174.93l-1-.5c4.53-4.55,9.19-9,14.11-13.08.57-.32.88-.22.82.5Z"/><path class="cls-1" d="M148.53,226.55l.93-.42c.16,1.34,1.16,2.1,2.06,2.92,1.47.18,2.73,1,4.18,1.25a39.51,39.51,0,0,0,10.1,2.06c.61,0,1.3.09,1.49.89a23.19,23.19,0,0,1-7-.38c.89,1.13,2.34.39,3.09,1.37-5.64-.48-10.4-3-14.69-6.5A1.1,1.1,0,0,1,148.53,226.55Z"/><path class="cls-1" d="M71.87,180.73c-2.21,1.33-4.7.76-7.3,1,3.29,1.28,6.35.65,9.4,0a5.25,5.25,0,0,1,2.23-.46c-3.1,1.82-6.5,2-9.93,1.56-1.27-.16-1.73.15-2.07,1.31a9.28,9.28,0,0,1-1.56,3.62c-.13-.57-.63-.55-1.06-.64.44-1,.88-1.9,1.33-2.85,1-2.12,1-2.12-1.23-4.06C65.34,181.8,68.62,180.7,71.87,180.73Z"/><path class="cls-1" d="M265.8,30.39c.05.69.09,1.37.15,2.18.87-1.19.47-2.82,1.54-3.81a32.09,32.09,0,0,0-.44,14.36c.14.68.1,1.42.92,1.73a1.74,1.74,0,0,1-1.33.82A27.24,27.24,0,0,1,265.8,30.39Z"/><path class="cls-1" d="M41.37,101.63c-.47.07-1-.12-1.3.5-2.43-.83-3.13-3-3.9-5.09-.29-.79,0-1.22.83-1.33,4.29-.61,8.52-1.58,12.87-1.72-3.17,1.17-6.57,1-9.82,1.73-.75.16-1.51.26-2.27.4-.46.09-1.1,0-1,.77s.74.57,1.2.52c2.08-.25,4.15-.57,6.24-.81a6.3,6.3,0,0,1,2.7,0c-.18,1-1,.8-1.64.93-2.23.45-4.49.67-6.77,1C38.89,100.25,41.28,99.87,41.37,101.63Z"/><path class="cls-1" d="M33.06,164.34c5.38,0,9.85-1.69,14.37-3.77C45.22,163.91,37.28,166.12,33.06,164.34Z"/><path class="cls-1" d="M54.53,104.19c.16-.13.33-.37.49-.36a14.51,14.51,0,0,0,6.39-1.32,40.41,40.41,0,0,0,7.64,2.18c.75.18,1.75,0,2,1.1l-2.21.14.88.81a18.27,18.27,0,0,1-3.26-.8A22.58,22.58,0,0,0,54.53,104.19Z"/><path class="cls-1" d="M312,91.87c1.61,1.88,1.21,4.27,1.62,6.45a32.85,32.85,0,0,0-3.66,4.24c-.44.59-.8,1.36-1.76,1.2-.24-.74.7-1.08.63-1.84l-1.25.48a20.88,20.88,0,0,1,3.66-4.28,3.71,3.71,0,0,0,1.1-4.64A8.36,8.36,0,0,1,312,91.87Z"/><path class="cls-1" d="M23.63,196.09c.07.44.17.82.69.33.33-.31.6-.72,1.12-.73-2.44,3.38-5.81,5.85-8.71,8.78-.51.37-.79.29-.75-.39Z"/><path class="cls-1" d="M124.4,108.8c-.15-.35-.47-.36-.78-.39.21-1.66,1.72-2.26,2.73-3.2,1.4-1.29,2.94-2.41,3.86-4.15a1.35,1.35,0,0,1,1.72-.85c0,.77-1.24,1.29-.39,2.2A36.47,36.47,0,0,1,124.4,108.8Z"/><path class="cls-1" d="M297.19,65.62c-1.16-.57-.62.54-.86.87-.83-2.15-2.86-3.46-3.83-5.52l1.07.58c-.1-2.39-.8-4.67-.55-7a5.19,5.19,0,0,1,.58,3A9.81,9.81,0,0,0,297,64.87C297.18,65,297.14,65.36,297.19,65.62Z"/><path class="cls-1" d="M100.73,155.46a2.68,2.68,0,0,1,1.21-2.19c.14,1.24,1,.84,1.71.74,1.42-.21,2.83-.48,4.24-.72l-.81.64c1.19.5,2.3-.61,3.46-.15-2.26,1.12-4.71,1.17-7.16,1.27A4.65,4.65,0,0,0,100.73,155.46Z"/><path class="cls-1" d="M18.18,161.85c-.13-.4-.45-.49-.82-.5,1.76-1.69,3.18-3.86,6-4.12Z"/><path class="cls-1" d="M182,95.69c-.11-.22.54-.94-.41-.63-.58.19-1,.7-1.74.61a16.9,16.9,0,0,1,7.47-3.43l.27.56Z"/><path class="cls-1" d="M138.37,173.13c.92-.37.28-1.76,1.33-2-.25,1.21.55,1.24,1.34,1.08a8.9,8.9,0,0,1,3.7-.25c-.51.77-1.42.21-2.34.72,1.69.22,3.14-.23,4.53.18A23.92,23.92,0,0,1,138.37,173.13Z"/><path class="cls-1" d="M92.65,103.75c.62-.9,1.76-.76,2.56-1.28.4,1.78,2,2.94,2.44,4.68-.87,0-.3.6-.42.91a4.68,4.68,0,0,1-2.8-3.34C94.18,103.42,93.43,103.71,92.65,103.75Z"/><path class="cls-1" d="M303.52,141c-.25.3-.67-1.25-.74,0s.89,2.16.73,3.38c-1.49-2.6-2-5.59-.93-8C302.89,137.91,303.2,139.46,303.52,141Z"/><path class="cls-1" d="M103.65,150.7c0-.85-.64-.35-1-.46a18.44,18.44,0,0,1,4.51-4.52A14.19,14.19,0,0,1,103.65,150.7Z"/><path class="cls-1" d="M139.69,171.1c0-.71-.49-.61-1-.5a18.77,18.77,0,0,1,2.94-4.29c.49-.07.69.13.61.63C141,168.07,141,170,139.69,171.1Z"/><path class="cls-1" d="M30.73,150.63c-.18.53-.17,1,.55,1l-3.57,2.5c-.3.21-.59.38-.86,0s.1-.52.28-.66C28.32,152.48,29.53,151.56,30.73,150.63Z"/><path class="cls-1" d="M155.36,230.76c-1.54,0-2.47-1.34-3.84-1.71,2.39.29,4.45-1,6.69-1.37-.68,1.11-2,.86-3,1.4-.77.44.22.29.15.48C155.56,230,154.43,230.33,155.36,230.76Z"/><path class="cls-1" d="M9.22,176.58c-1.85,1.36-4,.82-6,.78-.94,0-.91-.71-.42-1.3s.68-1.07,1.4-1.14l-1,1.7C5.27,177.46,7.25,176.58,9.22,176.58Z"/><path class="cls-1" d="M16,204.08l.75.39C15.8,206,14.22,206.79,13,208a.69.69,0,0,1,0-.93C14,206.06,15,205.07,16,204.08Z"/><path class="cls-1" d="M13,207.06c0,.31,0,.62,0,.93a6.39,6.39,0,0,1-3,2.49A8.88,8.88,0,0,1,13,207.06Z"/><path class="cls-1" d="M115.44,193.84c-.06-.32,0-.69-.43-.85.18-1.17,1-1.72,2.2-2.45A5.23,5.23,0,0,1,115.44,193.84Z"/><path class="cls-1" d="M142.28,166.94l-.61-.63a4.46,4.46,0,0,1,2.64-1.88C144.22,165.87,143,166.24,142.28,166.94Z"/><path class="cls-1" d="M61.58,187.11c.59-.17,1.06-.14,1.06.64l-.87,1.52c-1.89.18.2-1.15-.53-1.41C61.18,187.53,61.2,187.23,61.58,187.11Z"/><path class="cls-1" d="M296.83,15.6c-1.45-.58-3-1-3.87-2.49A9.17,9.17,0,0,1,296.83,15.6Z"/><path class="cls-1" d="M29.52,166.35c0-.49.06-1-.51-1.3l1.24-1.92C30.72,164.57,30.51,165.55,29.52,166.35Z"/><path class="cls-1" d="M153.63,91.86a6,6,0,0,1,3.9-1.64A9,9,0,0,1,153.63,91.86Z"/><path class="cls-1" d="M301,20.28a1.64,1.64,0,0,1-.85-1.63,2.34,2.34,0,0,1,2.1,1.2C301.91,20.09,301,18.92,301,20.28Z"/><path class="cls-1" d="M151.81,91.39l2.59-1.54a80.58,80.58,0,0,0-10.17-.58c-6.84-.1-13.66.24-20.48.54-1.19,0-2.38,0-3.57,0,1.86-1,4-.74,5.9-.77,5-.08,10.08-.64,15.12-.53,3.85.09,7.7.27,11.55.41.88,0,2.13-.18,2.31.87s-1.16,1-1.83,1.43A1.68,1.68,0,0,1,151.81,91.39Z"/><path class="cls-1" d="M162.12,227.82a11.79,11.79,0,0,1-6,1.7A22.88,22.88,0,0,1,162.12,227.82Z"/><path class="cls-1" d="M306.14,106.72a7.93,7.93,0,0,1-2.12,3A4.15,4.15,0,0,1,306.14,106.72Z"/><path class="cls-1" d="M308.25,103.75a8.21,8.21,0,0,1-2.12,3A4.23,4.23,0,0,1,308.25,103.75Z"/><path class="cls-1" d="M102.81,108.79c5.22.42,10.44.39,15.67.44-.33.5-.85.42-1.33.41-4.34-.09-8.7.28-13-.37C103.65,109.2,103.13,109.29,102.81,108.79Z"/><path class="cls-1" d="M71.07,105.79a50.31,50.31,0,0,0,14.33-.9c-1.22,1.15-2.85,1-4.29,1.15C77.77,106.35,74.39,106.82,71.07,105.79Z"/><path class="cls-1" d="M96.47,100.37c.14-.64.7-.83,1.19-1s1.48-1.23,1.9-.32c.34.75-.82,1-1.53,1.26C97.47,99.58,97,100.62,96.47,100.37Z"/><path class="cls-1" d="M61.6,101.11c1.3-.71,2.82-.91,4.06-1.81-.67,1.38-1.5,2.49-3.09,2.69C63.12,100.73,61.91,101.42,61.6,101.11Z"/></g></g></svg>