<svg xmlns="http://www.w3.org/2000/svg" viewBox="0 0 385.51 176.34"><defs><style>.cls-1{fill:#204a46;}</style></defs><title>hand-tiao</title><g id="图层_2" data-name="图层 2"><g id="图层_1-2" data-name="图层 1"><path class="cls-1" d="M338.62,36.37c-11-3-22-5.91-33-8.9-18.26-5-36.46-10.15-55-13.92-11.44-2.33-23-4.14-34.34-6.93-13.94-3.44-27.5-1.13-41,1.75-15.06,3.21-29.42,8.75-43.65,14.6-15.06,6.19-29.9,12.91-44.88,19.27a6.91,6.91,0,0,1-.77.25,22.61,22.61,0,0,0-4.12,1.66h0c-.43.14-1,.41-1.21-.14s.39-.55.67-.77c.49-.4,1.25-.35,1.64-.93,13.72-6.49,27.43-13,41.45-18.78,1.06-.61.69-1-.23-1-3.21.06-6.4-.3-9.62-.15-4.84.23-9.68.21-14.52.53a1,1,0,0,1-1-.39c.66-.57,2-.45,1.92-1.93,0-.42,1-.49,1.65-.39,7.26,1.27,14.59.54,21.88.68,3.71.82,6.79-1.1,10-2.36,5.21-2.06,10.44-4.09,15.74-5.91a.83.83,0,0,0,.66-.58,135.08,135.08,0,0,0-13.52-2.23c-6.17-.64-12.36-1-18.57-1.35-5.4-.26-10.8-.49-16.18-.25-9.61.44-19.23.47-28.85,1-6.74.39-13.48,1-20.24,1-1.36-.11-2.74.08-4.09-.16-.38-.06-.86-.2-.82-.7s.53-.34.78-.54C59.76,7.1,70.29,6.71,80.79,6.1c11.88-.68,23.77-1.17,35.67-.87,11.23.28,22.49.88,33.26,4.2A20.64,20.64,0,0,0,163.28,9c15-5.09,30.52-6.66,46.28-6.37,4.1.07,7.81,1.71,11.66,2.87a64.59,64.59,0,0,0,8.46,1.53,503.1,503.1,0,0,1,54.86,11.87c18,5,36,9.9,53.67,15.8,1,.34,2,.8,3,1.21.26.19.78.15.8.48,0,.57-.48.52-.86.49C340.26,36.84,339.48,36.44,338.62,36.37Z"/><path class="cls-1" d="M169.65,154.9c11.19,1.86,22.37.71,33.54-.16a334,334,0,0,1,47.13-.73c2.66.17,5.34.2,8,.52,3.55.43,6.59-.74,9.49-2.54,8.14-5,16.13-10.3,24.81-14.38,7.27-3.42,15-5.43,22.63-7.87a86.59,86.59,0,0,0,11.15-4,18.53,18.53,0,0,0,3.36-1.53c6.35-3.89,12.28-8.28,17.06-14.07,1.09-.76,1.2-.75,1.43.22a26.34,26.34,0,0,1-6.6,7.65,67.64,67.64,0,0,1-9,7,10,10,0,0,1-2.07,1.26,58.42,58.42,0,0,1-15.26,5.87c-15.79,4-29.9,11.49-43.6,20a31.83,31.83,0,0,1-19.86,4.73c-15-1.24-30.06-.92-45.09-.11-10.93.59-21.86,1.21-32.79.23a18.05,18.05,0,0,1-7.25-2c-.09-.74.46-.78.88-.64C168.26,154.57,169,154.66,169.65,154.9Z"/><path class="cls-1" d="M107.55,110.24a56.47,56.47,0,0,1-.12-30.11,63.35,63.35,0,0,1,3-9.94,137.14,137.14,0,0,1,14.6-25.65A72.73,72.73,0,0,1,144.53,26a50.53,50.53,0,0,1,33.31-7.64c3.92.43,8-.16,11.65,1.87-.15.59-.71.4-1.13.36-5.11-.5-10.24-.45-15.36-.61-13-.38-24,4.52-33.73,12.74-11.29,9.57-18.83,21.89-25,35.14-1.65,3.52-3.11,7.14-4.5,10.78-2.79,7.23-2.5,14.74-1.88,22.27.06.74.15,1.49.22,2.24-.14,1.2.87,1.89,1.29,2.84a2.38,2.38,0,0,1-.24.57,4.11,4.11,0,0,0-.52,2.7C108.64,109.93,108.63,110.67,107.55,110.24Z"/><path class="cls-1" d="M211.47,107.27c1.49-5.38,4.73-9.57,9.24-13.23-2.68-.66-5.12-1.12-7.47-1.87-9.69-3.06-16.43-9.75-21.76-18.06a56.89,56.89,0,0,1-8.06-18.27c-.33-1.5-.75-1.28-1.79-.48C172,62.77,161.48,65,149.89,60.58c-.25-.36-.72-.27-1-.51s-.74-.26-.55-.65.73-.39,1.14-.11c9.86,2.81,19.23,1.83,28-3.69.92-.58,1.85-1.14,2.78-1.7,1.36-.28,1.9-1.91,3.35-2a65.25,65.25,0,0,0,6.17,15.56c8,13.9,18.67,23.82,35.76,24.39A35.11,35.11,0,0,1,235,93.05a22.63,22.63,0,0,1-9,1.15,6.35,6.35,0,0,0-4.53,1.47c-4.21,3.25-6.77,7.61-8.66,12.46-.34.43-.36,1-.71,1.44a.68.68,0,0,1-.41.24C210.74,109,211.34,108.13,211.47,107.27Z"/><path class="cls-1" d="M329.67,28.07c7.29-9.33,15.73-17.38,26-23.33A34.21,34.21,0,0,1,369.19.17c10-1.11,15.2,3.36,16,13.39s-.4,20.21-1.68,30.24c-1.06,8.27-2.24,16.52-3.43,24.77a52,52,0,0,1-1.39,6.19,67.27,67.27,0,0,1,.47-13.23c1.3-11.54,3.32-23,4.17-34.59a67.87,67.87,0,0,0-.18-14.53A19.23,19.23,0,0,0,382.13,8a8.66,8.66,0,0,0-7.6-6c-6.38-.64-12.19,1.25-17.66,4.28-9.25,5.12-16.86,12.27-24,20-.46.49-1,1-1.44,1.44-.45.28-.63.87-1.12,1.06C329.52,29.12,329.38,28.75,329.67,28.07Z"/><path class="cls-1" d="M105.57,56.81C100.9,63.33,94.76,68.19,88,72.33a155.75,155.75,0,0,1-16.56,9,9.67,9.67,0,0,1-6.56,1c-1.17-.3-1.53.48-2.09,1.17a54.39,54.39,0,0,1-21,16.31,3.75,3.75,0,0,1-.6.12,24.22,24.22,0,0,1-8,1.37c-.49,0-1.26.23-1.25-.6s.77-.61,1.27-.59a10.21,10.21,0,0,0,4.17-.63C48.73,95.93,56.7,87.89,64.54,79.26c0,1.4.8,1.36,1.64,1.34a13.06,13.06,0,0,0,5.59-1.87c10.7-5.55,21-11.63,29.93-19.92,1-.88,2-1.61,3.06-2.4.18-.28.43-.55.76-.38S105.83,56.53,105.57,56.81Z"/><path class="cls-1" d="M364.65,44.12c-.42,5.11-1.58,10.11-2.34,15.18a3.79,3.79,0,0,0,.42,2.73c3.83,6.43,5.42,13.52,6,20.89,1,12.75-1.22,25.21-3.27,37.7a308.63,308.63,0,0,0-4.19,36.65c0,.09-.11.19-.18.29-.79-.34-.49-1.05-.53-1.61-.57-7.82.33-15.57,1.27-23.31,1.42-11.67,4.06-23.17,5.06-34.9,1-11.16.44-22.14-3.86-32.68-.21-.5-.43-1-.66-1.5-.05-.11-.19-.18-.48-.44l-1.37,7.77c-.95-1-.69-2.17-.53-3.28.74-5.39,1.61-10.75,2.53-16.11a50.79,50.79,0,0,1,1-6C363.73,44.9,363.63,44.06,364.65,44.12Z"/><path class="cls-1" d="M364.65,44.12c-1.32,2.67-1.19,5.63-1.7,8.46-.88,4.93-1.63,9.89-2.37,14.84a25.08,25.08,0,0,0-.05,3.47c-.52,5-1.1,10-1.53,15.07-.8,9.45-1.51,18.91-2.27,28.37-.07.81-.21,1.62-.32,2.43-.66.85.19,2-.81,2.85a116.43,116.43,0,0,1-.08-14v-6l-7.29,10.69c-.36-.84-.94-.26-1.43-.22a52.26,52.26,0,0,1,6.24-8.58,13.41,13.41,0,0,0,3.28-8.35c.61-11.27,2.25-22.44,4-33.59,1.07-6.95,2.65-13.81,3.58-20.79a37,37,0,0,0-.16-9.8c.1-1-.92-1.91-.34-3,1,.23.78,1.19,1.25,1.67C366.43,33.16,365.68,38.64,364.65,44.12Z"/><path class="cls-1" d="M27.66,101.68c-2.74,2.39-5.73,4-9.54,4.11-3,.06-5.18-2-7.82-2.81-.7-.22-.09-1.37.32-1.86a25,25,0,0,1,2.5-2.43C27.5,85.56,41.8,72.34,55.75,58.76a8.46,8.46,0,0,1,1-.72c1.09-.38,1.24,0,.61.82-.75,1-1.74,1.7-2.57,2.6-6,6.21-12.2,12.12-18.52,18-8.12,7.5-16.3,14.93-24.57,22.49,3.67,2.37,7.42,3.07,11.19.74A45,45,0,0,0,40.54,82.8c.47-1,.68-2.13,1.17-3.17a6.82,6.82,0,0,1-.14,4.48A36.2,36.2,0,0,1,30.19,99.56C29.91,100.94,28.26,100.68,27.66,101.68Z"/><path class="cls-1" d="M177.38,127.43c1.23,2.36,2.22,4.74.75,7.9-1.11-9.84-7.64-14.09-15.54-16.74-8.34-2.81-15.39-.3-21.67,6.57,6.47-.39,11.65,1.24,14.41,7.12a19.75,19.75,0,0,1,1.37,13.05,19.47,19.47,0,0,1-1.31-5.55,21.91,21.91,0,0,0-1.68-6.52c-2.67-5.53-9.32-7.61-15.18-5.56a34.5,34.5,0,0,0-7.17,2.93c-.84.53-1.65,1.12-2.47,1.69-.74.36-.57,1.36-1.23,1.78-.56-.09-.93-.31-.74-1,0-1.14.92-1.64,1.59-2.22a21.34,21.34,0,0,1,8.54-4.91,5,5,0,0,0,2.65-1.72c4.63-5.22,10.14-8.72,17.44-8.29a26.29,26.29,0,0,1,15.79,6.43C174.44,124.07,176.51,125.22,177.38,127.43Z"/><path class="cls-1" d="M109.68,106.08a33.88,33.88,0,0,1,8.67,21.6c0,.84-.37,2.1.44,2.43,1,.41,2.12-.23,3-.88a33.35,33.35,0,0,0,7.2-6.93c3.38-4.53,6.37-9.24,6.09-15.26a25.89,25.89,0,0,0-2.7-9.38,16.54,16.54,0,0,1-.58-1.72,9.19,9.19,0,0,1-.53-1.87c0-1,.44-1,1-.32,1.25,2.65,2.63,5.25,3.74,8a17.05,17.05,0,0,1-.1,13.75,34.93,34.93,0,0,1-15.53,17.33c-2.31.39-2.32.39-2.31,2.84a16.46,16.46,0,0,1-1.24,6.73c-.16.38-.44.79-.89.64s-.37-.52-.16-.85v0a17.13,17.13,0,0,0,.92-6c.21-5.14.64-10.31-.88-15.36a44.86,44.86,0,0,0-6.17-13.11c-.23-.54-1-.95-.39-1.67l0,0C109.4,105.89,109.54,105.89,109.68,106.08Z"/><path class="cls-1" d="M333,131.54a70.89,70.89,0,0,0,4.57,9.94c5.8,10.43,12.92,19.74,22.82,26.68a49,49,0,0,0,11.06,5.72c1.7.63,3.53.22,5.29.4.39,0,.91-.12,1.08.35s-.35.82-.76,1a8,8,0,0,1-5.78.29c-6.88-1.69-12.58-5.46-17.68-10.17a77.13,77.13,0,0,1-20.66-31.29C333,133.5,331.42,132.49,333,131.54Z"/><path class="cls-1" d="M81.37,27.68a77,77,0,0,1-13.46,6.9C48.81,42.81,29.7,51,11.28,60.75a3.83,3.83,0,0,1-.75.23c-.33.12-.71.24-.92-.08s.06-.61.33-.83c9.28-5.18,18.73-10,28.43-14.38,9.36-4.2,18.86-8.12,28.23-12.3,3.41-1.52,6.81-3,10.23-4.49a16.22,16.22,0,0,0,3.31-1.58.23.23,0,0,1,.3-.11C80.92,27,81.37,26.92,81.37,27.68Z"/><path class="cls-1" d="M49.35,8.83c0,.27-1.06.73.13.78,1.36.05,2.72.05,4.08.07-.28,1-1.14.88-1.84.89-1.71,0-3.37.41-5.41.52a19.66,19.66,0,0,0,8.74,2.44c3.06.09,6.13.12,9.2,0,.69,0,1.69-.49,1.9.53.17.82-.7,1.22-1.37,1.58a7.75,7.75,0,0,1-.94.39c-.35.19-1.07.29-.2.8a5.72,5.72,0,0,0,1.09.42c8.69,3.49,17.51,2.8,26.37.86a18.22,18.22,0,0,1,4-.77c.53.05,1.25,0,1.38.61.18.84-.6,1.23-1.18,1.66a7.28,7.28,0,0,0-2.82.21c-7.55,1.81-15.16,3-22.9,1.28a17.73,17.73,0,0,1-8.22-3.93,3.13,3.13,0,0,0-2.43-.82,27.13,27.13,0,0,1-16.6-4.82c-.46-.31-.76-.61-.69-1.12.11-.72.64-.41,1.11-.42C45,9.88,47.08,8.76,49.35,8.83Z"/><path class="cls-1" d="M126.92,133.14a1.23,1.23,0,0,0,.89.82,2.56,2.56,0,0,1,2.05,0c6,1.69,11.38,4.9,16.78,7.94a44.77,44.77,0,0,1,9.68,6.82,2.79,2.79,0,0,1,1,3.06,141.38,141.38,0,0,0-23.3-14.34c-3.59-1.83-3.55-1.81-5.38,1.72-1.42,2.74-3,5.4-6.26,6.33a11.69,11.69,0,0,1-4.13.09c.12-1,1-.47,1.25-.93,5.07-.71,6.7-4.75,8.46-8.68.28-.64.08-1-.67-1.11a3.13,3.13,0,0,1-1.83-.64Z"/><path class="cls-1" d="M9.94,60.07c-.28.61-.09.92.59.91-2.62,1.72-5.62,2.67-8.44,4.17,6.16,3.64,16.84,1,25.37-6.34-1,3.42-4,4.78-6.63,6.91,7.33,1,13.77-1.12,20.47-3.33a6.12,6.12,0,0,1-3,2.22,31.07,31.07,0,0,1-18.22,2.26,5.7,5.7,0,0,0-3.17.42,20.57,20.57,0,0,1-11.49.89,11.79,11.79,0,0,1-4.17-1.63C.72,66.23.06,66,0,65.27c-.07-.87.81-.8,1.3-1C4.16,62.81,7.06,61.45,9.94,60.07Z"/><path class="cls-1" d="M211.47,107.27v2.42l1.27-1.56c-.4,1.65-.7,3.33-1.22,4.94s-.26,2.22,1.56,2.26a31.41,31.41,0,0,1,11.22,2,4.37,4.37,0,0,1,2.7,2c-13.73-3.19-27-3.69-39,5.2-.53.31-.87.27-.81-.46,3.91-4,8.8-6.24,14.13-7.62a34.33,34.33,0,0,1,7.68-1.13c1,0,1.61-.11,1.35-1.5A10.82,10.82,0,0,1,211.47,107.27Z"/><path class="cls-1" d="M132.3,93.75c-.56-.19-1-.19-.73.6a3,3,0,0,1,.24,1.59c-1.43-2-.76-4.15-.24-6.35-1.27-.28-2.1.71-3.26.68,2.73-1.52,4.3-4.1,6.14-6.42a36.16,36.16,0,0,0,5-8,21.7,21.7,0,0,0,1.61-9c0-3-1-6-1-9,2.27,5.43,3.75,11,2,16.86a26.2,26.2,0,0,1-7.27,11.93A7.39,7.39,0,0,0,132.3,93.75Z"/><path class="cls-1" d="M119.54,144.64l-1.16.84h4c-2.66,1.24-5.14-.29-7.71-.51-.17,0-.4-.54-.43-.84C113.44,137,112,130,110.5,122.92a3.65,3.65,0,0,1,0-.81,1.16,1.16,0,0,1-.17-.77c0-.31-.11-.76.3-.85.61-.14.42.53.65.79,1.21,4.54,2.48,9.05,3.26,13.69.4,2.39.85,4.78,1.28,7.17.41,1.12.7.39.91-.09a16.3,16.3,0,0,0,1.13-7c-.07-1.92.69-2.65,2.56-2.27-1.59.37-2.06,1.33-2.11,3-.07,2.87-.11,5.84-2.24,8.23C117.12,145,118.44,144.23,119.54,144.64Z"/><path class="cls-1" d="M95.31,19.57c.14-.36.18-.83.43-1.07,1.28-1.17-.53-.31-.43-.67.17-1.08,1-.75,1.62-.71a1.34,1.34,0,0,1,1,.9c-.16,1.31.9,1.17,1.63,1.26,5.2.63,10.36,1.54,15.64,1.26,2.38-.12,4.77-.06,7.15,0,.82,0,1.84-.21,2.21.94-5.73,0-11.47.27-17.18,0a41.75,41.75,0,0,1-6.34-.85c.39.66,1.23.26,1.42,1.07-.82.68-1.94.57-2.93.86,8.77-.21,17.53-1,26.43-.1-.38.94-.87,1.14-1.54,1,.45-1.42-.79-.81-1.17-.83a169.81,169.81,0,0,0-17.62.22c-4.88.34-9.76.66-14.65,1l-.1-.59,9.54-1.63C98.53,20.71,96.63,20.78,95.31,19.57Z"/><path class="cls-1" d="M187.22,124.06l.81.46c-1.57,1-.06,2.52-.58,3.67-.79.18-1-.48-1.28-.85-2-2.45-4.69-2.44-7.46-2-1.13.18-1.48,1-1.33,2.1l-4.45-5c2.41,1.4,3.72,1.63,6.79,1.19a8,8,0,0,1,5.53.75C186.13,124.92,186.62,124.5,187.22,124.06Z"/><path class="cls-1" d="M54.74,61.46c.4-1.15,1.45-1.72,2.21-2.55.46-.51.46-.76-.25-.87,2.53-2.67,5.69-4.53,8.65-6.63.38.18.63.44.42.9C61.89,55.11,58.4,58.39,54.74,61.46Z"/><path class="cls-1" d="M364.61,27.68l-1.19-1.43c0,1.06.64,1.87.28,2.78-.93-1.92-1.4-4-2.79-5.75a7,7,0,0,0-3-2.43c-.06-.71-1.38.06-1.17-1a6.21,6.21,0,0,1,5.52,3A11.44,11.44,0,0,1,364.61,27.68Z"/><path class="cls-1" d="M65.77,52.31l-.42-.9.36-.4c1-.81,2.17-1.31,2.81-2.47l6.29-2.38c.38.27,1-.09,1.27.44a1.74,1.74,0,0,1-.15.13c-2.82,1.39-6.08,1.94-8.19,4.63A2.74,2.74,0,0,1,65.77,52.31Z"/><path class="cls-1" d="M27.66,101.68c.39-1.24,1.87-1.19,2.53-2.12,1.8.84,3.65.23,5.48.15.6,0,1.19-.13,1.78-.19-1.49,1.21-3.37.64-5,1.17,2,.83,3.93.07,5.88-.16,1-.11,1.88-.73,2.93-.56A16.24,16.24,0,0,1,31,101.28C29.8,101.1,28.68,100.91,27.66,101.68Z"/><path class="cls-1" d="M115.85,120.85a8.57,8.57,0,0,1,1.2,4.86c.06,4.68.36,9.38-.37,14a3.91,3.91,0,0,1-.87,2.42c.26-2.77.59-5.53.76-8.3A61.13,61.13,0,0,0,115.85,120.85Z"/><path class="cls-1" d="M355.52,105.63v13.68c.75-.87.05-2,.89-2.55-.16,2.84-.33,5.68-.49,8.51C355.12,118.73,354.58,112.19,355.52,105.63Z"/><path class="cls-1" d="M333,131.54c-.91,1,.4,2-.06,2.94-1.22-2.11-1.25-4.48-1.52-6.8-.07-.6.29-1.43-.83-1.42a2.85,2.85,0,0,1,2.07-1.26C332,127.22,332.92,129.36,333,131.54Z"/><path class="cls-1" d="M76.08,46.6c-.41-.19-1,.1-1.27-.44l8.12-3.85c-.27,1-1.56.82-2.06,1.64l1,.2C80.08,45.36,77.94,45.65,76.08,46.6Z"/><path class="cls-1" d="M169.65,154.9c-1,.56-2-1-3,.09-2.31-.63-4.09-2.12-6.08-3.28l.3-.6Z"/><path class="cls-1" d="M356.77,19.87c.19.56,1.11.26,1.17,1-2.9-.19-4.66,1.79-6.57,3.47-.67,0-.59-.34-.35-.75C352.67,21.92,354.15,20,356.77,19.87Z"/><path class="cls-1" d="M338.62,36.37c.88-.33,1.66.28,2.49.26,1.23,0-.15-.48.07-.7,2.08.17,3.74,1.45,5.65,2.08-.34.94-.94.57-1.52.31C343.14,37.47,340.72,37.48,338.62,36.37Z"/><path class="cls-1" d="M149.46,59.31l-.79.14c.16.16.32.32.49.47l.73.66a14.89,14.89,0,0,1-6.19-3.38l.23-.46Z"/><path class="cls-1" d="M81.37,27.68c-.19-.39-.61-.34-.93-.47,1.52-1.24,3.41-1.65,5.17-2.4C84.35,26,83.14,27.29,81.37,27.68Z"/><path class="cls-1" d="M109.29,106.07l.39,1.67c-.81-.62-.86-.06-.87.56v4.16a2.89,2.89,0,0,1-1.26-2.22c1.27-.34.66-1.38.79-2.13S108,106.29,109.29,106.07Z"/><path class="cls-1" d="M183.59,51.89c-1.16.6-1.8,2.06-3.35,2,1-1,2.84-1.56,1.89-3.61,0-.11.23-.5.43-.57s.5.12.58.41C183.3,50.72,183.44,51.31,183.59,51.89Z"/><path class="cls-1" d="M111.27,121.28c-1.63-1,0,1-.78.83-.49-1.65-1.13-3.28-.65-5.41A11.54,11.54,0,0,1,111.27,121.28Z"/><path class="cls-1" d="M105.57,56.81c.05-.78-.47-.42-.81-.4a5.64,5.64,0,0,1,2.45-3C106.84,54.93,106.75,56.12,105.57,56.81Z"/><path class="cls-1" d="M329.67,28.07c.88,1.49,1.07-.8,1.76-.33-.1.83-.82,1.21-1.32,1.72s-.54,1.6-1.39.95c-.65-.51.08-1.21.41-1.77A3.62,3.62,0,0,1,329.67,28.07Z"/><path class="cls-1" d="M81.81,44.15a6.07,6.07,0,0,1,4.12-1.66A10.3,10.3,0,0,1,81.81,44.15Z"/><path class="cls-1" d="M329.74,124.21a4.84,4.84,0,0,1-3.36,1.53A7.63,7.63,0,0,1,329.74,124.21Z"/><path class="cls-1" d="M80.14,27.32a4.17,4.17,0,0,1-3.31,1.58A9.37,9.37,0,0,1,80.14,27.32Z"/><path class="cls-1" d="M129.86,134h-2.05c-.2-.92.12-1.49,1.08-1.64C127.9,133.64,129.46,133.45,129.86,134Z"/><path class="cls-1" d="M109.68,106.08h-.41c-.57-.92-1.74-1.61-1.15-3C108.28,104.29,109.41,105,109.68,106.08Z"/><path class="cls-1" d="M63.23,15.7c-.51,1,.86,1.05.85,1.78-.48-.23-1-.43-1.42-.69-.29-.16-.65-.43-.49-.76S62.82,15.66,63.23,15.7Z"/><path class="cls-1" d="M97,17.4l3.5-1.17a4.68,4.68,0,0,1-2.62,1.64Z"/></g></g></svg>