<svg xmlns="http://www.w3.org/2000/svg" viewBox="0 0 358.18 208.2"><defs><style>.cls-1{fill:#204a46;}</style></defs><title>hand_ti</title><g id="图层_2" data-name="图层 2"><g id="图层_1-2" data-name="图层 1"><path class="cls-1" d="M31.18,53.47a11.58,11.58,0,0,1-7.5-5.26,32.68,32.68,0,0,1-3.1-6c-.6-1.39,0-2,1.27-2,1.7,0,3.41.07,5.12.13,17.56.69,35.13-.14,52.69.05,18,.21,36.09.52,54.11,1.55.81.05,1.61.15,2.51.24a4.83,4.83,0,0,1-4.78,2.08q-17.62-.84-35.25-1c-15.79-.18-31.58-.27-47.37-.48a238.85,238.85,0,0,1-26.2-1.36,7.29,7.29,0,0,0-.81,0A13.87,13.87,0,0,0,38.2,51.36c3.82-.8,7.24-2.68,11-3.67-1.87,3.24-5.14,4.37-8.47,5.41A20.92,20.92,0,0,1,31.18,53.47Z"/><path class="cls-1" d="M321.29,23.53a1.05,1.05,0,0,1,0-1.23c1.17-.26,2.21-.95,3.44-1,1-.07,1-1,1.31-1.63,2.56-5.7,5.61-11.11,10.13-15.5,6.13-6,13.7-5.43,19,1.22A5.51,5.51,0,0,1,356.6,9c-2-1-3.16-2.83-4.76-4.13-4.37-3.57-8.9-3.74-13.19-.15-4.87,4.07-7.76,9.63-10.86,15-.79,1.36.55,1,1.15,1a25.87,25.87,0,0,1,14,3.24c4.25,2.49,7.49,5.88,8.95,10.73a5.29,5.29,0,0,1-.12,3.25c-2.76-7.21-7.47-12-14.52-14.43A27.39,27.39,0,0,0,321.29,23.53Z"/><path class="cls-1" d="M66.92,64.91c-8.12.94-15.58-.67-22.17-5.7-.3-.38-1.16-.65-.71-1.22s1.05.17,1.58.35c8.14,5,16.91,5.51,26,3.68a77.19,77.19,0,0,1,9.27-1.51,2.34,2.34,0,0,1-1.62,1.58C75.39,64,71.1,64.19,66.92,64.91Z"/><path class="cls-1" d="M311.81,46.89c-1,.5-.61,1.42-.66,2.18-.25,4,.08,8.13-.54,12.16a192.59,192.59,0,0,1,.4-19.37,54.88,54.88,0,0,1,1-7.78l.64.06Q312.24,40.52,311.81,46.89Z"/><path class="cls-1" d="M323.71,51.4c-.74,1.4.18,2.74.15,4.13-.11,5.91,0,11.82-.07,17.73,0,2,.64,4,.28,6.08-.95-3.39-.82-6.87-.85-10.33,0-4.08.1-8.16.13-12.25a20.06,20.06,0,0,0-.79-5.64c-.33-1.18-.95-1.57-2.09-1.18-.45,0-.65-.21-.5-.67C322.38,48.4,323.17,48.85,323.71,51.4Z"/><path class="cls-1" d="M45.62,58.34c-.51.26-.95-.6-1.38-.1-.09.1.33.63.51,1-2-1.24-3.93-2.61-4.88-4.89-.37-.89-1-.5-1.49-.45-2.42.26-4.85.61-7.2-.4a67,67,0,0,0,9.6-.37c-1,.91-.09,1.51.47,2C42.65,56.22,44.16,57.25,45.62,58.34Z"/><path class="cls-1" d="M321.29,23.53a21.67,21.67,0,0,1,15.94,0c-3.93-.62-7.84-1.57-11.85-.73l-.41.06c-3.42.57-3.42.57-2.55,3.92a4.15,4.15,0,0,1,.07.79A5.52,5.52,0,0,1,321.29,23.53Z"/><path class="cls-1" d="M66.92,64.91a9.83,9.83,0,0,1,4.86-1c2.68-.08,4.91-1.69,7.52-1.86a4.14,4.14,0,0,1-2.19.94c-1.26.25-.8.86-.43,1.51-.35.08-.7.15-.3.61s.82.53.73,1.12c-2-2.5-4.45-2.43-7.19-1.6A6.45,6.45,0,0,1,66.92,64.91Z"/><path class="cls-1" d="M340.88,40.75a1.1,1.1,0,0,1,.72.93A31.2,31.2,0,0,1,342,54.19c-.14.76-.22,1.67-1.11,2.07C342.45,51.09,342,45.92,340.88,40.75Z"/><path class="cls-1" d="M145.28,58.78c.5-.7,1.49-.52,2.12-1.13-1.36-.28-2.56.69-3.85.25a19.15,19.15,0,0,1,9.28-.86Z"/><path class="cls-1" d="M288.82,18.11c.1.52.16.95.82.37.95-.81,1.53-2.06,2.86-2.42-1.63,2.33-4.18,3.83-5.56,6.52C286.35,20.87,286.7,20.09,288.82,18.11Z"/><path class="cls-1" d="M312.22,67.39c-.63-2.26-.36-4.58-.39-6.87a92.34,92.34,0,0,1,0-10.39c.57,3.09.3,6.22.38,9.33C312.3,62.1,312.23,64.75,312.22,67.39Z"/><path class="cls-1" d="M6.14,127.18l.45.9a29.35,29.35,0,0,1-5.73,6.15l.05,0C2.23,131.59,4.34,129.51,6.14,127.18Z"/><path class="cls-1" d="M340.51,39.53c-.95-1.8-1.2-3.88-2.48-5.57A5.37,5.37,0,0,1,341,37.84C340.68,38.37,341.18,39.11,340.51,39.53Z"/><path class="cls-1" d="M340.51,39.53c.3-.52-.41-1.32.45-1.69a19.68,19.68,0,0,1,2.52,7c-1-1.08-.89-2.63-1.62-3.82-.29-.46-.15-1.52-1.25-1.08A.42.42,0,0,1,340.51,39.53Z"/><path class="cls-1" d="M320,49.27l.5.67c-1.06,1.13-2.11,2.26-3.17,3.38l-.51-.42A9.79,9.79,0,0,1,320,49.27Z"/><path class="cls-1" d="M8.64,126a16.42,16.42,0,0,1,4.63-4.8A19,19,0,0,1,8.64,126Z"/><path class="cls-1" d="M6.59,128.08c.69-.7,1.37-1.41,2.05-2.11,1.45-1.69,3.14-3.15,4.63-4.8,2-2,4.06-4,6-6.15A129.88,129.88,0,0,1,66.84,82.83a390.79,390.79,0,0,1,59-18.44,199.62,199.62,0,0,0,19.44-5.61c.78-.45,1.84-.24,2.59-1.13-1.56-.82-2.92.27-4.32.25-10.11,2.58-20.16,5.4-30.69,7.43a11.46,11.46,0,0,1,2.84-2.79c3.87-3.14,8-6,11.6-9.43,7.23-6.86,16.17-10,25.51-12.23,26.8-6.3,53.54-12.81,80.51-18.32,4.88-1,9.72-2.4,14.72-2.56a98.83,98.83,0,0,1,22.25,1.65c4.75,1,9.48,2,14.24,2.93a8.88,8.88,0,0,0,4.9.07c-1-.34-1.63-.58-2.26-.77A127.9,127.9,0,0,0,263.31,19a119.22,119.22,0,0,0-27.81.35c-5.07.65-10.07,1.87-15.07,3C197,27.52,173.68,33,150.57,39.39c-5.78,1.6-11.87,2.92-16.74,6.48-8.13,6-16.22,12-23.11,19.5a3.31,3.31,0,0,1-1.52,1,51.67,51.67,0,0,1-18.56,2.57c-5-.34-9.77-1.45-14-4.39-.7-.38-.89-.12-.64.55.19.52.82.68,1.07,1.18C81,69.63,85.71,71,90.92,71.14a3.54,3.54,0,0,1-2.08,1.15q-9.7,3.24-19.2,7C57.83,84,46.33,89.35,36.13,97.11a169,169,0,0,0-30,30.07C6,127.64,5.86,128.07,6.59,128.08Z"/><path class="cls-1" d="M305.12,136.31a1.33,1.33,0,0,1,1.34-1.26c4.56-3.62,4.29-8.84,3.05-13.33-1.75-6.33-3.52-12.62-4.3-19.12a199.63,199.63,0,0,1,1.06-53.71C308,37.64,311,26.5,309.16,15c-.13-.89.33-1,1.08-1a10.09,10.09,0,0,1,8.39,6.48c.3,1,.56,2,.81,3,2.46,9.62,5.45,19,10.85,27.49,1.73,2.71,3.49,5.42,6.2,7.28,3.44,2.37,6.49,1.21,7.38-2.87a20.25,20.25,0,0,0-.39-10.53c-.64-1.51-.87-3.17-1.69-4.62-.26-.47-.52-1.35-1.18-.28-.09.34-.14.67.27.85,1.49,3,1.17,6.3,1.21,9.49,0,2,0,4.19-1.22,6-1.18.92-2.2.32-3.17-.36a19.39,19.39,0,0,1-4.47-5c-5-7.12-8-15.13-10.74-23.31a9,9,0,0,1-.95-3.74,2.45,2.45,0,0,0-.28-1.55,4.57,4.57,0,0,1-.53-1.06c-1.25-5.91-5.46-8.09-10.93-8.57-1.05-.09-1.33-.66-1.71-1.42a4.39,4.39,0,0,0-5.17-2.66A14.76,14.76,0,0,0,299,9.83c-4.11,1.9-7.29,4.93-10.22,8.28-.36,1.12.07,1.24.85.61,1-.82,1.81-1.86,2.83-2.66s1.73-1.55,2.66-2.24c2.48-1.84,5.07-3.51,8.25-3.83,2.13-.21,3.11.64,3.71,2.66A30.63,30.63,0,0,1,308,19.1a2.65,2.65,0,0,1-1.59,2.76,13.91,13.91,0,0,1-7.1,1.59c-1,0-2.1-.33-3.24.9,3.52.41,6.65,1,9.77-.38,2.13-.94,2.13-.89,2,1.53a67.88,67.88,0,0,1-1.4,9.73,208.25,208.25,0,0,0-4.57,61.48c.08,1.06-.32,1.46-1.26,1.69-1.73.41-3.43.91-5.14,1.37-1.58,1.34-3.58,1-5.39,1.21-3.09.33-6.21.34-9.32.49-.47,0-1,0-1.3.4a13.49,13.49,0,0,0,4,.47c.78,0,1.38.16,1.2,1.15-.69,3.73,0,7.37.95,10.93,1.9,7.27,4.74,14.12,10.37,19.4,3.2,3,7.13,3.64,11.35,2.9l0-.41Zm-5.51-3a14.31,14.31,0,0,1-5-4.77A49.44,49.44,0,0,1,285.55,105c-.25-2.48-.17-2.49,2.41-2.49h1.85a40.44,40.44,0,0,0,10.49-1.66c1.39-.39,1.93-.14,2.12,1.37a62.18,62.18,0,0,0,5,18.89,11.68,11.68,0,0,1-.31,9.78C305.69,134,302.7,134.94,299.61,133.35Z"/><path class="cls-1" d="M136.15,190.49c.94.24,1.76,1.68,2.67.88s.25-2.06.31-3.13c0-.82-.64-1.53-.37-2.38a22.08,22.08,0,0,0-3-5.54c-6.26-9.44-20.75-5.86-25.22.56-.49.7-.32.93.52.94,1.37,0,2.73.11,4.09.14.89,0,1.41.38,1.46,1.32.43,6.83.22,13.54-3.33,19.69-.28.49-.42,1.18-1.25,1.15-.5-2.63-.87-5.25-1.5-7.82-1.53-6.28-3.84-12.18-7.91-17.38-1.13-1.45-2.08-1.89-3.61-1.67a36.49,36.49,0,0,0-5.83,1.05c-1.82.59-2.35-.14-2.9-1.65a122.9,122.9,0,0,1-6.43-26,113.61,113.61,0,0,1,.42-35.45,55.59,55.59,0,0,1,4.88-14.5c-.73-.24,1.37-1.63-.56-1.38-2.73,3.92-4.27,8.36-5.57,12.89-1.35,4.75-1.31,4.81-6.32,5.14-3.25.22-6.52.28-9.78.42.11,1,.84.82,1.5.88s1.62-.32,2.23.47a28.89,28.89,0,0,0,9.37-.07c1.18-.18,1.47.18,1.29,1.28a106.56,106.56,0,0,0-.37,29.2c1.6,13.54,5,26.56,11.44,38.67a71,71,0,0,0,8.78,13,25.86,25.86,0,0,0,7.28,6.22c1.14.61,2.62,1.22,3.59.1a22.31,22.31,0,0,0,4.44-7,34,34,0,0,0,1.43-16.36c-.23-1.7.14-1.93,1.76-1.52,5.93,1.49,11.08,4.53,16.11,7.84A1.8,1.8,0,0,1,136.15,190.49ZM94.94,187c-1-1.86-1.81-3.82-2.76-5.7-.52-1-.57-1.59.83-1.69,2-.15,4.08-.41,6.1-.68a2.52,2.52,0,0,1,2.67,1.39c4.07,6.24,6.08,13.22,7.37,20.46.32,1.8.53,3.62.79,5.43C103.39,200.79,98.8,194.15,94.94,187Zm18-6.78c9.58-7.37,20.8-3.54,24.6,8.6C129.88,183.73,122.23,179.6,113,180.18Z"/><path class="cls-1" d="M200.6,118.2a.86.86,0,0,0,0-1.15c-4.36-1.44-8.91-2-13.39-2.91-10.69-2.21-21.12-5.18-30.14-11.64-6.52-4.68-12.29-10-13.06-18.75,0-.42-.15-.84-.69-.82s-.7.43-.75.84a9.25,9.25,0,0,0,.48,4.64c.52,1.38,0,2-1.16,2.53a75.91,75.91,0,0,1-13.74,5.26A82.5,82.5,0,0,0,118,99.68a50.36,50.36,0,0,0,8.14-1.32c1.1-.31,1.58,0,1.26,1.18a12.87,12.87,0,0,1-1.23,3.24,40,40,0,0,1-12.53,13c-.19.34-.37.69-.6,1.1,1.76-.07,2.71-1.86,4.42-1.85a31.66,31.66,0,0,0,10.39-12.13,4.5,4.5,0,0,0,.53-3.37c-.43-1.37.19-1.78,1.35-2.12a58.68,58.68,0,0,0,13.07-5.31c1.11-.64,1.46-.25,2,.69a38.28,38.28,0,0,0,12,12.92A69.91,69.91,0,0,0,180,115.75a4.19,4.19,0,0,1,2.79,2c2.79,4.43,5.52,8.95,10.08,12.13l-1.83,1.66c-2.65,2.38-5.36,4.85-6.86,8.06-1.39,3-3.07,4-6.43,4.2-7.51.54-13.75,4.54-19.69,8.92a7.13,7.13,0,0,0-3,4.32c2-1.27,3.91-2.48,5.83-3.67,4.82-3,9.68-5.92,15.3-7.21,4.51-1,8.69-.57,12.18,2.85.44.44.88,1.12,1.71.64a8.57,8.57,0,0,0-3-4c-.91-.73-2.81-.6-2.74-2,.06-1.15,1.15-2.26,1.8-3.38a6.24,6.24,0,0,1,.46-.68,59.72,59.72,0,0,1,7.91-8.83c.46-.43,1.63-.93.51-1.69-3.51-2.38-5.93-5.74-8.48-9a7.94,7.94,0,0,1-2-3.24c1.33.24,2.45.48,3.58.66C192.31,118.15,196.41,119,200.6,118.2Z"/><path class="cls-1" d="M267.38,116.13c-2.4,3.15-4.73,6.37-7.22,9.45-8.93,11-19.34,20.6-30.18,29.7-13.89,11.65-28.3,22.57-44.47,30.94-11.58,6-23.46,10.63-36.9,7.48-.85.29-1.58-.19-2.36-.33s-.75.29-.58.81a35.41,35.41,0,0,0,21.11,1.71c9.56-1.91,18.24-6.13,26.59-11,19.64-11.44,37.24-25.59,53.5-41.41a132.9,132.9,0,0,0,21.89-27.3C268.36,114.8,267.82,116.63,267.38,116.13Z"/><path class="cls-1" d="M33.37,152.33a31.49,31.49,0,0,0,10-14.89c.46-1.52.78-3.16-.45-4.65-2.73,8.88-8.39,16.75-15.37,21.4a12.59,12.59,0,0,1-8.94,2.38,1.54,1.54,0,0,1,.54-1.21c8.71-11.06,16.46-22.79,24.22-34.51A60.77,60.77,0,0,0,50.12,108a1.06,1.06,0,0,0-.53-.92A6.7,6.7,0,0,0,48,109.46c-2.18,3.87-4.67,7.56-6.76,11.45C38.53,126,34.19,128.2,29,129.33a23.94,23.94,0,0,1-3,.56,20.94,20.94,0,0,1-9.28-.87c3.54-3.54,7.16-6.73,9.28-11.13-.15-.44.18-1.36-.89-.89-1.31,1.66-2.53,3.4-3.95,5-5.05,5.48-10.52,10.37-18,12.36-.73.2-1.5.72-2.21,0-.41.08-.9.27-.9.66,0,.76.7.44,1.11.47,4.85.39,8.88-1.7,12.71-4.33.73-.51,1.31-1,2.37-.52a20.23,20.23,0,0,0,11.64,1.2,71.12,71.12,0,0,0,6.88-1.81,6.77,6.77,0,0,1-.4,1c-5.18,7.55-10.27,15.15-16,22.33-.93,1.16-1.56,2.59-2.87,3.42-.37.23-.89.1-.65.88a.8.8,0,0,0,1.25.56,4.24,4.24,0,0,1,2.59,0,13.7,13.7,0,0,0,11-2.79C30.71,154.1,31.71,152.79,33.37,152.33Z"/><path class="cls-1" d="M.86,134.23l0,0h0Z"/><path class="cls-1" d="M103.87,148.94,101.32,147c-.36,0-.71.09-.33.58s.78.59.72,1.16c4.42,4.25,8.22,8.88,10.12,14.89.36,1.14.3,1.64-.45,2.36a18.09,18.09,0,0,0-3.49,4.3c.11.46.32.75.84.47s.92-.79,1.33-1.24a38,38,0,0,1,17.21-10.66c8.35-2.53,16.67-2.85,24.85.77,6,2.68,9.73,7.5,12.23,13.44.31.74.6,2.08,1.63,1.72.84-.29.63-1.54.42-2.42a18,18,0,0,0-.52-1.77,22.42,22.42,0,0,0-12.17-12.91c-9.58-4.32-19.27-3.81-28.95-.32a41.12,41.12,0,0,0-10.89,6.21c-1.39-4.91-3.53-9.08-7.46-12.13C105.72,150.45,104,150.52,103.87,148.94Z"/><path class="cls-1" d="M324.07,79.34a72.77,72.77,0,0,0,5.81,20.17c1.72,3.86,3.52,7.69,6.5,10.81a3.3,3.3,0,0,0,4,1,13.46,13.46,0,0,1-1.89-2.24c-7.64-11.43-11.63-24.09-13-37.7-.66-6.65.25-13.44-1.79-20-.88.11-.68.86-.53,1.25.56,1.47.3,3,.34,4.45C323.72,64.51,323.06,72,324.07,79.34Z"/><path class="cls-1" d="M68.3,119c-.72,0-1.81.21-1.4-1.2-.47-.06-1-.19-1.21.4-.15.42.16.64.53.68,2.21.23,1.58,1.48,1,2.77a82.31,82.31,0,0,1-6.2,11.65c-4.1,6.65-8.69,12.89-15.05,17.6-3.33,2.47-6.89,4.44-11.24,4.27-1,0-2.32.09-2.79-.83s1.23-1.08,1.39-2c-1.39.81-2.33,2.17-3.74,3,1-.56,1.86-.93,2.88.11a4.37,4.37,0,0,0,2.06.82c4,1,7.59-.41,10.84-2.53,10.91-7.16,17.69-17.57,22.69-29.31a5.27,5.27,0,0,0,.54-3.2c-.43-1.86.54-2.13,2-2.05C69.88,118.61,69.09,119,68.3,119Z"/><path class="cls-1" d="M68.4,118.66c-.66-.06-1.39.08-1.5-.88-.41,1.41.68,1.2,1.4,1.2s1.58-.37,2.33.15C70,118.34,69.15,118.73,68.4,118.66Z"/><path class="cls-1" d="M29.63,155.29c1.41-.79,2.35-2.15,3.74-3C31.71,152.79,30.71,154.1,29.63,155.29Z"/><path class="cls-1" d="M357,116a2.64,2.64,0,0,0-3.06-1c-1.26.31-2.53.56-3.76,1-8.06,2.66-15.61,6.48-23.2,10.21-5.92,2.9-11.56,6.37-17.7,8.82-.29.94-1.39.67-1.93,1.24h0a.14.14,0,0,1,0,.06c1.26.21,2.42-.65,3.68-.33a56.65,56.65,0,0,0,7.73-3.3,25,25,0,0,1,7.82-3.73C336.65,124.32,346.54,119.42,357,116Z"/><path class="cls-1" d="M307.42,136.3a.14.14,0,0,0,0-.06h0l-.05.06Z"/><path class="cls-1" d="M324.5,134.27l-.4.87.3.42a11.18,11.18,0,0,1,3.81,3.68c7.75,6.77,16.64,8.66,26.53,6.09,1.34-.35,2.3-1.29,3.44-2.73C345.25,145.69,334,143.33,324.5,134.27Z"/><path class="cls-1" d="M113,117c-.41-.62.43-.83.73-1.21-.6.28-1.22.53-1.79.85-2.32,1.3-2.31,1.31-3.14-1.23-.73-.36-.75-.35-.72-.16.15.76.61,1.47.27,2.28a2.77,2.77,0,0,0,0,.82c3.68,10.28,3.37,20.28-1.9,30-.83,1.53-1.41,1.67-2.57.59.56,1.13,2.15,1.21,2.54,2.5.1-1.37,1.55-1.73,2.09-2.83a36.45,36.45,0,0,0,4.06-12.34,38,38,0,0,0-2-16.29c-.39-1.17-.31-1.59,1.05-1.89A12.44,12.44,0,0,0,117.5,115c-1.15.41-2,1.31-3.14,1.75C113.9,116.94,113.35,117.57,113,117Z"/><path class="cls-1" d="M113.68,115.76c-.3.38-1.14.59-.73,1.21s1,0,1.41-.21c1.12-.44,2-1.34,3.14-1.75-1.71,0-2.66,1.78-4.42,1.85C113.31,116.45,113.49,116.1,113.68,115.76Z"/><path class="cls-1" d="M103.87,148.94c.1,1.58,1.85,1.51,2.54,2.5C106,150.15,104.43,150.07,103.87,148.94Z"/><path class="cls-1" d="M310.67,68.2c.28,5.7,1,11.32,3.95,16.37.77,1.3,1.75,2.6,3.5,2.42s2.4-1.6,2.8-3.12c-.27-.88.25-1.69.22-2.55,0-.68.29-1.54-.81-1.72-.58.45-.24,1.15-.48,1.7-.52,1.2-.45,3.13-1.89,3.32s-2-1.65-2.52-2.82c-2.16-4.55-2.84-9.45-3.22-14.41A5.61,5.61,0,0,1,312,65c-.12-5,.2-9.9-.18-14.85,0-1.08,0-2.16-.05-3.24-1.33,0-1,1.07-1,1.8-.14,4.18.24,8.37-.21,12.54C310.63,63.56,310.55,65.89,310.67,68.2Z"/><path class="cls-1" d="M50.12,108c.68-1.54,2-1.19,3.17-1,3,.58,6,1.34,9.06,1.64a36.37,36.37,0,0,0,19.47-3.65c1.29-.62,2.69-1.31,2.79-3.11-7.06,3.33-14.24,5.7-22.12,5.25-3.75-.21-7.45-1.06-11.22-.81-.64,0-1.44-.25-1.68.72C50.37,107.08,50.38,107.48,50.12,108Z"/><path class="cls-1" d="M50.12,108c.26-.56.25-1-.53-.92A1.06,1.06,0,0,1,50.12,108Z"/><path class="cls-1" d="M280.78,101.24c4-.49,8.09-.26,12.1-.85a6.59,6.59,0,0,0,2.54-.62q-7.19.95-14.44,1.16c-2.93.09-2.92.17-1.71-2.59.16-.36.33-.72.49-1.07h0c-.1-.4.42-1-.34-1.18-.25.48-.48,1-.74,1.45-3.4,6.42-7.33,12.51-11.3,18.59.49-.15.65-.94,1.28-.73.36.12.33.49.1.79.85-.21,1-1,1.35-1.64,2.12-3.56,4.27-7.1,6.21-10.76.73-1.38,1.54-2.1,3.09-1.92C279.48,100.85,280.28,101.3,280.78,101.24Z"/><path class="cls-1" d="M280.71,101.47c3.11-.15,6.23-.16,9.32-.49,1.81-.2,3.81.13,5.39-1.21a6.59,6.59,0,0,1-2.54.62c-4,.59-8.08.36-12.1.85-.5.06-1.3-.39-1.37.63C279.75,101.44,280.24,101.49,280.71,101.47Z"/><path class="cls-1" d="M268.66,115.4c-.63-.21-.79.58-1.28.73.44.5,1-1.33,1.38.06C269,115.89,269,115.52,268.66,115.4Z"/><path class="cls-1" d="M89.53,99.13c.41.59-.31,1-.4,1.58,2.53-3.74,5.15-7.37,9.52-9.62-3.05-.48-8.13,3.84-10.08,8.24C88.88,99.17,89.2,98.65,89.53,99.13Z"/><path class="cls-1" d="M89.13,100.71c.09-.55.81-1,.4-1.58s-.65,0-1,.2C90.5,99.08,88.4,100.47,89.13,100.71Z"/><path class="cls-1" d="M146.07,193.13a18.62,18.62,0,0,1,2.54.57c-2.54-.88-5.05-1.86-7.63-2.62-1-.3-1.34-.46-1.14-1.66a4.56,4.56,0,0,0-1.08-3.56,11,11,0,0,1,.65,4.58c-.13,1.71-.76,1.62-1.92,1.12-.64-.26-1.07-.86-1.74-1.06a3.28,3.28,0,0,0,3.07,1.58,5.87,5.87,0,0,1,3.31.67c1.17.51,2.21,1.32,3.54,1.43C144.93,193.5,145.14,193.14,146.07,193.13Z"/><path class="cls-1" d="M139.41,190.44a11,11,0,0,0-.65-4.58c-.27.85.41,1.56.37,2.38-.06,1.07.46,2.45-.31,3.13s-1.73-.64-2.67-.88a1.8,1.8,0,0,0-.4,0c.67.2,1.1.8,1.74,1.06C138.65,192.06,139.28,192.15,139.41,190.44Z"/><path class="cls-1" d="M146.25,193.37c.78.14,1.51.62,2.36.33a18.62,18.62,0,0,0-2.54-.57c-.93,0-1.14.37-.4,1.05C145.5,193.66,145.45,193.23,146.25,193.37Z"/><path class="cls-1" d="M324.5,134.27a2.52,2.52,0,0,0-.21-.54c-1.77-2.6-1.76-2.59,1-3.95a15.74,15.74,0,0,0,1.34-.84c-2.67,1.11-5.21,2.5-7.82,3.73,1-.36,2.06-1.14,2.95-1,1.14.21.85,1.92,1.65,2.72.23.23.45.48.67.73C323.88,134.68,323.8,134.3,324.5,134.27Z"/><path class="cls-1" d="M318.83,132.67c2.61-1.23,5.15-2.62,7.82-3.73A25,25,0,0,0,318.83,132.67Z"/><path class="cls-1" d="M324.1,135.14l.4-.87C323.8,134.3,323.88,134.68,324.1,135.14Z"/><path class="cls-1" d="M25.84,116.66c.46.33.28.8.09,1.23a6.64,6.64,0,0,0,1.17-6.12L25,117C25.25,116.75,25.53,116.44,25.84,116.66Z"/><path class="cls-1" d="M25.93,117.89c.19-.43.37-.9-.09-1.23-.31-.22-.59.09-.8.34C26.11,116.53,25.78,117.45,25.93,117.89Z"/><path class="cls-1" d="M108.08,114.61c.59-.12.39.56.67.77a12.4,12.4,0,0,0-1.61-4.76,13,13,0,0,0,1.16,6.88,19.11,19.11,0,0,0-.51-2.08C107.69,115.13,107.67,114.69,108.08,114.61Z"/><path class="cls-1" d="M108,115.22c0-.19,0-.2.72.16-.28-.21-.08-.89-.67-.77-.41.08-.39.52-.29.81a19.11,19.11,0,0,1,.51,2.08C108.64,116.69,108.18,116,108,115.22Z"/><path class="cls-1" d="M321.48,80.69c.09,1.12-.47,2.1-.56,3.18,1-2.49.88-6.08-.36-7.54-.08,1.13-.16,2.2-.23,3.27C321.38,79.26,321.41,79.93,321.48,80.69Z"/><path class="cls-1" d="M321.14,81.32c0,.86-.49,1.67-.22,2.55.09-1.08.65-2.06.56-3.18-.07-.76-.1-1.43-1.15-1.09C321.43,79.78,321.12,80.64,321.14,81.32Z"/><path class="cls-1" d="M108,171.13c-.33-.19-.27-.54-.1-.85a13.7,13.7,0,0,0-2.56,4.09c1.73-1.17,2.86-2.11,3.4-3.62C108.58,171.06,108.33,171.32,108,171.13Z"/><path class="cls-1" d="M107.89,170.28c-.17.31-.23.66.1.85s.59-.07.74-.38C108.21,171,108,170.74,107.89,170.28Z"/><path class="cls-1" d="M100.75,147.7c-.28-.59-.47-1.16.57-.71-.48-1-1.38-1.25-2.65-1.7a7.58,7.58,0,0,0,3,3.44C101.51,148.26,101,148.13,100.75,147.7Z"/><path class="cls-1" d="M101,147.57c-.38-.49,0-.53.33-.58-1-.45-.85.12-.57.71.21.43.76.56,1,1C101.77,148.16,101.28,147.92,101,147.57Z"/><path class="cls-1" d="M279.76,97.27h0c1.18-.91,1.09-2.17,1.13-3.84a4.36,4.36,0,0,0-1.47,2.66C280.38,96.24,280.1,96.74,279.76,97.27Z"/><path class="cls-1" d="M279.76,97.27c.34-.53.62-1-.34-1.18C280.18,96.3,279.66,96.87,279.76,97.27Z"/><path class="cls-1" d="M307,136a1.1,1.1,0,0,1,.4.24c.23-1,1.54-.46,2-1.21-1-.12-1.88,1.1-2.86.06C305.84,135.77,306.36,135.88,307,136Z"/><path class="cls-1" d="M305.12,136.31h2.18v0h0a.29.29,0,0,1,0-.09,1.1,1.1,0,0,0-.4-.24c-.59-.08-1.11-.19-.49-.91A1.33,1.33,0,0,0,305.12,136.31Z"/><path class="cls-1" d="M307.35,136.2l0,0c.54-.57,1.64-.3,1.93-1.24C308.89,135.74,307.58,135.16,307.35,136.2Z"/><path class="cls-1" d="M307.33,136.29h0l.05-.06,0,0A.29.29,0,0,0,307.33,136.29Z"/><path class="cls-1" d="M324.4,135.56a12.06,12.06,0,0,0,3.81,3.68C326.86,138.1,325.72,136.74,324.4,135.56Z"/><path class="cls-1" d="M324.4,135.56c1.32,1.18,2.46,2.54,3.81,3.68A11.18,11.18,0,0,0,324.4,135.56Z"/><path class="cls-1" d="M200.6,118.2H203a1.91,1.91,0,0,0-2.36-1.15C201.31,117.45,201.37,117.83,200.6,118.2Z"/><path class="cls-1" d="M200.6,118.2c.77-.37.71-.75,0-1.15A.86.86,0,0,1,200.6,118.2Z"/><path class="cls-1" d="M307.44,136.34a.42.42,0,0,1-.11.38,6.44,6.44,0,0,0,3.77-.75C309.87,136,308.71,136.88,307.44,136.34Z"/><path class="cls-1" d="M307.44,136.34l-.1,0h0l0,.41A.42.42,0,0,0,307.44,136.34Z"/><path class="cls-1" d="M307.42,136.3l0,0c1.27.54,2.43-.31,3.66-.37C309.84,135.65,308.68,136.51,307.42,136.3Z"/><path class="cls-1" d="M307.34,136.3l.1,0,0,0h-.08Z"/><path class="cls-1" d="M307.3,136.31h0l0,0Z"/><path class="cls-1" d="M307.33,136.29h0Z"/><path class="cls-1" d="M307.32,136.31Z"/><path class="cls-1" d="M307.3,136.29l0,0h0Z"/><path class="cls-1" d="M307.33,136.29h0Z"/><path class="cls-1" d="M28,41.13h2q33.82,0,67.65,0c6.4,0,12.82.11,19.21.45,5.37.28,10.73.65,16.1.77.53,0,1.32-.09,1.33.59s-.78.62-1.31.62c-8.45,0-16.89-.27-25.32-.78-.34,0-.68,0-1,0-.54,0-1.09,0-1.64,0-20.28.26-40.55-.28-60.83-.54C38.8,42.16,33.34,42.39,28,41.13Z"/></g></g></svg>