<svg xmlns="http://www.w3.org/2000/svg" viewBox="0 0 340.19 216.29"><defs><style>.cls-1{fill:#204a46;}</style></defs><title>hand_gou</title><g id="图层_2" data-name="图层 2"><g id="图层_1-2" data-name="图层 1"><path class="cls-1" d="M25.75,94.21c5.27,5.49,11.88,7.54,19.3,8a12.47,12.47,0,0,0,7.84-1.9C64,93.42,76.38,89.48,88.81,85.77a7.61,7.61,0,0,0,3-1.14c-1.87-.42-3.79.28-5.45-.61.06-.5.35-.5.56-.5,9.43.26,18.59-1.66,27.78-3.39,3.3-.62,6.64-1,10-1.49a3.36,3.36,0,0,0,2-.77c5.73-5.35,12.48-9.19,19.27-13,16.47-9.18,33.21-17.87,50.35-25.74,8.85-4.07,18.28-6.13,27.77-8A283.09,283.09,0,0,1,255.31,27c1.23-.1,1.68-.49,1.76-1.88.22-4.28,2.16-7.94,4.68-11.31a1.82,1.82,0,0,1,1.19.4A42.17,42.17,0,0,0,258.4,23c-.22.63-.41,1.28-.57,1.93-.29,1.22-.1,1.82,1.45,1.51,4.08-.82,8-2.06,12-3.22,1.81-.54,3.61-1.13,5.41-1.7.32-.15.79,0,1-.39.63-1.19,1.18-.58,1.75,0a8.66,8.66,0,0,1,1.8,4.91,46.09,46.09,0,0,1,.27,5.12c0,7.53.13,15,0,22.58a81.36,81.36,0,0,0,7.19,34.19c3.06,7,5.87,14,6.65,21.65.19,1.88.35,3.77.54,5.66.15,1.41-.54,2-1.89,2.08a9.07,9.07,0,0,1-5.1-1.23,21.5,21.5,0,0,1-8.6-9,6.32,6.32,0,0,1-.85-3.56c2.53,4.15,5.43,7.86,9.52,10.49.21.13.4.28.62.39,1.31.68,2.86,1.68,4.11.92.95-.57.2-2.27.13-3.46a52.23,52.23,0,0,0-5.1-19.19c-.81-1.77-1.81-1.73-3.16-1.08a64.07,64.07,0,0,0-12.95,7.91c-3.83,3.1-6.85,7-10.18,10.53a19.16,19.16,0,0,1-4.07,3.66c-.47.27-.79.26-.74-.41,7.09-9.58,15.05-18.17,26.29-23a1.24,1.24,0,0,0,.33-.15c.76-.68,2.36-.08,2.55-1.21.13-.83-.62-1.81-1-2.71a74.28,74.28,0,0,1-6-30c.16-9,.21-18,.3-27a21.24,21.24,0,0,0-.61-5.26c-.36-1.45-.89-1.88-2.41-1.23a91.42,91.42,0,0,1-16.69,5.51c-5.39,1.15-10.92,1.33-16.38,2-17.09,2.09-33.94,5-50,11.77-14.7,6.19-28.58,13.88-42.48,21.58-7.16,4-14.47,7.74-20.78,13C126,80.68,121.41,85,118.09,90.48a28,28,0,0,0-1.43,3,4.74,4.74,0,0,0-.15,1c1.17-.67,2.12-1.17,3-1.73,8.5-5.19,17-10.44,26.09-14.52s18.62-7.94,29.07-7.43a14,14,0,0,1,4.51.84c-.25.5-.65.41-1,.4-11.69-.73-22.29,3.08-32.62,7.92C134.71,85,124.55,91.54,114.29,97.84q-18.83,11.55-38,22.53c-24.4,13.89-48.7,28-72.35,43.11-.44.28-.85.62-1.36,1,6,1.2,17-4.18,23-11.17.26-.11.47-.46.78-.29s.24.5.1.78a10,10,0,0,1-.77,1.4,15.06,15.06,0,0,1-5,4.81c-5.06,3.25-10.23,6.28-16.57,6.11a5.87,5.87,0,0,1-3.32-.82c-1-.7-1.18-1.18,0-1.94,6.24-4,12.39-8.06,18.66-12,12.81-8,25.82-15.59,38.92-23.07.21-.12.44-.2.66-.3.38-.29,1-.62,0-.9a3.24,3.24,0,0,0-1.28,0c-2.62.28-5.21-.46-7.83-.23a2,2,0,0,1-1.11,0A12.93,12.93,0,0,1,45,124.56c-.45-.4-1-.92-.57-1.56s1-.2,1.47.06c5.41,3,11.2,2.63,17,1.76,2.31-.34,4.2-1.95,6.19-3.11,10-5.84,20.23-11.42,30.16-17.46,4.28-2.6,8.64-5.06,12.92-7.68A3.82,3.82,0,0,0,114,94.68a27.2,27.2,0,0,1,3.89-7.46c1.64-2.19,3.3-4.4,5.3-6.61a52.76,52.76,0,0,0-6.73,1,298.16,298.16,0,0,0-39.12,9.74,128.18,128.18,0,0,0-35.95,18.71c-10.22,7.57-20.53,15-30.69,22.67a9.24,9.24,0,0,1-3,1.79c-1.69-.34-.48-.92-.12-1.43,7.14-5.75,14.55-11.13,21.93-16.57,5.5-4,11-8,16.9-12.29-2-.16-3.7-.26-5.39-.45-6.67-.76-12.3-3.4-16.17-9.14-.18-.27-.21-.59.09-.75S25.52,94,25.75,94.21Z"/><path class="cls-1" d="M289.65,40.64C296,52.56,301.7,64.71,304.93,77.89c.08.3.12.6.17.9a5,5,0,0,0,1.5,2.55h0a5,5,0,0,0,0,3.7,174.43,174.43,0,0,1,4.29,40.35,43.58,43.58,0,0,1-1.06,11.09,6,6,0,0,1-1.41,2.92c-.4,1-1.54,1.16-2.2,1.88-1.66.93-3.2.25-4.67-.47-3.07-1.51-5.35-4-7.57-6.49a55,55,0,0,1-8-11c-.58-1.13-.58-1.13,0-1.48a81.83,81.83,0,0,0,12.61,14.44,16.34,16.34,0,0,0,4.25,2.83c2.11.9,3.34.46,4.32-1.61,1.39-3,1.46-6.18,1.55-9.33a184.87,184.87,0,0,0-5.52-49c-2.91-12.06-7.6-23.44-12.94-34.59-.37-.76-.65-1.57-1-2.36-.15-.51-.36-1-.48-1.51-.07-.27-.1-.64.27-.72C289.57,39.84,289.38,40.46,289.65,40.64Z"/><path class="cls-1" d="M216.73,172.51a27.05,27.05,0,0,1-8.63,3.4c-9.2,2.33-17.47,6.62-25.46,11.54-8.69,5.36-17.26,10.89-26.68,15a89.31,89.31,0,0,1-34.83,7.85c-3.16,0-6.34.08-9.68-1.3a92.7,92.7,0,0,0,20-1.18c3.51-.54,6.95-1.42,10.39-2.27,1.53-.37,1.56-1.06,1.15-2.28-2.12-6.37-5.94-9.13-12.7-9.28-4.64-.11-9.07,1.19-13.72,1.95,1.82-2,4.17-2.65,6.55-3.15a32.16,32.16,0,0,1,10.22-.49c5.24.58,9.58,4.51,11.22,10.46.42,1.52.93,1.69,2.36,1.19,10.4-3.63,19.94-8.93,29.3-14.65,7.67-4.68,15.32-9.42,23.89-12.38,1.44-.5,2.91-.92,4.39-1.28,3.79-.92,7.6-1.76,10.93-3.94C215.53,172.51,216.48,172,216.73,172.51Z"/><path class="cls-1" d="M262.94,14.23c-.5.19-1,.26-1.19-.4C266.29,6.24,276.61,2.1,284.22,5c5.6,2.16,9.09,6.63,11.68,11.85s4,11.13,5.58,16.84c2.48,9.1,5.29,18.06,10.7,26a33.1,33.1,0,0,0,6,6.86c2.46,2.06,4.62,2.44,6.65,1.26A6.45,6.45,0,0,0,326,65.51c.86,1.47.52,2.4-1.47,4.2-2.19,1.15-4.19.28-6.07-.73a22.83,22.83,0,0,1-7.25-6.89c-5-6.73-7.87-14.43-10.2-22.39-1.84-6.26-3.2-12.67-5.57-18.78a28.07,28.07,0,0,0-6.57-10.47C283.77,5.58,278,4.62,271.53,7.53A27.11,27.11,0,0,0,262.94,14.23Z"/><path class="cls-1" d="M156.81,178.54c-7.72-.81-15.4-.37-23.11.07,1.53-1,3.32-1.1,5-1.41a44.66,44.66,0,0,1,7.48-.69c.69,0,1.27,0,1.59-.86,2.58-6.82,7.77-11.29,13.77-14.93,5-3,10.26-5.45,16.35-4.87-3-12.46,1.19-22.42,10.23-30.7,2-1.89,4-4.12,7.08-4.34a64.56,64.56,0,0,0-8.46,8.23c-6.59,7.48-8.75,16.18-7.2,25.92,0,.24,0,.56.13.71,2.12,2.34-.26,1.66-1.17,1.63-9-.3-16,4.2-22.51,9.66a28.06,28.06,0,0,0-6.23,7.14c-1.34,2.23-1.3,2.36,1.16,2.65C153,177,155.06,177.1,156.81,178.54Z"/><path class="cls-1" d="M333.77,6.35c-8.11-2.95-15.91-5.63-24.38-4.5,0,.17,0,.34.05.37,5.6,2.82,9.26,7.64,13,12.45,2.68,3.48,5.49,6.85,8.39,10.45a5.2,5.2,0,0,1-4.08-1.9c-3.26-3.16-5.82-6.91-8.64-10.43-1-1.19-1.91-2.39-2.94-3.52-5.74-6.27-12.2-7.83-22-5.11a15.48,15.48,0,0,0-4.52,2.6,4,4,0,0,1,2.46-3.15c4.15-2.36,8.72-2.61,13.34-2.48a6.15,6.15,0,0,0,1.81,0c8.09-2.3,15.86-1,23.5,2a21.87,21.87,0,0,1,2.62,1.28A2.56,2.56,0,0,1,333.77,6.35Z"/><path class="cls-1" d="M216.73,172.51a5.69,5.69,0,0,0-.71.07c-.33.07-.73.42-.94,0-.1-.19.25-.62.4-.94a137,137,0,0,0,13.87-10.48c8.93-8,16.48-17,21.36-28.1a54.93,54.93,0,0,0,4.07-14.61c.42-3.28.62-6.57.9-9.87,1,4,.49,8.09.24,12.14a56.88,56.88,0,0,1-8.56,22.72,87,87,0,0,1-20.12,22.17C224,168.24,220.66,170.86,216.73,172.51Z"/><path class="cls-1" d="M65.64,210.2c2.57-7.89,5.66-15.59,8.61-23.34,4.11-10.78,7.86-21.69,12.38-32.3a40.08,40.08,0,0,1,3.56-6.77c.28-.12.51-.55.87-.19.2.19.1.41,0,.59C82.93,166.41,77.53,185.64,69.74,204a44.53,44.53,0,0,1-3.68,7.77c-.39.44-.83.75-.84-.17A4.77,4.77,0,0,1,65.64,210.2Z"/><path class="cls-1" d="M141.3,120.92a2.36,2.36,0,0,1,2.08-.54c8.09,1.33,15.78-.53,23.46-2.75,4.46-1.29,9-2.43,13.46-3.6a9,9,0,0,1,9.94,4.94c.3.72.78,1.63-.21,2.09s-1.21-.51-1.54-1.24a9.54,9.54,0,0,0-5.25-4.85,2.16,2.16,0,0,0-1.74.07,130.76,130.76,0,0,1-27.77,7.29,24.91,24.91,0,0,1-6.22-.07A41.41,41.41,0,0,1,141.3,120.92Z"/><path class="cls-1" d="M23.69,84.76a7.48,7.48,0,0,1-3.56-1.08c-.1-.36-.79-.2-.66-.7s.51-.36.75-.26c.57.23,1.18.25,1.73.52L25.3,84A45.24,45.24,0,0,0,33.82,85c13.24.91,26.4-.64,39.58-1.25a39.43,39.43,0,0,1,9.32.49c-1.89.16-3.77.3-5.66.47-9.31.85-18.62,1.89-28,2.15A100.26,100.26,0,0,1,29,85.81C27.22,85.39,25.47,85,23.69,84.76Z"/><path class="cls-1" d="M100.54,130.61a3.45,3.45,0,0,1-.85-.31c-1.4-1-2.59-.89-3.53.64-.23-.23-.61-.11-.82-.38.34-.57.71-1.12,1-1.71a1,1,0,0,1,1.38-.47c2.89,1.53,5.89,1.45,9,1,8.58-1.28,16.8-3.56,24.34-8a18.56,18.56,0,0,0,6.57-6.22c.26-.41.47-.85.72-1.27.16-.26.27-.82.73-.49.29.21.24.65,0,1-.93,4.46-4.2,6.95-7.83,9a59.31,59.31,0,0,1-21.14,7.19A18.49,18.49,0,0,1,100.54,130.61Z"/><path class="cls-1" d="M112.44,155c4.77-3.06,9.21-6,12.71-10a40.65,40.65,0,0,0,8.71-17.53c.17-.7-.07-2.78,1.52-.7.32.42.8,0,1.18-.17a13.13,13.13,0,0,0,3.83-2.46,12.77,12.77,0,0,1,2.84-1.85,2.11,2.11,0,0,1-.71,1.92c-1.71,1.69-3.53,3.29-5.94,3.8-1.25.26-1.61.89-1.89,2-2.45,9.66-7.54,17.54-15.92,23.12C117,154.27,115.19,155.48,112.44,155Z"/><path class="cls-1" d="M83.62,201c6.59-8.77,13.55-17.33,17-28a45.41,45.41,0,0,0,1.84-12.1,3,3,0,0,1,.94-2.65,10.3,10.3,0,0,1,.6,3.91,40.2,40.2,0,0,1-6.48,22A100.71,100.71,0,0,1,85.9,200a6,6,0,0,1-1.59,1.67C83.38,202.22,83.44,201.6,83.62,201Z"/><path class="cls-1" d="M306.19,141.29c.41-1,1.44-1.3,2.2-1.88-.25.84.28,1.14.9,1.52a20.44,20.44,0,0,0,8,2.43c1.3.19,2,.54,2.22,2.06.35,2.2,1.79,4,3.28,5.62a64,64,0,0,0,13.41,11c1.28.81,2.54,1.65,4,2.61-1.6.21-3,.34-4.3-.43a52.07,52.07,0,0,1-15.95-13.8,8,8,0,0,1-1.56-2.88c-.48-2.17-1.76-3-3.86-3.27a10.3,10.3,0,0,1-6-2.88C307.61,140.47,307,141.26,306.19,141.29Z"/><path class="cls-1" d="M55.42,149.34c-7.78,11.23-18.08,18.06-32.12,18.13-3.15,0-6.36-.32-8.92-3.21a33,33,0,0,0,25.33-2.37c6.46-3.26,11.33-8.4,15.61-14.13C56.72,148.2,55.46,148.8,55.42,149.34Z"/><path class="cls-1" d="M309.54,84.66c7.22,7.87,18.89,25.84,19.67,30.37a19.31,19.31,0,0,1-4.28-4.9c-4.05-6.23-7.77-12.67-12-18.75-1.73-2.48-3.5-4.93-5.26-7.4-.3-.63-.1-1,.56-.65S309.08,84.23,309.54,84.66Z"/><path class="cls-1" d="M48.84,126.55h1.07c.19.47-.17.72-.39,1-8.06,9-18.1,13.49-30.18,13.37-1.69,0-3.46-.05-4.69-1.56l.14-.25c.53-.46,1.16-.26,1.76-.25a43,43,0,0,0,30.39-11A6.55,6.55,0,0,1,48.84,126.55Z"/><path class="cls-1" d="M95.34,130.56c.36-.06.82-.35.82.38-3.1,5.21-8,8.27-13.18,11a36,36,0,0,1-21.37,4.32l4.91-1.05c1.56-.32,3.12-.62,4.68-.95A44.75,44.75,0,0,0,95.34,130.56Z"/><path class="cls-1" d="M83.62,201c.13.27,0,.88.63.44s1.1-.94,1.65-1.41a16.39,16.39,0,0,1-7,6.1A5.15,5.15,0,0,0,76.62,208a23.29,23.29,0,0,1-5.86,6.26c-.53.28-.8.15-.74-.48a40,40,0,0,0,7.83-10.51c2.78-5.3,4.21-10.78,2.75-16.74,3.43,6.62,1,12.65-2.31,19C80.77,204.35,82,202.43,83.62,201Z"/><path class="cls-1" d="M121.11,184.17c-8.08,6.35-11.64,14.91-12.09,25.1a2.36,2.36,0,0,1-1.17-2.39,28.78,28.78,0,0,1,8.53-20,10.7,10.7,0,0,1,4-3.05C120.72,183.64,121.1,183.52,121.11,184.17Z"/><path class="cls-1" d="M25.75,94.21c-.4-.09-.82-.21-.84.44-.68-1.59-1.93-1.86-3.58-2-5.43-.42-8-4.24-6.94-10.24.47,1.71.83,3.22,1.3,4.69A5,5,0,0,0,20,90.82a23.45,23.45,0,0,0,11.49-1.36c.27-.2.6-.23.71.08.2.55-.4.73-.65,1.08-1.9,1.46-4.23,1.64-6.43,2.12C25,93.45,25.74,93.66,25.75,94.21Z"/><path class="cls-1" d="M14.65,139.4a2.28,2.28,0,0,0-2.31-.53,13.06,13.06,0,0,1-8-.14c-.75-.87-.19-1,.56-1,1.34.09,2.68,0,4,.07a6.51,6.51,0,0,0,3-.57,36.59,36.59,0,0,0,11.7-6.16,13.09,13.09,0,0,0,2.07-1.64c.57-.42,1.2-.75,1.23.45-1.49,3-4.16,4.71-6.87,6.35A22.94,22.94,0,0,1,16.45,138a3.06,3.06,0,0,0-1.82,1.43Z"/><path class="cls-1" d="M100.54,130.61c1.81.15,3.63.27,5.42.46,1.49.16,2.72-1.16,4.18-.46a8,8,0,0,0-4.81,2.65,32.66,32.66,0,0,1-5.22,4c-2.94,1.91-4.53,5-6.67,7.65-.87,1.07-1.29,2.45-2.43,3.31,0-.71-.51-.34-.82-.4,3.25-4.52,6-9.48,11-12.45a23.89,23.89,0,0,0,4.74-3.79C104,131.26,102.11,131.71,100.54,130.61Z"/><path class="cls-1" d="M255.92,120.75c0-3.33,0-6.67,0-10a8.4,8.4,0,0,0-.13-1.8c-.32,3.18,0,6.42-1,9.53.15-5.48.3-11,.48-16.44,0-.67-.18-1.72.95-1.56.92.14.58,1,.48,1.68-.51,3.59-.05,7.2-.15,10.79,0,1.34.67.51,1.14.33l.74.41c-1.67.68-2.08,2-2,3.69A21.65,21.65,0,0,1,255.92,120.75Z"/><path class="cls-1" d="M324.57,69.71c.71-1.15,1.9-2.07,1.72-3.71-.6.54-.54,1.56-1.44,1.79,1.26-2.07.71-4-.25-6a49.66,49.66,0,0,0-7-10.12c-.25-.43-.26-.75.38-.74,2.89,3,5.75,6.08,7.6,9.92a9.35,9.35,0,0,1,1.23,5.43C326.56,67.72,326.23,69.16,324.57,69.71Z"/><path class="cls-1" d="M279.45,21.14c-.47,0-.92-1-1.43,0-.24.46-.81.45-1.3.31.82-.5,1.08-1-.07-1.38-2.15-.76-4.23-.23-6.29.32A34.86,34.86,0,0,0,263.53,23c-.3.16-.71.47-.95,0s.16-.65.49-.83c3.68-2,7.49-3.62,11.76-3.68C276.81,18.52,278.54,19.16,279.45,21.14Z"/><path class="cls-1" d="M139.11,114.4a1.8,1.8,0,0,0-.06-.53c-.23-.49-.31,0-.38.09-.31.42-.41,1-1,1.22.29-.73.59-1.46.89-2.19s1.06-1.49-.63-2a30.9,30.9,0,0,0,10.74-1.16c.38-.1.92-.31,1.1.22s-.3.88-.76,1.07a14.29,14.29,0,0,1-7.18,1c-1.53-.18-2.35.06-2.36,1.72A.52.52,0,0,1,139.11,114.4Z"/><path class="cls-1" d="M12.42,137.51c-2.41,1.36-5,.86-7.52.62-.76-.07-.63.16-.55.6-2.08-1.44-2.1-1.67-.18-3.14a16.78,16.78,0,0,1,3.47-2.49c.24.38-1.3.9.09,1.2,0,1.47-1.7,1.62-2.3,2.85a11.92,11.92,0,0,0,4.89.17C11,137.25,11.77,136.94,12.42,137.51Z"/><path class="cls-1" d="M70,213.81a.75.75,0,0,0,.74.48c-2,2-4.45,2.22-7.05,1.84-.48-.07-1.1-.26-.5-.92,1.31-1.44,1.51-3.4,2.43-5a1.64,1.64,0,0,1-.11,1.19c-.25.7.26.38.53.35a4.74,4.74,0,0,1-1.57,2.58c-.25.24-.72.37-.6.8s.68.44,1.07.47C66.89,215.71,68.44,214.7,70,213.81Z"/><path class="cls-1" d="M22,83.24A3,3,0,0,1,20.34,83c-.16-.07-.48-.27-.54.08,0,.17.21.4.33.6a32.39,32.39,0,0,1-5.06-2.17l.22-.62Z"/><path class="cls-1" d="M49.52,127.59l.39-1c3.33,0,6.65.8,10,.07.32-.06.68.12.59.49-.17.7-.77.85-1.4.9.1-.31.4-.74-.28-.72a40.39,40.39,0,0,1-7.85-.36C50.28,126.82,50.05,127.5,49.52,127.59Z"/><path class="cls-1" d="M289.65,40.64l-.55-.37c0,.13-.11.28-.08.4a2.35,2.35,0,0,1,.23,1.5,19.43,19.43,0,0,1-2-5.92A8.29,8.29,0,0,1,289.65,40.64Z"/><path class="cls-1" d="M309.54,84.66c-.69,0-.85-.75-1.31-1.08s-.46.17-.6.4l-1.06-.91v2c-.64-1.24-1.4-2.48,0-3.7A11.46,11.46,0,0,1,309.54,84.66Z"/><path class="cls-1" d="M286,121.81c-.57.49.28,1,0,1.48a10.51,10.51,0,0,1-2.23-4.4c0-.52-.54-1.17.37-1.45C284.12,119.15,285.6,120.24,286,121.81Z"/><path class="cls-1" d="M317.94,50.91c-.36.13-.3.47-.38.74-.91-.86-1.82-1.74-2.75-2.58-.27-.24-.7-.42-.44-.83s.67-.2.94,0C316.23,49.12,317.37,49.73,317.94,50.91Z"/><path class="cls-1" d="M98.84,123.39c-.17,1.63-.21,3.31-1.39,4.64A10.24,10.24,0,0,1,98.84,123.39Z"/><path class="cls-1" d="M25.67,155.19c.18-.48.37-1,.54-1.45.36-1-.47-.24-.65-.44l1.75-2.71A5,5,0,0,1,25.67,155.19Z"/><path class="cls-1" d="M33.82,85A19.59,19.59,0,0,1,25.3,84Z"/><path class="cls-1" d="M55.42,149.34c-.26-.52.79-1.11-.1-1.58a4.82,4.82,0,0,1,2.2-2.72A9.1,9.1,0,0,1,55.42,149.34Z"/><path class="cls-1" d="M31.59,90.62c-.2-.38,1.09-.83-.06-1.16A8.76,8.76,0,0,1,35,87.4,12.72,12.72,0,0,1,31.59,90.62Z"/><path class="cls-1" d="M121.11,184.17l-.78-.39c1.06-.7,2.1-1.49,3.52-1C122.9,183.17,122.23,184.1,121.11,184.17Z"/><path class="cls-1" d="M23.69,84.76a11.06,11.06,0,0,1,5.28,1A17.69,17.69,0,0,1,23.69,84.76Z"/><path class="cls-1" d="M306.6,81.34a2.4,2.4,0,0,1-1.5-2.55Z"/><path class="cls-1" d="M23.87,131.35c1.13-1.7,3.19-2.64,3.83-4.85.47,1.52.38,1.78-1,3.32,0-.51-.2-.61-.65-.26C25.35,130.15,24.92,131.13,23.87,131.35Z"/></g></g></svg>