<svg xmlns="http://www.w3.org/2000/svg" viewBox="0 0 25 25"><defs><style>.cls-1{fill:#204a46;}.cls-2{fill:#fef5e4;}</style></defs><title>icon-guangling</title><g id="图层_2" data-name="图层 2"><g id="图层_1-2" data-name="图层 1"><circle class="cls-1" cx="12.5" cy="12.5" r="12.5"/><path class="cls-2" d="M23,16.64l-2.67-3.17a.43.43,0,0,0-.63,0l-2.62,3.1L14.28,9A.41.41,0,0,0,14,8.71a.42.42,0,0,0-.39.16l-3.79,5.2L6,9.83a.41.41,0,0,0-.3-.14.46.46,0,0,0-.31.13L.32,15.29c.08.31.15.63.25.94l5.12-5.51L9.49,15a.45.45,0,0,0,.33.14.42.42,0,0,0,.31-.17l3.65-5,2.8,7.55a.43.43,0,0,0,.32.26H17a.41.41,0,0,0,.31-.14L20,14.38l2.76,3.26a.42.42,0,0,0,.36.14.4.4,0,0,0,.32-.22L24.7,15.2A12.07,12.07,0,0,0,25,12.86Z"/></g></g></svg>