<svg xmlns="http://www.w3.org/2000/svg" viewBox="0 0 25 25"><defs><style>.cls-1{fill:#204a46;}.cls-2{fill:none;}.cls-3{fill:#fef5e4;}</style></defs><title>icon-meian</title><g id="图层_2" data-name="图层 2"><g id="图层_1-2" data-name="图层 1"><circle class="cls-1" cx="12.5" cy="12.5" r="12.5"/><path class="cls-2" d="M5.39,17.14,8,6.56l4.11,7.53,4-6,3.11,6.83,2-11.12,3.64,6.75A12.49,12.49,0,0,0,0,12.5c0,.19,0,.37,0,.56l2.29-1.44Z"/><path class="cls-2" d="M19.52,17.16,16,9.46l-3.94,5.91-3.82-7L5.62,18.92,2.08,12.55l-2,1.26A12.5,12.5,0,0,0,25,12.5c0-.09,0-.17,0-.25L21.52,5.81Z"/><path class="cls-3" d="M21.2,3.82l-2,11.12L16.13,8.11l-4,6L8,6.56,5.39,17.14,2.32,11.62,0,13.06c0,.25,0,.5,0,.75l2-1.26,3.54,6.37L8.26,8.36l3.82,7L16,9.46l3.5,7.7,2-11.35L25,12.25a13.28,13.28,0,0,0-.15-1.68Z"/></g></g></svg>