<svg xmlns="http://www.w3.org/2000/svg" viewBox="0 0 25 25"><defs><style>.cls-1{fill:#204a46;}.cls-2{fill:none;}.cls-3{fill:#fef5e4;}</style></defs><title>icon-fanchuan</title><g id="图层_2" data-name="图层 2"><g id="图层_1-2" data-name="图层 1"><circle class="cls-1" cx="12.5" cy="12.5" r="12.5"/><circle id="SVGID" class="cls-2" cx="12.5" cy="12.49" r="12.5"/><path class="cls-1" d="M0,12.39l1.6-6A12.36,12.36,0,0,0,0,12.39Z"/><path class="cls-1" d="M.16,13.73a.35.35,0,0,1-.08.13A12.28,12.28,0,0,0,2.37,19.8l-.1-14Z"/><path class="cls-3" d="M23,11.66l-1-2.55a.24.24,0,0,0-.47.1v4.4L20,9.13A.26.26,0,0,0,19.7,9a.24.24,0,0,0-.21.23L19,15.12,17.46,1l-.52-.2,1.89,17a.24.24,0,0,0,.25.22.25.25,0,0,0,.24-.23l.56-7.33,1.59,4.76a.25.25,0,0,0,.48-.07V10.49l.84,2.1a.23.23,0,0,0,.25.15.25.25,0,0,0,.22-.19l1-4.35q-.15-.4-.33-.81Z"/><path class="cls-3" d="M6.33,21a.25.25,0,0,0,.49,0L8.55,10.71l1.07,6.43a.26.26,0,0,0,.49,0l1.07-6.43,1.07,6.43a.25.25,0,0,0,.25.2h0a.24.24,0,0,0,.24-.2l.64-4,.85,4a.23.23,0,0,0,.25.19.25.25,0,0,0,.24-.22L16.14.54C16,.49,15.81.46,15.65.42l-1.29,15-.78-3.64a.22.22,0,0,0-.24-.2.25.25,0,0,0-.24.21l-.61,3.77-1.07-6.4a.25.25,0,0,0-.48,0L9.87,15.6,8.79,9.17a.25.25,0,0,0-.48,0L6.82,18.06V2a.24.24,0,0,0-.48-.05L2.86,19.3,2.76,4.68a12.36,12.36,0,0,0-1.15,1.7l-1.6,6s0,.07,0,.11a12.26,12.26,0,0,0,.08,1.36.35.35,0,0,0,.08-.13L2.27,5.81l.1,14c.22.31.46.61.71.9L6.33,4.46Z"/></g></g></svg>