<svg xmlns="http://www.w3.org/2000/svg" viewBox="0 0 25 25"><defs><style>.cls-1{fill:#204a46;}.cls-2{fill:#fef5e4;}</style></defs><title>icon-zhucheng</title><g id="图层_2" data-name="图层 2"><g id="图层_1-2" data-name="图层 1"><circle class="cls-1" cx="12.5" cy="12.5" r="12.5"/><path class="cls-2" d="M6.55,16.89a.34.34,0,0,0,.32.15.34.34,0,0,0,.27-.22l3-8.3,3.68,12.25a.33.33,0,0,0,.3.24h0a.32.32,0,0,0,.31-.22l3.1-8.36,2.94,3.82a.33.33,0,0,0,.33.12.31.31,0,0,0,.25-.24l2.32-9.84c-.16-.27-.32-.54-.49-.8L20.54,15.3l-2.88-3.75a.33.33,0,0,0-.31-.12.33.33,0,0,0-.26.21l-3,8L10.45,7.37a.33.33,0,0,0-.31-.24.32.32,0,0,0-.32.22L6.74,16,3.8,11.57a.35.35,0,0,0-.3-.14.31.31,0,0,0-.27.17L.67,16.51c.1.28.19.57.31.84l2.58-5Z"/></g></g></svg>