<svg xmlns="http://www.w3.org/2000/svg" viewBox="0 0 25 25"><defs><style>.cls-1{fill:#204a46;}.cls-2{fill:#fef5e4;}</style></defs><title>icon-jiuyi</title><g id="图层_2" data-name="图层 2"><g id="图层_1-2" data-name="图层 1"><circle class="cls-1" cx="12.5" cy="12.5" r="12.5"/><path class="cls-2" d="M24.74,12.87l-1.91,2.46-.82-3a.32.32,0,0,0-.3-.24.31.31,0,0,0-.33.21l-2.33,6.42-2-5.43a.35.35,0,0,0-.32-.21.33.33,0,0,0-.31.22l-1.17,3.52-2.93-2.35a.33.33,0,0,0-.39,0L8.39,16.81l-.58-3.46a.31.31,0,0,0-.31-.27.36.36,0,0,0-.33.25c-.27,1.06-.58,2.2-.82,3-.44-2.28-1.78-6.75-1.85-7a.32.32,0,0,0-.28-.23.33.33,0,0,0-.33.17L.42,15.66c.08.3.16.6.26.89L4.09,10.3a54.12,54.12,0,0,1,1.74,7.07c0,.13,0,.5.34.54S6.63,18,7.42,15l.4,2.42a.34.34,0,0,0,.2.25.34.34,0,0,0,.31,0l3.76-2.51,3.12,2.49a.33.33,0,0,0,.3.06.33.33,0,0,0,.22-.21l1-3.07,2,5.39a.33.33,0,0,0,.31.22h0a.33.33,0,0,0,.31-.22l2.29-6.29.72,2.63a.31.31,0,0,0,.25.23.31.31,0,0,0,.32-.12l2-2.56c0-.31,0-.62,0-.94A.37.37,0,0,0,24.74,12.87Z"/></g></g></svg>