<svg xmlns="http://www.w3.org/2000/svg" viewBox="0 0 25 25"><defs><style>.cls-1{fill:#204a46;}.cls-2{fill:#fef5e4;}</style></defs><title>icon-lingnan</title><g id="图层_2" data-name="图层 2"><g id="图层_1-2" data-name="图层 1"><circle class="cls-1" cx="12.5" cy="12.5" r="12.5"/><path class="cls-2" d="M25,12.17l-5,2.21-7.82-2a.33.33,0,0,0-.29.06l-3.61,3L7.13,12.62a.31.31,0,0,0-.21-.19.35.35,0,0,0-.28,0L2.84,15,.06,13.62c0,.27.06.53.1.79l2.55,1.28a.35.35,0,0,0,.33,0l3.63-2.42,1.17,2.92a.31.31,0,0,0,.23.2h.08a.34.34,0,0,0,.21-.08l3.83-3.19L20,15.05a.34.34,0,0,0,.22,0L25,12.9c0-.14,0-.27,0-.4S25,12.28,25,12.17Z"/></g></g></svg>