<svg xmlns="http://www.w3.org/2000/svg" viewBox="0 0 77.43 23.11"><defs><style>.cls-1{fill:#204a46;}.cls-2{fill:none;stroke:#fef5e4;stroke-miterlimit:10;stroke-width:0.5px;}.cls-3{fill:#fef5e4;}</style></defs><title>label_shape</title><g id="图层_2" data-name="图层 2"><g id="图层_1-2" data-name="图层 1"><rect class="cls-1" width="77.43" height="23.11" rx="2.69"/><rect class="cls-2" x="4" y="2.08" width="69.34" height="18.95" rx="2.3"/><circle class="cls-3" cx="8.69" cy="11.91" r="1"/><circle class="cls-3" cx="68.98" cy="11.91" r="1"/><path class="cls-3" d="M22.17,7.86c-.34-1.17-.85-2.43-2.52-2.43a1.7,1.7,0,0,0-1.78,1.82c0,1.08.71,1.69,2.26,2.47,2,1,3.13,1.91,3.13,3.67,0,2-1.72,3.55-4.2,3.55a9.07,9.07,0,0,1-2.93-.57c-.12-.44-.4-2.09-.53-3l.66-.15c.36,1.16,1.29,3,3.09,3a1.77,1.77,0,0,0,1.88-1.92c0-1.16-.68-1.76-2.22-2.59-1.88-1-3-1.9-3-3.7s1.42-3.29,4-3.29a12.59,12.59,0,0,1,2.5.33c.08.66.18,1.52.33,2.67Z"/><path class="cls-3" d="M29.5,16.67V16.1c.88-.12,1-.23,1-1.28v-3.1c0-1.42-.58-2-1.45-2a2.11,2.11,0,0,0-1.53.67v4.41c0,1,.11,1.16,1,1.28v.57H24.35V16.1c.94-.1,1.13-.17,1.13-1.33V6.32c0-.88-.09-1.09-1.17-1.23V4.55a15.38,15.38,0,0,0,3.17-.61V9.72A3.83,3.83,0,0,1,30,8.5c1.53,0,2.5,1,2.5,3v3.25c0,1.15.13,1.19,1.06,1.32v.57Z"/><path class="cls-3" d="M40.33,16.89a1.54,1.54,0,0,1-1-.37,1.73,1.73,0,0,1-.45-.71,6.24,6.24,0,0,1-2,1.08,2.31,2.31,0,0,1-2.36-2.28c0-.93.45-1.42,1.42-1.78a15.51,15.51,0,0,0,2.88-1.18V11c0-1.06-.45-1.66-1.28-1.66a.94.94,0,0,0-.77.38,3.63,3.63,0,0,0-.45,1.18.64.64,0,0,1-.69.55,1,1,0,0,1-1-.89c0-.3.22-.53.61-.8A8.27,8.27,0,0,1,38,8.5,2.91,2.91,0,0,1,39.78,9a2.45,2.45,0,0,1,1,2.17v3.24c0,.85.3,1.08.6,1.08a1.36,1.36,0,0,0,.59-.17l.19.58ZM38.8,12.35,37.55,13c-.6.3-.95.63-.95,1.26a1.25,1.25,0,0,0,1.16,1.37,1.52,1.52,0,0,0,1-.41Z"/><path class="cls-3" d="M42.61,9.11a20.55,20.55,0,0,0,3.07-.8V9.66s1.31-.77,1.37-.79a2.31,2.31,0,0,1,1.13-.37A3.29,3.29,0,0,1,51.32,12c0,2.67-2.12,4.41-4.45,4.89a3.27,3.27,0,0,1-1.19-.22v2.26c0,1.12.11,1.23,1.4,1.38v.56H42.45v-.56c1.13-.12,1.22-.25,1.22-1.32V10.9c0-1-.08-1.1-1.06-1.23Zm3.07,6.23a2.52,2.52,0,0,0,1.56.68c1.17,0,2-1.22,2-3.19s-1.11-3.06-2.15-3.06a2.57,2.57,0,0,0-1.39.53Z"/><path class="cls-3" d="M59.58,15a4.11,4.11,0,0,1-3.19,1.9A3.64,3.64,0,0,1,52.7,13,4.71,4.71,0,0,1,54,9.77,3.94,3.94,0,0,1,56.75,8.5a2.89,2.89,0,0,1,2.89,2.88c0,.32,0,.58-.27.64s-2.81.22-4.7.29c0,2.09,1.24,3.07,2.53,3.07a3.08,3.08,0,0,0,2.07-.85ZM56.36,9.21c-.75,0-1.44.83-1.6,2.26.84,0,1.64,0,2.5-.05.28,0,.38-.07.38-.36C57.66,10.14,57.17,9.21,56.36,9.21Z"/></g></g></svg>