<svg xmlns="http://www.w3.org/2000/svg" viewBox="0 0 77.43 23.11"><defs><style>.cls-1{fill:#204a46;}.cls-2{fill:none;stroke:#fef5e4;stroke-miterlimit:10;stroke-width:0.5px;}.cls-3{fill:#fef5e4;}</style></defs><title>label_origin</title><g id="图层_2" data-name="图层 2"><g id="图层_1-2" data-name="图层 1"><rect class="cls-1" width="77.43" height="23.11" rx="2.69"/><rect class="cls-2" x="4" y="2.08" width="69.34" height="18.95" rx="2.3"/><circle class="cls-3" cx="8.69" cy="11.91" r="1"/><circle class="cls-3" cx="68.98" cy="11.91" r="1"/><path class="cls-3" d="M18.86,5.72a5.83,5.83,0,0,1,6,6,5.92,5.92,0,0,1-6.07,6.26,5.94,5.94,0,0,1-6.13-6.07A6,6,0,0,1,18.86,5.72Zm-.3.75c-1.9,0-3.42,1.76-3.42,5s1.42,5.71,3.9,5.71c1.87,0,3.31-1.64,3.31-5C22.35,8.55,20.74,6.47,18.56,6.47Z"/><path class="cls-3" d="M30.83,17.67H26.29V17.1c1-.11,1.11-.2,1.11-1.31V11.92c0-1-.07-1.08-1-1.24v-.52a14.59,14.59,0,0,0,3-.71v2c.75-1.14,1.43-1.91,2.23-1.91a1,1,0,0,1,1.12,1A1.57,1.57,0,0,1,32,11.84a.44.44,0,0,1-.52-.07c-.3-.26-.52-.51-.84-.51s-.83.35-1.18,1.12v3.4c0,1.12.11,1.19,1.42,1.32Z"/><path class="cls-3" d="M33.64,17.67V17.1c1-.12,1.14-.2,1.14-1.46V12.06c0-1.17-.07-1.25-1-1.38v-.54a16,16,0,0,0,3-.67v6.17c0,1.23.09,1.34,1.18,1.46v.57Zm2-9.53A1.19,1.19,0,0,1,34.49,7,1.17,1.17,0,0,1,35.68,5.8,1.15,1.15,0,0,1,36.85,7,1.18,1.18,0,0,1,35.66,8.14Z"/><path class="cls-3" d="M41.41,14.93a1.13,1.13,0,0,0-.42.71c0,.3.33.67,1.06.67h2c1.12,0,2.67.42,2.67,2.19,0,2-2.39,3.65-4.78,3.65S38.65,21,38.64,20a1.2,1.2,0,0,1,.5-1c.45-.36,1-.76,1.4-1a2.47,2.47,0,0,1-1.35-1,1.47,1.47,0,0,1-.26-.91,4.9,4.9,0,0,0,1.84-1.29Zm.87.18C40.35,15.11,39,14,39,12.39c0-2,1.86-2.91,3.41-2.91a4.19,4.19,0,0,1,1.93.46,12.53,12.53,0,0,0,2.46-.26l.09.15a2.29,2.29,0,0,1-.67,1.06c-.29,0-.82-.07-1.08-.09a2.37,2.37,0,0,1,.47,1.53C45.61,14.19,44,15.11,42.28,15.11ZM42.56,18a2.39,2.39,0,0,0-1.63.36,1.59,1.59,0,0,0-.63,1.16c0,1,1,1.7,2.44,1.7s2.4-.73,2.4-1.76a1.27,1.27,0,0,0-.92-1.27A5.3,5.3,0,0,0,42.56,18Zm-.27-7.86c-.65,0-1.26.69-1.26,2.05s.52,2.29,1.41,2.29,1.24-.72,1.24-2.08S43.2,10.12,42.29,10.12Z"/><path class="cls-3" d="M47.52,17.67V17.1c1-.12,1.14-.2,1.14-1.46V12.06c0-1.17-.08-1.25-1-1.38v-.54a16.1,16.1,0,0,0,3-.67v6.17c0,1.23.09,1.34,1.18,1.46v.57Zm2-9.53A1.19,1.19,0,0,1,48.37,7,1.17,1.17,0,0,1,49.56,5.8,1.14,1.14,0,0,1,50.72,7,1.17,1.17,0,0,1,49.54,8.14Z"/><path class="cls-3" d="M57.88,17.67V17.1c.86-.11.93-.2.93-1.44v-3c0-1.27-.57-1.82-1.39-1.82a2.53,2.53,0,0,0-1.58.68v4.3c0,1.15.08,1.21.94,1.32v.57H52.7V17.1c1-.15,1.13-.19,1.13-1.36V12c0-1.11-.14-1.16-1-1.32v-.54a15.25,15.25,0,0,0,3-.7c0,.31,0,.92,0,1.34.36-.25.74-.52,1.18-.79a2.52,2.52,0,0,1,1.43-.49c1.46,0,2.37,1.06,2.37,2.86v3.41c0,1.16.11,1.21,1,1.33v.57Z"/></g></g></svg>