<svg xmlns="http://www.w3.org/2000/svg" viewBox="0 0 77.43 23.11"><defs><style>.cls-1{fill:#204a46;}.cls-2{fill:none;stroke:#fef5e4;stroke-miterlimit:10;stroke-width:0.5px;}.cls-3{fill:#fef5e4;}</style></defs><title>label_time</title><g id="图层_2" data-name="图层 2"><g id="图层_1-2" data-name="图层 1"><rect class="cls-1" width="77.43" height="23.11" rx="2.69"/><rect class="cls-2" x="4" y="2.08" width="69.34" height="18.95" rx="2.3"/><circle class="cls-3" cx="8.69" cy="11.91" r="1"/><circle class="cls-3" cx="68.98" cy="11.91" r="1"/><path class="cls-3" d="M29.34,9a6,6,0,0,0-.71-1.67c-.31-.41-.46-.55-1.5-.55H25.75v8.57c0,1.48.17,1.61,1.81,1.73v.61H21.84v-.61c1.58-.12,1.73-.25,1.73-1.73V6.76H22.29c-1,0-1.29.14-1.62.61A7.07,7.07,0,0,0,20,9h-.63c.12-1.24.24-2.55.28-3.47h.49c.27.42.48.44,1,.44h7.18a1.08,1.08,0,0,0,1-.44h.49c0,.79.08,2.27.17,3.4Z"/><path class="cls-3" d="M30.79,17.67V17.1c1-.12,1.15-.2,1.15-1.46V12.06c0-1.17-.08-1.25-1-1.38v-.54a15.82,15.82,0,0,0,3-.67v6.17c0,1.23.1,1.34,1.18,1.46v.57Zm2-9.53A1.2,1.2,0,0,1,31.64,7a1.18,1.18,0,0,1,1.2-1.17A1.14,1.14,0,0,1,34,7,1.17,1.17,0,0,1,32.82,8.14Z"/><path class="cls-3" d="M45.9,17.67V17.1c.84-.11,1-.18,1-1.33V12.69c0-1.42-.6-1.88-1.36-1.88a2.48,2.48,0,0,0-1.56.69c0,.22,0,.47,0,.76v3.59c0,1,.09,1.14,1,1.25v.57H41V17.1c.91-.11,1-.17,1-1.26V12.62c0-1.29-.47-1.82-1.29-1.82a2.65,2.65,0,0,0-1.59.68v4.36c0,1.07.11,1.15.91,1.26v.57H36V17.1C37,17,37.1,16.91,37.1,15.79V12c0-1.05,0-1.19-.94-1.33v-.53a15.42,15.42,0,0,0,2.94-.7v1.39c.39-.28.73-.54,1.18-.81a2.72,2.72,0,0,1,1.49-.52,2.08,2.08,0,0,1,2,1.4c.46-.35.85-.62,1.3-.93a2.77,2.77,0,0,1,1.44-.47c1.51,0,2.35,1,2.35,2.85v3.49c0,1.06.1,1.13,1,1.26v.57Z"/><path class="cls-3" d="M57.85,16a4.08,4.08,0,0,1-3.18,1.9A3.65,3.65,0,0,1,51,14a4.72,4.72,0,0,1,1.29-3.21A3.9,3.9,0,0,1,55,9.5a2.9,2.9,0,0,1,2.9,2.88c0,.32,0,.58-.28.64s-2.8.22-4.69.29c0,2.09,1.24,3.07,2.53,3.07a3.06,3.06,0,0,0,2.06-.85Zm-3.21-5.78c-.76,0-1.44.83-1.6,2.26.83,0,1.63,0,2.49-.05.28,0,.39-.07.39-.36C55.94,11.14,55.45,10.21,54.64,10.21Z"/></g></g></svg>