<svg xmlns="http://www.w3.org/2000/svg" viewBox="0 0 77.43 23.11"><defs><style>.cls-1{fill:#204a46;}.cls-2{fill:none;stroke:#fef5e4;stroke-miterlimit:10;stroke-width:0.5px;}.cls-3{fill:#fef5e4;}</style></defs><title>label_name</title><g id="图层_2" data-name="图层 2"><g id="图层_1-2" data-name="图层 1"><rect class="cls-1" width="77.43" height="23.11" rx="2.69"/><rect class="cls-2" x="4" y="2.08" width="69.34" height="18.95" rx="2.3"/><circle class="cls-3" cx="8.69" cy="11.91" r="1"/><circle class="cls-3" cx="68.98" cy="11.91" r="1"/><path class="cls-3" d="M30.12,5.58c-1.12.14-1.48.35-1.53,1.17,0,.66-.09,1.32-.09,2.92v7.19h-.89L20,7.71v4.22c0,1.59,0,2.33.09,2.85.06.84.46,1.2,1.78,1.28v.61H17.47v-.61c1.06-.09,1.5-.36,1.59-1.21a25.23,25.23,0,0,0,.11-2.92V7.55a1.93,1.93,0,0,0-.38-1.37c-.33-.45-.74-.52-1.54-.6V5h3.23l7.13,8.36V9.67c0-1.6,0-2.26-.08-2.88-.05-.79-.39-1.12-1.86-1.21V5h4.45Z"/><path class="cls-3" d="M36.41,16.89a1.52,1.52,0,0,1-1-.37,1.66,1.66,0,0,1-.46-.71,6.21,6.21,0,0,1-2,1.08,2.31,2.31,0,0,1-2.36-2.28c0-.93.45-1.42,1.41-1.78a14.93,14.93,0,0,0,2.88-1.18V11c0-1.06-.45-1.66-1.28-1.66a.93.93,0,0,0-.76.38,3.63,3.63,0,0,0-.45,1.18.64.64,0,0,1-.69.55,1,1,0,0,1-1-.89c0-.3.23-.53.62-.8A8.27,8.27,0,0,1,34.12,8.5,2.93,2.93,0,0,1,35.86,9a2.45,2.45,0,0,1,1,2.17v3.24c0,.85.3,1.08.6,1.08a1.36,1.36,0,0,0,.59-.17l.19.58Zm-1.54-4.54L33.63,13c-.6.3-1,.63-1,1.26a1.25,1.25,0,0,0,1.17,1.37,1.48,1.48,0,0,0,1-.41Z"/><path class="cls-3" d="M48.78,16.67V16.1c.84-.11,1-.18,1-1.33V11.69c0-1.42-.61-1.88-1.36-1.88a2.53,2.53,0,0,0-1.57.69c0,.22,0,.47,0,.76v3.59c0,1.05.09,1.14,1,1.25v.57h-4V16.1c.91-.11,1-.17,1-1.26V11.62c0-1.29-.47-1.82-1.29-1.82a2.65,2.65,0,0,0-1.59.68v4.36c0,1.07.11,1.15.9,1.26v.57h-4V16.1C39.91,16,40,15.91,40,14.79V11c0-1.05,0-1.19-.94-1.33V9.14A15.42,15.42,0,0,0,42,8.44V9.83c.39-.28.73-.54,1.18-.81a2.72,2.72,0,0,1,1.49-.52,2.08,2.08,0,0,1,2,1.4c.45-.35.85-.62,1.3-.93a2.77,2.77,0,0,1,1.44-.47c1.51,0,2.35,1,2.35,2.85v3.49c0,1.06.09,1.13,1,1.26v.57Z"/><path class="cls-3" d="M60.73,15a4.09,4.09,0,0,1-3.19,1.9A3.65,3.65,0,0,1,53.85,13a4.72,4.72,0,0,1,1.29-3.21A3.9,3.9,0,0,1,57.9,8.5a2.9,2.9,0,0,1,2.9,2.88c0,.32,0,.58-.28.64s-2.81.22-4.69.29c0,2.09,1.23,3.07,2.52,3.07a3.08,3.08,0,0,0,2.07-.85ZM57.52,9.21c-.76,0-1.44.83-1.6,2.26.83,0,1.63,0,2.49-.05.28,0,.39-.07.39-.36C58.82,10.14,58.33,9.21,57.52,9.21Z"/></g></g></svg>