<svg xmlns="http://www.w3.org/2000/svg" viewBox="0 0 103.66 278.45"><defs><style>.cls-1{fill:#a7dccc;}.cls-2{opacity:0.33;}</style></defs><title>note-character</title><g id="图层_2" data-name="图层 2"><g id="图层_1-2" data-name="图层 1"><path class="cls-1" d="M67.6,212.56c0,.22-.3.33-.73.32a5.22,5.22,0,0,0-.84-.14c-.58.77-1.3,1.67-2.15,2.72a4.41,4.41,0,0,1,.29.58c.07.3.11.51.13.61a1,1,0,0,1,0,.9c-.15.08-.47,0-1-.36l-.75-.48c-.6-.3-1.08-.57-1.46-.81-.56-.36-1.64-1-3.24-2q-3.68-2.1-6-3.45a8.59,8.59,0,0,1-1.27,1.56q-5.34,6.63-12.83,6.56-.81,0-.72-.33c-.09-.14.1-.29.55-.44a23,23,0,0,0,7.66-3.67,28.57,28.57,0,0,0,5.42-6.57q1.57-2.43,3.52-6.07a16.87,16.87,0,0,1,1.32,1.65,18,18,0,0,1,1,1.71q2,1.17,5.32,3c1.35.79,2.28,1.34,2.78,1.66l1.87-.65a3.38,3.38,0,0,1,.26.83,15.43,15.43,0,0,1,.67,1.63C67.63,212,67.68,212.43,67.6,212.56ZM55.27,205.4l-2.77,4.31,8.38,4.87q1.38-1.76,3.26-4.25Q61.36,208.67,55.27,205.4Z"/><path class="cls-1" d="M7.63,130.67H8c4.27,1.21,7.25,3.06,8.94,5.58q-.73,2.79-1.47,7.14c.76-.22,1.55-.44,2.38-.66q9.26-2.53,11.81-3.2c3.33.55,4.73,1.67,4.18,3.36a63.08,63.08,0,0,0-10.95,1.32q-6.2,1.23-14.48,3.52a17.4,17.4,0,0,1-4.27.91c-2.73-.77-4.1-1.53-4.1-2.3a.34.34,0,0,1,.33-.25h2a96.66,96.66,0,0,0,10.09-2c-.11-.28-.25-.58-.41-.91a12,12,0,0,0,.7-5.08q-.21-2.62-5.21-7.06A.77.77,0,0,0,7.63,130.67ZM13,160c-1.05.27-2.11.57-3.2.9q-4.27-.66-5.42-2,2.22,0,10.09-2.13v-.08a22.25,22.25,0,0,0,4.19-7.31v-.16a9.72,9.72,0,0,0-.33-2,2,2,0,0,1,1-2.21q4.35,3,4.35,4.51,0,.41-3.77,4a16.71,16.71,0,0,1-2.38,2.38c1.69-.55,3.55-1.12,5.57-1.73L26.83,153l2.62-.73A13.58,13.58,0,0,1,33.31,157,26.88,26.88,0,0,0,32,163.65q.25,4.59.91,20.92a5,5,0,0,0,.24.73,23.06,23.06,0,0,1-2.46,3.86,3.06,3.06,0,0,1-2.05,1.8c0,.11-.11.17-.33.17a23.83,23.83,0,0,0-7.95-8.2c-1-1.1-.47-1.45,1.72-1.07A35.44,35.44,0,0,0,29,183.5c0-1.69,0-4.36,0-8s-.43-9.64-1.19-18c0-.61-.17-1-.49-1.07H27q-5.58,1.06-13.12,3.2m.65-10.5-.08.16Q10.26,157,8.7,156.76l-.41-.08c-1.53-.17-2.79-2.16-3.78-6,.17-.22.3-.33.42-.33q2.78,2.05,4,2.21.41.09,4.84-3.36A1.11,1.11,0,0,1,14.52,149.13Z"/><path class="cls-1" d="M46.05,266.45c1.12,1.08,1.63,1.85,1.53,2.3s-.53.42-1.55,0l-1.83-1.32a100.24,100.24,0,0,0-16.07-2.73c-1-.33-1.82-1.3-2.47-2.9-.09-.63.79-.26,2.62,1.12Q36.07,264.87,46.05,266.45Zm-6.9.51a4.77,4.77,0,0,1,1.46,3.39l-.83,1.16a59.87,59.87,0,0,1-2.84,5.87,2.16,2.16,0,0,1-2.77.87q-2.18-1.71-4.1-3.11c-.28-.42.36-.35,1.92.22a17,17,0,0,0,3.69,1c.57-.29,1.6-2.39,3.08-6.27l.17-1.55C38.73,267.41,38.8,266.89,39.15,267Z"/><path class="cls-1" d="M66.44,243.05l.06,0a7,7,0,0,1,3.89.58,4.29,4.29,0,0,1,.58.61,11.89,11.89,0,0,1-.16,2.64,24.56,24.56,0,0,0,.64,3.34c.07.31.25,1.06.48,1.92,0,.17.08.31.11.41a6,6,0,0,0,1.14,2.64,1.9,1.9,0,0,0,1.4.93,6.82,6.82,0,0,0,2.92-.68c1.44-.54,2.08-1,1.93-1.32a34.34,34.34,0,0,0-.94-3.58l.07-.09a8.58,8.58,0,0,1,1,1.15A10.77,10.77,0,0,0,81.17,253a2,2,0,0,1,.38.48l.16.43a1.11,1.11,0,0,1-.31,1.29,16.36,16.36,0,0,1-4.68,1.94c-1.78.67-3.07.59-3.85-.23a9.2,9.2,0,0,1-1.24-2.4q-.73-1.84-2.31-8c0-.12-.1-.4-.19-.85a3.32,3.32,0,0,0-1.44-1.54,4.12,4.12,0,0,1-1.23-1Z"/><g class="cls-2"><path class="cls-1" d="M85.49,44.23l1.38.71q7.71,4,7.51,7.76c-.12.22-.45,1.15-1,2.75-.87,1.14-1.37,1.68-1.48,1.62q-16.48-8.46-30.8-9.31c-.23-.12-3-.26-8.45-.44Q43,58.62,39.36,65.65a26.07,26.07,0,0,0-3.08,13.16c.44,2,2.14,4.14,5.11,6.53q4.28,3.06,7.8,5.09,15.8,7.26,27.41,10c1.38.71,4.53,1.32,9.47,1.83a7.27,7.27,0,0,0,5-2Q92.13,99.7,97.34,90l.34-.25a.8.8,0,0,1,.1-.6l.52-.6-.08-.26L99.1,87l.79-1.54c.58-1.14,1.44-2.95,2.56-5.41l1-.33.17.09c0,.29-.22,2.12-.66,5.51a68.14,68.14,0,0,0-.29,17.86,14.23,14.23,0,0,1-1.53,6.8l-.09.17c-2.06,3.43-3.76,4.79-5.14,4.08-3.68.43-6.56.26-8.62-.52q-6.64-1-18.75-6.16-4.29-1.76-11.93-5.48Q30.73,88.77,29.29,78.48q-1.65-6.06,6.46-22.28c-.12-.06.41-1.23,1.59-3.52q1.75-3,3.26-5.92l-6.81-.68c-.58-.29-1.57-.73-3-1.32q-7.28-5.26-6.22-7.32c-.23-.12-.31-.23-.25-.35.29-.57,2.22-.23,5.76,1Q35.68,39,44.73,40q1.49-2.06,2.63-3.85L47.72,35l2.11-4.12a10.9,10.9,0,0,0,1.28-7.15,22.8,22.8,0,0,1-3.79-.65l-.24-1.2-.95.16c-.11-.06-.11-.2,0-.44l.08-.16Q75,12.77,76.45,11.17a9.79,9.79,0,0,0,3.49-3.41,40.76,40.76,0,0,1,2.14-6.71c.53-1,2-1.3,4.32-.82l3.51,3.32q8,9.31,4.74,15.67Q93.6,21.28,85.06,21a232.75,232.75,0,0,1-25,2.15l-2.77.31A29.79,29.79,0,0,1,62,32.15c.66,3,.73,4.93.2,6l-.44.86A14.76,14.76,0,0,1,59,41.44Q79.46,43.72,80,44,84.47,43.7,85.49,44.23Z"/></g></g></g></svg>