<svg xmlns="http://www.w3.org/2000/svg" viewBox="0 0 149.04 427.4"><defs><style>.cls-1{fill:#fef5e4;}</style></defs><title>playpanel-qin</title><g id="图层_2" data-name="图层 2"><g id="图层_1-2" data-name="图层 1"><path class="cls-1" d="M131.23,145.65s-.4-20.28,13.84-24.47L145.44,76a6.59,6.59,0,0,0-6.4-6.19c-25.32-.66-122.51-2.63-136.81,5.85L2,89.93c6.14,4.74,8.66,12.56,8.66,12.56,7.81,14.23,2.23,109.68,2.23,118.89S0,248.45,0,248.45l4.5,170a260.46,260.46,0,0,0,138.75-.91l5.79-168S124.26,235,131.23,145.65Zm-116,43.7A4.88,4.88,0,1,1,20.27,194,4.87,4.87,0,0,1,15.2,189.35ZM17,226.43a4.88,4.88,0,1,1,5.07,4.7A4.88,4.88,0,0,1,17,226.43Zm1.68,36.82a4.88,4.88,0,1,1,5.07,4.69A4.87,4.87,0,0,1,18.71,263.25ZM21,304A4.88,4.88,0,1,1,26,308.64,4.88,4.88,0,0,1,21,304Zm9.62,81.64a4.88,4.88,0,1,1,4.69-5.07A4.88,4.88,0,0,1,30.57,385.59Z"/><path class="cls-1" d="M145.13,62.58V7.25a5.94,5.94,0,0,0-5.7-5.95C115.42.35,22.86-2.71,1.86,6L1.12,67S59.91,55.5,145.13,62.58ZM18.23,62c-3.28,0-6-1.79-6-4s2.67-4,6-4,6,1.79,6,4S21.52,62,18.23,62ZM36,59.26c-3.29,0-6-1.79-6-4s2.67-4,6-4,6,1.79,6,4S39.26,59.26,36,59.26Zm17.74-2.77c-3.29,0-6-1.79-6-4s2.67-4,6-4,6,1.79,6,4S57,56.49,53.72,56.49Zm17.74-.92c-3.29,0-6-1.79-6-4s2.67-4,6-4,6,1.79,6,4S74.75,55.57,71.46,55.57Zm53.22-3.39c3.29,0,6,1.79,6,4s-2.67,4-6,4-6-1.79-6-4S121.39,52.18,124.68,52.18Zm-17.74-1.85c3.29,0,6,1.8,6,4s-2.66,4-6,4-6-1.8-6-4S103.65,50.33,106.94,50.33ZM83.25,52.49c0-2.21,2.66-4,6-4s6,1.79,6,4-2.66,4-6,4S83.25,54.7,83.25,52.49Z"/></g></g></svg>