<svg xmlns="http://www.w3.org/2000/svg" viewBox="0 0 96.76 260"><defs><style>.cls-1{font-size:20.06px;font-family:FZCUJINLJW--GB1-0, FZJinLS-B-GB;}.cls-2{fill:none;stroke:#204a46;stroke-miterlimit:10;stroke-width:0.59px;}</style></defs><title>shape_lingji</title><g id="图层_2" data-name="图层 2"><g id="图层_1-2" data-name="图层 1"><circle cx="9.91" cy="238.91" r="2.56"/><text class="cls-1" transform="translate(17.75 245.54)">灵机式</text><circle cx="85.39" cy="238.91" r="2.56"/><circle class="cls-2" cx="8.6" cy="39.66" r="1.01"/><circle class="cls-2" cx="8.6" cy="47.62" r="1.01"/><circle class="cls-2" cx="8.6" cy="53.74" r="1.01"/><circle class="cls-2" cx="9.21" cy="63.53" r="1.01"/><circle class="cls-2" cx="9.21" cy="79.45" r="1.01"/><circle class="cls-2" cx="9.83" cy="91.69" r="1.01"/><circle class="cls-2" cx="11.05" cy="111.28" r="1.01"/><circle class="cls-2" cx="11.66" cy="130.25" r="1.01"/><circle class="cls-2" cx="12.89" cy="143.11" r="1.01"/><circle class="cls-2" cx="13.5" cy="159.02" r="1.01"/><circle class="cls-2" cx="14.11" cy="168.82" r="1.01"/><circle class="cls-2" cx="14.11" cy="175.55" r="1.01"/><circle class="cls-2" cx="14.72" cy="183.51" r="1.01"/><circle class="cls-2" cx="86.89" cy="157.58" r="2.14"/><circle class="cls-2" cx="66.17" cy="155.12" r="2.14"/><line class="cls-2" x1="67.08" y1="157.26" x2="75.04" y2="208.68"/><line class="cls-2" x1="86.67" y1="159.71" x2="79.33" y2="208.68"/><rect class="cls-2" x="73.82" y="163.99" width="4.9" height="22.04" rx="2.45"/><rect class="cls-2" x="65.25" y="12.19" width="24.48" height="4.9" rx="1.13"/><circle class="cls-2" cx="67.7" cy="14.64" r="1.22"/><circle class="cls-2" cx="70.96" cy="14.64" r="1.22"/><circle class="cls-2" cx="74.23" cy="14.64" r="1.22"/><circle class="cls-2" cx="77.49" cy="14.64" r="1.22"/><circle class="cls-2" cx="80.75" cy="14.64" r="1.22"/><circle class="cls-2" cx="87.28" cy="14.64" r="1.22"/><circle class="cls-2" cx="84.02" cy="14.64" r="1.22"/><rect class="cls-2" x="75.65" y="64.83" width="5.51" height="38.56" rx="2.75"/><path class="cls-2" d="M5,14.94a12.52,12.52,0,0,1-1.83,3.68c-.62.61-.62,3.06,1.83,4.89,0,0,1.53,3.37-.91,5.82s.61,5.51.61,5.51S5.87,38.51,3.42,41,4,47.69,4,47.69,6.48,52.59,2.2,55s0,8.57,0,8.57,1.84,1.83.61,6.73-2.45,7.35,0,11,0,9.79,0,9.79S.36,94.21,4,98.5s-.62,9.79-.62,9.79-1.83,1.23,1.23,7.35c0,0,.61,4.89-.61,7.34s.61,5.51.61,5.51A9,9,0,0,1,4,135.22c-1.84,3.07,1.83,4.29,1.83,4.29s1.84,3.06.61,4.9c0,0-4.28,8.57-1.83,12.24,2.09,3.13,1.95,8.94,1.86,10.58,0,.29,0,.57,0,.86a14.49,14.49,0,0,1-.61,4.47c-.61,1.23-.61,4.29,1.23,7.35,0,0,1.22,4.9,0,8,0,0-2.45,3.06.61,6.73V205s6.12,7.34,8.57,3.67H20"/><path class="cls-2" d="M19.88,208.68h2.45c2.45,3.67,8.57-3.67,8.57-3.67V194.6c3.06-3.67.61-6.73.61-6.73-1.22-3.06,0-8,0-8,1.84-3.06,1.84-6.12,1.23-7.35a14.49,14.49,0,0,1-.61-4.47l0-.86c-.09-1.64-.23-7.45,1.86-10.58,2.45-3.67-1.84-12.24-1.84-12.24-1.22-1.84.62-4.9.62-4.9s3.67-1.22,1.83-4.29a9,9,0,0,1-.61-6.73s1.84-3.06.61-5.51-.61-7.34-.61-7.34c3.06-6.12,1.23-7.35,1.23-7.35s-4.29-5.51-.62-9.79,1.23-7.35,1.23-7.35-2.45-6.12,0-9.79,1.22-6.12,0-11,.61-6.73.61-6.73,4.28-6.12,0-8.57-1.84-7.35-1.84-7.35,3.06-4.28.62-6.73S34,34.84,34,34.84s3.06-3.06.61-5.51-.91-5.82-.91-5.82c2.44-1.83,2.44-4.28,1.83-4.89a15.55,15.55,0,0,1-2.07-4"/><path class="cls-2" d="M78.1,208.68H74.43C72,212.35,65.86,205,65.86,205V194.6c-3.06-3.67-.61-6.73-.61-6.73,1.22-3.06,0-8,0-8-1.84-3.06-1.84-6.12-1.23-7.35a14.49,14.49,0,0,0,.61-4.47l0-.86c.09-1.64.23-7.45-1.86-10.58-2.45-3.67,1.84-12.24,1.84-12.24,1.22-1.84-.62-4.9-.62-4.9s-3.67-1.22-1.83-4.29a9,9,0,0,0,.61-6.73S61,125.43,62.19,123s.61-7.34.61-7.34c-3.06-6.12-1.23-7.35-1.23-7.35s4.29-5.51.62-9.79S61,91.15,61,91.15s2.45-6.12,0-9.79-1.22-6.12,0-11-.61-6.73-.61-6.73-4.28-6.12,0-8.57,1.84-7.35,1.84-7.35-3.06-4.28-.62-6.73,1.23-6.12,1.23-6.12-3.06-3.06-.61-5.51.92-5.82.92-5.82c-2.45-1.83-2.45-4.28-1.84-4.89a12.37,12.37,0,0,0,1.84-3.68s-.92-6.42-1.54-7.65S59.13,0,62.8,1.17c0,0,1.22.61,1.22,1.22s14.08,2.45,25.71,0c0,0,3.68-4.28,4.29-.61,0,0,.61,3.67-.61,4.9s-1.84,8-1.84,8a15.9,15.9,0,0,0,2.07,4c.62.61.62,3.06-1.83,4.89,0,0-1.53,3.37.92,5.82s-.62,5.51-.62,5.51S90.89,38.51,93.34,41s-.61,6.73-.61,6.73-2.45,4.9,1.83,7.35,0,8.57,0,8.57-1.83,1.83-.61,6.73,2.45,7.35,0,11,0,9.79,0,9.79,2.45,3.06-1.22,7.35.61,9.79.61,9.79,1.83,1.23-1.23,7.35c0,0-.61,4.89.62,7.34s-.62,5.51-.62,5.51a8.94,8.94,0,0,0,.62,6.73c1.83,3.07-1.84,4.29-1.84,4.29s-1.84,3.06-.61,4.9c0,0,4.28,8.57,1.83,12.24-2.09,3.13-2,8.94-1.86,10.58,0,.29,0,.57,0,.86a14.49,14.49,0,0,0,.61,4.47c.61,1.23.61,4.29-1.23,7.35,0,0-1.22,4.9,0,8,0,0,2.45,3.06-.61,6.73V205s-6.12,7.34-8.57,3.67H78"/><path class="cls-2" d="M36.17,13.11A80.15,80.15,0,0,0,20.26,12,80.21,80.21,0,0,0,4.34,13.11c-1.22,0-.61,1.83-.61,1.83a92.62,92.62,0,0,1,16.53-1.22,92.56,92.56,0,0,1,16.52,1.22S37.4,13.11,36.17,13.11Z"/><path class="cls-2" d="M5,12.8,3.73,4.54S3.12,2.09,8,1.48a115.69,115.69,0,0,1,25.71,0s3.68.61,3.06,3.67L35.25,12.8"/><path class="cls-2" d="M4.6,9.89s15.66-4.44,31,0"/><line class="cls-2" x1="28.83" y1="12.49" x2="22.09" y2="208.68"/><line class="cls-2" x1="25.31" y1="12.26" x2="21.23" y2="208.68"/><line class="cls-2" x1="22.4" y1="11.88" x2="20.36" y2="208.68"/><line class="cls-2" x1="18.83" y1="12.09" x2="19.49" y2="208.68"/><line class="cls-2" x1="15.05" y1="12.15" x2="18.62" y2="208.68"/><line class="cls-2" x1="11.99" y1="12.19" x2="17.76" y2="208.68"/><line class="cls-2" x1="8.42" y1="12.49" x2="16.89" y2="208.68"/><path class="cls-2" d="M7.81,197.36s1.43,0,2,4.28a4,4,0,0,0,1.84,3.06s4.59.92,4.59,4"/><path class="cls-2" d="M31,197.36s-1.43,0-2,4.28a4,4,0,0,1-1.84,3.06s-4.59.92-4.59,4"/><path d="M29.11,255.88a14.17,14.17,0,0,1-.56,1.61,8.58,8.58,0,0,1-1.84.26c-2.69,0-3.8-1.73-3.8-3.32,0-2.07,1.58-3.47,4-3.47a10.59,10.59,0,0,1,1.89.24c0,.47.12,1.21.19,1.65l-.4.07a1.72,1.72,0,0,0-1-1.36,2.52,2.52,0,0,0-.87-.14c-1.45,0-2.18,1.21-2.18,2.78,0,1.83.94,3.07,2.31,3.07.84,0,1.4-.44,1.94-1.54Z"/><path d="M29.76,257.6v-.34c.57-.09.59-.14.59-.77v-4.55c0-.52-.06-.58-.58-.69v-.32a10.32,10.32,0,0,0,1.87-.34v5.9c0,.66,0,.7.6.77v.34Z"/><path d="M36.72,256.62a2.29,2.29,0,0,1-1.83,1.1,2,2,0,0,1-2.1-2.18,2.63,2.63,0,0,1,.75-1.8,2.24,2.24,0,0,1,1.56-.7,1.64,1.64,0,0,1,1.65,1.63c0,.17,0,.34-.13.37s-1.6.12-2.57.16c0,1.06.63,1.6,1.35,1.6a1.72,1.72,0,0,0,1.14-.45Zm-1.82-3.17c-.4,0-.74.47-.8,1.26l1.21,0c.14,0,.2,0,.2-.2C35.52,254,35.29,253.45,34.9,253.45Z"/><path d="M42,253.5c-.54.09-.62.2-.83.67-.35.8-.87,2-1.47,3.54h-.42c-.5-1.24-1-2.42-1.44-3.57a.82.82,0,0,0-.8-.64v-.34h2.5v.34c-.45.09-.51.17-.39.5.25.69.61,1.65.77,2.06.17-.44.51-1.31.74-2,.1-.3.08-.49-.54-.56v-.34H42Z"/><path d="M46.11,256.62a2.29,2.29,0,0,1-1.83,1.1,2,2,0,0,1-2.1-2.18,2.63,2.63,0,0,1,.75-1.8,2.24,2.24,0,0,1,1.56-.7,1.64,1.64,0,0,1,1.65,1.63c0,.17,0,.34-.13.37s-1.6.12-2.57.16c0,1.06.63,1.6,1.35,1.6a1.72,1.72,0,0,0,1.14-.45Zm-1.82-3.17c-.4,0-.74.47-.8,1.26l1.21,0c.14,0,.2,0,.2-.2C44.91,254,44.68,253.45,44.29,253.45Z"/><path d="M49.38,257.6H46.74v-.34c.53-.06.58-.11.58-.71v-2.19c0-.5,0-.55-.51-.65v-.31a9.63,9.63,0,0,0,1.8-.38v1.08c.45-.69.81-1.06,1.22-1.06a.61.61,0,0,1,.65.6,1,1,0,0,1-.51.85.27.27,0,0,1-.31-.05c-.17-.14-.3-.3-.47-.3s-.4.13-.58.51v1.9c0,.6.07.63.77.71Z"/><path d="M55.83,254.46c-.26-.7-.6-1-1.07-1a.51.51,0,0,0-.53.53c0,.35.25.54.77.77.81.36,1.36.7,1.36,1.49a1.64,1.64,0,0,1-1.82,1.49,3.31,3.31,0,0,1-1.27-.3c0-.23-.13-.92-.16-1.27l.33-.06c.21.63.62,1.22,1.27,1.22a.51.51,0,0,0,.57-.52c0-.31-.15-.54-.77-.84s-1.3-.67-1.3-1.5.65-1.41,1.71-1.41a4.61,4.61,0,0,1,1.08.15c0,.27.12.91.16,1.18Z"/><path d="M59,257.61a1.09,1.09,0,0,1-.4.11c-.77,0-1.23-.36-1.23-1.27v-2.79H56.7l-.06-.12.29-.38h.41v-.83l1.18-.8.13.08c0,.27,0,.8,0,1.55h1a.43.43,0,0,1-.08.5h-.92v2.45c0,.78.32.87.51.87a1.22,1.22,0,0,0,.48-.1l.1.36Z"/><path d="M64.89,253.5c-.48.07-.58.17-.83.71s-.53,1.27-1.11,2.66a29.34,29.34,0,0,0-1.06,2.85.35.35,0,0,1-.36.28.75.75,0,0,1-.79-.64c0-.15.06-.23.27-.36a2,2,0,0,0,.84-.72,3.62,3.62,0,0,0,.25-.56.51.51,0,0,0,0-.38c-.52-1.44-1.16-2.81-1.34-3.23a.8.8,0,0,0-.78-.61v-.34h2.5v.34c-.43.07-.5.14-.39.45l.78,2.11c.22-.55.58-1.47.76-2,.1-.32,0-.45-.53-.53v-.34h1.83Z"/><path d="M64.9,257.6v-.34c.57-.09.59-.14.59-.77v-4.55c0-.52-.06-.58-.58-.69v-.32a10.32,10.32,0,0,0,1.87-.34v5.9c0,.66,0,.7.6.77v.34Z"/><path d="M71.86,256.62a2.29,2.29,0,0,1-1.83,1.1,2,2,0,0,1-2.1-2.18,2.63,2.63,0,0,1,.75-1.8,2.24,2.24,0,0,1,1.56-.7,1.64,1.64,0,0,1,1.65,1.63c0,.17,0,.34-.13.37s-1.6.12-2.57.16c0,1.06.63,1.6,1.35,1.6a1.72,1.72,0,0,0,1.14-.45ZM70,253.45c-.4,0-.74.47-.8,1.26l1.21,0c.14,0,.2,0,.2-.2C70.66,254,70.43,253.45,70,253.45Z"/></g></g></svg>