<svg xmlns="http://www.w3.org/2000/svg" viewBox="0 0 92.33 262.87"><defs><style>.cls-1{font-size:20.06px;font-family:FZCUJINLJW--GB1-0, FZJinLS-B-GB;}.cls-2,.cls-3{fill:none;stroke:#204a46;stroke-miterlimit:10;}.cls-2{stroke-width:0.59px;}.cls-3{stroke-width:1.96px;}</style></defs><title>shape_jiaoye</title><g id="图层_2" data-name="图层 2"><g id="图层_1-2" data-name="图层 1"><circle cx="11.57" cy="241.81" r="2.56"/><text class="cls-1" transform="translate(19.41 248.44)">蕉叶式</text><circle cx="87.05" cy="241.81" r="2.56"/><path class="cls-2" d="M18.25,209.31H13.68l-.33,1c-7.83-.66-9.14-5.88-9.14-5.88l-.65-39.83c1.31-2,1.31-6.53,0-9.14a10.21,10.21,0,0,1-.65-5.88c0-.65,2-3.91.65-6.53a9.4,9.4,0,0,1-.65-7.18,7.17,7.17,0,0,0,0-5.22c-.66-1.31-.66-6.53-.66-6.53l-2-68.56C.29,51.62,1,51,1,51a5.22,5.22,0,0,0,2-5.88c-1.31-2-2.62-3.91-1.31-5.87s1.31-3.27.65-5.88,0-5.88,1.31-9.14-2-6.53-2-6.53V3.31s16-4.9,29.06,0V17.67s-3.27,3.26-2,6.53,2,6.53,1.3,9.14-.65,3.92.66,5.88,0,3.91-1.31,5.87a5.21,5.21,0,0,0,2,5.88s.65.65.65,4.57L30,124.1s0,5.22-.65,6.53a7.17,7.17,0,0,0,0,5.22A9.49,9.49,0,0,1,28.7,143c-1.31,2.62.65,5.88.65,6.53a10.3,10.3,0,0,1-.65,5.88c-1.31,2.61-1.31,7.18,0,9.14L28,204.41s-1.3,5.22-9.14,5.88l-.32-1H14"/><path class="cls-2" d="M1.65,11a45.27,45.27,0,0,1,29.06,0"/><path class="cls-2" d="M1.27,13.43s15-3.92,29.39,0"/><path class="cls-2" d="M1.65,16.26s15.62-2.07,29,0"/><line class="cls-2" x1="26.41" y1="14.41" x2="18.58" y2="208.98"/><line class="cls-2" x1="22.82" y1="14.08" x2="17.6" y2="209.31"/><line class="cls-2" x1="19.23" y1="13.75" x2="16.78" y2="209.33"/><line class="cls-2" x1="16.29" y1="14.08" x2="15.64" y2="209.31"/><line class="cls-2" x1="12.7" y1="13.75" x2="14.66" y2="208.98"/><line class="cls-2" x1="9.76" y1="14.08" x2="14.33" y2="209.31"/><line class="cls-2" x1="6.17" y1="14.41" x2="13.7" y2="209.41"/><circle class="cls-2" cx="5.84" cy="14.08" r="0.65"/><circle class="cls-2" cx="9.24" cy="13.43" r="0.65"/><circle class="cls-2" cx="16.03" cy="13.43" r="0.65"/><circle class="cls-2" cx="22.82" cy="13.43" r="0.65"/><circle class="cls-2" cx="26.09" cy="14.08" r="0.65"/><circle class="cls-2" cx="19.43" cy="13.43" r="0.65"/><circle class="cls-2" cx="12.64" cy="13.43" r="0.65"/><circle class="cls-2" cx="6.8" cy="46.65" r="1.07"/><circle class="cls-2" cx="6.8" cy="53.18" r="1.07"/><circle class="cls-2" cx="6.8" cy="62.32" r="1.07"/><circle class="cls-2" cx="7.45" cy="77.99" r="1.07"/><circle class="cls-2" cx="8.1" cy="91.05" r="1.07"/><circle class="cls-2" cx="8.76" cy="110.63" r="1.07"/><circle class="cls-2" cx="9.41" cy="129.57" r="1.07"/><circle class="cls-2" cx="10.06" cy="142.63" r="1.07"/><circle class="cls-2" cx="10.71" cy="158.95" r="1.07"/><circle class="cls-2" cx="10.71" cy="168.09" r="1.07"/><circle class="cls-2" cx="11.37" cy="175.28" r="1.07"/><circle class="cls-2" cx="11.37" cy="183.11" r="1.07"/><path class="cls-2" d="M28.09,191.47s-2.45,1.51-2.45,5.43-2,6.69-9.19,7.59h-.77c-7.14-.9-9.18-3.67-9.18-7.59s-2.45-5.43-2.45-5.43"/><path class="cls-2" d="M4.17,199.31s.37,4.12,3,5.43,6.53,2,6.53,3.91"/><path class="cls-2" d="M28,199.31s-.36,4.12-3,5.43-6.53,2-6.53,3.91"/><path class="cls-2" d="M73.1,209.31h-2c-4.57,3.26-9.8-4.57-9.8-4.57L60,175.35c-.65-5.22.65-5.22.65-5.22,1.31-2.61,0-9.14,0-9.14a13.17,13.17,0,0,1-1.3-3.92c0-1.3.65-2.61,1.3-4.57a3.28,3.28,0,0,0-.65-3.26s-2.61-2-.65-7.19-.66-7.18-.66-7.18l-3.92-77.7,1.31-1.3c2.61-2.62,2-6.53,2-6.53s-2.61-3.92-.65-5.88a5.1,5.1,0,0,0,1.3-4.57c-1.3-3.26-2.61-7.18-1.3-7.83s1.3-3.27,1.3-3.27V24.53c.66-2.62-2-3.92-2-3.92V4.28s-2-3.26.66-3.91c0,0,2-.66,3.26,2H72.44"/><path class="cls-2" d="M73.75,209.31h2c4.57,3.26,9.79-4.57,9.79-4.57l1.31-29.39c.65-5.22-.65-5.22-.65-5.22-1.31-2.61,0-9.14,0-9.14a13.17,13.17,0,0,0,1.3-3.92c0-1.3-.65-2.61-1.3-4.57a3.25,3.25,0,0,1,.65-3.26s2.61-2,.65-7.19.65-7.18.65-7.18L92,57.17l-1.3-1.3c-2.62-2.62-2-6.53-2-6.53s2.61-3.92.65-5.88a5.12,5.12,0,0,1-1.31-4.57c1.31-3.26,2.62-7.18,1.31-7.83s-1.31-3.27-1.31-3.27V24.53c-.65-2.62,2-3.92,2-3.92V4.28S92,1,89.42.37c0,0-2-.66-3.26,2H71.79"/><rect class="cls-2" x="60.04" y="13.43" width="27.42" height="5.22" rx="1.37"/><circle class="cls-2" cx="63.3" cy="16.04" r="1.31"/><circle class="cls-2" cx="66.79" cy="16.04" r="1.31"/><circle class="cls-2" cx="70.27" cy="16.04" r="1.31"/><circle class="cls-2" cx="73.75" cy="16.04" r="1.31"/><circle class="cls-2" cx="77.23" cy="16.04" r="1.31"/><circle class="cls-2" cx="84.2" cy="16.04" r="1.31"/><circle class="cls-2" cx="80.71" cy="16.04" r="1.31"/><rect class="cls-2" x="70.49" y="65.01" width="5.88" height="42.44" rx="2.94"/><rect class="cls-2" x="71.79" y="164.25" width="3.92" height="22.85" rx="1.96"/><circle class="cls-2" cx="62.65" cy="155.77" r="2.61"/><circle class="cls-2" cx="83.54" cy="155.77" r="2.61"/><line class="cls-3" x1="63.63" y1="158.21" x2="71.63" y2="209.39"/><line class="cls-3" x1="82.24" y1="157.73" x2="75.06" y2="209.23"/><path d="M18.41,256.88c1.05.19,1.79.69,1.79,1.64a1.8,1.8,0,0,1-1,1.52,4,4,0,0,1-1.9.42h-2.8v-.37c.77-.08.85-.13.85-1v-3.81c0-.84-.13-.93-.84-1V254h3a2.94,2.94,0,0,1,1.64.35,1.29,1.29,0,0,1,.61,1.11A1.64,1.64,0,0,1,18.41,256.88Zm-1.27-.13c.95,0,1.3-.41,1.3-1.15a1.08,1.08,0,0,0-1.12-1.2,1,1,0,0,0-.47.08c-.11.07-.1.16-.1.37v1.9Zm-.39,2.35c0,.72.33.94.87.93s1.09-.49,1.09-1.42-.49-1.43-1.61-1.43h-.35Z"/><path d="M24.29,260.58a.92.92,0,0,1-.62-.21,1,1,0,0,1-.26-.37,3.7,3.7,0,0,1-1.06.58A1.31,1.31,0,0,1,21,259.29c0-.53.24-.77.77-1a8.39,8.39,0,0,0,1.61-.66v-.44c0-.52-.19-.81-.62-.81a.49.49,0,0,0-.4.2,1.91,1.91,0,0,0-.24.66.4.4,0,0,1-.43.34.61.61,0,0,1-.59-.52c0-.18.12-.31.35-.47a4.92,4.92,0,0,1,1.6-.71,1.76,1.76,0,0,1,1,.29,1.35,1.35,0,0,1,.55,1.23v1.73c0,.48.16.6.32.6a.75.75,0,0,0,.31-.08l.11.34Zm-.92-2.52-.56.31a.72.72,0,0,0-.49.68.68.68,0,0,0,.61.76.56.56,0,0,0,.44-.16Z"/><path d="M28.57,260.46v-.34c.42-.06.45-.1.45-.79v-1.71c0-.71-.35-.93-.7-.93a1.22,1.22,0,0,0-.75.3v2.42c0,.61,0,.65.45.71v.34H25.7v-.34c.52-.09.58-.1.58-.75v-2.08c0-.6-.08-.63-.52-.72v-.32a10.44,10.44,0,0,0,1.83-.38c0,.14,0,.49,0,.72.2-.14.41-.29.64-.43a1.37,1.37,0,0,1,.78-.26c.81,0,1.32.59,1.32,1.61v1.89c0,.62.06.65.54.72v.34Z"/><path d="M34.64,260.58a.92.92,0,0,1-.62-.21,1,1,0,0,1-.26-.37,3.7,3.7,0,0,1-1.06.58,1.31,1.31,0,0,1-1.36-1.29c0-.53.24-.77.77-1a8.39,8.39,0,0,0,1.61-.66v-.44c0-.52-.19-.81-.62-.81a.49.49,0,0,0-.4.2,1.91,1.91,0,0,0-.24.66.4.4,0,0,1-.43.34.61.61,0,0,1-.59-.52c0-.18.12-.31.35-.47a4.92,4.92,0,0,1,1.6-.71,1.76,1.76,0,0,1,1,.29,1.35,1.35,0,0,1,.55,1.23v1.73c0,.48.16.6.32.6a.75.75,0,0,0,.31-.08l.11.34Zm-.92-2.52-.56.31a.72.72,0,0,0-.49.68.68.68,0,0,0,.61.76.56.56,0,0,0,.44-.16Z"/><path d="M38.92,260.46v-.34c.42-.06.45-.1.45-.79v-1.71c0-.71-.35-.93-.7-.93a1.22,1.22,0,0,0-.75.3v2.42c0,.61,0,.65.45.71v.34H36.05v-.34c.52-.09.58-.1.58-.75v-2.08c0-.6-.08-.63-.52-.72v-.32a10.44,10.44,0,0,0,1.83-.38c0,.14,0,.49,0,.72.2-.14.41-.29.64-.43a1.37,1.37,0,0,1,.78-.26c.81,0,1.32.59,1.32,1.61v1.89c0,.62.06.65.54.72v.34Z"/><path d="M45,260.58a.92.92,0,0,1-.62-.21,1,1,0,0,1-.26-.37,3.7,3.7,0,0,1-1.06.58,1.31,1.31,0,0,1-1.36-1.29c0-.53.24-.77.77-1a8.39,8.39,0,0,0,1.61-.66v-.44c0-.52-.19-.81-.62-.81a.49.49,0,0,0-.4.2,1.91,1.91,0,0,0-.24.66.4.4,0,0,1-.43.34.61.61,0,0,1-.59-.52c0-.18.12-.31.35-.47a4.92,4.92,0,0,1,1.6-.71,1.76,1.76,0,0,1,1,.29,1.35,1.35,0,0,1,.55,1.23v1.73c0,.48.16.6.32.6a.75.75,0,0,0,.31-.08l.11.34Zm-.92-2.52-.56.31a.72.72,0,0,0-.49.68.68.68,0,0,0,.61.76.56.56,0,0,0,.44-.16Z"/><path d="M48.5,260.46v-.34c.57-.09.59-.14.59-.77V254.8c0-.52-.06-.58-.58-.69v-.32a10.32,10.32,0,0,0,1.87-.34v5.9c0,.66,0,.7.6.77v.34Z"/><path d="M55.46,259.48a2.29,2.29,0,0,1-1.83,1.1,2,2,0,0,1-2.1-2.18,2.63,2.63,0,0,1,.75-1.8,2.24,2.24,0,0,1,1.56-.7,1.64,1.64,0,0,1,1.65,1.63c0,.17,0,.34-.13.37s-1.6.12-2.57.16c0,1.06.63,1.6,1.35,1.6a1.72,1.72,0,0,0,1.14-.45Zm-1.82-3.17c-.4,0-.74.47-.8,1.26l1.21,0c.14,0,.2,0,.2-.2C54.26,256.84,54,256.31,53.64,256.31Z"/><path d="M59.37,260.58a.92.92,0,0,1-.62-.21,1,1,0,0,1-.26-.37,3.7,3.7,0,0,1-1.06.58,1.31,1.31,0,0,1-1.36-1.29c0-.53.24-.77.77-1a8.39,8.39,0,0,0,1.61-.66v-.44c0-.52-.19-.81-.62-.81a.49.49,0,0,0-.4.2,1.91,1.91,0,0,0-.24.66.4.4,0,0,1-.43.34.61.61,0,0,1-.59-.52c0-.18.12-.31.35-.47a4.92,4.92,0,0,1,1.6-.71,1.76,1.76,0,0,1,1,.29,1.35,1.35,0,0,1,.55,1.23v1.73c0,.48.16.6.32.6a.75.75,0,0,0,.31-.08l.11.34Zm-.92-2.52-.56.31a.72.72,0,0,0-.49.68.68.68,0,0,0,.61.76.56.56,0,0,0,.44-.16Z"/><path d="M61.3,256v-.21a2.45,2.45,0,0,1,1-1.84,2.27,2.27,0,0,1,1.23-.52,1.27,1.27,0,0,1,.87.28.41.41,0,0,1,.09.45.83.83,0,0,1-.36.44.27.27,0,0,1-.37,0c-.24-.25-.54-.57-.82-.57s-.31.27-.3,1.56V256h.92a.54.54,0,0,1-.14.5h-.78v2.85c0,.62.07.67.71.75v.34H60.71v-.34c.56-.08.59-.13.59-.75v-2.85h-.66l0-.13.26-.37Z"/><path d="M68.82,257.32c-.26-.7-.6-1-1.07-1a.51.51,0,0,0-.53.53c0,.35.25.54.77.77.81.36,1.36.7,1.36,1.49a1.64,1.64,0,0,1-1.82,1.49,3.31,3.31,0,0,1-1.27-.3c0-.23-.13-.92-.16-1.27l.33-.06c.21.63.62,1.22,1.27,1.22a.51.51,0,0,0,.57-.52c0-.31-.15-.54-.77-.84s-1.3-.67-1.3-1.5.65-1.41,1.71-1.41a4.61,4.61,0,0,1,1.08.15c0,.27.12.91.16,1.18Z"/><path d="M72,260.47a1.09,1.09,0,0,1-.4.11c-.77,0-1.23-.36-1.23-1.27v-2.79h-.64l-.06-.12.29-.38h.41v-.83l1.18-.8.13.08c0,.27,0,.8,0,1.55h1a.43.43,0,0,1-.08.5h-.92V259c0,.78.32.87.51.87a1.22,1.22,0,0,0,.48-.1l.1.36Z"/><path d="M77.88,256.36c-.48.07-.58.17-.83.71s-.53,1.27-1.11,2.66a30.39,30.39,0,0,0-1.06,2.85.35.35,0,0,1-.36.29.76.76,0,0,1-.79-.64c0-.16.06-.24.27-.37a2,2,0,0,0,.84-.72,3.62,3.62,0,0,0,.25-.56.51.51,0,0,0,0-.38c-.52-1.44-1.16-2.81-1.34-3.23a.8.8,0,0,0-.78-.61V256h2.5v.34c-.43.07-.5.14-.39.45l.78,2.11c.22-.55.58-1.47.76-2,.1-.32,0-.45-.53-.53V256h1.83Z"/><path d="M77.89,260.46v-.34c.57-.09.59-.14.59-.77V254.8c0-.52-.06-.58-.58-.69v-.32a10.32,10.32,0,0,0,1.87-.34v5.9c0,.66,0,.7.6.77v.34Z"/><path d="M84.85,259.48a2.29,2.29,0,0,1-1.83,1.1,2,2,0,0,1-2.1-2.18,2.63,2.63,0,0,1,.75-1.8,2.24,2.24,0,0,1,1.56-.7,1.64,1.64,0,0,1,1.65,1.63c0,.17,0,.34-.13.37s-1.6.12-2.57.16c0,1.06.63,1.6,1.35,1.6a1.72,1.72,0,0,0,1.14-.45ZM83,256.31c-.4,0-.74.47-.8,1.26l1.21,0c.14,0,.2,0,.2-.2C83.65,256.84,83.42,256.31,83,256.31Z"/></g></g></svg>