<svg xmlns="http://www.w3.org/2000/svg" viewBox="0 0 86.33 260.08"><defs><style>.cls-1{font-size:20.06px;font-family:FZCUJINLJW--GB1-0, FZJinLS-B-GB;}.cls-2,.cls-3,.cls-4,.cls-5{fill:none;stroke:#204a46;stroke-miterlimit:10;}.cls-2{stroke-width:0.62px;}.cls-3{stroke-width:0.63px;}.cls-4{stroke-width:0.56px;}.cls-5{stroke-width:0.57px;}</style></defs><title>shape_xuanhe</title><g id="图层_2" data-name="图层 2"><g id="图层_1-2" data-name="图层 1"><circle cx="5.21" cy="238.39" r="2.56"/><text class="cls-1" transform="translate(13.05 245.02)">宣和式</text><circle cx="80.69" cy="238.39" r="2.56"/><path class="cls-2" d="M17.56,209.73H14a1.86,1.86,0,0,1-1,1.52c-6.08,1.52-9.13-5.07-9.13-5.07l-1-37c3-7.1,2-10.65,1-14.71s-1.52-17.24,0-22.82-2-8.11-2-8.11L.31,48s5.84-4.06,3.81-9.64-1-9.63.5-12.67c0,0,1-6.09-1.52-9.13,0,0-1.52-3.55,0-5.58a11.81,11.81,0,0,0-.5-5.58c-1-3.55,6.08-4,8.11-3s4.56-.51,4.56-1,1.52-1,2.54-1"/><path class="cls-3" d="M69.28,209.73l-4.57,0a1.85,1.85,0,0,1-1,1.5c-6.09,1.5-9.13-5-9.13-5l-1-36.52c3-7,2-10.51,1-14.52s-1.52-17,0-22.51-2-8-2-8L51,50.14s5.83-4,3.81-9.51-1-9.51.5-12.51c0,0,1-6-1.52-9,0,0-1-4.09.51-6.63,0,0-1-9.63-1.52-10.14s0-3.55,2.53-.51c0,0,3,2.54,9.13,1.52a6.08,6.08,0,0,1,4.06-1.52"/><path class="cls-3" d="M68.77,209.73h3.55a1.85,1.85,0,0,0,1,1.5c6.09,1.5,9.13-5,9.13-5l1-36.53c-3-7-2-10.51-1-14.51s1.52-17,0-22.52,2-8,2-8L86,50.11s-5.83-4-3.8-9.5,1-9.51-.51-12.51c0,0-1-6,1.52-9,0,0,1-4.1-.51-6.63,0,0,1-9.64,1.53-10.14s0-3.55-2.54-.51c0,0-3,2.53-9.13,1.52a6.18,6.18,0,0,0-4-1.52"/><path class="cls-3" d="M2.34,13.75s17.58-4.06,30.34,0"/><path class="cls-3" d="M2.91,15.71s12.11-4.12,29.35,0"/><path class="cls-2" d="M3.48,190.84s2.92-.12,2.41,4.44v7.1s0,2.54,1.52,3.55,5.84.76,6.85,3.8"/><path class="cls-3" d="M31.5,191s-3-.25-2.54,4.31v7.1s0,2.54-1.52,3.55-5.57.76-6.59,3.8"/><path class="cls-2" d="M5.89,197.56s1.09,6.59,4.89,7.1a54.45,54.45,0,0,0,6.52.51"/><path class="cls-3" d="M28.71,197.56s-1.09,6.59-4.89,7.1a54.32,54.32,0,0,1-6.52.51"/><circle class="cls-2" cx="7.39" cy="36.25" r="0.83"/><circle class="cls-2" cx="7.9" cy="43.86" r="0.83"/><circle class="cls-2" cx="7.9" cy="49.94" r="0.83"/><circle class="cls-2" cx="7.9" cy="59.07" r="0.83"/><circle class="cls-2" cx="7.9" cy="75.3" r="0.83"/><circle class="cls-2" cx="7.9" cy="87.97" r="0.83"/><circle class="cls-2" cx="8.91" cy="106.74" r="0.83"/><circle class="cls-2" cx="9.42" cy="126.51" r="0.83"/><circle class="cls-2" cx="9.93" cy="139.69" r="0.83"/><circle class="cls-2" cx="10.94" cy="156.94" r="0.83"/><circle class="cls-2" cx="10.94" cy="167.08" r="0.83"/><circle class="cls-2" cx="10.94" cy="174.18" r="0.83"/><circle class="cls-2" cx="10.94" cy="182.29" r="0.83"/><rect class="cls-4" x="10.2" y="10.96" width="1.01" height="2.03" rx="0.45"/><rect class="cls-4" x="6.65" y="11.47" width="1.01" height="2.03" rx="0.45"/><rect class="cls-4" x="13.75" y="10.45" width="1.01" height="2.03" rx="0.45"/><rect class="cls-4" x="17.3" y="10.45" width="1.01" height="2.03" rx="0.45"/><rect class="cls-4" x="20.85" y="10.45" width="1.01" height="2.03" rx="0.45"/><rect class="cls-4" x="23.89" y="10.45" width="1.01" height="2.03" rx="0.45"/><rect class="cls-4" x="26.94" y="10.96" width="1.01" height="2.03" rx="0.45"/><line class="cls-2" x1="7.41" y1="13.24" x2="13.69" y2="208.63"/><line class="cls-2" x1="10.71" y1="12.99" x2="14.51" y2="209.76"/><line class="cls-2" x1="15.53" y1="209.48" x2="14.51" y2="12.23"/><line class="cls-2" x1="17.85" y1="12.02" x2="16.48" y2="209.86"/><path class="cls-2" d="M21.36,12l-3.8,197.76H21.1a1.86,1.86,0,0,0,1,1.52c6.08,1.52,9.13-5.07,9.13-5.07l1-37c-3-7.1-2-10.65-1-14.71s1.52-17.24,0-22.82,2-8.11,2-8.11L34.8,48S29,43.92,31,38.34s1-9.63-.5-12.67c0,0-1-6.09,1.52-9.13,0,0,1.52-3.55,0-5.58a11.81,11.81,0,0,1,.5-5.58c1-3.55-6.08-4-8.11-3s-4.56-.51-4.56-1-1.52-1-2.54-1"/><line class="cls-2" x1="24.49" y1="12.27" x2="18.57" y2="209.48"/><line class="cls-2" x1="27.44" y1="12.48" x2="19.84" y2="209.73"/><rect class="cls-5" x="64.46" y="69.27" width="6.08" height="40.06" rx="3.02"/><rect class="cls-3" x="65.74" y="164.17" width="5.43" height="24.88" rx="2.25"/><rect class="cls-2" x="55.15" y="12.2" width="26.78" height="4.98" rx="2.33"/><circle class="cls-2" cx="58.89" cy="14.69" r="1.25"/><circle class="cls-2" cx="62.21" cy="14.69" r="1.25"/><circle class="cls-2" cx="65.53" cy="14.69" r="1.25"/><circle class="cls-2" cx="68.85" cy="14.69" r="1.25"/><circle class="cls-2" cx="72.18" cy="14.69" r="1.25"/><circle class="cls-2" cx="78.82" cy="14.69" r="1.25"/><circle class="cls-2" cx="75.5" cy="14.69" r="1.25"/><circle class="cls-3" cx="78.2" cy="158.57" r="1.87"/><path class="cls-3" d="M60.13,158.57a1.86,1.86,0,0,1-1.86,1.86,1.87,1.87,0,0,1-1.87-1.86,1.87,1.87,0,1,1,3.73,0Z"/><line class="cls-3" x1="78.61" y1="160.54" x2="71.34" y2="209.64"/><line class="cls-3" x1="76.95" y1="160.43" x2="70.1" y2="209.64"/><line class="cls-3" x1="58.89" y1="160.54" x2="66.98" y2="209.64"/><line class="cls-3" x1="57.02" y1="159.81" x2="65.43" y2="209.95"/><path class="cls-3" d="M54.37,195.26s3.27.68,3.27,3.79c0,0,.63,7.47,1.87,8.1l5.61.62"/><path class="cls-3" d="M82.56,195.26s-3.27.68-3.27,3.79c0,0-.63,7.47-1.87,8.1l-5.61.62"/><path d="M19.84,257.67v-.37c.68-.09.65-.25.48-.57l-1-1.76c-.46.71-.9,1.36-1.08,1.71s-.18.52.52.62v.37H16.24v-.37a1.6,1.6,0,0,0,1.21-.56c.36-.44,1-1.32,1.57-2.18-.47-.79-.89-1.49-1.4-2.31a1.31,1.31,0,0,0-1.24-.71v-.37H19.5v.37c-.6.07-.63.18-.49.47s.48.85.89,1.51c.3-.41.67-1,.91-1.42s.11-.45-.51-.56v-.37h2.42v.37a1.62,1.62,0,0,0-1.33.66c-.34.45-.73,1-1.22,1.7.58.92,1,1.69,1.63,2.58a1.34,1.34,0,0,0,1.3.82v.37Z"/><path d="M28.28,257.43c-.6.08-1.24.21-1.9.36v-.68a2.22,2.22,0,0,1-1.38.68,1.26,1.26,0,0,1-1.31-1.43v-2.07c0-.46-.06-.51-.33-.58l-.21-.06v-.32c.51,0,1.3-.09,1.86-.17,0,.42,0,.94,0,1.51v1.46c0,.65.33.87.68.87a.9.9,0,0,0,.72-.29V254.3c0-.46-.05-.54-.33-.59l-.3-.06v-.32a18.73,18.73,0,0,0,1.93-.17v3.26c0,.52.06.63.38.66l.22,0Z"/><path d="M32.09,257.79a.92.92,0,0,1-.62-.21,1,1,0,0,1-.26-.37,3.7,3.7,0,0,1-1.06.58,1.31,1.31,0,0,1-1.36-1.29c0-.53.24-.77.77-1a8.39,8.39,0,0,0,1.61-.66v-.44c0-.52-.19-.81-.62-.81a.49.49,0,0,0-.4.2,1.91,1.91,0,0,0-.24.66.4.4,0,0,1-.43.34.61.61,0,0,1-.59-.52c0-.18.12-.31.35-.47a4.92,4.92,0,0,1,1.6-.71,1.76,1.76,0,0,1,1,.29,1.35,1.35,0,0,1,.55,1.23v1.73c0,.48.16.6.32.6a.75.75,0,0,0,.31-.08l.11.34Zm-.92-2.52-.56.31a.72.72,0,0,0-.49.68.68.68,0,0,0,.61.76.56.56,0,0,0,.44-.16Z"/><path d="M36.37,257.67v-.34c.42-.06.45-.1.45-.79v-1.71c0-.71-.35-.93-.7-.93a1.22,1.22,0,0,0-.75.3v2.42c0,.61,0,.65.45.71v.34H33.5v-.34c.52-.09.58-.1.58-.75V254.5c0-.6-.08-.63-.52-.72v-.32a10.44,10.44,0,0,0,1.83-.38c0,.14,0,.49,0,.72.2-.14.41-.29.64-.43a1.37,1.37,0,0,1,.78-.26c.81,0,1.32.59,1.32,1.61v1.89c0,.62.06.65.54.72v.34Z"/><path d="M41.93,257.67v-.34c.44-.07.47-.14.47-.68v-1.76c0-.77-.32-1-.71-1a1,1,0,0,0-.73.29v2.5c0,.54,0,.61.51.68v.34H39.09v-.34c.49-.06.58-.09.58-.72V252c0-.46-.06-.57-.62-.66V251a10.18,10.18,0,0,0,1.91-.34v3.1a2.06,2.06,0,0,1,1.35-.65c.87,0,1.39.57,1.39,1.67v1.83c0,.63.07.64.55.72v.34Z"/><path d="M48.77,256.69a2.29,2.29,0,0,1-1.83,1.1,2,2,0,0,1-2.1-2.18,2.63,2.63,0,0,1,.75-1.8,2.24,2.24,0,0,1,1.56-.7,1.64,1.64,0,0,1,1.65,1.63c0,.17,0,.34-.13.37s-1.6.12-2.57.16c0,1.06.63,1.6,1.35,1.6a1.72,1.72,0,0,0,1.14-.45ZM47,253.52c-.4,0-.74.47-.8,1.26l1.21,0c.14,0,.2,0,.2-.2C47.57,254.05,47.34,253.52,47,253.52Z"/><path d="M54.36,254.53c-.26-.7-.6-1-1.07-1a.51.51,0,0,0-.53.53c0,.35.25.54.77.77.81.36,1.36.7,1.36,1.49a1.64,1.64,0,0,1-1.82,1.49,3.31,3.31,0,0,1-1.27-.3c0-.23-.13-.92-.16-1.27l.33-.06c.21.63.62,1.22,1.27,1.22a.51.51,0,0,0,.57-.52c0-.31-.15-.54-.77-.84s-1.3-.67-1.3-1.5.65-1.41,1.71-1.41a4.61,4.61,0,0,1,1.08.15c0,.27.12.91.16,1.18Z"/><path d="M57.5,257.68a1.09,1.09,0,0,1-.4.11c-.77,0-1.23-.36-1.23-1.27v-2.79h-.64l-.06-.12.29-.38h.41v-.83l1.18-.8.13.08c0,.27,0,.8,0,1.55h1a.43.43,0,0,1-.08.5h-.92v2.45c0,.78.32.87.51.87a1.22,1.22,0,0,0,.48-.1l.1.36Z"/><path d="M63.42,253.57c-.48.07-.58.17-.83.71s-.53,1.27-1.11,2.66a30.39,30.39,0,0,0-1.06,2.85.35.35,0,0,1-.36.29.76.76,0,0,1-.79-.64c0-.16.06-.24.27-.37a2,2,0,0,0,.84-.72,3.62,3.62,0,0,0,.25-.56.51.51,0,0,0,0-.38c-.52-1.44-1.16-2.81-1.34-3.23a.8.8,0,0,0-.78-.61v-.34H61v.34c-.43.07-.5.14-.39.45l.78,2.11c.22-.55.58-1.47.76-2,.1-.32,0-.45-.53-.53v-.34h1.83Z"/><path d="M63.43,257.67v-.34c.57-.09.59-.14.59-.77V252c0-.52-.06-.58-.58-.69V251a10.32,10.32,0,0,0,1.87-.34v5.9c0,.66,0,.7.6.77v.34Z"/><path d="M70.39,256.69a2.29,2.29,0,0,1-1.83,1.1,2,2,0,0,1-2.1-2.18,2.63,2.63,0,0,1,.75-1.8,2.24,2.24,0,0,1,1.56-.7,1.64,1.64,0,0,1,1.65,1.63c0,.17,0,.34-.13.37s-1.6.12-2.57.16c0,1.06.63,1.6,1.35,1.6a1.72,1.72,0,0,0,1.14-.45Zm-1.82-3.17c-.4,0-.74.47-.8,1.26l1.21,0c.14,0,.2,0,.2-.2C69.19,254.05,69,253.52,68.57,253.52Z"/></g></g></svg>