<svg xmlns="http://www.w3.org/2000/svg" viewBox="0 0 92.18 262.54"><defs><style>.cls-1{font-size:20.06px;font-family:FZCUJINLJW--GB1-0, FZJinLS-B-GB;}.cls-2{fill:none;stroke:#204a46;stroke-miterlimit:10;stroke-width:0.59px;}</style></defs><title>shape_lianzhu</title><g id="图层_2" data-name="图层 2"><g id="图层_1-2" data-name="图层 1"><circle cx="8.77" cy="241.6" r="2.56"/><text class="cls-1" transform="translate(16.61 248.23)">连珠式</text><circle cx="84.25" cy="241.6" r="2.56"/><path class="cls-2" d="M17.05,210.81A11.06,11.06,0,0,1,9.94,209a7.23,7.23,0,0,1-3.21-3.91L5,157.08c4.63-8.19-.71-13.88-.71-13.88L1,57.43s.35,0,2.13-2.84,1.78-7.83.36-10a3.68,3.68,0,0,1,.36-5A5.3,5.3,0,0,0,5,36.44c.72-3.21-4.62-32-4.62-32a36.22,36.22,0,0,1,33.45,0"/><path class="cls-2" d="M91.22,6.45,91.86.64C89.28,0,88.63,1.93,88.63,1.93c-13.56-3.23-30.35,0-30.35,0C58.28,0,55.05.64,55.05.64L55.7,7.1C61.51,31,59.84,36.44,59.84,36.44a5.26,5.26,0,0,1-1.07,3.2,3.7,3.7,0,0,0-.35,5c1.42,2.14,1.42,7.12-.36,10s-2.13,2.84-2.13,2.84l3.2,85.77s5.34,5.69.71,13.88l1.78,48a7.24,7.24,0,0,0,3.2,3.91,11.1,11.1,0,0,0,7.12,1.78l3.13.05"/><path class="cls-2" d="M28.26,10A46.07,46.07,0,0,0,16.63,8.57,45.94,45.94,0,0,0,5,10s-2.58,2.59-.65,3.88H28.9C30.84,12.59,28.26,10,28.26,10Z"/><circle class="cls-2" cx="26" cy="12.91" r="0.65"/><circle class="cls-2" cx="22.77" cy="12.91" r="0.65"/><circle class="cls-2" cx="19.54" cy="12.91" r="0.65"/><circle class="cls-2" cx="16.31" cy="12.91" r="0.65"/><circle class="cls-2" cx="12.43" cy="12.91" r="0.65"/><circle class="cls-2" cx="9.21" cy="12.91" r="0.65"/><circle class="cls-2" cx="5.98" cy="12.91" r="0.65"/><line class="cls-2" x1="26" y1="13.55" x2="20.18" y2="210.51"/><path class="cls-2" d="M6.3,188.88s3.87,1.93,3.23,9.68,4.52,9,7.75,9.69"/><path class="cls-2" d="M28.26,188.88s-3.88,1.93-3.23,9.68-4.52,9-7.75,9.69"/><line class="cls-2" x1="22.44" y1="13.23" x2="19.54" y2="210.83"/><line class="cls-2" x1="19.42" y1="13.88" x2="18.89" y2="210.51"/><line class="cls-2" x1="15.99" y1="13.88" x2="17.92" y2="210.83"/><path class="cls-2" d="M12.43,13.55l4.62,197.26A11.1,11.1,0,0,0,24.17,209a7.24,7.24,0,0,0,3.2-3.91l1.78-48c-4.62-8.19.71-13.88.71-13.88l3.21-85.77s-.36,0-2.14-2.84-1.78-7.83-.35-10a3.68,3.68,0,0,0-.36-5,5.26,5.26,0,0,1-1.07-3.2c-.71-3.21,4.63-32,4.63-32a36.22,36.22,0,0,0-33.45,0"/><line class="cls-2" x1="9.21" y1="13.55" x2="16.31" y2="210.51"/><line class="cls-2" x1="5.98" y1="13.55" x2="15.02" y2="210.51"/><circle class="cls-2" cx="6.92" cy="39.31" r="1.06"/><circle class="cls-2" cx="6.27" cy="47.05" r="1.06"/><circle class="cls-2" cx="6.92" cy="53.51" r="1.06"/><circle class="cls-2" cx="6.92" cy="63.2" r="1.06"/><circle class="cls-2" cx="7.57" cy="79.34" r="1.06"/><circle class="cls-2" cx="8.21" cy="91.61" r="1.06"/><circle class="cls-2" cx="8.86" cy="110.98" r="1.06"/><circle class="cls-2" cx="10.15" cy="130.36" r="1.06"/><circle class="cls-2" cx="11.44" cy="143.27" r="1.06"/><circle class="cls-2" cx="12.09" cy="159.42" r="1.06"/><circle class="cls-2" cx="12.73" cy="169.1" r="1.06"/><circle class="cls-2" cx="12.73" cy="176.21" r="1.06"/><circle class="cls-2" cx="13.38" cy="183.95" r="1.06"/><circle class="cls-2" cx="73.78" cy="92.98" r="7.1"/><circle class="cls-2" cx="73.14" cy="174.99" r="5.17"/><circle class="cls-2" cx="64.1" cy="153.68" r="2.58"/><circle class="cls-2" cx="82.82" cy="154.97" r="2.58"/><line class="cls-2" x1="64.74" y1="156.27" x2="70.98" y2="210.94"/><line class="cls-2" x1="66.03" y1="155.62" x2="68.08" y2="174.19"/><line class="cls-2" x1="68.62" y1="177.58" x2="72.49" y2="210.51"/><path class="cls-2" d="M80.72,156.59,75,210.81A11.07,11.07,0,0,0,82.09,209a7.28,7.28,0,0,0,3.21-3.91l1.77-48c-4.62-8.19.72-13.88.72-13.88L91,57.43s-.36,0-2.14-2.84-1.78-7.83-.35-10a3.68,3.68,0,0,0-.36-5,5.26,5.26,0,0,1-1.07-3.2S85.4,31,91.22,7.1L91.86.64S88.63,0,88.63,1.93c0,0-16.79-3.23-30.35,0,0,0-.64-1.94-3.23-1.29l.65,5.81"/><line class="cls-2" x1="82.26" y1="157.56" x2="76.69" y2="210.83"/><path class="cls-2" d="M61.24,193.18s1.89-1.08,3.18,4.74S70.18,204,70.18,204"/><path class="cls-2" d="M85.73,193.18s-1.76-1.08-3,4.74S77.39,204,77.39,204"/><path class="cls-2" d="M71.79,204.16a24,24,0,0,0,4,.11"/><rect class="cls-2" x="60.22" y="11.62" width="27.12" height="5.17" rx="1.36"/><circle class="cls-2" cx="63.45" cy="14.2" r="1.29"/><circle class="cls-2" cx="66.89" cy="14.2" r="1.29"/><circle class="cls-2" cx="70.34" cy="14.2" r="1.29"/><circle class="cls-2" cx="73.78" cy="14.2" r="1.29"/><circle class="cls-2" cx="77.23" cy="14.2" r="1.29"/><circle class="cls-2" cx="84.11" cy="14.2" r="1.29"/><circle class="cls-2" cx="80.67" cy="14.2" r="1.29"/><path d="M30.69,256.55c1,.19,1.79.69,1.79,1.64a1.8,1.8,0,0,1-1,1.52,4,4,0,0,1-1.9.42H26.83v-.37c.76-.08.84-.13.84-1V255c0-.84-.13-.93-.83-1v-.37h3a2.94,2.94,0,0,1,1.64.35,1.29,1.29,0,0,1,.61,1.11A1.64,1.64,0,0,1,30.69,256.55Zm-1.27-.13c.95,0,1.3-.41,1.3-1.15a1.08,1.08,0,0,0-1.12-1.2,1,1,0,0,0-.47.08c-.11.07-.1.16-.1.37v1.9ZM29,258.77c0,.72.33.94.87.93s1.09-.49,1.09-1.42-.49-1.43-1.61-1.43H29Z"/><path d="M37.23,259.15a2.29,2.29,0,0,1-1.83,1.1,2,2,0,0,1-2.1-2.18,2.63,2.63,0,0,1,.75-1.8,2.24,2.24,0,0,1,1.56-.7,1.64,1.64,0,0,1,1.65,1.63c0,.17,0,.34-.13.37s-1.6.12-2.57.16c0,1.06.63,1.6,1.35,1.6a1.72,1.72,0,0,0,1.14-.45ZM35.41,256c-.4,0-.74.47-.8,1.26l1.21,0c.14,0,.2,0,.2-.2C36,256.51,35.8,256,35.41,256Z"/><path d="M41.14,260.25a.92.92,0,0,1-.62-.21,1,1,0,0,1-.26-.37,3.82,3.82,0,0,1-1,.58A1.31,1.31,0,0,1,37.85,259c0-.53.24-.77.77-1a8.25,8.25,0,0,0,1.6-.66v-.44c0-.52-.19-.81-.62-.81a.46.46,0,0,0-.39.2,1.72,1.72,0,0,0-.25.66.38.38,0,0,1-.42.34.61.61,0,0,1-.59-.52c0-.18.12-.31.35-.47a4.87,4.87,0,0,1,1.59-.71,1.76,1.76,0,0,1,1,.29,1.35,1.35,0,0,1,.55,1.23v1.73c0,.48.16.6.32.6a.75.75,0,0,0,.31-.08l.11.34Zm-.92-2.52-.56.31a.72.72,0,0,0-.49.68.68.68,0,0,0,.61.76.56.56,0,0,0,.44-.16Z"/><path d="M47.69,259.87a16.45,16.45,0,0,0-2,.39v-.58l-.61.39a.93.93,0,0,1-.5.18,2.15,2.15,0,0,1-2-2.22,2.6,2.6,0,0,1,2.76-2.46,2.25,2.25,0,0,1,.4,0v-1.15c0-.53,0-.58-.67-.66v-.33a13.83,13.83,0,0,0,2-.34v5.75c0,.54.06.59.44.64l.22,0Zm-2-3.35A.78.78,0,0,0,45,256c-.31,0-1,.21-1,1.66s.73,1.79,1.18,1.8a.92.92,0,0,0,.55-.17Z"/><path d="M53.12,257c-.26-.7-.6-1-1.07-1a.51.51,0,0,0-.53.53c0,.35.25.54.77.77.81.36,1.36.7,1.36,1.49a1.64,1.64,0,0,1-1.82,1.49,3.25,3.25,0,0,1-1.26-.3c0-.23-.13-.92-.16-1.27l.33-.06c.21.63.61,1.22,1.26,1.22a.51.51,0,0,0,.57-.52c0-.31-.15-.54-.77-.84s-1.3-.67-1.3-1.5.66-1.41,1.71-1.41a4.61,4.61,0,0,1,1.08.15c0,.27.12.91.16,1.18Z"/><path d="M56.26,260.14a1.09,1.09,0,0,1-.4.11c-.77,0-1.23-.36-1.23-1.27v-2.79H54l-.07-.12.29-.38h.41v-.83l1.18-.8.13.08c0,.27,0,.8,0,1.55h1a.43.43,0,0,1-.08.5h-.92v2.45c0,.78.32.87.51.87a1.22,1.22,0,0,0,.48-.1l.1.36Z"/><path d="M62.18,256c-.48.07-.58.17-.83.71s-.53,1.27-1.11,2.66a30.39,30.39,0,0,0-1.06,2.85.35.35,0,0,1-.36.29.76.76,0,0,1-.79-.64c0-.16.06-.24.27-.37a2,2,0,0,0,.84-.72,3.62,3.62,0,0,0,.25-.56.51.51,0,0,0,0-.38c-.52-1.44-1.16-2.81-1.34-3.23a.79.79,0,0,0-.77-.61v-.34h2.49V256c-.43.07-.5.14-.39.45l.78,2.11c.22-.55.58-1.47.76-2,.1-.32,0-.45-.53-.53v-.34h1.83Z"/><path d="M62.19,260.13v-.34c.57-.09.59-.14.59-.77v-4.55c0-.52-.06-.58-.57-.69v-.32a10.36,10.36,0,0,0,1.86-.34V259c0,.66,0,.7.6.77v.34Z"/><path d="M69.15,259.15a2.29,2.29,0,0,1-1.83,1.1,2,2,0,0,1-2.1-2.18,2.63,2.63,0,0,1,.75-1.8,2.24,2.24,0,0,1,1.56-.7,1.64,1.64,0,0,1,1.65,1.63c0,.17,0,.34-.13.37s-1.6.12-2.57.16c0,1.06.63,1.6,1.35,1.6a1.72,1.72,0,0,0,1.14-.45ZM67.33,256c-.4,0-.74.47-.8,1.26l1.21,0c.14,0,.2,0,.2-.2C68,256.51,67.72,256,67.33,256Z"/></g></g></svg>