<svg xmlns="http://www.w3.org/2000/svg" viewBox="0 0 96.41 260.22"><defs><style>.cls-1{font-size:20.06px;font-family:FZCUJINLJW--GB1-0, FZJinLS-B-GB;}.cls-2{fill:none;stroke:#204a46;stroke-miterlimit:10;stroke-width:0.59px;}</style></defs><title>shape_luoxia</title><g id="图层_2" data-name="图层 2"><g id="图层_1-2" data-name="图层 1"><circle cx="8.89" cy="239.36" r="2.56"/><text class="cls-1" transform="translate(16.73 245.99)">落霞式</text><circle cx="84.37" cy="239.36" r="2.56"/><path class="cls-2" d="M16.92,211v-1H24v1c10.11,1,11.07-7.2,11.07-7.2l.61-44.2-2-1,2-56.54c10.12-15.42,0-29.81,0-29.81s0-50.37,2-56.54S37.25,2.64,22.88.42a12.11,12.11,0,0,0-1.8-.13h-.44a21.39,21.39,0,0,0-3.83.34C3.49,3.05.84,9.85,2.77,15.71c2,6.17,2,56.54,2,56.54s-10.11,14.39,0,29.81l2,56.54-2,1,.61,44.2s1.41,8.22,11.52,7.2v-1H24v1"/><path class="cls-2" d="M72.86,211v-1h7.08v1c10.11,1,11.68-7.2,11.68-7.2v-44.2l-2-1,2-56.54c10.11-15.42,0-29.81,0-29.81s0-50.37,2-56.54S93.18,2.64,78.81.42A12,12,0,0,0,77,.29h-.44a21.28,21.28,0,0,0-3.82.34c-13.32,2.42-16,9.22-14,15.08,2,6.17,2,56.54,2,56.54s-10.11,14.39,0,29.81l2,56.54-2,1v44.2s2,8.22,12.14,7.2v-1h7.08v1"/><circle class="cls-2" cx="7.82" cy="38.72" r="1.01"/><circle class="cls-2" cx="9.84" cy="11.42" r="1.01"/><circle class="cls-2" cx="12.88" cy="11.42" r="1.01"/><circle class="cls-2" cx="8.33" cy="46.3" r="1.01"/><circle class="cls-2" cx="8.83" cy="53.88" r="1.01"/><circle class="cls-2" cx="9.34" cy="62.48" r="1.01"/><circle class="cls-2" cx="9.84" cy="79.16" r="1.01"/><circle class="cls-2" cx="10.86" cy="91.3" r="1.01"/><circle class="cls-2" cx="12.88" cy="111.52" r="1.01"/><circle class="cls-2" cx="13.89" cy="130.73" r="1.01"/><circle class="cls-2" cx="14.9" cy="143.88" r="1.01"/><circle class="cls-2" cx="14.9" cy="160.05" r="1.01"/><circle class="cls-2" cx="14.9" cy="170.16" r="1.01"/><circle class="cls-2" cx="14.9" cy="177.24" r="1.01"/><circle class="cls-2" cx="14.9" cy="184.32" r="1.01"/><path class="cls-2" d="M36.64,10.91c-2-6.07-24.27-4-28.31-3s-3,4-3,4,1,3,3,3,12.13-2,25.28,0a3.11,3.11,0,0,0,2-1C36.34,13.23,36.64,10.91,36.64,10.91Z"/><path class="cls-2" d="M5.47,11.35s16.51-4,30.66.07"/><path class="cls-2" d="M6.09,13.49s20.05-3.49,29.85,0"/><circle class="cls-2" cx="27.03" cy="11.02" r="1.01"/><circle class="cls-2" cx="29.49" cy="11.02" r="0.79"/><circle class="cls-2" cx="24" cy="11.02" r="1.01"/><circle class="cls-2" cx="20.31" cy="11.02" r="1.01"/><circle class="cls-2" cx="16.62" cy="11.02" r="1.01"/><line class="cls-2" x1="9.69" y1="12.67" x2="17.37" y2="209.68"/><line class="cls-2" x1="12.76" y1="12.67" x2="18.6" y2="209.68"/><line class="cls-2" x1="29.05" y1="11.75" x2="23.52" y2="209.68"/><line class="cls-2" x1="26.9" y1="12.05" x2="22.6" y2="209.68"/><line class="cls-2" x1="23.83" y1="12.05" x2="21.68" y2="209.68"/><line class="cls-2" x1="20.45" y1="11.75" x2="20.76" y2="209.68"/><line class="cls-2" x1="16.45" y1="12.05" x2="19.83" y2="209.68"/><circle class="cls-2" cx="76.08" cy="87.66" r="7.99"/><path class="cls-2" d="M60.72,195.46A8.18,8.18,0,0,1,65,202s0,2.46,1.85,3.08,8.6,3.68,19.67-.62a7.38,7.38,0,0,0,1.23-3.07c.61-2.46,1.58-5.07,3.86-5.92"/><circle class="cls-2" cx="84.68" cy="159.58" r="2.15"/><circle class="cls-2" cx="66.86" cy="159.58" r="2.15"/><line class="cls-2" x1="67.98" y1="161.63" x2="73.82" y2="209.98"/><line class="cls-2" x1="83.15" y1="161.11" x2="78.23" y2="209.68"/><rect class="cls-2" x="73.31" y="168.49" width="4.92" height="21.51" rx="2.46"/><path class="cls-2" d="M17.07,210v-3.69s2.15-1.53,6.45,0V210"/><path class="cls-2" d="M5.4,190.77s3.68,1.39,3.68,8.15c0,0,0,3.69,1.84,4.3s3.69,0,6.15,3.07"/><path class="cls-2" d="M35.51,190.77s-3.68,1.39-3.68,8.15c0,0,0,3.69-1.84,4.3s-4.3,0-6.76,3.07"/><path class="cls-2" d="M5.4,199.17s.6,5.28,8,9c0,0,2.46-1.23,3.69,0"/><path class="cls-2" d="M34.89,199.17s-.57,5.28-7.55,9c0,0-2.33-1.23-3.5,0"/><rect class="cls-2" x="62.25" y="9.9" width="26.43" height="4.92" rx="2.3"/><circle class="cls-2" cx="65.93" cy="12.36" r="1.23"/><circle class="cls-2" cx="69.21" cy="12.36" r="1.23"/><circle class="cls-2" cx="72.49" cy="12.36" r="1.23"/><circle class="cls-2" cx="75.77" cy="12.36" r="1.23"/><circle class="cls-2" cx="79.05" cy="12.36" r="1.23"/><circle class="cls-2" cx="85.6" cy="12.36" r="1.23"/><circle class="cls-2" cx="82.33" cy="12.36" r="1.23"/><path d="M26.68,253c-.2-.64-.48-1.37-1.4-1.37a.92.92,0,0,0-1,1c0,.55.37.88,1.25,1.32,1.07.52,1.75,1,1.75,2a2.16,2.16,0,0,1-2.41,2,5.78,5.78,0,0,1-1.68-.31c-.06-.23-.23-1.27-.3-1.74l.39-.09c.2.63.76,1.72,1.74,1.72a.92.92,0,0,0,1-1c0-.58-.36-.92-1.2-1.36-1-.56-1.72-1.06-1.72-2.1s.82-1.88,2.32-1.88a7.39,7.39,0,0,1,1.43.18c0,.37.11.89.19,1.52Z"/><path d="M33.05,257.57c-.6.08-1.24.21-1.9.36v-.68a2.22,2.22,0,0,1-1.38.68,1.26,1.26,0,0,1-1.31-1.43v-2.06c0-.46-.06-.51-.33-.58l-.21-.06v-.32c.51,0,1.3-.09,1.86-.17,0,.42,0,.93,0,1.51v1.45c0,.65.33.87.68.87a.9.9,0,0,0,.72-.29v-2.4c0-.46,0-.54-.33-.59l-.3-.06v-.32a18.73,18.73,0,0,0,1.93-.17v3.25c0,.52.06.63.38.66l.22,0Z"/><path d="M36.39,257.81v-.34c.42-.06.45-.1.45-.79V255c0-.7-.35-.92-.7-.92a1.22,1.22,0,0,0-.75.3v2.41c0,.61,0,.65.45.71v.34H33.52v-.34c.52-.09.58-.1.58-.75v-2.07c0-.6-.08-.63-.52-.72v-.32a10.44,10.44,0,0,0,1.83-.38c0,.14,0,.49,0,.72.2-.14.41-.29.64-.43a1.37,1.37,0,0,1,.78-.26c.81,0,1.32.59,1.32,1.61v1.88c0,.62.06.65.54.72v.34Z"/><path d="M42,254.67c-.26-.69-.6-1-1.07-1a.51.51,0,0,0-.53.53c0,.34.25.54.77.76.81.36,1.36.7,1.36,1.49a1.64,1.64,0,0,1-1.82,1.49,3.31,3.31,0,0,1-1.27-.3c0-.23-.13-.92-.16-1.27l.33-.06c.21.63.62,1.22,1.27,1.22a.51.51,0,0,0,.57-.52c0-.31-.15-.54-.77-.84s-1.3-.67-1.3-1.5.65-1.4,1.71-1.4a4.61,4.61,0,0,1,1.08.15c0,.27.12.91.16,1.17Z"/><path d="M47.09,256.83a2.29,2.29,0,0,1-1.83,1.1,2,2,0,0,1-2.1-2.18,2.6,2.6,0,0,1,.75-1.79,2.24,2.24,0,0,1,1.56-.7,1.64,1.64,0,0,1,1.65,1.62c0,.17,0,.34-.13.37s-1.6.12-2.57.16c0,1.06.63,1.6,1.35,1.6a1.72,1.72,0,0,0,1.14-.45Zm-1.82-3.16c-.4,0-.74.47-.8,1.25l1.21,0c.14,0,.2,0,.2-.2C45.89,254.2,45.66,253.67,45.27,253.67Z"/><path d="M49.87,257.82a1.09,1.09,0,0,1-.4.11c-.77,0-1.23-.36-1.23-1.27v-2.78H47.6l-.06-.12.29-.38h.41v-.83l1.18-.8.13.08c0,.27,0,.8,0,1.55h1a.43.43,0,0,1-.08.5h-.92v2.44c0,.78.32.87.51.87a1.22,1.22,0,0,0,.48-.1l.1.36Z"/><path d="M55.44,257.82a1.09,1.09,0,0,1-.4.11c-.77,0-1.23-.36-1.23-1.27v-2.78h-.64l-.06-.12.29-.38h.41v-.83l1.18-.8.13.08c0,.27,0,.8,0,1.55h1a.43.43,0,0,1-.08.5H55.1v2.44c0,.78.32.87.51.87a1.22,1.22,0,0,0,.48-.1l.1.36Z"/><path d="M61.36,253.72c-.48.07-.58.17-.83.71s-.53,1.26-1.11,2.65a30.39,30.39,0,0,0-1.06,2.85.35.35,0,0,1-.36.29.76.76,0,0,1-.79-.64c0-.16.06-.24.27-.37a2,2,0,0,0,.84-.72,3.62,3.62,0,0,0,.25-.56.51.51,0,0,0,0-.38c-.52-1.44-1.16-2.81-1.34-3.22a.8.8,0,0,0-.78-.61v-.34h2.5v.34c-.43.07-.5.14-.39.44l.78,2.11c.22-.55.58-1.47.76-2,.1-.31,0-.44-.53-.52v-.34h1.83Z"/><path d="M61.41,253.61a16.81,16.81,0,0,0,1.84-.45v.72l.7-.41a1.29,1.29,0,0,1,.65-.21,1.84,1.84,0,0,1,1.73,2,2.87,2.87,0,0,1-2.45,2.71,1.83,1.83,0,0,1-.63-.09V259c0,.56,0,.62.74.71v.33H61.31v-.33c.61-.06.65-.15.65-.7V254.6c0-.54-.06-.61-.55-.66Zm1.84,3.47a1.37,1.37,0,0,0,.82.37c.53,0,.92-.65.92-1.73S64.38,254,63.88,254a1.16,1.16,0,0,0-.63.21Z"/><path d="M71,256.83a2.29,2.29,0,0,1-1.83,1.1,2,2,0,0,1-2.1-2.18,2.6,2.6,0,0,1,.75-1.79,2.24,2.24,0,0,1,1.56-.7A1.64,1.64,0,0,1,71,254.88c0,.17,0,.34-.13.37s-1.6.12-2.57.16c0,1.06.63,1.6,1.35,1.6a1.72,1.72,0,0,0,1.14-.45Zm-1.82-3.16c-.4,0-.74.47-.8,1.25l1.21,0c.14,0,.2,0,.2-.2C69.79,254.2,69.56,253.67,69.17,253.67Z"/></g></g></svg>