<svg xmlns="http://www.w3.org/2000/svg" viewBox="0 0 91.81 262.9"><defs><style>.cls-1{font-size:20.06px;font-family:FZCUJINLJW--GB1-0, FZJinLS-B-GB;}.cls-2{fill:none;stroke:#204a46;stroke-miterlimit:10;stroke-width:0.59px;}</style></defs><title>shape_pili</title><g id="图层_2" data-name="图层 2"><g id="图层_1-2" data-name="图层 1"><circle cx="8.84" cy="241.65" r="2.56"/><text class="cls-1" transform="translate(16.68 248.29)">霹雳式</text><circle cx="84.32" cy="241.65" r="2.56"/><path class="cls-2" d="M17.12,208.14H15.87c-3.74,2.49-10-5.61-10-5.61L4.66,170.14c5-7.47,0-18.06,0-18.06C8.4,142.74,3.41,134,3.41,134L.3,58a28,28,0,0,0,3.11-5.6C5.9,48.06,4.66,41.83,4.66,41.83A4.56,4.56,0,0,1,4,38.09l.62-1.87C9,25,2.79,20.65,2.79,20.65V3.21s17.75-4,30.83.31"/><path class="cls-2" d="M2.89,11s20.45-2.81,30.42,0"/><path class="cls-2" d="M3,14.89S23.66,11.62,33,14.73"/><path class="cls-2" d="M2.79,16.68s19.93-2.1,30.52,0"/><line class="cls-2" x1="6.22" y1="13.49" x2="15.25" y2="208.45"/><line class="cls-2" x1="9.33" y1="13.49" x2="16.18" y2="208.45"/><polyline class="cls-2" points="13.38 12.55 17.12 208.14 18.67 208.14"/><line class="cls-2" x1="16.8" y1="12.87" x2="18.05" y2="208.45"/><path class="cls-2" d="M21.48,12.55,19,208.14h1.25c3.74,2.49,10-5.61,10-5.61l1.24-32.39c-5-7.47,0-18.06,0-18.06C27.71,142.74,32.69,134,32.69,134L35.8,58a28,28,0,0,1-3.11-5.6c-2.49-4.36-1.25-10.59-1.25-10.59a4.58,4.58,0,0,0,.63-3.74l-.63-1.87C27.08,25,33.31,20.65,33.31,20.65V3.21"/><path class="cls-2" d="M89,3.21V20.65S82.79,25,87.15,36.22l.62,1.87a4.6,4.6,0,0,1-.62,3.74s-1.25,6.23,1.24,10.59A28.35,28.35,0,0,0,91.51,58l-3.12,76s-5,8.72-1.24,18.06c0,0-5,10.59,0,18.06L85.9,202.53s-6.23,8.1-10,5.61H71.58c-3.74,2.49-10-5.61-10-5.61l-1.25-32.39c5-7.47,0-18.06,0-18.06C64.1,142.74,59.12,134,59.12,134L56,58a28.35,28.35,0,0,0,3.12-5.6c2.49-4.36,1.24-10.59,1.24-10.59a4.6,4.6,0,0,1-.62-3.74l.62-1.87C64.72,25,58.5,20.65,58.5,20.65L58.18.41s15.89,5,30.84,0V3.52"/><line class="cls-2" x1="25.21" y1="12.55" x2="19.45" y2="208.22"/><line class="cls-2" x1="28.64" y1="12.87" x2="20.39" y2="208.14"/><circle class="cls-2" cx="7.12" cy="40.82" r="1.02"/><circle class="cls-2" cx="7.75" cy="54.52" r="1.02"/><circle class="cls-2" cx="7.75" cy="65.11" r="1.02"/><circle class="cls-2" cx="8.37" cy="80.68" r="1.02"/><circle class="cls-2" cx="8.99" cy="93.76" r="1.02"/><circle class="cls-2" cx="9.62" cy="113.07" r="1.02"/><circle class="cls-2" cx="10.86" cy="131.14" r="1.02"/><circle class="cls-2" cx="11.48" cy="144.84" r="1.02"/><circle class="cls-2" cx="11.48" cy="160.41" r="1.02"/><circle class="cls-2" cx="12.11" cy="169.76" r="1.02"/><circle class="cls-2" cx="12.73" cy="175.98" r="1.02"/><circle class="cls-2" cx="13.35" cy="184.08" r="1.02"/><circle class="cls-2" cx="7.75" cy="48.29" r="1.02"/><path class="cls-2" d="M5.52,188.52a37.65,37.65,0,0,1,4.74,10.9s6.23,6.85,15.58,0A23.55,23.55,0,0,1,30.66,188"/><path class="cls-2" d="M5.75,195.06l1.4,5.6s10.59,11.21,21.8,0l1.56-7.39"/><circle class="cls-2" cx="73.44" cy="84.81" r="5.61"/><circle class="cls-2" cx="66.28" cy="154.26" r="3.11"/><circle class="cls-2" cx="81.85" cy="154.26" r="3.11"/><line class="cls-2" x1="66.9" y1="157.37" x2="72.51" y2="208.45"/><line class="cls-2" x1="67.84" y1="156.91" x2="73.83" y2="208.14"/><line class="cls-2" x1="82.71" y1="157.37" x2="76.25" y2="207.83"/><line class="cls-2" x1="81.23" y1="157.45" x2="74.69" y2="208.14"/><circle class="cls-2" cx="74.38" cy="179.17" r="3.74"/><rect class="cls-2" x="60.68" y="12.24" width="26.16" height="4.98" rx="1.31"/><circle class="cls-2" cx="63.79" cy="14.73" r="1.25"/><circle class="cls-2" cx="67.11" cy="14.73" r="1.25"/><circle class="cls-2" cx="70.43" cy="14.73" r="1.25"/><circle class="cls-2" cx="73.76" cy="14.73" r="1.25"/><circle class="cls-2" cx="77.08" cy="14.73" r="1.25"/><circle class="cls-2" cx="83.72" cy="14.73" r="1.25"/><circle class="cls-2" cx="80.4" cy="14.73" r="1.25"/><path d="M15,255.72a3.08,3.08,0,0,0-.43-1c-.18-.21-.26-.29-.85-.29h-.64v4.7c0,.84.1.9,1,1v.37H10.78v-.37c.85-.07.94-.13.94-1v-4.7h-.61c-.56,0-.72.09-.91.33a4.28,4.28,0,0,0-.4.95H9.42c.07-.73.14-1.51.16-2h.3c.15.23.26.25.56.25h4a.66.66,0,0,0,.58-.25h.29c0,.42,0,1.3.1,1.95Z"/><path d="M18.8,260.49v-.34c.44-.07.47-.14.47-.68v-1.76c0-.77-.32-1-.71-1a1,1,0,0,0-.73.29v2.5c0,.54.05.61.51.68v.34H16v-.34c.48-.06.58-.09.58-.72V254.8c0-.46-.06-.57-.62-.66v-.32a10.06,10.06,0,0,0,1.9-.34v3.1a2.06,2.06,0,0,1,1.35-.65c.87,0,1.39.57,1.39,1.67v1.83c0,.63.07.64.55.72v.34Z"/><path d="M26.62,260.25c-.6.08-1.24.21-1.9.36v-.68a2.22,2.22,0,0,1-1.38.68A1.26,1.26,0,0,1,22,259.18v-2.07c0-.46-.06-.51-.32-.58l-.21-.06v-.32c.51,0,1.29-.09,1.85-.17,0,.42,0,.94,0,1.51V259c0,.65.33.87.68.87a.9.9,0,0,0,.72-.29v-2.41c0-.46,0-.54-.33-.59l-.3-.06v-.32A18.73,18.73,0,0,0,26,256v3.26c0,.52.06.63.38.66l.22,0Z"/><path d="M30,260.49v-.34c.42-.06.45-.1.45-.79v-1.71c0-.71-.35-.93-.7-.93a1.22,1.22,0,0,0-.75.3v2.42c0,.61,0,.65.45.71v.34H27.09v-.34c.52-.09.58-.1.58-.75v-2.08c0-.6-.08-.63-.51-.72v-.32A10.52,10.52,0,0,0,29,255.9c0,.14,0,.49,0,.72.2-.14.41-.29.64-.43a1.37,1.37,0,0,1,.78-.26c.81,0,1.32.59,1.32,1.61v1.89c0,.62.06.65.54.72v.34Z"/><path d="M38,260.23a16.45,16.45,0,0,0-2,.39V260l-.61.39a.93.93,0,0,1-.5.18,2.15,2.15,0,0,1-2-2.22,2.59,2.59,0,0,1,2.76-2.46,2.25,2.25,0,0,1,.4,0v-1.15c0-.53-.05-.58-.67-.66v-.33a13.83,13.83,0,0,0,2-.34v5.75c0,.54.06.59.44.64l.22,0Zm-2-3.35a.78.78,0,0,0-.75-.5c-.31,0-1,.21-1,1.66s.73,1.79,1.18,1.8a.92.92,0,0,0,.55-.17Z"/><path d="M42.39,259.51a2.29,2.29,0,0,1-1.83,1.1,2,2,0,0,1-2.09-2.18,2.62,2.62,0,0,1,.74-1.8,2.24,2.24,0,0,1,1.56-.7,1.64,1.64,0,0,1,1.65,1.63c0,.17,0,.34-.13.37s-1.6.12-2.57.16c0,1.06.63,1.6,1.35,1.6a1.72,1.72,0,0,0,1.14-.45Zm-1.82-3.17c-.4,0-.74.47-.8,1.26l1.21,0c.14,0,.2,0,.2-.2C41.19,256.87,41,256.34,40.57,256.34Z"/><path d="M45.66,260.49H43v-.34c.53-.06.58-.11.58-.71v-2.19c0-.5,0-.55-.51-.65v-.31a9.63,9.63,0,0,0,1.8-.38V257c.45-.69.81-1.06,1.22-1.06a.61.61,0,0,1,.65.6,1,1,0,0,1-.51.85.27.27,0,0,1-.31-.05c-.17-.14-.3-.3-.47-.3s-.4.13-.58.51v1.9c0,.6.07.63.77.71Z"/><path d="M49.16,256.12a1.75,1.75,0,0,1,.71-.19,2,2,0,0,1,2,2.11,2.6,2.6,0,0,1-2.63,2.57,4.74,4.74,0,0,1-1.78-.36c0-.24,0-.52,0-.77v-4.63c0-.57-.06-.65-.62-.69v-.34a13.47,13.47,0,0,0,1.91-.34v2.81Zm-.37,3.27a1,1,0,0,0,.06.34.85.85,0,0,0,.71.46c.53,0,.92-.59.92-1.82s-.63-1.78-1.23-1.78a1.48,1.48,0,0,0-.46.07Z"/><path d="M55,255.93a2.22,2.22,0,0,1,2.3,2.26,2.36,2.36,0,1,1-4.71.11A2.36,2.36,0,0,1,55,255.93Zm-.12.4c-.43,0-.85.45-.85,1.68s.41,2.19,1,2.19c.38,0,.79-.26.79-1.72S55.53,256.33,54.91,256.33Z"/><path d="M57.89,260.49v-.34c.57-.09.59-.14.59-.77v-4.55c0-.52-.06-.58-.58-.69v-.32a10.32,10.32,0,0,0,1.87-.34v5.9c0,.66,0,.7.6.77v.34Z"/><path d="M62.93,260.5a1.09,1.09,0,0,1-.4.11c-.77,0-1.23-.36-1.23-1.27v-2.79h-.64l-.06-.12.29-.38h.41v-.83l1.18-.8.13.08c0,.27,0,.8,0,1.55h1a.43.43,0,0,1-.08.5h-.92V259c0,.78.32.87.51.87a1.22,1.22,0,0,0,.48-.1l.1.36Z"/><path d="M69.14,257.35c-.26-.7-.6-1-1.07-1a.51.51,0,0,0-.53.53c0,.35.25.54.77.77.81.36,1.36.7,1.36,1.49a1.64,1.64,0,0,1-1.82,1.49,3.31,3.31,0,0,1-1.27-.3c0-.23-.13-.92-.16-1.27l.33-.06c.21.63.62,1.22,1.27,1.22a.51.51,0,0,0,.57-.52c0-.31-.15-.54-.77-.84s-1.3-.67-1.3-1.5.65-1.41,1.71-1.41a4.61,4.61,0,0,1,1.08.15c0,.27.12.91.16,1.18Z"/><path d="M72.28,260.5a1.09,1.09,0,0,1-.4.11c-.77,0-1.23-.36-1.23-1.27v-2.79H70l-.06-.12.29-.38h.41v-.83l1.18-.8.13.08c0,.27,0,.8,0,1.55h1a.43.43,0,0,1-.08.5h-.92V259c0,.78.32.87.51.87a1.22,1.22,0,0,0,.48-.1l.1.36Z"/><path d="M78.2,256.39c-.48.07-.58.17-.83.71s-.53,1.27-1.11,2.66a30.39,30.39,0,0,0-1.06,2.85.35.35,0,0,1-.36.29.76.76,0,0,1-.79-.64c0-.16.06-.24.27-.37a2,2,0,0,0,.84-.72,3.62,3.62,0,0,0,.25-.56.51.51,0,0,0,0-.38c-.52-1.44-1.16-2.81-1.34-3.23a.8.8,0,0,0-.78-.61v-.34h2.5v.34c-.43.07-.5.14-.39.45l.78,2.11c.22-.55.58-1.47.76-2,.1-.32,0-.45-.53-.53v-.34H78.2Z"/><path d="M78.21,260.49v-.34c.57-.09.59-.14.59-.77v-4.55c0-.52-.06-.58-.58-.69v-.32a10.32,10.32,0,0,0,1.87-.34v5.9c0,.66,0,.7.6.77v.34Z"/><path d="M85.17,259.51a2.29,2.29,0,0,1-1.83,1.1,2,2,0,0,1-2.1-2.18,2.63,2.63,0,0,1,.75-1.8,2.24,2.24,0,0,1,1.56-.7,1.64,1.64,0,0,1,1.65,1.63c0,.17,0,.34-.13.37s-1.6.12-2.57.16c0,1.06.63,1.6,1.35,1.6a1.72,1.72,0,0,0,1.14-.45Zm-1.82-3.17c-.4,0-.74.47-.8,1.26l1.21,0c.14,0,.2,0,.2-.2C84,256.87,83.74,256.34,83.35,256.34Z"/></g></g></svg>