<svg xmlns="http://www.w3.org/2000/svg" viewBox="0 0 93.28 264.1"><defs><style>.cls-1{font-size:20.06px;font-family:FZCUJINLJW--GB1-0, FZJinLS-B-GB;}.cls-2{fill:none;stroke:#204a46;stroke-miterlimit:10;stroke-width:0.59px;}</style></defs><title>shape_shikuang</title><g id="图层_2" data-name="图层 2"><g id="图层_1-2" data-name="图层 1"><circle cx="15.24" cy="241.91" r="2.56"/><text class="cls-1" transform="translate(23.08 248.55)">师旷式</text><circle cx="90.72" cy="241.91" r="2.56"/><path class="cls-2" d="M36.59,5.13c-3,4.84-3.62,38.09-3,40.51S37.2,54.1,37.2,54.1L34.78,143c-4.84,9.06,0,14.51,0,14.51l-1.21,47.15c-4.84,7.26-9.67,4.84-9.67,4.84h-6c-3.63,3-9.67-5.44-9.67-5.44L5.76,157.49c5.44-6.05-1.21-15.72-1.21-15.72L.32,54.1S4,49.87,4.55,45.64,3.34,20.85,3.34,20.85L.32,5.13S5.16.29,18.46.29,36.59,5.13,36.59,5.13Z"/><path class="cls-2" d="M4.55,15.41V10.57s15.72-5.44,27.81,0v4.84S18.46,11.78,4.55,15.41Z"/><circle class="cls-2" cx="7.27" cy="12.69" r="1.21"/><circle class="cls-2" cx="10.9" cy="12.08" r="1.21"/><circle class="cls-2" cx="14.53" cy="11.48" r="1.21"/><circle class="cls-2" cx="18.15" cy="11.48" r="1.21"/><circle class="cls-2" cx="21.78" cy="11.48" r="1.21"/><circle class="cls-2" cx="25.41" cy="11.48" r="1.21"/><circle class="cls-2" cx="29.04" cy="12.08" r="1.21"/><line class="cls-2" x1="28.13" y1="12.39" x2="23.9" y2="209.48"/><line class="cls-2" x1="24.8" y1="12.69" x2="22.99" y2="209.18"/><line class="cls-2" x1="20.87" y1="12.39" x2="22.29" y2="209.48"/><line class="cls-2" x1="17.55" y1="12.69" x2="21.37" y2="209.48"/><line class="cls-2" x1="14.27" y1="12.66" x2="20.5" y2="209.48"/><line class="cls-2" x1="10.9" y1="13.29" x2="19.36" y2="209.18"/><line class="cls-2" x1="6.97" y1="13.6" x2="18.46" y2="209.48"/><circle class="cls-2" cx="6.97" cy="38.99" r="1.21"/><circle class="cls-2" cx="7.27" cy="46.54" r="1.21"/><circle class="cls-2" cx="7.88" cy="52.59" r="1.21"/><circle class="cls-2" cx="8.48" cy="62.26" r="1.21"/><circle class="cls-2" cx="9.09" cy="77.98" r="1.21"/><circle class="cls-2" cx="10.29" cy="90.68" r="1.21"/><circle class="cls-2" cx="10.9" cy="110.03" r="1.21"/><circle class="cls-2" cx="12.11" cy="129.98" r="1.21"/><circle class="cls-2" cx="13.32" cy="142.67" r="1.21"/><circle class="cls-2" cx="13.92" cy="159" r="1.21"/><circle class="cls-2" cx="14.53" cy="168.67" r="1.21"/><circle class="cls-2" cx="14.53" cy="175.32" r="1.21"/><circle class="cls-2" cx="15.13" cy="183.18" r="1.21"/><path class="cls-2" d="M7.4,189.08a15.11,15.11,0,0,1,3.2,7.7c.6,4.84,2.41,5.44,2.41,5.44s4.47,1.49,5.26,4.07"/><path class="cls-2" d="M8,201.1s3.17,5.36,6.8,6c0,0,3-.6,3.63.61"/><path class="cls-2" d="M34.18,189.08a15.52,15.52,0,0,0-3,7.7c-.57,4.84-2.28,5.44-2.28,5.44s-4.22,1.49-5,4.07"/><path class="cls-2" d="M33.59,201.1s-3,5.36-6.44,6c0,0-2.85-.6-3.42.61"/><path class="cls-2" d="M58.36,43.82s-1.21,6-3,8.47l4.23,88.27s6,9.07,1.21,15.72l2.41,47.15s4.84,7.86,10.28,4.84h5.44s3.63,4.23,9.68-4.84l1.21-47.15s-6-4.24,0-15.72l1.81-88.27-4.23-8.47L88,20.25,91.61,1.5S90.4.9,87.38,2.71L73.47,1.5,57.75,3.32S55.34,1.5,54.13,2.11l3.62,20.55Z"/><rect class="cls-2" x="70.45" y="70.43" width="7.25" height="38.09" rx="3.63"/><circle class="cls-2" cx="84.36" cy="152.04" r="2.12"/><circle class="cls-2" cx="66.22" cy="152.04" r="2.12"/><line class="cls-2" x1="66.22" y1="153.86" x2="72.87" y2="208.56"/><line class="cls-2" x1="67.32" y1="153.85" x2="73.98" y2="208.27"/><line class="cls-2" x1="83.27" y1="153.86" x2="77.5" y2="208.27"/><line class="cls-2" x1="84.36" y1="153.86" x2="78.91" y2="208.27"/><path class="cls-2" d="M62.44,188.77s5,5.59,5,12.24c0,0,7.86,5.45,16.32,0,0,0,1.36-10,5.21-12.24"/><rect class="cls-2" x="72.87" y="161.11" width="5.44" height="21.16" rx="2.72"/><rect class="cls-2" x="59.87" y="12.69" width="26" height="4.84" rx="2.26"/><circle class="cls-2" cx="63.5" cy="15.11" r="1.21"/><circle class="cls-2" cx="66.72" cy="15.11" r="1.21"/><circle class="cls-2" cx="69.95" cy="15.11" r="1.21"/><circle class="cls-2" cx="73.17" cy="15.11" r="1.21"/><circle class="cls-2" cx="76.39" cy="15.11" r="1.21"/><circle class="cls-2" cx="82.84" cy="15.11" r="1.21"/><circle class="cls-2" cx="79.62" cy="15.11" r="1.21"/><path d="M28.08,256.84c-.2-.64-.48-1.37-1.4-1.37a.92.92,0,0,0-1,1c0,.55.37.88,1.25,1.32,1.07.53,1.75,1.05,1.75,2a2.16,2.16,0,0,1-2.41,2,5.78,5.78,0,0,1-1.68-.31c-.06-.23-.23-1.27-.3-1.74l.39-.09c.2.63.76,1.72,1.74,1.72a.92.92,0,0,0,1-1c0-.58-.36-.92-1.2-1.37-1-.56-1.72-1.06-1.72-2.1s.82-1.88,2.32-1.88a7.39,7.39,0,0,1,1.43.18c0,.37.11.89.19,1.52Z"/><path d="M32.15,261.69v-.34c.44-.07.47-.14.47-.68v-1.76c0-.77-.32-1-.71-1a1,1,0,0,0-.73.29v2.5c0,.54.05.61.51.68v.34H29.31v-.34c.49-.06.58-.09.58-.72V256c0-.46-.06-.57-.62-.66V255a10.18,10.18,0,0,0,1.91-.34v3.1a2.06,2.06,0,0,1,1.35-.65c.87,0,1.39.57,1.39,1.67v1.83c0,.63.07.64.55.72v.34Z"/><path d="M35,261.69v-.34c.54-.07.6-.11.6-.82v-1.95c0-.67,0-.71-.52-.77v-.33a10.94,10.94,0,0,0,1.81-.36v3.41c0,.68,0,.75.62.82v.34Zm1.17-5.18a.73.73,0,0,1-.72-.71.72.72,0,0,1,.73-.71.7.7,0,0,1,.72.71A.72.72,0,0,1,36.14,256.51Z"/><path d="M43.17,261.69c-.78,0-1.46,0-1.83,0l-1.29-2c-.09-.12-.15-.17-.2-.18h-.09v1.07c0,.65.05.67.59.75v.34H37.89v-.34c.53-.08.58-.1.58-.75V256c0-.54,0-.59-.58-.71V255a8.82,8.82,0,0,0,1.87-.34v4.56a1.29,1.29,0,0,0,.56-.39,5.75,5.75,0,0,0,.73-.89c.12-.22,0-.32-.41-.38v-.33l2.14-.08v.32a1.94,1.94,0,0,0-1.29.6c-.16.16-.38.43-.66.75.25.39,1.19,1.66,1.47,2a1.11,1.11,0,0,0,.87.51Z"/><path d="M48.2,261.45c-.6.08-1.24.21-1.9.36v-.68a2.22,2.22,0,0,1-1.38.68,1.26,1.26,0,0,1-1.31-1.43v-2.07c0-.46-.06-.51-.33-.58l-.21-.06v-.32c.51,0,1.3-.09,1.86-.17,0,.42,0,.94,0,1.51v1.46c0,.65.33.87.68.87a.9.9,0,0,0,.72-.29v-2.41c0-.46,0-.54-.33-.59l-.3-.06v-.32a18.73,18.73,0,0,0,1.93-.17v3.26c0,.52.06.63.38.66l.22,0Z"/><path d="M52,261.81a.92.92,0,0,1-.62-.21,1,1,0,0,1-.26-.37,3.7,3.7,0,0,1-1.06.58,1.31,1.31,0,0,1-1.36-1.29c0-.53.24-.77.77-1a8.39,8.39,0,0,0,1.61-.66v-.44c0-.52-.19-.81-.62-.81a.49.49,0,0,0-.4.2,1.91,1.91,0,0,0-.24.66.4.4,0,0,1-.43.34.61.61,0,0,1-.59-.52c0-.18.12-.31.35-.47a4.92,4.92,0,0,1,1.6-.71,1.76,1.76,0,0,1,1,.29,1.35,1.35,0,0,1,.55,1.23v1.73c0,.48.16.6.32.6a.75.75,0,0,0,.31-.08l.11.34Zm-.92-2.52-.56.31a.72.72,0,0,0-.49.68.68.68,0,0,0,.61.76.56.56,0,0,0,.44-.16Z"/><path d="M56.29,261.69v-.34c.42-.06.45-.1.45-.79v-1.71c0-.71-.35-.93-.7-.93a1.22,1.22,0,0,0-.75.3v2.42c0,.61,0,.65.45.71v.34H53.42v-.34c.52-.09.58-.1.58-.75v-2.08c0-.6-.08-.63-.52-.72v-.32a10.44,10.44,0,0,0,1.83-.38c0,.14,0,.49,0,.72.2-.14.41-.29.64-.43a1.37,1.37,0,0,1,.78-.26c.81,0,1.32.59,1.32,1.61v1.89c0,.62.06.65.54.72v.34Z"/><path d="M60.55,260.13a.6.6,0,0,0-.18.34c0,.16.19.37.57.37h1.13c.61,0,1.5.25,1.5,1.23s-1.38,2-2.71,2-1.9-.64-1.9-1.19a.62.62,0,0,1,.3-.55l.75-.5a1.45,1.45,0,0,1-.75-.56.87.87,0,0,1-.16-.55,3.11,3.11,0,0,0,1.08-.73Zm.48.1c-1.14,0-1.88-.61-1.88-1.51a1.76,1.76,0,0,1,1.94-1.59,2.44,2.44,0,0,1,1.13.26,7.35,7.35,0,0,0,1.38-.14l0,.08a1.28,1.28,0,0,1-.37.62c-.17,0-.45,0-.59-.05a1.23,1.23,0,0,1,.24.82C62.93,259.72,62,260.23,61,260.23Zm.12,1.66a1.38,1.38,0,0,0-.91.19.73.73,0,0,0-.28.55c0,.53.5.94,1.36.94s1.25-.36,1.25-.9A.69.69,0,0,0,62,262,3.19,3.19,0,0,0,61.15,261.89ZM61,257.51c-.31,0-.62.37-.62,1.1s.23,1.24.7,1.24.61-.41.61-1.13S61.52,257.51,61,257.51Z"/><path d="M68.89,258.55c-.26-.7-.6-1-1.07-1a.51.51,0,0,0-.53.53c0,.35.25.54.77.77.81.36,1.36.7,1.36,1.49a1.64,1.64,0,0,1-1.82,1.49,3.31,3.31,0,0,1-1.27-.3c0-.23-.13-.92-.16-1.27l.33-.06c.21.63.62,1.22,1.27,1.22a.51.51,0,0,0,.57-.52c0-.31-.15-.54-.77-.84s-1.3-.67-1.3-1.5.65-1.41,1.71-1.41a4.61,4.61,0,0,1,1.08.15c0,.27.12.91.16,1.18Z"/><path d="M72,261.7a1.09,1.09,0,0,1-.4.11c-.77,0-1.23-.36-1.23-1.27v-2.79h-.64l-.06-.12.29-.38h.41v-.83l1.18-.8.13.08c0,.27,0,.8,0,1.55h1a.43.43,0,0,1-.08.5h-.92v2.45c0,.78.32.87.51.87a1.22,1.22,0,0,0,.48-.1l.1.36Z"/><path d="M78,257.59c-.48.07-.58.17-.83.71S76.59,259.57,76,261A30.39,30.39,0,0,0,75,263.81a.35.35,0,0,1-.36.29.76.76,0,0,1-.79-.64c0-.16.06-.24.27-.37a2,2,0,0,0,.84-.72,3.62,3.62,0,0,0,.25-.56.51.51,0,0,0,0-.38c-.52-1.44-1.16-2.81-1.34-3.23a.8.8,0,0,0-.78-.61v-.34h2.5v.34c-.43.07-.5.14-.39.45l.78,2.11c.22-.55.58-1.47.76-2,.1-.32,0-.45-.53-.53v-.34H78Z"/><path d="M78,261.69v-.34c.57-.09.59-.14.59-.77V256c0-.52-.06-.58-.58-.69V255a10.32,10.32,0,0,0,1.87-.34v5.9c0,.66,0,.7.6.77v.34Z"/><path d="M84.92,260.71a2.29,2.29,0,0,1-1.83,1.1,2,2,0,0,1-2.1-2.18,2.63,2.63,0,0,1,.75-1.8,2.24,2.24,0,0,1,1.56-.7A1.64,1.64,0,0,1,85,258.76c0,.17,0,.34-.13.37s-1.6.12-2.57.16c0,1.06.63,1.6,1.35,1.6a1.72,1.72,0,0,0,1.14-.45Zm-1.82-3.17c-.4,0-.74.47-.8,1.26l1.21,0c.14,0,.2,0,.2-.2C83.72,258.07,83.49,257.54,83.1,257.54Z"/></g></g></svg>