<svg xmlns="http://www.w3.org/2000/svg" viewBox="0 0 91.24 260.54"><defs><style>.cls-1{font-size:20.06px;font-family:FZCUJINLJW--GB1-0, FZJinLS-B-GB;}.cls-2,.cls-3,.cls-4,.cls-5,.cls-6{fill:none;stroke:#204a46;stroke-miterlimit:10;}.cls-2{stroke-width:0.62px;}.cls-3{stroke-width:0.62px;}.cls-4{stroke-width:0.54px;}.cls-5{stroke-width:0.6px;}.cls-6{stroke-width:0.47px;}</style></defs><title>shape_zhongni</title><g id="图层_2" data-name="图层 2"><g id="图层_1-2" data-name="图层 1"><circle cx="2.97" cy="239.34" r="2.56"/><text class="cls-1" transform="translate(10.8 245.97)">仲尼式</text><circle cx="78.45" cy="239.34" r="2.56"/><path class="cls-2" d="M2.44,1.72c13.62-2.78,30.64,0,30.64,0V17.81S30,17.81,30,24s.62,18,.62,18-.62,3.09,4.33,9.28c0,0,.62,1.24,0,6.19l-1.86,69.95-1.23,1.23v37.76l.61.62-1.23,39s-1.86,5.57-9.29,6.19v-1.55H13.58v1.55C6.16,211.56,4.3,206,4.3,206L3.06,167l.62-.62V128.61l-1.24-1.23L.59,57.43c-.62-5,0-6.19,0-6.19C5.54,45.05,4.92,42,4.92,42s.62-11.77.62-18-3.1-6.19-3.1-6.19V1.72s17-2.78,30.64,0"/><path class="cls-2" d="M88.79,1.72V17.81s-3.09,0-3.09,6.19.62,18,.62,18-.62,3.09,4.33,9.28c0,0,.62,1.24,0,6.19l-1.86,69.95-1.24,1.23v37.76l.62.62-1.23,39s-1.86,5.57-9.29,6.19v-1.55H69.29v1.55C61.87,211.56,60,206,60,206l-1.24-39,.62-.62V128.61l-1.24-1.23L56.3,57.43c-.62-5,0-6.19,0-6.19,5-6.19,4.33-9.28,4.33-9.28s.62-11.77.62-18-3.1-6.19-3.1-6.19V.79l3.41.62s14.85-2.47,24.14,0L88.79.79V2"/><path class="cls-2" d="M2.44,11s15.68-5,30.75,0"/><path class="cls-2" d="M2.44,14.1s15.58-2.48,30.69,0"/><path class="cls-2" d="M2.44,16s11.76-1.24,31,0"/><circle class="cls-3" cx="15.13" cy="13.17" r="1.24"/><circle class="cls-3" cx="18.85" cy="13.17" r="1.24"/><circle class="cls-3" cx="22.56" cy="13.17" r="1.24"/><circle class="cls-4" cx="26.27" cy="13.17" r="1.08"/><circle class="cls-4" cx="29.37" cy="13.79" r="1.08"/><circle class="cls-4" cx="11.42" cy="13.17" r="1.08"/><circle class="cls-4" cx="8.32" cy="13.79" r="1.08"/><path class="cls-5" d="M31.54,190.51a6.8,6.8,0,0,0-2.33,5c0,3.09-.59,8.66-.59,8.66s-6.41,3.72-7,5v1.24"/><path class="cls-5" d="M4,190.51a6.8,6.8,0,0,1,2.33,5c0,3.09.58,8.66.58,8.66s6.41,3.72,7,5v1.24"/><line class="cls-5" x1="13.46" y1="208.44" x2="22.25" y2="208.44"/><line class="cls-5" x1="8.32" y1="14.41" x2="14.51" y2="208.16"/><line class="cls-5" x1="11.73" y1="14.1" x2="15.39" y2="208.49"/><line class="cls-5" x1="15.13" y1="13.79" x2="16.37" y2="208.16"/><line class="cls-5" x1="19.16" y1="14.1" x2="17.3" y2="208.47"/><line class="cls-5" x1="22.56" y1="13.79" x2="18.23" y2="208.16"/><line class="cls-5" x1="25.96" y1="14.1" x2="19.16" y2="208.47"/><line class="cls-5" x1="29.37" y1="14.41" x2="20.34" y2="208.41"/><circle class="cls-3" cx="7.56" cy="39.04" r="0.83"/><circle class="cls-3" cx="8.18" cy="46.46" r="0.83"/><circle class="cls-3" cx="8.18" cy="53.27" r="0.83"/><circle class="cls-3" cx="8.18" cy="61.94" r="0.83"/><circle class="cls-3" cx="8.8" cy="77.41" r="0.83"/><circle class="cls-3" cx="8.18" cy="89.79" r="0.83"/><circle class="cls-3" cx="8.8" cy="108.98" r="0.83"/><circle class="cls-3" cx="9.41" cy="128.17" r="0.83"/><circle class="cls-3" cx="10.03" cy="141.79" r="0.83"/><circle class="cls-3" cx="10.65" cy="157.88" r="0.83"/><circle class="cls-3" cx="11.27" cy="168.41" r="0.83"/><circle class="cls-3" cx="11.27" cy="183.26" r="0.83"/><circle class="cls-3" cx="11.27" cy="175.21" r="0.83"/><rect class="cls-3" x="69.6" y="65.79" width="6.81" height="43.95"/><rect class="cls-2" x="60.01" y="11.62" width="26.62" height="5.57" rx="1.39"/><circle class="cls-6" cx="63.1" cy="14.72" r="0.93"/><circle class="cls-6" cx="66.51" cy="14.72" r="0.93"/><circle class="cls-6" cx="69.91" cy="14.72" r="0.93"/><circle class="cls-6" cx="83.53" cy="14.72" r="0.93"/><circle class="cls-6" cx="73.32" cy="14.72" r="0.93"/><circle class="cls-6" cx="76.72" cy="14.72" r="0.93"/><circle class="cls-6" cx="80.13" cy="14.72" r="0.93"/><circle class="cls-2" cx="63.1" cy="155.23" r="2.48"/><circle class="cls-2" cx="84.46" cy="157.4" r="2.48"/><line class="cls-2" x1="63.1" y1="157.71" x2="71.46" y2="210.63"/><line class="cls-2" x1="63.52" y1="158.33" x2="72.7" y2="210.63"/><line class="cls-2" x1="85.18" y1="159.98" x2="74.56" y2="210.63"/><line class="cls-2" x1="84.15" y1="159.56" x2="73.32" y2="210.63"/><rect class="cls-2" x="69.91" y="168.23" width="6.81" height="21.05"/><path d="M18.54,256.28c-.07.38-.35,1.5-.44,1.85H12.73l-.07-.22c1.22-1.83,2.57-3.89,3.81-5.81H14.93c-.72,0-.89.1-1.1.44a4.75,4.75,0,0,0-.4.86h-.38c.06-.61.16-1.57.19-2h.35c.12.23.26.25.56.25h4l.07.17c-1.22,1.88-2.51,3.85-3.76,5.83.33,0,.62,0,1.25,0,1.19,0,1.38,0,1.67-.3a3.69,3.69,0,0,0,.74-1.18Z"/><path d="M21.94,258.13v-.34c.44-.07.47-.14.47-.68v-1.76c0-.77-.32-1-.71-1a1,1,0,0,0-.73.29v2.5c0,.54.05.61.51.68v.34H19.1v-.34c.49-.06.58-.09.58-.72v-4.63c0-.46-.06-.57-.62-.66v-.31a12.11,12.11,0,0,0,1.91-.34v3.09a2.06,2.06,0,0,1,1.35-.65c.87,0,1.39.57,1.39,1.67v1.83c0,.63.07.64.55.72v.34Z"/><path d="M27.26,253.57a2.22,2.22,0,0,1,2.3,2.26,2.36,2.36,0,1,1-4.71.11A2.36,2.36,0,0,1,27.26,253.57Zm-.12.4c-.43,0-.85.45-.85,1.68s.41,2.19,1,2.19c.38,0,.79-.26.79-1.72S27.76,254,27.14,254Z"/><path d="M33,258.13v-.34c.42-.06.45-.1.45-.79v-1.71c0-.71-.35-.93-.7-.93a1.22,1.22,0,0,0-.75.3v2.42c0,.61,0,.65.45.71v.34H30.17v-.34c.52-.09.58-.1.58-.75V255c0-.6-.08-.63-.52-.72v-.32a10.44,10.44,0,0,0,1.83-.38c0,.14,0,.49,0,.72.2-.14.41-.29.64-.43a1.37,1.37,0,0,1,.78-.26c.81,0,1.32.59,1.32,1.61v1.89c0,.62.06.65.54.72v.34Z"/><path d="M37.3,256.57a.6.6,0,0,0-.18.34c0,.16.19.37.57.37h1.13c.61,0,1.5.25,1.5,1.23s-1.38,2-2.71,2-1.9-.64-1.9-1.19a.62.62,0,0,1,.3-.55l.75-.5a1.45,1.45,0,0,1-.75-.56.87.87,0,0,1-.16-.55,3.11,3.11,0,0,0,1.08-.73Zm.48.1c-1.14,0-1.88-.61-1.88-1.51a1.76,1.76,0,0,1,1.94-1.59,2.44,2.44,0,0,1,1.13.26,7.35,7.35,0,0,0,1.38-.14l0,.08a1.28,1.28,0,0,1-.37.62c-.17,0-.45,0-.59,0a1.23,1.23,0,0,1,.24.82C39.68,256.16,38.76,256.67,37.78,256.67Zm.12,1.66a1.38,1.38,0,0,0-.91.19.73.73,0,0,0-.28.55c0,.53.5.94,1.36.94s1.25-.36,1.25-.9a.69.69,0,0,0-.55-.69A3.19,3.19,0,0,0,37.9,258.33ZM37.79,254c-.31,0-.62.37-.62,1.1s.23,1.24.7,1.24.61-.41.61-1.13S38.27,254,37.79,254Z"/><path d="M43.59,258.13v-.34c.42-.06.45-.1.45-.79v-1.71c0-.71-.35-.93-.7-.93a1.22,1.22,0,0,0-.75.3v2.42c0,.61,0,.65.45.71v.34H40.72v-.34c.52-.09.58-.1.58-.75V255c0-.6-.08-.63-.52-.72v-.32a10.44,10.44,0,0,0,1.83-.38c0,.14,0,.49,0,.72.2-.14.41-.29.64-.43a1.37,1.37,0,0,1,.78-.26c.81,0,1.32.59,1.32,1.61v1.89c0,.62.06.65.54.72v.34Z"/><path d="M46.39,258.13v-.34c.54-.07.6-.11.6-.82v-2c0-.67-.05-.71-.52-.77v-.33a10.94,10.94,0,0,0,1.81-.36V257c0,.68,0,.75.62.82v.34ZM47.56,253a.73.73,0,0,1-.72-.71.72.72,0,0,1,.73-.71.7.7,0,0,1,.72.71A.72.72,0,0,1,47.56,253Z"/><path d="M54.38,255c-.26-.7-.6-1-1.07-1a.51.51,0,0,0-.53.53c0,.35.25.54.77.77.81.36,1.36.7,1.36,1.49a1.64,1.64,0,0,1-1.82,1.49,3.31,3.31,0,0,1-1.27-.3c0-.23-.13-.92-.16-1.27l.33-.06c.21.63.62,1.22,1.27,1.22a.51.51,0,0,0,.57-.52c0-.31-.15-.54-.77-.84s-1.3-.67-1.3-1.5.65-1.41,1.71-1.41a4.61,4.61,0,0,1,1.08.15c0,.27.12.91.16,1.18Z"/><path d="M57.52,258.14a1.09,1.09,0,0,1-.4.11c-.77,0-1.23-.36-1.23-1.27v-2.79h-.64l-.06-.12.29-.38h.41v-.83l1.18-.8.13.08c0,.27,0,.8,0,1.55h1a.43.43,0,0,1-.08.5h-.92v2.45c0,.78.32.87.51.87a1.22,1.22,0,0,0,.48-.1l.1.36Z"/><path d="M63.44,254c-.48.07-.58.17-.83.71s-.53,1.27-1.11,2.66a30.39,30.39,0,0,0-1.06,2.85.35.35,0,0,1-.36.29.76.76,0,0,1-.79-.64c0-.16.06-.24.27-.37a2,2,0,0,0,.84-.72,3.62,3.62,0,0,0,.25-.56.51.51,0,0,0,0-.38c-.52-1.44-1.16-2.81-1.34-3.23a.8.8,0,0,0-.78-.61v-.34H61V254c-.43.07-.5.14-.39.45l.78,2.11c.22-.55.58-1.47.76-2,.1-.32,0-.45-.53-.53v-.34h1.83Z"/><path d="M63.45,258.13v-.34c.57-.09.59-.14.59-.77v-4.55c0-.52-.06-.58-.58-.69v-.31a12.41,12.41,0,0,0,1.87-.34V257c0,.66,0,.7.6.77v.34Z"/><path d="M70.41,257.15a2.29,2.29,0,0,1-1.83,1.1,2,2,0,0,1-2.1-2.18,2.63,2.63,0,0,1,.75-1.8,2.24,2.24,0,0,1,1.56-.7,1.64,1.64,0,0,1,1.65,1.63c0,.17,0,.34-.13.37s-1.6.12-2.57.16c0,1.06.63,1.6,1.35,1.6a1.72,1.72,0,0,0,1.14-.45ZM68.59,254c-.4,0-.74.47-.8,1.26l1.21,0c.14,0,.2,0,.2-.2C69.21,254.51,69,254,68.59,254Z"/></g></g></svg>