<svg xmlns="http://www.w3.org/2000/svg" viewBox="0 0 25.67 42.17"><defs><style>.cls-1{fill:#a7dccc;}.cls-2{fill:#fff;stroke:#a7dccc;stroke-miterlimit:10;stroke-width:1.05px;}.cls-3{fill:#4eeaab;}.cls-4{fill:#204a46;}</style></defs><title>time_note</title><g id="图层_2" data-name="图层 2"><g id="图层_1-2" data-name="图层 1"><circle class="cls-1" cx="12.84" cy="12.84" r="12.84"/><line class="cls-2" x1="12.84" y1="22.92" x2="12.84" y2="42.17"/><path class="cls-3" d="M7.62,17.61a3.23,3.23,0,1,0,3.23-3.23,3.23,3.23,0,0,0-3.23,3.23Z"/><path class="cls-4" d="M20.15,4.68a.57.57,0,0,0-.57-.57.52.52,0,0,0-.21,0L13.15,6.54a.58.58,0,0,0-.37.54h0v8a3.22,3.22,0,1,0,1.28,2.79h0V10.69l5.73-2.2A.57.57,0,0,0,20.17,8Zm-9.3,14.86a1.94,1.94,0,1,1,1.93-1.93,1.94,1.94,0,0,1-1.93,1.93ZM14.08,9.31V7.56l4.8-1.84V7.46Z"/></g></g></svg>