<svg xmlns="http://www.w3.org/2000/svg" viewBox="0 0 647.01 887.62"><defs><style>.cls-1{font-size:20.06px;}.cls-1,.cls-18{font-family:FZCUJINLJW--GB1-0, FZJinLS-B-GB;}.cls-10,.cls-11,.cls-12,.cls-14,.cls-16,.cls-17,.cls-19,.cls-2,.cls-20,.cls-21,.cls-22,.cls-23,.cls-24,.cls-25,.cls-26,.cls-27,.cls-3,.cls-4,.cls-5,.cls-6,.cls-7,.cls-8,.cls-9{fill:none;stroke:#204a46;stroke-miterlimit:10;}.cls-2{stroke-width:0.59px;}.cls-3{stroke-width:0.62px;}.cls-4{stroke-width:0.63px;}.cls-5{stroke-width:0.56px;}.cls-6{stroke-width:0.57px;}.cls-7{stroke-width:0.62px;}.cls-8{stroke-width:0.62px;}.cls-9{stroke-width:0.54px;}.cls-10{stroke-width:0.6px;}.cls-11{stroke-width:0.47px;}.cls-12{stroke-width:1.96px;}.cls-13{fill:#fef5e4;}.cls-14{stroke-width:0.75px;}.cls-15,.cls-18{fill:#204a46;}.cls-17{stroke-dasharray:3.97 3.97;}.cls-18{font-size:13px;}.cls-19{stroke-width:0.81px;}.cls-20,.cls-21{stroke-width:1.08px;}.cls-21{stroke-dasharray:4.52 4.52;}.cls-22{stroke-width:0.85px;}.cls-23,.cls-24{stroke-width:1.13px;}.cls-24{stroke-dasharray:4.63 4.63;}.cls-25{stroke-width:0.82px;}.cls-26,.cls-27{stroke-width:1.1px;}.cls-27{stroke-dasharray:4.55 4.55;}</style></defs><title>shape</title><g id="图层_2" data-name="图层 2"><g id="图层_1-2" data-name="图层 1"><circle cx="11.32" cy="285.93" r="2.56"/><text class="cls-1" transform="translate(19.15 292.56)">霹雳式</text><circle cx="86.8" cy="285.93" r="2.56"/><circle cx="214.15" cy="285.93" r="2.56"/><text class="cls-1" transform="translate(221.98 292.56)">蕉叶式</text><circle cx="289.63" cy="285.93" r="2.56"/><circle cx="414.48" cy="285.93" r="2.56"/><text class="cls-1" transform="translate(422.32 292.56)">连珠式</text><circle cx="489.96" cy="285.93" r="2.56"/><circle cx="9.91" cy="578.57" r="2.56"/><text class="cls-1" transform="translate(17.75 585.21)">灵机式</text><circle cx="85.39" cy="578.57" r="2.56"/><circle cx="211.73" cy="578.57" r="2.56"/><text class="cls-1" transform="translate(219.57 585.21)">落霞式</text><circle cx="287.21" cy="578.57" r="2.56"/><circle cx="414.06" cy="876.44" r="2.56"/><text class="cls-1" transform="translate(421.89 883.07)">仲尼式</text><circle cx="489.54" cy="876.44" r="2.56"/><circle cx="424.93" cy="581.65" r="2.56"/><text class="cls-1" transform="translate(432.77 588.29)">师旷式</text><circle cx="500.41" cy="581.65" r="2.56"/><circle cx="10.1" cy="871.8" r="2.56"/><text class="cls-1" transform="translate(17.94 878.44)">神农式</text><circle cx="85.58" cy="871.8" r="2.56"/><circle cx="214.15" cy="871.8" r="2.56"/><text class="cls-1" transform="translate(221.98 878.44)">宣和式</text><circle cx="289.63" cy="871.8" r="2.56"/><path class="cls-2" d="M219.76,550.24v-1h7.08v1c10.11,1,11.07-7.19,11.07-7.19l.61-44.2-2-1,2-56.54c10.11-15.42,0-29.81,0-29.81s0-50.37,2-56.54-.46-13.07-14.83-15.29a12.11,12.11,0,0,0-1.8-.13h-.45a21.36,21.36,0,0,0-3.82.34c-13.32,2.42-16,9.21-14,15.08,2,6.17,2,56.54,2,56.54s-10.11,14.39,0,29.81l2,56.54-2,1,.61,44.2s1.41,8.22,11.52,7.19v-1h7.08v1"/><path class="cls-2" d="M275.7,550.24v-1h7.08v1c10.11,1,11.68-7.19,11.68-7.19v-44.2l-2-1,2-56.54c10.11-15.42,0-29.81,0-29.81s0-50.37,2-56.54-.46-13.07-14.83-15.29a12,12,0,0,0-1.8-.13h-.44a21.28,21.28,0,0,0-3.82.34c-13.32,2.42-16,9.21-14,15.08,2,6.17,2,56.54,2,56.54s-10.11,14.39,0,29.81l2,56.54-2,1v44.2s2,8.22,12.14,7.19v-1h7.08v1"/><circle class="cls-2" cx="210.66" cy="377.94" r="1.01"/><circle class="cls-2" cx="212.68" cy="350.64" r="1.01"/><circle class="cls-2" cx="215.72" cy="350.64" r="1.01"/><circle class="cls-2" cx="211.17" cy="385.52" r="1.01"/><circle class="cls-2" cx="211.67" cy="393.1" r="1.01"/><circle class="cls-2" cx="212.18" cy="401.7" r="1.01"/><circle class="cls-2" cx="212.68" cy="418.38" r="1.01"/><circle class="cls-2" cx="213.69" cy="430.51" r="1.01"/><circle class="cls-2" cx="215.72" cy="450.74" r="1.01"/><circle class="cls-2" cx="216.73" cy="469.95" r="1.01"/><circle class="cls-2" cx="217.74" cy="483.09" r="1.01"/><circle class="cls-2" cx="217.74" cy="499.27" r="1.01"/><circle class="cls-2" cx="217.74" cy="509.38" r="1.01"/><circle class="cls-2" cx="217.74" cy="516.46" r="1.01"/><circle class="cls-2" cx="217.74" cy="523.54" r="1.01"/><path class="cls-2" d="M239.48,350.13c-2-6.07-24.27-4.05-28.31-3s-3,4-3,4,1,3,3,3,12.13-2,25.28,0a3.13,3.13,0,0,0,2-1C239.18,352.45,239.48,350.13,239.48,350.13Z"/><path class="cls-2" d="M208.31,350.57s16.51-4,30.66.07"/><path class="cls-2" d="M208.93,352.71s20-3.5,29.85,0"/><circle class="cls-2" cx="229.87" cy="350.24" r="1.01"/><circle class="cls-2" cx="232.33" cy="350.24" r="0.79"/><circle class="cls-2" cx="226.84" cy="350.24" r="1.01"/><circle class="cls-2" cx="223.15" cy="350.24" r="1.01"/><circle class="cls-2" cx="219.46" cy="350.24" r="1.01"/><line class="cls-2" x1="212.53" y1="351.89" x2="220.21" y2="548.89"/><line class="cls-2" x1="215.6" y1="351.89" x2="221.44" y2="548.89"/><line class="cls-2" x1="231.89" y1="350.96" x2="226.36" y2="548.89"/><line class="cls-2" x1="229.74" y1="351.27" x2="225.44" y2="548.89"/><line class="cls-2" x1="226.67" y1="351.27" x2="224.52" y2="548.89"/><line class="cls-2" x1="223.29" y1="350.96" x2="223.59" y2="548.89"/><line class="cls-2" x1="219.29" y1="351.27" x2="222.67" y2="548.89"/><circle class="cls-2" cx="278.92" cy="426.88" r="7.99"/><path class="cls-2" d="M263.56,534.68a8.18,8.18,0,0,1,4.29,6.53s0,2.46,1.85,3.07,8.6,3.69,19.67-.61a7.48,7.48,0,0,0,1.23-3.07c.61-2.46,1.58-5.08,3.86-5.92"/><circle class="cls-2" cx="287.52" cy="498.8" r="2.15"/><circle class="cls-2" cx="269.7" cy="498.8" r="2.15"/><line class="cls-2" x1="270.82" y1="500.85" x2="276.66" y2="549.2"/><line class="cls-2" x1="285.99" y1="500.33" x2="281.07" y2="548.89"/><rect class="cls-2" x="276.15" y="507.71" width="4.92" height="21.51" rx="2.46"/><path class="cls-2" d="M219.91,549.2v-3.69s2.15-1.53,6.45,0v3.69"/><path class="cls-2" d="M208.24,530s3.68,1.38,3.68,8.15c0,0,0,3.68,1.84,4.3s3.69,0,6.15,3.07"/><path class="cls-2" d="M238.35,530s-3.68,1.38-3.68,8.15c0,0,0,3.68-1.84,4.3s-4.3,0-6.76,3.07"/><path class="cls-2" d="M208.24,538.39s.6,5.28,8,9c0,0,2.46-1.23,3.69,0"/><path class="cls-2" d="M237.73,538.39s-.57,5.28-7.55,9c0,0-2.33-1.23-3.5,0"/><rect class="cls-2" x="265.09" y="349.12" width="26.43" height="4.92" rx="2.3"/><circle class="cls-2" cx="268.77" cy="351.58" r="1.23"/><circle class="cls-2" cx="272.05" cy="351.58" r="1.23"/><circle class="cls-2" cx="275.33" cy="351.58" r="1.23"/><circle class="cls-2" cx="278.61" cy="351.58" r="1.23"/><circle class="cls-2" cx="281.89" cy="351.58" r="1.23"/><circle class="cls-2" cx="288.44" cy="351.58" r="1.23"/><circle class="cls-2" cx="285.17" cy="351.58" r="1.23"/><path class="cls-2" d="M446.29,344.87c-3,4.84-3.63,38.09-3,40.51s3.63,8.46,3.63,8.46l-2.42,88.88c-4.84,9.07,0,14.51,0,14.51l-1.21,47.15c-4.83,7.26-9.67,4.84-9.67,4.84h-6c-3.62,3-9.67-5.44-9.67-5.44l-2.42-46.55c5.44-6.05-1.21-15.72-1.21-15.72L410,393.84s3.63-4.23,4.23-8.46S413,360.59,413,360.59l-3-15.72s4.84-4.83,18.14-4.83S446.29,344.87,446.29,344.87Z"/><path class="cls-2" d="M414.24,355.15v-4.84s15.72-5.44,27.81,0v4.84S428.15,351.52,414.24,355.15Z"/><circle class="cls-2" cx="416.96" cy="352.43" r="1.21"/><circle class="cls-2" cx="420.59" cy="351.83" r="1.21"/><circle class="cls-2" cx="424.22" cy="351.22" r="1.21"/><circle class="cls-2" cx="427.85" cy="351.22" r="1.21"/><circle class="cls-2" cx="431.47" cy="351.22" r="1.21"/><circle class="cls-2" cx="435.1" cy="351.22" r="1.21"/><circle class="cls-2" cx="438.73" cy="351.83" r="1.21"/><line class="cls-2" x1="437.82" y1="352.13" x2="433.59" y2="549.22"/><line class="cls-2" x1="434.5" y1="352.43" x2="432.68" y2="548.92"/><line class="cls-2" x1="430.57" y1="352.13" x2="431.98" y2="549.22"/><line class="cls-2" x1="427.24" y1="352.43" x2="431.06" y2="549.22"/><line class="cls-2" x1="423.96" y1="352.4" x2="430.19" y2="549.22"/><line class="cls-2" x1="420.59" y1="353.03" x2="429.05" y2="548.92"/><line class="cls-2" x1="416.66" y1="353.34" x2="428.15" y2="549.22"/><circle class="cls-2" cx="416.66" cy="378.73" r="1.21"/><circle class="cls-2" cx="416.96" cy="386.29" r="1.21"/><circle class="cls-2" cx="417.57" cy="392.33" r="1.21"/><circle class="cls-2" cx="418.17" cy="402.01" r="1.21"/><circle class="cls-2" cx="418.78" cy="417.72" r="1.21"/><circle class="cls-2" cx="419.99" cy="430.42" r="1.21"/><circle class="cls-2" cx="420.59" cy="449.77" r="1.21"/><circle class="cls-2" cx="421.8" cy="469.72" r="1.21"/><circle class="cls-2" cx="423.01" cy="482.41" r="1.21"/><circle class="cls-2" cx="423.61" cy="498.74" r="1.21"/><circle class="cls-2" cx="424.22" cy="508.41" r="1.21"/><circle class="cls-2" cx="424.22" cy="515.06" r="1.21"/><circle class="cls-2" cx="424.82" cy="522.92" r="1.21"/><path class="cls-2" d="M417.09,528.82a15.11,15.11,0,0,1,3.2,7.7c.6,4.84,2.42,5.45,2.42,5.45s4.46,1.48,5.25,4.07"/><path class="cls-2" d="M417.72,540.84s3.17,5.36,6.8,6c0,0,3-.6,3.63.61"/><path class="cls-2" d="M443.87,528.82a15.46,15.46,0,0,0-3,7.7c-.58,4.84-2.29,5.45-2.29,5.45s-4.22,1.48-5,4.07"/><path class="cls-2" d="M443.28,540.84s-3,5.36-6.43,6c0,0-2.86-.6-3.43.61"/><path class="cls-2" d="M468.05,383.57s-1.21,6-3,8.46l4.23,88.27s6,9.07,1.21,15.72l2.42,47.15s4.83,7.86,10.27,4.84h5.45s3.62,4.23,9.67-4.84L499.49,496s-6.05-4.23,0-15.72L501.3,392l-4.23-8.46.6-23.58,3.63-18.74s-1.21-.61-4.23,1.2l-13.91-1.2-15.71,1.81s-2.42-1.81-3.63-1.21l3.63,20.56Z"/><rect class="cls-2" x="480.14" y="410.17" width="7.25" height="38.09" rx="3.63"/><circle class="cls-2" cx="494.05" cy="491.79" r="2.12"/><circle class="cls-2" cx="475.91" cy="491.79" r="2.12"/><line class="cls-2" x1="475.91" y1="493.6" x2="482.56" y2="548.3"/><line class="cls-2" x1="477.01" y1="493.59" x2="483.67" y2="548.01"/><line class="cls-2" x1="492.96" y1="493.6" x2="487.19" y2="548.01"/><line class="cls-2" x1="494.05" y1="493.6" x2="488.61" y2="548.01"/><path class="cls-2" d="M472.13,528.51s5,5.6,5,12.25c0,0,7.86,5.44,16.32,0,0,0,1.36-10,5.21-12.25"/><rect class="cls-2" x="482.56" y="500.85" width="5.44" height="21.16" rx="2.72"/><rect class="cls-2" x="469.56" y="352.43" width="26" height="4.84" rx="2.26"/><circle class="cls-2" cx="473.19" cy="354.85" r="1.21"/><circle class="cls-2" cx="476.41" cy="354.85" r="1.21"/><circle class="cls-2" cx="479.64" cy="354.85" r="1.21"/><circle class="cls-2" cx="482.86" cy="354.85" r="1.21"/><circle class="cls-2" cx="486.09" cy="354.85" r="1.21"/><circle class="cls-2" cx="492.54" cy="354.85" r="1.21"/><circle class="cls-2" cx="489.31" cy="354.85" r="1.21"/><circle class="cls-2" cx="8.6" cy="379.33" r="1.01"/><circle class="cls-2" cx="8.6" cy="387.28" r="1.01"/><circle class="cls-2" cx="8.6" cy="393.41" r="1.01"/><circle class="cls-2" cx="9.21" cy="403.2" r="1.01"/><circle class="cls-2" cx="9.21" cy="419.12" r="1.01"/><circle class="cls-2" cx="9.83" cy="431.36" r="1.01"/><circle class="cls-2" cx="11.05" cy="450.95" r="1.01"/><circle class="cls-2" cx="11.66" cy="469.92" r="1.01"/><circle class="cls-2" cx="12.89" cy="482.78" r="1.01"/><circle class="cls-2" cx="13.5" cy="498.69" r="1.01"/><circle class="cls-2" cx="14.11" cy="508.49" r="1.01"/><circle class="cls-2" cx="14.11" cy="515.22" r="1.01"/><circle class="cls-2" cx="14.72" cy="523.18" r="1.01"/><circle class="cls-2" cx="86.89" cy="497.25" r="2.14"/><circle class="cls-2" cx="66.17" cy="494.79" r="2.14"/><line class="cls-2" x1="67.08" y1="496.93" x2="75.04" y2="548.35"/><line class="cls-2" x1="86.67" y1="499.38" x2="79.33" y2="548.35"/><rect class="cls-2" x="73.82" y="503.66" width="4.9" height="22.04" rx="2.45"/><rect class="cls-2" x="65.25" y="351.86" width="24.48" height="4.9" rx="1.13"/><circle class="cls-2" cx="67.7" cy="354.3" r="1.22"/><circle class="cls-2" cx="70.96" cy="354.3" r="1.22"/><circle class="cls-2" cx="74.23" cy="354.3" r="1.22"/><circle class="cls-2" cx="77.49" cy="354.3" r="1.22"/><circle class="cls-2" cx="80.75" cy="354.3" r="1.22"/><circle class="cls-2" cx="87.28" cy="354.3" r="1.22"/><circle class="cls-2" cx="84.02" cy="354.3" r="1.22"/><rect class="cls-2" x="75.65" y="404.5" width="5.51" height="38.56" rx="2.75"/><path class="cls-2" d="M5,354.61a12.38,12.38,0,0,1-1.83,3.67c-.62.62-.62,3.06,1.83,4.9,0,0,1.53,3.37-.91,5.82s.61,5.5.61,5.5,1.22,3.68-1.23,6.13.62,6.73.62,6.73,2.44,4.9-1.84,7.34,0,8.57,0,8.57S4,405.11,2.81,410s-2.45,7.34,0,11,0,9.79,0,9.79S.36,433.88,4,438.17,3.42,448,3.42,448s-1.83,1.22,1.23,7.34c0,0,.61,4.9-.61,7.35s.61,5.51.61,5.51A9,9,0,0,1,4,474.89c-1.84,3.06,1.83,4.29,1.83,4.29s1.84,3.06.61,4.89c0,0-4.28,8.57-1.83,12.25,2.09,3.13,1.95,8.94,1.86,10.58,0,.28,0,.57,0,.86a14.53,14.53,0,0,1-.61,4.47c-.61,1.23-.61,4.29,1.23,7.35,0,0,1.22,4.89,0,8,0,0-2.45,3.06.61,6.73v10.4s6.12,7.35,8.57,3.68H20"/><path class="cls-2" d="M19.88,548.35h2.45c2.45,3.67,8.57-3.68,8.57-3.68v-10.4c3.06-3.67.61-6.73.61-6.73-1.22-3.07,0-8,0-8,1.84-3.06,1.84-6.12,1.23-7.35a14.53,14.53,0,0,1-.61-4.47l0-.86c-.09-1.64-.23-7.45,1.86-10.58,2.45-3.68-1.84-12.25-1.84-12.25-1.22-1.83.62-4.89.62-4.89s3.67-1.23,1.83-4.29a9,9,0,0,1-.61-6.73s1.84-3.06.61-5.51S34,455.3,34,455.3C37,449.18,35.19,448,35.19,448s-4.29-5.51-.62-9.79,1.23-7.35,1.23-7.35-2.45-6.12,0-9.79,1.22-6.13,0-11,.61-6.74.61-6.74,4.28-6.12,0-8.57-1.84-7.34-1.84-7.34,3.06-4.29.62-6.73S34,374.5,34,374.5s3.06-3.06.61-5.5-.91-5.82-.91-5.82c2.44-1.84,2.44-4.28,1.83-4.9a15.39,15.39,0,0,1-2.07-4"/><path class="cls-2" d="M78.1,548.35H74.43c-2.45,3.67-8.57-3.68-8.57-3.68v-10.4c-3.06-3.67-.61-6.73-.61-6.73,1.22-3.07,0-8,0-8-1.84-3.06-1.84-6.12-1.23-7.35a14.53,14.53,0,0,0,.61-4.47l0-.86c.09-1.64.23-7.45-1.86-10.58-2.45-3.68,1.84-12.25,1.84-12.25,1.22-1.83-.62-4.89-.62-4.89s-3.67-1.23-1.83-4.29a9,9,0,0,0,.61-6.73s-1.84-3.06-.61-5.51.61-7.35.61-7.35c-3.06-6.12-1.23-7.34-1.23-7.34s4.29-5.51.62-9.79S61,430.82,61,430.82s2.45-6.12,0-9.79-1.22-6.13,0-11-.61-6.74-.61-6.74-4.28-6.12,0-8.57,1.84-7.34,1.84-7.34-3.06-4.29-.62-6.73,1.23-6.13,1.23-6.13-3.06-3.06-.61-5.5.92-5.82.92-5.82c-2.45-1.84-2.45-4.28-1.84-4.9a12.23,12.23,0,0,0,1.84-3.67s-.92-6.43-1.54-7.65-2.44-7.35,1.23-6.12c0,0,1.22.61,1.22,1.22s14.08,2.45,25.71,0c0,0,3.68-4.28,4.29-.61,0,0,.61,3.67-.61,4.9s-1.84,7.95-1.84,7.95a15.73,15.73,0,0,0,2.07,4c.62.62.62,3.06-1.83,4.9,0,0-1.53,3.37.92,5.82s-.62,5.5-.62,5.5-1.22,3.68,1.23,6.13-.61,6.73-.61,6.73-2.45,4.9,1.83,7.34,0,8.57,0,8.57S92.73,405.11,94,410s2.45,7.34,0,11,0,9.79,0,9.79,2.45,3.06-1.22,7.35.61,9.79.61,9.79,1.83,1.22-1.23,7.34c0,0-.61,4.9.62,7.35s-.62,5.51-.62,5.51a8.94,8.94,0,0,0,.62,6.73c1.83,3.06-1.84,4.29-1.84,4.29s-1.84,3.06-.61,4.89c0,0,4.28,8.57,1.83,12.25-2.09,3.13-2,8.94-1.86,10.58,0,.28,0,.57,0,.86a14.53,14.53,0,0,0,.61,4.47c.61,1.23.61,4.29-1.23,7.35,0,0-1.22,4.89,0,8,0,0,2.45,3.06-.61,6.73v10.4s-6.12,7.35-8.57,3.68H78"/><path class="cls-2" d="M36.17,352.77a80.76,80.76,0,0,0-15.91-1.07,80.82,80.82,0,0,0-15.92,1.07c-1.22,0-.61,1.84-.61,1.84a92.62,92.62,0,0,1,16.53-1.22,92.56,92.56,0,0,1,16.52,1.22S37.4,352.77,36.17,352.77Z"/><path class="cls-2" d="M5,352.47,3.73,344.2s-.61-2.44,4.28-3.06a116.94,116.94,0,0,1,25.71,0s3.68.62,3.06,3.68l-1.53,7.65"/><path class="cls-2" d="M4.6,349.56s15.66-4.44,31,0"/><line class="cls-2" x1="28.83" y1="352.16" x2="22.09" y2="548.35"/><line class="cls-2" x1="25.31" y1="351.93" x2="21.23" y2="548.35"/><line class="cls-2" x1="22.4" y1="351.55" x2="20.36" y2="548.35"/><line class="cls-2" x1="18.83" y1="351.75" x2="19.49" y2="548.35"/><line class="cls-2" x1="15.05" y1="351.82" x2="18.62" y2="548.35"/><line class="cls-2" x1="11.99" y1="351.86" x2="17.76" y2="548.35"/><line class="cls-2" x1="8.42" y1="352.16" x2="16.89" y2="548.35"/><path class="cls-2" d="M7.81,537s1.43,0,2,4.29a4,4,0,0,0,1.84,3.06s4.59.92,4.59,4"/><path class="cls-2" d="M31,537s-1.43,0-2,4.29a4,4,0,0,1-1.84,3.06s-4.59.92-4.59,4"/><path class="cls-2" d="M39,643.5c-3,4.84-3.63,38.09-3,40.51s3.62,8.46,3.62,8.46L37.2,781.34c-4.84,9.07,0,14.51,0,14.51L36,843c-4.84,7.26-9.68,4.84-9.68,4.84h-6c-3.63,3-9.68-5.44-9.68-5.44L8.18,795.85c5.44-6-1.21-15.71-1.21-15.71L2.73,692.47S6.36,688.24,7,684s-1.21-24.79-1.21-24.79l-3-15.72s4.84-4.84,18.14-4.84S39,643.5,39,643.5Z"/><path class="cls-2" d="M7,653.78v-4.84s15.72-5.44,27.81,0v4.84S20.87,650.15,7,653.78Z"/><circle class="cls-2" cx="9.69" cy="651.06" r="1.21"/><circle class="cls-2" cx="13.31" cy="650.45" r="1.21"/><circle class="cls-2" cx="16.94" cy="649.85" r="1.21"/><circle class="cls-2" cx="20.57" cy="649.85" r="1.21"/><circle class="cls-2" cx="24.2" cy="649.85" r="1.21"/><circle class="cls-2" cx="27.82" cy="649.85" r="1.21"/><circle class="cls-2" cx="31.45" cy="650.45" r="1.21"/><line class="cls-2" x1="30.55" y1="650.76" x2="26.31" y2="847.85"/><line class="cls-2" x1="27.22" y1="651.06" x2="25.41" y2="847.55"/><line class="cls-2" x1="23.29" y1="650.76" x2="24.7" y2="847.85"/><line class="cls-2" x1="19.96" y1="651.06" x2="23.78" y2="847.85"/><line class="cls-2" x1="16.69" y1="651.03" x2="22.91" y2="847.85"/><line class="cls-2" x1="13.31" y1="651.66" x2="21.78" y2="847.55"/><line class="cls-2" x1="9.38" y1="651.96" x2="20.87" y2="847.85"/><circle class="cls-2" cx="9.38" cy="677.36" r="1.21"/><circle class="cls-2" cx="9.69" cy="684.91" r="1.21"/><circle class="cls-2" cx="10.29" cy="690.96" r="1.21"/><circle class="cls-2" cx="10.9" cy="700.63" r="1.21"/><circle class="cls-2" cx="11.5" cy="716.35" r="1.21"/><circle class="cls-2" cx="12.71" cy="729.05" r="1.21"/><circle class="cls-2" cx="13.31" cy="748.4" r="1.21"/><circle class="cls-2" cx="14.52" cy="768.35" r="1.21"/><circle class="cls-2" cx="15.73" cy="781.04" r="1.21"/><circle class="cls-2" cx="16.34" cy="797.37" r="1.21"/><circle class="cls-2" cx="16.94" cy="807.04" r="1.21"/><circle class="cls-2" cx="16.94" cy="813.69" r="1.21"/><circle class="cls-2" cx="17.55" cy="821.55" r="1.21"/><path class="cls-2" d="M9.82,827.45a15,15,0,0,1,3.19,7.7c.61,4.84,2.42,5.44,2.42,5.44s4.46,1.49,5.26,4.07"/><path class="cls-2" d="M10.44,839.47s3.18,5.36,6.8,6c0,0,3-.6,3.63.6"/><path class="cls-2" d="M36.59,827.45a15.46,15.46,0,0,0-3,7.7c-.57,4.84-2.29,5.44-2.29,5.44s-4.21,1.49-5,4.07"/><path class="cls-2" d="M36,839.47s-3,5.36-6.43,6c0,0-2.86-.6-3.43.6"/><path class="cls-2" d="M60.77,682.19s-1.21,6-3,8.47L62,778.93S68,788,63.19,794.65l2.42,47.15s4.84,7.86,10.28,4.84h5.44S85,850.87,91,841.8l1.21-47.15s-6-4.24,0-15.72L94,690.66l-4.24-8.47.61-23.57L94,639.87s-1.21-.6-4.24,1.21l-13.9-1.21-15.72,1.82s-2.42-1.82-3.63-1.21L60.17,661Z"/><rect class="cls-2" x="72.87" y="708.8" width="7.25" height="38.09" rx="3.63"/><circle class="cls-2" cx="86.77" cy="790.41" r="2.12"/><circle class="cls-2" cx="68.63" cy="790.41" r="2.12"/><line class="cls-2" x1="68.63" y1="792.23" x2="75.28" y2="846.93"/><line class="cls-2" x1="69.74" y1="792.22" x2="76.39" y2="846.64"/><line class="cls-2" x1="85.69" y1="792.23" x2="79.92" y2="846.64"/><line class="cls-2" x1="86.77" y1="792.23" x2="81.33" y2="846.64"/><path class="cls-2" d="M64.86,827.14s5,5.59,5,12.24c0,0,7.86,5.45,16.33,0,0,0,1.35-10,5.21-12.24"/><rect class="cls-2" x="75.28" y="799.48" width="5.44" height="21.16" rx="2.72"/><rect class="cls-2" x="62.29" y="651.06" width="26" height="4.84" rx="2.26"/><circle class="cls-2" cx="65.91" cy="653.48" r="1.21"/><circle class="cls-2" cx="69.14" cy="653.48" r="1.21"/><circle class="cls-2" cx="72.36" cy="653.48" r="1.21"/><circle class="cls-2" cx="75.59" cy="653.48" r="1.21"/><circle class="cls-2" cx="78.81" cy="653.48" r="1.21"/><circle class="cls-2" cx="85.26" cy="653.48" r="1.21"/><circle class="cls-2" cx="82.04" cy="653.48" r="1.21"/><path class="cls-3" d="M226.49,843.15h-3.55a1.88,1.88,0,0,1-1,1.52c-6.08,1.52-9.12-5.07-9.12-5.07l-1-37c3.05-7.1,2-10.65,1-14.71s-1.52-17.24,0-22.81-2-8.12-2-8.12l-1.52-75.55s5.83-4.06,3.8-9.63a15.13,15.13,0,0,1,.51-12.68s1-6.09-1.52-9.13c0,0-1.52-3.55,0-5.58a11.88,11.88,0,0,0-.51-5.57c-1-3.55,6.08-4.06,8.11-3s4.57-.5,4.57-1,1.52-1,2.53-1"/><path class="cls-4" d="M278.21,843.15l-4.56,0a1.85,1.85,0,0,1-1,1.5c-6.08,1.5-9.13-5-9.13-5l-1-36.53c3-7,2-10.51,1-14.51s-1.52-17,0-22.52-2-8-2-8L260,683.55s5.83-4,3.8-9.51-1-9.51.51-12.51c0,0,1-6-1.53-9,0,0-1-4.1.51-6.64,0,0-1-9.63-1.52-10.14s0-3.55,2.54-.5c0,0,3,2.53,9.12,1.52a6.08,6.08,0,0,1,4.06-1.52"/><path class="cls-4" d="M277.7,843.15h3.55a1.85,1.85,0,0,0,1,1.5c6.08,1.5,9.12-5,9.12-5l1-36.52c-3-7-2-10.51-1-14.52s1.53-17,0-22.51,2-8,2-8l1.52-74.55s-5.83-4-3.8-9.51,1-9.51-.51-12.51c0,0-1-6,1.52-9,0,0,1-4.09-.5-6.63,0,0,1-9.63,1.52-10.14s0-3.55-2.54-.51c0,0-3,2.54-9.12,1.52a6.28,6.28,0,0,0-4.06-1.52"/><path class="cls-4" d="M211.28,647.16s17.57-4,30.34,0"/><path class="cls-4" d="M211.85,649.13s12.1-4.12,29.34,0"/><path class="cls-3" d="M212.42,824.26s2.91-.13,2.41,4.43v7.1s0,2.54,1.52,3.55,5.83.76,6.84,3.81"/><path class="cls-4" d="M240.43,824.38s-3-.25-2.53,4.31v7.1s0,2.54-1.52,3.55-5.58.76-6.6,3.81"/><path class="cls-3" d="M214.83,831s1.08,6.59,4.89,7.1a55.3,55.3,0,0,0,6.51.5"/><path class="cls-4" d="M237.64,831s-1.08,6.59-4.89,7.1a55.39,55.39,0,0,1-6.52.5"/><circle class="cls-3" cx="216.33" cy="669.67" r="0.83"/><circle class="cls-3" cx="216.83" cy="677.27" r="0.83"/><circle class="cls-3" cx="216.83" cy="683.36" r="0.83"/><circle class="cls-3" cx="216.83" cy="692.48" r="0.83"/><circle class="cls-3" cx="216.83" cy="708.71" r="0.83"/><circle class="cls-3" cx="216.83" cy="721.39" r="0.83"/><circle class="cls-3" cx="217.85" cy="740.15" r="0.83"/><circle class="cls-3" cx="218.35" cy="759.92" r="0.83"/><circle class="cls-3" cx="218.86" cy="773.11" r="0.83"/><circle class="cls-3" cx="219.88" cy="790.35" r="0.83"/><circle class="cls-3" cx="219.88" cy="800.49" r="0.83"/><circle class="cls-3" cx="219.88" cy="807.59" r="0.83"/><circle class="cls-3" cx="219.88" cy="815.7" r="0.83"/><rect class="cls-5" x="219.14" y="644.37" width="1.01" height="2.03" rx="0.45"/><rect class="cls-5" x="215.59" y="644.88" width="1.01" height="2.03" rx="0.45"/><rect class="cls-5" x="222.69" y="643.87" width="1.01" height="2.03" rx="0.45"/><rect class="cls-5" x="226.23" y="643.87" width="1.01" height="2.03" rx="0.45"/><rect class="cls-5" x="229.78" y="643.87" width="1.01" height="2.03" rx="0.45"/><rect class="cls-5" x="232.83" y="643.87" width="1.01" height="2.03" rx="0.45"/><rect class="cls-5" x="235.87" y="644.37" width="1.01" height="2.03" rx="0.45"/><line class="cls-3" x1="216.35" y1="646.65" x2="222.62" y2="842.05"/><line class="cls-3" x1="219.64" y1="646.4" x2="223.45" y2="843.18"/><line class="cls-3" x1="224.46" y1="842.89" x2="223.45" y2="645.64"/><line class="cls-3" x1="226.78" y1="645.43" x2="225.41" y2="843.27"/><path class="cls-3" d="M230.29,645.39l-3.8,197.76H230a1.88,1.88,0,0,0,1,1.52c6.09,1.52,9.13-5.07,9.13-5.07l1-37c-3-7.1-2-10.65-1-14.71s1.52-17.24,0-22.81,2-8.12,2-8.12l1.52-75.55s-5.83-4.06-3.8-9.63,1-9.64-.51-12.68c0,0-1-6.09,1.52-9.13,0,0,1.52-3.55,0-5.58a11.72,11.72,0,0,1,.51-5.57c1-3.55-6.09-4.06-8.12-3s-4.56-.5-4.56-1-1.52-1-2.54-1"/><line class="cls-3" x1="233.42" y1="645.68" x2="227.5" y2="842.89"/><line class="cls-3" x1="236.38" y1="645.89" x2="228.77" y2="843.15"/><rect class="cls-6" x="273.39" y="702.69" width="6.08" height="40.06" rx="3.02"/><rect class="cls-4" x="274.67" y="797.58" width="5.43" height="24.88" rx="2.25"/><rect class="cls-3" x="264.08" y="645.61" width="26.78" height="4.98" rx="2.33"/><circle class="cls-3" cx="267.82" cy="648.11" r="1.25"/><circle class="cls-3" cx="271.14" cy="648.11" r="1.25"/><circle class="cls-3" cx="274.47" cy="648.11" r="1.25"/><circle class="cls-3" cx="277.79" cy="648.11" r="1.25"/><circle class="cls-3" cx="281.11" cy="648.11" r="1.25"/><circle class="cls-3" cx="287.75" cy="648.11" r="1.25"/><circle class="cls-3" cx="284.43" cy="648.11" r="1.25"/><circle class="cls-4" cx="287.13" cy="791.98" r="1.87"/><path class="cls-4" d="M269.07,792a1.87,1.87,0,0,1-1.87,1.87,1.91,1.91,0,0,1-1.17-.41,1.85,1.85,0,0,1-.7-1.46,1.87,1.87,0,0,1,3.74,0Z"/><line class="cls-4" x1="287.54" y1="793.95" x2="280.28" y2="843.05"/><line class="cls-4" x1="285.88" y1="793.85" x2="279.03" y2="843.05"/><line class="cls-4" x1="267.82" y1="793.95" x2="275.92" y2="843.05"/><line class="cls-4" x1="265.95" y1="793.22" x2="274.36" y2="843.36"/><path class="cls-4" d="M263.31,828.67s3.27.68,3.27,3.79c0,0,.62,7.48,1.86,8.1l5.61.62"/><path class="cls-4" d="M291.49,828.67s-3.27.68-3.27,3.79c0,0-.62,7.48-1.87,8.1l-5.6.62"/><path class="cls-7" d="M413.53,638.82c13.62-2.78,30.64,0,30.64,0v16.1s-3.09,0-3.09,6.19.62,17.95.62,17.95-.62,3.09,4.33,9.28c0,0,.62,1.24,0,6.19l-1.86,70-1.23,1.24v37.76l.61.61-1.23,39s-1.86,5.57-9.29,6.19v-1.55h-8.36v1.55c-7.42-.62-9.28-6.19-9.28-6.19l-1.24-39,.62-.61V765.72l-1.24-1.24-1.85-70c-.62-4.95,0-6.19,0-6.19,4.95-6.19,4.33-9.28,4.33-9.28s.62-11.76.62-17.95-3.1-6.19-3.1-6.19v-16.1s17-2.78,30.64,0"/><path class="cls-7" d="M499.88,638.82v16.1s-3.09,0-3.09,6.19.62,17.95.62,17.95-.62,3.09,4.33,9.28c0,0,.62,1.24,0,6.19l-1.86,70-1.24,1.24v37.76l.62.61-1.23,39s-1.86,5.57-9.29,6.19v-1.55h-8.36v1.55c-7.42-.62-9.28-6.19-9.28-6.19l-1.24-39,.62-.61V765.72l-1.24-1.24-1.85-70c-.62-4.95,0-6.19,0-6.19,4.95-6.19,4.33-9.28,4.33-9.28s.62-11.76.62-17.95-3.1-6.19-3.1-6.19v-17l3.41.62s14.85-2.47,24.14,0l3.09-.62v1.24"/><path class="cls-7" d="M413.53,648.11s15.68-5,30.75,0"/><path class="cls-7" d="M413.53,651.2s15.58-2.47,30.69,0"/><path class="cls-7" d="M413.53,653.06s11.76-1.24,31,0"/><circle class="cls-8" cx="426.22" cy="650.27" r="1.24"/><circle class="cls-8" cx="429.94" cy="650.27" r="1.24"/><circle class="cls-8" cx="433.65" cy="650.27" r="1.24"/><circle class="cls-9" cx="437.36" cy="650.27" r="1.08"/><circle class="cls-9" cx="440.46" cy="650.89" r="1.08"/><circle class="cls-9" cx="422.51" cy="650.27" r="1.08"/><circle class="cls-9" cx="419.41" cy="650.89" r="1.08"/><path class="cls-10" d="M442.63,827.62a6.77,6.77,0,0,0-2.33,5c0,3.09-.59,8.66-.59,8.66s-6.41,3.72-7,5v1.23"/><path class="cls-10" d="M415.08,827.62a6.77,6.77,0,0,1,2.33,5c0,3.09.58,8.66.58,8.66s6.41,3.72,7,5v1.23"/><line class="cls-10" x1="424.55" y1="845.54" x2="433.34" y2="845.54"/><line class="cls-10" x1="419.41" y1="651.51" x2="425.6" y2="845.26"/><line class="cls-10" x1="422.82" y1="651.2" x2="426.48" y2="845.59"/><line class="cls-10" x1="426.22" y1="650.89" x2="427.46" y2="845.26"/><line class="cls-10" x1="430.25" y1="651.2" x2="428.39" y2="845.57"/><line class="cls-10" x1="433.65" y1="650.89" x2="429.32" y2="845.26"/><line class="cls-10" x1="437.05" y1="651.2" x2="430.25" y2="845.57"/><line class="cls-10" x1="440.46" y1="651.51" x2="431.43" y2="845.52"/><circle class="cls-8" cx="418.65" cy="676.14" r="0.83"/><circle class="cls-8" cx="419.27" cy="683.56" r="0.83"/><circle class="cls-8" cx="419.27" cy="690.37" r="0.83"/><circle class="cls-8" cx="419.27" cy="699.04" r="0.83"/><circle class="cls-8" cx="419.89" cy="714.51" r="0.83"/><circle class="cls-8" cx="419.27" cy="726.89" r="0.83"/><circle class="cls-8" cx="419.89" cy="746.08" r="0.83"/><circle class="cls-8" cx="420.5" cy="765.27" r="0.83"/><circle class="cls-8" cx="421.12" cy="778.89" r="0.83"/><circle class="cls-8" cx="421.74" cy="794.98" r="0.83"/><circle class="cls-8" cx="422.36" cy="805.51" r="0.83"/><circle class="cls-8" cx="422.36" cy="820.36" r="0.83"/><circle class="cls-8" cx="422.36" cy="812.32" r="0.83"/><rect class="cls-8" x="480.69" y="702.89" width="6.81" height="43.95"/><rect class="cls-7" x="471.1" y="648.73" width="26.62" height="5.57" rx="1.39"/><circle class="cls-11" cx="474.19" cy="651.82" r="0.93"/><circle class="cls-11" cx="477.6" cy="651.82" r="0.93"/><circle class="cls-11" cx="481" cy="651.82" r="0.93"/><circle class="cls-11" cx="494.62" cy="651.82" r="0.93"/><circle class="cls-11" cx="484.41" cy="651.82" r="0.93"/><circle class="cls-11" cx="487.81" cy="651.82" r="0.93"/><circle class="cls-11" cx="491.22" cy="651.82" r="0.93"/><circle class="cls-7" cx="474.19" cy="792.33" r="2.48"/><circle class="cls-7" cx="495.55" cy="794.5" r="2.48"/><line class="cls-7" x1="474.19" y1="794.81" x2="482.55" y2="847.73"/><line class="cls-7" x1="474.61" y1="795.43" x2="483.79" y2="847.73"/><line class="cls-7" x1="496.27" y1="797.08" x2="485.65" y2="847.73"/><line class="cls-7" x1="495.24" y1="796.67" x2="484.41" y2="847.73"/><rect class="cls-7" x="481" y="805.33" width="6.81" height="21.05"/><path class="cls-2" d="M422.76,255.14a11.06,11.06,0,0,1-7.11-1.78,7.23,7.23,0,0,1-3.21-3.91l-1.78-48c4.63-8.19-.71-13.88-.71-13.88l-3.2-85.77s.35,0,2.13-2.85,1.78-7.83.36-10a3.68,3.68,0,0,1,.36-5,5.32,5.32,0,0,0,1.06-3.21c.71-3.2-4.62-32-4.62-32a36.26,36.26,0,0,1,33.45,0"/><path class="cls-2" d="M496.93,50.78l.64-5.81c-2.58-.65-3.23,1.29-3.23,1.29-13.56-3.23-30.35,0-30.35,0,0-1.94-3.23-1.29-3.23-1.29l.65,6.45c5.81,23.9,4.14,29.34,4.14,29.34A5.28,5.28,0,0,1,464.48,84a3.68,3.68,0,0,0-.35,5c1.42,2.13,1.42,7.12-.36,10s-2.13,2.85-2.13,2.85l3.2,85.77s5.34,5.69.71,13.88l1.78,48a7.24,7.24,0,0,0,3.2,3.91,11.1,11.1,0,0,0,7.12,1.78l3.13.05"/><path class="cls-2" d="M434,54.33a48,48,0,0,0-23.25,0s-2.58,2.58-.65,3.88h24.54C436.55,56.91,434,54.33,434,54.33Z"/><circle class="cls-2" cx="431.71" cy="57.24" r="0.65"/><circle class="cls-2" cx="428.48" cy="57.24" r="0.65"/><circle class="cls-2" cx="425.25" cy="57.24" r="0.65"/><circle class="cls-2" cx="422.02" cy="57.24" r="0.65"/><circle class="cls-2" cx="418.14" cy="57.24" r="0.65"/><circle class="cls-2" cx="414.92" cy="57.24" r="0.65"/><circle class="cls-2" cx="411.69" cy="57.24" r="0.65"/><line class="cls-2" x1="431.71" y1="57.88" x2="425.89" y2="254.84"/><path class="cls-2" d="M412,233.2s3.87,1.94,3.23,9.69,4.52,9,7.75,9.69"/><path class="cls-2" d="M434,233.2s-3.88,1.94-3.23,9.69-4.52,9-7.75,9.69"/><line class="cls-2" x1="428.15" y1="57.56" x2="425.25" y2="255.16"/><line class="cls-2" x1="425.13" y1="58.21" x2="424.6" y2="254.84"/><line class="cls-2" x1="421.7" y1="58.21" x2="423.63" y2="255.16"/><path class="cls-2" d="M418.14,57.88l4.62,197.26a11.1,11.1,0,0,0,7.12-1.78,7.24,7.24,0,0,0,3.2-3.91l1.78-48c-4.62-8.19.71-13.88.71-13.88l3.21-85.77s-.36,0-2.14-2.85-1.78-7.83-.35-10a3.68,3.68,0,0,0-.36-5,5.28,5.28,0,0,1-1.07-3.21c-.71-3.2,4.63-32,4.63-32a36.26,36.26,0,0,0-33.45,0"/><line class="cls-2" x1="414.92" y1="57.88" x2="422.02" y2="254.84"/><line class="cls-2" x1="411.69" y1="57.88" x2="420.73" y2="254.84"/><circle class="cls-2" cx="412.63" cy="83.63" r="1.06"/><circle class="cls-2" cx="411.98" cy="91.38" r="1.06"/><circle class="cls-2" cx="412.63" cy="97.84" r="1.06"/><circle class="cls-2" cx="412.63" cy="107.53" r="1.06"/><circle class="cls-2" cx="413.28" cy="123.67" r="1.06"/><circle class="cls-2" cx="413.92" cy="135.94" r="1.06"/><circle class="cls-2" cx="414.57" cy="155.31" r="1.06"/><circle class="cls-2" cx="415.86" cy="174.69" r="1.06"/><circle class="cls-2" cx="417.15" cy="187.6" r="1.06"/><circle class="cls-2" cx="417.8" cy="203.74" r="1.06"/><circle class="cls-2" cx="418.44" cy="213.43" r="1.06"/><circle class="cls-2" cx="418.44" cy="220.53" r="1.06"/><circle class="cls-2" cx="419.09" cy="228.28" r="1.06"/><circle class="cls-2" cx="479.49" cy="137.31" r="7.1"/><circle class="cls-2" cx="478.85" cy="219.32" r="5.17"/><circle class="cls-2" cx="469.8" cy="198.01" r="2.58"/><circle class="cls-2" cx="488.53" cy="199.3" r="2.58"/><line class="cls-2" x1="470.45" y1="200.59" x2="476.69" y2="255.27"/><line class="cls-2" x1="471.74" y1="199.95" x2="473.79" y2="218.51"/><line class="cls-2" x1="474.32" y1="221.9" x2="478.2" y2="254.84"/><path class="cls-2" d="M486.43,200.92l-5.75,54.22a11.07,11.07,0,0,0,7.12-1.78,7.24,7.24,0,0,0,3.2-3.91l1.78-48c-4.62-8.19.72-13.88.72-13.88l3.2-85.77s-.36,0-2.14-2.85-1.78-7.83-.35-10a3.68,3.68,0,0,0-.36-5,5.28,5.28,0,0,1-1.07-3.21s-1.67-5.44,4.15-29.34l.64-6.45s-3.23-.65-3.23,1.29c0,0-16.79-3.23-30.35,0,0,0-.64-1.94-3.23-1.29l.65,5.81"/><line class="cls-2" x1="487.97" y1="201.89" x2="482.4" y2="255.16"/><path class="cls-2" d="M467,237.51s1.89-1.08,3.18,4.73,5.76,6.09,5.76,6.09"/><path class="cls-2" d="M491.44,237.51s-1.76-1.08-3,4.73-5.37,6.09-5.37,6.09"/><path class="cls-2" d="M477.5,248.49a23.15,23.15,0,0,0,4,.1"/><rect class="cls-2" x="465.93" y="55.94" width="27.12" height="5.17" rx="1.36"/><circle class="cls-2" cx="469.16" cy="58.53" r="1.29"/><circle class="cls-2" cx="472.6" cy="58.53" r="1.29"/><circle class="cls-2" cx="476.05" cy="58.53" r="1.29"/><circle class="cls-2" cx="479.49" cy="58.53" r="1.29"/><circle class="cls-2" cx="482.94" cy="58.53" r="1.29"/><circle class="cls-2" cx="489.82" cy="58.53" r="1.29"/><circle class="cls-2" cx="486.38" cy="58.53" r="1.29"/><path class="cls-2" d="M220.82,253.42h-4.57l-.32,1c-7.84-.65-9.15-5.87-9.15-5.87l-.65-39.83c1.31-2,1.31-6.53,0-9.14a10.3,10.3,0,0,1-.65-5.88c0-.65,2-3.92.65-6.53a9.49,9.49,0,0,1-.65-7.18,7.17,7.17,0,0,0,0-5.22c-.65-1.31-.65-6.53-.65-6.53l-2-68.56c0-3.92.65-4.57.65-4.57a5.22,5.22,0,0,0,2-5.88c-1.31-2-2.61-3.92-1.31-5.88s1.31-3.26.66-5.87,0-5.88,1.3-9.14-2-6.53-2-6.53V47.42s16-4.89,29.06,0V61.79s-3.27,3.26-2,6.53,2,6.53,1.31,9.14-.66,3.92.65,5.87,0,3.92-1.31,5.88a5.22,5.22,0,0,0,2,5.88s.65.65.65,4.57l-1.95,68.56s0,5.22-.66,6.53a7.17,7.17,0,0,0,0,5.22,9.4,9.4,0,0,1-.65,7.18c-1.31,2.61.65,5.88.65,6.53a10.21,10.21,0,0,1-.65,5.88c-1.31,2.61-1.31,7.18,0,9.14l-.65,39.83s-1.31,5.22-9.14,5.87l-.33-1h-4.57"/><path class="cls-2" d="M204.23,55.15a45.23,45.23,0,0,1,29.05,0"/><path class="cls-2" d="M203.85,57.54s15-3.91,29.38,0"/><path class="cls-2" d="M204.23,60.37s15.61-2.06,29,0"/><line class="cls-2" x1="228.98" y1="58.52" x2="221.15" y2="253.1"/><line class="cls-2" x1="225.39" y1="58.2" x2="220.17" y2="253.42"/><line class="cls-2" x1="221.8" y1="57.87" x2="219.35" y2="253.45"/><line class="cls-2" x1="218.86" y1="58.2" x2="218.21" y2="253.42"/><line class="cls-2" x1="215.27" y1="57.87" x2="217.23" y2="253.1"/><line class="cls-2" x1="212.33" y1="58.2" x2="216.9" y2="253.42"/><line class="cls-2" x1="208.74" y1="58.52" x2="216.27" y2="253.53"/><circle class="cls-2" cx="208.42" cy="58.2" r="0.65"/><circle class="cls-2" cx="211.81" cy="57.54" r="0.65"/><circle class="cls-2" cx="218.6" cy="57.54" r="0.65"/><circle class="cls-2" cx="225.39" cy="57.54" r="0.65"/><circle class="cls-2" cx="228.66" cy="58.2" r="0.65"/><circle class="cls-2" cx="222" cy="57.54" r="0.65"/><circle class="cls-2" cx="215.21" cy="57.54" r="0.65"/><circle class="cls-2" cx="209.37" cy="90.76" r="1.07"/><circle class="cls-2" cx="209.37" cy="97.29" r="1.07"/><circle class="cls-2" cx="209.37" cy="106.43" r="1.07"/><circle class="cls-2" cx="210.02" cy="122.11" r="1.07"/><circle class="cls-2" cx="210.68" cy="135.16" r="1.07"/><circle class="cls-2" cx="211.33" cy="154.75" r="1.07"/><circle class="cls-2" cx="211.98" cy="173.69" r="1.07"/><circle class="cls-2" cx="212.63" cy="186.75" r="1.07"/><circle class="cls-2" cx="213.29" cy="203.07" r="1.07"/><circle class="cls-2" cx="213.29" cy="212.21" r="1.07"/><circle class="cls-2" cx="213.94" cy="219.39" r="1.07"/><circle class="cls-2" cx="213.94" cy="227.23" r="1.07"/><path class="cls-2" d="M230.66,235.59s-2.45,1.51-2.45,5.43-2,6.69-9.18,7.59h-.78c-7.14-.9-9.18-3.67-9.18-7.59s-2.45-5.43-2.45-5.43"/><path class="cls-2" d="M206.74,243.43s.37,4.12,3,5.42,6.53,2,6.53,3.92"/><path class="cls-2" d="M230.62,243.43s-.37,4.12-3,5.42-6.53,2-6.53,3.92"/><path class="cls-2" d="M275.67,253.42h-2c-4.57,3.27-9.79-4.57-9.79-4.57l-1.31-29.38c-.65-5.22.65-5.22.65-5.22,1.31-2.61,0-9.14,0-9.14a13.17,13.17,0,0,1-1.3-3.92c0-1.31.65-2.61,1.3-4.57a3.28,3.28,0,0,0-.65-3.27s-2.61-1.95-.65-7.18-.66-7.18-.66-7.18l-3.91-77.7,1.3-1.31c2.61-2.61,2-6.52,2-6.52S258,89.54,260,87.58A5.1,5.1,0,0,0,261.3,83c-1.3-3.27-2.61-7.18-1.3-7.84s1.3-3.26,1.3-3.26V68.64c.66-2.61-1.95-3.91-1.95-3.91V48.4s-2-3.26.65-3.92c0,0,2-.65,3.26,2H275"/><path class="cls-2" d="M276.32,253.42h2c4.57,3.27,9.8-4.57,9.8-4.57l1.3-29.38c.65-5.22-.65-5.22-.65-5.22-1.31-2.61,0-9.14,0-9.14a13.17,13.17,0,0,0,1.3-3.92c0-1.31-.65-2.61-1.3-4.57a3.3,3.3,0,0,1,.65-3.27s2.61-1.95.65-7.18.66-7.18.66-7.18l3.91-77.7L293.3,100c-2.61-2.61-2-6.52-2-6.52s2.61-3.92.65-5.88a5.1,5.1,0,0,1-1.3-4.57c1.3-3.27,2.61-7.18,1.3-7.84s-1.3-3.26-1.3-3.26V68.64c-.66-2.61,2-3.91,2-3.91V48.4s2-3.26-.66-3.92c0,0-2-.65-3.26,2H274.36"/><rect class="cls-2" x="262.61" y="57.54" width="27.42" height="5.22" rx="1.37"/><circle class="cls-2" cx="265.88" cy="60.16" r="1.31"/><circle class="cls-2" cx="269.36" cy="60.16" r="1.31"/><circle class="cls-2" cx="272.84" cy="60.16" r="1.31"/><circle class="cls-2" cx="276.32" cy="60.16" r="1.31"/><circle class="cls-2" cx="279.8" cy="60.16" r="1.31"/><circle class="cls-2" cx="286.77" cy="60.16" r="1.31"/><circle class="cls-2" cx="283.29" cy="60.16" r="1.31"/><rect class="cls-2" x="273.06" y="109.13" width="5.88" height="42.44" rx="2.94"/><rect class="cls-2" x="274.36" y="208.37" width="3.92" height="22.85" rx="1.96"/><circle class="cls-2" cx="265.22" cy="199.88" r="2.61"/><circle class="cls-2" cx="286.12" cy="199.88" r="2.61"/><line class="cls-12" x1="266.2" y1="202.33" x2="274.2" y2="253.51"/><line class="cls-12" x1="284.81" y1="201.84" x2="277.63" y2="253.34"/><path class="cls-2" d="M19.59,252.41H18.35c-3.74,2.49-10-5.6-10-5.6L7.14,214.42c5-7.48,0-18.07,0-18.07,3.73-9.34-1.25-18.06-1.25-18.06l-3.11-76a28.56,28.56,0,0,0,3.11-5.61C8.38,92.33,7.14,86.1,7.14,86.1a4.56,4.56,0,0,1-.63-3.73l.63-1.87C11.5,69.29,5.27,64.93,5.27,64.93V47.49S23,43.44,36.1,47.8"/><path class="cls-2" d="M5.37,55.27s20.45-2.8,30.42,0"/><path class="cls-2" d="M5.42,59.17S26.13,55.9,35.48,59"/><path class="cls-2" d="M5.27,61s19.93-2.11,30.52,0"/><line class="cls-2" x1="8.69" y1="57.76" x2="17.72" y2="252.72"/><line class="cls-2" x1="11.81" y1="57.76" x2="18.66" y2="252.72"/><polyline class="cls-2" points="15.86 56.83 19.59 252.41 21.15 252.41"/><line class="cls-2" x1="19.28" y1="57.14" x2="20.53" y2="252.72"/><path class="cls-2" d="M24,56.83,21.46,252.41h1.25c3.73,2.49,10-5.6,10-5.6l1.25-32.39c-5-7.48,0-18.07,0-18.07-3.74-9.34,1.24-18.06,1.24-18.06l3.12-76a28.29,28.29,0,0,1-3.12-5.61c-2.49-4.36-1.24-10.59-1.24-10.59a4.58,4.58,0,0,0,.62-3.73l-.62-1.87c-4.36-11.21,1.87-15.57,1.87-15.57V47.49"/><path class="cls-2" d="M91.49,47.49V64.93s-6.23,4.36-1.87,15.57l.63,1.87a4.56,4.56,0,0,1-.63,3.73s-1.24,6.23,1.25,10.59A28.29,28.29,0,0,0,94,102.3l-3.12,76s-5,8.72-1.25,18.06c0,0-5,10.59,0,18.07l-1.24,32.39s-6.23,8.09-10,5.6H74.05c-3.73,2.49-10-5.6-10-5.6l-1.25-32.39c5-7.48,0-18.07,0-18.07,3.74-9.34-1.24-18.06-1.24-18.06l-3.12-76a28.29,28.29,0,0,0,3.12-5.61c2.49-4.36,1.24-10.59,1.24-10.59a4.58,4.58,0,0,1-.62-3.73l.62-1.87C67.2,69.29,61,64.93,61,64.93l-.31-20.25s15.88,5,30.83,0V47.8"/><line class="cls-2" x1="27.69" y1="56.83" x2="21.93" y2="252.49"/><line class="cls-2" x1="31.12" y1="57.14" x2="22.86" y2="252.41"/><circle class="cls-2" cx="9.6" cy="85.09" r="1.02"/><circle class="cls-2" cx="10.22" cy="98.8" r="1.02"/><circle class="cls-2" cx="10.22" cy="109.39" r="1.02"/><circle class="cls-2" cx="10.85" cy="124.96" r="1.02"/><circle class="cls-2" cx="11.47" cy="138.04" r="1.02"/><circle class="cls-2" cx="12.09" cy="157.35" r="1.02"/><circle class="cls-2" cx="13.34" cy="175.41" r="1.02"/><circle class="cls-2" cx="13.96" cy="189.11" r="1.02"/><circle class="cls-2" cx="13.96" cy="204.69" r="1.02"/><circle class="cls-2" cx="14.58" cy="214.03" r="1.02"/><circle class="cls-2" cx="15.21" cy="220.26" r="1.02"/><circle class="cls-2" cx="15.83" cy="228.36" r="1.02"/><circle class="cls-2" cx="10.22" cy="92.57" r="1.02"/><path class="cls-2" d="M8,232.79a37.69,37.69,0,0,1,4.75,10.9s6.23,6.85,15.57,0a23.6,23.6,0,0,1,4.83-11.44"/><path class="cls-2" d="M8.23,239.33l1.4,5.61s10.59,11.21,21.8,0l1.55-7.4"/><circle class="cls-2" cx="75.92" cy="129.08" r="5.61"/><circle class="cls-2" cx="68.76" cy="198.53" r="3.11"/><circle class="cls-2" cx="84.33" cy="198.53" r="3.11"/><line class="cls-2" x1="69.38" y1="201.65" x2="74.99" y2="252.72"/><line class="cls-2" x1="70.32" y1="201.18" x2="76.31" y2="252.41"/><line class="cls-2" x1="85.19" y1="201.65" x2="78.72" y2="252.1"/><line class="cls-2" x1="83.71" y1="201.73" x2="77.17" y2="252.41"/><circle class="cls-2" cx="76.86" cy="223.45" r="3.74"/><rect class="cls-2" x="63.15" y="56.52" width="26.16" height="4.98" rx="1.31"/><circle class="cls-2" cx="66.27" cy="59.01" r="1.25"/><circle class="cls-2" cx="69.59" cy="59.01" r="1.25"/><circle class="cls-2" cx="72.91" cy="59.01" r="1.25"/><circle class="cls-2" cx="76.23" cy="59.01" r="1.25"/><circle class="cls-2" cx="79.56" cy="59.01" r="1.25"/><circle class="cls-2" cx="86.2" cy="59.01" r="1.25"/><circle class="cls-2" cx="82.88" cy="59.01" r="1.25"/><rect class="cls-13" x="523.63" y="343.41" width="123" height="198" rx="7.54"/><rect class="cls-14" x="523.99" y="343.41" width="122.64" height="198.5" rx="7.41"/><circle class="cls-15" cx="638.63" cy="352.41" r="2"/><circle class="cls-15" cx="638.63" cy="531.41" r="2"/><circle class="cls-15" cx="533.63" cy="352.41" r="2"/><circle class="cls-15" cx="533.63" cy="531.41" r="2"/><path class="cls-16" d="M586.36,542.69s-.46.53-1.34,1.47"/><path class="cls-17" d="M582.25,547c-10.44,10.37-39.74,35.73-75.63,34.63"/><path class="cls-16" d="M504.63,581.55c-.66,0-1.33-.08-2-.14"/><text class="cls-18" transform="translate(539.63 375.74)">师旷式又称“月<tspan x="0" y="22">形式”，相传维</tspan><tspan x="0" y="44">古代大音乐师旷</tspan><tspan x="0" y="66">所制，琴体在项</tspan><tspan x="0" y="88">腰间作圆月形，</tspan><tspan x="0" y="110">造型奇特、音律</tspan><tspan x="0" y="132">如磬</tspan></text><rect class="cls-13" x="107.63" y="47.41" width="123" height="198" rx="7.54"/><rect class="cls-14" x="107.99" y="47.41" width="122.64" height="198.5" rx="7.41"/><circle class="cls-15" cx="222.63" cy="56.41" r="2"/><circle class="cls-15" cx="222.63" cy="235.41" r="2"/><circle class="cls-15" cx="117.63" cy="56.41" r="2"/><circle class="cls-15" cx="117.63" cy="235.41" r="2"/><path class="cls-16" d="M170.36,246.69s-.46.53-1.34,1.47"/><path class="cls-17" d="M166.25,251c-10.44,10.37-39.74,35.73-75.63,34.63"/><path class="cls-16" d="M88.63,285.55c-.66,0-1.33-.08-2-.14"/><text class="cls-18" transform="translate(123.63 79.74)">霹雳式亦称凤势<tspan x="0" y="22">式，霹雳，即响</tspan><tspan x="0" y="44">声很大的雷。</tspan></text><rect class="cls-13" x="510.63" y="46.41" width="123" height="198" rx="7.54"/><rect class="cls-14" x="510.99" y="46.41" width="122.64" height="198.5" rx="7.41"/><circle class="cls-15" cx="625.63" cy="55.41" r="2"/><circle class="cls-15" cx="625.63" cy="234.41" r="2"/><circle class="cls-15" cx="520.63" cy="55.41" r="2"/><circle class="cls-15" cx="520.63" cy="234.41" r="2"/><path class="cls-16" d="M573.36,245.69s-.46.53-1.34,1.47"/><path class="cls-17" d="M569.25,250c-10.44,10.37-39.74,35.73-75.63,34.63"/><path class="cls-16" d="M491.63,284.55c-.66,0-1.33-.08-2-.14"/><text class="cls-18" transform="translate(526.63 78.74)">连珠，连接成串<tspan x="0" y="22">的珠子。相处“</tspan><tspan x="0" y="44">连珠式”古琴造</tspan><tspan x="0" y="66">型为隋逸士李疑</tspan><tspan x="0" y="88">所制，项腰各作</tspan><tspan x="0" y="110">三个连续半月形</tspan><tspan x="0" y="132">弯人。</tspan></text><rect class="cls-13" x="104.63" y="342.41" width="123" height="198" rx="7.54"/><rect class="cls-14" x="104.99" y="342.41" width="122.64" height="198.5" rx="7.41"/><circle class="cls-15" cx="219.63" cy="351.41" r="2"/><circle class="cls-15" cx="219.63" cy="530.41" r="2"/><circle class="cls-15" cx="114.63" cy="351.41" r="2"/><circle class="cls-15" cx="114.63" cy="530.41" r="2"/><path class="cls-16" d="M167.36,541.69s-.46.53-1.34,1.47"/><path class="cls-17" d="M163.25,546c-10.44,10.37-39.74,35.73-75.63,34.63"/><path class="cls-16" d="M85.63,580.55c-.66,0-1.33-.08-2-.14"/><text class="cls-18" transform="translate(120.63 374.74)">灵机式，又称“<tspan x="0" y="22">万壑松式”，或</tspan><tspan x="0" y="44">是古代文人灵机</tspan><tspan x="0" y="66">一动。突然奇想</tspan><tspan x="0" y="88">创出的新古琴造</tspan><tspan x="0" y="110">型。</tspan></text><rect class="cls-13" x="308.63" y="299.41" width="123" height="232.68" rx="8.18"/><rect class="cls-19" x="308.99" y="299.41" width="122.64" height="232.5" rx="8.02"/><circle class="cls-15" cx="423.63" cy="308.41" r="2"/><circle class="cls-15" cx="422.63" cy="521.41" r="2"/><circle class="cls-15" cx="318.63" cy="308.41" r="2"/><circle class="cls-15" cx="317.63" cy="521.41" r="2"/><path class="cls-20" d="M371.36,533.59s-.45.62-1.32,1.71"/><path class="cls-21" d="M367.16,538.78c-10.48,12.21-39.51,41.63-75.1,40.61"/><path class="cls-20" d="M289.8,579.28l-2.17-.18"/><text class="cls-18" transform="translate(324.63 331.74)">落霞式，古代文<tspan x="0" y="22">人观赏晚霞之丰</tspan><tspan x="0" y="44">富变化，突发灵</tspan><tspan x="0" y="66">感，并以此为参</tspan><tspan x="0" y="88">照造琴形，落霞</tspan><tspan x="0" y="110">式显著的造型特</tspan><tspan x="0" y="132">点式在琴的两侧</tspan><tspan x="0" y="154">式对称的波状曲</tspan><tspan x="0" y="176">线。</tspan></text><rect class="cls-13" x="104.63" y="633.41" width="123" height="198" rx="7.54"/><rect class="cls-14" x="104.99" y="633.41" width="122.64" height="198.5" rx="7.41"/><circle class="cls-15" cx="219.63" cy="642.41" r="2"/><circle class="cls-15" cx="219.63" cy="821.41" r="2"/><circle class="cls-15" cx="114.63" cy="642.41" r="2"/><circle class="cls-15" cx="114.63" cy="821.41" r="2"/><path class="cls-16" d="M167.36,832.69s-.46.53-1.34,1.47"/><path class="cls-17" d="M163.25,837c-10.44,10.37-39.74,35.73-75.63,34.63"/><path class="cls-16" d="M85.63,871.55c-.66,0-1.33-.08-2-.14"/><text class="cls-18" transform="translate(120.63 665.74)">神农式相传为炎<tspan x="0" y="22">帝神农氏所造。</tspan></text><rect class="cls-13" x="308.63" y="633.41" width="123" height="198" rx="7.54"/><rect class="cls-14" x="308.99" y="633.41" width="122.64" height="198.5" rx="7.41"/><circle class="cls-15" cx="423.63" cy="642.41" r="2"/><circle class="cls-15" cx="423.63" cy="821.41" r="2"/><circle class="cls-15" cx="318.63" cy="642.41" r="2"/><circle class="cls-15" cx="318.63" cy="821.41" r="2"/><path class="cls-16" d="M371.36,832.69s-.46.53-1.34,1.47"/><path class="cls-17" d="M367.25,837c-10.44,10.37-39.74,35.73-75.63,34.63"/><path class="cls-16" d="M289.63,871.55c-.66,0-1.33-.08-2-.14"/><text class="cls-18" transform="translate(323.63 665.74)">宋徽宗好琴，曾<tspan x="0" y="22">设立“万琴</tspan><tspan x="0" y="44">堂”，“宣和</tspan><tspan x="0" y="66">式”古琴是徽宗</tspan><tspan x="0" y="88">宣和年间由宋徽</tspan><tspan x="0" y="110">宗或官方主持创</tspan><tspan x="0" y="132">制的新型古琴。</tspan></text><rect class="cls-13" x="511.63" y="569.41" width="123" height="254.29" rx="8.55"/><rect class="cls-22" x="511.99" y="569.41" width="122.64" height="254.93" rx="8.39"/><circle class="cls-15" cx="626.63" cy="578.41" r="2"/><circle class="cls-15" cx="624.63" cy="814.41" r="2"/><circle class="cls-15" cx="521.63" cy="578.41" r="2"/><circle class="cls-15" cx="521.63" cy="814.41" r="2"/><path class="cls-23" d="M574.36,825.34s-.45.66-1.31,1.84"/><path class="cls-24" d="M570.26,830.88c-10.38,13.24-39.41,45.53-75.05,44.51"/><path class="cls-23" d="M492.89,875.27c-.75,0-1.5-.11-2.26-.2"/><text class="cls-18" transform="translate(527.63 601.74)">“仲尼式”又称<tspan x="0" y="22">“夫子式”，孔</tspan><tspan x="0" y="44">子曾学琴于师襄</tspan><tspan x="0" y="66">，后以自己理想</tspan><tspan x="0" y="88">研制琴式，规划</tspan><tspan x="0" y="110">制度，仲尼式在</tspan><tspan x="0" y="132">腰项处各呈方折</tspan><tspan x="0" y="154">凹入，造型简洁</tspan><tspan x="0" y="176">朴素，声音清雅</tspan><tspan x="0" y="198">纯正。</tspan></text><rect class="cls-13" x="309.63" y="0.41" width="123" height="239.33" rx="8.3"/><rect class="cls-25" x="309.99" y="0.41" width="122.64" height="239.94" rx="8.14"/><path class="cls-26" d="M372.36,241.28s-.45.64-1.32,1.76"/><path class="cls-27" d="M368.19,246.58c-10.45,12.53-39.48,42.83-75.08,41.81"/><path class="cls-26" d="M290.83,288.28c-.73,0-1.46-.11-2.2-.19"/><text class="cls-18" transform="translate(325.63 32.74)">蕉叶式源于琴体<tspan x="0" y="22">造型形似蕉叶，</tspan><tspan x="0" y="44">相传为浙人刘伯</tspan><tspan x="0" y="66">温所创制，琴首</tspan><tspan x="0" y="88">无凫掌而有一叶</tspan><tspan x="0" y="110">柄，琴底仿蕉叶</tspan><tspan x="0" y="132">之茎，造型精妙</tspan><tspan x="0" y="154">秀美，琴音圆润</tspan><tspan x="0" y="176">雅致。</tspan></text><circle class="cls-15" cx="318.63" cy="229.41" r="2"/><circle class="cls-15" cx="318.63" cy="10.41" r="2"/><circle class="cls-15" cx="423.63" cy="229.41" r="2"/><circle class="cls-15" cx="423.63" cy="10.41" r="2"/></g></g></svg>