<svg xmlns="http://www.w3.org/2000/svg" viewBox="0 0 272.3 131.41"><defs><style>.cls-1{fill:#c42c2c;}</style></defs><title>chart-instruction</title><g id="图层_2" data-name="图层 2"><g id="图层_1-2" data-name="图层 1"><path class="cls-1" d="M59.87,72.15H57.52V71h2.35Zm-4.69,0H52.83V71h2.35Zm-4.7,0H48.14V71h2.34Zm-4.69,0H43.45V71h2.34Zm-4.69,0H38.75V71H41.1Zm-4.69,0H34.06V71h2.35Zm-4.69,0H29.37V71h2.35Zm-4.7,0H24.68V71H27Zm-4.69,0H20V71h2.34Zm-4.69,0H15.29V71h2.35Zm-4.69,0H10.6V71H13Z"/><path class="cls-1" d="M64.54,94.24A38.87,38.87,0,1,1,103.4,55.38,38.91,38.91,0,0,1,64.54,94.24Zm0-76.55a37.69,37.69,0,1,0,37.68,37.69A37.73,37.73,0,0,0,64.54,17.69Z"/><path class="cls-1" d="M64.29,93.56v-.29a11.06,11.06,0,0,0,2.29-.3l.07.29A11.63,11.63,0,0,1,64.29,93.56Zm-2.37-.2a12,12,0,0,1-2.1-.62l-.16-.07.11-.27.16.07a11.21,11.21,0,0,0,2,.6Zm7-.89-.13-.26a10.82,10.82,0,0,0,2-1.21l.18.24A11.32,11.32,0,0,1,68.88,92.47Zm-11.3-1A11.07,11.07,0,0,1,55.79,90l.21-.2a11,11,0,0,0,1.75,1.52Zm15-1.91-.22-.19a11.34,11.34,0,0,0,1.31-1.91l.25.14A11,11,0,0,1,72.63,89.61ZM54.36,88.07a11.6,11.6,0,0,1-1-2.15l.27-.1a10.85,10.85,0,0,0,1,2.1Zm20.52-2.61-.28-.08A11.07,11.07,0,0,0,75,83.11l.29,0A11.53,11.53,0,0,1,74.88,85.46Zm-22-1.86a11.87,11.87,0,0,1-.08-1.33,8.94,8.94,0,0,1,.05-1l.29,0c0,.33-.05.67-.05,1a11.34,11.34,0,0,0,.08,1.3ZM75,80.8a11.73,11.73,0,0,0-.55-2.25l.27-.1a11.64,11.64,0,0,1,.57,2.31ZM53.55,79l-.28-.08c.1-.3.2-.59.31-.87a12.14,12.14,0,0,1,.63-1.31l.26.14a11.62,11.62,0,0,0-.62,1.28Q53.69,78.57,53.55,79Zm19.84-2.52A10.92,10.92,0,0,0,72,74.65l.21-.21a11.61,11.61,0,0,1,1.45,1.88ZM55.81,75l-.22-.2a11.09,11.09,0,0,1,1.75-1.6l.17.24A10.46,10.46,0,0,0,55.81,75Zm14.4-1.83a10.77,10.77,0,0,0-2-1.08l.11-.28a11.06,11.06,0,0,1,2.09,1.12Zm-10.7-.9L59.38,72a11.31,11.31,0,0,1,2.26-.75l.06.29A10.63,10.63,0,0,0,59.51,72.26Zm6.78-.76a11.2,11.2,0,0,0-2.24-.23H64V71h.06a11.09,11.09,0,0,1,2.3.24Z"/><path class="cls-1" d="M63.91,94l0-1.06h.38a10.87,10.87,0,0,0,2.21-.28l.38-.09.25,1-.38.09A12.53,12.53,0,0,1,64.3,94Zm-1.68-.14-.38-.07a11.31,11.31,0,0,1-2.17-.64l-.53-.22.41-1,.52.22a10.58,10.58,0,0,0,2,.58l.38.07ZM68.69,93l-.45-1,.35-.16a10.85,10.85,0,0,0,1.9-1.16l.31-.24.65.85-.31.24A11.51,11.51,0,0,1,69,92.82Zm-11-.93-.32-.22a12.28,12.28,0,0,1-1.85-1.61l-.26-.29.78-.72.27.28A10.18,10.18,0,0,0,58,91l.32.22Zm15-1.9-.81-.7.25-.29a10.34,10.34,0,0,0,1.26-1.84l.19-.34.94.51-.19.34a11.63,11.63,0,0,1-1.38,2ZM54.23,88.6l-.2-.33A11.88,11.88,0,0,1,53,86l-.13-.37,1-.34.13.36a10.69,10.69,0,0,0,.94,2l.2.33Zm20.91-2.66-1-.3.11-.37a11.09,11.09,0,0,0,.4-2.19l0-.39,1.06.08,0,.39a12.48,12.48,0,0,1-.45,2.41ZM52.5,84l0-.38a12.92,12.92,0,0,1-.08-1.38c0-.36,0-.72.05-1.08l0-.38,1.06.1,0,.38c0,.32,0,.65,0,1a10.48,10.48,0,0,0,.07,1.25l.05.39Zm22.12-2.8-.06-.38A10.75,10.75,0,0,0,74,78.68l-.13-.36,1-.36.13.36a11.58,11.58,0,0,1,.58,2.39l0,.38ZM53.81,79.48l-1-.32.11-.37c.1-.3.21-.6.32-.89a10.68,10.68,0,0,1,.66-1.36l.19-.34.93.52-.19.34a10.1,10.1,0,0,0-.6,1.24c-.1.26-.2.53-.29.81ZM73.27,77l-.21-.33a11,11,0,0,0-1.36-1.76l-.27-.28.77-.74.27.28A11.81,11.81,0,0,1,74,76.11l.21.33ZM55.84,75.54l-.8-.71.26-.29a10.94,10.94,0,0,1,1.81-1.66l.31-.23.63.86-.31.23a10.21,10.21,0,0,0-1.64,1.51ZM70.31,73.7,70,73.48a10.65,10.65,0,0,0-2-1l-.36-.14.4-1,.36.14a12.5,12.5,0,0,1,2.17,1.15l.32.22Zm-11-.93-.44-1,.35-.16a12.27,12.27,0,0,1,2.33-.78l.38-.08.23,1-.38.09a9.86,9.86,0,0,0-2.11.7ZM66.59,72l-.38-.08a10.42,10.42,0,0,0-2.16-.22h-.38L63.6,71v-.39H64a11.34,11.34,0,0,1,2.44.25l.38.08Z"/><path class="cls-1" d="M59.87,18.2H57.52V17h2.35Zm-4.69,0H52.83V17h2.35Zm-4.7,0H48.14V17h2.34Zm-4.69,0H43.45V17h2.34Zm-4.69,0H38.75V17H41.1Zm-4.69,0H34.06V17h2.35Zm-4.69,0H29.37V17h2.35Zm-4.7,0H24.68V17H27Zm-4.69,0H20V17h2.34Zm-4.69,0H15.29V17h2.35ZM13,18.2H10.6V17H13Z"/><path d="M4.42,15.49H3.86a1.39,1.39,0,0,0-1.5-1.25A1.48,1.48,0,0,0,1,15.08a4.05,4.05,0,0,0-.46,2.06v.33h0a1.89,1.89,0,0,1,.72-.92,1.86,1.86,0,0,1,1.12-.34A2,2,0,0,1,4,16.82a2.2,2.2,0,0,1,.58,1.57A2.26,2.26,0,0,1,3.92,20a2.07,2.07,0,0,1-1.56.65,2,2,0,0,1-1.82-.93A4.32,4.32,0,0,1,0,17.37,4.91,4.91,0,0,1,.6,14.8a2,2,0,0,1,1.77-1.06A1.87,1.87,0,0,1,4.42,15.49Zm-3.25,1.7A1.64,1.64,0,0,0,.69,18.4a1.79,1.79,0,0,0,.43,1.23,1.55,1.55,0,0,0,1.22.53,1.52,1.52,0,0,0,1.18-.5A1.84,1.84,0,0,0,4,18.39a1.73,1.73,0,0,0-.44-1.23,1.54,1.54,0,0,0-1.18-.46A1.55,1.55,0,0,0,1.17,17.19Z"/><path d="M9.64,14.84a5,5,0,0,1,.49,2.36,5.07,5.07,0,0,1-.49,2.36,1.93,1.93,0,0,1-1.79,1.1,1.94,1.94,0,0,1-1.79-1.1,5,5,0,0,1-.48-2.36,4.94,4.94,0,0,1,.48-2.36,1.93,1.93,0,0,1,1.79-1.1A1.92,1.92,0,0,1,9.64,14.84Zm-3.17.39a5.08,5.08,0,0,0-.31,2,5.09,5.09,0,0,0,.31,2,1.42,1.42,0,0,0,1.38,1,1.45,1.45,0,0,0,1.39-1,5.14,5.14,0,0,0,.32-2,5.13,5.13,0,0,0-.32-2,1.43,1.43,0,0,0-1.39-1A1.41,1.41,0,0,0,6.47,15.23Z"/><path d="M.51,67.83H4.28v.52H1L.75,70.8h0a2,2,0,0,1,.74-.53,2,2,0,0,1,.86-.17,2.07,2.07,0,0,1,1.54.58,2.31,2.31,0,0,1,.61,1.69A2.19,2.19,0,0,1,3.85,74a2.29,2.29,0,0,1-1.63.61,2.31,2.31,0,0,1-1.47-.47A1.88,1.88,0,0,1,0,72.72H.57a1.45,1.45,0,0,0,.56,1.06,1.79,1.79,0,0,0,1.09.34,1.7,1.7,0,0,0,1.25-.49A1.78,1.78,0,0,0,4,72.37,1.83,1.83,0,0,0,3.49,71a1.59,1.59,0,0,0-1.22-.46,1.86,1.86,0,0,0-.91.22,1.63,1.63,0,0,0-.64.66H.18Z"/><path d="M129.88,33.52A13,13,0,0,1,128,36.59l-.47-.33a11.77,11.77,0,0,0,1.87-3Zm-1.8-1.1q.46-2,.69-3.75a2.72,2.72,0,0,0,.43,0,20.07,20.07,0,0,0,5.87-.72l.27.47a23.43,23.43,0,0,1-6.13.71c-.18,1.1-.36,2-.52,2.72h3.07v-2h.55v2h3.74v.53h-3.74v3.65c0,.62-.29.93-.86.93h-1.33l-.12-.53c.59,0,1,0,1.26,0s.5-.19.5-.58V32.42Zm6.2.8a30,30,0,0,1,1.81,3.19l-.51.26a23.24,23.24,0,0,0-1.78-3.21Z"/><path d="M137.58,31.76H141a3.69,3.69,0,0,0,.5-.88l.51.06a5,5,0,0,1-.43.82h2.87a6.65,6.65,0,0,0-.51-.76l.48-.15a4.91,4.91,0,0,1,.57.91h1.4v.5h-2.87a6.7,6.7,0,0,0,3.1,1.66l-.23.46-.81-.31v3h-.5v-.48h-2v.48h-.51V34h2.83A6.11,6.11,0,0,1,143,32.26H141.2A6.49,6.49,0,0,1,138.73,34h2.72v3.08H141v-.48h-1.9v.48h-.49v-3c-.27.11-.59.22-.94.33l-.25-.45a7.93,7.93,0,0,0,3.17-1.67h-3Zm.83-3.45h2.94v2.32h-2.94Zm2.44,1.85V28.78h-1.93v1.38Zm-1.8,5.95H141V34.46h-1.9Zm3.56-7.8h3v2.32h-3Zm.41,7.8h2V34.46h-2Zm2.06-5.95V28.78h-2v1.38Z"/><path d="M147.61,29.92h1.67v-2h.54v2h1.41v.53h-1.41v.64a21.32,21.32,0,0,1,1.61,1.76l-.31.46a17.4,17.4,0,0,0-1.3-1.65V37h-.54V31.47a11.06,11.06,0,0,1-1.62,3.13l-.24-.59a9.43,9.43,0,0,0,1.83-3.56h-1.64Zm4.11.55v-.53h2.95v-2h.54v2h1.21v.53h-1.21V36c0,.63-.29.95-.87.95h-1l-.12-.53c.44,0,.76,0,1,0,.34,0,.52-.2.52-.6V30.75a10.67,10.67,0,0,1-3.44,5l-.3-.47a10.15,10.15,0,0,0,3.41-4.78Z"/><path d="M166,28.48a46,46,0,0,1-6.86.58v2.62a10.24,10.24,0,0,1-1.3,5.24l-.38-.4a9.91,9.91,0,0,0,1.15-4.84V28.59a44.1,44.1,0,0,0,7.13-.59Zm-2.68,4.34a4.49,4.49,0,0,1-1.08,2.73A6.44,6.44,0,0,1,159.4,37l-.28-.5a5.86,5.86,0,0,0,2.65-1.32,4.06,4.06,0,0,0,1-2.43Zm-4.09-2.61h3.42c0-.22.08-.55.13-1l.53.07c0,.26-.06.57-.11.93h3.26v.52h-3.35c-.1.47-.18.84-.25,1.09h2.62v3.36h-.53V32.34H160.8v2.9h-.53V31.82h2c.07-.27.16-.63.26-1.09h-3.33ZM163.4,35a15.07,15.07,0,0,1,3,1.55l-.3.48a13.93,13.93,0,0,0-3-1.62Z"/><path d="M129.88,5.6A13,13,0,0,1,128,8.67l-.47-.33a11.77,11.77,0,0,0,1.87-3Zm-1.8-1.1q.46-2,.69-3.75a2.72,2.72,0,0,0,.43,0,20.07,20.07,0,0,0,5.87-.72l.27.47a23.43,23.43,0,0,1-6.13.71c-.18,1.1-.36,2-.52,2.72h3.07V2h.55V4h3.74V4.5h-3.74V8.15c0,.62-.29.93-.86.93h-1.33L130,8.55c.59,0,1,0,1.26,0s.5-.19.5-.58V4.5Zm6.2.8a30,30,0,0,1,1.81,3.19l-.51.26a23.24,23.24,0,0,0-1.78-3.21Z"/><path d="M137.58,3.84H141a3.69,3.69,0,0,0,.5-.88L142,3a5,5,0,0,1-.43.82h2.87a6.65,6.65,0,0,0-.51-.76l.48-.15a4.91,4.91,0,0,1,.57.91h1.4v.5h-2.87A6.7,6.7,0,0,0,146.61,6l-.23.46-.81-.31v3h-.5V8.66h-2v.48h-.51V6.06h2.83A6.11,6.11,0,0,1,143,4.34H141.2a6.49,6.49,0,0,1-2.47,1.72h2.72V9.14H141V8.66h-1.9v.48h-.49v-3c-.27.11-.59.22-.94.33L137.37,6a7.93,7.93,0,0,0,3.17-1.67h-3Zm.83-3.45h2.94V2.71h-2.94Zm2.44,1.85V.86h-1.93V2.24Zm-1.8,5.95H141V6.54h-1.9Zm3.56-7.8h3V2.71h-3Zm.41,7.8h2V6.54h-2Zm2.06-5.95V.86h-2V2.24Z"/><path d="M147.64.42h5V.93h-1V4h1.2v.53h-1.2V9.05H151V4.54h-1.72a7.19,7.19,0,0,1-1.43,4.58l-.41-.37a6.51,6.51,0,0,0,1.3-4.21h-1.28V4h1.29V.93h-1.11Zm1.65.51V4H151V.93Zm7.38,5A12,12,0,0,1,152.82,9l-.24-.5a10.76,10.76,0,0,0,3.73-3ZM156,.4a9.79,9.79,0,0,1-3.07,2.17l-.24-.5A8.88,8.88,0,0,0,155.63,0Zm.42,2.75a9.6,9.6,0,0,1-3.07,2.3l-.24-.51a8.29,8.29,0,0,0,3-2.19Z"/><path d="M158.53,1.8a4.1,4.1,0,0,1-.67,1.05l-.44-.31a4.13,4.13,0,0,0,1-2.3l.52.08a6.13,6.13,0,0,1-.22,1h1.37V0h.54V1.29h1.95V1.8h-1.95V3.27h2.23v.51h-2.23V5h2V7.61a.71.71,0,0,1-.8.81h-.55l-.14-.52.52,0c.3,0,.45-.14.45-.43v-2h-1.45V9.15h-.54V5.5h-1.47v3h-.53V5h2V3.78H157.6V3.27h2.48V1.8Zm5-.89h.53V7.15h-.53ZM163.84,9l-.12-.52,1.4,0a.45.45,0,0,0,.51-.52V0h.54V8.16a.77.77,0,0,1-.86.87Z"/><path d="M129.88,83.14A13.08,13.08,0,0,1,128,86.22l-.47-.33a11.66,11.66,0,0,0,1.87-3Zm-1.8-1.09q.46-2,.69-3.75a2.72,2.72,0,0,0,.43,0,20.42,20.42,0,0,0,5.87-.72l.27.47a23.87,23.87,0,0,1-6.13.71c-.18,1.1-.36,2-.52,2.72h3.07v-2h.55v2h3.74v.53h-3.74V85.7c0,.62-.29.92-.86.92h-1.33L130,86.1c.59,0,1,0,1.26,0s.5-.19.5-.58V82.05Zm6.2.8A29,29,0,0,1,136.09,86l-.51.26a24,24,0,0,0-1.78-3.22Z"/><path d="M137.58,81.39H141a3.89,3.89,0,0,0,.5-.88l.51.06a5.49,5.49,0,0,1-.43.82h2.87a5.87,5.87,0,0,0-.51-.76l.48-.15a4.61,4.61,0,0,1,.57.91h1.4v.5h-2.87a6.7,6.7,0,0,0,3.1,1.65l-.23.47-.81-.31v3h-.5v-.47h-2v.47h-.51V83.6h2.83A6.09,6.09,0,0,1,143,81.89H141.2a6.47,6.47,0,0,1-2.47,1.71h2.72v3.08H141v-.47h-1.9v.47h-.49v-3a9.08,9.08,0,0,1-.94.34l-.25-.46a7.93,7.93,0,0,0,3.17-1.66h-3Zm.83-3.45h2.94v2.32h-2.94Zm2.44,1.84V78.41h-1.93v1.37Zm-1.8,6H141V84.09h-1.9Zm3.56-7.8h3v2.32h-3Zm.41,7.8h2V84.09h-2Zm2.06-6V78.41h-2v1.37Z"/><path d="M149.74,77.65a17.5,17.5,0,0,1-1.5,3.28q.78-.09,1.56-.24c.23-.43.41-.77.54-1l.49.18a21.89,21.89,0,0,1-2.29,3.67,16.19,16.19,0,0,0,2.34-.63v.5a16.51,16.51,0,0,1-3,.74l-.15-.52a.8.8,0,0,0,.25-.16,12.54,12.54,0,0,0,1.53-2.24l-1.79.29-.14-.51a.8.8,0,0,0,.24-.22,17.26,17.26,0,0,0,1.38-3.31Zm1.24,7.6a17.71,17.71,0,0,1-3.31,1l-.07-.54a16.54,16.54,0,0,0,3.38-1ZM151,79h2.48a9.91,9.91,0,0,0-.56-1.43l.55-.1A14.8,14.8,0,0,1,154,79h2.47v.51h-.63a11.52,11.52,0,0,1-1.58,4.5,10.22,10.22,0,0,0,2.36,2.1l-.31.49a10.6,10.6,0,0,1-2.38-2.13,7.24,7.24,0,0,1-2.73,2.15l-.29-.47a6.48,6.48,0,0,0,2.66-2.14,10.74,10.74,0,0,1-1.83-4.5H151Zm1.3.51a9.36,9.36,0,0,0,1.63,4,10.66,10.66,0,0,0,1.4-4Z"/><path d="M158.78,79.79a7.9,7.9,0,0,1-1,2.12l-.36-.43a9.2,9.2,0,0,0,1.36-3.92l.54.09c-.11.62-.22,1.16-.34,1.62h2v.44a7.41,7.41,0,0,1-.94,1.58l-.39-.31a6.45,6.45,0,0,0,.74-1.19Zm.1,1.4h.53v4.5a7.61,7.61,0,0,0,1.46-1l.1.51a8.16,8.16,0,0,1-2.08,1.19l-.21-.46a.37.37,0,0,0,.2-.34Zm4.85-1.86H162.5a8.16,8.16,0,0,1-1.4,2.37l-.33-.42a8.76,8.76,0,0,0,1.73-3.82l.53.06c-.11.49-.22.92-.34,1.28h3.8v.53h-2.23v1.78h1.9v3.8a.66.66,0,0,1-.75.75h-.54l-.14-.51.51,0c.26,0,.39-.13.39-.37V81.61h-1.37v5h-.53v-5h-1.36v4.1h-.53v-4.6h1.89Z"/><path d="M129.88,55.34A13,13,0,0,1,128,58.41l-.47-.33a11.77,11.77,0,0,0,1.87-3Zm-1.8-1.1q.46-2,.69-3.75a2.72,2.72,0,0,0,.43,0,19.74,19.74,0,0,0,5.87-.72l.27.47a23.43,23.43,0,0,1-6.13.71c-.18,1.1-.36,2-.52,2.72h3.07v-2h.55v2h3.74v.53h-3.74v3.65c0,.62-.29.93-.86.93h-1.33l-.12-.53c.59,0,1,0,1.26,0s.5-.19.5-.58V54.24Zm6.2.8a30,30,0,0,1,1.81,3.19l-.51.26a23.84,23.84,0,0,0-1.78-3.21Z"/><path d="M137.58,53.58H141a3.69,3.69,0,0,0,.5-.88l.51.06a5,5,0,0,1-.43.82h2.87a6.65,6.65,0,0,0-.51-.76l.48-.15a4.91,4.91,0,0,1,.57.91h1.4v.5h-2.87a6.7,6.7,0,0,0,3.1,1.66l-.23.46c-.22-.07-.49-.18-.81-.31v3h-.5V58.4h-2v.48h-.51V55.8h2.83A6.11,6.11,0,0,1,143,54.08H141.2a6.49,6.49,0,0,1-2.47,1.72h2.72v3.08H141V58.4h-1.9v.48h-.49v-3c-.27.11-.59.22-.94.33l-.25-.45a7.93,7.93,0,0,0,3.17-1.67h-3Zm.83-3.45h2.94v2.32h-2.94ZM140.85,52V50.6h-1.93V52Zm-1.8,6H141V56.28h-1.9Zm3.56-7.8h3v2.32h-3Zm.41,7.8h2V56.28h-2Zm2.06-6V50.6h-2V52Z"/><path d="M149.43,54.37l.52.06-.24.62h2.15v.47a4.21,4.21,0,0,1-1.2,1.8c.49.21,1,.46,1.5.74l-.3.43c-.47-.27-1-.54-1.63-.82a7.94,7.94,0,0,1-2.52,1.16l-.27-.46a7.76,7.76,0,0,0,2.23-.95c-.42-.19-.91-.38-1.45-.58.28-.45.52-.89.72-1.29h-1.27v-.5h1.5Zm-1.73-2.68h2v-2h.51v2h1.9v.49h-1.9v.12a17.63,17.63,0,0,1,1.73,1.06l-.29.43a17.86,17.86,0,0,0-1.44-1.08v1.44h-.51v-2h0a4.53,4.53,0,0,1-1.85,2.1l-.28-.45a4,4,0,0,0,1.72-1.65H147.7Zm.66-1.73a7.78,7.78,0,0,1,.65,1.25l-.43.2a9.36,9.36,0,0,0-.68-1.3Zm3,5.59h-1.85a7.74,7.74,0,0,1-.6,1.07,13.06,13.06,0,0,1,1.23.48A4.37,4.37,0,0,0,151.34,55.55Zm.62-5.47a6.57,6.57,0,0,1-.78,1.34l-.41-.22a7.5,7.5,0,0,0,.74-1.33Zm1.15,3.2a9,9,0,0,1-.66,1.43l-.34-.42a12.91,12.91,0,0,0,1.24-4.61l.55.1c-.07.52-.15,1-.25,1.52h2.73v.54h-.71a10.76,10.76,0,0,1-.91,4.39,6.26,6.26,0,0,0,1.91,2.14l-.31.46a6.5,6.5,0,0,1-1.87-2.1,6.8,6.8,0,0,1-1.92,2.13l-.3-.47a6.15,6.15,0,0,0,1.92-2.19A13.53,13.53,0,0,1,153.11,53.28Zm.42-1.44c-.06.26-.12.46-.16.59a14.29,14.29,0,0,0,1.08,3.22,10.69,10.69,0,0,0,.7-3.81Z"/><path d="M157.57,52.91h8.94v.42h-8.94Zm1.06,1h6.84v2.52H162.3v.65h3.47v.39H162.3v.68h4.21v.44h-8.94v-.44h4.19v-.68h-3.43v-.39h3.43v-.65h-3.13Zm.22-4h6.41v2.43h-6.41Zm.29,5.11h2.62v-.74h-2.62Zm2.62,1.06v-.71h-2.62v.71Zm-2.39-5.14h5.37v-.67h-5.37Zm5.37,1v-.69h-5.37V52Zm-2.44,2.3V55H165v-.74Zm2.66,1.8v-.71H162.3v.71Z"/><path d="M176.28,49.59a9.38,9.38,0,0,0-1,2.09,8.37,8.37,0,0,0-.43,2.59,8.48,8.48,0,0,0,.43,2.6,10,10,0,0,0,1,2.09h-.55a8.65,8.65,0,0,1-1.43-4.69,8.73,8.73,0,0,1,1.43-4.68Z"/><path d="M182.34,49.72a10.63,10.63,0,0,0,4.38,3.73l-.33.48a10.9,10.9,0,0,1-4.3-3.69,11.76,11.76,0,0,1-4.3,3.75l-.32-.49a11.22,11.22,0,0,0,4.37-3.78Zm-.52,2.94h.54v6.2h-.54Z"/><path d="M188.46,49.59a8.85,8.85,0,0,1,1,2.08,8.37,8.37,0,0,1,.43,2.6,8.5,8.5,0,0,1-.43,2.62,9.4,9.4,0,0,1-1,2.07h-.55a10.44,10.44,0,0,0,1-2.09,8,8,0,0,0,0-5.19,10,10,0,0,0-1-2.09Z"/><path class="cls-1" d="M196.78,131.41H195.6v-2.53h1.18Zm0-6.67H195.6v-4.13h1.18Zm0-8.27H195.6v-4.13h1.18Zm0-8.27H195.6v-4.13h1.18Zm0-8.27H195.6V95.79h1.18Zm0-8.27H195.6V87.52h1.18Zm0-8.27H195.6V79.25h1.18Zm0-8.27H195.6V71h1.18Zm0-8.27H195.6V62.71h1.18Zm0-8.28H195.6V54.44h1.18Zm0-8.27H195.6V46.17h1.18Zm0-8.27H195.6V37.9h1.18Zm0-8.27H195.6V29.63h1.18Zm0-8.27H195.6V21.35h1.18Zm0-8.27H195.6V13.08h1.18Zm0-8.27H195.6V4.81h1.18Z"/><path class="cls-1" d="M197.24,131l-1-.68,2.41-3.36,1,.68Zm4.83-6.71-.95-.69,2.42-3.36,1,.69Zm4.83-6.72-1-.68,2.42-3.36.95.69Zm4.83-6.71-.95-.69,2.42-3.35,1,.68Zm4.83-6.71-.95-.69,2.42-3.36.95.69Zm4.84-6.72-1-.68,2.42-3.36.95.69Zm4.83-6.71-1-.69,2.42-3.35.95.68ZM231.06,84l-.95-.68,2.41-3.36.95.69Zm4.83-6.71-.95-.68,2.41-3.36,1,.68Zm4.83-6.71-.95-.69,2.41-3.36,1,.69Zm4.83-6.72-1-.68L247,59.77l1,.69Zm4.83-6.71-.95-.69,2.42-3.35,1,.68Zm4.83-6.71-1-.69,2.42-3.36.95.69ZM260,43.67l-1-.68,2.42-3.36.95.69ZM264.87,37l-.95-.69,2.42-3.35,1,.68Zm4.84-6.72-1-.68,2.42-3.36.95.69Z"/><path class="cls-1" d="M222.81,92.53c-1.12-.76-2.29-1.49-3.47-2.15l.57-1c1.21.69,2.41,1.43,3.56,2.21Zm-7.11-4c-1.23-.56-2.51-1.07-3.79-1.53l.39-1.1c1.32.46,2.62,1,3.88,1.56ZM208,85.81c-1.31-.34-2.65-.62-4-.85l.2-1.16c1.37.23,2.74.53,4.09.88Zm-8-1.36c-1.27-.1-2.55-.15-3.81-.15h-.27V83.13h.28c1.29,0,2.6.05,3.9.15Z"/><path class="cls-1" d="M238.76,66.76c-1.1-.81-2.24-1.59-3.37-2.33l.63-1c1.16.74,2.31,1.54,3.44,2.36Zm-6.88-4.44c-1.18-.67-2.4-1.31-3.63-1.9l.51-1.06c1.25.61,2.49,1.26,3.69,1.93Zm-7.37-3.58c-1.26-.52-2.55-1-3.84-1.45l.38-1.11c1.31.45,2.62,1,3.9,1.47Zm-7.75-2.67c-1.31-.36-2.65-.69-4-1L213,54c1.36.29,2.72.62,4,1Zm-8-1.71c-1.35-.21-2.72-.38-4.07-.5l.11-1.17c1.37.13,2.77.3,4.14.51Zm-8.16-.75c-1.36,0-2.73,0-4.1,0l0-1.17q2.09-.07,4.17,0Z"/><path class="cls-1" d="M253.48,47.29c-1-.9-2.08-1.78-3.15-2.62l.72-.92c1.09.85,2.17,1.74,3.21,2.66Zm-6.46-5c-1.12-.76-2.28-1.5-3.45-2.21l.6-1c1.2.71,2.38,1.47,3.51,2.25ZM240,38c-1.2-.62-2.44-1.22-3.69-1.78l.48-1.07c1.27.56,2.53,1.17,3.76,1.81Zm-7.48-3.34c-1.27-.47-2.57-.92-3.88-1.32l.35-1.12c1.33.41,2.65.86,3.94,1.35Zm-7.83-2.41c-1.32-.32-2.67-.61-4-.85l.21-1.15c1.36.24,2.74.53,4.08.86Zm-28.48-.8L196,30.33l.33-.06c1.26-.23,2.54-.42,3.79-.57l.14,1.16c-1.23.15-2.48.34-3.71.57Zm20.41-.66c-1.34-.16-2.72-.28-4.08-.36l.07-1.17c1.38.08,2.78.2,4.15.37Zm-12.28-.35-.07-1.17c1.38-.09,2.78-.13,4.17-.13v1.17C207.07,30.35,205.69,30.4,204.33,30.48Z"/><path class="cls-1" d="M271.4,26.54c-.87-1.05-1.78-2.09-2.71-3.08l.86-.8c.95,1,1.87,2.06,2.75,3.13Zm-5.59-6c-1-.93-2-1.85-3.06-2.72l.75-.9c1.06.89,2.11,1.82,3.11,2.77Zm-6.28-5.26c-1.09-.81-2.22-1.59-3.37-2.34l.64-1c1.16.75,2.32,1.55,3.43,2.37Zm-6.87-4.47c-1.19-.67-2.41-1.31-3.63-1.91l.52-1.05c1.24.6,2.48,1.26,3.68,1.94Zm-7.36-3.6c-1.26-.52-2.55-1-3.83-1.46l.38-1.11c1.31.45,2.62,1,3.9,1.49ZM196,6l-.4-1.1,1.22-.43.38,1.11C196.79,5.74,196.39,5.89,196,6Zm41.56-1.51c-1.31-.37-2.65-.71-4-1l.25-1.14c1.35.29,2.71.63,4,1Zm-36.44-.13-.31-1.13c1.33-.37,2.7-.7,4-1l.24,1.14C203.76,3.71,202.42,4,201.11,4.39Zm28.44-1.62c-1.34-.2-2.71-.38-4.07-.51l.11-1.16c1.39.13,2.78.3,4.14.51ZM209.13,2.7,209,1.54c1.37-.21,2.77-.37,4.15-.49l.1,1.17C211.84,2.34,210.47,2.5,209.13,2.7ZM221.39,2l-2.31,0c-.6,0-1.19,0-1.79,0l0-1.18,1.9,0c.76,0,1.51,0,2.27,0Z"/><rect class="cls-1" x="102.77" y="55.35" width="18.61" height="1.17"/><path d="M130.19,12.89c-.15-.52-.38-1.08-1.12-1.08a.76.76,0,0,0-.79.81c0,.48.32.75,1,1.1.89.45,1.39.85,1.39,1.63a1.68,1.68,0,0,1-1.87,1.57,4.06,4.06,0,0,1-1.3-.25c-.06-.2-.18-.93-.24-1.32l.29-.07c.16.51.58,1.32,1.38,1.32a.78.78,0,0,0,.83-.85c0-.52-.3-.78-1-1.15-.84-.45-1.35-.84-1.35-1.64s.63-1.46,1.78-1.46a6.36,6.36,0,0,1,1.11.14c0,.3.08.68.14,1.19Z"/><path d="M133.45,16.8v-.25c.39-.05.43-.1.43-.57V14.61c0-.64-.26-.89-.65-.89a.94.94,0,0,0-.68.3v2c0,.46,0,.52.46.57v.25h-1.85v-.25c.42-.05.5-.08.5-.59V12.21c0-.39,0-.49-.52-.55v-.24a6.67,6.67,0,0,0,1.41-.27v2.56a1.75,1.75,0,0,1,1.11-.54c.68,0,1.11.44,1.11,1.35V16c0,.51.06.53.47.59v.25Z"/><path d="M138.26,16.9a.7.7,0,0,1-.45-.16.74.74,0,0,1-.2-.32,2.63,2.63,0,0,1-.89.48,1,1,0,0,1-1.05-1c0-.42.2-.63.63-.79a6.51,6.51,0,0,0,1.28-.53v-.28c0-.47-.2-.74-.57-.74a.45.45,0,0,0-.34.17,1.73,1.73,0,0,0-.2.53.29.29,0,0,1-.3.24.45.45,0,0,1-.43-.4c0-.13.1-.23.27-.35a3.83,3.83,0,0,1,1.24-.57,1.34,1.34,0,0,1,.77.23,1.09,1.09,0,0,1,.43,1V15.8c0,.38.13.48.26.48a.63.63,0,0,0,.26-.07l.09.25Zm-.68-2c-.15.09-.38.2-.55.28s-.43.28-.43.56a.56.56,0,0,0,.52.61.67.67,0,0,0,.46-.18Z"/><path d="M139.28,13.45a8.89,8.89,0,0,0,1.36-.36v.6l.61-.35a1,1,0,0,1,.5-.17,1.46,1.46,0,0,1,1.39,1.56,2.28,2.28,0,0,1-2,2.17,1.25,1.25,0,0,1-.53-.1v1c0,.5.05.55.62.62v.25h-2v-.25c.5-.05.54-.11.54-.59V14.24c0-.45,0-.49-.47-.55Zm1.36,2.76a1.08,1.08,0,0,0,.69.3c.52,0,.88-.54.88-1.41s-.49-1.36-1-1.36a1.13,1.13,0,0,0-.62.24Z"/><path d="M146.82,16.06a1.83,1.83,0,0,1-1.42.84,1.61,1.61,0,0,1-1.64-1.73,2.11,2.11,0,0,1,.57-1.43,1.76,1.76,0,0,1,1.23-.57,1.3,1.3,0,0,1,1.29,1.28c0,.15,0,.26-.13.29s-1.24.1-2.08.13c0,.92.55,1.36,1.12,1.36a1.36,1.36,0,0,0,.92-.38Zm-1.43-2.57c-.34,0-.64.37-.71,1l1.11,0c.12,0,.17,0,.17-.16C146,13.9,145.75,13.49,145.39,13.49Z"/><path d="M131.56,43.8v-.27c.62-.06.66-.11.65-.88V39.48c-.6,1.41-1.38,3.19-1.86,4.32h-.24c-.43-1.1-1.12-2.83-1.7-4.25-.12,2.61-.12,3.16-.12,3.4,0,.43.18.53.76.58v.27h-2v-.27c.46,0,.66-.13.72-.59,0-.28.06-.68.26-3.41,0-.4,0-.59-.74-.65v-.27H129l1.63,3.71,1.67-3.71h1.58v.27c-.65.07-.73.13-.71.75l0,3c0,.77,0,.8.71.88v.27Z"/><path d="M136.9,43.9a.71.71,0,0,1-.46-.16.74.74,0,0,1-.2-.32,2.63,2.63,0,0,1-.89.48,1,1,0,0,1-1-1c0-.42.2-.63.63-.79a6.51,6.51,0,0,0,1.28-.53v-.28c0-.47-.2-.74-.57-.74a.45.45,0,0,0-.34.17,1.73,1.73,0,0,0-.2.53.28.28,0,0,1-.3.24.45.45,0,0,1-.43-.4c0-.13.1-.23.27-.35a3.83,3.83,0,0,1,1.24-.57,1.34,1.34,0,0,1,.77.23,1.09,1.09,0,0,1,.43,1V42.8c0,.38.13.48.26.48a.59.59,0,0,0,.26-.07l.09.25Zm-.69-2c-.15.09-.38.2-.55.28s-.42.28-.42.56a.55.55,0,0,0,.51.61.67.67,0,0,0,.46-.18Z"/><path d="M139.55,43.81a.92.92,0,0,1-.32.09c-.58,0-.92-.3-.92-1V40.64h-.52l0-.09.23-.28h.34V39.6l.8-.6.11,0c0,.26,0,.69,0,1.22H140a.31.31,0,0,1-.06.37h-.78v2c0,.63.26.72.43.72a1.12,1.12,0,0,0,.42-.09l.08.26Z"/><path d="M143.42,43.06a1.8,1.8,0,0,1-1.41.84,1.61,1.61,0,0,1-1.64-1.73,2.11,2.11,0,0,1,.57-1.43,1.76,1.76,0,0,1,1.23-.57,1.28,1.28,0,0,1,1.28,1.28c0,.15,0,.26-.12.29s-1.25.1-2.08.13c0,.92.55,1.36,1.12,1.36a1.36,1.36,0,0,0,.92-.38ZM142,40.49c-.34,0-.64.37-.71,1l1.1,0c.13,0,.18,0,.18-.16C142.57,40.9,142.36,40.49,142,40.49Z"/><path d="M146,43.8h-2v-.25c.45,0,.5-.09.5-.58V41.25c0-.45,0-.48-.44-.55v-.23a6.28,6.28,0,0,0,1.33-.32V41c.33-.5.64-.85,1-.85a.47.47,0,0,1,.5.45.69.69,0,0,1-.36.59.21.21,0,0,1-.24,0c-.13-.11-.23-.22-.37-.22s-.37.15-.52.49V43c0,.5.05.53.63.59Z"/><path d="M147.2,43.8v-.25c.46,0,.51-.09.51-.65V41.31c0-.52,0-.55-.45-.61v-.24a7.73,7.73,0,0,0,1.34-.3V42.9c0,.55,0,.6.52.65v.25Zm.9-4.23a.53.53,0,0,1-.52-.52.52.52,0,0,1,.53-.52.51.51,0,0,1,.51.52A.52.52,0,0,1,148.1,39.57Z"/><path d="M152.16,43.9a.68.68,0,0,1-.45-.16.77.77,0,0,1-.21-.32,2.7,2.7,0,0,1-.88.48,1,1,0,0,1-1.05-1c0-.42.2-.63.63-.79a6.78,6.78,0,0,0,1.28-.53v-.28c0-.47-.2-.74-.57-.74a.43.43,0,0,0-.34.17,1.73,1.73,0,0,0-.2.53.29.29,0,0,1-.31.24.46.46,0,0,1-.43-.4c0-.13.1-.23.28-.35a3.68,3.68,0,0,1,1.23-.57,1.32,1.32,0,0,1,.77.23,1.09,1.09,0,0,1,.43,1V42.8c0,.38.13.48.27.48a.68.68,0,0,0,.26-.07l.08.25Zm-.68-2-.55.28c-.27.13-.43.28-.43.56a.55.55,0,0,0,.52.61.69.69,0,0,0,.46-.18Z"/><path d="M153.15,43.8v-.25c.48-.06.51-.1.51-.62v-3.7c0-.44,0-.49-.49-.57v-.24a7.17,7.17,0,0,0,1.38-.27v4.78c0,.53,0,.57.51.62v.25Z"/><path d="M130.05,60.54a2.59,2.59,0,0,1,2.66,2.65,2.71,2.71,0,1,1-2.66-2.65Zm-.13.33c-.84,0-1.52.78-1.52,2.22s.63,2.54,1.73,2.54c.81,0,1.47-.73,1.47-2.22S130.89,60.87,129.92,60.87Zm.58,4.5A10.65,10.65,0,0,0,133,66.91l-.07.23a4.54,4.54,0,0,1-1.2-.09,8,8,0,0,1-2.19-1.35Z"/><path d="M137.4,65.66a13.49,13.49,0,0,0-1.41.28v-.57a1.83,1.83,0,0,1-1.15.57c-.62,0-1-.39-1-1.16V63.16c0-.39-.05-.43-.26-.48l-.19,0v-.24a12.72,12.72,0,0,0,1.37-.14c0,.31,0,.72,0,1.2v1.14c0,.58.3.76.61.76a.9.9,0,0,0,.68-.28v-1.9c0-.39-.06-.46-.3-.5l-.25,0v-.24a12.55,12.55,0,0,0,1.44-.14v2.64c0,.41.06.48.33.5l.19,0Z"/><path d="M140.42,65.94a.68.68,0,0,1-.45-.16.74.74,0,0,1-.2-.32,2.63,2.63,0,0,1-.89.48,1,1,0,0,1-1-1c0-.42.2-.63.63-.79a6.51,6.51,0,0,0,1.28-.53v-.28c0-.47-.2-.74-.57-.74a.45.45,0,0,0-.34.17,1.73,1.73,0,0,0-.2.53.29.29,0,0,1-.3.24.45.45,0,0,1-.43-.4c0-.13.1-.23.27-.35a3.83,3.83,0,0,1,1.24-.57,1.34,1.34,0,0,1,.77.23,1.09,1.09,0,0,1,.43,1v1.44c0,.38.13.48.26.48a.63.63,0,0,0,.26-.07l.09.26Zm-.68-2c-.15.09-.38.2-.55.28s-.43.28-.43.56a.56.56,0,0,0,.52.61.67.67,0,0,0,.46-.18Z"/><path d="M143.81,65.85v-.26c.38,0,.42-.09.42-.64V63.6c0-.56-.26-.81-.62-.81a1.12,1.12,0,0,0-.7.3V65c0,.51,0,.53.41.58v.26h-1.81v-.26c.46-.07.5-.08.5-.6V63.33c0-.5-.06-.52-.44-.59V62.5a6.79,6.79,0,0,0,1.35-.31c0,.14,0,.41,0,.6.16-.12.33-.24.52-.36a1.15,1.15,0,0,1,.64-.22c.64,0,1.05.48,1.05,1.28V65c0,.51,0,.54.46.59v.26Z"/><path d="M147.6,65.85a.74.74,0,0,1-.33.09c-.58,0-.91-.29-.91-1V62.68h-.53l0-.09.23-.28h.34v-.67l.8-.6.11.05c0,.26,0,.7,0,1.22h.84a.31.31,0,0,1-.06.37h-.78v2c0,.64.26.72.43.72a1.17,1.17,0,0,0,.42-.09l.08.26Z"/><path d="M148.49,65.85v-.26c.45,0,.51-.09.51-.65V63.35c0-.52,0-.55-.45-.61V62.5a6.91,6.91,0,0,0,1.34-.3v2.74c0,.55,0,.6.52.65v.26Zm.9-4.24a.52.52,0,1,1,0-1,.51.51,0,0,1,.51.52A.52.52,0,0,1,149.39,61.61Z"/><path d="M152.41,65.85a.78.78,0,0,1-.33.09c-.58,0-.91-.29-.91-1V62.68h-.53l0-.09.23-.28h.34v-.67l.8-.6.11.05c0,.26,0,.7,0,1.22h.84a.31.31,0,0,1-.06.37h-.78v2c0,.64.25.72.43.72a1.22,1.22,0,0,0,.42-.09l.07.26Z"/><path d="M157.08,62.56c-.4.06-.48.14-.68.57s-.42,1-.92,2.22-.68,1.81-.83,2.25a.25.25,0,0,1-.27.22c-.29,0-.58-.21-.58-.46s0-.19.2-.29a1.65,1.65,0,0,0,.63-.59,3.5,3.5,0,0,0,.24-.54.48.48,0,0,0,0-.31c-.38-1.07-.87-2.12-1-2.54s-.25-.47-.65-.53v-.25H155v.25c-.35.06-.4.12-.3.39l.67,1.78c.19-.48.49-1.27.65-1.73.08-.28,0-.37-.43-.44v-.25h1.47Z"/><path d="M129.47,88.65a2.53,2.53,0,0,1,1.41.33,1.34,1.34,0,0,1,.59,1.18,1.69,1.69,0,0,1-1.81,1.65l-.23,0-.5-.13v1.15c0,.67.06.7.77.77v.27h-2.43v-.27c.63-.08.7-.11.7-.78V89.71c0-.69-.08-.74-.7-.79v-.27Zm-.54,2.7a1.17,1.17,0,0,0,.48.09c.43,0,1.05-.24,1.05-1.28,0-.89-.52-1.2-1.09-1.2A.62.62,0,0,0,129,89c-.06,0-.08.14-.08.29Z"/><path d="M134.48,93.94a.68.68,0,0,1-.45-.16.77.77,0,0,1-.21-.32,2.7,2.7,0,0,1-.88.48,1,1,0,0,1-1.05-1c0-.42.2-.63.63-.79a6.51,6.51,0,0,0,1.28-.53v-.28c0-.47-.2-.74-.57-.74a.43.43,0,0,0-.34.17,1.73,1.73,0,0,0-.2.53.29.29,0,0,1-.31.24.46.46,0,0,1-.43-.4c0-.13.1-.23.28-.35a3.68,3.68,0,0,1,1.23-.57,1.3,1.3,0,0,1,.77.23,1.06,1.06,0,0,1,.43,1v1.44c0,.38.13.48.27.48a.68.68,0,0,0,.26-.07l.08.26Zm-.68-2-.55.28c-.27.13-.43.28-.43.56a.56.56,0,0,0,.52.61.69.69,0,0,0,.46-.18Z"/><path d="M137.14,93.85a.81.81,0,0,1-.33.09c-.58,0-.91-.29-.91-1V90.68h-.53l0-.09.22-.28h.35v-.67l.8-.6.11,0c0,.26,0,.7,0,1.22h.84a.31.31,0,0,1-.06.37h-.78v2c0,.64.25.72.42.72a1.12,1.12,0,0,0,.42-.09l.08.26Z"/><path d="M139.64,93.85a.74.74,0,0,1-.33.09c-.58,0-.91-.29-.91-1V90.68h-.53l0-.09.23-.28h.34v-.67l.8-.6.11,0c0,.26,0,.7,0,1.22h.84a.31.31,0,0,1-.06.37h-.78v2c0,.64.26.72.43.72a1.17,1.17,0,0,0,.42-.09l.08.26Z"/><path d="M143.51,93.1a1.81,1.81,0,0,1-1.41.84,1.61,1.61,0,0,1-1.64-1.73,2.06,2.06,0,0,1,.57-1.43,1.75,1.75,0,0,1,1.23-.57,1.28,1.28,0,0,1,1.28,1.28c0,.15,0,.26-.12.29s-1.25.1-2.08.13c0,.93.54,1.36,1.12,1.36a1.35,1.35,0,0,0,.91-.38Zm-1.43-2.57c-.33,0-.63.37-.7,1l1.1,0c.13,0,.17,0,.17-.16C142.66,90.94,142.44,90.53,142.08,90.53Z"/><path d="M146,93.85h-2v-.26c.45,0,.5-.09.5-.58V91.29c0-.45,0-.48-.44-.55v-.23a7.11,7.11,0,0,0,1.33-.31v.86c.33-.5.63-.85,1-.85a.47.47,0,0,1,.5.45.71.71,0,0,1-.36.6.22.22,0,0,1-.24,0c-.13-.11-.23-.22-.37-.22s-.37.15-.52.49V93c0,.49.05.52.63.58Z"/><path d="M149.52,93.85v-.26c.38,0,.41-.09.41-.64V91.6c0-.56-.25-.81-.62-.81a1.15,1.15,0,0,0-.7.3V93c0,.51,0,.53.41.58v.26h-1.81v-.26c.46-.07.51-.08.51-.6V91.33c0-.5-.06-.52-.44-.59V90.5a6.69,6.69,0,0,0,1.34-.31c0,.14,0,.41,0,.6.16-.12.33-.24.52-.36a1.2,1.2,0,0,1,.64-.22c.64,0,1,.48,1,1.28V93c0,.51.05.54.46.59v.26Z"/></g></g></svg>