<svg xmlns="http://www.w3.org/2000/svg" viewBox="0 0 242.26 87.76"><defs><style>.cls-1{fill:#f2f7d9;fill-rule:evenodd;}</style></defs><title>cloud</title><g id="图层_2" data-name="图层 2"><g id="图层_1-2" data-name="图层 1"><path class="cls-1" d="M78.08,61.21c-11.37-4.78-12.6-12-3.58-15.44,10.29-4,23.15-.39,25.82,7.17,3.07,8.7-7.65,16.67-22,17.16-20.87.72-35.2-14.53-26.76-27.43,6.79-10.39,27.23-16.42,44.53-14,18.4,2.56,26.88,11,33,21,6,9.7,12.1,19.28,27.86,24.29,13,4.13,26.86,5.27,41.14,4,13.32-1.21,26.78-1.76,40-3.43,1.25-.16,3-.82,3.84.14s-.57,1.93-1.68,2.53c-4,2.14-7.89,4.4-12.83,5.57-10.82,2.55-21.85,4.77-33.49,5-18.4.36-36.51-.47-53.09-6.42a17.76,17.76,0,0,0-9.87-.62c-12,2.38-23.68,1-34.63-2.58-3.36-1.09-4.7,0-6.59,1.18a52.18,52.18,0,0,1-28,7.76c-16.21-.14-30.29-3.63-38.58-13.19A16.42,16.42,0,0,1,19,64.21c-.12-2.1-1.47-3.5-4.37-4.51C-2,53.86-3.57,40.74,5.5,32c5.45-5.26,14-6.64,22.91-7.42a42.58,42.58,0,0,1,5.76-.11c2.87.14,3.9-.62,4.31-2.43,1.12-4.86,3.75-9.27,9-13.09C58.83.75,73.53-.92,89.21.41c10.81.92,19.16,5.18,24.93,11.17,2.1,2.18,4.15,2.47,7.6,1.17,20.35-7.67,43.54,1.46,45.12,14.87.44,3.69-1.87,5.94-6.45,7.64s-8.73.37-12.78-.95a8.82,8.82,0,0,1-2.3-1.33c-2.82-1.95-5.42-4.18-2.9-6.82,2.19-2.3,5.64-3.32,10.2-.6-2.22-3.36-8.69-3.85-12.26-1.4-2.69,1.85-4,4.07-1.88,6.71,3.18,3.93,8.23,6.25,14.74,7.35,5.36.9,12.6-1.28,15.66-5.16,1.92-2.43,3.49-1.91,5.89-.67,7,3.63,9.79,8.41,8.28,14-1.61,5.95-7.32,9.92-16.46,11.64-5.11,1-5.54,1.24-1.73,3.66,8.62,5.49,17.67,10.64,29.93,12.64,1.29.22,2.33.45,2.45,1.42C170,77,146,73.51,134.69,52a49.2,49.2,0,0,0-17-18.26C104.94,25.3,89.35,24.2,72.9,27.63,52.06,32,40.12,44.49,47.93,59.09c3.47,6.5,14.77,13.22,28.53,13.2,10.48,0,22.61-4.1,26.62-11.1,5.18-9.07-4.74-19.1-19.78-19.49-6.52-.17-14.93,3.88-16.88,8.13s.85,8.64,7.25,11.1C74.94,61.41,75.85,61.32,78.08,61.21Zm1.45.3a2.7,2.7,0,0,0,.93.19c.6-.11,1.94.14,1.54-.51C81.78,60.82,80.25,60.87,79.53,61.51Z"/></g></g></svg>