<svg xmlns="http://www.w3.org/2000/svg" xmlns:xlink="http://www.w3.org/1999/xlink" viewBox="0 0 387.69 293.17"><defs><style>.cls-1{fill:#fff;}.cls-2{fill:url(#linear-gradient);}.cls-3{fill:url(#linear-gradient-2);}.cls-4{fill:url(#linear-gradient-3);}.cls-5{fill:url(#linear-gradient-4);}.cls-6{fill:url(#linear-gradient-5);}.cls-7{fill:url(#linear-gradient-6);}.cls-8{fill:url(#linear-gradient-7);}.cls-9{fill:#ffd244;}.cls-10{fill:url(#linear-gradient-8);}.cls-11{fill:url(#linear-gradient-9);}.cls-12{fill:url(#linear-gradient-10);}.cls-13{fill:url(#linear-gradient-11);}.cls-14{fill:url(#linear-gradient-12);}</style><linearGradient id="linear-gradient" x1="532.78" y1="-97.09" x2="253.45" y2="109.3" gradientUnits="userSpaceOnUse"><stop offset="0" stop-color="#0b0606"/><stop offset="1" stop-color="#474c4c"/></linearGradient><linearGradient id="linear-gradient-2" x1="577.68" y1="-36.21" x2="298.93" y2="169.75" xlink:href="#linear-gradient"/><linearGradient id="linear-gradient-3" x1="560.66" y1="-20.52" x2="297.15" y2="174.19" xlink:href="#linear-gradient"/><linearGradient id="linear-gradient-4" x1="556.04" y1="-42.21" x2="292.38" y2="152.61" xlink:href="#linear-gradient"/><linearGradient id="linear-gradient-5" x1="552.45" y1="-53.52" x2="282.05" y2="146.28" xlink:href="#linear-gradient"/><linearGradient id="linear-gradient-6" x1="529.22" y1="-96.14" x2="251.66" y2="108.95" xlink:href="#linear-gradient"/><linearGradient id="linear-gradient-7" x1="510.53" y1="-78.26" x2="245.58" y2="117.5" xlink:href="#linear-gradient"/><linearGradient id="linear-gradient-8" x1="139.05" y1="58.97" x2="298.49" y2="246.44" gradientUnits="userSpaceOnUse"><stop offset="0" stop-color="#688660"/><stop offset="1" stop-color="#474c4c"/></linearGradient><linearGradient id="linear-gradient-9" x1="47.3" y1="136.67" x2="207.11" y2="324.57" xlink:href="#linear-gradient-8"/><linearGradient id="linear-gradient-10" x1="93.23" y1="97.63" x2="252.94" y2="285.41" xlink:href="#linear-gradient-8"/><linearGradient id="linear-gradient-11" x1="256.68" y1="-40.95" x2="415.96" y2="146.32" xlink:href="#linear-gradient-8"/><linearGradient id="linear-gradient-12" x1="-29.59" y1="203.03" x2="129.09" y2="389.59" xlink:href="#linear-gradient-8"/></defs><title>flower</title><g id="图层_2" data-name="图层 2"><g id="图层_1-2" data-name="图层 1"><polyline class="cls-1" points="48 226.87 45.38 226.51 43.01 225.33 41.05 223.55 39.41 221.45 38.36 219 37.71 216.42 37.44 213.78 37.28 211.12 37.62 208.47 38.3 205.89 39.49 203.5 41.1 201.4 42.99 199.56 44.89 197.71 47.12 196.27 49.25 194.7 51.39 193.15 53.48 191.52 55.54 189.88 57.44 188.07 58.32 190.68 59.31 193.28 60.37 195.84 61.5 198.37 62.69 200.89 63.48 203.56 64.39 206.18 65.23 208.83 65.79 211.56 66 214.34 65.55 217.09 64.73 219.74 63.23 222.1 61.47 224.27 59.33 226.08 56.78 227.23 54.02 227.54 51.24 227.44 48.59 226.59 46.05 225.46 43.65 224.05"/><path class="cls-2" d="M197,250l-1.55-.52-1.54-.24-1.53.52-1.55-.34-.87-.08-1.83-.83-2.11,0-1.91-.63-1.71-.42-1.71-.54-1.82.23-1.73-.28-1.76-.63-1.75.68-1.83-.45-1.32.88-.13,1.54L168.67,250l-1.89.61-1.68,1-1.72.95-1.55.93-1.67.69-1.84.34-1.45,1.14-1.58.88-1.82.37-1.77.46-1.3,1.15-1.62.43-1.37,1-1.75.14-1.52.67-1.38.94-1.53,1.18-1.63,1-1.66.94-1.55,1.15.07.11-.39-.27-.29.24-1.41-.74-1.54-.12-1.66-.28-1.62-.44-1.63-.45-1.72.15-1.63-.44-1.54-.82-1.75.13-1.86-.44-1.54-1.21-1.62-.94-1.92-.4-1.71-.83-1.23-1.42-1.56-.89-1.37-1.16-1.82-.55-1.27-1.3L104,252.67l-1.24-1.31-1.63-.85-1.48-1-1.33-1.21-1-1.62-1.4-1.12-1.37-1.18-1.53-1L91.83,242l-1.49-1L89,239.74l-1.64-.84-1.24-1.36-1.68-.75-1.72-.64-1.36-1.24-1.51-1-1.62-.84-1.68-.7-1.77-.51-1.86.09-1.79.08-1.78.06-1.74.44-1.71.62-1.35,1.22-1.36,1.15-1.51,1.06-1.21,1.38-.9,1.59-.84,1.37-1.32-.51L55.73,240l-1.39-1-1.51-.71-1.45-.85L49.72,237l-1.4-.94-1.41-.9-1.51-.75L44,233.51l-1.21-1.23-1.51-.74L40,230.48l-1.47-.72-1.59-.5-1.24-1.09-1.38-.86L33,226.4l-1.54-.58-.8-1.22-1-1.24-.21-1.61-.77-1.83-1.26-1.65-.38-2-.51-1.65-1.12-1.43-.35-1.7-.58-1.63-.33-1.71-.87-1.53L22.63,205l-.36-1.69.14-1.83-.83-1.56-.42-1.67-.65-1.62L20.09,195l.18-1.81-.71-1.61-.71-1.61,0-1.76-.39-1.68L18,184.82l.14-1.77-.26-1.7-.94-1.6.19-1.77-.6-1.66.14-1.76-1.37-.48-1.32.83.3,1.78v1.79l.5,1.75L15,182l-.23,1.83.59,1.72.45,1.73-.46,1.9,1,1.62-.27,1.89.91,1.62.07,1.83.65,1.68.32,1.77.65,1.67.81,1.66-.41,1.91.36,1.79.2,1.81.7,1.72.3,1.79v1.87l.84,1.66.52,1.74.4,1.78.45,1.76.34,1.8.81,1.53.84,1.51.45,1.65.32,1.71,1.13,1.38.24,1.75.8,1.59.48,1.73,1.34,1.35.46,1.79,1.35,1.2,1.26,1.21,1.47,1,1.56.83L37,244.09l1.64.71,1.45,1L41.44,247l1.58.8,1.49,1,1.49,1,1.35,1.14,1.59.76.68,1.71,1.4,1,1.33,1.07,1,1.37,1.24,1.15.91,1.46,1.19,1.21,1.4,1,.89,1.51,1.28,1.12,1.72.57,1.25,1.11,1.35,1,.63.25,1.42.65,1.27.16.91-1.78,1.67-.69,1.64-.66,1.81.09,1.66-.72,1.76,0,1.74.13,1.74.18,1.76.13,1.64.65,1.73.35,1.67.54,1.66.58,1.72.45,1.26,1.46,1.8.31,1.64.65,1.55.83,1.21,1.44,1.53.84,1.67.62,1.45,1,1.47,1,1.55.83,1.86.25,1.39,1.11,1.51.9,1.68.57,1.52.87,1.51.94,1.85.1,1.57.8,1.65.58,1.63.67,1.71.42,1.71.44,1.74.27,1.79-.15,1.74.17,1.74.22,1.76.33,1.77.22,1.73-.74,1.74-.16,1.83.43,1.66-.82,1.78-.07,1.78-.1,1.64-.74,1.6-.78,1.71-.49,1.92.08,1.62-.78,1.62-.78,1.6-.82,1.58-.82,1.65-.72,1.35-1.24,1.78-.49,1.41-1.12,1.5-1,1.61-.8,1.64-.77,1.41-1.1,1.34-1.21,1.31-1.24,1.69-.71,1.38-1.14,1.54-.9,1.47-1,1.37-1.13,1.33-1.18,1.44-1,1.42-1.07,1.3-1.23,1.75-.58,1.34-1.17,1.46-1,1.44-1.15,1.81-.2,1.77,0,1.74-.23,1.75-.09,1.73-.45,1.77,0,1.66-.57,1.77-.15,1.63-.7,1.35-1.14,1.52-.92,1-1.44,1-1.41,1.26-1.24,1-1.42.66-1.64.51-1.34-1.07.92-1.64.52-1.58.63-1.66.44-1.45.91-1.69.33-1.61.49-1.43,1.07h-1.77l-1.58.63-1.56.77-2,.16Zm-18.31,4.42-1.12,1.14-1.06,1-1.25,1.18-1.7.4-1.58.62-1.56.67-1.27,1.28-1.59.59-1.54.71-1.63.54-1.32,1.17-1.57.62-1.78.23-1.23,1.31-1.82.16-1.52.8-1.47.93-1.55.78-1.73.25-1.58.66-1.61.6-1.59.65-1.66.42-1.78.08-1.51,1-1.53.88-1.77.45-1.72.55-1.34,1.28-1.72.51-1.56.95-1.86-.16-1.72.08-1.68,0-1.23-1.09-1.18-1.21-1.24-1.16-1.5-.81-1.18-1.28-1.53-.76-1.56-.69-1.2-1.27-1.56-.69-1.45-.87-1.32-1.06-1.26-1.14-1.66-.75-1.3-1.22-1.07-1.5-1.72-.68-1.47-1L101.32,258,100,256.84l-1.77-.56-1.55-.84-1.21-1.39-1.61-.77-1.51-1-1.79-.25L89.22,251l-1.4-.95-1.3-1.12-1.63-.58-1.54-.69-1.47-.77-1.42-1.1-1.74-.17-1.74.14-1.56.74-1.67.52-1.33,1.15-1.31,1.16-.85,1.53-1.49.57-1.64,0-1.77-.08-1.55-.86-1.57-.73L60.65,249l-1.58-.67-1.59-.66-1.75-.29-1.64-.54-1.53-.81L51,245.32l-1.51-.83L47.82,244l-1.52-.77L45,242.12l-1.42-.93L42,240.4l-1.36-1-1.52-.79-1.62-.64-1.24-1.21-1.4-1-1.28-1.09-1.46-1.47-1-1.79-.83-1.7,1.71.68,1.45.92L35,232.76l1.79,1L38.36,235l1.51.78,1.63.58,1.27,1.17,1.42.94,1.38,1,1.57.68,1.39,1,1.67.51,1.25,1.22,1.43.91,1.75.36,1.3,1.15,1.43.9,1.76.31L61,247l1.52-1.17,1-1.38.49-1.65.77-1.53,1.22-1.31,1.66-.74.93-1.06,1.3-.44.64,0,.37-.44.8.58.74-.3,1.86,0,1.63.9,1.69.69,1.66.75,1.3,1.35,1.47,1,1.86.55L85,244.35l1.64.85,1.09,1.37,1.63.7,1,1.5,1.44.93L93,250.9l1.52.83,1.35,1,1,1.44,1.52.83,1.42,1,.83,1.69,1.78.49.95,1.56,1.67.6,1.17,1.29,1.52.79,1.34,1.06,1.54.75,1.62.58,1.21,1.35,1.6.63,1.54.75,1.72.24,1.61.57,1.56.81,1.7-.08,1.63.25,1.61.39,1.61.37,1.58.5,1.67,0,1.67.1,1.46.49,1.51.51,1.49-.59H139l1.63-1,1.71-.81,1.18-1.59,1.83-.6,1.28-1.13,1.54-.65,1.54-.64,1.47-.79,1.71-.23,1.41-.94,1.56-.64,1.64-.46,1.44-.9,1.5-.75,1.49-.78,1.59-.59,1.29-1.2,1.83-.07,1.37-1,1.39-1,1.58-.61,1.43-.9,1.6-.49.62.19,2-.05,1.83.67Z"/><path class="cls-3" d="M387.16,114.18l-1.43.62-1.46-.89-1.64-.38-1.67-.27-1.45-.91-1.52-.69-.87.66L376,114.19l-1.06,1.13-.66,1.42-.76,1.4-1.6.13-1.26.94-1.48.25-1.92.16-.45,1-2,.27-1-1.52-2.61.78,1.46-1.15,0-1.9-1.78.08-1.12,1.16-1.3.92-1.42.79-.64.7-.5.91,0,0,.29.27.08.59-1.67-.29-1.53.49-1.57.33-1.55.37-1.78.13,1.22-1.47,1.07-1.36,1.18-1.27,1.41-1,1.51-.86,1.3-1.16.8-.49,1.58-.22h1.69l1.63-.63,1.72.27,1.65-.41,1.61-.54,1.74.14,1.69-.5,1.6-.78,1.7-.43,1.62-.65,1.7-.46,1.56-.81,1.68-.54,1.51-.9,1.62-.68,1.51-.89,1.57-.77,1.35-1,0-1.59.31-1.63,0-1.63-.44-1.55-1.49.89-1.56,1.18-1.87.65-1.37,1.18-1.59.8-1.68.63-1.52.92-1.6.81-1.75.35-1.65.63-1.71.46-1.77.17-1.71.38-1.72.38-1.73.34-1.74.38-1.78-.07-1.75.26-2.12-.95-1.42,1-1.23,1.17-1.42,1-.91,1.5-1.23,1.36-1.49,1.12-1.1,1.5-1.38,1.22-1.37,1.36-1.44.88-1.16,1.2-1.31,1-1.22,1.14-1.48.82-1,1.37-1.39.93-1.35,1-.53,1.62-.76.38-1.36,1.06-1.61.66-1.32,1.14-1.6.67-1.49.83-1.37,1.12-1.61.63-1.72.34-1.54.79-1.75.21-1.62.66-1.72.28-1.72.27-1.74.11-1.73.12-1.72.41-1.75-.18-1.74.09-1.75-.08-1.72-.31-1.68-.52-1.75,0-1.66-.57-1.74-.12-.09-.1-1.85-.39-1.82-.59-1.8-.71-1.71-.89-1.55-.25L282,135l-.55,1.6-.79,1.63-.67,1.68-.9,1.64-1,1.59-.77,1.69-.81,1.68-.67,1.75-1.24,1.43-1,1.58L273,152.8l-.9,1.4-.91,1.4-1.36,1-.81,1.5-1.48.89-.85,1.49-1.3,1-1.19,1.29L262.86,164l-1.2,1.29-1.51.91-1.26,1.22-1.58.82-1.06,1.48-1.58.8-1.51.89-1.38,1.07-1.52.86-1.2,1.34-1.45,1-1.78.45-1.23,1.42-.88-.3-2.12,1.32-.61,1.66,1.25,1.6,1.53,1,1,1.52.51,1.76.5,1.77-.13,1.92.6,1.74.25,1.67.29,1.67.4,1.67L247,198.2l-.32,1.32.39.74,0,1.8-.21.73-.82,2.26,1,.42.14-.41.68.05,1.87-1.69.86-.73,1.24-.92,1.24-.93,1.38-.76,1.06-1.21L257,198l1.75-.68,1.56-1,1.31-1.39,1.59-.95,1.46-.71,1.56-.52,1.34-.93,1.56-.48,1.47-.67,1.47-.66,1.5-.84,1.58-.68,1.66-.46,1.54-.77,1.55-.74,1.6-.62L283,185l1.68-.49,1.45-.92,1.5-.83,1.55-.79,1.26-1.19,1.37-1.05,1.27-1.17L294,177l1.35-1.12.74-1.59,1.11-1.34.65-1.62.84-1.5,1-1.42.42-1.7.6-1.62.79-1.57.74-1.6.44-1.69.37-1.74,1.1-1.4.9-1.42,1.28-1.09,1.15-1.23,1.43-.88,1.36-1,1.45-.9,1.57-.76,1.64-.61,1.68-.5,1.69-.46,1.76-.07,1.71-.23,1.72-.37,1.75,0,1.75.1,1.71.75,1.79.23h1.86l1.65.84,1.74.49,1.73.54,1.76.39,1.82.16,1.76.42,1.62.26,1.65.06,1.63.17,1.59.57,1.64.15,1.66-.14,1.63.21,1.76-.08,1.73.49,1.76-.35,1.75-.12,1.75.38,1.75-.25,1.76.22,1.75,0L370,153l1.73-.43,1.78.37,1.75,0,1.75-.11,1.71-.57,1.75-.11,1.78.19,1.69-.68,1.77.1,2-.23-.31-1.85-.16-1.77,0-1.78.11-1.77.05-1.78-.25-1.77.17-1.78-.08-1.77.11-1.78.18-1.78-.27-1.77-.07-1.78.35-1.77-.05-1.78.07-1.77-.12-1.78.21-1.78-.42-1.78.31-1.78,0-1.79ZM285.54,151l-1.07,1.34-1.1,1.37-.59,1.63-.46,1.68-1.06,1.4-.84,1.51-.41,1.7-.93,1.46-1,1.4-.69,1.6-1,1.32-1.53.73-1,1.37-1.47.77-1.55.63-1.17,1.23-1.45.79-1.52.64-1.39,1-1.72.39-1.5.84-1.41,1-1.38,1-1.49.85-1.61.67-1.32,1.11-1.44,1-1.36,1-1.19,1.27-1.59,1.09-.33-1.71L248,182l-.11-.24,1.5-1.09,1.54-1,1.59-.93,1.46-1.11,1.49-1.08,1.55-.86,1.58-.82,1.27-1.26,1.62-.78,1.3-1.2,1.45-1,1.06-1.49,1.64-.8,1.2-1.31,1.1-1.4,1.59-.9,1.15-1.35.95-1.52,1.22-1.27,1.06-1.41,1.23-1.28.91-1.51,1.14-1.32.8-1.55,1-1.43.77-1.56.88-1.5.53-1.67.76-1.55,1-1.45.6-1.45,1.34.23,1.29.81,1.62.54-1.18,1.61-.54,1.76-1,1.54Zm92.19-36.72.28-.63-.12-.08Z"/><polygon class="cls-4" points="246.5 209.61 246.17 209.04 245.04 208.9 244.32 210.77 243.55 212.63 242.65 214.43 241.96 215.38 241.9 215.49 241.52 215.81 242.12 216.91 242.53 217.06 244.14 216.96 245.51 216.14 246.23 214.7 246.53 213.11 246.6 211.5 246.56 209.88 246.5 209.61"/><polygon class="cls-5" points="355.16 107.24 355.2 107.23 355.67 107.09 356.23 106.9 356.38 107.31 357.57 107.63 359.02 106.75 360.46 105.84 361.83 104.84 363.1 103.72 362.73 102.28 360.9 101.58 359.01 101.05 357.09 101.24 356.02 102.21 355.25 103.46 354.62 104.78 354.79 105.34 354.42 106.28 355.16 107.24"/><polygon class="cls-6" points="292.09 136.24 293.57 136.95 295.13 137.49 296.74 137.81 298.37 137.94 299.09 137.4 299.36 135.32 298.64 134.6 297.12 134.6 295.6 134.56 294.08 134.63 293.71 134.84 292.47 134.85 292.09 136.24"/><polygon class="cls-7" points="71.65 240.97 70.74 240.73 70 241.15 69.15 241.05 67.52 242.03 66.09 243.28 64.98 244.81 65.26 245.84 66.91 246.5 68.68 246.51 70.35 245.9 71.65 244.69 72.19 243 72.19 242.81 71.65 240.97"/><polygon class="cls-8" points="76.4 241.79 76.34 241.79 76.19 241.81 76.13 241.81 75.55 241.72 75.35 241.7 74.57 242.47 74.58 242.47 74.49 242.67 75.03 243.76 76.51 244.01 77.27 243.27 77.68 242.3 76.4 241.79"/><polygon class="cls-1" points="351.91 88.26 351.63 85.52 350.8 82.88 350.18 80.21 348.81 77.8 347.87 75.24 346.63 72.81 345 70.61 343.5 68.34 341.79 66.23 340.05 64.14 338.27 62.04 336.2 60.33 333.91 58.94 331.64 57.51 329.15 56.51 326.55 55.88 324.04 54.81 321.35 54.61 318.67 54.48 316.03 53.94 313.35 53.92 310.67 53.87 308 53.59 305.32 53.43 302.63 53.4 299.97 52.85 297.27 53.12 294.59 53.2 291.91 53.36 289.27 53.77 286.56 53.94 283.94 54.59 281.47 55.69 279 56.71 276.47 57.66 274.26 59.22 271.89 60.5 269.65 62.61 267.11 64.25 264.74 66.16 263.08 68.75 260.55 69.86 258.47 71.56 256.47 73.33 254.65 75.26 252.58 77.01 251.09 79.25 249.75 81.59 248.65 84.04 247.72 86.57 247.15 89.2 246.64 91.84 246.64 94.53 246.16 97.18 246.51 99.85 246.68 102.52 247.32 105.11 248.06 107.68 249.05 110.16 250.44 112.44 251.79 114.74 253.32 116.93 255.19 118.85 257.15 120.66 259.12 122.48 261.32 124.01 263.72 125.2 266.06 126.48 268.54 127.45 270.85 128.84 273.47 129.42 276.01 130.24 278.61 130.81 281.26 131.32 283.88 132.02 286.55 132.46 289.26 132.64 291.96 132.8 294.65 133.02 297.36 133.16 300.06 133.38 302.76 132.98 305.46 132.85 308.17 132.76 310.88 132.64 313.53 131.98 316.15 131.32 318.85 130.99 321.51 130.43 323.98 129.25 326.53 128.37 328.99 127.23 331.49 126.21 334.04 125.21 336.32 123.72 338.35 121.89 340.42 120.17 342.5 118.41 344.1 116.22 345.84 114.14 347.23 111.82 348.62 109.49 349.62 106.97 350.51 104.41 350.85 101.72 351.67 99.11 352.11 96.42 351.75 93.7 352.14 90.97 351.91 88.26"/><polygon class="cls-9" points="316.46 84.17 314.31 85.02 313.65 85.94 311.99 84.13 310.05 82.64 307.85 81.56 305.64 80.87 305.66 80.77 305.72 79.31 304.35 77.7 302.29 77.38 301.86 77.48 299.74 78.57 299.48 81 299.6 81.05 296.85 81.82 294.87 82.4 293.03 83.3 292.91 82.89 291.65 81.33 289.66 80.99 288.05 81.98 287.37 82.82 286.13 84.67 286.37 86.69 287.74 87.82 286.07 89.96 284.99 92.43 284.25 95.01 283.94 97.69 284.37 100.36 285.22 102.94 286.69 105.24 288.64 107.15 291.02 108.48 293.73 109.42 296.57 109.91 299.45 109.72 302.29 109.31 304.98 108.65 307.49 107.49 309.89 106.1 312.04 104.36 313.76 102.2 315.29 99.9 315.9 97.2 316 94.46 315.95 93.89 315.62 90.3 315.51 90.02 316.42 90.18 318.57 89.24 319.4 87.15 318.53 85.06 316.46 84.17"/><polygon class="cls-9" points="282.65 91.38 282 91.32 281.95 91.23 280.03 91 279.97 91.03 278.77 92.01 278.56 93.58 280.2 95.05 281.28 95.07 281.48 95.02 281.89 94.93 282.65 94.72 283.9 93.06 282.65 91.38"/><polygon class="cls-9" points="282.34 101.97 281.47 99.92 279.48 99.11 278.54 99.21 277.16 100.01 276.4 102.94 277.45 104.64 279.46 105.45 281.46 104.62 282.27 102.64 282.28 102.48 282.34 101.97"/><polygon class="cls-9" points="285.76 110.3 285.74 110.29 285.75 110.26 284.23 109.11 283.59 109.01 282.72 109.17 281.12 109.62 280.59 109.95 279.69 110.95 279.26 112.56 279.74 114.35 280.61 115.39 281.26 115.87 284.03 116.23 284.35 116.11 285.78 115.51 287.28 112.93 285.76 110.3"/><polygon class="cls-9" points="298.42 111.39 296.92 111 295.91 111 294.06 111.74 293.27 113.57 294.03 115.42 295.87 116.19 296.88 116.21 298.44 115.79 299.7 113.61 298.42 111.39"/><polygon class="cls-9" points="319.17 102.9 317.42 104.68 319.15 106.49 320.9 104.7 319.17 102.9"/><polygon class="cls-9" points="322.4 94.43 322.15 93.47 321.02 92.61 319.58 92.8 318.88 93.5 318.5 93.66 317.44 95.05 317.43 95.09 317.36 95.27 317.57 96.72 318.52 97.67 320.28 97.91 321.91 96.27 321.93 96.23 322.4 94.43"/><polygon class="cls-9" points="313.26 107.23 311.27 108.02 310.5 108.45 310.29 108.61 308.75 109.37 308.04 110.25 308.49 113.32 311.56 113.75 311.92 113.45 313.15 111.76 313.57 111.27 314.19 110.62 314.63 110.17 314.83 109.94 315.07 108.03 313.26 107.23"/><polygon class="cls-9" points="315.64 77.91 314.37 77.53 313.5 77.32 313.04 77.17 312.93 77.12 310.95 76.84 309.37 78.05 309.1 80.05 310.34 81.59 313.47 82.5 315.63 82.18 317.21 80.05 315.64 77.91"/><polygon class="cls-1" points="240.04 186.43 238.65 184.12 237.81 181.5 235.99 179.46 234.68 177.08 233.09 174.9 231.02 173.12 229.35 171 227.26 169.29 225.25 167.5 223.25 165.66 220.76 164.52 218.47 163.13 216.09 161.89 213.72 160.61 211.3 159.42 208.84 158.29 206.15 157.86 203.63 156.84 200.89 156.78 198.29 155.97 195.58 156.01 192.9 155.52 190.19 155.51 187.51 155.95 184.84 156.27 182.2 156.8 179.54 157.26 176.96 158.06 174.46 159.06 172.02 160.19 169.45 161.13 167.08 162.49 164.78 163.96 162.53 165.5 160.46 167.29 158.47 169.15 156.51 171.03 154.7 173.07 152.64 174.89 151.12 177.17 149.71 179.5 147.9 181.58 146.63 184 145.58 186.52 144.5 189.04 143.88 191.71 143.78 194.47 142.78 197.13 142.63 199.94 141.94 202.71 142.47 205.51 142.35 208.36 143.07 211.1 143.94 213.78 144.73 216.5 146.05 219 147.21 221.57 148.72 223.95 150.16 226.39 152.11 228.34 153.88 230.43 155.9 232.29 157.9 234.17 160.07 235.85 162.3 237.46 164.64 238.91 167.17 240 169.66 241.13 172.28 241.95 174.73 243.23 177.48 243.56 180.06 244.54 182.81 244.7 185.51 245.15 188.25 245.06 190.99 245.4 193.68 244.81 196.37 244.42 199.05 243.91 201.65 243.12 204.22 242.37 206.66 241.28 209.14 240.26 211.51 239.03 214.03 238.1 216.39 236.83 218.73 235.52 221.06 234.18 223.07 232.37 225.19 230.74 227.36 229.16 229.43 227.45 231.34 225.58 233.22 223.66 234.97 221.62 236.66 219.53 237.95 217.16 239.16 214.78 240.68 212.53 241.38 209.92 242.07 207.34 242.44 204.7 242.82 202.07 243.07 199.4 242.69 196.75 242.17 194.14 242 191.43 241.15 188.88 240.04 186.43"/><polygon class="cls-9" points="205.81 194 204.68 191.67 203.13 189.59 201.1 187.98 198.89 187.01 196.6 184.92 193.79 183.62 190.78 183 187.84 183.26 185.13 184.47 182.81 186.31 180.95 188.6 179.34 191.07 178.21 193.67 177.63 196.44 177.68 199.27 178.32 202.01 179.56 204.56 181.28 206.51 183.26 208.2 185.53 209.48 187.95 210.47 190.52 210.92 193.13 210.98 195.7 210.59 198.17 209.76 200.43 208.46 202.3 206.64 203.6 205.8 205.26 203.85 206.32 201.53 206.78 199.01 206.64 196.44 205.81 194"/><polygon class="cls-9" points="176.15 199.95 175.35 198.02 173.44 197.21 171.52 197.99 170.72 199.91 170.69 200.22 170.11 202.5 171.34 204.32 172.3 204.8 174.46 204.53 176.11 201.42 176.15 199.95"/><polygon class="cls-9" points="178.33 189.31 176.75 187.53 174.38 187.7 172.78 190.73 172.5 193.13 173.86 195.09 176.2 194.67 177.39 192.8 178.33 189.31"/><polygon class="cls-9" points="185.3 181.09 183.11 178.84 180.99 179.37 179.52 180.98 177.75 183.79 179.53 186.89 182.62 185.12 182.79 184.92 183.08 184.61 183.26 184.45 184.36 183.64 185.3 181.09"/><polygon class="cls-9" points="196.87 179.3 193.64 177.47 193.16 177.26 193.06 177.21 192.77 177.18 190.8 176.39 188.88 177.22 188.09 179.16 188.9 181.09 191.89 182.7 193.88 183.39 195.89 182.99 197.11 181.33 196.87 179.3"/><polygon class="cls-9" points="203.82 183.95 202.32 181.69 200.99 180.66 199.46 180.47 197.88 182.38 198.11 184.14 199.38 186.53 202.6 186.92 203.82 183.95"/><polygon class="cls-9" points="208.83 188.31 208.73 187.91 208.74 187.84 208.72 187.72 208.52 186.28 206.31 184.57 204.06 186.27 204.02 189.17 206.66 191.74 208.67 190.56 208.83 188.31"/><polygon class="cls-9" points="179.6 210.02 179.17 209.06 179.01 208.71 179.01 208.68 178.99 208.67 179 208.65 176.82 206.46 174.63 208.62 175.18 210.9 176.82 212.71 179.66 211.07 179.6 210.02"/><polygon class="cls-9" points="185.52 213.56 185.42 213.14 184.78 212.11 183.99 211.66 183.23 211.62 182.11 212.02 181.7 213.12 182.24 214.69 183.23 215.3 183.66 215.39 185.13 215.02 185.52 213.56"/><polygon class="cls-9" points="195.54 213.57 195.33 213.41 195.02 213.15 193.26 212.22 191.11 213.85 191.34 215.85 192.24 216.7 192.89 217 194.85 216.79 195.55 216.25 196.1 214.94 195.54 213.57"/><polygon class="cls-9" points="207.24 214.25 205 212.98 203.54 213.59 203.54 213.6 202.38 214.07 202.27 214.21 201.97 216.48 204.61 217.43 205.63 216.91 206.27 216.38 206.4 216.31 207.24 214.25"/><polygon class="cls-9" points="208.73 204.01 208.16 204.22 207.2 205 207.17 205.05 207.12 205.16 206.91 206.18 206.89 206.24 206.93 206.35 206.92 206.49 206.95 206.52 207.15 207.08 207.17 207.11 207.25 207.23 207.3 207.31 207.46 207.48 207.47 207.5 207.5 207.51 207.89 207.79 209.52 207.92 210.69 206.77 210.9 206.2 208.73 204.01"/><polygon class="cls-9" points="210.17 195.72 208.41 197.51 210.15 199.32 211.89 197.52 210.17 195.72"/><polygon class="cls-1" points="320 222.64 319.87 219.92 319.22 217.29 318.45 214.69 317.5 212.15 316.38 209.68 314.91 207.4 313.22 205.28 311.22 203.47 309.11 201.81 306.71 200.59 304.25 199.45 301.63 198.75 298.91 198.62 296.16 198.64 293.44 198.92 290.73 199.29 288.04 199.77 285.34 200.32 282.81 201.41 280.09 201.65 277.48 202.51 274.81 203.09 272.31 204.22 269.76 205.21 267.25 206.31 264.84 207.62 262.57 209.14 260.36 210.76 258.14 212.35 255.82 213.83 253.83 215.72 252 217.76 250.61 220.1 249.18 222.34 248.75 224.95 248.42 227.53 248.14 230.15 248.22 232.78 248.57 235.39 249.31 237.93 249.97 240.48 251.22 242.81 252.22 245.23 253.48 247.53 254.91 249.73 256.43 251.89 258.22 253.83 260.43 255.29 262.53 256.89 265.07 258.01 267.63 259.06 270.21 260.09 272.88 260.82 275.6 261.38 278.3 262 281.07 262.12 283.83 262.02 286.59 262.12 289.31 261.63 292.02 261.11 294.78 260.72 297.38 259.75 299.86 258.5 302.35 257.31 304.79 256.02 307.21 254.88 309.4 253.35 311.61 251.84 313.6 250.05 315.19 247.9 316.84 245.82 318.13 243.51 319.26 241.1 320.09 238.56 320.49 235.92 320.91 233.27 320.86 230.6 320.5 227.94 320.39 225.28 320 222.64"/><polygon class="cls-9" points="301.83 226.2 299.26 226.22 298.35 227.38 298.44 224.71 297.6 222.16 295.77 220.16 296 220.27 297.15 220.57 298.39 220.35 299.33 219.5 299.51 218.25 299.49 218.16 299.68 217.84 297.18 215.4 295.47 216.14 294.71 217.81 294.81 218.12 294.74 218.2 295.08 219.48 295.65 220.12 294.21 219.2 293.51 218.9 290.04 218 291.04 217.1 291.27 215.27 289.89 213.68 287.81 213.79 287.51 213.73 285.63 214.81 285.3 216.74 286.4 218.12 283.23 218.17 280.73 218.82 278.45 220.04 276.38 221.56 274.47 223.3 273.04 225.44 271.95 227.76 271.75 230.32 271.9 232.88 272.57 235.15 274.02 237.02 275.7 238.69 277.94 239.92 280.4 240.68 282.96 240.75 285.52 240.58 287.99 239.9 290.37 238.87 292.53 237.43 294.39 235.62 296.05 233.6 297.19 231.26 298.2 228.05 298.53 229.36 301.51 229.29 301.67 228.91 301.87 228.81 301.83 226.2"/><polygon class="cls-9" points="269.5 227.99 268.58 226.42 266.76 226.41 265.19 228.52 265.15 228.68 265.04 228.74 265.06 232.07 268.1 232.47 269.34 230.68 269.5 227.99"/><polygon class="cls-9" points="273.17 221.31 272.09 219.44 269.92 219.43 268.59 220.94 267.93 222.16 268.93 224.84 269.97 225.12 269.8 225.1 271.09 225.04 272.55 223.16 272.53 222.99 273.17 221.31"/><polygon class="cls-9" points="270.75 235.25 268.66 233.11 266.55 235.22 266.68 237.62 268.64 239.09 270.6 237.62 270.75 235.25"/><polygon class="cls-9" points="273.49 239.25 271.74 241.03 273.47 242.83 275.22 241.04 273.49 239.25"/><polygon class="cls-9" points="283.28 243.79 283.28 243.77 282.83 243.14 280.77 242.59 279.8 243.15 279.24 244.09 279.26 245.27 280.26 246.57 281.98 246.79 282.74 246.46 283.31 246.01 283.28 243.79"/><polygon class="cls-9" points="294.12 241.17 292.07 240.8 290.99 241.01 290.86 241.09 289.86 242.8 289.98 243.47 290.2 244.03 290.96 244.77 292.04 245.07 293.17 244.76 294.4 243.4 294.12 241.17"/><polygon class="cls-9" points="299.65 234.67 298.15 234.03 296.59 234.67 296.11 235.51 295.98 235.68 295.92 235.82 295.61 236.87 295.69 237.44 296.25 238.41 297.22 238.95 298.39 238.95 299.44 238.35 299.84 237.83 300.16 237.06 300.3 236.21 299.65 234.67"/><polygon class="cls-9" points="280.25 215.41 279.42 214.6 277.7 214.39 277.69 214.36 277.43 214.43 277.64 214.4 277.61 214.41 277.71 214.4 276.05 215.17 275.92 215.32 275.8 215.37 275.73 215.38 274.23 216.58 273.97 218.47 277.03 220.25 278.36 219.74 279.25 219.41 280.67 217.02 280.25 215.41"/><polygon class="cls-10" points="237.88 142.88 237.27 140.37 236.27 137.99 235.21 135.65 234.01 133.37 232.75 131.13 231.26 129.02 229.95 126.45 228.74 123.85 228 121.06 227.05 118.35 225.87 115.72 225.02 113.06 222.36 114.63 220.11 117.01 218.04 118.46 215.54 118.91 213.04 119.11 210.44 119.51 207.81 119.41 205.19 119.38 202.59 119.73 200.07 120.4 197.49 120.92 195.23 122.25 192.88 123.57 190.84 125.33 188.83 127.11 186.98 129.06 185.38 131.22 183.88 133.45 182.46 135.74 181.38 138.2 180.61 140.78 180 143.38 179.6 146.02 179.34 148.7 179.61 151.37 180.06 154.02 180.2 154.35 182.78 153.53 185.39 152.62 188.11 152.13 190.85 151.79 193.62 151.72 196.39 151.67 199.13 152.16 201.88 152.41 204.64 152.66 207.34 153.22 207.5 152.44 207.98 148.98 208.65 146.64 209.15 144.23 210.08 141.96 211.1 139.64 212.44 137.48 213.81 135.34 215.47 133.42 217.06 131.46 218.62 129.45 219.09 129.72 217.66 132.21 216.23 134.69 215.09 137.33 213.94 139.95 212.67 142.53 212.02 144.81 211.33 147.06 210.55 149.28 209.85 152.81 209.81 153.83 210.13 154.01 212.63 154.65 215.03 155.6 217.46 156.46 219.69 157.77 221.92 159.06 224.14 160.38 226.19 161.95 228.38 163.34 230.36 165 232.27 166.74 234.2 168.36 235.28 166.04 236.09 163.54 236.85 161.04 237.55 158.51 237.87 155.91 238.43 153.34 238.29 150.71 238.26 148.1 238.19 145.48 237.88 142.88"/><polygon class="cls-11" points="143.27 227.01 140.76 227.72 138.19 228.31 135.56 228.62 132.98 229.16 130.35 229.36 127.74 229.78 125.1 229.9 122.51 229.73 119.93 229.53 117.35 229.31 114.76 229.13 111.96 228.19 109.15 227.32 106.72 225.68 106.91 225.12 109.44 226.01 112.02 226.84 114.69 227.21 117.39 227.28 120.07 227.32 122.77 227.39 125.47 227.27 128.11 226.75 130.77 226.45 133.45 226.2 136.04 225.47 138.74 225.23 141.32 224.49 139.96 222.07 139.07 219.45 138.34 216.77 137.84 214.05 137.36 211.32 136.7 208.6 134.75 208.77 132.46 208.55 130.15 208.49 127.86 208.07 125.04 207.95 122.23 208.3 119.45 208.81 116.81 209.84 114.49 211.08 112.11 212.21 109.91 213.66 107.55 214.84 105.4 216.36 103.31 217.96 101.07 219.35 98.94 220.9 96.9 222.56 94.63 224.06 95.98 226.5 97.57 228.7 99.19 230.88 101.11 232.79 102.75 234.96 104.77 236.78 106.98 238.34 109.12 240 111.48 241.32 114.03 242.22 116.67 243.33 119.49 243.82 122.34 243.88 125.18 244.03 128.02 244.06 130.86 243.85 133.53 243.75 136.2 243.67 138.87 243.48 141.55 243.48 144.2 243.09 146.86 242.7 149.47 242.09 152.03 241.23 154.43 240.01 156.29 238.28 154.01 236.69 151.6 235.07 149.42 233.15 147.18 231.28 145.27 229.09 143.27 227.01"/><polygon class="cls-12" points="250.29 259.5 249.67 256.79 248.85 254.13 248.14 251.43 246.97 248.9 245.49 246.53 243.67 244.43 241.55 242.65 239.08 241.42 236.4 240.57 235.63 243.29 234.81 245.78 234.27 248.35 234.11 250.97 233.87 253.57 233.51 256.18 233.72 258.93 233.65 261.68 234 264.4 233.95 267.16 234.29 269.88 234.5 273.1 234.88 276.29 234.99 279.53 235.23 282.31 234.59 282.32 233.83 279.06 233.3 275.84 232.81 272.52 232.49 269.18 232.11 266.39 231.93 263.57 231.45 260.78 231.51 257.95 231.41 255.13 231.37 252.54 231.52 249.95 231.92 247.38 232.25 244.81 233.02 242.33 233.63 239.86 231.45 241.4 229.51 243.29 227.53 245.17 226.13 247.51 224.54 249.7 223.23 252.08 222.19 254.6 221.62 257.26 221.16 259.92 220.91 262.62 221.03 265.34 221.69 268.06 222.55 270.72 223.48 273.36 224.43 276 225.89 278.4 226.95 281 228.5 283.34 229.91 285.76 231.12 288.29 232.66 290.63 233.92 293.17 235.97 291.5 238.03 289.89 240.2 288.44 242.46 287.12 244.46 285.43 246.56 283.88 248.26 281.9 249.68 279.72 250.56 277.31 251.22 274.83 251.39 272.27 251.61 269.7 251.47 267.13 251.09 264.57 250.59 262.05 250.29 259.5"/><polygon class="cls-13" points="338.83 30.55 337.9 28.07 337.11 25.56 336.24 23.07 334.99 20.76 333.87 18.36 332.46 16.13 330.71 14.15 329.02 12.12 326.81 10.49 324.65 8.8 322.45 7.14 320.59 5.12 319.41 2.64 319.35 0 317.64 2.02 315.93 4.19 314.07 6.26 312.71 8.69 310.99 10.87 309.6 13.27 308.17 15.65 306.91 18.11 305.37 20.42 304.07 22.92 302.85 25.43 301.9 28.06 301.33 30.78 301.19 33.57 301.42 36.35 301.89 39.13 302.36 41.92 303.39 44.55 304.46 47.16 306.9 48.56 306.24 50.06 308.82 49.86 311.31 49.91 313.76 49.59 316.23 49.33 318.61 49.29 318.05 46.49 317.56 43.6 316.94 40.73 316.72 37.8 316.87 34.87 316.99 32.29 316.9 29.7 317.27 27.14 317.65 24.59 317.75 22 317.96 19.42 318.27 16.86 318.78 16.88 318.72 19.39 318.9 21.91 318.9 24.41 318.91 26.92 318.9 29.43 319.02 31.94 319.46 34.42 319.71 37.31 319.93 40.2 320.06 43.09 320.72 46.3 321.41 49.51 323.77 49.8 326.24 50.66 328.58 51.83 330.71 53.33 332.9 54.74 335.17 56.01 337.64 56.68 338.54 54.23 339.3 51.68 339.69 49.04 339.79 46.38 339.92 43.74 340.21 41.08 340.07 38.42 339.81 35.78 339.16 33.19 338.83 30.55"/><polygon class="cls-14" points="35.19 253.05 33.96 250.9 31.85 249.59 28.92 249.53 25.9 249.98 23.29 251.15 20.84 252.63 18.97 254.21 17.22 255.93 15.22 257.36 13.3 258.88 11.12 260.01 10.43 259.09 12.35 257.23 14.21 255.3 16.19 253.5 18.11 251.65 20.15 249.92 22.89 248.43 25.75 247.19 27.79 246.89 25.73 244.32 23.11 242.4 20.34 241.72 17.5 241.7 14.75 242.31 12.18 243.43 10.08 245.18 8.31 247.26 6.77 249.54 5.64 252.05 4.64 254.61 3.62 257.16 2.64 259.74 1.46 262.21 0 264.66 2.83 264.2 5.6 264.46 8.29 265.13 10.92 266.02 13.51 267.01 16.18 267.75 18.89 268.31 21.63 268.12 24.29 267.44 26.81 266.32 29.16 264.87 31.2 263.02 33.16 260.97 34.51 258.49 35.42 255.83 35.19 253.05"/></g></g></svg>