<svg xmlns="http://www.w3.org/2000/svg" viewBox="0 0 108.03 26.21"><defs><style>.cls-1{fill:#c42c2c;}.cls-2{fill:#f2f7d9;}</style></defs><title>label_舞生装束</title><g id="图层_2" data-name="图层 2"><g id="图层_1-2" data-name="图层 1"><rect class="cls-1" width="108.03" height="26.21" rx="7.41"/><path class="cls-2" d="M29.75,9.83s-.09,0-.16.1a.74.74,0,0,0-.16.11c-.21.11-.33.12-.37.05s0-.09.16-.26a4.32,4.32,0,0,0,.84-1.06,6.69,6.69,0,0,0,1-2.37,3.52,3.52,0,0,1,.52.21l.32.16c.42.21.63.37.63.47s-.15.21-.47.32a4.05,4.05,0,0,1-.48.63,1.49,1.49,0,0,1-.15.21c.21,0,.68,0,1.42-.05,1.51-.07,2.53-.12,3.06-.16a1.29,1.29,0,0,0,.16-.31,4.6,4.6,0,0,1,.37-.58A9,9,0,0,1,37.61,8c.21.11.3.22.26.32s-.19.18-.58.21L36,8.62c-1.45,0-3.12.07-5,.21a7.57,7.57,0,0,1-.58.52,3,3,0,0,1,.64.11c.31.07.47.18.47.32a1.07,1.07,0,0,1-.21.31v.37l.69-.05A6.25,6.25,0,0,0,31.86,9a2.38,2.38,0,0,1,.79.22c.35.1.54.19.58.26s-.11.23-.32.37l.06.53h.73V8.83l.8.26c.35.14.52.26.52.37s0,.09-.1.16l-.11.05-.1.11v.15a1.48,1.48,0,0,0-.06.37l.74-.05a2.19,2.19,0,0,0,.06-.58,1.75,1.75,0,0,0,0-.47,4.08,4.08,0,0,0,0-.48l.48.21.36.16.27.16.1.05c.11,0,.14.09.11.16s-.07.18-.32.32a2,2,0,0,0,0,.42l.53,0a3,3,0,0,1,.58-.85,8.2,8.2,0,0,1,.79.63c.32.22.44.37.37.48s-.18.14-.53.1h-.63a6.34,6.34,0,0,1-.69.06h-.53a9.74,9.74,0,0,1-.1,1,5.56,5.56,0,0,1-.11.58l1.48-.1a5.23,5.23,0,0,1,.58-.9l.48.42a3,3,0,0,1,.42.32c.28.18.38.31.31.42s-.1.12-.31.16h-.48a4.56,4.56,0,0,0-1,0l-1.64.1a.83.83,0,0,1,.27.06.68.68,0,0,1,.26.1c.32.07.47.16.47.27s-.12.21-.36.31v.37l.58-.05c.14-.28.28-.55.42-.79,0,0,.07,0,.1.1.32.21.58.37.79.48s.39.31.32.42-.18.16-.53.16H37l-.42,0v1.69h.63l.68-1a1.65,1.65,0,0,1,.32.21l.58.47c.28.25.41.43.37.53s-.21.16-.53.16H37.4a7.24,7.24,0,0,1-.74.05c0,.32,0,.85.05,1.58a1.51,1.51,0,0,1-.21.85l-.42.26a.8.8,0,0,1-.53.11.21.21,0,0,1-.21-.16v-.74c0-.35,0-.63,0-.84l.06-1-.8.06-.21.26c-.17.18-.28.26-.31.26a1.93,1.93,0,0,1-.9-.68.76.76,0,0,1,.32-.26,5.65,5.65,0,0,0,.21-1.53,1.61,1.61,0,0,0,.31.1l.53.21c.28.11.41.21.37.32s-.1.19-.32.26a3,3,0,0,1-.1.64l.9-.06V14.15l-.9.06h-.16l-.9.1-.21-.47c.42,0,.85,0,1.27-.06h.9a6.86,6.86,0,0,0-.06-1.16l-4.32.22s.07,0,.1.1a2,2,0,0,0,.42.21c.22.14.32.27.32.37s-.16.19-.47.26a5,5,0,0,1-.48.53L32,14.26l.26-.32.11-.16a.37.37,0,0,0,.15.11c.07,0,.29.18.64.42s.3.32.26.42-.1.16-.42.27a7.22,7.22,0,0,1-5,3.85c-.21.07-.33.07-.37,0s0-.16.26-.27a7.64,7.64,0,0,0,2.69-1.95c-.31.07-.52-.08-.63-.47a1.57,1.57,0,0,0-.26-.69,4.9,4.9,0,0,1-1.48.85.79.79,0,0,1-.32.1c0-.1,0-.21.22-.31a8.2,8.2,0,0,0,2.37-3.22l-.9,0-1.47.16L28,12.57c.39,0,.95,0,1.69-.05h1c0-.35-.08-.9-.15-1.64l-.58.06a3.38,3.38,0,0,0-.58.1.68.68,0,0,0-.27.05l-.26-.58h1.63a.72.72,0,0,1-.05-.36,2,2,0,0,1-.1-.43.73.73,0,0,1-.06-.26ZM32,14.63l-1.37.1a6,6,0,0,1-.58.53,1.77,1.77,0,0,1,.74.27.63.63,0,0,1,.32.63A4.86,4.86,0,0,0,32,14.63Zm.21-2.22c0-.17,0-.54-.05-1.1a4.08,4.08,0,0,1,0-.48h-.69a1.15,1.15,0,0,1,.06.53c0,.42.07.79.1,1.11Zm1.53-1.68-.73,0a4.92,4.92,0,0,1,.05.79c0,.35,0,.62,0,.79h.58C33.69,11.69,33.7,11.15,33.7,10.73Zm1.64-.11-.69.05v.53c0,.46,0,.83,0,1.11l.53-.06a1.87,1.87,0,0,1,0-.31A12.32,12.32,0,0,0,35.34,10.62Z"/><path class="cls-2" d="M53.27,17.42c0,.11-.19.16-.58.16H51q-3.9.06-7.64.42a3.94,3.94,0,0,0-.64.11c-.42,0-.77.07-1.05.11a4.14,4.14,0,0,1-.37-.69l1.26-.05a7.69,7.69,0,0,1,.8-.06c.94-.07,2-.12,3.16-.15V14.1l-.9.05c-.7.08-1.28.13-1.74.16-.1-.21-.19-.4-.26-.58.39,0,.93,0,1.63-.05.32,0,.74,0,1.27,0V11.25l-2.11.11a14.15,14.15,0,0,1-.9,1.32,10.44,10.44,0,0,1-1.16,1.1.61.61,0,0,1-.37.16l0,0c0-.07.07-.18.21-.32a11.23,11.23,0,0,0,.95-1.9c.14-.38.32-.93.53-1.63a1.33,1.33,0,0,0,0-.21c0-.07,0-.25.05-.53s.13-.72.16-1l.42.21c.32.18.58.33.8.47s.52.37.52.48-.23.26-.58.37c-.07.21-.21.54-.42,1h.9c.42,0,.75-.05,1-.05V8.72a3.53,3.53,0,0,1,0-.84A7.94,7.94,0,0,1,46.36,7,8.54,8.54,0,0,1,48,7.4a.72.72,0,0,1,.47.32c0,.1-.1.23-.31.37s-.16.05-.27.16v2.42l1.48-.05.74-1a11.74,11.74,0,0,0,1.16.84c.24.18.37.32.37.42s-.16.16-.37.16h-.64c-.42,0-.77.05-1,.05a4.24,4.24,0,0,1-.84.06c-.39,0-.67,0-.85,0v2.37a2.58,2.58,0,0,0,.48-.05h.47a5,5,0,0,1,.42-.68,2.08,2.08,0,0,1,.27-.37c.07.07.22.21.47.42a3.24,3.24,0,0,1,.48.37,1.65,1.65,0,0,1,.42.47q0,.21-.27.21h-.42c-.52,0-1.3.06-2.32.06v3.21l3-.15.63-.95c-.25.38-.2.31.16-.21l.52.36.74.58C53.17,17.13,53.31,17.32,53.27,17.42Z"/><path class="cls-2" d="M66.15,13.78c0,.11-.14.16-.32.16a3.69,3.69,0,0,0-.84,0h-.8l-3.95.16c.45.25.68.42.68.53s-.17.16-.52.16a3.24,3.24,0,0,1-1,.63v1.69l1.53-.42c.39-.11.58-.13.58-.06a.59.59,0,0,1-.36.37,17.57,17.57,0,0,0-2.38,1.58.14.14,0,0,0-.1.06l-.27.16c-.1,0-.28-.16-.53-.48a3.67,3.67,0,0,1-.42-.68c.53-.18.79-.46.79-.85V16a12,12,0,0,1-1.68.58,1.86,1.86,0,0,0-.27.11,13,13,0,0,1-1.84.37c-.22,0-.34,0-.37-.06s.12-.19.37-.26A21.4,21.4,0,0,0,58,15.1a9.79,9.79,0,0,0,1.22-.95l-2.17.16c-.35,0-.89,0-1.63.11.53-.07.47-.07-.16,0L55,13.84H57a10.69,10.69,0,0,1,1.42-.06c.63,0,1.13,0,1.48,0l1.32-.1L64,13.52a6.21,6.21,0,0,1,.63-.95,9.14,9.14,0,0,1,1.21.85l.16.15A.68.68,0,0,1,66.15,13.78ZM59.66,7.51q0,.21-.42.42V10c0,.17,0,.45,0,.84v1.06a.65.65,0,0,1-.37.63.86.86,0,0,1-.48.21.74.74,0,0,1-.42,0c-.07,0-.1-.16-.1-.37.07-.84.1-1.44.1-1.79a.29.29,0,0,0-.16.1.48.48,0,0,0-.15.11q-.54.32-1.32.84a.69.69,0,0,0-.32.32.52.52,0,0,1-.21.21l0,0a1.08,1.08,0,0,1-.42-.21l-.85-.84,1.21-.32.43-.16c.7-.21,1.31-.42,1.84-.63,0-.74.06-1.42.06-2.06V7.72A6.9,6.9,0,0,1,58,6.87l1.11.32C59.45,7.3,59.62,7.4,59.66,7.51Zm-2,1.69a.76.76,0,0,1-.21.42.65.65,0,0,1-.47.16.61.61,0,0,1-.42-.21,1.59,1.59,0,0,1-.16-.48c.07.25,0,.19-.06-.16l-.15-.31-.11-.11a.33.33,0,0,0-.21-.16c-.07-.07-.11-.12-.11-.16s.22-.12.53,0c.63.07,1,.26,1.21.58A.75.75,0,0,1,57.65,9.2Zm3.64,3.58a.69.69,0,0,1-.63.85.58.58,0,0,1-.47-.27,2.92,2.92,0,0,1-.16-.42,1.16,1.16,0,0,0-.37-.63q-.27-.17-.21-.21t.42-.06l.26.06.64.15A.81.81,0,0,1,61.29,12.78Zm5-3.32c0,.07-.14.11-.42.11H64.3a3.17,3.17,0,0,1-.63,0,5.41,5.41,0,0,1-.58.05v1.69h.47a3.66,3.66,0,0,1,.37-.63,2,2,0,0,0,.21-.32L65,11c.35.28.52.47.52.58s-.14.16-.42.16H63c-.53,0-1,0-1.32,0s-.65.09-1.32.16l-.26-.53c.18,0,.44,0,.79.05h.53a1.07,1.07,0,0,0,.37-.05V9.72l-.53.06a12.28,12.28,0,0,0-1.42.15l-.21-.58h1.53a4.46,4.46,0,0,1,.63,0l0-.9V8.25c0-.53-.07-1.06-.1-1.59A8,8,0,0,1,62.88,7a.85.85,0,0,1,.42.16q.21,0,.21.21c0,.1-.11.25-.42.42V9.25c.45,0,.84-.05,1.16-.05l.58-.95a.12.12,0,0,1,.1.05A6.26,6.26,0,0,1,66,9.09C66.25,9.23,66.32,9.35,66.25,9.46Zm.69,7.75c0,.11-.11.18-.32.21a1,1,0,0,1-.37.16,3.85,3.85,0,0,0-.58.32.74.74,0,0,0-.16.1l-.1.11s-.06.09-.16.16a.49.49,0,0,1-.32.16,2.63,2.63,0,0,1-1-.43,1.51,1.51,0,0,1-.26-.15,6,6,0,0,1-.69-.48,6.11,6.11,0,0,1-1-.89,7,7,0,0,1-.74-1,1.4,1.4,0,0,0-.16-.22C61,15.14,61,15,61,15s.12,0,.26.1.25.18.43.32l.63.48a.3.3,0,0,1,.21-.16,8.35,8.35,0,0,0,1.21-1.43,3.77,3.77,0,0,1,.69.58c.28.25.38.42.31.53s-.19.14-.47.11l-1,.37-.53.21.42.15a4.74,4.74,0,0,0,.58.22,17.5,17.5,0,0,0,2.43.58h.42C66.83,17.09,66.94,17.14,66.94,17.21Z"/><path class="cls-2" d="M80.55,16.53c0,.1-.11.17-.32.21a4.82,4.82,0,0,0-1.27.47l-.73.43a1.67,1.67,0,0,1-.9-.48,9,9,0,0,1-1.48-1.37,15.72,15.72,0,0,1-1.32-2.11V14c0,.49.06.93.06,1.31a8.18,8.18,0,0,1,0,1.11c0,.46,0,.83,0,1.11a1.16,1.16,0,0,1-.21.74,1.81,1.81,0,0,1-.37.37c.14-.11.11-.09-.1.05a.71.71,0,0,1-.48.11,1.86,1.86,0,0,1-.16-.27v-.79q.06-.69.06-1.26c0-.36,0-1,0-1.8a13.72,13.72,0,0,1-5.12,3.48q-.31.21-.42.06s.07-.14.32-.32a15.87,15.87,0,0,0,4.85-4.54L72,13.42a1,1,0,0,1-.21.63,1.29,1.29,0,0,1-.84.47c-.11,0-.16-.12-.16-.26V12.31c0-.07,0-.23-.05-.48a3.9,3.9,0,0,1-.06-.63c0-.11,0-.28-.05-.53a2,2,0,0,0,0-.52,1.61,1.61,0,0,0,.31.1,5.82,5.82,0,0,1,.79.32.88.88,0,0,1,.48.26l1.27-.1V9.25c-.74,0-1.48.09-2.22.16l-1.48.16L69.42,9H71l2.43-.15a2.39,2.39,0,0,0-.06-.53V7.93c0-.32,0-.74-.05-1.27a4.09,4.09,0,0,0,.42.11c.21.07.48.18.79.32s.53.24.53.42-.16.24-.47.42v.84l1.79,0,.74-1.11c.28.21.56.41.84.58.46.36.69.6.69.74s-.18.16-.53.16l-1.74.05c-.56,0-1.16,0-1.79.06v1.47l1.58-.05.53-.69.89.58c.21.22.32.36.32.43a.42.42,0,0,1-.21.31l-.11.06a.34.34,0,0,0-.16,0l-.1,1.21.16.11c.21.17.3.31.26.42s-.1.1-.21.1-.3,0-.26,0a8.09,8.09,0,0,1-1.06,0h-.53a9.42,9.42,0,0,1-1,.06,6.27,6.27,0,0,0,1.53,1.42,10.59,10.59,0,0,0,2,1,14.89,14.89,0,0,0,2,.64C80.44,16.39,80.55,16.46,80.55,16.53Zm-7.12-3.64V11.2l-1.53.05c0,.21,0,.79.1,1.74ZM76.17,11l-1.27.05a1.24,1.24,0,0,1-.31.06v1.69L76,12.78A16.89,16.89,0,0,0,76.17,11Z"/><path class="cls-2" d="M99.64,23.45H9.18a4.83,4.83,0,0,1-4.82-4.83V7.2A4.83,4.83,0,0,1,9.18,2.37H99.64a4.84,4.84,0,0,1,4.83,4.83V18.62A4.84,4.84,0,0,1,99.64,23.45ZM9.18,3.19a4,4,0,0,0-4,4V18.62a4,4,0,0,0,4,4H99.64a4,4,0,0,0,4-4V7.2a4,4,0,0,0-4-4Z"/></g></g></svg>