<svg xmlns="http://www.w3.org/2000/svg" viewBox="0 0 225 45.16"><defs><style>.cls-1{fill:#f2f7d9;}.cls-2{fill:#c42c2c;}</style></defs><title>label_浏阳文庙正视图</title><g id="图层_2" data-name="图层 2"><g id="图层_1-2" data-name="图层 1"><rect class="cls-1" width="225" height="45.16" rx="6.55"/><path class="cls-2" d="M215.17,38.37H9.21a4.5,4.5,0,0,1-4.49-4.49V10.8A4.5,4.5,0,0,1,9.21,6.31h206a4.49,4.49,0,0,1,4.49,4.49V33.88A4.49,4.49,0,0,1,215.17,38.37Zm-206-31A3.44,3.44,0,0,0,5.78,10.8V33.88a3.44,3.44,0,0,0,3.43,3.43h206a3.44,3.44,0,0,0,3.43-3.43V10.8a3.44,3.44,0,0,0-3.43-3.43Z"/><path class="cls-2" d="M35.43,19.42a1.61,1.61,0,0,1-.3.9.92.92,0,0,1-.75.37.77.77,0,0,1-.83-.67.21.21,0,0,0-.07-.15,2.73,2.73,0,0,0-1-1.5.44.44,0,0,1-.22-.38c0-.15.3-.17.9-.07a3.45,3.45,0,0,1,1.42.37A1.26,1.26,0,0,1,35.43,19.42Zm1.5-.75q-.37,1.42-1.27,5.55c-.31,1.45-.56,2.6-.76,3.45A7.49,7.49,0,0,1,34.68,29a1.33,1.33,0,0,0-.08.3.49.49,0,0,1-.22.23c-.15.05-.43-.15-.83-.6a1.61,1.61,0,0,0-.3-.38q-.37-.45-.6-.75c.15-.25.48-.83,1-1.73.75-1.65,1.7-4.17,2.85-7.58.15-.25.28-.37.38-.37S37,18.27,36.93,18.67Zm-.22-3.38a1.61,1.61,0,0,1-.3.9.93.93,0,0,1-.83.3c-.45,0-.73-.27-.83-.83a4.28,4.28,0,0,0-.52-1.2.81.81,0,0,1-.15-.3l-.23-.22a.77.77,0,0,1-.15-.3c0-.1.28-.13.68-.08a1.33,1.33,0,0,0,.3.08C36,13.94,36.71,14.49,36.71,15.29Zm5,8.86a3,3,0,0,1,.37,1.72,1,1,0,0,1-.6,1.05c-.6.2-1-.12-1.2-1-.05-.2-.13-.48-.23-.83s-.27-.8-.37-1.05a13.66,13.66,0,0,1-3.83,4.36c-.2.1-.33.1-.37,0s0-.15.15-.31a.26.26,0,0,0,.07-.14A19.62,19.62,0,0,0,39,22.35a24.09,24.09,0,0,0-1.73-2.41c-.25-.3-.32-.47-.22-.52s.3-.08.6.07A9.48,9.48,0,0,1,39.33,21a2.26,2.26,0,0,0,.15-.52,2.13,2.13,0,0,0,.08-.45,10.48,10.48,0,0,0,.3-2.55,3.51,3.51,0,0,1-.9.07,3.56,3.56,0,0,1-.68.08,3,3,0,0,0-.52.07q-.67.07-1,.15l-.38-.75c.5,0,1.13,0,1.88-.07l2.4-.15.68-1.28a3,3,0,0,0,.37.3c.25.2.48.38.68.52l.22.23a.85.85,0,0,1,.3.3,2.27,2.27,0,0,1-.07-.67,3.4,3.4,0,0,1-.08-.61.62.62,0,0,1,.23.08,8.49,8.49,0,0,0,.9.3,2.81,2.81,0,0,0,.37.15,3,3,0,0,0,.38.15c.25.1.37.23.37.38s-.17.32-.52.52v1.28c0,1,0,1.95.07,2.85v1.28a1.89,1.89,0,0,1,0,.82.71.71,0,0,1-.3.6,1.8,1.8,0,0,1-.45.45c.2-.15.15-.12-.15.08s-.67.3-.82.15-.08-.23-.08-.68a8.31,8.31,0,0,1,.08-1v-.83c.05-.85.07-1.88.07-3.08v-2c0,.1-.27.15-.67.15-.25,0-.63,0-1.13.07a3.31,3.31,0,0,1-.6.08.81.81,0,0,0,.3.15l.45.22c.45.3.68.53.68.68s-.18.32-.53.52a13.31,13.31,0,0,1-.83,3.23A8.57,8.57,0,0,1,41.74,24.15ZM40.61,15a1.23,1.23,0,0,1-.9,1.28c-.6.1-.93-.23-1-1v-.15a2.35,2.35,0,0,0-.75-1.5c-.2-.15-.27-.28-.22-.38s.22-.07.52-.07C39.78,13.39,40.56,14,40.61,15Zm7.28-.9a.43.43,0,0,1-.15.45c-.05,0-.12.05-.22.15a.76.76,0,0,0-.23.15V18c.05,1.3.08,2.38.08,3.23,0,.45,0,1.05.07,1.8.05.9.08,1.8.08,2.7v2.4a2.15,2.15,0,0,1-.91,1.28q-.68.6-1,.45a1.85,1.85,0,0,1-.22-.52l-.15-.45v-.15a3,3,0,0,0-1-1c-.45-.3-.62-.47-.52-.53s.22-.19.52-.15a4.62,4.62,0,0,0,.9.08c.3.05.48,0,.53-.15a1.07,1.07,0,0,0,.15-.6V23.92l-.15-8.18c0-.55-.08-1.55-.08-3a15.57,15.57,0,0,0,1.5.6C47.67,13.64,47.94,13.89,47.89,14.09Z"/><path class="cls-2" d="M65.16,15.06c0,.15-.18.3-.53.45l-.6.08-.15.15a4.53,4.53,0,0,1-.68.83,7.06,7.06,0,0,0-.67,1.05.59.59,0,0,1-.08.22.32.32,0,0,0-.07.23c0,.1.1.22.3.37a.91.91,0,0,1,.15.23.47.47,0,0,1,.22.22,3.66,3.66,0,0,1,1.73,2.93,2.65,2.65,0,0,1-.45,1.5,2,2,0,0,1-.83.68,1.26,1.26,0,0,1-.6.22q-.23,0-.3-.45a.53.53,0,0,0-.07-.22l-.23-.45a1.82,1.82,0,0,0-.45-.6c-.35-.25-.52-.43-.52-.53s.22-.15.52-.15h.38q.45.08.45,0c.25,0,.37-.12.37-.38a2.53,2.53,0,0,0-.45-1.65,10.63,10.63,0,0,1-.67-1.12,3.29,3.29,0,0,1-.3-.6,6.36,6.36,0,0,1,.3-1.5l.45-1.81-1.65.15v8.41c.05,1.5.07,2.63.07,3.38A2.25,2.25,0,0,1,60,28.65c-.5.4-.86.55-1.06.45a1,1,0,0,1-.15-.67c.2-2.51.31-5,.31-7.44V15.81c0-.9,0-1.67-.08-2.32a3,3,0,0,0,.38.15c.15,0,.52.2,1.12.45a.74.74,0,0,0,.38.15l1.35-.08.9-1.05c.3.25.67.55,1.12.9a1.61,1.61,0,0,0,.38.3C65,14.66,65.2,14.91,65.16,15.06Zm8,.45c0,.26-.28.48-.68.68v4.35c0,2,.08,3.58.08,4.73,0,.2,0,.65.07,1.35a3.65,3.65,0,0,1-.07.91,1.16,1.16,0,0,1-.68.82,1.2,1.2,0,0,1-.67.3q-.31.15-.45,0c-.11,0-.16-.18-.16-.37v-.23c.05-.5.08-.95.08-1.35l-3.53.22a1.64,1.64,0,0,1-.15.75,2.08,2.08,0,0,1-.6.76,1.32,1.32,0,0,1-1,.37c-.11,0-.15-.07-.15-.22.1-1,.15-2.11.15-3.16,0-1.5.07-3.22.07-5.18,0-2.2,0-3.37-.07-3.52a22.61,22.61,0,0,0-.15-2.78.23.23,0,0,1,.15.07l.75.38a4.45,4.45,0,0,1,1.2.6l3.22-.23.76-1a4.15,4.15,0,0,0,.37.3c.3.2.55.37.75.52C73,15.06,73.19,15.36,73.19,15.51Zm-2.4,8.86V15.51l-3.68.15v4.88a8.5,8.5,0,0,0,1-.07h.45a8,8,0,0,0,1.5-.3,2.27,2.27,0,0,1,.37.75c0,.1-.27.15-.67.15s-.83,0-1.58.07a8.47,8.47,0,0,1-1.12.08v5l3.6-.23C70.76,25.22,70.79,24.67,70.79,24.37Z"/><path class="cls-2" d="M85.8,28.12a10.21,10.21,0,0,1-3.08.76c-.3.05-.48,0-.53-.08s.15-.27.46-.37a20.64,20.64,0,0,0,2.77-1.13A16.06,16.06,0,0,0,89,24.9l.37-.38a4,4,0,0,0,.68-.67,23.89,23.89,0,0,1-2.63-6h-.6a16.27,16.27,0,0,0-2.55.3l-.45-.9c1.35,0,2.27,0,2.77-.07L88,17.09c.91-.05,1.66-.07,2.26-.07l2.25-.15c.75-.05,1.6-.08,2.55-.08l1.2-1.65a14.13,14.13,0,0,1,2,1.35q.6.38.45.6c0,.2-.27.3-.82.3-.75,0-2,0-3.83.08q.08,0,.15.15c.5.3.85.52,1.05.67s.48.45.38.6-.33.38-.83.38a15,15,0,0,1-2.33,4.35c1.4,1.2,3.66,2.1,6.76,2.7a1.33,1.33,0,0,1,.3.08,5.12,5.12,0,0,1,.75.22.13.13,0,0,1,.15.15c0,.15-.15.26-.45.3a1.33,1.33,0,0,0-.3.08.82.82,0,0,0-.3.07,4.11,4.11,0,0,0-1.5.6l-.15.16a7.69,7.69,0,0,0-.83.6.81.81,0,0,1-.52.3,2.11,2.11,0,0,1-.83-.38,15.79,15.79,0,0,1-4.43-3.45A14.16,14.16,0,0,1,85.8,28.12Zm2.25-10.35a16.2,16.2,0,0,0,3.08,4.8,13.07,13.07,0,0,0,2.1-5.1c-.25,0-.65,0-1.2.07C90.33,17.59,89,17.67,88.05,17.77Zm4.2-3.23a1.81,1.81,0,0,1-.07,1.35,1.25,1.25,0,0,1-1.13.6,1.07,1.07,0,0,1-.9-.53,4.55,4.55,0,0,1-.22-.67c.1.3.07.2-.08-.3A2.2,2.2,0,0,0,89,13.56c-.3-.3-.41-.47-.3-.52s.34-.1.9,0a4.5,4.5,0,0,1,1.57.45A1.8,1.8,0,0,1,92.25,14.54Z"/><path class="cls-2" d="M124.46,16.27c0,.14-.26.22-.76.22s-1.1,0-2.25.08l-8,.45c0,1.5-.07,2.57-.07,3.22a13.79,13.79,0,0,1-.68,3.61,9,9,0,0,1-2.1,3.6,9.52,9.52,0,0,1-2.1,1.58.28.28,0,0,1-.38,0q-.07-.08.15-.3a.25.25,0,0,0,.08-.15,13.61,13.61,0,0,0,1.57-1.88A8.13,8.13,0,0,0,111,24.52a16.77,16.77,0,0,0,.67-5.25c0-1.05-.07-2.38-.22-4a6.28,6.28,0,0,1,1.28.52c.49.21.62.26.37.15.25.11.53.23.83.38l7.5-.38.9-1.57a7.29,7.29,0,0,1,1.58,1.12C124.33,15.81,124.5,16.07,124.46,16.27Zm-.15,4.65c0,.1-.08.22-.23.37a3.85,3.85,0,0,0-.38.23.21.21,0,0,1-.15.07c0,1.31,0,2.38.08,3.23,0,.5,0,1.15.07,1.95v.9a3.43,3.43,0,0,1-.15.91.53.53,0,0,0-.07.22,1.61,1.61,0,0,1-.9.53.21.21,0,0,1-.15.07.62.62,0,0,1-.23.08.43.43,0,0,1-.3-.08v-.07a.56.56,0,0,1-.07-.23v-.37a9.89,9.89,0,0,1,.07-1.06l-6.23.38a1.47,1.47,0,0,1-.75,1.35c-.3.25-.55.33-.75.23s-.15-.1-.15-.3V25.5c0-1.95,0-3.25-.07-3.91,0-.39,0-1-.08-1.87l.68.22a.81.81,0,0,1,.3.15c.05,0,.12.05.22.15a7.52,7.52,0,0,1,.9.45l1.88-.07V18.07c0-.55-.08-.93-.08-1.13.61.15,1.13.3,1.58.45s.68.38.68.53-.18.35-.53.6v1.95l2.25-.08.75-1.12a2.07,2.07,0,0,1,.45.37,4.63,4.63,0,0,1,.68.53C124.08,20.47,124.31,20.72,124.31,20.92ZM115.9,23.7a18.7,18.7,0,0,1,1.95-.08v-2.4a5.67,5.67,0,0,1-1.13.07c-.55.05-1,.08-1.2.08,0,.7,0,2.33.15,4.88v1.2l2.18-.15V24.22c-.4,0-.95,0-1.65.08l-.23-.45A.21.21,0,0,1,115.9,23.7ZM119,14a1.3,1.3,0,0,1-.08,1.13,1.15,1.15,0,0,1-1,.52.83.83,0,0,1-.82-.45L117,15c0-.2-.1-.38-.15-.53a2.12,2.12,0,0,0-.75-1.27c-.3-.15-.42-.28-.37-.38s.25-.12.6-.07C118,12.84,118.83,13.26,119,14Zm2.92,7a5.93,5.93,0,0,1-1.2.08c-.5.05-.9.07-1.2.07v2.33c.65-.1,1.23-.17,1.73-.22a1.55,1.55,0,0,1,.3.6c0,.1-.18.15-.53.15h-.52a8.11,8.11,0,0,1-1,.07v3.15l2.4-.15V21Z"/><path class="cls-2" d="M150.5,27.22c-.1.15-.35.23-.75.23h-2.63l-9.68.53a25.32,25.32,0,0,0-3.08.22,2.36,2.36,0,0,1-.3-.83,26.6,26.6,0,0,0,3.31-.07h.3V24.22c0-.75,0-1.8-.08-3.15v-2.7a.56.56,0,0,1,.23.07l1.57.68c.4.15.6.32.6.52s-.2.4-.6.6v7l2.18-.07V17.77c0-.25,0-.65-.08-1.2V15.51l-3.22.15-2.26.23-.45-.83h2.71l4.95-.3c1.05,0,1.88,0,2.48-.07l1.05-1.58q.6.38,1.65,1.2c.4.3.55.56.45.75s-.27.15-.67.15a21.91,21.91,0,0,0-2.48.08l-3.23.15a2.43,2.43,0,0,1,.83.3,1.1,1.1,0,0,1,.52.22c.2.11.3.23.3.38s-.07.2-.22.3a1.18,1.18,0,0,1-.45.3v3.45a4.31,4.31,0,0,0,.67-.07,9.23,9.23,0,0,1,1.13-.08,8.43,8.43,0,0,0,1-1.65,5.16,5.16,0,0,1,.9.68,8.42,8.42,0,0,0,.68.52c.35.3.53.53.53.68s-.26.3-.76.3-1.2,0-2.1.07c-.2,0-.65,0-1.35.08a4.31,4.31,0,0,1-.67.07v6c.4,0,1,0,1.72-.08a14.12,14.12,0,0,0,1.73-.07,6.14,6.14,0,0,0,.37-.53q.45-.83.75-1.35a24.49,24.49,0,0,1,2,1.5C150.33,26.87,150.5,27.12,150.5,27.22Z"/><path class="cls-2" d="M166.12,17.47c0,.2-.16.37-.46.52a.29.29,0,0,1-.22.08.56.56,0,0,1-.23.07,8.63,8.63,0,0,1-1.12,1.65V21A2.31,2.31,0,0,1,166,22c.35.85.12,1.38-.68,1.58-.3-.05-.52-.38-.67-1a1.85,1.85,0,0,0-.6-1l.07,2V24.9a8.24,8.24,0,0,0,.08.9v.52a4.8,4.8,0,0,1-.08.75v.23a3,3,0,0,1-.75,1.05c-.35.4-.62.55-.82.45s-.23-.1-.23-.3v-.45a17.2,17.2,0,0,0,.15-2.1c.05-.65.08-1.45.08-2.4s.07-1.48.07-2a12.57,12.57,0,0,1-3.3,2.7c-.35.2-.55.23-.6.08s.15-.3.45-.6a15.63,15.63,0,0,0,4.58-6.38.56.56,0,0,0-.23.07c-.3.05-.95.13-1.95.23a2.45,2.45,0,0,0-.6.15l-.82.15a.59.59,0,0,1-.15-.3l-.31-.6h.61a8.31,8.31,0,0,1,1-.08c.45-.05,1.33-.12,2.63-.22a2.07,2.07,0,0,1,.37-.45c.15-.2.28-.35.38-.46a2.9,2.9,0,0,1,.52.53l.3.3C166,17,166.16,17.32,166.12,17.47Zm-1.66-3.31a1.69,1.69,0,0,1,.08.53,1.28,1.28,0,0,1-.3.82.88.88,0,0,1-.75.45q-.68,0-.9-.9a2.51,2.51,0,0,0-.45-1.42.62.62,0,0,0-.08-.23q.08.15-.15-.15a.47.47,0,0,1-.22-.22q0-.22.6-.15a6.8,6.8,0,0,1,1.2.37A1.9,1.9,0,0,1,164.46,14.16ZM171.75,17c0,.15-.18.32-.53.52a23.07,23.07,0,0,1-.38,5.26,2.36,2.36,0,0,1,.83.3q.75.22.75.45c0,.15-.15.32-.45.52v2.7c0,.2.05.33.15.38a1.59,1.59,0,0,0,.6.07,11.87,11.87,0,0,0,1.43-.07,1.37,1.37,0,0,0,.75-.75,31.36,31.36,0,0,0,.67-3.38,1,1,0,0,0,.08-.45,1.18,1.18,0,0,0,.07-.37c.1-.3.2-.46.3-.46s.08.08.08.23a1.14,1.14,0,0,1,.07.3,2.68,2.68,0,0,0-.07.75V24.9a3.63,3.63,0,0,0,.37,1.65l.38.3s0,.07.07.07a.74.74,0,0,1,.15.38.92.92,0,0,1-.37.75,3.57,3.57,0,0,1-2.18.75,9.49,9.49,0,0,1-2.4,0,2.21,2.21,0,0,1-.53-.07h-.37a1,1,0,0,1-.68-.83,5,5,0,0,1-.07-1.13V24.3q-1.2,3.6-6.38,5.1-.53.15-.6,0c0-.1.15-.22.45-.37q3.6-1.87,4.73-4.13,1.13-2.1,1-7c0-.5,0-1.15-.07-2a5.13,5.13,0,0,1,1.5.53C171.52,16.69,171.75,16.87,171.75,17Zm.67,5.63v-.53c.05-1.4.08-2.8.08-4.2-.05-1.7-.08-2.73-.08-3.08-.6.05-1.9.12-3.9.22v7.21l-.08.6a.9.9,0,0,1-.52.68c-.4.3-.73.4-1,.3a.21.21,0,0,1-.15-.3,4.26,4.26,0,0,0,.08-1.05,10,10,0,0,0,.07-1.06c0-.4,0-.9.08-1.5V18.82c0-1.4-.05-2.78-.15-4.13a4.73,4.73,0,0,0-.08-.68v-.45l1.05.38a4.83,4.83,0,0,1,.75.37.91.91,0,0,1,.23.15,12.9,12.9,0,0,1,1.72-.07c.75-.05,1.33-.08,1.73-.08l.75-1a8.48,8.48,0,0,1,1.13.9q.67.53.6.75c0,.15-.13.3-.38.45,0,.05-.1.13-.3.22v1.58c0,.5,0,1.43.08,2.78,0,.5.07.9.07,1.2a4.46,4.46,0,0,1-.07,1.05,1.31,1.31,0,0,1-.68.83c-.45.25-.78.3-1,.15A1.21,1.21,0,0,1,172.42,22.65Z"/><path class="cls-2" d="M200.27,14.76c0,.15-.28.4-.83.75a16.68,16.68,0,0,1,.08,1.88c0,.85.07,1.5.07,1.95,0,.85,0,2.15.15,3.91v.37c0,.15,0,.65.08,1.5v1.5a3.51,3.51,0,0,1-.08.91,1.53,1.53,0,0,1-.45.82,3.08,3.08,0,0,1-.75.68.21.21,0,0,0-.15.07.81.81,0,0,1-.37.08c-.2,0-.33-.13-.38-.38v-.45c0-.15,0-.48.08-1-4,.16-7,.3-9.24.45l-.15.3a.23.23,0,0,0-.07.16c-.15.15-.38.34-.68.6a2.58,2.58,0,0,1-.82.3.47.47,0,0,1-.23-.38v-.15a1.3,1.3,0,0,0,.08-.37c0-.36.12-1.06.22-2.11s.18-2,.23-2.62a9.89,9.89,0,0,1,.07-1.05c.05-1.26.08-2.53.08-3.83V18c-.05-.65-.08-1.2-.08-1.65v-.45q-.07-.83-.3-2.4a3,3,0,0,0,.38.15,5.65,5.65,0,0,1,1.12.45,2,2,0,0,1,.83.45l8.33-.45q.07-.08.75-1.05l.68.45.82.6.23.22.15.08s0,.07.07.07A.43.43,0,0,1,200.27,14.76Zm-2.4,9.54c0-1.1,0-2.1-.08-3a2.06,2.06,0,0,0-1.2.83l-.07.08a.68.68,0,0,1-.38.37c-.1.05-.43-.05-1-.3a.81.81,0,0,1-.3-.15q-1-.68-1.8-1.35a16.8,16.8,0,0,1-3.53,1.88,1.18,1.18,0,0,0-.37.07.86.86,0,0,1-.38.08c-.05,1.4-.07,2.52-.07,3.37v.38a3.56,3.56,0,0,0-.08.67c.25,0,.7,0,1.36-.07l3.15-.23c.25,0,.77,0,1.57-.07,1.25-.05,2.28-.1,3.08-.15V25.57C197.84,25,197.87,24.6,197.87,24.3Zm-6.68-9.24c-.4,0-1.08,0-2,.15h-.45l.07,4.51v-.08A11,11,0,0,0,191.19,15.06Zm-2,7.14a13,13,0,0,0,3.15-2.41,13,13,0,0,1-1-1.65,8.82,8.82,0,0,1-2.26,1.73.77.77,0,0,1-.3.15V22.5A.73.73,0,0,1,189.16,22.2Zm5.55,3.52a1,1,0,0,1-1,1,1,1,0,0,1-.53-.23c-.15-.2-.27-.37-.37-.52a.22.22,0,0,0-.08-.15,4.38,4.38,0,0,0-1.12-1,2.52,2.52,0,0,0-.38-.3c-.25-.1-.37-.17-.37-.22s.05-.08.15-.08a.21.21,0,0,1,.15-.07h.67a3.59,3.59,0,0,1,2.4.75A1.06,1.06,0,0,1,194.71,25.72Zm-3.07-7.88c.45.45.87.85,1.27,1.2a15.27,15.27,0,0,0,1-1.8l-1.95.23A.71.71,0,0,0,191.64,17.84Zm2.47,1.95a12.58,12.58,0,0,0,3.68,1V18.59a16.83,16.83,0,0,1-.07-1.95c-.05-.8-.08-1.45-.08-2l-4.58.22h-.45a6.31,6.31,0,0,1-.82.08,2.44,2.44,0,0,1,.75.45c.45.3.67.5.67.6s-.3.25-.75.3l-.3.6,1.73-.22.6-.83a2.15,2.15,0,0,0,.3.23,6,6,0,0,1,1,.75c.3.2.45.37.45.52s-.33.3-.83.45A6.92,6.92,0,0,1,194.11,19.79Zm.15,3.08a1,1,0,0,1-.22.75.93.93,0,0,1-.75.38.78.78,0,0,1-.68-.6,2.39,2.39,0,0,1-.15-.53,2,2,0,0,0-.3-1c-.15-.16-.2-.23-.15-.23s.08-.08.23-.08a2.82,2.82,0,0,1,.75.15q-.08-.06.15,0A1.82,1.82,0,0,1,194.26,22.87Z"/></g></g></svg>