<svg xmlns="http://www.w3.org/2000/svg" viewBox="0 0 364 45.16"><defs><style>.cls-1{fill:#f2f7d9;}.cls-2{fill:#c42c2c;}</style></defs><title>label_浏阳文庙乐舞仪式空间布局图</title><g id="图层_2" data-name="图层 2"><g id="图层_1-2" data-name="图层 1"><rect class="cls-1" width="364" height="45.16" rx="8.34"/><path class="cls-2" d="M349.47,38.52H13.53a5.73,5.73,0,0,1-5.71-5.71V11.87a5.72,5.72,0,0,1,5.71-5.7H349.47a5.71,5.71,0,0,1,5.7,5.7V32.81A5.72,5.72,0,0,1,349.47,38.52ZM13.53,7.52a4.36,4.36,0,0,0-4.36,4.35V32.81a4.37,4.37,0,0,0,4.36,4.36H349.47a4.36,4.36,0,0,0,4.35-4.36V11.87a4.35,4.35,0,0,0-4.35-4.35Z"/><path class="cls-2" d="M29.8,20.93a1.61,1.61,0,0,1-.3.9.93.93,0,0,1-.75.38.77.77,0,0,1-.82-.68.25.25,0,0,0-.08-.15,2.72,2.72,0,0,0-1-1.5.44.44,0,0,1-.23-.37c0-.15.3-.18.9-.08a3.49,3.49,0,0,1,1.43.38A1.23,1.23,0,0,1,29.8,20.93Zm1.51-.75c-.26.95-.68,2.81-1.28,5.56q-.45,2.18-.75,3.45a7.41,7.41,0,0,1-.23,1.28,1.14,1.14,0,0,0-.07.3.49.49,0,0,1-.23.22c-.15.05-.42-.15-.82-.6a1.6,1.6,0,0,0-.3-.37c-.25-.3-.45-.56-.6-.75.15-.25.47-.83,1-1.73q1.13-2.47,2.86-7.58c.14-.25.27-.38.37-.38S31.35,19.78,31.31,20.18Zm-.23-3.37a1.61,1.61,0,0,1-.3.9A.92.92,0,0,1,30,18c-.45,0-.72-.28-.82-.83A4.2,4.2,0,0,0,28.6,16a.81.81,0,0,1-.15-.3l-.22-.23a.77.77,0,0,1-.15-.3c.05-.1.27-.12.67-.07a1.14,1.14,0,0,0,.3.07C30.4,15.45,31.08,16,31.08,16.81Zm5,8.85a3.11,3.11,0,0,1,.38,1.73,1,1,0,0,1-.61,1.05c-.6.2-1-.12-1.2-1,0-.2-.12-.47-.22-.82s-.28-.8-.38-1.05a13.4,13.4,0,0,1-3.83,4.35c-.2.1-.32.1-.37,0s0-.15.15-.3a.21.21,0,0,0,.07-.15,19.26,19.26,0,0,0,3.23-5.63,23.85,23.85,0,0,0-1.72-2.4c-.26-.3-.33-.48-.23-.53s.3-.07.6.08a9.53,9.53,0,0,1,1.73,1.5,2.23,2.23,0,0,0,.15-.53,2,2,0,0,0,.07-.45,10.48,10.48,0,0,0,.3-2.55,3.37,3.37,0,0,1-.9.08,3.39,3.39,0,0,1-.67.07,3.38,3.38,0,0,0-.53.08q-.68.08-1.05.15l-.37-.75c.49,0,1.12,0,1.87-.08l2.4-.15.68-1.27.37.3.68.52.23.23a.94.94,0,0,1,.3.3,2.28,2.28,0,0,1-.08-.68,3.31,3.31,0,0,1-.08-.6.79.79,0,0,1,.23.07,6,6,0,0,0,.9.31,3,3,0,0,0,.38.15,2.81,2.81,0,0,0,.37.15c.25.1.38.22.38.37s-.18.33-.53.53V20c0,1,0,1.95.08,2.86v1.27a1.94,1.94,0,0,1,0,.83.71.71,0,0,1-.3.6,1.8,1.8,0,0,1-.45.45c.2-.15.15-.13-.15.07s-.68.3-.83.15-.08-.22-.08-.67a8.45,8.45,0,0,1,.08-1v-.82c.05-.85.08-1.88.08-3.08v-2c-.05.1-.28.15-.68.15s-.63,0-1.13.08a3.15,3.15,0,0,1-.6.07.81.81,0,0,0,.3.15l.45.23c.45.3.68.52.68.67s-.18.33-.53.53a13.31,13.31,0,0,1-.82,3.23A8.46,8.46,0,0,1,36.11,25.66ZM35,16.5a1.22,1.22,0,0,1-.9,1.28c-.6.1-.92-.22-1-1v-.15a2.38,2.38,0,0,0-.75-1.51c-.2-.15-.28-.27-.23-.37a1,1,0,0,1,.53-.08C34.16,14.9,34.93,15.5,35,16.5Zm7.28-.9a.43.43,0,0,1-.15.45s-.12.05-.22.15a1.31,1.31,0,0,0-.23.15v3.16c.05,1.3.08,2.37.08,3.23,0,.45,0,1.05.07,1.8,0,.9.08,1.8.08,2.7v2.4a2.17,2.17,0,0,1-.9,1.28q-.68.6-1.05.45a1.87,1.87,0,0,1-.23-.53l-.15-.45v-.15a3,3,0,0,0-1-1c-.45-.3-.63-.48-.53-.53s.23-.2.53-.15a4.7,4.7,0,0,0,.9.07c.3.06.47,0,.52-.15a1.07,1.07,0,0,0,.15-.6V25.44L40,17.25c0-.54-.07-1.55-.07-3a15.57,15.57,0,0,0,1.5.6C42,15.15,42.31,15.41,42.26,15.6Z"/><path class="cls-2" d="M59.53,16.58c0,.15-.18.3-.53.45l-.6.08-.15.14a4.13,4.13,0,0,1-.67.83,7.23,7.23,0,0,0-.68,1.05.56.56,0,0,1-.07.23.29.29,0,0,0-.08.22c0,.1.1.23.3.38a.83.83,0,0,1,.15.22.51.51,0,0,1,.23.23,3.63,3.63,0,0,1,1.72,2.92,2.65,2.65,0,0,1-.45,1.51,2,2,0,0,1-.82.67,1.3,1.3,0,0,1-.6.23q-.22,0-.3-.45a.62.62,0,0,0-.08-.23l-.22-.45a1.82,1.82,0,0,0-.45-.6c-.35-.25-.53-.42-.53-.52s.23-.16.53-.16h.37q.45.09.45,0a.33.33,0,0,0,.38-.37A2.53,2.53,0,0,0,57,21.31a10.66,10.66,0,0,1-.68-1.13,3.29,3.29,0,0,1-.3-.6,6.36,6.36,0,0,1,.3-1.5l.45-1.8-1.65.15v8.41c0,1.5.08,2.62.08,3.37a2.26,2.26,0,0,1-.83,2q-.75.6-1.05.45a1,1,0,0,1-.15-.68q.3-3.75.3-7.43V17.33c0-.9,0-1.68-.08-2.33a3,3,0,0,0,.38.15l1.13.45a.72.72,0,0,0,.37.15l1.35-.07.9-1c.3.25.68.55,1.13.9a1.6,1.6,0,0,0,.37.3C59.4,16.18,59.58,16.43,59.53,16.58Zm8,.45c0,.25-.27.48-.67.68v4.35c0,2,.07,3.58.07,4.73,0,.2,0,.65.08,1.35A3.37,3.37,0,0,1,67,29a1.17,1.17,0,0,1-.67.83,1.26,1.26,0,0,1-.68.3q-.3.15-.45,0c-.1-.05-.15-.18-.15-.38v-.22a13.62,13.62,0,0,0,.07-1.36l-3.52.23a1.67,1.67,0,0,1-.15.75,2.08,2.08,0,0,1-.6.75,1.37,1.37,0,0,1-1,.38c-.1,0-.15-.08-.15-.23q.15-1.57.15-3.15c.05-1.5.07-3.23.07-5.18,0-2.2,0-3.38-.07-3.53a22.72,22.72,0,0,0-.15-2.78.22.22,0,0,1,.15.08l.75.37a4.45,4.45,0,0,1,1.2.6L65,16.28l.75-1a4.15,4.15,0,0,0,.37.3c.31.2.55.38.76.53C67.34,16.58,67.56,16.88,67.56,17Zm-2.4,8.86V17l-3.68.15v4.88A8.71,8.71,0,0,0,62.53,22H63a8,8,0,0,0,1.5-.3,2.41,2.41,0,0,1,.38.75c0,.11-.28.15-.68.15s-.82,0-1.57.08a10.79,10.79,0,0,1-1.13.08v5l3.6-.22C65.13,26.74,65.16,26.19,65.16,25.89Z"/><path class="cls-2" d="M86,20.18c0,.15-.15.38-.6.68a7,7,0,0,0-.68.45l-1,.67a14.28,14.28,0,0,1,.3,2.93,12.26,12.26,0,0,1-.22,2.63,4.89,4.89,0,0,1-1.13,2.4,1.51,1.51,0,0,1-1.13.6.6.6,0,0,1-.45-.3A.53.53,0,0,0,81,30a3,3,0,0,0-.15-.38,2.23,2.23,0,0,0-.6-1.05l-.38-.38a.29.29,0,0,1-.15-.3c0-.09.08-.15.23-.15a3.31,3.31,0,0,1,.6.08h.52a1.07,1.07,0,0,0,.6-.15A1,1,0,0,0,82,27a8.31,8.31,0,0,0,.23-2V23q-.45.22-1,.6a18.77,18.77,0,0,0-2,1.28.85.85,0,0,0-.3.3c.1-.15.07-.1-.08.15a.85.85,0,0,1-.3.3c-.25.05-.52-.1-.82-.45a16.66,16.66,0,0,0-1.28-1.28l2.1-.67A4.89,4.89,0,0,1,79.2,23a12.08,12.08,0,0,1,1.35-.53l1.5-.67a5.16,5.16,0,0,0-.53-2.33.53.53,0,0,0-.07-.22q.08.15-.15-.15l-.15-.3q0-.23.15-.15a1.26,1.26,0,0,1,.6.22l.3.3a3.74,3.74,0,0,1,.68.75,3.37,3.37,0,0,1,.6,1.2,7.06,7.06,0,0,0,1.35-.6.81.81,0,0,0,.3-.15,2.22,2.22,0,0,1,.75-.22A.21.21,0,0,1,86,20.18ZM86,17.25c0,.11-.25.21-.6.31a.53.53,0,0,1-.22.07,1.87,1.87,0,0,0-.68.15.22.22,0,0,1-.15.08,1.51,1.51,0,0,0-.45.3,4,4,0,0,1-.68.45c-.2.2-.35.27-.45.22s0-.17,0-.37a1.64,1.64,0,0,0,.23-.6c.1-.3.22-.65.38-1.05l-2.63.37-1.35.23a5.19,5.19,0,0,0-.6.15l-.45-.9c.15,0,.42,0,.82-.08l1.65-.15a20,20,0,0,1,2.48-.23l.6-1a6.57,6.57,0,0,0,.68.53l.6.6C85.73,16.73,86,17.06,86,17.25Zm8.56,11c0,.3-.23.58-.68.83a6.42,6.42,0,0,1-1.57.6,18.17,18.17,0,0,1-2.1.22,13.14,13.14,0,0,1-2.11-.15,1.89,1.89,0,0,1-1.27-.9,5.26,5.26,0,0,1-.08-1.2V22.36l.08-3.6a30.94,30.94,0,0,0-.23-3.68,9.4,9.4,0,0,1,1,.37,2.32,2.32,0,0,1,.45.15c.65.2,1,.43,1,.68s-.23.43-.68.67q.15,2.19,0,6.46v3.83a1.19,1.19,0,0,0,.15.75,1.05,1.05,0,0,0,.75.22h1a2.66,2.66,0,0,0,1.13-.3,2,2,0,0,0,1-1.42c.2-.85.38-1.68.53-2.48a2,2,0,0,1,.07-.45,11.6,11.6,0,0,0,.3-1.35c.15-.35.25-.53.3-.53s.18.18.23.53a6.43,6.43,0,0,0-.08,1.8,11.41,11.41,0,0,0-.07,1.58,3,3,0,0,0,.37,1.8l.23.22.15.15A.94.94,0,0,1,94.51,28.29Z"/><path class="cls-2" d="M118.83,17.78c0,.15-.25.23-.75.23-.35,0-1.1,0-2.25.07l-8,.45c0,1.5-.08,2.58-.08,3.23a13.4,13.4,0,0,1-.68,3.6,9.07,9.07,0,0,1-2.1,3.61,9.43,9.43,0,0,1-2.1,1.57c-.15.1-.27.1-.37,0s0-.15.15-.3a.21.21,0,0,0,.07-.15,13.13,13.13,0,0,0,1.58-1.88A8,8,0,0,0,105.39,26a16.72,16.72,0,0,0,.68-5.26c0-1.05-.08-2.37-.23-4a6.06,6.06,0,0,1,1.28.52l.38.15c.25.1.52.23.82.38l7.51-.38.9-1.58A7.44,7.44,0,0,1,118.3,17C118.71,17.33,118.88,17.58,118.83,17.78Zm-.15,4.65a.59.59,0,0,1-.22.38,4.37,4.37,0,0,0-.38.22.19.19,0,0,1-.15.08c0,1.3,0,2.38.07,3.23,0,.5,0,1.15.08,1.95v.9a3.36,3.36,0,0,1-.15.9.62.62,0,0,0-.08.23,1.6,1.6,0,0,1-.9.52.22.22,0,0,1-.15.08.53.53,0,0,1-.22.07.44.44,0,0,1-.3-.07v-.08a.59.59,0,0,1-.08-.22v-.38a10.45,10.45,0,0,1,.08-1l-6.23.38a1.47,1.47,0,0,1-.75,1.35c-.3.25-.55.32-.75.22s-.15-.1-.15-.3V27c0-2,0-3.25-.08-3.9,0-.4,0-1-.07-1.88l.67.23a.81.81,0,0,1,.3.15s.13.05.23.15a7.52,7.52,0,0,1,.9.45l1.87-.08V19.58c0-.55-.07-.92-.07-1.12.6.15,1.13.3,1.58.45s.67.37.67.52-.17.35-.52.6V22l2.25-.07.75-1.13a2.21,2.21,0,0,1,.45.38,4.5,4.5,0,0,1,.67.52C118.46,22,118.68,22.24,118.68,22.43Zm-8.41,2.78a19.28,19.28,0,0,1,2-.07v-2.4a5.55,5.55,0,0,1-1.12.07c-.55.05-.95.08-1.2.08,0,.7,0,2.32.15,4.87V29l2.17-.15V25.74c-.4,0-1,0-1.65.07l-.22-.45A.22.22,0,0,1,110.27,25.21Zm3.08-9.68a1.33,1.33,0,0,1-.07,1.13,1.19,1.19,0,0,1-1,.52.85.85,0,0,1-.83-.45l-.07-.23c-.05-.19-.1-.37-.15-.52a2.14,2.14,0,0,0-.75-1.28c-.3-.15-.43-.27-.38-.37s.25-.13.6-.08C112.32,14.35,113.2,14.78,113.35,15.53Zm2.93,7a6.19,6.19,0,0,1-1.2.07,10.2,10.2,0,0,1-1.2.08V25c.65-.1,1.22-.18,1.72-.23a1.55,1.55,0,0,1,.3.6c0,.1-.17.15-.52.15h-.53a8.31,8.31,0,0,1-1,.08v3.15l2.4-.15V22.51Z"/><path class="cls-2" d="M133.62,24.91v.23a1.24,1.24,0,0,0-.08.37,6.8,6.8,0,0,1-.37,1.2,4.48,4.48,0,0,1-1,1.58,2.34,2.34,0,0,1-1.42.75,1.64,1.64,0,0,1-.75-.15.9.9,0,0,1-.38-.75,1.46,1.46,0,0,1,.3-1.05,1.58,1.58,0,0,1,.68-.45c.25-.1.47-.2.67-.3.4-.25.78-.48,1.13-.68a2.33,2.33,0,0,0,.22-.3q.3-.37.45-.6l.15-.15c.1-.15.18-.2.23-.15S133.62,24.61,133.62,24.91Zm7-8.71a24,24,0,0,1-3.37.83c-1.2.15-2.38.28-3.53.38a.86.86,0,0,1-.38.07c-.1,1.35-.27,3-.52,4.88l3.38-.15V20.56c0-.3,0-.75-.08-1.35V18.16a.21.21,0,0,1,.15.07,7.28,7.28,0,0,1,1.43.38c.55.2.82.4.82.6s-.2.35-.6.6v2.32l2.86-.15,1-1.65a11.78,11.78,0,0,1,1.65,1.2c.4.3.58.55.53.75s-.3.23-.9.23c-1.66,0-3.36.13-5.11.23,0,2.55,0,4,.08,4.27v2.18A1.69,1.69,0,0,1,137,30.77c-.4.25-.68.32-.83.22a.19.19,0,0,1-.22-.22.07.07,0,0,0-.08-.08.43.43,0,0,1-.08-.3,2.64,2.64,0,0,0-.67-.9,2.05,2.05,0,0,0-.6-.52c-.3-.25-.43-.43-.38-.53s.28-.1.68,0H135a2,2,0,0,0,.46.07.74.74,0,0,0,.6-.07q.15-.07.15-.6v-5c-.35,0-.88,0-1.58.08s-1.3.1-1.65.14a5.1,5.1,0,0,1-.83.91,5.46,5.46,0,0,1-1.05-.45,6,6,0,0,1-.67-.75s.15-.18.3-.38a2.52,2.52,0,0,1,.3-.38,20,20,0,0,0,.6-4.73,2.21,2.21,0,0,0,0-.82V16l2,.83a.43.43,0,0,0,.3-.08,22.47,22.47,0,0,0,3.83-1.35,6.92,6.92,0,0,0,1.95-1.28,5.12,5.12,0,0,1,1.27,1c.5.4.76.67.76.82S141.38,16.31,140.67,16.2Zm3.61,10.59a2.21,2.21,0,0,1-.08.67.94.94,0,0,1-.45.75,1.07,1.07,0,0,1-.6.3,1,1,0,0,1-.75-.3,1.8,1.8,0,0,1-.52-.9.43.43,0,0,1-.08-.3,2.13,2.13,0,0,0-.38-.67,3.45,3.45,0,0,0-.9-1.2c-.05-.15-.27-.33-.67-.53-.2-.15-.3-.27-.3-.37s.17-.15.52-.15A6.25,6.25,0,0,1,143,25.14,2.39,2.39,0,0,1,144.28,26.79Z"/><path class="cls-2" d="M156.81,18.46c-.05,0-.12.05-.22.15a.91.91,0,0,0-.23.15c-.3.15-.47.17-.52.07s0-.12.22-.37a6.25,6.25,0,0,0,1.2-1.51,9.54,9.54,0,0,0,1.43-3.37,3.86,3.86,0,0,1,.75.3l.45.22c.6.3.9.53.9.68s-.22.3-.67.45a7.06,7.06,0,0,1-.68.9,2.15,2.15,0,0,1-.23.3c.31,0,1,0,2-.08,2.15-.1,3.6-.17,4.36-.22a2.24,2.24,0,0,0,.22-.45,8.27,8.27,0,0,1,.53-.83A11.84,11.84,0,0,1,168,15.9c.3.15.42.3.37.45s-.27.26-.82.31l-1.8.07c-2.06,0-4.43.1-7.14.3-.25.25-.52.5-.82.75a4.1,4.1,0,0,1,.9.15c.45.1.68.25.68.45a1.67,1.67,0,0,1-.31.45v.53l1-.08a8.48,8.48,0,0,0-.22-2,3.55,3.55,0,0,1,1.12.31c.5.15.78.27.83.37s-.15.33-.45.53l.07.75h1.05V17l1.13.38c.5.2.75.37.75.52s0,.13-.15.23l-.15.07-.15.15v.23a2.2,2.2,0,0,0-.08.52l1.05-.07a3.56,3.56,0,0,0,.08-.83,2.21,2.21,0,0,0,.08-.67,6.45,6.45,0,0,0,.07-.68l.68.3c.25.1.42.18.52.23a3.48,3.48,0,0,1,.38.22l.15.08c.15.05.2.12.15.22s-.1.25-.45.45a2.47,2.47,0,0,0-.08.6l.75-.07a4.59,4.59,0,0,1,.83-1.2,10.94,10.94,0,0,1,1.12.9c.45.3.63.52.53.67s-.25.2-.75.15H168c-.45.05-.78.08-1,.08h-.75a14.27,14.27,0,0,1-.15,1.5c-.05.35-.1.62-.15.82l2.1-.15a8,8,0,0,1,.83-1.27c.1.1.32.3.67.6a4.47,4.47,0,0,1,.6.45c.4.25.55.45.46.6s-.16.18-.46.22h-.67a9.3,9.3,0,0,0-1.5,0l-2.33.15a1.29,1.29,0,0,1,.38.08.89.89,0,0,1,.37.15c.45.1.68.23.68.37s-.18.3-.53.46V24l.83-.07c.2-.4.4-.78.6-1.13q.08,0,.15.15a11.21,11.21,0,0,0,1.12.68q.6.38.45.6c0,.15-.25.22-.75.22h-1.8l-.6.08v2.4h.9l1-1.43a3.39,3.39,0,0,1,.45.3l.82.68c.4.35.58.6.53.75s-.3.22-.75.22h-1.8a8.71,8.71,0,0,1-1,.08c0,.45,0,1.2.07,2.25a2.13,2.13,0,0,1-.3,1.2l-.6.38a1.12,1.12,0,0,1-.75.15.3.3,0,0,1-.3-.23V30.24c0-.5.07-.9.07-1.2l.08-1.43-1.13.08s-.15.18-.3.38-.4.37-.45.37a2.83,2.83,0,0,1-1.27-1,1.22,1.22,0,0,1,.45-.37,7.91,7.91,0,0,0,.3-2.18,2.32,2.32,0,0,0,.45.15q.6.23.75.3c.4.15.57.3.52.45s-.15.28-.45.38a4.1,4.1,0,0,1-.15.9l1.28-.08v-2.4l-1.28.08h-.22l-1.28.15-.3-.68c.6,0,1.2,0,1.8-.07h1.28a10.94,10.94,0,0,0-.08-1.66l-6.15.31q.08,0,.15.15a4.11,4.11,0,0,0,.6.3c.3.2.45.37.45.52s-.22.28-.68.38a7.33,7.33,0,0,1-.67.75l1.5-.08c.05-.05.18-.2.38-.45l.15-.22a.83.83,0,0,0,.22.15q.15.07.9.6c.3.25.43.45.38.6s-.15.22-.6.37a10.31,10.31,0,0,1-7.06,5.48c-.3.1-.48.1-.52,0s.07-.22.37-.37a11.32,11.32,0,0,0,3.83-2.78c-.45.1-.75-.12-.9-.68a2.32,2.32,0,0,0-.38-1,7.19,7.19,0,0,1-2.1,1.2,1.15,1.15,0,0,1-.45.15q-.07-.22.3-.45,2.85-2.7,3.38-4.58l-1.28.08-2.1.22-.3-.75c.55,0,1.35,0,2.4-.08h1.43c-.05-.5-.13-1.27-.23-2.32L157,20a5.09,5.09,0,0,0-.83.15.81.81,0,0,0-.37.08l-.38-.83h2.33a1,1,0,0,1-.08-.52,2.49,2.49,0,0,1-.15-.6,1.23,1.23,0,0,1-.07-.38ZM160,25.29l-2,.15c-.25.25-.52.5-.82.75a2.4,2.4,0,0,1,1.05.37.91.91,0,0,1,.45.9A6.92,6.92,0,0,0,160,25.29Zm.3-3.16c0-.25,0-.77-.08-1.57a4.41,4.41,0,0,1-.07-.68h-1a1.86,1.86,0,0,1,.07.75c0,.6.1,1.13.16,1.58Zm2.17-2.4-1.05.08a6.06,6.06,0,0,1,.08,1.12c.05.5.07.88.07,1.13h.83C162.42,21.11,162.44,20.33,162.44,19.73Zm2.33-.15-1,.08v.75c0,.65-.07,1.17-.07,1.57l.75-.07a2,2,0,0,1,.07-.45C164.59,21.26,164.67,20.63,164.77,19.58Z"/><path class="cls-2" d="M186.24,15.9q0,.22-.75.45a13.46,13.46,0,0,1-1.2,2V28.59a2,2,0,0,1-.38,1.28c-.6.6-1.08.87-1.42.82a.65.65,0,0,1-.15-.22s.07-.18.07-.53a7.9,7.9,0,0,0,.08-1.35c0-.55.07-1,.07-1.35l.15-4.28c0-.6.08-1.5.08-2.7A12.89,12.89,0,0,1,179.18,23c-.3.16-.47.18-.52.08a1.21,1.21,0,0,1,.3-.53,18.49,18.49,0,0,0,5.1-8.18,3.64,3.64,0,0,1,.9.45,3.39,3.39,0,0,0,.45.3C186,15.45,186.24,15.7,186.24,15.9ZM196.9,28.82c0,.1-.18.22-.53.37a2.8,2.8,0,0,0-1.2.68,1.45,1.45,0,0,1-.67.67c-.3.05-.73-.15-1.28-.6a15.79,15.79,0,0,1-3.08-3.23,13.86,13.86,0,0,1-5.7,4.06q-.3.15-.45,0c0-.05.12-.2.37-.45a16.91,16.91,0,0,0,4.88-5,31.08,31.08,0,0,1-2.78-7.8.37.37,0,0,1,.23-.45c.15-.05.25,0,.3.22A27,27,0,0,0,190.07,24a21.49,21.49,0,0,0,1.8-4.43,28.28,28.28,0,0,0,.75-3.6A10.31,10.31,0,0,1,194.5,17a.25.25,0,0,1,.15.08q.53.38.45.6c0,.2-.3.37-.9.52a23.09,23.09,0,0,1-3,7.06,13.87,13.87,0,0,0,4.66,3,5.82,5.82,0,0,1,.75.3C196.8,28.64,196.9,28.72,196.9,28.82ZM191,16.43a1.44,1.44,0,0,1-.07,1.2,1,1,0,0,1-1,.6.9.9,0,0,1-.82-.52,1.33,1.33,0,0,0-.08-.3,4.7,4.7,0,0,0-.15-.6,3.23,3.23,0,0,0-.3-1,5,5,0,0,0-.45-.53,1.51,1.51,0,0,1-.3-.45q.08-.15.9,0a3,3,0,0,1,1.28.53A1.76,1.76,0,0,1,191,16.43Z"/><path class="cls-2" d="M214.76,26.26c.1,0,0,.15-.22.3a1.74,1.74,0,0,0-.45.23c-.6.3-1.1.57-1.5.82s-1.08.58-2.18,1.13c-.9.45-1.63.83-2.18,1.13a2.33,2.33,0,0,0-.82.52l-.3.3a.74.74,0,0,1-.38.15c-.1,0-.37-.22-.82-.67a11.12,11.12,0,0,1-1-1.28,4.91,4.91,0,0,1,.82-.15c.35-.1.66-.17.91-.23a6.63,6.63,0,0,1,.82-.22q1-.22,1.65-.45V23.71q-1.27.08-2.85.3l-.37-.75h.67c.55-.05,1-.07,1.28-.07s1.25,0,2.4-.08a6.31,6.31,0,0,1,.82-.08l.75-1.5a.91.91,0,0,0,.23.15c.15.1.53.4,1.13.9.45.36.67.58.67.68s-.32.25-.82.3h-1.88a9.23,9.23,0,0,1-1.13.08c.9.3,1.35.52,1.35.67s0,.23-.15.38l-.15.07-.15.15v2.4c1.06-.3,2.18-.67,3.38-1.12C214.61,26.09,214.76,26.11,214.76,26.26Zm7.43-1.42a28.44,28.44,0,0,0-.67,3.15,4.18,4.18,0,0,0,.07,1.43,1.3,1.3,0,0,0,.23.6.76.76,0,0,1,.15.6c-.05.4-.43.55-1.13.45a3.74,3.74,0,0,1-1.87-.83A18.15,18.15,0,0,1,216.79,28a12.26,12.26,0,0,1-1.65-3,20,20,0,0,1-1.28-5.18l-5.78.37-.82.08-1.28.15-.45-.83a19.45,19.45,0,0,0,2.48-.07l5.78-.3c0-.6-.13-1.5-.23-2.71a9,9,0,0,1-.15-1.2c0-.55-.1-1-.15-1.42l1,.22.6.23.3.15.3.15q.3.07.3.3c0,.1,0,.22-.15.37a.7.7,0,0,1-.23.15l-.22.23c0,.2,0,.6.07,1.2.1.9.18,1.65.23,2.25l1.5-.15c.15-.3.45-.82.9-1.57l.9.6.68.45c.5.4.75.67.75.82s-.35.23-.9.23c-.7,0-1.5,0-2.41.07l-1.42.08a16.87,16.87,0,0,0,2.48,7,8.83,8.83,0,0,0,1,1,1.31,1.31,0,0,0,.83.38c.15,0,.35-.23.6-.68a22.41,22.41,0,0,0,1.35-2.55c.15-.3.3-.42.45-.37S222.19,24.59,222.19,24.84Zm-2.7-9v.22a1,1,0,0,1-.3.76.8.8,0,0,1-.75.37.71.71,0,0,1-.67-.45,7.34,7.34,0,0,0-.91-1.43q0-.08-.15-.15a3.5,3.5,0,0,0-.37-.22c-.2-.1-.28-.2-.23-.3s.28-.15.83-.15a3.58,3.58,0,0,1,1.65.22A1.51,1.51,0,0,1,219.49,15.83Z"/><path class="cls-2" d="M246.74,29.19c0,.15-.12.25-.37.3h-3.16q-5.25.23-10.36.6a3.36,3.36,0,0,0-.67.15c-.45.05-.83.1-1.13.15l-.37-1h2.1l5-.3V26.56c0-.45,0-1-.08-1.72l-2.1.07a10,10,0,0,0-1.88.23l-.45-.83c1.06,0,1.86,0,2.41-.07,1,0,2.72-.08,5.18-.23a1.71,1.71,0,0,0,.22-.37c.3-.4.58-.75.83-1.06l.67.45.75.53c.45.35.68.6.68.75s-.33.25-.83.3c-.9,0-1.72,0-2.47.08l-2,.07a1.8,1.8,0,0,1,.83.3q.52.23.6.45c0,.15-.18.33-.53.53v3l3.53-.22,1.2-1.88c.1.1.28.25.53.45.45.3.82.57,1.13.82C246.52,28.66,246.74,29,246.74,29.19Zm.08-10.43c0,.25-.28.37-.68.37a4.21,4.21,0,0,0-1-.22,2,2,0,0,0-.9.07c.3-.1.27-.1-.08,0-.1-.05-.5.13-1.2.53-.3.15-.47.17-.52.07l.15-.37a12,12,0,0,0,1-1.35l-9.23.45a4.61,4.61,0,0,1-.15,1.12,3.59,3.59,0,0,1-.45,1.35q-.52.9-1.2.9a.92.92,0,0,1-.75-.37,1.22,1.22,0,0,1-.23-.75,1.81,1.81,0,0,1,.38-1,3.89,3.89,0,0,0,.75-.83,2.23,2.23,0,0,0,.6-1.05,4.22,4.22,0,0,0,.3-1.2v-.38l.07-.07a.07.07,0,0,1,.08-.08c.1,0,.2.18.3.53a3.59,3.59,0,0,1,.23,1.28l9.53-.53.52-.6c-.2.2-.1.08.3-.38A12.39,12.39,0,0,1,246.44,18C246.74,18.31,246.87,18.56,246.82,18.76Zm-8.34,1.72q-.07.3-.9.3a13.88,13.88,0,0,1-4.88,3.08c-.3.05-.45,0-.45-.07s.1-.15.3-.3a15.09,15.09,0,0,0,3.16-3.23.21.21,0,0,1,.07-.15,12.56,12.56,0,0,0,.83-1.65,5.29,5.29,0,0,1,.67.6c.3.25.53.45.68.6C238.36,20.06,238.53,20.33,238.48,20.48Zm1.58-5.18a1.33,1.33,0,0,1-.07,1.13,1.16,1.16,0,0,1-1,.52.83.83,0,0,1-.83-.45c-.05-.15-.15-.42-.3-.82a3,3,0,0,0-.3-.83l-.45-.45c-.25-.15-.35-.27-.3-.37s.3-.08.9-.08a3.59,3.59,0,0,1,1.35.45A1.6,1.6,0,0,1,240.06,15.3ZM244.34,22a1.14,1.14,0,0,1-.3.68.86.86,0,0,1-.45.3q-.68.15-1.35-.75a3.85,3.85,0,0,0-.83-1.13,10.92,10.92,0,0,0-2.33-1.65,1,1,0,0,1-.45-.22q0-.15.45-.15a8.6,8.6,0,0,1,3.46.75A2.57,2.57,0,0,1,244.34,22Z"/><path class="cls-2" d="M260,18.16a.9.9,0,0,1-.22.52l-.3.3v3.53c0,1.15,0,2.93.07,5.33a8.18,8.18,0,0,1-.07,1.43,1.54,1.54,0,0,1-1,1.2c-.45.25-.78.32-1,.22s-.12-.15-.07-.3a5.82,5.82,0,0,1,.07-.75v-.75c.1-1.35.16-3.2.16-5.56V20.26c0-.5,0-1.38-.08-2.63a3.31,3.31,0,0,1-.08-.6l1.13.45a3,3,0,0,1,.38.15c.4.05.62.13.67.23Q260,18,260,18.16Zm2.4-2a1.23,1.23,0,0,1-1.05,1.35c-.55.05-.9-.32-1.05-1.13a3.18,3.18,0,0,0-.3-.9,2,2,0,0,0-.6-.75.59.59,0,0,1-.22-.37c.05-.1.22-.1.52,0a3,3,0,0,1,1.05.22,2.27,2.27,0,0,1,1,.6A1.34,1.34,0,0,1,262.35,16.13ZM268,20.56c0,.15-.22.35-.67.6v2.4l.07,2v.82a1.12,1.12,0,0,1-.52.6l-.08.08a2,2,0,0,1-1,.37c-.15,0-.22-.25-.22-.75v-1l-2.71.15a1.79,1.79,0,0,1-.45,1.2.86.86,0,0,1-.45.3q-.45.22-.6.15t-.15-.6v-.68a38.12,38.12,0,0,0,.08-4.43V18.91a.53.53,0,0,1,.22.07,7.34,7.34,0,0,1,.75.45l.6.3a1.2,1.2,0,0,0,.3.23l2.33-.08.75-1,.23.22a5.36,5.36,0,0,1,1,.75C267.81,20.18,268,20.41,268,20.56Zm-2.47,2.93v-3c-.3,0-.9,0-1.8.08a8,8,0,0,1-.91.07v1.95h.91a4.53,4.53,0,0,1,1-.22.49.49,0,0,1,.23.3l.07.08c0,.1,0,.17,0,.22s-.12.15-.37.15h-.83a3.85,3.85,0,0,1-1,.08v2.1l2.71-.15Zm6.08-7c0,.16-.13.33-.38.53-.15,0-.32.13-.52.22V18q.3,5.77.37,10.81a2.24,2.24,0,0,1-1,2.17.21.21,0,0,0-.15.08,1.34,1.34,0,0,0-.45.22.5.5,0,0,1-.53,0s-.13-.1-.23-.3a.53.53,0,0,0-.07-.22.62.62,0,0,1-.08-.23,2.13,2.13,0,0,0-.67-1.05,3,3,0,0,0-.53-.37c-.25-.15-.37-.25-.37-.3s.15-.2.45-.16a3.19,3.19,0,0,0,.75.08,1,1,0,0,0,.67-.15c.15-.1.23-.33.23-.68,0-2.8-.05-5.37-.15-7.73,0-.9,0-2.1-.08-3.6l-2.7.08q-.07,0-.75.15c-.65.05-1.1.1-1.35.14a.23.23,0,0,0-.08-.14c-.14-.31-.27-.56-.37-.76.55.05,1.2.08,1.95.08l3.08-.15a7.26,7.26,0,0,0,.45-.68,3.35,3.35,0,0,1,.38-.45c.34.2.84.53,1.5,1C271.39,16.13,271.59,16.35,271.59,16.5Z"/><path class="cls-2" d="M297.93,18.16c0,.05-.3.12-.9.22h-1.65q-.75.07-2.4.15-2.62.15-4.05.3a18.88,18.88,0,0,1-1.73,2.85,4.94,4.94,0,0,1,.75.45L289.9,22v-.9c0-.75-.07-1.35-.07-1.8a9.86,9.86,0,0,0,1.42.53c.5.2.75.37.75.52s-.15.33-.45.53v1.05c.3,0,.7,0,1.21-.08a6.19,6.19,0,0,0,1.2-.07q0-.07.15-.15a3.78,3.78,0,0,1,.52-.83c.25.15.65.43,1.2.83.35.2.53.42.53.67s-.08.21-.23.3a2.4,2.4,0,0,0-.45.23,12.17,12.17,0,0,1-.3,4,2,2,0,0,1-.6.75,1.3,1.3,0,0,1-.9.45,1.12,1.12,0,0,1-.37-.45,2.85,2.85,0,0,0-1-1.28c-.3-.3-.45-.47-.45-.52s.22-.08.68-.08a1.62,1.62,0,0,0,.52.08c.25,0,.38,0,.38-.08s.22-.22.22-.52.08-1.28.08-2.78l-2.41.15v4c.05,1,.08,1.68.08,2.18a2.55,2.55,0,0,1-.38,1.8c-.45.65-.92.93-1.42.83q-.15,0-.15-.3v-.75a7,7,0,0,1,.07-1,4.51,4.51,0,0,1,.08-1c0-.49,0-1.17.07-2V22.58c-.25,0-.8,0-1.65.08a6.38,6.38,0,0,1-.75.08c0,.55,0,1.22.08,2s.07,1.4.07,1.95a1.59,1.59,0,0,1-.22.83,1.9,1.9,0,0,1-1.13.75.31.31,0,0,1-.22.07l-.08-.07c-.05,0-.08-.05-.08-.15v-.45a33.55,33.55,0,0,0,0-4.5,14.91,14.91,0,0,1-3.82,2.62q-.6.23-.6.15l-.08-.07c0-.1.12-.23.38-.38a27.51,27.51,0,0,0,2.7-2.4A21.82,21.82,0,0,0,287.13,19l-1.88.08c-.15,0-.88.07-2.18.22l-.37-.82h2.4l2.33-.15a22.79,22.79,0,0,0,1.2-4.36.59.59,0,0,1,.22.08c.25.1.78.32,1.58.67q.68.23.6.6s-.25.2-.75.45c-.3.75-.65,1.58-1,2.48l5.55-.37,1-1.58a13.27,13.27,0,0,1,1.72,1.2c.35.25.53.43.53.53Z"/><path class="cls-2" d="M322.11,22.36c-.06.9-.21,2.23-.45,4a8.71,8.71,0,0,1-.68,2.48,2.9,2.9,0,0,1-1.05,1.57,2.33,2.33,0,0,1-1.58.6q-.15,0-.3-.45a2.35,2.35,0,0,1-.22-.67,4.83,4.83,0,0,0-1.13-.9c-.45-.31-.67-.48-.67-.53s.3-.18.6-.08l.37.08c.35,0,.63.1.83.15a4.19,4.19,0,0,0,1.12-.08c.2-.1.38-.39.53-.9a7.07,7.07,0,0,0,.45-2c.15-1,.27-2.28.37-3.83q-3.82.15-9,.52a20,20,0,0,1-.68,3.46,8.53,8.53,0,0,1-1.28,2.62,7.85,7.85,0,0,1-2.1,2.18c-.2.15-.35.18-.45.08a.77.77,0,0,1,.15-.3l.6-.83c.5-.75.83-1.25,1-1.5a9.51,9.51,0,0,0,.9-2.7,17.31,17.31,0,0,0,.37-4.13c0-1.3.08-2.45.08-3.45,0-.1,0-.4-.08-.9,0-.71,0-1.31-.07-1.81a7.15,7.15,0,0,0,.9.45l1,.38a.21.21,0,0,1,.15.07.22.22,0,0,0,.15.08l.15.15q.15.07.15.15c1-.05,2.27-.12,3.83-.23,1-.05,1.67-.07,2-.07l.75-1.13.53.3c.3.2.55.38.75.53.5.35.75.63.75.82s-.25.43-.75.68l-.08.38a3.18,3.18,0,0,1-.07.75c.55.4.8.67.75.82s-.15.25-.6.3-.88,0-1.73.08c-.45,0-1.32,0-2.63.15q-2.55.07-4.2.15a11.33,11.33,0,0,1-.15,1.87l8.86-.45.75-1.05.52.3.68.45a2.52,2.52,0,0,0,.38.3l.07.08a.83.83,0,0,1,.15.22l.08.15C322.86,21.83,322.6,22.06,322.11,22.36Zm-4-5.78c-.3,0-.83,0-1.58.08-1.95.15-3.6.25-4.95.29,0,.81,0,1.56-.08,2.26.2,0,.58,0,1.13-.08.7,0,2.47-.1,5.33-.3,0-.25,0-.77.07-1.58A4.63,4.63,0,0,0,318.13,16.58Zm.6,7.66c0,.15-.23.35-.68.6L318,26.41q.38.3.3.45c0,.15-.15.23-.45.23a10.82,10.82,0,0,1-1.43.07h-.75c-.8.05-1.45.08-1.95.08v.6a2.78,2.78,0,0,1-.08,1.2,1.36,1.36,0,0,1-.82.53.44.44,0,0,1-.53.07s-.07,0-.07-.07l-.08-.15c.05,0,.08-.15.08-.45,0-1.51,0-3-.08-4.51,0-.25-.05-.77-.15-1.57a2.37,2.37,0,0,1,.83.3.53.53,0,0,0,.22.07c.3.15.63.33,1,.53l2.4-.15.68-.9c.35.29.67.55,1,.75C318.5,23.84,318.73,24.09,318.73,24.24Zm-2.33,0a9,9,0,0,1-1.43.07c-.55.05-1,.08-1.35.08l.08,2.32,2.55-.15a5.33,5.33,0,0,0,.08-1.12C316.38,24.94,316.4,24.54,316.4,24.24Z"/><path class="cls-2" d="M347.78,16.28c0,.15-.28.4-.83.75a16.55,16.55,0,0,1,.08,1.88c.05.85.07,1.5.07,1.95q0,1.28.15,3.9v.38c0,.15,0,.65.08,1.5v1.5a3.37,3.37,0,0,1-.08.9,1.52,1.52,0,0,1-.45.83,3,3,0,0,1-.75.67.22.22,0,0,0-.15.08.82.82,0,0,1-.37.07c-.2,0-.33-.12-.38-.37v-.45a9.55,9.55,0,0,1,.08-1q-5.94.22-9.24.45l-.15.3a.21.21,0,0,0-.07.15c-.15.15-.38.35-.68.6a2.35,2.35,0,0,1-.82.3.44.44,0,0,1-.23-.37v-.15a1.29,1.29,0,0,0,.08-.38c.05-.35.12-1.05.22-2.1s.18-2,.23-2.63a9.89,9.89,0,0,1,.07-1c.05-1.25.08-2.52.08-3.83v-.67c-.05-.65-.08-1.2-.08-1.65v-.45c-.05-.55-.15-1.36-.3-2.41a3,3,0,0,0,.38.15,5.65,5.65,0,0,1,1.12.45,2,2,0,0,1,.83.45L345,15.6q.08-.07.75-1l.68.45.82.6.23.23.15.07s0,.08.07.08A.43.43,0,0,1,347.78,16.28Zm-2.4,9.53c0-1.1,0-2.1-.08-3a2.06,2.06,0,0,0-1.2.83l-.08.07a.69.69,0,0,1-.37.38c-.1.05-.43-.05-1-.3a.81.81,0,0,1-.3-.15c-.65-.45-1.25-.9-1.8-1.36A16.59,16.59,0,0,1,337,24.16a1.24,1.24,0,0,0-.37.08.86.86,0,0,1-.38.07c-.05,1.4-.07,2.53-.07,3.38v.38a3.47,3.47,0,0,0-.08.67c.25,0,.7,0,1.35-.08l3.16-.22c.25,0,.77,0,1.57-.08,1.25,0,2.28-.1,3.08-.15V27.09C345.35,26.54,345.38,26.11,345.38,25.81Zm-6.68-9.23c-.41,0-1.08.05-2,.15h-.45l.07,4.5v-.07A11.14,11.14,0,0,0,338.7,16.58Zm-2,7.13a12.75,12.75,0,0,0,3.15-2.4,14.37,14.37,0,0,1-1-1.65,8.74,8.74,0,0,1-2.25,1.72.64.64,0,0,1-.3.15V24A.73.73,0,0,1,336.67,23.71Zm5.55,3.53a1,1,0,0,1-1,1,.93.93,0,0,1-.53-.22c-.15-.2-.27-.38-.37-.53a.22.22,0,0,0-.08-.15,4.3,4.3,0,0,0-1.12-1,3.15,3.15,0,0,0-.38-.3c-.25-.1-.38-.18-.38-.23s.05-.07.15-.07a.23.23,0,0,1,.16-.08h.67a3.59,3.59,0,0,1,2.4.75A1.08,1.08,0,0,1,342.22,27.24Zm-3.07-7.88c.45.45.87.85,1.27,1.2a15.27,15.27,0,0,0,1-1.8l-1.95.22A.69.69,0,0,0,339.15,19.36Zm2.47,1.95a12.61,12.61,0,0,0,3.68,1V20.11a16.83,16.83,0,0,1-.07-1.95c-.06-.8-.08-1.45-.08-2l-4.58.23h-.45a6,6,0,0,1-.82.07,2.92,2.92,0,0,1,.75.45c.45.3.67.51.67.61s-.3.25-.75.3l-.3.6,1.73-.23.6-.82a2.33,2.33,0,0,0,.3.22,5.45,5.45,0,0,1,1,.75c.3.2.45.38.45.53s-.32.3-.82.45A6.92,6.92,0,0,1,341.62,21.31Zm.15,3.08a1,1,0,0,1-.22.75.92.92,0,0,1-.75.37.78.78,0,0,1-.68-.6,2.26,2.26,0,0,1-.15-.52,2.06,2.06,0,0,0-.3-1c-.15-.15-.2-.22-.15-.22s.08-.08.23-.08a2.47,2.47,0,0,1,.75.15q-.08-.07.15,0A1.8,1.8,0,0,1,341.77,24.39Z"/></g></g></svg>