<svg xmlns="http://www.w3.org/2000/svg" xmlns:xlink="http://www.w3.org/1999/xlink" viewBox="0 0 984.18 573.88"><defs><style>.cls-1,.cls-2{fill:none;}.cls-1{clip-rule:evenodd;}.cls-10,.cls-3{fill:#050606;}.cls-4{fill:#b23132;}.cls-5{fill:#d25753;}.cls-41,.cls-6{fill:#bc3939;}.cls-7{fill:#f9d4ac;}.cls-22,.cls-8{fill:#434244;}.cls-9{fill:#2c2c2c;}.cls-10,.cls-18,.cls-20,.cls-22,.cls-41,.cls-43,.cls-44,.cls-55,.cls-9{fill-rule:evenodd;}.cls-11,.cls-44{fill:#ed6f70;}.cls-12{fill:#dd5e5f;}.cls-13{fill:#f59c9e;}.cls-14{fill:#f7c694;}.cls-15{fill:#df9f6a;}.cls-16,.cls-20{fill:#8f9093;}.cls-17{clip-path:url(#clip-path);}.cls-18,.cls-27{fill:#2e2d2f;}.cls-19{fill:#28282a;}.cls-21{fill:#82d6c6;}.cls-23{fill:#606163;}.cls-24{fill:#4f4f51;}.cls-25{clip-path:url(#clip-path-2);}.cls-26{clip-path:url(#clip-path-3);}.cls-28{fill:#dd9a64;}.cls-29{fill:#e8ad74;}.cls-30{fill:#ffe5ce;}.cls-31{clip-path:url(#clip-path-4);}.cls-32{clip-path:url(#clip-path-5);}.cls-33{fill:#b53a5a;}.cls-34{fill:#c4c6b8;}.cls-35{fill:#2da8ad;}.cls-36{fill:url(#linear-gradient);}.cls-37{fill:#0d6499;}.cls-38{fill:#ffd244;}.cls-39{fill:#d5c288;}.cls-40{fill:#03aae0;}.cls-42{fill:#f49091;}.cls-43{fill:#f7ca9c;}.cls-45{fill:#e25e5d;}.cls-46{fill:#fde4d1;}.cls-47{fill:#fff;}.cls-48{fill:#8bb8c4;}.cls-49{fill:#b7e2e9;}.cls-50{fill:#f0bd89;}.cls-51{fill:#a82626;}.cls-52{fill:#de5959;}.cls-53{fill:#e4a973;}.cls-54{fill:#ebbd8c;}.cls-55{fill:#373737;}.cls-56{opacity:0.55;}.cls-57{clip-path:url(#clip-path-6);}.cls-58{fill:#f8ac76;}.cls-59{clip-path:url(#clip-path-7);}.cls-60{clip-path:url(#clip-path-8);}.cls-61{clip-path:url(#clip-path-9);}.cls-62{fill:url(#linear-gradient-2);}.cls-63{fill:url(#linear-gradient-3);}.cls-64{fill:url(#linear-gradient-4);}</style><clipPath id="clip-path"><path class="cls-1" d="M491.06,266.61,54.23,217.3s72.3,82.07,105.51,109.28a14.43,14.43,0,0,0,15,2l1.65-.73,9.82,7.78V308.8a2.72,2.72,0,0,1,2.72-2.72H793.2a2.72,2.72,0,0,1,2.72,2.72v26.82l9.82-7.78,1.65.73a14.43,14.43,0,0,0,15-2C855.6,299.36,927.9,217.3,927.9,217.3Z"/></clipPath><clipPath id="clip-path-2"><path class="cls-2" d="M66.72,203.73C47,200.37,28.15,159.15,28.15,159.15c-4.29,34.29,26.57,58.3,26.57,58.3"/></clipPath><clipPath id="clip-path-3"><path class="cls-2" d="M967,373.79H17.24s63.77,53.36,117,78.38l-.1,5a5.13,5.13,0,0,0,2.73,4.64l12.43,6.61V451.47a3,3,0,0,1,3-3H831.9a3,3,0,0,1,3,3V468.4l12.42-6.61a5.13,5.13,0,0,0,2.73-4.64l-.1-5C903.2,427.15,967,373.79,967,373.79Z"/></clipPath><clipPath id="clip-path-4"><path class="cls-2" d="M984.18,363.41l-20.65-7.18s-96.24,12.35-159.29,0c0,0-150.37,10.28-311.27,8.71v.1c-159.5,1.38-307.6-8.74-307.6-8.74C122.32,368.65,18.1,355,18.1,355L0,364.58l19.33,11.69c62.11,28.25,477.31,32.94,477.31,32.94v-.13c41.22-.79,417.05-8.67,475.74-35.36Z"/></clipPath><clipPath id="clip-path-5"><path class="cls-2" d="M915.07,204.59c19.75-3.36,38.58-44.59,38.58-44.59,4.28,34.3-26.58,58.3-26.58,58.3"/></clipPath><linearGradient id="linear-gradient" x1="495.42" y1="129.32" x2="506.19" y2="129.32" gradientUnits="userSpaceOnUse"><stop offset="0" stop-color="#ca5649"/><stop offset="1" stop-color="#fa6d62"/></linearGradient><clipPath id="clip-path-6"><rect class="cls-2" x="288.77" y="448.07" width="55.73" height="23.15"/></clipPath><clipPath id="clip-path-7"><rect class="cls-2" x="375.36" y="448.07" width="55.73" height="23.15"/></clipPath><clipPath id="clip-path-8"><rect class="cls-2" x="548.54" y="448.07" width="55.73" height="23.15"/></clipPath><clipPath id="clip-path-9"><rect class="cls-2" x="638.56" y="448.07" width="55.73" height="23.15"/></clipPath><linearGradient id="linear-gradient-2" x1="521.02" y1="190.24" x2="521.02" y2="190.24" gradientUnits="userSpaceOnUse"><stop offset="0" stop-color="#3877bd"/><stop offset="1" stop-color="#38537e"/></linearGradient><linearGradient id="linear-gradient-3" x1="520.26" y1="-110.49" x2="520.26" y2="367.96" xlink:href="#linear-gradient-2"/><linearGradient id="linear-gradient-4" x1="374.09" y1="-113.73" x2="374.09" y2="364" xlink:href="#linear-gradient-2"/></defs><title>main</title><g id="图层_2" data-name="图层 2"><g id="图层_1-2" data-name="图层 1"><rect class="cls-3" x="149.14" y="448.45" width="685.79" height="3.61"/><rect class="cls-4" x="185.9" y="306.08" width="610.03" height="50.22"/><rect class="cls-5" x="185.9" y="306.08" width="610.03" height="25.6"/><rect class="cls-6" x="185.9" y="306.08" width="610.03" height="13.23"/><rect class="cls-3" x="185.9" y="306.08" width="610.03" height="3.25"/><rect class="cls-7" x="429.86" y="319.31" width="2.02" height="12.37"/><rect class="cls-7" x="424.13" y="319.31" width="2.02" height="12.37"/><rect class="cls-7" x="441.31" y="319.31" width="2.02" height="12.37"/><rect class="cls-7" x="435.58" y="319.31" width="2.02" height="12.37"/><rect class="cls-7" x="452.76" y="319.31" width="2.02" height="12.37"/><rect class="cls-7" x="447.04" y="319.31" width="2.02" height="12.37"/><rect class="cls-7" x="530.63" y="319.22" width="2.02" height="12.37"/><rect class="cls-7" x="524.9" y="319.22" width="2.02" height="12.37"/><rect class="cls-7" x="542.08" y="319.22" width="2.02" height="12.37"/><rect class="cls-7" x="536.35" y="319.22" width="2.02" height="12.37"/><rect class="cls-7" x="553.53" y="319.22" width="2.02" height="12.37"/><rect class="cls-7" x="547.8" y="319.22" width="2.02" height="12.37"/><rect class="cls-3" x="425.14" y="321.46" width="30.48" height="33.31" rx="1.59"/><rect class="cls-8" x="427" y="321.46" width="28.63" height="32.02" rx="1.59"/><path class="cls-9" d="M450.28,321.46v.84H428.52c-.84,0-1.52,1.07-1.52,2.38v5.38h23.28v22.73h5c.21,0,.39-.27.39-.6V323.85c0-1.32-.68-2.39-1.53-2.39Z"/><rect class="cls-7" x="427" y="321.46" width="28.63" height="2.64" rx="0.67"/><rect class="cls-7" x="427" y="350.85" width="28.63" height="2.64" rx="0.67"/><rect class="cls-7" x="442.71" y="336.63" width="24.15" height="1.69" rx="0.67" transform="translate(792.26 -117.31) rotate(90)"/><rect class="cls-7" x="415.77" y="336.81" width="24.15" height="1.69" rx="0.67" transform="translate(765.5 -90.19) rotate(90)"/><rect class="cls-7" x="576.77" y="319.27" width="2.02" height="12.37"/><rect class="cls-7" x="588.22" y="319.27" width="2.02" height="12.37"/><rect class="cls-7" x="582.49" y="319.27" width="2.02" height="12.37"/><rect class="cls-7" x="599.67" y="319.27" width="2.02" height="12.37"/><rect class="cls-7" x="593.94" y="319.27" width="2.02" height="12.37"/><rect class="cls-7" x="677.53" y="319.18" width="2.02" height="12.37"/><rect class="cls-7" x="671.81" y="319.18" width="2.02" height="12.37"/><rect class="cls-7" x="688.99" y="319.18" width="2.02" height="12.37"/><rect class="cls-7" x="683.26" y="319.18" width="2.02" height="12.37"/><rect class="cls-7" x="694.71" y="319.18" width="2.02" height="12.37"/><rect class="cls-7" x="717.92" y="319.31" width="2.02" height="12.28"/><rect class="cls-7" x="729.37" y="319.31" width="2.02" height="12.28"/><rect class="cls-7" x="723.65" y="319.31" width="2.02" height="12.28"/><rect class="cls-7" x="770.68" y="319.23" width="2.02" height="12.28"/><rect class="cls-7" x="764.95" y="319.23" width="2.02" height="12.28"/><rect class="cls-7" x="776.4" y="319.23" width="2.02" height="12.28"/><rect class="cls-7" x="403.84" y="319.4" width="2.02" height="12.37" transform="translate(809.7 651.16) rotate(180)"/><rect class="cls-7" x="392.39" y="319.4" width="2.02" height="12.37" transform="translate(786.8 651.16) rotate(180)"/><rect class="cls-7" x="398.12" y="319.4" width="2.02" height="12.37" transform="translate(798.25 651.16) rotate(180)"/><rect class="cls-7" x="380.94" y="319.4" width="2.02" height="12.37" transform="translate(763.9 651.16) rotate(180)"/><rect class="cls-7" x="386.66" y="319.4" width="2.02" height="12.37" transform="translate(775.35 651.16) rotate(180)"/><rect class="cls-7" x="303.07" y="319.31" width="2.02" height="12.37" transform="translate(608.17 650.99) rotate(180)"/><rect class="cls-7" x="308.8" y="319.31" width="2.02" height="12.37" transform="translate(619.62 650.99) rotate(180)"/><rect class="cls-7" x="291.62" y="319.31" width="2.02" height="12.37" transform="translate(585.26 650.99) rotate(180)"/><rect class="cls-7" x="297.35" y="319.31" width="2.02" height="12.37" transform="translate(596.72 650.99) rotate(180)"/><rect class="cls-7" x="285.9" y="319.31" width="2.02" height="12.37" transform="translate(573.81 650.99) rotate(180)"/><rect class="cls-7" x="261.83" y="319.22" width="2.02" height="12.37" transform="translate(525.68 650.82) rotate(180)"/><rect class="cls-7" x="250.38" y="319.22" width="2.02" height="12.37" transform="translate(502.78 650.82) rotate(180)"/><rect class="cls-7" x="256.1" y="319.22" width="2.02" height="12.37" transform="translate(514.23 650.82) rotate(180)"/><rect class="cls-7" x="209.07" y="319.31" width="2.02" height="12.37" transform="translate(420.17 650.99) rotate(180)"/><rect class="cls-7" x="214.8" y="319.31" width="2.02" height="12.37" transform="translate(431.62 650.99) rotate(180)"/><rect class="cls-7" x="203.35" y="319.31" width="2.02" height="12.37" transform="translate(408.72 650.99) rotate(180)"/><rect class="cls-3" x="458.98" y="321.46" width="30.48" height="33.31" rx="1.59"/><rect class="cls-8" x="460.84" y="321.46" width="28.63" height="32.02" rx="1.59"/><path class="cls-9" d="M484.12,321.46v.84H462.37c-.85,0-1.53,1.07-1.53,2.38v5.38h23.28v22.73h5c.22,0,.39-.27.39-.6V323.85c0-1.32-.68-2.39-1.53-2.39Z"/><rect class="cls-7" x="460.84" y="321.46" width="28.63" height="2.64" rx="0.67"/><rect class="cls-7" x="460.84" y="350.85" width="28.63" height="2.64" rx="0.67"/><rect class="cls-7" x="476.55" y="336.63" width="24.15" height="1.69" rx="0.67" transform="translate(826.1 -151.15) rotate(90)"/><rect class="cls-7" x="449.61" y="336.81" width="24.15" height="1.69" rx="0.67" transform="translate(799.34 -124.03) rotate(90)"/><rect class="cls-3" x="493.03" y="321.18" width="30.48" height="33.31" rx="1.59"/><rect class="cls-8" x="494.89" y="321.18" width="28.63" height="32.02" rx="1.59"/><path class="cls-9" d="M518.17,321.18V322H496.41c-.84,0-1.52,1.07-1.52,2.38v5.37h23.28V352.5h5c.21,0,.39-.26.39-.59V323.57c0-1.32-.68-2.39-1.53-2.39Z"/><rect class="cls-7" x="494.89" y="321.18" width="28.63" height="2.64" rx="0.67"/><rect class="cls-7" x="494.89" y="350.57" width="28.63" height="2.64" rx="0.67"/><rect class="cls-7" x="510.6" y="336.35" width="24.15" height="1.69" rx="0.67" transform="translate(859.87 -185.48) rotate(90)"/><rect class="cls-7" x="483.66" y="336.53" width="24.15" height="1.69" rx="0.67" transform="translate(833.1 -158.36) rotate(90)"/><rect class="cls-3" x="526.87" y="321.18" width="30.48" height="33.31" rx="1.59"/><rect class="cls-8" x="528.73" y="321.18" width="28.63" height="32.02" rx="1.59"/><path class="cls-9" d="M552,321.18V322H530.26c-.85,0-1.53,1.07-1.53,2.38v5.37H552V352.5h5c.22,0,.39-.26.39-.59V323.57c0-1.32-.68-2.39-1.53-2.39Z"/><rect class="cls-7" x="528.73" y="321.18" width="28.63" height="2.64" rx="0.67"/><rect class="cls-7" x="528.73" y="350.57" width="28.63" height="2.64" rx="0.67"/><rect class="cls-7" x="544.44" y="336.35" width="24.15" height="1.69" rx="0.67" transform="translate(893.71 -219.32) rotate(90)"/><rect class="cls-7" x="517.5" y="336.53" width="24.15" height="1.69" rx="0.67" transform="translate(866.95 -192.2) rotate(90)"/><rect class="cls-3" x="576.77" y="321.46" width="27.35" height="32.37" rx="1.66"/><rect class="cls-8" x="578.43" y="321.46" width="25.69" height="31.12" rx="1.66"/><path class="cls-9" d="M599.32,321.46v.81H579.8c-.76,0-1.37,1-1.37,2.32v5.22h20.89V351.9h4.46c.19,0,.35-.26.35-.58V323.77c0-1.28-.62-2.31-1.37-2.31Z"/><rect class="cls-7" x="578.43" y="321.46" width="25.69" height="2.56" rx="0.65"/><rect class="cls-7" x="578.43" y="350.02" width="25.69" height="2.56" rx="0.65"/><rect class="cls-7" x="591.63" y="336.26" width="23.47" height="1.52" rx="0.65" transform="translate(940.38 -266.34) rotate(90)"/><rect class="cls-7" x="567.45" y="336.43" width="23.47" height="1.52" rx="0.65" transform="translate(916.38 -241.99) rotate(90)"/><rect class="cls-3" x="607.13" y="321.46" width="27.35" height="32.37" rx="1.66"/><rect class="cls-8" x="608.79" y="321.46" width="25.69" height="31.12" rx="1.66"/><path class="cls-9" d="M629.68,321.46v.81H610.16c-.76,0-1.37,1-1.37,2.32v5.22h20.89V351.9h4.46c.19,0,.35-.26.35-.58V323.77c0-1.28-.61-2.31-1.37-2.31Z"/><rect class="cls-7" x="608.79" y="321.46" width="25.69" height="2.56" rx="0.65"/><rect class="cls-7" x="608.79" y="350.02" width="25.69" height="2.56" rx="0.65"/><rect class="cls-7" x="621.99" y="336.26" width="23.47" height="1.52" rx="0.65" transform="translate(970.74 -296.71) rotate(90)"/><rect class="cls-7" x="597.82" y="336.43" width="23.47" height="1.52" rx="0.65" transform="translate(946.74 -272.36) rotate(90)"/><rect class="cls-3" x="637.68" y="321.18" width="27.35" height="32.37" rx="1.66"/><rect class="cls-8" x="639.34" y="321.18" width="25.69" height="31.12" rx="1.66"/><path class="cls-9" d="M660.23,321.18V322H640.71c-.76,0-1.37,1-1.37,2.31v5.22h20.89v22.09h4.46c.19,0,.35-.26.35-.58V323.5c0-1.28-.62-2.32-1.37-2.32Z"/><rect class="cls-7" x="639.34" y="321.18" width="25.69" height="2.56" rx="0.65"/><rect class="cls-7" x="639.34" y="349.74" width="25.69" height="2.56" rx="0.65"/><rect class="cls-7" x="652.54" y="335.98" width="23.47" height="1.52" rx="0.65" transform="translate(1001.01 -327.53) rotate(90)"/><rect class="cls-7" x="628.36" y="336.16" width="23.47" height="1.52" rx="0.65" transform="translate(977.02 -303.18) rotate(90)"/><rect class="cls-3" x="668.04" y="321.18" width="27.35" height="32.37" rx="1.66"/><rect class="cls-8" x="669.7" y="321.18" width="25.69" height="31.12" rx="1.66"/><path class="cls-9" d="M690.59,321.18V322H671.07c-.76,0-1.37,1-1.37,2.31v5.22h20.89v22.09H695c.19,0,.35-.26.35-.58V323.5c0-1.28-.61-2.32-1.37-2.32Z"/><rect class="cls-7" x="669.7" y="321.18" width="25.69" height="2.56" rx="0.65"/><rect class="cls-7" x="669.7" y="349.74" width="25.69" height="2.56" rx="0.65"/><rect class="cls-7" x="682.9" y="335.98" width="23.47" height="1.52" rx="0.65" transform="translate(1031.37 -357.89) rotate(90)"/><rect class="cls-7" x="658.73" y="336.16" width="23.47" height="1.52" rx="0.65" transform="translate(1007.38 -333.54) rotate(90)"/><rect class="cls-3" x="718.93" y="321.18" width="27.35" height="32.49" rx="1.66"/><rect class="cls-8" x="720.59" y="321.18" width="25.69" height="31.23" rx="1.66"/><path class="cls-9" d="M741.48,321.18V322H722c-.75,0-1.37,1-1.37,2.32v5.24h20.89v22.17h4.45c.2,0,.35-.26.35-.58V323.51c0-1.29-.61-2.33-1.37-2.33Z"/><rect class="cls-7" x="720.59" y="321.18" width="25.69" height="2.57" rx="0.65"/><rect class="cls-7" x="720.59" y="349.84" width="25.69" height="2.57" rx="0.65"/><rect class="cls-7" x="733.75" y="336.04" width="23.55" height="1.52" rx="0.65" transform="translate(1082.32 -408.73) rotate(90)"/><rect class="cls-7" x="709.58" y="336.21" width="23.55" height="1.52" rx="0.65" transform="translate(1058.32 -384.38) rotate(90)"/><rect class="cls-3" x="749.29" y="321.18" width="27.35" height="32.49" rx="1.66"/><rect class="cls-8" x="750.95" y="321.18" width="25.69" height="31.23" rx="1.66"/><path class="cls-9" d="M771.84,321.18V322H752.33c-.76,0-1.38,1-1.38,2.32v5.24h20.89v22.17h4.46c.19,0,.34-.26.34-.58V323.51c0-1.29-.61-2.33-1.37-2.33Z"/><rect class="cls-7" x="750.95" y="321.18" width="25.69" height="2.57" rx="0.65"/><rect class="cls-7" x="750.95" y="349.84" width="25.69" height="2.57" rx="0.65"/><rect class="cls-7" x="764.11" y="336.04" width="23.55" height="1.52" rx="0.65" transform="translate(1112.68 -439.09) rotate(90)"/><rect class="cls-7" x="739.94" y="336.21" width="23.55" height="1.52" rx="0.65" transform="translate(1088.69 -414.74) rotate(90)"/><rect class="cls-3" x="285.87" y="321.46" width="27.35" height="32.41" rx="1.66"/><rect class="cls-8" x="287.54" y="321.46" width="25.69" height="31.16" rx="1.66"/><path class="cls-9" d="M308.42,321.46v.81H288.91c-.76,0-1.37,1-1.37,2.32v5.23h20.88v22.12h4.46c.19,0,.34-.26.34-.59V323.78c0-1.29-.62-2.32-1.38-2.32Z"/><rect class="cls-7" x="287.54" y="321.46" width="25.69" height="2.57" rx="0.65"/><rect class="cls-7" x="287.54" y="350.05" width="25.69" height="2.57" rx="0.65"/><rect class="cls-7" x="300.72" y="336.28" width="23.5" height="1.52" rx="0.65" transform="translate(649.5 24.57) rotate(90)"/><rect class="cls-7" x="276.55" y="336.45" width="23.5" height="1.52" rx="0.65" transform="translate(625.51 48.92) rotate(90)"/><rect class="cls-3" x="316.24" y="321.46" width="27.35" height="32.41" rx="1.66"/><rect class="cls-8" x="317.9" y="321.46" width="25.69" height="31.16" rx="1.66"/><path class="cls-9" d="M338.78,321.46v.81H319.27c-.76,0-1.37,1-1.37,2.32v5.23h20.88v22.12h4.46c.19,0,.34-.26.34-.59V323.78c0-1.29-.62-2.32-1.37-2.32Z"/><rect class="cls-7" x="317.9" y="321.46" width="25.69" height="2.57" rx="0.65"/><rect class="cls-7" x="317.9" y="350.05" width="25.69" height="2.57" rx="0.65"/><rect class="cls-7" x="331.08" y="336.28" width="23.5" height="1.52" rx="0.65" transform="translate(679.87 -5.79) rotate(90)"/><rect class="cls-7" x="306.91" y="336.45" width="23.5" height="1.52" rx="0.65" transform="translate(655.87 18.56) rotate(90)"/><rect class="cls-3" x="346.78" y="321.18" width="27.35" height="32.41" rx="1.66"/><rect class="cls-8" x="348.45" y="321.18" width="25.69" height="31.16" rx="1.66"/><path class="cls-9" d="M369.33,321.18V322H349.82c-.76,0-1.37,1-1.37,2.32v5.22h20.88v22.12h4.46c.19,0,.34-.26.34-.58V323.5c0-1.28-.62-2.32-1.38-2.32Z"/><rect class="cls-7" x="348.45" y="321.18" width="25.69" height="2.57" rx="0.65"/><rect class="cls-7" x="348.45" y="349.78" width="25.69" height="2.57" rx="0.65"/><rect class="cls-7" x="361.63" y="336" width="23.5" height="1.52" rx="0.65" transform="translate(710.14 -36.62) rotate(90)"/><rect class="cls-7" x="337.46" y="336.18" width="23.5" height="1.52" rx="0.65" transform="translate(686.14 -12.27) rotate(90)"/><rect class="cls-3" x="377.15" y="321.18" width="27.35" height="32.41" rx="1.66"/><rect class="cls-8" x="378.81" y="321.18" width="25.69" height="31.16" rx="1.66"/><path class="cls-9" d="M399.69,321.18V322H380.18c-.76,0-1.37,1-1.37,2.32v5.22h20.88v22.12h4.46c.19,0,.34-.26.34-.58V323.5c0-1.28-.62-2.32-1.37-2.32Z"/><rect class="cls-7" x="378.81" y="321.18" width="25.69" height="2.57" rx="0.65"/><rect class="cls-7" x="378.81" y="349.78" width="25.69" height="2.57" rx="0.65"/><rect class="cls-7" x="391.99" y="336" width="23.5" height="1.52" rx="0.65" transform="translate(740.5 -66.98) rotate(90)"/><rect class="cls-7" x="367.82" y="336.18" width="23.5" height="1.52" rx="0.65" transform="translate(716.5 -42.63) rotate(90)"/><rect class="cls-3" x="203.35" y="321.18" width="27.35" height="32.53" rx="1.66"/><rect class="cls-8" x="205.01" y="321.18" width="25.69" height="31.27" rx="1.66"/><path class="cls-9" d="M225.9,321.18V322H206.38c-.76,0-1.37,1-1.37,2.33v5.24H225.9v22.2h4.46c.19,0,.35-.26.35-.59V323.51c0-1.29-.61-2.33-1.37-2.33Z"/><rect class="cls-7" x="205.01" y="321.18" width="25.69" height="2.57" rx="0.65"/><rect class="cls-7" x="205.01" y="349.88" width="25.69" height="2.57" rx="0.65"/><rect class="cls-7" x="218.15" y="336.06" width="23.58" height="1.52" rx="0.65" transform="translate(566.76 106.87) rotate(90)"/><rect class="cls-7" x="193.98" y="336.23" width="23.58" height="1.52" rx="0.65" transform="translate(542.76 131.22) rotate(90)"/><rect class="cls-3" x="233.71" y="321.18" width="27.35" height="32.53" rx="1.66"/><rect class="cls-8" x="235.37" y="321.18" width="25.69" height="31.27" rx="1.66"/><path class="cls-9" d="M256.26,321.18V322H236.74c-.75,0-1.37,1-1.37,2.33v5.24h20.89v22.2h4.45c.19,0,.35-.26.35-.59V323.51c0-1.29-.61-2.33-1.37-2.33Z"/><rect class="cls-7" x="235.37" y="321.18" width="25.69" height="2.57" rx="0.65"/><rect class="cls-7" x="235.37" y="349.88" width="25.69" height="2.57" rx="0.65"/><rect class="cls-7" x="248.51" y="336.06" width="23.58" height="1.52" rx="0.65" transform="translate(597.12 76.51) rotate(90)"/><rect class="cls-7" x="224.34" y="336.23" width="23.58" height="1.52" rx="0.65" transform="translate(573.12 100.86) rotate(90)"/><polygon class="cls-10" points="418.19 331.31 418.19 319.27 415.48 319.27 414.57 331.31 409.54 331.31 409.54 356.3 424.13 356.3 424.13 331.31 418.19 331.31"/><rect class="cls-11" x="410.86" y="331.31" width="13.27" height="24.99"/><rect class="cls-11" x="416.27" y="319.27" width="2.46" height="15.86"/><rect class="cls-12" x="416.27" y="319.27" width="0.66" height="11.88"/><rect class="cls-13" x="418.09" y="319.27" width="0.33" height="11.88"/><rect class="cls-12" x="416.27" y="330.49" width="2.46" height="0.83"/><rect class="cls-12" x="410.92" y="331.31" width="1.93" height="24.99"/><rect class="cls-13" x="421.21" y="331.31" width="1.93" height="24.99"/><polygon class="cls-10" points="568.17 331.36 568.17 319.31 565.46 319.31 564.56 331.36 559.52 331.36 559.52 356.35 574.11 356.35 574.11 331.36 568.17 331.36"/><rect class="cls-11" x="560.84" y="331.35" width="13.27" height="24.99"/><rect class="cls-11" x="566.25" y="319.31" width="2.46" height="15.86"/><rect class="cls-12" x="566.25" y="319.31" width="0.66" height="11.88"/><rect class="cls-13" x="568.07" y="319.31" width="0.33" height="11.88"/><rect class="cls-12" x="566.25" y="330.53" width="2.46" height="0.83"/><rect class="cls-12" x="560.9" y="331.35" width="1.93" height="24.99"/><rect class="cls-13" x="571.19" y="331.35" width="1.93" height="24.99"/><polygon class="cls-10" points="708.56 331.36 708.56 319.31 705.86 319.31 704.95 331.36 699.91 331.36 699.91 356.35 714.51 356.35 714.51 331.36 708.56 331.36"/><rect class="cls-11" x="701.24" y="331.35" width="13.27" height="24.99"/><rect class="cls-11" x="706.64" y="319.31" width="2.46" height="15.86"/><rect class="cls-12" x="706.64" y="319.31" width="0.66" height="11.88"/><rect class="cls-13" x="708.47" y="319.31" width="0.33" height="11.88"/><rect class="cls-12" x="706.64" y="330.53" width="2.46" height="0.83"/><rect class="cls-12" x="701.3" y="331.35" width="1.93" height="24.99"/><rect class="cls-13" x="711.59" y="331.35" width="1.93" height="24.99"/><polygon class="cls-10" points="790.08 331.27 790.08 319.23 787.37 319.23 786.47 331.27 781.43 331.27 781.43 356.26 796.02 356.26 796.02 331.27 790.08 331.27"/><rect class="cls-11" x="782.75" y="331.27" width="13.27" height="24.99"/><rect class="cls-11" x="788.16" y="319.23" width="2.46" height="15.86"/><rect class="cls-12" x="788.16" y="319.23" width="0.66" height="11.88"/><rect class="cls-13" x="789.98" y="319.23" width="0.33" height="11.88"/><rect class="cls-12" x="788.16" y="330.45" width="2.46" height="0.83"/><rect class="cls-12" x="782.81" y="331.27" width="1.93" height="24.99"/><rect class="cls-13" x="793.1" y="331.27" width="1.93" height="24.99"/><polygon class="cls-10" points="193.22 331.36 193.22 319.31 190.51 319.31 189.61 331.36 186.9 331.68 185.9 356.35 199.16 356.35 199.16 331.36 193.22 331.36"/><rect class="cls-11" x="185.9" y="331.35" width="13.27" height="24.99"/><rect class="cls-11" x="191.3" y="319.31" width="2.46" height="15.86"/><rect class="cls-12" x="191.3" y="319.31" width="0.66" height="11.88"/><rect class="cls-13" x="193.13" y="319.31" width="0.33" height="11.88"/><rect class="cls-12" x="191.3" y="330.53" width="2.46" height="0.83"/><rect class="cls-12" x="185.96" y="331.35" width="1.93" height="24.99"/><rect class="cls-13" x="196.24" y="331.35" width="1.93" height="24.99"/><polygon class="cls-10" points="275.52 331.27 275.52 319.23 272.81 319.23 271.9 331.27 266.87 331.27 266.87 356.26 281.46 356.26 281.46 331.27 275.52 331.27"/><rect class="cls-11" x="268.19" y="331.27" width="13.27" height="24.99"/><rect class="cls-11" x="273.6" y="319.23" width="2.46" height="15.86"/><rect class="cls-12" x="273.6" y="319.23" width="0.66" height="11.88"/><rect class="cls-13" x="275.42" y="319.23" width="0.33" height="11.88"/><rect class="cls-12" x="273.6" y="330.45" width="2.46" height="0.83"/><rect class="cls-12" x="268.25" y="331.27" width="1.93" height="24.99"/><rect class="cls-13" x="278.54" y="331.27" width="1.93" height="24.99"/><path class="cls-14" d="M493,356.6v.07H190.49S399,394.64,399,392.62c.06-1.86,83.31-2.84,96.3-6.26,13.76,3.62,95.23,4.35,95.29,6.19.06,2,208.52-35.95,208.52-35.95Z"/><path class="cls-15" d="M209.92,356.67H190.49S399,394.64,399,392.62c.06-1.86,83.31-2.84,96.3-6.26,13.76,3.62,95.23,4.35,95.29,6.19.06,2,208.52-35.95,208.52-35.95C584.33,365.93,273.74,358.39,209.92,356.67Z"/><path class="cls-16" d="M905.66,192.56c19.2-4.32,45.1-32.56,45.1-32.56a12,12,0,0,0,2.58-4.28c.85-2.57,0,5.57,0,5.57S936,207.35,905.66,206"/><g class="cls-17"><path class="cls-18" d="M491.06,266.61,54.23,217.3s72.3,82.07,105.51,109.28a14.43,14.43,0,0,0,15,2l1.65-.73,9.82,7.78V308.8a2.72,2.72,0,0,1,2.72-2.72H793.2a2.72,2.72,0,0,1,2.72,2.72v26.82l9.82-7.78,1.65.73a14.43,14.43,0,0,0,15-2C855.6,299.36,927.9,217.3,927.9,217.3Z"/><polygon class="cls-19" points="221.95 351.96 237.49 340.73 147.82 217 132.28 228.23 221.95 351.96"/><polygon class="cls-19" points="259.88 351.44 276.59 342.04 201.52 208.98 184.81 218.38 259.88 351.44"/><polygon class="cls-19" points="301.12 349.42 318.4 341.11 252.07 203.5 234.79 211.8 301.12 349.42"/><rect class="cls-19" x="312.49" y="196.34" width="19.17" height="152.74" transform="translate(714.47 428.06) rotate(161.34)"/><rect class="cls-19" x="358.28" y="201.18" width="19.18" height="152.73" transform="translate(794.94 450.66) rotate(165.03)"/><rect class="cls-19" x="400.37" y="190.56" width="19.18" height="152.73" transform="translate(860.92 456.52) rotate(169.73)"/><rect class="cls-19" x="444.96" y="202.03" width="19.18" height="152.72" transform="translate(937.99 502.88) rotate(173.42)"/><rect class="cls-19" x="481.29" y="208.12" width="19.18" height="152.72" transform="translate(977.44 576.29) rotate(-179.14)"/><polygon class="cls-19" points="758.15 351.96 742.62 340.73 832.28 217 847.82 228.23 758.15 351.96"/><polygon class="cls-19" points="720.22 351.44 703.51 342.04 778.59 208.98 795.29 218.38 720.22 351.44"/><polygon class="cls-19" points="678.98 349.42 661.7 341.11 728.03 203.5 745.31 211.8 678.98 349.42"/><rect class="cls-19" x="648.44" y="196.34" width="19.17" height="152.74" transform="translate(121.83 -196.18) rotate(18.66)"/><rect class="cls-19" x="602.64" y="201.18" width="19.18" height="152.73" transform="translate(92.45 -148.71) rotate(14.97)"/><rect class="cls-19" x="560.56" y="190.56" width="19.18" height="152.73" transform="translate(56.7 -97.34) rotate(10.27)"/><rect class="cls-19" x="515.96" y="202.03" width="19.18" height="152.72" transform="translate(35.34 -58.36) rotate(6.58)"/></g><path class="cls-14" d="M183.82,200.87a600.25,600.25,0,0,0,61.23-1.45l-.63,13.14-168-6.5-3.73-.34V193.11s9.45,1.14,24.58,2.56"/><path class="cls-14" d="M167.83,200.39c3.57.14,7.17.25,10.78.35"/><path class="cls-14" d="M149.49,199.55c4.46.24,9,.46,13.62.66"/><path class="cls-14" d="M133.87,198.61q4.65.3,9.5.59"/><path class="cls-14" d="M119.1,197.54c2.84.22,5.77.44,8.77.65"/><path class="cls-14" d="M103.11,196.2c3.06.28,6.3.56,9.7.84"/><path class="cls-14" d="M810.5,201.62a480.06,480.06,0,0,1-54.75-1.45l-.94,7.26H909.17l.65-13.57s-8.45,1.14-22,2.56"/><path class="cls-14" d="M824.79,201.14c-3.19.14-6.41.25-9.64.35"/><path class="cls-14" d="M841.18,200.3c-4,.24-8,.46-12.17.66"/><path class="cls-14" d="M855.15,199.35c-2.77.21-5.61.41-8.49.6"/><path class="cls-14" d="M868.36,198.29c-2.54.22-5.16.44-7.84.65"/><path class="cls-14" d="M882.66,197c-2.74.28-5.64.55-8.68.83"/><path class="cls-20" d="M740.89,198.33,715.07,142s-71.59,15.95-223.34,15.27v0C338,158.11,269.19,142,269.19,142l-25.82,56.36c-98.21,15.1-168.93-7-168.93-7v14.07l60.61,33.46H849.21l60.61-33.46V191.29S839.1,213.43,740.89,198.33Z"/><path class="cls-21" d="M718.1,148.59s-201.34,31.78-442,0c0,0,183.79,38.63,444.23,4.82Z"/><path class="cls-21" d="M720.31,153.41l21.17,46.65s95,17.24,168.34-8.77c0,0-48.84,27.31-172.33,12.19l-22.6-49.37Z"/><path class="cls-16" d="M75.82,191.7c-19.2-4.31-45.1-32.55-45.1-32.55a12,12,0,0,1-2.57-4.29c-.86-2.57,0,5.57,0,5.57s17.33,46.06,47.67,44.68"/><path class="cls-21" d="M74.44,195.46s86.94,19.39,170.19,6l24.25-52.89-22.82,55.46s-85,13.25-171.62-6.56Z"/><path class="cls-21" d="M36.72,170.29S53,190,64.15,194.3s13.72,3.43,13.72,3.43l-3.43-2.57S56.44,192.58,36.72,170.29Z"/><path class="cls-10" d="M877.06,233.94,489.53,258.88l0,.39,0-.39L102,233.94l23.49,13s110.88,32,362.66,34.94v0l1.41,0,1.4,0v0C742.69,278.94,858.53,246,858.53,246Z"/><path class="cls-22" d="M185.9,306.08s-21.22-12.68-66.27-66l-65.4-22.8,92.64,101.58s15.86,17.59,27.87,9.69l11.47,7.05Z"/><path class="cls-22" d="M796.17,308.21s22.46-15,67.5-68.28L927.9,217.3,893,255.89l-58.87,62.24s-15.33,17.13-26.8,12.57l-11.47,7.05Z"/><path class="cls-23" d="M492.71,276.43c34.54-.38,329.6-5.13,435.42-59.13l-9.59-13.45s-117.78,21.52-188.68,6.72l-20.23-44.39s-135.18,13.58-219,12.62v-.06l-2.91,0h0c-74.07.52-215.28-12.58-215.28-12.58l-20.22,44.39c-70.9,14.8-188.47-7.36-188.47-7.36L54,217.3c105.81,54,400.87,58.75,435.42,59.13v0l1.66,0,1.66,0Z"/><rect class="cls-7" x="487.68" y="186.29" width="4.37" height="83.88"/><rect class="cls-7" x="498.06" y="186.29" width="2.19" height="83.88"/><rect class="cls-7" x="511.54" y="186.34" width="4.37" height="83.88" transform="translate(-2.98 6.83) rotate(-0.76)"/><rect class="cls-7" x="521.92" y="186.22" width="2.19" height="83.88" transform="translate(-2.98 6.95) rotate(-0.76)"/><rect class="cls-7" x="535.8" y="186.44" width="4.37" height="83.88" transform="translate(-5.37 13.08) rotate(-1.39)"/><rect class="cls-7" x="546.17" y="186.22" width="2.19" height="83.88" transform="translate(-5.36 13.3) rotate(-1.39)"/><rect class="cls-7" x="560.54" y="186.7" width="4.37" height="83.88" transform="translate(-13.11 35.38) rotate(-3.56)"/><rect class="cls-7" x="570.9" y="186.12" width="2.19" height="83.88" transform="translate(-13.05 35.93) rotate(-3.56)"/><rect class="cls-7" x="585" y="186.54" width="4.37" height="83.88" transform="translate(-15.96 46.27) rotate(-4.45)"/><rect class="cls-7" x="595.35" y="185.82" width="2.19" height="83.88" transform="translate(-15.87 46.95) rotate(-4.45)"/><rect class="cls-7" x="608.8" y="184" width="4.37" height="83.88" transform="translate(-19.56 62.36) rotate(-5.75)"/><rect class="cls-7" x="619.13" y="183.07" width="2.19" height="83.88" transform="translate(-19.43 63.29) rotate(-5.75)"/><rect class="cls-7" x="632.97" y="181.99" width="4.37" height="83.88" transform="translate(-20.94 71.94) rotate(-6.38)"/><rect class="cls-7" x="643.29" y="180.96" width="2.19" height="83.88" transform="translate(-20.77 72.96) rotate(-6.38)"/><rect class="cls-7" x="656.23" y="180.01" width="4.37" height="83.88" transform="translate(-21.01 76.52) rotate(-6.55)"/><rect class="cls-7" x="666.55" y="178.95" width="2.19" height="83.88" transform="translate(-20.83 77.56) rotate(-6.55)"/><rect class="cls-7" x="680.37" y="177.66" width="4.37" height="83.88" transform="translate(-22.08 86.94) rotate(-7.17)"/><rect class="cls-7" x="690.67" y="176.5" width="2.19" height="83.88" transform="translate(-21.86 88.07) rotate(-7.17)"/><rect class="cls-7" x="705.33" y="175.87" width="4.37" height="83.88" transform="translate(-21.66 90.06) rotate(-7.17)"/><rect class="cls-7" x="715.64" y="174.71" width="2.19" height="83.88" transform="translate(-21.44 91.17) rotate(-7.17)"/><rect class="cls-7" x="733.53" y="217" width="4.37" height="41.94" transform="translate(-23.95 93.72) rotate(-7.17)"/><rect class="cls-7" x="743.84" y="215.84" width="2.19" height="41.94" transform="translate(-23.74 94.88) rotate(-7.17)"/><rect class="cls-7" x="757.55" y="217.75" width="4.37" height="37.84" transform="translate(-23.61 96.71) rotate(-7.17)"/><rect class="cls-7" x="767.85" y="216.59" width="2.19" height="37.84" transform="translate(-23.38 97.81) rotate(-7.17)"/><rect class="cls-7" x="781.63" y="218.22" width="3.49" height="33.51" transform="translate(-28.9 139.62) rotate(-10)"/><rect class="cls-7" x="789.81" y="216.93" width="1.75" height="33.51" transform="matrix(0.98, -0.17, 0.17, 0.98, -28.58, 140.93)"/><rect class="cls-7" x="800.74" y="217.88" width="3.49" height="30.23" transform="translate(-28.27 142.93) rotate(-10)"/><rect class="cls-7" x="808.92" y="216.59" width="1.75" height="30.23" transform="translate(-27.93 144.14) rotate(-10)"/><rect class="cls-7" x="822.68" y="215.82" width="3.11" height="29.85" transform="translate(-27.55 146.66) rotate(-10)"/><rect class="cls-7" x="829.97" y="214.68" width="1.56" height="29.85" transform="translate(-27.25 147.77) rotate(-10)"/><rect class="cls-7" x="839.71" y="215.52" width="3.11" height="26.93" transform="translate(-26.98 149.59) rotate(-10)"/><rect class="cls-7" x="846.99" y="214.37" width="1.56" height="26.93" transform="translate(-26.69 150.7) rotate(-10)"/><rect class="cls-7" x="860.22" y="211.83" width="3.11" height="25.19" transform="matrix(0.98, -0.17, 0.17, 0.98, -25.88, 153.07)"/><rect class="cls-7" x="867.5" y="210.69" width="1.56" height="25.19" transform="translate(-25.58 154.2) rotate(-10)"/><rect class="cls-7" x="877.21" y="211.12" width="3.11" height="22.73" transform="matrix(0.98, -0.17, 0.17, 0.98, -25.28, 155.99)"/><rect class="cls-7" x="884.49" y="209.97" width="1.56" height="22.73" transform="translate(-24.99 157.11) rotate(-10)"/><rect class="cls-7" x="895.21" y="208.73" width="3.11" height="19.04" transform="translate(-25.63 250.13) rotate(-15.66)"/><rect class="cls-7" x="902.35" y="206.95" width="1.56" height="19.04" transform="translate(-24.91 251.8) rotate(-15.66)"/><rect class="cls-7" x="911.85" y="205.81" width="3.11" height="17.18" transform="translate(-23.97 254.43) rotate(-15.66)"/><rect class="cls-7" x="463.03" y="182.41" width="4.37" height="88.78" transform="translate(8.05 -15.81) rotate(1.96)"/><rect class="cls-7" x="473.4" y="182.73" width="2.19" height="88.78" transform="translate(8.07 -16.14) rotate(1.97)"/><rect class="cls-7" x="438.82" y="181.08" width="4.37" height="90.1" transform="translate(12.19 -22.35) rotate(2.94)"/><rect class="cls-7" x="449.19" y="181.55" width="2.19" height="90.1" transform="translate(12.24 -22.84) rotate(2.95)"/><rect class="cls-7" x="414.22" y="180.84" width="4.37" height="90.36" transform="translate(17.76 -30.02) rotate(4.22)"/><rect class="cls-7" x="424.57" y="181.52" width="2.19" height="90.36" transform="translate(17.83 -30.7) rotate(4.22)"/><rect class="cls-7" x="389.9" y="178.3" width="4.37" height="92.65" transform="translate(19.3 -30.76) rotate(4.61)"/><rect class="cls-7" x="400.25" y="179.04" width="2.19" height="92.65" transform="translate(19.4 -31.5) rotate(4.61)"/><rect class="cls-7" x="366.2" y="176.04" width="4.37" height="92.24" transform="translate(21.74 -32.6) rotate(5.22)"/><rect class="cls-7" x="376.54" y="176.89" width="2.19" height="92.24" transform="translate(21.85 -33.43) rotate(5.22)"/><rect class="cls-7" x="341.97" y="175.98" width="4.37" height="90.19" transform="translate(24.71 -34.41) rotate(5.94)"/><rect class="cls-7" x="352.3" y="176.94" width="2.19" height="90.19" transform="translate(24.86 -35.36) rotate(5.94)"/><rect class="cls-7" x="318.7" y="172.83" width="4.37" height="93.09" transform="translate(24.73 -32.39) rotate(6.01)"/><rect class="cls-7" x="329.02" y="173.8" width="2.19" height="93.09" transform="translate(24.88 -33.35) rotate(6.01)"/><rect class="cls-7" x="294.58" y="168.15" width="4.37" height="98.38" transform="translate(25.22 -30.79) rotate(6.2)"/><rect class="cls-7" x="304.91" y="169.15" width="2.19" height="98.38" transform="translate(25.39 -31.79) rotate(6.2)"/><rect class="cls-7" x="269.65" y="166.42" width="4.37" height="97.78" transform="translate(23.36 -26.59) rotate(5.85)"/><rect class="cls-7" x="279.98" y="167.36" width="2.19" height="97.78" transform="translate(23.49 -27.51) rotate(5.85)"/><polygon class="cls-7" points="247.82 260.21 250.93 260.21 259.4 195.42 255.56 203.85 247.82 260.21"/><polygon class="cls-7" points="237.38 258.64 241.38 260.21 247.82 211.25 243.27 211.98 237.38 258.64"/><rect class="cls-7" x="217.22" y="215.93" width="4.37" height="39.67" transform="translate(40.32 -31.91) rotate(9.16)"/><rect class="cls-7" x="227.48" y="217.41" width="2.19" height="39.67" transform="matrix(0.99, 0.16, -0.16, 0.99, 40.68, -33.36)"/><rect class="cls-7" x="195.43" y="217.4" width="3.49" height="36.46" transform="translate(37.74 -27.01) rotate(8.66)"/><rect class="cls-7" x="203.64" y="218.52" width="1.75" height="36.46" transform="translate(37.99 -28.1) rotate(8.66)"/><rect class="cls-7" x="176.23" y="217.92" width="3.49" height="32.46" transform="translate(40.68 -25.95) rotate(9.41)"/><rect class="cls-7" x="184.42" y="219.13" width="1.75" height="32.46" transform="translate(40.96 -27.12) rotate(9.41)"/><rect class="cls-7" x="156.9" y="216.62" width="3.11" height="29.85" transform="translate(43.72 -24.5) rotate(10.25)"/><rect class="cls-7" x="164.18" y="217.79" width="1.56" height="29.85" transform="translate(44.02 -25.63) rotate(10.25)"/><rect class="cls-7" x="138.56" y="215.58" width="3.11" height="26.93" transform="translate(49.14 -23.58) rotate(11.65)"/><rect class="cls-7" x="145.81" y="216.92" width="1.56" height="26.93" transform="translate(49.54 -24.86) rotate(11.65)"/><rect class="cls-7" x="119.02" y="212.64" width="3.11" height="25.19" transform="translate(47.31 -19.51) rotate(11.5)"/><rect class="cls-7" x="126.27" y="213.96" width="1.56" height="25.19" transform="translate(47.7 -20.78) rotate(11.5)"/><rect class="cls-7" x="101.15" y="210.55" width="3.11" height="23.17" transform="translate(62.86 -19.33) rotate(15.44)"/><rect class="cls-7" x="108.3" y="212.31" width="1.56" height="23.17" transform="matrix(0.96, 0.27, -0.27, 0.96, 63.59, -20.97)"/><polygon class="cls-7" points="82.79 229.32 79.83 228.35 86.53 207.48 89.92 207.72 82.79 229.32"/><rect class="cls-7" x="90.38" y="208.73" width="1.56" height="22.75" transform="translate(73.34 -17.46) rotate(18.21)"/><polygon class="cls-7" points="65.81 222.32 62.98 221.03 70.57 204.29 73.22 205.04 65.81 222.32"/><polygon class="cls-7" points="71.12 224.74 69.7 224.09 78.25 205.62 79.83 206.66 71.12 224.74"/><path class="cls-24" d="M705.86,179.62l17.45,36.66a8.94,8.94,0,0,0,7,5C826.82,232.7,910,204.72,910,204.72h0c-28.81,4.63-120.57,17.56-179.71,5.21l-20.22-44.39s-135.19,13.58-219,12.62v-.07c-.95,0-1.93,0-2.91,0h0c-74.07.52-215.27-12.58-215.27-12.58C484.09,204.42,705.86,179.62,705.86,179.62Z"/><path class="cls-24" d="M252.71,209.93h0C181.66,224.07,64,203.21,64,203.21c92.17,21.2,154.61,17.15,176.15,14.63A17.11,17.11,0,0,0,252.71,209.93Z"/><path class="cls-16" d="M54.23,217.3c105.81,54,400.87,58.75,435.41,59.13v0l1.67,0,1.66,0v0c34.54-.38,329.6-5.13,435.42-59.13,0,0-145.46,53-450.46,52.89C351.79,270.14,178.66,262.62,54.23,217.3Z"/><path class="cls-23" d="M66.72,203.73C47,200.37,28.15,159.15,28.15,159.15c-4.29,34.29,26.57,58.3,26.57,58.3"/><g class="cls-25"><rect class="cls-7" x="53.9" y="191.65" width="3.11" height="23.17" transform="translate(131.15 6.64) rotate(36.32)"/><rect class="cls-7" x="60" y="195.57" width="1.56" height="23.17" transform="translate(134.52 4.25) rotate(36.32)"/><polygon class="cls-7" points="34.29 202.85 31.88 200.89 45.56 183.78 48.65 185.21 34.29 202.85"/><rect class="cls-7" x="44.61" y="185.84" width="1.56" height="22.75" transform="translate(134.49 15.51) rotate(39.08)"/><polygon class="cls-7" points="23.49 182.55 21.31 180.33 34.36 167.39 36.58 169.04 23.49 182.55"/><polygon class="cls-7" points="27.59 186.69 26.5 185.59 41.07 171.37 42.18 172.91 27.59 186.69"/></g><path class="cls-16" d="M268.7,144.66s10.27,1.56,10.94-.23-1.12-6.47-2.9-8-7.37-3.35-6.47-4.91-.23-3.57-.23-3.57-2.68-.9-.44-3.57-.23-4.47-.23-4.47a7,7,0,0,0-.78,2.79c0,1.34-2,2-2,2s-1.78,0,.67,3.35a3.77,3.77,0,0,1,.45,2.9c-.45,1.56.22,3.79,3.79,5.58,0,0,1.12.89-1.11,2.23S268.7,144.66,268.7,144.66Z"/><path class="cls-16" d="M714.27,144.66s-10.27,1.56-10.94-.23,1.12-6.47,2.91-8,7.36-3.35,6.47-4.91.22-3.57.22-3.57,2.68-.9.45-3.57.22-4.47.22-4.47a7,7,0,0,1,.78,2.79c0,1.34,2,2,2,2s1.79,0-.67,3.35a3.79,3.79,0,0,0-.44,2.9c.44,1.56-.23,3.79-3.8,5.58,0,0-1.11.89,1.12,2.23S714.27,144.66,714.27,144.66Z"/><g class="cls-26"><path class="cls-27" d="M967,373.79H17.24s63.77,53.36,117,78.38l-.1,5a5.13,5.13,0,0,0,2.73,4.64l12.43,6.61V451.47a3,3,0,0,1,3-3H831.9a3,3,0,0,1,3,3V468.4l12.42-6.61a5.13,5.13,0,0,0,2.73-4.64l-.1-5C903.2,427.15,967,373.79,967,373.79Z"/><polygon class="cls-19" points="214.46 496.87 230.37 485.38 138.57 358.7 122.67 370.19 214.46 496.87"/><polygon class="cls-19" points="253.3 496.33 270.41 486.71 193.54 350.49 176.44 360.11 253.3 496.33"/><polygon class="cls-19" points="295.52 494.27 313.21 485.77 245.3 344.88 227.61 353.38 295.52 494.27"/><rect class="cls-19" x="307.16" y="337.55" width="19.63" height="156.38" transform="translate(750.29 708.22) rotate(161.34)"/><rect class="cls-19" x="354.04" y="342.5" width="19.63" height="156.37" transform="translate(824.02 733.12) rotate(165.03)"/><rect class="cls-19" x="397.13" y="331.63" width="19.63" height="156.36" transform="matrix(-0.98, 0.18, -0.18, -0.98, 880.41, 740.54)"/><rect class="cls-19" x="442.79" y="343.37" width="19.63" height="156.36" transform="translate(950.51 788.48) rotate(173.42)"/><rect class="cls-19" x="479.98" y="349.61" width="19.63" height="156.35" transform="translate(973.13 862.86) rotate(-179.14)"/><polygon class="cls-19" points="763.43 496.87 747.53 485.38 839.32 358.7 855.23 370.19 763.43 496.87"/><polygon class="cls-19" points="724.59 496.33 707.49 486.71 784.35 350.49 801.46 360.11 724.59 496.33"/><polygon class="cls-19" points="682.38 494.27 664.68 485.77 732.59 344.88 750.28 353.38 682.38 494.27"/><rect class="cls-19" x="651.11" y="337.55" width="19.63" height="156.38" transform="translate(167.73 -189.59) rotate(18.66)"/><rect class="cls-19" x="604.22" y="342.5" width="19.63" height="156.37" transform="translate(129.48 -144.31) rotate(14.97)"/><rect class="cls-19" x="561.13" y="331.63" width="19.63" height="156.36" transform="translate(82.18 -95.2) rotate(10.27)"/><rect class="cls-19" x="515.48" y="343.37" width="19.63" height="156.36" transform="translate(51.74 -57.39) rotate(6.58)"/><polygon class="cls-19" points="811.36 496.55 796.41 483.83 912.33 347.99 927.28 360.7 811.36 496.55"/><polygon class="cls-19" points="180.94 474.7 166.18 487.62 48.39 353.38 63.16 340.46 180.94 474.7"/></g><path class="cls-3" d="M968.42,373.79,492.83,392.48,17.24,373.79s30,40.44,472.62,47.22v.09l3-.05,3,.05V421C938.39,414.23,968.42,373.79,968.42,373.79Z"/><path class="cls-14" d="M22.59,342.37s8.47,1.14,22,2.56v-5.52l5.19,6c2.74.28,5.65.56,8.69.84v-6.07l5.64,6.57q3.81.33,7.85.65v-5.86l5.38,6.28q4.17.3,8.51.59v-6l5.48,6.4q6,.36,12.2.66v-4.75l4.23,4.93q4.8.21,9.66.35v-5.32l4.66,5.45A482,482,0,0,0,177,348.68l.94,23.79L24.39,367.54,18.1,355Z"/><polygon class="cls-14" points="34.81 343.86 22.59 342.37 25.94 330.43 34.81 343.86"/><path class="cls-28" d="M177,348.68l.94,23.79L24.39,367.54,18.1,355C175.43,361,177,348.68,177,348.68Z"/><path class="cls-14" d="M34.77,343.86h0Z"/><polygon class="cls-29" points="25.34 343.26 22.59 342.37 25.94 330.43 25.34 343.26"/><path class="cls-30" d="M22.59,342.37S46.4,351.88,124,352.05c0,0-45.4,4.81-102.69-6.14Z"/><polygon class="cls-30" points="34.81 343.86 25.94 330.43 32.75 343.86 34.81 343.86"/><polygon class="cls-29" points="44.62 344.93 45.99 344.93 44.62 339.41 44.62 344.93"/><polygon class="cls-29" points="58.5 346.3 60.05 346.3 58.5 340.23 58.5 346.3"/><polygon class="cls-29" points="71.99 347.45 73.23 347.74 71.99 341.59 71.99 347.45"/><polygon class="cls-29" points="85.88 348.46 87.27 348.46 85.88 342.41 85.88 348.46"/><polygon class="cls-29" points="103.56 349.47 104.42 349.47 103.56 344.72 103.56 349.47"/><polygon class="cls-29" points="117.45 350 118.56 350 117.45 344.68 117.45 350"/><polygon class="cls-30" points="122.11 350.13 117.45 344.68 121.13 350 122.11 350.13"/><polygon class="cls-30" points="107.79 349.65 103.56 344.72 106.67 349.47 107.79 349.65"/><polygon class="cls-30" points="91.36 348.81 85.88 342.41 90.16 348.68 91.36 348.81"/><polygon class="cls-30" points="77.37 347.87 71.99 341.59 76.34 347.87 77.37 347.87"/><polygon class="cls-30" points="64.14 346.8 58.5 340.23 62.84 346.8 64.14 346.8"/><polygon class="cls-30" points="49.81 345.46 44.62 339.41 48.29 345.44 49.81 345.46"/><path class="cls-14" d="M959,343.62s-8.46,1.15-22,2.56v-5.52l-5.19,6c-2.74.28-5.65.56-8.7.84v-6.07l-5.63,6.57c-2.54.22-5.17.44-7.86.65v-5.86l-5.38,6.28c-2.77.2-5.61.4-8.5.59v-6l-5.49,6.4c-4,.24-8.07.46-12.2.66V346l-4.23,4.93c-3.19.14-6.42.26-9.65.35v-5.32l-4.67,5.45a481.9,481.9,0,0,1-54.85-1.45l-.94,23.79,153.52-4.93,6.29-12.56Z"/><polygon class="cls-14" points="946.82 345.11 959.03 343.62 955.69 331.68 946.82 345.11"/><path class="cls-28" d="M804.66,349.93l-.94,23.79,153.52-4.93,6.29-12.56C806.19,362.26,804.66,349.93,804.66,349.93Z"/><path class="cls-14" d="M946.85,345.11h0Z"/><polygon class="cls-29" points="946.82 345.11 949.72 344.76 955.69 331.68 946.82 345.11"/><polygon class="cls-29" points="931.82 346.71 933.42 346.25 937.01 340.66 931.82 346.71"/><polygon class="cls-29" points="917.49 348.05 919.18 347.61 923.12 341.48 917.49 348.05"/><polygon class="cls-29" points="904.25 349.12 905.61 348.68 909.63 342.84 904.25 349.12"/><polygon class="cls-29" points="890.26 350.06 891.47 349.93 895.75 343.66 890.26 350.06"/><polygon class="cls-29" points="873.83 350.9 874.75 350.9 878.06 345.97 873.83 350.9"/><polygon class="cls-30" points="937.01 346.18 936.87 341.48 936.13 346.25 937.01 346.18"/><polygon class="cls-30" points="923.12 347.55 923.12 341.48 922.09 347.55 923.12 347.55"/><polygon class="cls-30" points="909.63 348.7 909.63 342.84 908.63 348.7 909.63 348.7"/><polygon class="cls-30" points="895.75 349.71 895.75 343.66 895.07 349.71 895.75 349.71"/><polygon class="cls-30" points="878.06 350.72 878.06 345.97 877.15 350.9 878.06 350.72"/><polygon class="cls-30" points="963.52 356.23 959.03 343.62 955.69 331.68 957.5 343.96 961.06 356.58 963.52 356.23"/><path class="cls-30" d="M957.5,344s-18.67,6.94-99.9,9.34c0,0,33.26,2.76,101.2-6.05Z"/><polygon class="cls-29" points="859.51 351.38 860.6 351.38 864.18 345.93 859.51 351.38"/><polygon class="cls-30" points="864.18 351.25 864.18 345.93 863.46 351.38 864.18 351.25"/><g class="cls-31"><path class="cls-23" d="M984.18,363.41l-20.65-7.18s-96.24,12.35-159.29,0c0,0-150.37,10.28-311.27,8.71v.1c-159.5,1.38-307.6-8.74-307.6-8.74C122.32,368.65,18.1,355,18.1,355L0,364.58l19.33,11.69c62.11,28.25,477.31,32.94,477.31,32.94v-.13c41.22-.79,417.05-8.67,475.74-35.36Z"/><rect class="cls-7" x="498.19" y="362.86" width="4.37" height="46.7"/><rect class="cls-7" x="508.57" y="362.86" width="2.19" height="46.7"/><polygon class="cls-7" points="527 409.56 522.62 409.6 521.5 362.9 525.88 362.87 527 409.56"/><polygon class="cls-7" points="535.19 409.5 533 409.52 531.88 362.83 534.07 362.81 535.19 409.5"/><polygon class="cls-7" points="551.71 409.6 547.33 409.66 545.3 362.98 549.67 362.92 551.71 409.6"/><polygon class="cls-7" points="559.9 409.49 557.71 409.52 555.67 362.84 557.86 362.81 559.9 409.49"/><polygon class="cls-7" points="578.04 409.66 573.68 409.81 568.45 363.2 572.82 363.05 578.04 409.66"/><polygon class="cls-7" points="586.22 409.38 584.04 409.45 578.81 362.85 581 362.77 586.22 409.38"/><polygon class="cls-7" points="603.15 409.52 598.79 409.71 592.26 363.16 596.62 362.97 603.15 409.52"/><polygon class="cls-7" points="611.32 409.17 609.14 409.26 602.61 362.71 604.79 362.62 611.32 409.17"/><polygon class="cls-7" points="627.89 408.04 623.54 408.28 615.11 361.82 619.46 361.58 627.89 408.04"/><polygon class="cls-7" points="636.05 407.58 633.87 407.7 625.44 361.24 627.62 361.12 636.05 407.58"/><polygon class="cls-7" points="652.52 406.88 648.17 407.15 638.83 360.74 643.17 360.47 652.52 406.88"/><polygon class="cls-7" points="660.66 406.37 658.49 406.51 649.14 360.1 651.32 359.97 660.66 406.37"/><polygon class="cls-7" points="675.9 405.77 671.56 406.04 661.96 359.65 666.31 359.38 675.9 405.77"/><polygon class="cls-7" points="684.04 405.25 681.87 405.38 672.27 359 674.45 358.86 684.04 405.25"/><polygon class="cls-7" points="700.5 404.42 696.15 404.72 685.65 358.39 689.99 358.09 700.5 404.42"/><polygon class="cls-7" points="708.62 403.85 706.45 404 695.95 357.67 698.12 357.52 708.62 403.85"/><polygon class="cls-7" points="725.47 403.42 721.12 403.72 710.62 357.39 714.96 357.09 725.47 403.42"/><polygon class="cls-7" points="733.59 402.85 731.42 403 720.92 356.67 723.09 356.52 733.59 402.85"/><rect class="cls-7" x="741.19" y="356.43" width="4.37" height="41.94" transform="matrix(0.99, -0.16, 0.16, 0.99, -50.5, 122.85)"/><rect class="cls-7" x="751.45" y="354.96" width="2.19" height="41.94" transform="translate(-50.14 124.26) rotate(-9.14)"/><rect class="cls-7" x="768.07" y="356.4" width="4.37" height="37.84" transform="translate(-40.83 99.11) rotate(-7.17)"/><rect class="cls-7" x="778.37" y="355.24" width="2.19" height="37.84" transform="translate(-40.62 100.26) rotate(-7.17)"/><rect class="cls-7" x="792.15" y="356.87" width="3.49" height="33.51" transform="translate(-52.82 143.55) rotate(-10)"/><rect class="cls-7" x="800.33" y="355.58" width="1.75" height="33.51" transform="translate(-52.49 144.82) rotate(-10)"/><rect class="cls-7" x="811.26" y="356.53" width="3.49" height="30.23" transform="translate(-52.19 146.86) rotate(-10)"/><rect class="cls-7" x="819.44" y="355.24" width="1.75" height="30.23" transform="translate(-51.86 148.11) rotate(-10)"/><rect class="cls-7" x="833.2" y="354.47" width="3.11" height="29.85" transform="translate(-51.47 150.59) rotate(-10)"/><rect class="cls-7" x="840.49" y="353.32" width="1.56" height="29.85" transform="translate(-51.17 151.71) rotate(-10)"/><rect class="cls-7" x="850.22" y="354.16" width="3.11" height="26.93" transform="translate(-50.9 153.52) rotate(-10)"/><rect class="cls-7" x="857.51" y="353.02" width="1.56" height="26.93" transform="translate(-50.6 154.63) rotate(-10)"/><rect class="cls-7" x="871.46" y="350.42" width="3.11" height="33.46" transform="translate(-50.5 157.2) rotate(-10)"/><rect class="cls-7" x="878.74" y="349.27" width="1.56" height="33.46" transform="translate(-50.2 158.31) rotate(-10)"/><rect class="cls-7" x="888.51" y="350.43" width="3.11" height="30.18" transform="translate(-49.96 160.14) rotate(-10)"/><rect class="cls-7" x="895.79" y="349.29" width="1.56" height="30.18" transform="translate(-49.66 161.25) rotate(-10)"/><rect class="cls-7" x="908.64" y="356.89" width="3.11" height="20.74" transform="translate(-65.34 259.26) rotate(-15.66)"/><rect class="cls-7" x="915.78" y="355.11" width="1.56" height="20.74" transform="translate(-64.62 260.91) rotate(-15.66)"/><rect class="cls-7" x="925.31" y="354.12" width="3.11" height="18.71" transform="translate(-63.7 263.61) rotate(-15.66)"/><rect class="cls-7" x="932.45" y="352.33" width="1.56" height="18.71" transform="translate(-62.98 265.26) rotate(-15.66)"/><polygon class="cls-7" points="476.39 410.15 472.02 410.06 475.08 360.67 479.45 360.75 476.39 410.15"/><polygon class="cls-7" points="484.58 410.3 482.4 410.26 485.45 360.87 487.64 360.91 484.58 410.3"/><polygon class="cls-7" points="451.39 410.14 447.02 410.02 451.67 359.93 456.04 360.05 451.39 410.14"/><polygon class="cls-7" points="459.57 410.38 457.39 410.31 462.03 360.22 464.22 360.29 459.57 410.38"/><polygon class="cls-7" points="425.77 410.14 421.41 409.96 428.08 359.8 432.44 359.98 425.77 410.14"/><polygon class="cls-7" points="433.94 410.48 431.76 410.39 438.43 360.23 440.61 360.31 433.94 410.48"/><polygon class="cls-7" points="401.06 410 396.7 409.8 404.16 358.39 408.52 358.59 401.06 410"/><polygon class="cls-7" points="409.22 410.36 407.04 410.27 414.51 358.86 416.69 358.96 409.22 410.36"/><polygon class="cls-7" points="376.87 408.5 372.52 408.28 380.94 357.15 385.29 357.37 376.87 408.5"/><polygon class="cls-7" points="385.03 408.92 382.85 408.81 391.27 357.68 393.45 357.79 385.03 408.92"/><polygon class="cls-7" points="352.17 407.32 347.82 407.06 357.18 357.13 361.53 357.38 352.17 407.32"/><polygon class="cls-7" points="360.32 407.79 358.15 407.66 367.5 357.73 369.68 357.85 360.32 407.79"/><polygon class="cls-7" points="328.69 407.17 324.34 406.91 334.11 355.38 338.46 355.63 328.69 407.17"/><polygon class="cls-7" points="336.84 407.64 334.66 407.52 344.44 355.99 346.61 356.11 336.84 407.64"/><polygon class="cls-7" points="304.13 407.5 299.78 407.23 310.44 352.79 314.79 353.05 304.13 407.5"/><polygon class="cls-7" points="312.27 407.99 310.1 407.86 320.76 353.41 322.94 353.54 312.27 407.99"/><polygon class="cls-7" points="279.53 406.21 275.18 405.96 285.18 351.81 289.53 352.06 279.53 406.21"/><polygon class="cls-7" points="287.68 406.67 285.51 406.55 295.5 352.4 297.68 352.53 287.68 406.67"/><polygon class="cls-7" points="258.41 403.46 261.55 403.19 273.19 342.01 268.92 350.19 258.41 403.46"/><polygon class="cls-7" points="247.93 402.88 251.9 404.01 260.74 357.76 256.1 358.83 247.93 402.88"/><rect class="cls-7" x="227.39" y="348.31" width="4.37" height="56.57" transform="translate(62.86 -31.74) rotate(9.16)"/><rect class="cls-7" x="237.65" y="349.79" width="2.19" height="56.57" transform="translate(63.21 -33.17) rotate(9.16)"/><rect class="cls-7" x="205.44" y="350.89" width="3.49" height="53.48" transform="translate(59.25 -26.9) rotate(8.66)"/><rect class="cls-7" x="213.65" y="352.01" width="1.75" height="53.48" transform="translate(59.5 -27.99) rotate(8.66)"/><rect class="cls-7" x="185.91" y="351.34" width="3.49" height="53.08" transform="translate(64.28 -25.59) rotate(9.41)"/><rect class="cls-7" x="194.1" y="352.55" width="1.75" height="53.08" transform="matrix(0.99, 0.16, -0.16, 0.99, 64.58, -26.77)"/><rect class="cls-7" x="166.64" y="347.53" width="3.11" height="53.89" transform="translate(69.31 -23.95) rotate(10.25)"/><rect class="cls-7" x="173.92" y="348.7" width="1.56" height="53.89" transform="translate(69.6 -25.08) rotate(10.24)"/><rect class="cls-7" x="147.27" y="354.05" width="3.11" height="44.79" transform="translate(79.09 -22.3) rotate(11.65)"/><rect class="cls-7" x="154.52" y="355.38" width="1.56" height="44.79" transform="translate(79.53 -23.59) rotate(11.66)"/><rect class="cls-7" x="127.24" y="351.06" width="3.11" height="48.19" transform="translate(77.34 -18.14) rotate(11.49)"/><rect class="cls-7" x="134.5" y="352.37" width="1.56" height="48.19" transform="translate(77.72 -19.4) rotate(11.49)"/><rect class="cls-7" x="108.26" y="348.73" width="3.11" height="48.73" transform="translate(103.32 -15.77) rotate(15.44)"/><rect class="cls-7" x="115.4" y="350.49" width="1.56" height="48.73" transform="translate(104.01 -17.4) rotate(15.44)"/><polygon class="cls-7" points="84.57 391.93 81.55 391.18 92.12 347.99 95.73 347.14 84.57 391.93"/><rect class="cls-7" x="94.27" y="347.68" width="1.56" height="46.16" transform="translate(92.2 -11.98) rotate(13.95)"/><polygon class="cls-7" points="62.01 393.29 59.25 391.09 70.51 345.99 73.18 346.88 62.01 393.29"/><polygon class="cls-7" points="69.99 389.93 68.58 388.91 78.27 346.81 79.83 348.63 69.99 389.93"/><rect class="cls-7" x="945.68" y="353.34" width="3.11" height="18.71" transform="translate(-62.73 269.06) rotate(-15.66)"/><rect class="cls-7" x="952.82" y="351.56" width="1.56" height="18.71" transform="translate(-62.01 270.68) rotate(-15.65)"/><rect class="cls-7" x="41.26" y="339.48" width="3.11" height="48.73" transform="translate(120.4 5.8) rotate(18.94)"/><rect class="cls-7" x="48.29" y="341.63" width="1.56" height="48.73" transform="matrix(0.95, 0.32, -0.32, 0.95, 121.45, 3.89)"/><polygon class="cls-7" points="16.47 381.11 13.5 380.18 26.69 337.71 30.34 337.08 16.47 381.11"/><rect class="cls-7" x="27.45" y="337.53" width="1.56" height="46.16" transform="translate(109.38 8.12) rotate(17.44)"/></g><path class="cls-16" d="M97.59,384.58S556.52,427,972.38,373.72l11.8-10.31S684,415.18,97.59,384.58Z"/><path class="cls-23" d="M915.07,204.59c19.75-3.36,38.58-44.59,38.58-44.59,4.28,34.3-26.58,58.3-26.58,58.3"/><g class="cls-32"><rect class="cls-7" x="924.78" y="192.51" width="3.11" height="23.17" transform="translate(1793.59 -180.11) rotate(143.68)"/><rect class="cls-7" x="920.23" y="196.42" width="1.56" height="23.17" transform="translate(1786.26 -169.97) rotate(143.68)"/><polygon class="cls-7" points="947.5 203.71 949.91 201.75 936.23 184.63 933.14 186.07 947.5 203.71"/><rect class="cls-7" x="935.62" y="186.7" width="1.56" height="22.75" transform="matrix(-0.78, 0.63, -0.63, -0.78, 1788.14, -238.52)"/><polygon class="cls-7" points="958.3 183.4 960.49 181.19 947.43 168.25 945.21 169.89 958.3 183.4"/><polygon class="cls-7" points="954.2 187.55 955.3 186.44 940.72 172.23 939.61 173.76 954.2 187.55"/></g><ellipse class="cls-33" cx="500.58" cy="113.03" rx="2.2" ry="2.01"/><path class="cls-33" d="M499.32,111.38s.53-.58.31-2.37c0,0,.22-.44,1.11-.44,0,0,.67,0,.89.44a9.56,9.56,0,0,0,.21,2.37"/><path class="cls-34" d="M500.51,115.87a5.66,5.66,0,0,0-4.22,1.76,1.91,1.91,0,0,1,.29-.59,1.21,1.21,0,0,0-.29.59c-.17,1.06,2,1.94,4.37,1.94h.08v-3.69Z"/><path class="cls-34" d="M501,115.87a5.7,5.7,0,0,1,4.23,1.76,2.49,2.49,0,0,0-.29-.59,1.3,1.3,0,0,1,.29.59c.16,1.06-2,1.94-4.38,1.94h-.08v-3.69Z"/><path class="cls-16" d="M498.61,115.82s-3.08-1.65,2.13-2.06v2"/><path class="cls-16" d="M502.88,115.82s3.07-1.65-2.14-2.06v2"/><path class="cls-34" d="M497.12,117.12s3.75-2,7,0l0,0,.12-.24-1.8-1h-3.4l-1.58.45"/><path class="cls-8" d="M496.58,117a5.55,5.55,0,0,1,4.08-1.35h.08v-.4h-.15A4.82,4.82,0,0,0,496.58,117Z"/><path class="cls-8" d="M500.66,115.69a5.55,5.55,0,0,0-4.08,1.35,1.91,1.91,0,0,0-.29.59,5.66,5.66,0,0,1,4.22-1.76h.23v-.19Z"/><path class="cls-8" d="M504.91,117a5.58,5.58,0,0,0-4.09-1.35h-.08v-.4h.15A4.84,4.84,0,0,1,504.91,117Z"/><path class="cls-8" d="M500.82,115.69a5.58,5.58,0,0,1,4.09,1.35,2.49,2.49,0,0,1,.29.59,5.7,5.7,0,0,0-4.23-1.76h-.23v-.19Z"/><path class="cls-34" d="M505,117.91a3.72,3.72,0,0,0-.82-.83c-.36-.18,0-.29,0-.29l.67.51"/><ellipse class="cls-35" cx="500.8" cy="119.28" rx="3.91" ry="3.57"/><path class="cls-34" d="M500.45,124.72a6.38,6.38,0,0,0-5.28,2.93,5.29,5.29,0,0,1,.36-1,2.47,2.47,0,0,0-.36,1c-.2,1.77,2.45,3.23,5.48,3.23h.09v-6.15Z"/><path class="cls-34" d="M501,124.72a6.35,6.35,0,0,1,5.28,2.93,4.67,4.67,0,0,0-.36-1,2.33,2.33,0,0,1,.36,1c.2,1.77-2.45,3.23-5.47,3.23h-.1v-6.15Z"/><ellipse class="cls-36" cx="500.8" cy="129.32" rx="5.38" ry="4.91"/><path class="cls-34" d="M500.63,147.93a7.71,7.71,0,0,0-6.14,2.94,4.23,4.23,0,0,1,.42-1,2.25,2.25,0,0,0-.42,1c-.23,1.77,2.85,3.24,6.36,3.24H501v-6.16Z"/><path class="cls-34" d="M501.3,147.93a7.71,7.71,0,0,1,6.14,2.94,4.69,4.69,0,0,0-.42-1,2.25,2.25,0,0,1,.42,1c.23,1.77-2.85,3.24-6.36,3.24H501v-6.16Z"/><ellipse class="cls-37" cx="500.85" cy="153.43" rx="6.36" ry="5.8"/><path class="cls-34" d="M500.44,135.88a6.67,6.67,0,0,0-5.49,2.93,4.72,4.72,0,0,1,.38-1,2.24,2.24,0,0,0-.38,1c-.21,1.77,2.55,3.23,5.69,3.23h.1v-6.15Z"/><path class="cls-34" d="M501,135.88a6.67,6.67,0,0,1,5.49,2.93,4.2,4.2,0,0,0-.37-1,2.35,2.35,0,0,1,.37,1c.21,1.77-2.55,3.23-5.69,3.23h-.1v-6.15Z"/><ellipse class="cls-38" cx="500.8" cy="141.15" rx="5.38" ry="4.91"/><path class="cls-16" d="M497,147.62s-5.36-3.57,3.73-4.46v4.24"/><path class="cls-16" d="M504.47,147.62s5.36-3.57-3.73-4.46v4.24"/><path class="cls-16" d="M497.44,135.8s-4.74-2.15,3.3-2.68v2.54"/><path class="cls-16" d="M504,135.8s4.74-2.15-3.3-2.68v2.54"/><path class="cls-16" d="M498.07,124.64s-3.84-2.75,2.67-3.44v3.26"/><path class="cls-16" d="M503.41,124.64s3.84-2.75-2.67-3.44v3.26"/><path class="cls-34" d="M495.71,150s5.5-3.42,10.29,0l.19-.42-2.63-1.67h-4.94l-2.3.75"/><path class="cls-8" d="M494.91,149.87c.91-1.25,3.14-2.25,5.94-2.25H501V147h-.22A6.71,6.71,0,0,0,494.91,149.87Z"/><path class="cls-8" d="M500.85,147.62c-2.8,0-5,1-5.94,2.25a4.23,4.23,0,0,0-.42,1,7.71,7.71,0,0,1,6.14-2.94H501v-.31Z"/><path class="cls-8" d="M507,149.87c-.91-1.25-3.14-2.25-5.94-2.25H501V147h.23A6.71,6.71,0,0,1,507,149.87Z"/><path class="cls-8" d="M501.08,147.62c2.8,0,5,1,5.94,2.25a4.69,4.69,0,0,1,.42,1,7.71,7.71,0,0,0-6.14-2.94H501v-.31Z"/><path class="cls-34" d="M496,138s4.92-3.41,9.2,0l.17-.41-2.35-1.67h-4.42l-2.05.75"/><path class="cls-8" d="M495.33,137.82c.81-1.25,2.81-2.25,5.31-2.25h.1v-.66h-.2A5.81,5.81,0,0,0,495.33,137.82Z"/><path class="cls-8" d="M500.64,135.57c-2.5,0-4.5,1-5.31,2.25a4.72,4.72,0,0,0-.38,1,6.67,6.67,0,0,1,5.49-2.93h.3v-.32Z"/><path class="cls-8" d="M506.16,137.82c-.81-1.25-2.81-2.25-5.32-2.25h-.1v-.66h.2A5.84,5.84,0,0,1,506.16,137.82Z"/><path class="cls-8" d="M500.84,135.57c2.51,0,4.51,1,5.32,2.25a4.2,4.2,0,0,1,.37,1,6.67,6.67,0,0,0-5.49-2.93h-.3v-.32Z"/><path class="cls-34" d="M496.22,126.8s4.69-3.38,8.79,0l.06,0,.16-.41L503,124.72h-4.25l-2,.75"/><path class="cls-8" d="M495.53,126.66a6,6,0,0,1,5.12-2.25h.09v-.66h-.19A5.57,5.57,0,0,0,495.53,126.66Z"/><path class="cls-8" d="M500.65,124.41a6,6,0,0,0-5.12,2.25,5.29,5.29,0,0,0-.36,1,6.38,6.38,0,0,1,5.28-2.93h.29v-.32Z"/><path class="cls-8" d="M506,126.66a6,6,0,0,0-5.11-2.25h-.1v-.66h.19A5.57,5.57,0,0,1,506,126.66Z"/><path class="cls-8" d="M500.84,124.41a6,6,0,0,1,5.11,2.25,4.67,4.67,0,0,1,.36,1,6.35,6.35,0,0,0-5.28-2.93h-.29v-.32Z"/><path class="cls-34" d="M506,128.11a5.5,5.5,0,0,0-1-1.38c-.44-.31.06-.48.06-.48l.83.84"/><path class="cls-16" d="M491.37,159.23s-10.27,1.56-10.94-.22,1.12-6.48,2.9-8,7.37-3.35,6.47-4.91.23-3.57.23-3.57,2.68-.89.44-3.57.23-4.46.23-4.46a7,7,0,0,1,.78,2.79c0,1.34,2,2,2,2s1.78,0-.67,3.35a3.77,3.77,0,0,0-.45,2.9c.45,1.57-.22,3.8-3.79,5.58,0,0-1.12.9,1.11,2.24S491.37,159.23,491.37,159.23Z"/><path class="cls-16" d="M510.26,159.23s10.27,1.56,10.94-.22-1.12-6.48-2.9-8-7.37-3.35-6.47-4.91-.23-3.57-.23-3.57-2.68-.89-.44-3.57-.23-4.46-.23-4.46a7,7,0,0,0-.78,2.79c0,1.34-2,2-2,2s-1.78,0,.67,3.35a3.77,3.77,0,0,1,.45,2.9c-.45,1.57.22,3.8,3.79,5.58,0,0,1.12.9-1.11,2.24S510.26,159.23,510.26,159.23Z"/><path class="cls-16" d="M495.7,161.15s-6.93-4.62,4.83-5.78v5.49"/><path class="cls-16" d="M505.36,161.15s6.94-4.62-4.83-5.78v5.49"/><circle class="cls-7" cx="216.76" cy="337.47" r="7.72"/><circle class="cls-7" cx="247.62" cy="337.47" r="7.72"/><circle class="cls-7" cx="299.06" cy="337.47" r="7.72"/><circle class="cls-7" cx="329.92" cy="337.47" r="7.72"/><circle class="cls-7" cx="359.93" cy="337.47" r="7.72"/><circle class="cls-7" cx="390.79" cy="337.47" r="7.72"/><circle class="cls-7" cx="591.41" cy="337.47" r="7.72"/><circle class="cls-7" cx="622.27" cy="337.47" r="7.72"/><circle class="cls-7" cx="652.28" cy="337.47" r="7.72"/><circle class="cls-7" cx="683.14" cy="337.47" r="7.72"/><circle class="cls-7" cx="732.87" cy="337.47" r="7.72"/><circle class="cls-7" cx="763.73" cy="337.47" r="7.72"/><circle class="cls-7" cx="443.09" cy="337.47" r="7.72"/><circle class="cls-7" cx="474.81" cy="337.47" r="7.72"/><circle class="cls-7" cx="509.1" cy="337.47" r="7.72"/><circle class="cls-7" cx="542.54" cy="338.33" r="7.72"/><rect class="cls-39" x="473.45" y="288.6" width="39.11" height="60.59"/><rect class="cls-40" x="480.75" y="295.9" width="24.51" height="46"/><rect class="cls-5" x="149.14" y="448.45" width="685.79" height="111.65"/><rect class="cls-6" x="708.45" y="541.94" width="8.09" height="18.16"/><rect class="cls-6" x="716.54" y="541.94" width="118.39" height="6.73"/><rect class="cls-6" x="829.21" y="468.4" width="5.73" height="91.7"/><rect class="cls-6" x="758.03" y="548.66" width="3.81" height="11.43"/><rect class="cls-6" x="769.37" y="548.66" width="3.81" height="11.43"/><rect class="cls-6" x="780.77" y="548.66" width="3.81" height="11.43"/><rect class="cls-6" x="792.11" y="548.66" width="3.81" height="11.43"/><rect class="cls-6" x="736.07" y="548.66" width="3.81" height="11.43"/><rect class="cls-6" x="747.42" y="548.66" width="3.81" height="11.43"/><rect class="cls-6" x="803.83" y="548.66" width="3.81" height="11.43"/><rect class="cls-6" x="815.18" y="548.66" width="3.81" height="11.43"/><rect class="cls-6" x="725.19" y="548.66" width="3.81" height="11.43"/><rect class="cls-6" x="584.05" y="539.92" width="113.85" height="2.02"/><rect class="cls-6" x="584.05" y="546.65" width="124.4" height="2.02"/><rect class="cls-6" x="584.05" y="553.37" width="124.4" height="2.02"/><rect class="cls-6" x="272.25" y="541.94" width="8.09" height="18.16" transform="translate(552.59 1102.04) rotate(180)"/><rect class="cls-6" x="153.13" y="541.94" width="119.12" height="6.73" transform="translate(425.37 1090.6) rotate(180)"/><rect class="cls-6" x="147.4" y="468.4" width="5.72" height="91.7" transform="translate(300.53 1028.5) rotate(180)"/><rect class="cls-6" x="226.95" y="548.66" width="3.81" height="11.43" transform="translate(457.71 1108.76) rotate(180)"/><rect class="cls-6" x="215.6" y="548.66" width="3.81" height="11.43" transform="translate(435.02 1108.76) rotate(180)"/><rect class="cls-6" x="204.21" y="548.66" width="3.81" height="11.43" transform="translate(412.23 1108.76) rotate(180)"/><rect class="cls-6" x="192.87" y="548.66" width="3.81" height="11.43" transform="translate(389.54 1108.76) rotate(180)"/><rect class="cls-6" x="248.9" y="548.66" width="3.81" height="11.43" transform="translate(501.62 1108.76) rotate(180)"/><rect class="cls-6" x="237.56" y="548.66" width="3.81" height="11.43" transform="translate(478.93 1108.76) rotate(180)"/><rect class="cls-6" x="181.14" y="548.66" width="3.81" height="11.43" transform="translate(366.1 1108.76) rotate(180)"/><rect class="cls-6" x="169.8" y="548.66" width="3.81" height="11.43" transform="translate(343.41 1108.76) rotate(180)"/><rect class="cls-6" x="259.79" y="548.66" width="3.81" height="11.43" transform="translate(523.39 1108.76) rotate(180)"/><rect class="cls-6" x="290.89" y="539.92" width="113.85" height="2.02" transform="translate(695.63 1081.86) rotate(180)"/><rect class="cls-6" x="280.34" y="546.65" width="124.4" height="2.02" transform="translate(685.08 1095.31) rotate(180)"/><rect class="cls-6" x="280.34" y="553.37" width="124.4" height="2.02" transform="translate(685.08 1108.76) rotate(180)"/><rect class="cls-6" x="149.14" y="468.4" width="685.79" height="21.07"/><polygon class="cls-41" points="554.35 556.74 532.8 556.74 527.07 551.02 527.07 556.74 527.07 560.1 536.16 560.1 550.99 560.1 560.08 560.1 560.08 556.74 560.08 551.02 554.35 556.74"/><polygon class="cls-41" points="456 556.74 434.44 556.74 428.71 551.02 428.71 556.74 428.71 560.1 437.81 560.1 452.63 560.1 461.72 560.1 461.72 556.74 461.72 551.02 456 556.74"/><rect class="cls-42" x="574.45" y="468.4" width="1.89" height="21.07"/><rect class="cls-7" x="418.64" y="456.57" width="151.68" height="1.74"/><rect class="cls-7" x="534.48" y="457.56" width="2.02" height="10.84"/><rect class="cls-7" x="528.75" y="457.56" width="2.02" height="10.84"/><rect class="cls-7" x="545.93" y="457.56" width="2.02" height="10.84"/><rect class="cls-7" x="540.21" y="457.56" width="2.02" height="10.84"/><rect class="cls-7" x="557.38" y="457.3" width="2.02" height="11.1"/><rect class="cls-7" x="551.66" y="457.3" width="2.02" height="11.1"/><rect class="cls-7" x="433.43" y="457.69" width="2.02" height="10.84"/><rect class="cls-7" x="427.7" y="457.69" width="2.02" height="10.84"/><rect class="cls-7" x="444.88" y="457.69" width="2.02" height="10.84"/><rect class="cls-7" x="439.16" y="457.69" width="2.02" height="10.84"/><rect class="cls-7" x="456.33" y="457.43" width="2.02" height="11.1"/><rect class="cls-7" x="450.61" y="457.43" width="2.02" height="11.1"/><rect class="cls-7" x="573.64" y="456.52" width="140.76" height="1.74"/><rect class="cls-7" x="679.71" y="457.56" width="2.02" height="10.84"/><rect class="cls-7" x="673.99" y="457.56" width="2.02" height="10.84"/><rect class="cls-7" x="691.16" y="457.56" width="2.02" height="10.84"/><rect class="cls-7" x="685.44" y="457.56" width="2.02" height="10.84"/><rect class="cls-7" x="702.62" y="457.3" width="2.02" height="11.1"/><rect class="cls-7" x="696.89" y="457.3" width="2.02" height="11.1"/><rect class="cls-7" x="588.77" y="457.43" width="2.02" height="10.84"/><rect class="cls-7" x="583.04" y="457.43" width="2.02" height="10.84"/><rect class="cls-7" x="600.22" y="457.43" width="2.02" height="10.84"/><rect class="cls-7" x="594.49" y="457.43" width="2.02" height="10.84"/><rect class="cls-7" x="611.67" y="457.18" width="2.02" height="11.1"/><rect class="cls-7" x="605.94" y="457.18" width="2.02" height="11.1"/><rect class="cls-11" x="714.41" y="448.45" width="3.32" height="19.95"/><rect class="cls-7" x="717.73" y="456.39" width="116.98" height="1.74"/><rect class="cls-7" x="806.19" y="457.56" width="2.02" height="10.84"/><rect class="cls-7" x="800.47" y="457.56" width="2.02" height="10.84"/><rect class="cls-7" x="817.64" y="457.56" width="2.02" height="10.84"/><rect class="cls-7" x="811.92" y="457.56" width="2.02" height="10.84"/><rect class="cls-7" x="823.37" y="457.3" width="2.02" height="11.1"/><rect class="cls-7" x="732.85" y="457.3" width="2.02" height="10.84"/><rect class="cls-7" x="727.13" y="457.3" width="2.02" height="10.84"/><rect class="cls-7" x="744.3" y="457.3" width="2.02" height="10.84"/><rect class="cls-7" x="738.58" y="457.3" width="2.02" height="10.84"/><rect class="cls-7" x="750.03" y="457.05" width="2.02" height="11.1"/><rect class="cls-7" x="274.38" y="456.52" width="140.76" height="1.74" transform="translate(689.53 914.78) rotate(180)"/><rect class="cls-7" x="307.06" y="457.56" width="2.02" height="10.84" transform="translate(616.13 925.96) rotate(180)"/><rect class="cls-7" x="312.78" y="457.56" width="2.02" height="10.84" transform="translate(627.59 925.96) rotate(180)"/><rect class="cls-7" x="295.6" y="457.56" width="2.02" height="10.84" transform="translate(593.23 925.96) rotate(180)"/><rect class="cls-7" x="301.33" y="457.56" width="2.02" height="10.84" transform="translate(604.68 925.96) rotate(180)"/><rect class="cls-7" x="284.15" y="457.3" width="2.02" height="11.1" transform="translate(570.33 925.71) rotate(180)"/><rect class="cls-7" x="289.88" y="457.3" width="2.02" height="11.1" transform="translate(581.78 925.71) rotate(180)"/><rect class="cls-7" x="398" y="457.43" width="2.02" height="10.84" transform="translate(798.02 925.71) rotate(180)"/><rect class="cls-7" x="403.73" y="457.43" width="2.02" height="10.84" transform="translate(809.48 925.71) rotate(180)"/><rect class="cls-7" x="386.55" y="457.43" width="2.02" height="10.84" transform="translate(775.12 925.71) rotate(180)"/><rect class="cls-7" x="392.28" y="457.43" width="2.02" height="10.84" transform="translate(786.57 925.71) rotate(180)"/><rect class="cls-7" x="375.1" y="457.18" width="2.02" height="11.1" transform="translate(752.22 925.45) rotate(180)"/><rect class="cls-7" x="380.82" y="457.18" width="2.02" height="11.1" transform="translate(763.67 925.45) rotate(180)"/><rect class="cls-11" x="271.06" y="448.45" width="3.32" height="19.95" transform="translate(545.45 916.85) rotate(180)"/><rect class="cls-7" x="149.14" y="456.39" width="121.92" height="1.74" transform="translate(420.21 914.52) rotate(180)"/><rect class="cls-7" x="178.15" y="457.69" width="2.02" height="10.84" transform="translate(358.32 926.21) rotate(180)"/><rect class="cls-7" x="183.87" y="457.69" width="2.02" height="10.84" transform="translate(369.77 926.21) rotate(180)"/><rect class="cls-7" x="166.7" y="457.69" width="2.02" height="10.84" transform="translate(335.41 926.21) rotate(180)"/><rect class="cls-7" x="172.42" y="457.69" width="2.02" height="10.84" transform="translate(346.87 926.21) rotate(180)"/><rect class="cls-7" x="160.97" y="457.43" width="2.02" height="11.1" transform="translate(323.96 925.96) rotate(180)"/><rect class="cls-7" x="251.49" y="457.43" width="2.02" height="10.84" transform="translate(505 925.71) rotate(180)"/><rect class="cls-7" x="257.22" y="457.43" width="2.02" height="10.84" transform="translate(516.45 925.71) rotate(180)"/><rect class="cls-7" x="240.04" y="457.43" width="2.02" height="10.84" transform="translate(482.09 925.71) rotate(180)"/><rect class="cls-7" x="245.76" y="457.43" width="2.02" height="10.84" transform="translate(493.55 925.71) rotate(180)"/><rect class="cls-7" x="234.31" y="457.18" width="2.02" height="11.1" transform="translate(470.64 925.45) rotate(180)"/><polygon class="cls-43" points="457.7 503.15 457.7 505.72 455.2 505.72 455.2 506.44 457.7 506.44 458.42 506.44 458.42 505.72 458.42 503.15 457.7 503.15"/><polygon class="cls-10" points="581.86 489.48 575.8 489.48 575.8 468.4 571.62 468.4 571.62 448.45 568.3 448.45 566.14 468.4 558.06 489.48 558.06 558.8 527.07 558.8 527.07 560.1 560.08 560.1 560.08 560.1 581.86 560.1 581.86 489.48"/><polygon class="cls-44" points="577.82 489.48 577.82 468.4 573.64 468.4 573.64 448.45 570.32 448.45 570.32 468.4 566.14 468.4 566.14 489.48 560.08 489.48 560.08 560.1 583.88 560.1 583.88 489.48 577.82 489.48"/><rect class="cls-45" x="560.08" y="489.48" width="4.04" height="70.62"/><rect class="cls-45" x="566.14" y="468.4" width="2.46" height="21.07"/><rect class="cls-42" x="576.35" y="489.48" width="2.35" height="70.62"/><rect class="cls-42" x="571.76" y="448.45" width="0.77" height="19.95"/><rect class="cls-45" x="566.14" y="487.37" width="11.68" height="2.1"/><rect class="cls-46" x="461.72" y="560.1" width="65.33" height="6.19"/><rect class="cls-47" x="461.72" y="560.84" width="65.33" height="1.48"/><rect class="cls-46" x="459.38" y="567.69" width="69.27" height="6.19"/><rect class="cls-47" x="459.38" y="568.43" width="69.27" height="1.48"/><rect class="cls-3" x="428.71" y="558.8" width="33.01" height="1.3"/><polygon class="cls-10" points="420.77 489.48 420.77 468.4 416.59 468.4 416.59 448.45 413.27 448.45 411.11 468.4 403.03 489.48 403.03 560.1 426.83 560.1 426.83 489.48 420.77 489.48"/><polygon class="cls-44" points="422.79 489.48 422.79 468.4 418.61 468.4 418.61 448.45 415.29 448.45 415.29 468.4 411.11 468.4 411.11 489.48 405.05 489.48 405.05 560.1 428.85 560.1 428.85 489.48 422.79 489.48"/><rect class="cls-45" x="405.05" y="489.48" width="4.04" height="70.62"/><rect class="cls-45" x="411.11" y="468.4" width="2.46" height="21.07"/><rect class="cls-42" x="421.31" y="489.48" width="2.35" height="70.62"/><rect class="cls-42" x="416.73" y="448.45" width="0.77" height="19.95"/><rect class="cls-45" x="411.11" y="487.37" width="11.68" height="2.1"/><rect class="cls-3" x="426.83" y="473.8" width="133.35" height="11.57"/><rect class="cls-48" x="428.69" y="473.8" width="131.49" height="10.27"/><rect class="cls-49" x="428.69" y="474.81" width="129.37" height="1.07"/><rect class="cls-49" x="553.29" y="478.91" width="9.27" height="1.07" transform="translate(1037.36 -78.48) rotate(90)"/><rect class="cls-3" x="582.45" y="473.8" width="115.39" height="11.57"/><rect class="cls-48" x="584.06" y="473.8" width="113.78" height="10.27"/><rect class="cls-49" x="584.06" y="474.81" width="111.95" height="1.07"/><rect class="cls-49" x="691.25" y="478.98" width="9.27" height="0.93" transform="translate(1175.33 -216.45) rotate(90)"/><rect class="cls-3" x="705.81" y="473.8" width="115.39" height="11.57"/><rect class="cls-48" x="707.42" y="473.8" width="113.78" height="10.27"/><rect class="cls-49" x="707.42" y="474.81" width="111.95" height="1.07"/><rect class="cls-49" x="814.61" y="478.98" width="9.27" height="0.93" transform="translate(1298.69 -339.8) rotate(90)"/><rect class="cls-3" x="160.84" y="473.8" width="115.39" height="11.57"/><rect class="cls-48" x="162.45" y="473.8" width="113.78" height="10.27"/><rect class="cls-49" x="162.45" y="474.81" width="111.95" height="1.07"/><rect class="cls-49" x="269.64" y="478.98" width="9.27" height="0.93" transform="translate(753.72 205.16) rotate(90)"/><rect class="cls-3" x="284.2" y="473.8" width="115.39" height="11.57"/><rect class="cls-48" x="285.81" y="473.8" width="113.78" height="10.27"/><rect class="cls-49" x="285.81" y="474.81" width="111.95" height="1.07"/><rect class="cls-49" x="393" y="478.98" width="9.27" height="0.93" transform="translate(877.08 81.8) rotate(90)"/><polygon class="cls-10" points="616.39 539.92 616.39 489.48 607.67 489.48 607.67 539.92 605.95 539.92 605.95 560.1 607.67 560.1 616.39 560.1 617.1 560.1 617.1 539.92 616.39 539.92"/><rect class="cls-7" x="608.98" y="489.48" width="7.41" height="70.62"/><rect class="cls-50" x="608.98" y="489.48" width="1.26" height="70.62"/><rect class="cls-46" x="613.71" y="489.67" width="1.26" height="69.46"/><rect class="cls-6" x="607.67" y="539.92" width="9.43" height="20.18"/><rect class="cls-51" x="607.67" y="539.92" width="1.31" height="20.18"/><rect class="cls-52" x="613.69" y="539.92" width="1.31" height="20.18"/><rect class="cls-53" x="608.98" y="538.64" width="7.41" height="1.28"/><rect class="cls-50" x="608.98" y="489.48" width="7.41" height="1.28"/><polygon class="cls-10" points="647.76 539.92 647.76 489.48 639.04 489.48 639.04 539.92 637.32 539.92 637.32 560.1 639.04 560.1 647.76 560.1 648.48 560.1 648.48 539.92 647.76 539.92"/><rect class="cls-7" x="640.35" y="489.48" width="7.41" height="70.62"/><rect class="cls-50" x="640.35" y="489.48" width="1.26" height="70.62"/><rect class="cls-46" x="645.09" y="489.67" width="1.26" height="69.46"/><rect class="cls-6" x="639.04" y="539.92" width="9.43" height="20.18"/><rect class="cls-51" x="639.04" y="539.92" width="1.31" height="20.18"/><rect class="cls-52" x="645.07" y="539.92" width="1.31" height="20.18"/><rect class="cls-53" x="640.35" y="538.64" width="7.41" height="1.28"/><rect class="cls-50" x="640.35" y="489.48" width="7.41" height="1"/><polygon class="cls-10" points="678.63 539.92 678.63 489.48 669.91 489.48 669.91 539.92 668.18 539.92 668.18 560.1 669.91 560.1 678.63 560.1 679.34 560.1 679.34 539.92 678.63 539.92"/><rect class="cls-7" x="671.22" y="489.48" width="7.41" height="70.62"/><rect class="cls-50" x="671.22" y="489.48" width="1.26" height="70.62"/><rect class="cls-46" x="675.95" y="489.67" width="1.26" height="69.46"/><rect class="cls-6" x="669.91" y="539.92" width="9.43" height="20.18"/><rect class="cls-51" x="669.91" y="539.92" width="1.31" height="20.18"/><rect class="cls-52" x="675.93" y="539.92" width="1.31" height="20.18"/><rect class="cls-53" x="671.22" y="538.64" width="7.41" height="1.28"/><rect class="cls-50" x="671.22" y="489.48" width="7.41" height="1.28"/><polygon class="cls-10" points="317.5 539.92 317.5 489.48 308.78 489.48 308.78 539.92 307.06 539.92 307.06 560.1 308.78 560.1 317.5 560.1 318.21 560.1 318.21 539.92 317.5 539.92"/><rect class="cls-7" x="310.09" y="489.48" width="7.41" height="70.62"/><rect class="cls-50" x="310.09" y="489.48" width="1.26" height="70.62"/><rect class="cls-46" x="314.83" y="489.67" width="1.26" height="69.46"/><rect class="cls-6" x="308.78" y="539.92" width="9.43" height="20.18"/><rect class="cls-51" x="308.78" y="539.92" width="1.31" height="20.18"/><rect class="cls-52" x="314.8" y="539.92" width="1.31" height="20.18"/><rect class="cls-53" x="310.09" y="538.64" width="7.41" height="1.28"/><rect class="cls-50" x="310.09" y="489.48" width="7.41" height="1.28"/><polygon class="cls-10" points="348.87 539.92 348.87 489.48 340.16 489.48 340.16 539.92 338.43 539.92 338.43 560.1 340.16 560.1 348.87 560.1 349.59 560.1 349.59 539.92 348.87 539.92"/><rect class="cls-7" x="341.46" y="489.48" width="7.41" height="70.62"/><rect class="cls-50" x="341.46" y="489.48" width="1.26" height="70.62"/><rect class="cls-46" x="346.2" y="489.67" width="1.26" height="69.46"/><rect class="cls-6" x="340.16" y="539.92" width="9.43" height="20.18"/><rect class="cls-51" x="340.16" y="539.92" width="1.31" height="20.18"/><rect class="cls-52" x="346.18" y="539.92" width="1.31" height="20.18"/><rect class="cls-53" x="341.46" y="538.64" width="7.41" height="1.28"/><rect class="cls-50" x="341.46" y="489.48" width="7.41" height="1"/><polygon class="cls-10" points="379.74 539.92 379.74 489.48 371.02 489.48 371.02 539.92 369.3 539.92 369.3 560.1 371.02 560.1 379.74 560.1 380.45 560.1 380.45 539.92 379.74 539.92"/><rect class="cls-7" x="372.33" y="489.48" width="7.41" height="70.62"/><rect class="cls-50" x="372.33" y="489.48" width="1.26" height="70.62"/><rect class="cls-46" x="377.06" y="489.67" width="1.26" height="69.46"/><rect class="cls-6" x="371.02" y="539.92" width="9.43" height="20.18"/><rect class="cls-51" x="371.02" y="539.92" width="1.31" height="20.18"/><rect class="cls-52" x="377.04" y="539.92" width="1.31" height="20.18"/><rect class="cls-53" x="372.33" y="538.64" width="7.41" height="1.28"/><rect class="cls-50" x="372.33" y="489.48" width="7.41" height="1.28"/><rect class="cls-7" x="527.07" y="489.48" width="33.01" height="52.46"/><polygon class="cls-43" points="544.76 536.86 544.76 539.43 542.26 539.43 542.26 540.14 544.76 540.14 545.48 540.14 545.48 539.43 545.48 536.86 544.76 536.86"/><polygon class="cls-43" points="542.46 495.91 542.46 498.48 539.95 498.48 539.95 499.19 542.46 499.19 543.17 499.19 543.17 498.48 543.17 495.91 542.46 495.91"/><polygon class="cls-43" points="538.97 501.91 538.97 504.47 536.47 504.47 536.47 505.19 538.97 505.19 539.68 505.19 539.68 504.47 539.68 501.91 538.97 501.91"/><polygon class="cls-43" points="544.19 504.4 544.19 506.97 541.69 506.97 541.69 507.68 544.19 507.68 544.91 507.68 544.91 506.97 544.91 504.4 544.19 504.4"/><polygon class="cls-43" points="536.03 509.97 536.03 512.53 533.53 512.53 533.53 513.25 536.03 513.25 536.75 513.25 536.75 512.53 536.75 509.97 536.03 509.97"/><polygon class="cls-43" points="541.25 512.46 541.25 515.03 538.75 515.03 538.75 515.74 541.25 515.74 541.97 515.74 541.97 515.03 541.97 512.46 541.25 512.46"/><polygon class="cls-43" points="549.12 492.95 549.12 495.52 546.62 495.52 546.62 496.24 549.12 496.24 549.83 496.24 549.83 495.52 549.83 492.95 549.12 492.95"/><polygon class="cls-43" points="554.34 495.45 554.34 498.02 551.84 498.02 551.84 498.73 554.34 498.73 555.06 498.73 555.06 498.02 555.06 495.45 554.34 495.45"/><polygon class="cls-43" points="549.12 510.36 549.12 512.93 546.62 512.93 546.62 513.64 549.12 513.64 549.83 513.64 549.83 512.93 549.83 510.36 549.12 510.36"/><polygon class="cls-43" points="554.34 512.86 554.34 515.42 551.84 515.42 551.84 516.14 554.34 516.14 555.06 516.14 555.06 515.42 555.06 512.86 554.34 512.86"/><polygon class="cls-43" points="544.9 519.6 544.9 522.16 542.4 522.16 542.4 522.88 544.9 522.88 545.62 522.88 545.62 522.16 545.62 519.6 544.9 519.6"/><polygon class="cls-43" points="550.12 522.09 550.12 524.66 547.62 524.66 547.62 525.37 550.12 525.37 550.84 525.37 550.84 524.66 550.84 522.09 550.12 522.09"/><polygon class="cls-43" points="534.59 522.48 534.59 525.05 532.09 525.05 532.09 525.77 534.59 525.77 535.31 525.77 535.31 525.05 535.31 522.48 534.59 522.48"/><polygon class="cls-43" points="539.82 524.98 539.82 527.55 537.32 527.55 537.32 528.26 539.82 528.26 540.53 528.26 540.53 527.55 540.53 524.98 539.82 524.98"/><polygon class="cls-43" points="546.51 530.08 546.51 532.65 544.01 532.65 544.01 533.36 546.51 533.36 547.22 533.36 547.22 532.65 547.22 530.08 546.51 530.08"/><polygon class="cls-43" points="551.73 532.58 551.73 535.15 549.23 535.15 549.23 535.86 551.73 535.86 552.45 535.86 552.45 535.15 552.45 532.58 551.73 532.58"/><polygon class="cls-43" points="537.75 535.86 537.75 538.43 535.25 538.43 535.25 539.14 537.75 539.14 538.46 539.14 538.46 538.43 538.46 535.86 537.75 535.86"/><polygon class="cls-43" points="535.44 494.92 535.44 497.48 532.94 497.48 532.94 498.2 535.44 498.2 536.16 498.2 536.16 497.48 536.16 494.92 535.44 494.92"/><rect class="cls-54" x="527.05" y="489.72" width="3.19" height="52.46"/><rect class="cls-46" x="554.55" y="490.09" width="3.19" height="51.85"/><rect class="cls-54" x="527.07" y="489.48" width="33.01" height="2.18"/><rect class="cls-8" x="461.72" y="489.48" width="65.35" height="70.62"/><polygon class="cls-55" points="527.07 489.48 461.72 489.48 461.72 501.35 514.82 501.35 514.82 560.1 526.72 560.1 526.72 501.35 527.07 501.35 527.07 489.48"/><rect class="cls-7" x="428.71" y="489.48" width="33.01" height="52.46"/><polygon class="cls-43" points="444.69 536.39 444.69 538.96 442.19 538.96 442.19 539.67 444.69 539.67 445.4 539.67 445.4 538.96 445.4 536.39 444.69 536.39"/><polygon class="cls-43" points="442.38 495.45 442.38 498.02 439.88 498.02 439.88 498.73 442.38 498.73 443.1 498.73 443.1 498.02 443.1 495.45 442.38 495.45"/><polygon class="cls-43" points="452.48 500.66 452.48 503.23 449.98 503.23 449.98 503.94 452.48 503.94 453.19 503.94 453.19 503.23 453.19 500.66 452.48 500.66"/><polygon class="cls-43" points="436.67 504.51 436.67 507.08 434.17 507.08 434.17 507.79 436.67 507.79 437.39 507.79 437.39 507.08 437.39 504.51 436.67 504.51"/><polygon class="cls-43" points="441.9 507.01 441.9 509.57 439.4 509.57 439.4 510.29 441.9 510.29 442.61 510.29 442.61 509.57 442.61 507.01 441.9 507.01"/><polygon class="cls-43" points="449.05 492.49 449.05 495.06 446.55 495.06 446.55 495.77 449.05 495.77 449.76 495.77 449.76 495.06 449.76 492.49 449.05 492.49"/><polygon class="cls-43" points="454.27 494.99 454.27 497.55 451.77 497.55 451.77 498.27 454.27 498.27 454.99 498.27 454.99 497.55 454.99 494.99 454.27 494.99"/><polygon class="cls-43" points="449.05 509.89 449.05 512.46 446.55 512.46 446.55 513.18 449.05 513.18 449.76 513.18 449.76 512.46 449.76 509.89 449.05 509.89"/><polygon class="cls-43" points="454.27 512.39 454.27 514.96 451.77 514.96 451.77 515.67 454.27 515.67 454.99 515.67 454.99 514.96 454.99 512.39 454.27 512.39"/><polygon class="cls-43" points="444.9 519.13 444.9 521.7 442.4 521.7 442.4 522.41 444.9 522.41 445.61 522.41 445.61 521.7 445.61 519.13 444.9 519.13"/><polygon class="cls-43" points="450.12 521.63 450.12 524.2 447.62 524.2 447.62 524.91 450.12 524.91 450.84 524.91 450.84 524.2 450.84 521.63 450.12 521.63"/><polygon class="cls-43" points="434.52 522.02 434.52 524.59 432.02 524.59 432.02 525.3 434.52 525.3 435.24 525.3 435.24 524.59 435.24 522.02 434.52 522.02"/><polygon class="cls-43" points="439.75 524.52 439.75 527.09 437.24 527.09 437.24 527.8 439.75 527.8 440.46 527.8 440.46 527.09 440.46 524.52 439.75 524.52"/><polygon class="cls-43" points="448.6 529.23 448.6 531.79 446.1 531.79 446.1 532.51 448.6 532.51 449.32 532.51 449.32 531.79 449.32 529.23 448.6 529.23"/><polygon class="cls-43" points="453.83 531.72 453.83 534.29 451.33 534.29 451.33 535 453.83 535 454.54 535 454.54 534.29 454.54 531.72 453.83 531.72"/><polygon class="cls-43" points="437.68 535.39 437.68 537.96 435.18 537.96 435.18 538.68 437.68 538.68 438.39 538.68 438.39 537.96 438.39 535.39 437.68 535.39"/><polygon class="cls-43" points="435.37 494.45 435.37 497.02 432.87 497.02 432.87 497.73 435.37 497.73 436.09 497.73 436.09 497.02 436.09 494.45 435.37 494.45"/><rect class="cls-54" x="428.67" y="489.48" width="3.19" height="52.46"/><rect class="cls-46" x="456.17" y="489.85" width="3.19" height="52.09"/><rect class="cls-54" x="428.71" y="489.48" width="33.01" height="2.18"/><rect class="cls-3" x="426.83" y="489.48" width="1.88" height="70.62"/><rect class="cls-3" x="707.15" y="491.36" width="26.35" height="50.16" rx="2.03"/><rect class="cls-8" x="708.75" y="491.36" width="24.74" height="48.22" rx="2.03"/><path class="cls-9" d="M728.87,491.36v1.26h-18.8c-.73,0-1.32,1.61-1.32,3.59v8.08h20.12v34.23h4.3c.18,0,.33-.4.33-.9V495c0-2-.59-3.59-1.32-3.59Z"/><rect class="cls-7" x="708.75" y="491.36" width="24.74" height="3.97" rx="0.79"/><rect class="cls-7" x="708.75" y="535.6" width="24.74" height="3.97" rx="0.79"/><rect class="cls-7" x="714.58" y="514.73" width="36.36" height="1.46" rx="0.73" transform="translate(1248.23 -217.3) rotate(90)"/><rect class="cls-7" x="691.3" y="515.01" width="36.36" height="1.46" rx="0.73" transform="translate(1225.22 -193.74) rotate(90)"/><rect class="cls-3" x="736.39" y="491.36" width="26.35" height="50.16" rx="2.03"/><rect class="cls-8" x="737.99" y="491.36" width="24.74" height="48.22" rx="2.03"/><path class="cls-9" d="M758.12,491.36v1.26h-18.8c-.73,0-1.33,1.61-1.33,3.59v8.08h20.13v34.23h4.3c.18,0,.33-.4.33-.9V495c0-2-.59-3.59-1.32-3.59Z"/><rect class="cls-7" x="737.99" y="491.36" width="24.74" height="3.97" rx="0.79"/><rect class="cls-7" x="737.99" y="535.6" width="24.74" height="3.97" rx="0.79"/><rect class="cls-7" x="743.83" y="514.73" width="36.36" height="1.46" rx="0.73" transform="translate(1277.48 -246.55) rotate(90)"/><rect class="cls-7" x="720.55" y="515.01" width="36.36" height="1.46" rx="0.73" transform="translate(1254.46 -222.99) rotate(90)"/><rect class="cls-3" x="765.82" y="490.93" width="26.35" height="50.16" rx="2.03"/><rect class="cls-8" x="767.42" y="490.93" width="24.74" height="48.22" rx="2.03"/><path class="cls-9" d="M787.54,490.93v1.26h-18.8c-.73,0-1.32,1.61-1.32,3.59v8.09h20.12V538.1h4.29c.19,0,.34-.41.34-.9V494.52c0-2-.59-3.59-1.32-3.59Z"/><rect class="cls-7" x="767.42" y="490.93" width="24.74" height="3.97" rx="0.79"/><rect class="cls-7" x="767.42" y="535.18" width="24.74" height="3.97" rx="0.79"/><rect class="cls-7" x="773.26" y="514.31" width="36.36" height="1.46" rx="0.73" transform="translate(1306.48 -276.4) rotate(90)"/><rect class="cls-7" x="749.97" y="514.58" width="36.36" height="1.46" rx="0.73" transform="translate(1283.47 -252.84) rotate(90)"/><rect class="cls-3" x="795.07" y="490.93" width="26.35" height="50.16" rx="2.03"/><rect class="cls-8" x="796.67" y="490.93" width="24.74" height="48.22" rx="2.03"/><path class="cls-9" d="M816.79,490.93v1.26H798c-.73,0-1.32,1.61-1.32,3.59v8.09h20.12V538.1h4.29c.19,0,.33-.41.33-.9V494.52c0-2-.59-3.59-1.32-3.59Z"/><rect class="cls-7" x="796.67" y="490.93" width="24.74" height="3.97" rx="0.79"/><rect class="cls-7" x="796.67" y="535.18" width="24.74" height="3.97" rx="0.79"/><rect class="cls-7" x="802.51" y="514.31" width="36.36" height="1.46" rx="0.73" transform="translate(1335.73 -305.65) rotate(90)"/><rect class="cls-7" x="779.22" y="514.58" width="36.36" height="1.46" rx="0.73" transform="translate(1312.71 -282.09) rotate(90)"/><ellipse class="cls-7" cx="721.25" cy="515.79" rx="7.43" ry="7.72"/><ellipse class="cls-7" cx="750.98" cy="515.79" rx="7.43" ry="7.72"/><ellipse class="cls-7" cx="779.89" cy="515.79" rx="7.43" ry="7.72"/><ellipse class="cls-7" cx="809.62" cy="515.79" rx="7.43" ry="7.72"/><rect class="cls-3" x="161.89" y="491.36" width="26.35" height="50.16" rx="2.03"/><rect class="cls-8" x="163.49" y="491.36" width="24.74" height="48.22" rx="2.03"/><path class="cls-9" d="M183.61,491.36v1.26h-18.8c-.73,0-1.32,1.61-1.32,3.59v8.08h20.12v34.23h4.29c.18,0,.33-.4.33-.9V495c0-2-.6-3.59-1.33-3.59Z"/><rect class="cls-7" x="163.49" y="491.36" width="24.74" height="3.97" rx="0.79"/><rect class="cls-7" x="163.49" y="535.6" width="24.74" height="3.97" rx="0.79"/><rect class="cls-7" x="169.33" y="514.73" width="36.36" height="1.46" rx="0.73" transform="translate(702.97 327.96) rotate(90)"/><rect class="cls-7" x="146.04" y="515.01" width="36.36" height="1.46" rx="0.73" transform="translate(679.96 351.52) rotate(90)"/><rect class="cls-3" x="191.14" y="491.36" width="26.35" height="50.16" rx="2.03"/><rect class="cls-8" x="192.74" y="491.36" width="24.74" height="48.22" rx="2.03"/><path class="cls-9" d="M212.86,491.36v1.26h-18.8c-.73,0-1.32,1.61-1.32,3.59v8.08h20.12v34.23h4.3c.18,0,.33-.4.33-.9V495c0-2-.59-3.59-1.32-3.59Z"/><rect class="cls-7" x="192.74" y="491.36" width="24.74" height="3.97" rx="0.79"/><rect class="cls-7" x="192.74" y="535.6" width="24.74" height="3.97" rx="0.79"/><rect class="cls-7" x="198.57" y="514.73" width="36.36" height="1.46" rx="0.73" transform="translate(732.22 298.71) rotate(90)"/><rect class="cls-7" x="175.29" y="515.01" width="36.36" height="1.46" rx="0.73" transform="translate(709.21 322.27) rotate(90)"/><rect class="cls-3" x="220.56" y="490.93" width="26.35" height="50.16" rx="2.03"/><rect class="cls-8" x="222.16" y="490.93" width="24.74" height="48.22" rx="2.03"/><path class="cls-9" d="M242.28,490.93v1.26h-18.8c-.72,0-1.32,1.61-1.32,3.59v8.09h20.12V538.1h4.3c.18,0,.33-.41.33-.9V494.52c0-2-.59-3.59-1.32-3.59Z"/><rect class="cls-7" x="222.16" y="490.93" width="24.74" height="3.97" rx="0.79"/><rect class="cls-7" x="222.16" y="535.18" width="24.74" height="3.97" rx="0.79"/><rect class="cls-7" x="228" y="514.31" width="36.36" height="1.46" rx="0.73" transform="translate(761.22 268.86) rotate(90)"/><rect class="cls-7" x="204.71" y="514.58" width="36.36" height="1.46" rx="0.73" transform="translate(738.21 292.42) rotate(90)"/><rect class="cls-3" x="249.81" y="490.93" width="26.35" height="50.16" rx="2.03"/><rect class="cls-8" x="251.41" y="490.93" width="24.74" height="48.22" rx="2.03"/><path class="cls-9" d="M271.53,490.93v1.26h-18.8c-.73,0-1.32,1.61-1.32,3.59v8.09h20.12V538.1h4.29c.19,0,.34-.41.34-.9V494.52c0-2-.59-3.59-1.32-3.59Z"/><rect class="cls-7" x="251.41" y="490.93" width="24.74" height="3.97" rx="0.79"/><rect class="cls-7" x="251.41" y="535.18" width="24.74" height="3.97" rx="0.79"/><rect class="cls-7" x="257.25" y="514.31" width="36.36" height="1.46" rx="0.73" transform="translate(790.47 239.61) rotate(90)"/><rect class="cls-7" x="233.96" y="514.58" width="36.36" height="1.46" rx="0.73" transform="translate(767.46 263.17) rotate(90)"/><ellipse class="cls-7" cx="175.99" cy="515.79" rx="7.43" ry="7.72"/><ellipse class="cls-7" cx="205.72" cy="515.79" rx="7.43" ry="7.72"/><ellipse class="cls-7" cx="234.63" cy="515.79" rx="7.43" ry="7.72"/><ellipse class="cls-7" cx="264.36" cy="515.79" rx="7.43" ry="7.72"/><rect class="cls-56" x="148.17" y="449.78" width="685.86" height="108.88"/><rect class="cls-7" x="572.43" y="448.07" width="14.16" height="112.31"/><rect class="cls-7" x="398.21" y="448.07" width="14.16" height="112.31"/><rect class="cls-7" x="311.81" y="448.07" width="14.16" height="112.31"/><rect class="cls-7" x="663.09" y="448.07" width="14.16" height="112.31"/><g class="cls-57"><circle class="cls-58" cx="318.78" cy="448.92" r="18"/></g><g class="cls-59"><circle class="cls-58" cx="405.37" cy="448.92" r="18"/></g><g class="cls-60"><circle class="cls-58" cx="578.55" cy="448.92" r="18"/></g><g class="cls-61"><circle class="cls-58" cx="668.57" cy="448.92" r="18"/></g><polygon class="cls-62" points="521.02 190.24 521.02 190.24 521.02 190.24 521.02 190.24"/><path class="cls-63" d="M521,190.24a6.28,6.28,0,0,0-1.53,1.67Z"/><path class="cls-64" d="M372.87.2,375.31,0A10.56,10.56,0,0,0,372.87.2Z"/></g></g></svg>