<svg xmlns="http://www.w3.org/2000/svg" xmlns:xlink="http://www.w3.org/1999/xlink" viewBox="0 0 362.37 431.41"><defs><style>.cls-1{fill:none;}.cls-2{fill:#fbd09c;}.cls-3{fill:#434244;}.cls-4{fill:#150d10;}.cls-5{clip-path:url(#clip-path);}.cls-6{fill:#f8ac76;}.cls-7{clip-path:url(#clip-path-2);}.cls-8{clip-path:url(#clip-path-3);}.cls-9{clip-path:url(#clip-path-4);}.cls-10{clip-path:url(#clip-path-5);}.cls-11{clip-path:url(#clip-path-6);}.cls-12{fill:#eaa978;}.cls-13{fill:#d76644;}.cls-14{fill:#eae4cd;}.cls-15{fill:#875731;}.cls-16{fill:#b53a5a;}.cls-17{fill:#c4c6b8;}.cls-18{fill:#8f9093;}.cls-19{fill:#2da8ad;}.cls-20{fill:url(#linear-gradient);}.cls-21{fill:#ffd244;}</style><clipPath id="clip-path"><rect class="cls-1" x="28.62" y="260.87" width="49.64" height="19.56"/></clipPath><clipPath id="clip-path-2"><rect class="cls-1" x="68.96" y="260.95" width="35.15" height="13.85"/></clipPath><clipPath id="clip-path-3"><rect class="cls-1" x="156.13" y="260.87" width="49.64" height="19.56"/></clipPath><clipPath id="clip-path-4"><rect class="cls-1" x="189.66" y="260.95" width="35.15" height="13.85"/></clipPath><clipPath id="clip-path-5"><rect class="cls-1" x="284.19" y="260.87" width="49.64" height="19.56" transform="translate(618.02 541.29) rotate(-180)"/></clipPath><clipPath id="clip-path-6"><rect class="cls-1" x="258.34" y="260.95" width="35.15" height="13.85" transform="translate(551.83 535.75) rotate(-180)"/></clipPath><linearGradient id="linear-gradient" x1="175.17" y1="22.03" x2="187.39" y2="22.03" gradientUnits="userSpaceOnUse"><stop offset="0" stop-color="#ca5649"/><stop offset="1" stop-color="#fa6d62"/></linearGradient></defs><title>资源 1</title><g id="图层_2" data-name="图层 2"><g id="图层_1-2" data-name="图层 1"><rect class="cls-2" x="272.29" y="260.8" width="11.35" height="170.62"/><rect class="cls-2" x="295.33" y="260.8" width="19.6" height="170.62"/><rect class="cls-2" x="173.98" y="260.8" width="21.09" height="170.62"/><rect class="cls-2" x="202.21" y="260.8" width="11.35" height="170.62"/><rect class="cls-2" x="80.53" y="259.89" width="11.35" height="171.52"/><rect class="cls-2" x="47.44" y="259.89" width="21.09" height="171.52"/><polyline class="cls-3" points="57.82 108.05 93.84 175.21 268.34 178.73 305.06 108.05"/><path class="cls-4" d="M57.82,83.71l0,19.08.14,4S77.84,145,128,145s53.16-35.41,53.16-35.41v-38h-4.85s-12.14,41.39-67.89,41.39C68.3,112.91,59.43,93.28,57.82,83.71Z"/><path class="cls-4" d="M305.06,90.52l-.55,15.19-.14,4S284.53,145,234.34,145s-53.15-35.41-53.15-35.41v-38H186s12.65,37.5,68.4,37.5C294.59,109,303.45,100.1,305.06,90.52Z"/><rect class="cls-4" x="91.89" y="207.33" width="172.29" height="53.54"/><path class="cls-4" d="M0,224.06c12.27,33.37,43.11,36.48,43.11,36.48h86.47c49.69,0,50.63-38.12,50.63-38.12H92.16s-52,13.77-89.75-26.17Z"/><path class="cls-4" d="M362.37,224.06c-12.28,33.37-43.12,36.48-43.12,36.48H232.78c-49.68,0-50.62-38.12-50.62-38.12h88s52,13.77,89.75-26.17Z"/><g class="cls-5"><ellipse class="cls-6" cx="55.35" cy="261.59" rx="16.04" ry="15.21"/></g><g class="cls-7"><ellipse class="cls-6" cx="87.89" cy="261.47" rx="11.36" ry="10.77"/></g><g class="cls-8"><ellipse class="cls-6" cx="182.86" cy="261.59" rx="16.04" ry="15.21"/></g><g class="cls-9"><ellipse class="cls-6" cx="208.59" cy="261.47" rx="11.36" ry="10.77"/></g><g class="cls-10"><ellipse class="cls-6" cx="307.1" cy="261.59" rx="16.04" ry="15.21"/></g><g class="cls-11"><ellipse class="cls-6" cx="274.56" cy="261.47" rx="11.36" ry="10.77"/></g><path class="cls-12" d="M1,206.53C13.25,239.91,44.09,243,44.09,243h86.47c49.68,0,50.62-38.12,50.62-38.12H93.13s-52,13.77-89.74-26.17Z"/><rect class="cls-13" x="94.03" y="175.21" width="87.15" height="29.69"/><rect class="cls-14" x="105.15" y="184.3" width="76.03" height="14.74" transform="translate(286.33 383.33) rotate(180)"/><path class="cls-1" d="M56.81,63.48a21.72,21.72,0,0,1-.21-6.32Z"/><rect class="cls-15" x="175.25" y="34.28" width="5.93" height="9.99" transform="translate(356.43 78.55) rotate(180)"/><path class="cls-12" d="M361.39,206.53C349.12,239.91,318.28,243,318.28,243H231.81c-49.68,0-50.62-38.12-50.62-38.12h88.05s51.95,13.77,89.74-26.17Z"/><rect class="cls-13" x="181.19" y="175.21" width="87.15" height="29.69"/><rect class="cls-14" x="181.19" y="184.3" width="76.03" height="14.74"/><path class="cls-1" d="M305.77,57.16a22,22,0,0,1-.22,6.32Z"/><rect class="cls-15" x="181.19" y="34.28" width="5.93" height="9.99"/><ellipse class="cls-16" cx="181.03" cy="4.74" rx="2.5" ry="2.13"/><path class="cls-16" d="M179.6,3s.6-.62.34-2.52c0,0,.26-.47,1.27-.47,0,0,.76,0,1,.47A9.54,9.54,0,0,0,182.45,3"/><path class="cls-17" d="M181,7.76a6.57,6.57,0,0,0-4.79,1.87,2.29,2.29,0,0,1,.33-.64,1.25,1.25,0,0,0-.33.63c-.19,1.13,2.22,2.06,5,2.06h.09V7.76Z"/><path class="cls-17" d="M181.47,7.76a6.57,6.57,0,0,1,4.79,1.87,2.29,2.29,0,0,0-.33-.64,1.25,1.25,0,0,1,.33.63c.19,1.13-2.22,2.06-5,2.06h-.09V7.76Z"/><path class="cls-18" d="M178.79,7.7S175.3,6,181.21,5.51V7.59"/><path class="cls-18" d="M183.63,7.7s3.49-1.75-2.42-2.19V7.59"/><path class="cls-17" d="M177.11,9.08s4.25-2.15,8,0l0,0,.15-.26-2-1.06h-3.86l-1.79.47"/><path class="cls-3" d="M176.49,9c.7-.8,2.45-1.43,4.63-1.43h.09V7.14H181A5.66,5.66,0,0,0,176.49,9Z"/><path class="cls-3" d="M181.12,7.56c-2.18,0-3.93.63-4.63,1.43a2.29,2.29,0,0,0-.33.64A6.57,6.57,0,0,1,181,7.76h.26v-.2Z"/><path class="cls-3" d="M185.93,9c-.7-.8-2.45-1.43-4.63-1.43h-.09V7.14h.17A5.66,5.66,0,0,1,185.93,9Z"/><path class="cls-3" d="M181.3,7.56c2.18,0,3.93.63,4.63,1.43a2.29,2.29,0,0,1,.33.64,6.57,6.57,0,0,0-4.79-1.87h-.26v-.2Z"/><path class="cls-17" d="M186,9.92a3.88,3.88,0,0,0-.94-.88c-.41-.2.05-.31.05-.31l.76.54"/><ellipse class="cls-19" cx="181.28" cy="11.37" rx="4.44" ry="3.79"/><path class="cls-17" d="M180.88,17.15a7.34,7.34,0,0,0-6,3.11,5.18,5.18,0,0,1,.41-1.06,2.59,2.59,0,0,0-.41,1.05c-.23,1.88,2.78,3.44,6.21,3.44h.11V17.16Z"/><path class="cls-17" d="M181.54,17.15a7.34,7.34,0,0,1,6,3.11,5.18,5.18,0,0,0-.41-1.06,2.59,2.59,0,0,1,.41,1.05c.23,1.88-2.78,3.44-6.21,3.44h-.11V17.16Z"/><ellipse class="cls-20" cx="181.28" cy="22.03" rx="6.11" ry="5.21"/><path class="cls-17" d="M180.87,29a7.71,7.71,0,0,0-6.23,3.11,5.12,5.12,0,0,1,.43-1.06,2.41,2.41,0,0,0-.43,1.06c-.24,1.88,2.89,3.43,6.46,3.43h.11V29Z"/><path class="cls-17" d="M181.55,29a7.71,7.71,0,0,1,6.23,3.11,5.12,5.12,0,0,0-.43-1.06,2.41,2.41,0,0,1,.43,1.06c.24,1.88-2.89,3.43-6.46,3.43h-.11V29Z"/><ellipse class="cls-21" cx="181.28" cy="34.58" rx="6.11" ry="5.21"/><path class="cls-18" d="M177,41.45s-6.08-3.79,4.23-4.73v4.5"/><path class="cls-18" d="M185.44,41.45s6.08-3.79-4.23-4.73v4.5"/><path class="cls-18" d="M177.47,28.9s-5.38-2.27,3.74-2.84v2.7"/><path class="cls-18" d="M185,28.9s5.38-2.27-3.74-2.84v2.7"/><path class="cls-18" d="M178.18,17.06s-4.35-2.92,3-3.65v3.46"/><path class="cls-18" d="M184.24,17.06s4.35-2.92-3-3.65v3.46"/><path class="cls-17" d="M175.88,31.2s5.58-3.62,10.44,0l.19-.44L183.84,29h-5l-2.33.79"/><path class="cls-3" d="M175.07,31c.92-1.32,3.18-2.38,6-2.38h.11V28H181A6.7,6.7,0,0,0,175.07,31Z"/><path class="cls-3" d="M181.1,28.66c-2.85,0-5.11,1.06-6,2.38a5.12,5.12,0,0,0-.43,1.06A7.71,7.71,0,0,1,180.87,29h.34v-.34Z"/><path class="cls-3" d="M187.35,31c-.92-1.32-3.18-2.38-6-2.38h-.11V28h.23A6.7,6.7,0,0,1,187.35,31Z"/><path class="cls-3" d="M181.32,28.66c2.85,0,5.11,1.06,6,2.38a5.12,5.12,0,0,1,.43,1.06A7.71,7.71,0,0,0,181.55,29h-.34v-.34Z"/><path class="cls-17" d="M176.08,19.36s5.32-3.59,10-.06l.07.06.19-.44-2.57-1.77h-4.82l-2.24.79"/><path class="cls-3" d="M175.3,19.2c.89-1.33,3.07-2.38,5.8-2.38h.11v-.7H181A6.4,6.4,0,0,0,175.3,19.2Z"/><path class="cls-3" d="M181.1,16.82c-2.73,0-4.91,1.05-5.8,2.38a5.18,5.18,0,0,0-.41,1.06,7.34,7.34,0,0,1,6-3.11h.33v-.34Z"/><path class="cls-3" d="M187.12,19.2c-.89-1.33-3.07-2.38-5.8-2.38h-.11v-.7h.22A6.4,6.4,0,0,1,187.12,19.2Z"/><path class="cls-3" d="M181.32,16.82c2.73,0,4.91,1.05,5.8,2.38a5.18,5.18,0,0,1,.41,1.06,7.34,7.34,0,0,0-6-3.11h-.33v-.34Z"/><path class="cls-17" d="M186,45.8l1-26.14-.94-.89s-.58.18-.07.51a5.92,5.92,0,0,1,1.18,1.46"/><path class="cls-4" d="M125,145s65.22,9.74,121.68-1-38.94-40.88-38.94-40.88L164.85,109"/><path class="cls-12" d="M56.81,63.48l1,31.52L58,99s19.84,18.72,70,18.72,53.16-35.4,53.16-35.4v-38h-4.85S162.79,90.16,107,90.16C66.9,90.16,58.42,73.05,56.81,63.48Z"/><path class="cls-12" d="M305.55,63.48l-1,31.52-.14,4s-19.84,18.72-70,18.72-53.15-35.4-53.15-35.4v-38H186s13.53,45.89,69.28,45.89C295.46,90.16,303.94,73.05,305.55,63.48Z"/><path class="cls-12" d="M65.48,104.13s92.63,56.57,214.61,7.19l-77.7-18.41-21.2-21.39"/></g></g></svg>