<svg xmlns="http://www.w3.org/2000/svg" viewBox="0 0 267.86 97.04"><defs><style>.cls-1{fill:#f2f7d9;fill-rule:evenodd;}</style></defs><title>reversed_cloud</title><g id="图层_2" data-name="图层 2"><g id="图层_1-2" data-name="图层 1"><path class="cls-1" d="M181.53,67.67c12.57-5.28,13.93-13.23,3.95-17.07-11.37-4.38-25.59-.43-28.54,7.93-3.4,9.62,8.45,18.43,24.34,19,23.07.79,38.92-16.07,29.59-30.34C203.36,35.69,180.76,29,161.64,31.68c-20.35,2.84-29.72,12.11-36.52,23.18-6.6,10.73-13.38,21.32-30.81,26.86-14.37,4.57-29.7,5.82-45.48,4.39C34.1,84.78,19.22,84.17,4.6,82.32c-1.38-.17-3.26-.9-4.24.16s.63,2.13,1.85,2.8c4.38,2.37,8.72,4.87,14.19,6.16,12,2.82,24.16,5.27,37,5.52,20.34.39,40.37-.53,58.69-7.1A19.67,19.67,0,0,1,123,89.17c13.33,2.64,26.18,1.14,38.3-2.85,3.71-1.21,5.19,0,7.28,1.3a57.56,57.56,0,0,0,31,8.58c17.92-.16,33.49-4,42.65-14.58A18.15,18.15,0,0,0,246.88,71c.14-2.32,1.63-3.86,4.83-5,18.37-6.45,20.09-21,10.06-30.62-6-5.81-15.42-7.34-25.32-8.2a46.84,46.84,0,0,0-6.38-.13c-3.17.16-4.3-.68-4.76-2.68-1.24-5.37-4.14-10.25-10-14.47C202.82.83,186.56-1,169.23.46c-12,1-21.19,5.72-27.58,12.34-2.31,2.42-4.58,2.74-8.4,1.3-22.5-8.48-48.14,1.61-49.88,16.44-.49,4.08,2.06,6.57,7.13,8.45s9.65.4,14.13-1.06a9.74,9.74,0,0,0,2.54-1.46c3.12-2.16,6-4.62,3.21-7.54-2.42-2.55-6.23-3.68-11.28-.66,2.46-3.73,9.61-4.27,13.56-1.56,3,2,4.45,4.5,2.08,7.42-3.52,4.35-9.1,6.92-16.3,8.13-5.92,1-13.93-1.42-17.32-5.7-2.12-2.69-3.85-2.11-6.51-.75-7.77,4-10.82,9.3-9.15,15.44,1.78,6.58,8.09,11,18.19,12.87,5.65,1.07,6.13,1.36,1.92,4C76,74.23,66,79.93,52.47,82.14c-1.42.24-2.57.5-2.7,1.56,30.14,1.38,56.7-2.43,69.17-26.26a54.37,54.37,0,0,1,18.8-20.19c14.09-9.28,31.33-10.49,49.52-6.7,23,4.81,36.24,18.64,27.6,34.78C211,72.52,198.54,80,183.32,79.93c-11.59,0-25-4.53-29.43-12.28-5.73-10,5.24-21.11,21.86-21.54,7.21-.19,16.51,4.28,18.67,9,2.25,4.87-.94,9.56-8,12.27C185,67.9,184,67.8,181.53,67.67Zm-1.61.34a3,3,0,0,1-1,.21c-.67-.12-2.15.15-1.71-.57C177.44,67.25,179.13,67.3,179.92,68Z"/></g></g></svg>