<svg xmlns="http://www.w3.org/2000/svg" viewBox="0 0 1333.28 109.87"><defs><style>.cls-1{isolation:isolate;}.cls-2{fill:#c4c6b8;}.cls-3{fill:#050606;}.cls-11,.cls-3,.cls-4{fill-rule:evenodd;}.cls-4{fill:#ebbd8c;}.cls-5{fill:#fde4d1;}.cls-6{fill:#fff;}.cls-7{fill:#dde0cf;}.cls-8{opacity:0.1;mix-blend-mode:multiply;}.cls-9{fill:#d9a784;}.cls-10,.cls-11{fill:#ddb69a;}.cls-12{fill:#d3a281;}.cls-13{fill:#eccbb7;}.cls-14{fill:#d5a98a;}.cls-15{fill:#e9c7b0;}.cls-16{fill:#e7c4ab;}.cls-17{fill:#f9f5ea;}</style></defs><title>stair</title><g class="cls-1"><g id="图层_2" data-name="图层 2"><g id="图层_1-2" data-name="图层 1"><rect class="cls-2" x="328.1" y="14.77" width="676.82" height="14.98"/><polygon class="cls-3" points="543.38 14.77 534.09 29.5 546.95 29.5 543.38 14.77"/><polygon class="cls-4" points="543.38 19.01 541.77 24.21 540.42 29.5 540.42 29.5 796.14 29.5 796.14 29.5 795.31 25.26 794.22 19.01 543.38 19.01"/><rect class="cls-5" x="540.42" y="25.26" width="255.73" height="4.24"/><rect class="cls-6" x="540.42" y="25.77" width="255.73" height="1.01"/><rect class="cls-7" y="67.19" width="1333.28" height="42.59"/><rect class="cls-7" x="0.56" y="82.31" width="1332.32" height="4.58"/><rect class="cls-7" x="0.56" y="96.66" width="1332.32" height="4.58"/><rect class="cls-7" x="30.82" y="76.77" width="13.69" height="4.12" transform="translate(116.5 41.16) rotate(90)"/><rect class="cls-7" x="61.58" y="89.39" width="13.69" height="4.12" transform="translate(159.87 23.02) rotate(90)"/><rect class="cls-7" x="45.39" y="102.16" width="10.84" height="4.12" transform="translate(155.03 53.41) rotate(90)"/><rect class="cls-7" x="91.21" y="87.69" width="13.69" height="4.12" transform="translate(187.8 -8.31) rotate(90)"/><rect class="cls-7" x="106.93" y="102.16" width="10.84" height="4.12" transform="translate(216.57 -8.13) rotate(90)"/><rect class="cls-7" x="77.93" y="76.77" width="13.69" height="4.12" transform="translate(163.61 -5.94) rotate(90)"/><rect class="cls-7" x="155.28" y="76.77" width="13.69" height="4.12" transform="translate(240.95 -83.29) rotate(90)"/><rect class="cls-7" x="149.43" y="102.16" width="11.13" height="4.12" transform="translate(259.21 -50.77) rotate(90)"/><rect class="cls-7" x="169.35" y="88.88" width="15.73" height="4.12" transform="translate(268.15 -86.27) rotate(90)"/><rect class="cls-7" x="194.83" y="76.77" width="13.69" height="4.12" transform="translate(280.5 -122.84) rotate(90)"/><rect class="cls-7" x="235.44" y="89.39" width="13.34" height="4.12" transform="translate(333.56 -150.66) rotate(90)"/><rect class="cls-7" x="217.09" y="102.16" width="11.13" height="4.12" transform="translate(326.88 -118.44) rotate(90)"/><rect class="cls-7" x="267.65" y="76" width="13.69" height="4.12" transform="translate(352.55 -196.44) rotate(90)"/><rect class="cls-7" x="298.4" y="88.61" width="13.69" height="4.12" transform="translate(395.92 -214.58) rotate(90)"/><rect class="cls-7" x="282.22" y="101.53" width="10.84" height="4.12" transform="translate(391.23 -184.05) rotate(90)"/><rect class="cls-7" x="328.04" y="87.55" width="13.69" height="4.12" transform="translate(424.49 -245.27) rotate(90)"/><rect class="cls-7" x="343.43" y="101.83" width="11.48" height="4.12" transform="translate(453.06 -245.29) rotate(90)"/><rect class="cls-7" x="314.76" y="76" width="13.69" height="4.12" transform="translate(399.66 -243.55) rotate(90)"/><rect class="cls-7" x="392.1" y="76" width="13.69" height="4.12" transform="translate(477 -320.89) rotate(90)"/><rect class="cls-7" x="385.92" y="101.83" width="11.79" height="4.12" transform="translate(495.71 -287.93) rotate(90)"/><rect class="cls-7" x="406.59" y="88.38" width="14.9" height="4.12" transform="translate(504.48 -323.6) rotate(90)"/><rect class="cls-7" x="431.65" y="76" width="13.69" height="4.12" transform="translate(516.55 -360.44) rotate(90)"/><rect class="cls-7" x="472.27" y="88.61" width="13.34" height="4.12" transform="translate(569.61 -388.27) rotate(90)"/><rect class="cls-7" x="453.59" y="101.83" width="11.79" height="4.12" transform="translate(563.37 -355.59) rotate(90)"/><rect class="cls-7" x="526.19" y="75.61" width="13.69" height="4.12" transform="translate(610.7 -455.37) rotate(90)"/><rect class="cls-7" x="519.89" y="101.56" width="12.03" height="4.12" transform="translate(629.52 -422.29) rotate(90)"/><rect class="cls-7" x="540.68" y="87.95" width="14.9" height="4.12" transform="translate(638.13 -458.12) rotate(90)"/><rect class="cls-7" x="771.83" y="75.61" width="13.69" height="4.12" transform="translate(856.35 -701.01) rotate(90)"/><rect class="cls-7" x="812.45" y="88.22" width="13.34" height="4.12" transform="translate(909.4 -728.84) rotate(90)"/><rect class="cls-7" x="793.57" y="101.64" width="12.19" height="4.12" transform="translate(903.37 -695.97) rotate(90)"/><rect class="cls-7" x="844.66" y="74.83" width="13.69" height="4.12" transform="translate(928.39 -774.62) rotate(90)"/><rect class="cls-7" x="872.97" y="89.89" width="18.58" height="4.12" transform="translate(974.21 -790.31) rotate(90)"/><rect class="cls-7" x="858.26" y="101.34" width="12.78" height="4.12" transform="translate(968.04 -761.25) rotate(90)"/><rect class="cls-7" x="927.94" y="88.31" width="13.69" height="4.12" transform="translate(1025.16 -844.42) rotate(90)"/><rect class="cls-7" x="919.8" y="101.34" width="12.78" height="4.12" transform="translate(1029.58 -822.79) rotate(90)"/><rect class="cls-7" x="891.77" y="74.83" width="13.69" height="4.12" transform="translate(975.5 -821.72) rotate(90)"/><rect class="cls-7" x="939.69" y="73.77" width="13.34" height="4.12" transform="translate(870.53 1022.19) rotate(-90)"/><rect class="cls-7" x="990.04" y="101.72" width="12.19" height="4.12" transform="translate(892.35 1099.91) rotate(-90)"/><rect class="cls-7" x="982.16" y="73.77" width="13.69" height="4.12" transform="translate(913.17 1064.83) rotate(-90)"/><rect class="cls-7" x="1004.55" y="89.64" width="13.34" height="4.12" transform="translate(919.52 1102.92) rotate(-90)"/><rect class="cls-7" x="1029.59" y="101.72" width="12.19" height="4.12" transform="translate(931.9 1139.46) rotate(-90)"/><rect class="cls-7" x="1069.45" y="87.94" width="13.34" height="4.12" transform="translate(986.12 1166.12) rotate(-90)"/><rect class="cls-7" x="1049.82" y="73.77" width="13.69" height="4.12" transform="translate(980.84 1132.49) rotate(-90)"/><rect class="cls-7" x="1101.89" y="101.11" width="13.24" height="4.12" transform="translate(1005.34 1211.67) rotate(-90)"/><rect class="cls-7" x="1132.41" y="88.72" width="13.69" height="4.12" transform="translate(1048.48 1230.04) rotate(-90)"/><rect class="cls-7" x="1114.98" y="74.55" width="13.34" height="4.12" transform="translate(1045.04 1198.25) rotate(-90)"/><rect class="cls-7" x="1162.05" y="89.78" width="13.69" height="4.12" transform="translate(1077.06 1260.73) rotate(-90)"/><rect class="cls-7" x="1176.52" y="74.55" width="13.34" height="4.12" transform="translate(1106.58 1259.79) rotate(-90)"/><rect class="cls-7" x="1148.99" y="101.11" width="13.24" height="4.12" transform="translate(1052.45 1258.78) rotate(-90)"/><rect class="cls-7" x="1226.34" y="101.11" width="13.24" height="4.12" transform="translate(1129.79 1336.12) rotate(-90)"/><rect class="cls-7" x="1218.98" y="74.55" width="13.69" height="4.12" transform="translate(1149.22 1302.43) rotate(-90)"/><rect class="cls-7" x="1241.38" y="89.78" width="13.34" height="4.12" transform="translate(1156.21 1339.88) rotate(-90)"/><rect class="cls-7" x="1265.89" y="101.11" width="13.24" height="4.12" transform="translate(1169.34 1375.67) rotate(-90)"/><rect class="cls-7" x="1306.28" y="88.72" width="13.34" height="4.12" transform="translate(1222.17 1403.72) rotate(-90)"/><rect class="cls-7" x="1286.65" y="74.55" width="13.69" height="4.12" transform="translate(1216.89 1370.1) rotate(-90)"/><rect class="cls-7" y="69.19" width="1333.27" height="4.52"/><rect class="cls-7" y="59.66" width="1333.27" height="9.68"/><rect class="cls-7" y="59.66" width="1333.27" height="2.87"/><rect class="cls-7" x="3.25" y="35.59" width="1330.03" height="7.69"/><rect class="cls-7" y="42.72" width="1333.27" height="16.94"/><g class="cls-8"><path d="M9.78,49.57a3,3,0,0,1,2.32-2.25,3,3,0,0,1,2,.28.28.28,0,0,0,.39-.36,7.29,7.29,0,0,0-13.23,0,.28.28,0,0,0,.39.36,3,3,0,1,1,1.4,5.7A3,3,0,0,1,1.67,53a.28.28,0,0,0-.39.36,7.29,7.29,0,0,0,13.23,0,.28.28,0,0,0-.38-.36,3,3,0,0,1-4.35-3.39Z"/><path d="M28.62,49.57a3,3,0,0,1,4.34-2,.28.28,0,0,0,.39-.36,7.29,7.29,0,0,0-13.23,0,.28.28,0,0,0,.39.36,3,3,0,0,1,2-.28,3,3,0,1,1-2,5.64.28.28,0,0,0-.38.36,7.29,7.29,0,0,0,13.23,0A.28.28,0,0,0,33,53a3,3,0,0,1-1.4.34A3,3,0,0,1,28.62,49.57Z"/><path d="M47.45,49.57a3,3,0,0,1,4.34-2,.28.28,0,0,0,.39-.36,7.29,7.29,0,0,0-13.23,0,.28.28,0,0,0,.39.36,3,3,0,1,1,0,5.36.28.28,0,0,0-.38.36,7.29,7.29,0,0,0,13.23,0A.28.28,0,0,0,51.8,53a3,3,0,0,1-4.35-3.39Z"/><path d="M66.28,49.57a3,3,0,0,1,4.35-2,.28.28,0,0,0,.38-.36,7.28,7.28,0,0,0-13.22,0,.28.28,0,0,0,.38.36,3,3,0,1,1,1.4,5.7,3,3,0,0,1-1.4-.34.28.28,0,0,0-.39.36,7.29,7.29,0,0,0,13.23,0,.28.28,0,0,0-.38-.36,3,3,0,0,1-1.4.34A3,3,0,0,1,66.28,49.57Z"/><path d="M85.12,49.57a3,3,0,0,1,4.34-2,.28.28,0,0,0,.39-.36,7.29,7.29,0,0,0-13.23,0,.28.28,0,0,0,.39.36A3,3,0,1,1,77,53a.28.28,0,0,0-.38.36,7.29,7.29,0,0,0,13.23,0,.28.28,0,0,0-.38-.36,3,3,0,0,1-4.35-3.39Z"/><path d="M104,49.57a3,3,0,0,1,2.32-2.25,3,3,0,0,1,2,.28.28.28,0,0,0,.39-.36,7.29,7.29,0,0,0-13.23,0,.28.28,0,0,0,.39.36,3,3,0,1,1,1.4,5.7,3,3,0,0,1-1.4-.34.28.28,0,0,0-.39.36,7.29,7.29,0,0,0,13.23,0,.28.28,0,0,0-.38-.36A3,3,0,0,1,104,49.57Z"/><path d="M122.79,49.57a3,3,0,0,1,4.34-2,.28.28,0,0,0,.39-.36,7.29,7.29,0,0,0-13.23,0,.28.28,0,0,0,.39.36,3,3,0,0,1,2-.28,3,3,0,1,1-2,5.64.28.28,0,0,0-.38.36,7.29,7.29,0,0,0,13.23,0,.28.28,0,0,0-.39-.36,3,3,0,0,1-1.4.34A3,3,0,0,1,122.79,49.57Z"/><path d="M141.62,49.57a3,3,0,0,1,4.34-2,.28.28,0,0,0,.39-.36,7.29,7.29,0,0,0-13.23,0,.28.28,0,0,0,.39.36,3,3,0,1,1,0,5.36.28.28,0,0,0-.38.36,7.29,7.29,0,0,0,13.23,0A.28.28,0,0,0,146,53a3,3,0,0,1-4.35-3.39Z"/><path d="M160.45,49.57a3,3,0,0,1,4.35-2,.28.28,0,0,0,.38-.36,7.29,7.29,0,0,0-13.23,0,.28.28,0,0,0,.39.36,3,3,0,1,1,1.4,5.7,3,3,0,0,1-1.4-.34.28.28,0,0,0-.39.36,7.29,7.29,0,0,0,13.23,0,.28.28,0,0,0-.38-.36,3,3,0,0,1-1.4.34A3,3,0,0,1,160.45,49.57Z"/><path d="M179.29,49.57a3,3,0,0,1,4.34-2,.28.28,0,0,0,.39-.36,7.29,7.29,0,0,0-13.23,0,.28.28,0,0,0,.39.36,3,3,0,1,1,0,5.36.28.28,0,0,0-.38.36,7.29,7.29,0,0,0,13.23,0,.28.28,0,0,0-.38-.36,3,3,0,0,1-4.35-3.39Z"/><path d="M198.12,49.57a3,3,0,0,1,2.32-2.25,3,3,0,0,1,2,.28.28.28,0,0,0,.39-.36,7.29,7.29,0,0,0-13.23,0,.28.28,0,0,0,.39.36,3,3,0,1,1,1.4,5.7A3,3,0,0,1,190,53a.28.28,0,0,0-.39.36,7.29,7.29,0,0,0,13.23,0,.28.28,0,0,0-.38-.36,3,3,0,0,1-4.35-3.39Z"/><path d="M217,49.57a3,3,0,0,1,4.35-2,.28.28,0,0,0,.39-.36,7.29,7.29,0,0,0-13.23,0,.28.28,0,0,0,.39.36,3,3,0,0,1,2-.28,3,3,0,0,1-.63,6,3,3,0,0,1-1.4-.34.28.28,0,0,0-.38.36,7.29,7.29,0,0,0,13.23,0,.28.28,0,0,0-.39-.36,3,3,0,0,1-1.4.34A3,3,0,0,1,217,49.57Z"/><path d="M235.79,49.57a3,3,0,0,1,4.34-2,.28.28,0,0,0,.39-.36,7.29,7.29,0,0,0-13.23,0,.28.28,0,0,0,.39.36,3,3,0,1,1,0,5.36.28.28,0,0,0-.38.36,7.29,7.29,0,0,0,13.23,0,.28.28,0,0,0-.38-.36,3,3,0,0,1-4.35-3.39Z"/><path d="M254.62,49.57a3,3,0,0,1,2.32-2.25,3,3,0,0,1,2,.28.28.28,0,0,0,.39-.36,7.29,7.29,0,0,0-13.23,0,.28.28,0,0,0,.39.36,3,3,0,1,1,1.4,5.7,3,3,0,0,1-1.4-.34.28.28,0,0,0-.39.36,7.29,7.29,0,0,0,13.23,0A.28.28,0,0,0,259,53a3,3,0,0,1-1.4.34A3,3,0,0,1,254.62,49.57Z"/><path d="M273.46,49.57a3,3,0,0,1,4.34-2,.28.28,0,0,0,.39-.36,7.29,7.29,0,0,0-13.23,0,.28.28,0,0,0,.39.36,3,3,0,1,1,0,5.36.28.28,0,0,0-.38.36,7.29,7.29,0,0,0,13.23,0,.28.28,0,0,0-.39-.36,3,3,0,0,1-1.4.34A3,3,0,0,1,273.46,49.57Z"/><path d="M292.29,49.57a3,3,0,0,1,4.34-2,.28.28,0,0,0,.39-.36,7.29,7.29,0,0,0-13.23,0,.28.28,0,0,0,.39.36,3,3,0,1,1,1.4,5.7,3,3,0,0,1-1.4-.34.28.28,0,0,0-.39.36,7.29,7.29,0,0,0,13.23,0,.28.28,0,0,0-.38-.36,3,3,0,0,1-4.35-3.39Z"/><path d="M310.92,49.57a3,3,0,0,1,2.32-2.25,3,3,0,0,1,2,.28.28.28,0,0,0,.39-.36,7.29,7.29,0,0,0-13.23,0,.28.28,0,0,0,.39.36,3,3,0,1,1,1.4,5.7,3,3,0,0,1-1.4-.34.28.28,0,0,0-.39.36,7.29,7.29,0,0,0,13.23,0,.28.28,0,0,0-.38-.36,3,3,0,0,1-4.35-3.39Z"/><path d="M329.76,49.57a3,3,0,0,1,4.34-2,.28.28,0,0,0,.39-.36,7.29,7.29,0,0,0-13.23,0,.28.28,0,0,0,.39.36,3,3,0,0,1,2-.28,3,3,0,1,1-2,5.64.28.28,0,0,0-.38.36,7.29,7.29,0,0,0,13.23,0,.28.28,0,0,0-.39-.36,3,3,0,0,1-1.4.34A3,3,0,0,1,329.76,49.57Z"/><path d="M348.59,49.57a3,3,0,0,1,4.34-2,.28.28,0,0,0,.39-.36,7.29,7.29,0,0,0-13.23,0,.28.28,0,0,0,.39.36,3,3,0,1,1,0,5.36.28.28,0,0,0-.38.36,7.29,7.29,0,0,0,13.23,0,.28.28,0,0,0-.38-.36,3,3,0,0,1-4.35-3.39Z"/><path d="M367.42,49.57a3,3,0,0,1,4.35-2,.28.28,0,0,0,.38-.36,7.28,7.28,0,0,0-13.22,0,.28.28,0,0,0,.38.36,3,3,0,1,1,1.4,5.7,3,3,0,0,1-1.4-.34.28.28,0,0,0-.39.36,7.29,7.29,0,0,0,13.23,0,.28.28,0,0,0-.38-.36,3,3,0,0,1-1.4.34A3,3,0,0,1,367.42,49.57Z"/><path d="M385.71,49.57a3,3,0,0,1,4.34-2,.28.28,0,0,0,.39-.36,7.29,7.29,0,0,0-13.23,0,.28.28,0,0,0,.39.36,3,3,0,1,1,0,5.36.28.28,0,0,0-.38.36,7.29,7.29,0,0,0,13.23,0,.28.28,0,0,0-.38-.36,3,3,0,0,1-4.35-3.39Z"/><path d="M404.54,49.57a3,3,0,0,1,2.32-2.25,3,3,0,0,1,2,.28.28.28,0,0,0,.39-.36,7.29,7.29,0,0,0-13.23,0,.28.28,0,0,0,.39.36,3,3,0,1,1,1.4,5.7,3,3,0,0,1-1.4-.34.28.28,0,0,0-.39.36,7.29,7.29,0,0,0,13.23,0,.28.28,0,0,0-.38-.36,3,3,0,0,1-1.4.34A3,3,0,0,1,404.54,49.57Z"/><path d="M423.38,49.57a3,3,0,0,1,4.34-2,.28.28,0,0,0,.39-.36,7.29,7.29,0,0,0-13.23,0,.28.28,0,0,0,.39.36,3,3,0,1,1,0,5.36.28.28,0,0,0-.38.36,7.29,7.29,0,0,0,13.23,0,.28.28,0,0,0-.39-.36,3,3,0,0,1-1.4.34A3,3,0,0,1,423.38,49.57Z"/><path d="M442.21,49.57a3,3,0,0,1,4.34-2,.28.28,0,0,0,.39-.36,7.29,7.29,0,0,0-13.23,0,.28.28,0,0,0,.39.36,3,3,0,1,1,1.4,5.7,3,3,0,0,1-1.4-.34.28.28,0,0,0-.39.36,7.29,7.29,0,0,0,13.23,0,.28.28,0,0,0-.38-.36,3,3,0,0,1-4.35-3.39Z"/><path d="M461,49.57a3,3,0,0,1,4.35-2,.28.28,0,0,0,.39-.36,7.29,7.29,0,0,0-13.23,0,.28.28,0,0,0,.39.36,3,3,0,0,1,2-.28,3,3,0,0,1-.63,6,3,3,0,0,1-1.4-.34.28.28,0,0,0-.38.36,7.29,7.29,0,0,0,13.23,0,.28.28,0,0,0-.39-.36,3,3,0,0,1-1.4.34A3,3,0,0,1,461,49.57Z"/><path d="M479.88,49.57a3,3,0,0,1,4.34-2,.28.28,0,0,0,.39-.36,7.29,7.29,0,0,0-13.23,0,.28.28,0,0,0,.39.36,3,3,0,1,1,0,5.36.28.28,0,0,0-.38.36,7.29,7.29,0,0,0,13.23,0,.28.28,0,0,0-.38-.36,3,3,0,0,1-4.35-3.39Z"/><path d="M498.71,49.57A3,3,0,0,1,501,47.32a3,3,0,0,1,2,.28.28.28,0,0,0,.39-.36,7.29,7.29,0,0,0-13.23,0,.28.28,0,0,0,.39.36,3,3,0,1,1,1.4,5.7,3,3,0,0,1-1.4-.34.28.28,0,0,0-.39.36,7.29,7.29,0,0,0,13.23,0,.28.28,0,0,0-.38-.36,3,3,0,0,1-1.4.34A3,3,0,0,1,498.71,49.57Z"/><path d="M517.55,49.57a3,3,0,0,1,4.34-2,.28.28,0,0,0,.39-.36,7.29,7.29,0,0,0-13.23,0,.28.28,0,0,0,.39.36,3,3,0,0,1,2-.28,3,3,0,1,1-2,5.64.28.28,0,0,0-.38.36,7.29,7.29,0,0,0,13.23,0,.28.28,0,0,0-.39-.36,3,3,0,0,1-1.4.34A3,3,0,0,1,517.55,49.57Z"/><path d="M536.38,49.57a3,3,0,0,1,4.34-2,.28.28,0,0,0,.39-.36,7.29,7.29,0,0,0-13.23,0,.28.28,0,0,0,.39.36,3,3,0,1,1,0,5.36.28.28,0,0,0-.38.36,7.29,7.29,0,0,0,13.23,0,.28.28,0,0,0-.38-.36,3,3,0,0,1-4.35-3.39Z"/><path d="M555.21,49.57a3,3,0,0,1,4.35-2,.28.28,0,0,0,.39-.36,7.29,7.29,0,0,0-13.23,0,.28.28,0,0,0,.38.36,3,3,0,1,1,1.4,5.7,3,3,0,0,1-1.4-.34.28.28,0,0,0-.38.36,7.29,7.29,0,0,0,13.23,0,.28.28,0,0,0-.39-.36,3,3,0,0,1-1.4.34A3,3,0,0,1,555.21,49.57Z"/><path d="M780.14,49.57a3,3,0,0,1,4.35-2,.28.28,0,0,0,.38-.36,7.28,7.28,0,0,0-13.22,0,.28.28,0,0,0,.38.36,3,3,0,1,1,1.4,5.7A3,3,0,0,1,772,53a.28.28,0,0,0-.38.36,7.28,7.28,0,0,0,13.22,0,.27.27,0,0,0-.38-.36,3,3,0,0,1-1.4.34A3,3,0,0,1,780.14,49.57Z"/><path d="M799,49.57a3,3,0,0,1,4.34-2,.28.28,0,0,0,.39-.36,7.29,7.29,0,0,0-13.23,0,.28.28,0,0,0,.39.36,3,3,0,1,1,0,5.36.28.28,0,0,0-.38.36,7.29,7.29,0,0,0,13.23,0,.28.28,0,0,0-.38-.36A3,3,0,0,1,799,49.57Z"/><path d="M817.81,49.57a3,3,0,0,1,2.32-2.25,3,3,0,0,1,2,.28.28.28,0,0,0,.39-.36,7.29,7.29,0,0,0-13.23,0,.28.28,0,0,0,.39.36,3,3,0,1,1,1.4,5.7,3,3,0,0,1-1.4-.34.28.28,0,0,0-.39.36,7.29,7.29,0,0,0,13.23,0,.28.28,0,0,0-.38-.36,3,3,0,0,1-4.35-3.39Z"/><path d="M836.65,49.57a3,3,0,0,1,4.34-2,.28.28,0,0,0,.39-.36,7.29,7.29,0,0,0-13.23,0,.28.28,0,0,0,.39.36,3,3,0,0,1,2-.28,3,3,0,1,1-2,5.64.28.28,0,0,0-.38.36,7.29,7.29,0,0,0,13.23,0A.28.28,0,0,0,841,53a3,3,0,0,1-1.4.34A3,3,0,0,1,836.65,49.57Z"/><path d="M855.48,49.57a3,3,0,0,1,4.34-2,.28.28,0,0,0,.39-.36,7.29,7.29,0,0,0-13.23,0,.28.28,0,0,0,.39.36,3,3,0,1,1,0,5.36.28.28,0,0,0-.38.36,7.29,7.29,0,0,0,13.23,0,.28.28,0,0,0-.38-.36,3,3,0,0,1-4.35-3.39Z"/><path d="M874.31,49.57a3,3,0,0,1,4.35-2,.28.28,0,0,0,.38-.36,7.28,7.28,0,0,0-13.22,0,.28.28,0,0,0,.38.36,3,3,0,1,1,1.4,5.7,3,3,0,0,1-1.4-.34.28.28,0,0,0-.39.36,7.29,7.29,0,0,0,13.23,0,.28.28,0,0,0-.38-.36,3,3,0,0,1-1.4.34A3,3,0,0,1,874.31,49.57Z"/><path d="M892.94,49.57a3,3,0,0,1,4.35-2,.28.28,0,0,0,.39-.36,7.29,7.29,0,0,0-13.23,0,.28.28,0,0,0,.39.36,3,3,0,0,1,2-.28,3,3,0,0,1-.63,6,3,3,0,0,1-1.4-.34.28.28,0,0,0-.38.36,7.29,7.29,0,0,0,13.23,0,.28.28,0,0,0-.39-.36,3,3,0,0,1-1.4.34A3,3,0,0,1,892.94,49.57Z"/><path d="M911.78,49.57a3,3,0,0,1,4.34-2,.28.28,0,0,0,.39-.36,7.29,7.29,0,0,0-13.23,0,.28.28,0,0,0,.39.36,3,3,0,1,1,0,5.36.28.28,0,0,0-.38.36,7.29,7.29,0,0,0,13.23,0,.28.28,0,0,0-.38-.36,3,3,0,0,1-4.35-3.39Z"/><path d="M930.61,49.57a3,3,0,0,1,2.32-2.25,3,3,0,0,1,2,.28.28.28,0,0,0,.39-.36,7.29,7.29,0,0,0-13.23,0,.28.28,0,0,0,.39.36,3,3,0,1,1,1.4,5.7,3,3,0,0,1-1.4-.34.28.28,0,0,0-.39.36,7.29,7.29,0,0,0,13.23,0A.28.28,0,0,0,935,53a3,3,0,0,1-1.4.34A3,3,0,0,1,930.61,49.57Z"/><path d="M949.45,49.57a3,3,0,0,1,4.34-2,.28.28,0,0,0,.39-.36,7.29,7.29,0,0,0-13.23,0,.28.28,0,0,0,.39.36,3,3,0,0,1,2-.28,3,3,0,1,1-2,5.64.28.28,0,0,0-.38.36,7.29,7.29,0,0,0,13.23,0,.28.28,0,0,0-.39-.36,3,3,0,0,1-1.4.34A3,3,0,0,1,949.45,49.57Z"/><path d="M968,49.57a3,3,0,0,1,4.34-2,.28.28,0,0,0,.39-.36,7.29,7.29,0,0,0-13.23,0,.28.28,0,0,0,.39.36,3,3,0,1,1,0,5.36.28.28,0,0,0-.38.36,7.29,7.29,0,0,0,13.23,0,.28.28,0,0,0-.38-.36A3,3,0,0,1,968,49.57Z"/><path d="M986.83,49.57a3,3,0,0,1,4.35-2,.28.28,0,0,0,.38-.36,7.28,7.28,0,0,0-13.22,0,.28.28,0,0,0,.38.36,3,3,0,1,1,1.4,5.7,3,3,0,0,1-1.4-.34.28.28,0,0,0-.38.36,7.29,7.29,0,0,0,13.23,0,.28.28,0,0,0-.39-.36,3,3,0,0,1-1.4.34A3,3,0,0,1,986.83,49.57Z"/><path d="M1005.67,49.57a3,3,0,0,1,4.34-2,.28.28,0,0,0,.39-.36,7.29,7.29,0,0,0-13.23,0,.28.28,0,0,0,.39.36,3,3,0,1,1,0,5.36.28.28,0,0,0-.38.36,7.29,7.29,0,0,0,13.23,0A.28.28,0,0,0,1010,53a3,3,0,0,1-4.35-3.39Z"/><path d="M1024.5,49.57a3,3,0,0,1,2.32-2.25,3,3,0,0,1,2,.28.28.28,0,0,0,.39-.36,7.29,7.29,0,0,0-13.23,0,.28.28,0,0,0,.39.36,3,3,0,1,1,1.4,5.7,3,3,0,0,1-1.4-.34.28.28,0,0,0-.39.36,7.29,7.29,0,0,0,13.23,0,.28.28,0,0,0-.38-.36,3,3,0,0,1-4.35-3.39Z"/><path d="M1043.34,49.57a3,3,0,0,1,4.34-2,.28.28,0,0,0,.39-.36,7.29,7.29,0,0,0-13.23,0,.28.28,0,0,0,.39.36,3,3,0,0,1,2-.28,3,3,0,1,1-2,5.64.28.28,0,0,0-.38.36,7.29,7.29,0,0,0,13.23,0,.28.28,0,0,0-.39-.36,3,3,0,0,1-1.4.34A3,3,0,0,1,1043.34,49.57Z"/><path d="M1062.17,49.57a3,3,0,0,1,4.34-2,.28.28,0,0,0,.39-.36,7.29,7.29,0,0,0-13.23,0,.28.28,0,0,0,.39.36,3,3,0,1,1,0,5.36.28.28,0,0,0-.38.36,7.29,7.29,0,0,0,13.23,0,.28.28,0,0,0-.38-.36,3,3,0,0,1-4.35-3.39Z"/><path d="M1081,49.57a3,3,0,0,1,4.35-2,.28.28,0,0,0,.38-.36,7.28,7.28,0,0,0-13.22,0,.28.28,0,0,0,.38.36,3,3,0,1,1,1.4,5.7,3,3,0,0,1-1.4-.34.28.28,0,0,0-.39.36,7.29,7.29,0,0,0,13.23,0,.28.28,0,0,0-.38-.36,3,3,0,0,1-1.4.34A3,3,0,0,1,1081,49.57Z"/><path d="M1099.84,49.57a3,3,0,0,1,4.34-2,.28.28,0,0,0,.39-.36,7.29,7.29,0,0,0-13.23,0,.28.28,0,0,0,.39.36,3,3,0,1,1,0,5.36.28.28,0,0,0-.38.36,7.29,7.29,0,0,0,13.23,0,.28.28,0,0,0-.38-.36,3,3,0,0,1-4.35-3.39Z"/><path d="M1118.67,49.57a3,3,0,0,1,2.32-2.25,3,3,0,0,1,2,.28.28.28,0,0,0,.39-.36,7.29,7.29,0,0,0-13.23,0,.28.28,0,0,0,.39.36,3,3,0,1,1,1.4,5.7,3,3,0,0,1-1.4-.34.28.28,0,0,0-.39.36,7.29,7.29,0,0,0,13.23,0A.28.28,0,0,0,1123,53a3,3,0,0,1-4.35-3.39Z"/><path d="M1137.5,49.57a3,3,0,0,1,4.35-2,.28.28,0,0,0,.39-.36,7.29,7.29,0,0,0-13.23,0,.28.28,0,0,0,.39.36,3,3,0,0,1,2-.28,3,3,0,1,1-2,5.64.28.28,0,0,0-.38.36,7.29,7.29,0,0,0,13.23,0,.28.28,0,0,0-.39-.36,3,3,0,0,1-1.4.34A3,3,0,0,1,1137.5,49.57Z"/><path d="M1156.34,49.57a3,3,0,0,1,4.34-2,.28.28,0,0,0,.39-.36,7.29,7.29,0,0,0-13.23,0,.28.28,0,0,0,.39.36,3,3,0,1,1,0,5.36.28.28,0,0,0-.38.36,7.29,7.29,0,0,0,13.23,0,.28.28,0,0,0-.38-.36,3,3,0,0,1-4.35-3.39Z"/><path d="M1175.17,49.57a3,3,0,0,1,4.35-2,.28.28,0,0,0,.38-.36,7.29,7.29,0,0,0-13.23,0,.28.28,0,0,0,.39.36,3,3,0,1,1,1.4,5.7,3,3,0,0,1-1.4-.34.28.28,0,0,0-.39.36,7.29,7.29,0,0,0,13.23,0,.28.28,0,0,0-.38-.36,3,3,0,0,1-1.4.34A3,3,0,0,1,1175.17,49.57Z"/><path d="M1194,49.57a3,3,0,0,1,4.34-2,.28.28,0,0,0,.39-.36,7.29,7.29,0,0,0-13.23,0,.28.28,0,0,0,.39.36,3,3,0,1,1,0,5.36.28.28,0,0,0-.38.36,7.29,7.29,0,0,0,13.23,0,.28.28,0,0,0-.38-.36,3,3,0,0,1-4.35-3.39Z"/><path d="M1212.84,49.57a3,3,0,0,1,2.32-2.25,3,3,0,0,1,2,.28.28.28,0,0,0,.39-.36,7.29,7.29,0,0,0-13.23,0,.28.28,0,0,0,.39.36,3,3,0,1,1,1.4,5.7,3,3,0,0,1-1.4-.34.28.28,0,0,0-.39.36,7.29,7.29,0,0,0,13.23,0,.28.28,0,0,0-.38-.36,3,3,0,0,1-4.35-3.39Z"/><path d="M1231.67,49.57a3,3,0,0,1,4.35-2,.28.28,0,0,0,.39-.36,7.29,7.29,0,0,0-13.23,0,.28.28,0,0,0,.39.36,3,3,0,0,1,2-.28,3,3,0,0,1-.63,6,3,3,0,0,1-1.4-.34.28.28,0,0,0-.38.36,7.29,7.29,0,0,0,13.23,0A.28.28,0,0,0,1236,53a3,3,0,0,1-1.4.34A3,3,0,0,1,1231.67,49.57Z"/><path d="M1250.51,49.57a3,3,0,0,1,4.34-2,.28.28,0,0,0,.39-.36,7.29,7.29,0,0,0-13.23,0,.28.28,0,0,0,.39.36,3,3,0,1,1,0,5.36.28.28,0,0,0-.38.36,7.29,7.29,0,0,0,13.23,0,.28.28,0,0,0-.38-.36,3,3,0,0,1-4.35-3.39Z"/><path d="M1269.14,49.57a3,3,0,0,1,4.34-2,.28.28,0,0,0,.39-.36,7.29,7.29,0,0,0-13.23,0,.28.28,0,0,0,.39.36,3,3,0,1,1,0,5.36.28.28,0,0,0-.38.36,7.29,7.29,0,0,0,13.23,0,.28.28,0,0,0-.38-.36,3,3,0,0,1-4.35-3.39Z"/><path d="M1288,49.57a3,3,0,0,1,4.35-2,.28.28,0,0,0,.38-.36,7.28,7.28,0,0,0-13.22,0,.28.28,0,0,0,.38.36,3,3,0,1,1,1.4,5.7,3,3,0,0,1-1.4-.34.28.28,0,0,0-.38.36,7.29,7.29,0,0,0,13.23,0,.28.28,0,0,0-.39-.36,3,3,0,0,1-1.4.34A3,3,0,0,1,1288,49.57Z"/><path d="M1306.81,49.57a3,3,0,0,1,4.34-2,.28.28,0,0,0,.39-.36,7.29,7.29,0,0,0-13.23,0,.28.28,0,0,0,.39.36,3,3,0,1,1,0,5.36.28.28,0,0,0-.38.36,7.29,7.29,0,0,0,13.23,0,.28.28,0,0,0-.38-.36,3,3,0,0,1-4.35-3.39Z"/><path d="M1325.64,49.57a3,3,0,0,1,2.32-2.25,3,3,0,0,1,2,.28.28.28,0,0,0,.39-.36,7.29,7.29,0,0,0-13.23,0,.28.28,0,0,0,.39.36,3,3,0,1,1,1.4,5.7,3,3,0,0,1-1.4-.34.28.28,0,0,0-.39.36,7.29,7.29,0,0,0,13.23,0A.28.28,0,0,0,1330,53a3,3,0,0,1-4.35-3.39Z"/></g><path class="cls-9" d="M10.37,48.4a3,3,0,0,1,4.34-2,.28.28,0,0,0,.39-.36,7.29,7.29,0,0,0-13.23,0,.28.28,0,0,0,.39.36,3,3,0,1,1,0,5.36.28.28,0,0,0-.38.36,7.29,7.29,0,0,0,13.23,0,.28.28,0,0,0-.38-.36,3,3,0,0,1-4.35-3.39Z"/><path class="cls-9" d="M29.2,48.4a3,3,0,0,1,2.32-2.25,3,3,0,0,1,2,.28.28.28,0,0,0,.39-.36,7.29,7.29,0,0,0-13.23,0,.28.28,0,0,0,.39.36,3,3,0,1,1,1.4,5.7,3,3,0,0,1-1.4-.34.28.28,0,0,0-.39.36,7.29,7.29,0,0,0,13.23,0,.28.28,0,0,0-.38-.36,3,3,0,0,1-1.4.34A3,3,0,0,1,29.2,48.4Z"/><path class="cls-9" d="M48,48.4a3,3,0,0,1,4.34-2,.28.28,0,0,0,.39-.36,7.29,7.29,0,0,0-13.23,0,.28.28,0,0,0,.39.36,3,3,0,1,1,0,5.36.28.28,0,0,0-.38.36,7.29,7.29,0,0,0,13.23,0,.28.28,0,0,0-.39-.36,3,3,0,0,1-1.4.34A3,3,0,0,1,48,48.4Z"/><path class="cls-9" d="M66.87,48.4a3,3,0,0,1,4.34-2,.28.28,0,0,0,.39-.36,7.29,7.29,0,0,0-13.23,0,.28.28,0,0,0,.39.36,3,3,0,1,1,1.4,5.7,3,3,0,0,1-1.4-.34.28.28,0,0,0-.39.36,7.29,7.29,0,0,0,13.23,0,.28.28,0,0,0-.38-.36,3,3,0,0,1-4.35-3.39Z"/><path class="cls-9" d="M85.7,48.4a3,3,0,0,1,4.35-2,.28.28,0,0,0,.39-.36,7.29,7.29,0,0,0-13.23,0,.28.28,0,0,0,.39.36,3,3,0,0,1,2-.28,3,3,0,0,1-.63,6,3,3,0,0,1-1.4-.34.28.28,0,0,0-.38.36,7.29,7.29,0,0,0,13.23,0,.28.28,0,0,0-.39-.36,3,3,0,0,1-1.4.34A3,3,0,0,1,85.7,48.4Z"/><path class="cls-9" d="M104.54,48.4a3,3,0,0,1,4.34-2,.28.28,0,0,0,.39-.36,7.29,7.29,0,0,0-13.23,0,.28.28,0,0,0,.39.36,3,3,0,1,1,0,5.36.28.28,0,0,0-.38.36,7.29,7.29,0,0,0,13.23,0,.28.28,0,0,0-.38-.36,3,3,0,0,1-4.35-3.39Z"/><path class="cls-9" d="M123.37,48.4a3,3,0,0,1,2.32-2.25,3,3,0,0,1,2,.28.28.28,0,0,0,.39-.36,7.29,7.29,0,0,0-13.23,0,.28.28,0,0,0,.39.36,3,3,0,1,1,1.4,5.7,3,3,0,0,1-1.4-.34.28.28,0,0,0-.39.36,7.29,7.29,0,0,0,13.23,0,.28.28,0,0,0-.38-.36,3,3,0,0,1-1.4.34A3,3,0,0,1,123.37,48.4Z"/><path class="cls-9" d="M142.21,48.4a3,3,0,0,1,4.34-2,.28.28,0,0,0,.39-.36,7.29,7.29,0,0,0-13.23,0,.28.28,0,0,0,.39.36,3,3,0,0,1,2-.28,3,3,0,1,1-2,5.64.28.28,0,0,0-.38.36,7.29,7.29,0,0,0,13.23,0,.28.28,0,0,0-.39-.36,3,3,0,0,1-1.4.34A3,3,0,0,1,142.21,48.4Z"/><path class="cls-9" d="M161,48.4a3,3,0,0,1,4.34-2,.28.28,0,0,0,.39-.36,7.29,7.29,0,0,0-13.23,0,.28.28,0,0,0,.39.36,3,3,0,1,1,0,5.36.28.28,0,0,0-.38.36,7.29,7.29,0,0,0,13.23,0,.28.28,0,0,0-.38-.36A3,3,0,0,1,161,48.4Z"/><path class="cls-9" d="M179.87,48.4a3,3,0,0,1,4.35-2,.28.28,0,0,0,.39-.36,7.29,7.29,0,0,0-13.23,0,.28.28,0,0,0,.39.36,3,3,0,0,1,2-.28,3,3,0,0,1-.63,6,3,3,0,0,1-1.4-.34.28.28,0,0,0-.38.36,7.29,7.29,0,0,0,13.23,0,.28.28,0,0,0-.39-.36,3,3,0,0,1-1.4.34A3,3,0,0,1,179.87,48.4Z"/><path class="cls-9" d="M198.71,48.4a3,3,0,0,1,4.34-2,.28.28,0,0,0,.39-.36,7.29,7.29,0,0,0-13.23,0,.28.28,0,0,0,.39.36,3,3,0,1,1,0,5.36.28.28,0,0,0-.38.36,7.29,7.29,0,0,0,13.23,0,.28.28,0,0,0-.38-.36,3,3,0,0,1-4.35-3.39Z"/><path class="cls-9" d="M217.54,48.4a3,3,0,0,1,2.32-2.25,3,3,0,0,1,2,.28.28.28,0,0,0,.39-.36,7.29,7.29,0,0,0-13.23,0,.28.28,0,0,0,.39.36,3,3,0,1,1,1.4,5.7,3,3,0,0,1-1.4-.34.28.28,0,0,0-.39.36,7.29,7.29,0,0,0,13.23,0,.28.28,0,0,0-.38-.36,3,3,0,0,1-4.35-3.39Z"/><path class="cls-9" d="M236.38,48.4a3,3,0,0,1,4.34-2,.28.28,0,0,0,.39-.36,7.29,7.29,0,0,0-13.23,0,.28.28,0,0,0,.39.36,3,3,0,0,1,2-.28,3,3,0,1,1-2,5.64.28.28,0,0,0-.38.36,7.29,7.29,0,0,0,13.23,0,.28.28,0,0,0-.39-.36,3,3,0,0,1-1.4.34A3,3,0,0,1,236.38,48.4Z"/><path class="cls-9" d="M255.21,48.4a3,3,0,0,1,4.34-2,.28.28,0,0,0,.39-.36,7.29,7.29,0,0,0-13.23,0,.28.28,0,0,0,.39.36,3,3,0,1,1,0,5.36.28.28,0,0,0-.38.36,7.29,7.29,0,0,0,13.23,0,.28.28,0,0,0-.38-.36,3,3,0,0,1-4.35-3.39Z"/><path class="cls-9" d="M274,48.4a3,3,0,0,1,4.35-2,.28.28,0,0,0,.38-.36,7.28,7.28,0,0,0-13.22,0,.28.28,0,0,0,.38.36,3,3,0,1,1,1.4,5.7,3,3,0,0,1-1.4-.34.28.28,0,0,0-.38.36,7.29,7.29,0,0,0,13.23,0,.28.28,0,0,0-.39-.36,3,3,0,0,1-1.4.34A3,3,0,0,1,274,48.4Z"/><path class="cls-9" d="M292.88,48.4a3,3,0,0,1,4.34-2,.28.28,0,0,0,.39-.36,7.29,7.29,0,0,0-13.23,0,.28.28,0,0,0,.39.36,3,3,0,1,1,0,5.36.28.28,0,0,0-.38.36,7.29,7.29,0,0,0,13.23,0,.28.28,0,0,0-.38-.36,3,3,0,0,1-4.35-3.39Z"/><path class="cls-9" d="M311.51,48.4a3,3,0,0,1,4.34-2,.28.28,0,0,0,.39-.36,7.29,7.29,0,0,0-13.23,0,.28.28,0,0,0,.39.36,3,3,0,1,1,0,5.36.28.28,0,0,0-.38.36,7.29,7.29,0,0,0,13.23,0,.28.28,0,0,0-.38-.36,3,3,0,0,1-4.35-3.39Z"/><path class="cls-9" d="M330.34,48.4a3,3,0,0,1,2.32-2.25,3,3,0,0,1,2,.28.28.28,0,0,0,.39-.36,7.29,7.29,0,0,0-13.23,0,.28.28,0,0,0,.39.36,3,3,0,1,1,1.4,5.7,3,3,0,0,1-1.4-.34.28.28,0,0,0-.39.36,7.29,7.29,0,0,0,13.23,0,.28.28,0,0,0-.38-.36,3,3,0,0,1-1.4.34A3,3,0,0,1,330.34,48.4Z"/><path class="cls-9" d="M349.18,48.4a3,3,0,0,1,4.34-2,.28.28,0,0,0,.39-.36,7.29,7.29,0,0,0-13.23,0,.28.28,0,0,0,.39.36,3,3,0,1,1,0,5.36.28.28,0,0,0-.38.36,7.29,7.29,0,0,0,13.23,0,.28.28,0,0,0-.39-.36,3,3,0,0,1-1.4.34A3,3,0,0,1,349.18,48.4Z"/><path class="cls-9" d="M368,48.4a3,3,0,0,1,4.34-2,.28.28,0,0,0,.39-.36,7.29,7.29,0,0,0-13.23,0,.28.28,0,0,0,.39.36,3,3,0,1,1,1.4,5.7,3,3,0,0,1-1.4-.34.28.28,0,0,0-.39.36,7.29,7.29,0,0,0,13.23,0,.28.28,0,0,0-.38-.36A3,3,0,0,1,368,48.4Z"/><path class="cls-9" d="M386.3,48.4a3,3,0,0,1,4.34-2,.28.28,0,0,0,.39-.36,7.29,7.29,0,0,0-13.23,0,.28.28,0,0,0,.39.36,3,3,0,0,1,2-.28,3,3,0,1,1-2,5.64.28.28,0,0,0-.38.36,7.29,7.29,0,0,0,13.23,0,.28.28,0,0,0-.39-.36,3,3,0,0,1-1.4.34A3,3,0,0,1,386.3,48.4Z"/><path class="cls-9" d="M405.13,48.4a3,3,0,0,1,4.34-2,.28.28,0,0,0,.39-.36,7.29,7.29,0,0,0-13.23,0,.28.28,0,0,0,.39.36,3,3,0,1,1,0,5.36.28.28,0,0,0-.38.36,7.29,7.29,0,0,0,13.23,0,.28.28,0,0,0-.38-.36,3,3,0,0,1-4.35-3.39Z"/><path class="cls-9" d="M424,48.4a3,3,0,0,1,4.35-2,.28.28,0,0,0,.38-.36,7.28,7.28,0,0,0-13.22,0,.28.28,0,0,0,.38.36,3,3,0,1,1,1.4,5.7,3,3,0,0,1-1.4-.34.28.28,0,0,0-.38.36,7.29,7.29,0,0,0,13.23,0,.28.28,0,0,0-.39-.36,3,3,0,0,1-1.4.34A3,3,0,0,1,424,48.4Z"/><path class="cls-9" d="M442.8,48.4a3,3,0,0,1,4.34-2,.28.28,0,0,0,.39-.36,7.29,7.29,0,0,0-13.23,0,.28.28,0,0,0,.39.36,3,3,0,1,1,0,5.36.28.28,0,0,0-.38.36,7.29,7.29,0,0,0,13.23,0,.28.28,0,0,0-.38-.36,3,3,0,0,1-4.35-3.39Z"/><path class="cls-9" d="M461.63,48.4A3,3,0,0,1,464,46.15a3,3,0,0,1,2,.28.28.28,0,0,0,.39-.36,7.29,7.29,0,0,0-13.23,0,.28.28,0,0,0,.39.36,3,3,0,1,1,1.4,5.7,3,3,0,0,1-1.4-.34.28.28,0,0,0-.39.36,7.29,7.29,0,0,0,13.23,0,.28.28,0,0,0-.38-.36,3,3,0,0,1-4.35-3.39Z"/><path class="cls-9" d="M480.47,48.4a3,3,0,0,1,4.34-2,.28.28,0,0,0,.39-.36,7.29,7.29,0,0,0-13.23,0,.28.28,0,0,0,.39.36,3,3,0,0,1,2-.28,3,3,0,1,1-2,5.64.28.28,0,0,0-.38.36,7.29,7.29,0,0,0,13.23,0,.28.28,0,0,0-.39-.36,3,3,0,0,1-1.4.34A3,3,0,0,1,480.47,48.4Z"/><path class="cls-9" d="M499.3,48.4a3,3,0,0,1,4.34-2,.28.28,0,0,0,.39-.36,7.29,7.29,0,0,0-13.23,0,.28.28,0,0,0,.39.36,3,3,0,1,1,0,5.36.28.28,0,0,0-.38.36,7.29,7.29,0,0,0,13.23,0,.28.28,0,0,0-.38-.36,3,3,0,0,1-4.35-3.39Z"/><path class="cls-9" d="M518.13,48.4a3,3,0,0,1,4.35-2,.28.28,0,0,0,.38-.36,7.28,7.28,0,0,0-13.22,0,.28.28,0,0,0,.38.36,3,3,0,1,1,1.4,5.7,3,3,0,0,1-1.4-.34.28.28,0,0,0-.39.36,7.29,7.29,0,0,0,13.23,0,.28.28,0,0,0-.38-.36,3,3,0,0,1-1.4.34A3,3,0,0,1,518.13,48.4Z"/><path class="cls-9" d="M537,48.4a3,3,0,0,1,4.34-2,.28.28,0,0,0,.39-.36,7.29,7.29,0,0,0-13.23,0,.28.28,0,0,0,.39.36,3,3,0,1,1,0,5.36.28.28,0,0,0-.38.36,7.29,7.29,0,0,0,13.23,0,.28.28,0,0,0-.38-.36A3,3,0,0,1,537,48.4Z"/><path class="cls-9" d="M555.8,48.4a3,3,0,0,1,2.32-2.25,3,3,0,0,1,2,.28.28.28,0,0,0,.39-.36,7.29,7.29,0,0,0-13.23,0,.28.28,0,0,0,.39.36,3,3,0,1,1,1.4,5.7,3,3,0,0,1-1.4-.34.28.28,0,0,0-.39.36,7.29,7.29,0,0,0,13.23,0,.28.28,0,0,0-.38-.36,3,3,0,0,1-4.35-3.39Z"/><path class="cls-9" d="M780.73,48.4a3,3,0,0,1,2.32-2.25,3,3,0,0,1,2,.28.28.28,0,0,0,.39-.36,7.29,7.29,0,0,0-13.23,0,.28.28,0,0,0,.39.36,3,3,0,1,1,1.4,5.7,3,3,0,0,1-1.4-.34.28.28,0,0,0-.39.36,7.29,7.29,0,0,0,13.23,0,.28.28,0,0,0-.38-.36,3,3,0,0,1-4.35-3.39Z"/><path class="cls-9" d="M799.56,48.4a3,3,0,0,1,4.35-2,.28.28,0,0,0,.39-.36,7.29,7.29,0,0,0-13.23,0,.28.28,0,0,0,.39.36,3,3,0,0,1,2-.28,3,3,0,0,1-.63,6,3,3,0,0,1-1.4-.34.28.28,0,0,0-.38.36,7.29,7.29,0,0,0,13.23,0,.28.28,0,0,0-.39-.36,3,3,0,0,1-1.4.34A3,3,0,0,1,799.56,48.4Z"/><path class="cls-9" d="M818.4,48.4a3,3,0,0,1,4.34-2,.28.28,0,0,0,.39-.36,7.29,7.29,0,0,0-13.23,0,.28.28,0,0,0,.39.36,3,3,0,1,1,0,5.36.28.28,0,0,0-.38.36,7.29,7.29,0,0,0,13.23,0,.28.28,0,0,0-.38-.36,3,3,0,0,1-4.35-3.39Z"/><path class="cls-9" d="M837.23,48.4a3,3,0,0,1,2.32-2.25,3,3,0,0,1,2,.28.28.28,0,0,0,.39-.36,7.29,7.29,0,0,0-13.23,0,.28.28,0,0,0,.39.36,3,3,0,1,1,1.4,5.7,3,3,0,0,1-1.4-.34.28.28,0,0,0-.39.36,7.29,7.29,0,0,0,13.23,0,.28.28,0,0,0-.38-.36,3,3,0,0,1-1.4.34A3,3,0,0,1,837.23,48.4Z"/><path class="cls-9" d="M856.07,48.4a3,3,0,0,1,4.34-2,.28.28,0,0,0,.39-.36,7.29,7.29,0,0,0-13.23,0,.28.28,0,0,0,.39.36,3,3,0,1,1,0,5.36.28.28,0,0,0-.38.36,7.29,7.29,0,0,0,13.23,0,.28.28,0,0,0-.39-.36,3,3,0,0,1-1.4.34A3,3,0,0,1,856.07,48.4Z"/><path class="cls-9" d="M874.9,48.4a3,3,0,0,1,4.34-2,.28.28,0,0,0,.39-.36,7.29,7.29,0,0,0-13.23,0,.28.28,0,0,0,.39.36,3,3,0,1,1,1.4,5.7,3,3,0,0,1-1.4-.34.28.28,0,0,0-.39.36,7.29,7.29,0,0,0,13.23,0,.28.28,0,0,0-.38-.36,3,3,0,0,1-4.35-3.39Z"/><path class="cls-9" d="M893.53,48.4a3,3,0,0,1,2.32-2.25,3,3,0,0,1,2,.28.28.28,0,0,0,.39-.36,7.29,7.29,0,0,0-13.23,0,.28.28,0,0,0,.39.36,3,3,0,1,1,1.4,5.7,3,3,0,0,1-1.4-.34.28.28,0,0,0-.39.36,7.29,7.29,0,0,0,13.23,0,.28.28,0,0,0-.38-.36,3,3,0,0,1-4.35-3.39Z"/><path class="cls-9" d="M912.37,48.4a3,3,0,0,1,4.34-2,.28.28,0,0,0,.39-.36,7.29,7.29,0,0,0-13.23,0,.28.28,0,0,0,.39.36,3,3,0,0,1,2-.28,3,3,0,1,1-2,5.64.28.28,0,0,0-.38.36,7.29,7.29,0,0,0,13.23,0,.28.28,0,0,0-.39-.36,3,3,0,0,1-1.4.34A3,3,0,0,1,912.37,48.4Z"/><path class="cls-9" d="M931.2,48.4a3,3,0,0,1,4.34-2,.28.28,0,0,0,.39-.36,7.29,7.29,0,0,0-13.23,0,.28.28,0,0,0,.39.36,3,3,0,1,1,0,5.36.28.28,0,0,0-.38.36,7.29,7.29,0,0,0,13.23,0,.28.28,0,0,0-.38-.36,3,3,0,0,1-4.35-3.39Z"/><path class="cls-9" d="M950,48.4a3,3,0,0,1,4.35-2,.28.28,0,0,0,.38-.36,7.28,7.28,0,0,0-13.22,0,.28.28,0,0,0,.38.36,3,3,0,1,1,1.4,5.7,3,3,0,0,1-1.4-.34.28.28,0,0,0-.39.36,7.29,7.29,0,0,0,13.23,0,.28.28,0,0,0-.38-.36,3,3,0,0,1-1.4.34A3,3,0,0,1,950,48.4Z"/><path class="cls-9" d="M968.59,48.4a3,3,0,0,1,4.34-2,.28.28,0,0,0,.39-.36,7.29,7.29,0,0,0-13.23,0,.28.28,0,0,0,.39.36,3,3,0,1,1,0,5.36.28.28,0,0,0-.38.36,7.29,7.29,0,0,0,13.23,0,.28.28,0,0,0-.38-.36,3,3,0,0,1-4.35-3.39Z"/><path class="cls-9" d="M987.42,48.4a3,3,0,0,1,2.32-2.25,3,3,0,0,1,2,.28.28.28,0,0,0,.39-.36,7.29,7.29,0,0,0-13.23,0,.28.28,0,0,0,.39.36,3,3,0,1,1,1.4,5.7,3,3,0,0,1-1.4-.34.28.28,0,0,0-.39.36,7.29,7.29,0,0,0,13.23,0,.28.28,0,0,0-.38-.36,3,3,0,0,1-4.35-3.39Z"/><path class="cls-9" d="M1006.25,48.4a3,3,0,0,1,4.35-2,.28.28,0,0,0,.39-.36,7.29,7.29,0,0,0-13.23,0,.28.28,0,0,0,.39.36,3,3,0,0,1,2-.28,3,3,0,0,1-.63,6,3,3,0,0,1-1.4-.34.28.28,0,0,0-.38.36,7.29,7.29,0,0,0,13.23,0,.28.28,0,0,0-.39-.36,3,3,0,0,1-1.4.34A3,3,0,0,1,1006.25,48.4Z"/><path class="cls-9" d="M1025.09,48.4a3,3,0,0,1,4.34-2,.28.28,0,0,0,.39-.36,7.29,7.29,0,0,0-13.23,0,.28.28,0,0,0,.39.36,3,3,0,1,1,0,5.36.28.28,0,0,0-.38.36,7.29,7.29,0,0,0,13.23,0,.28.28,0,0,0-.38-.36,3,3,0,0,1-4.35-3.39Z"/><path class="cls-9" d="M1043.92,48.4a3,3,0,0,1,2.32-2.25,3,3,0,0,1,2,.28.28.28,0,0,0,.39-.36,7.29,7.29,0,0,0-13.23,0,.28.28,0,0,0,.39.36,3,3,0,1,1,1.4,5.7,3,3,0,0,1-1.4-.34.28.28,0,0,0-.39.36,7.29,7.29,0,0,0,13.23,0,.28.28,0,0,0-.38-.36,3,3,0,0,1-1.4.34A3,3,0,0,1,1043.92,48.4Z"/><path class="cls-9" d="M1062.76,48.4a3,3,0,0,1,4.34-2,.28.28,0,0,0,.39-.36,7.29,7.29,0,0,0-13.23,0,.28.28,0,0,0,.39.36,3,3,0,1,1,0,5.36.28.28,0,0,0-.38.36,7.29,7.29,0,0,0,13.23,0,.28.28,0,0,0-.39-.36,3,3,0,0,1-1.4.34A3,3,0,0,1,1062.76,48.4Z"/><path class="cls-9" d="M1081.59,48.4a3,3,0,0,1,4.34-2,.28.28,0,0,0,.39-.36,7.29,7.29,0,0,0-13.23,0,.28.28,0,0,0,.39.36,3,3,0,1,1,1.4,5.7,3,3,0,0,1-1.4-.34.28.28,0,0,0-.39.36,7.29,7.29,0,0,0,13.23,0,.28.28,0,0,0-.38-.36,3,3,0,0,1-4.35-3.39Z"/><path class="cls-9" d="M1100.42,48.4a3,3,0,0,1,4.35-2,.28.28,0,0,0,.39-.36,7.29,7.29,0,0,0-13.23,0,.28.28,0,0,0,.39.36,3,3,0,0,1,2-.28,3,3,0,0,1-.63,6,3,3,0,0,1-1.4-.34.28.28,0,0,0-.38.36,7.29,7.29,0,0,0,13.23,0,.28.28,0,0,0-.39-.36,3,3,0,0,1-1.4.34A3,3,0,0,1,1100.42,48.4Z"/><path class="cls-9" d="M1119.26,48.4a3,3,0,0,1,4.34-2,.28.28,0,0,0,.39-.36,7.29,7.29,0,0,0-13.23,0,.28.28,0,0,0,.39.36,3,3,0,1,1,0,5.36.28.28,0,0,0-.38.36,7.29,7.29,0,0,0,13.23,0,.28.28,0,0,0-.38-.36,3,3,0,0,1-4.35-3.39Z"/><path class="cls-9" d="M1138.09,48.4a3,3,0,0,1,2.32-2.25,3,3,0,0,1,2,.28.28.28,0,0,0,.39-.36,7.29,7.29,0,0,0-13.23,0,.28.28,0,0,0,.39.36,3,3,0,1,1,1.4,5.7,3,3,0,0,1-1.4-.34.28.28,0,0,0-.39.36,7.29,7.29,0,0,0,13.23,0,.28.28,0,0,0-.38-.36,3,3,0,0,1-1.4.34A3,3,0,0,1,1138.09,48.4Z"/><path class="cls-9" d="M1156.93,48.4a3,3,0,0,1,4.34-2,.28.28,0,0,0,.39-.36,7.29,7.29,0,0,0-13.23,0,.28.28,0,0,0,.39.36,3,3,0,0,1,2-.28,3,3,0,1,1-2,5.64.28.28,0,0,0-.38.36,7.29,7.29,0,0,0,13.23,0,.28.28,0,0,0-.39-.36,3,3,0,0,1-1.4.34A3,3,0,0,1,1156.93,48.4Z"/><path class="cls-9" d="M1175.76,48.4a3,3,0,0,1,4.34-2,.28.28,0,0,0,.39-.36,7.29,7.29,0,0,0-13.23,0,.28.28,0,0,0,.39.36,3,3,0,1,1,0,5.36.28.28,0,0,0-.38.36,7.29,7.29,0,0,0,13.23,0,.28.28,0,0,0-.38-.36,3,3,0,0,1-4.35-3.39Z"/><path class="cls-9" d="M1194.59,48.4a3,3,0,0,1,4.35-2,.28.28,0,0,0,.39-.36,7.29,7.29,0,0,0-13.23,0,.28.28,0,0,0,.38.36,3,3,0,1,1,1.4,5.7,3,3,0,0,1-1.4-.34.28.28,0,0,0-.38.36,7.29,7.29,0,0,0,13.23,0,.28.28,0,0,0-.39-.36,3,3,0,0,1-1.4.34A3,3,0,0,1,1194.59,48.4Z"/><path class="cls-9" d="M1213.43,48.4a3,3,0,0,1,4.34-2,.28.28,0,0,0,.39-.36,7.29,7.29,0,0,0-13.23,0,.28.28,0,0,0,.39.36,3,3,0,1,1,0,5.36.28.28,0,0,0-.38.36,7.29,7.29,0,0,0,13.23,0,.28.28,0,0,0-.38-.36,3,3,0,0,1-4.35-3.39Z"/><path class="cls-9" d="M1232.26,48.4a3,3,0,0,1,2.32-2.25,3,3,0,0,1,2,.28.28.28,0,0,0,.39-.36,7.29,7.29,0,0,0-13.23,0,.28.28,0,0,0,.39.36,3,3,0,1,1,1.4,5.7,3,3,0,0,1-1.4-.34.28.28,0,0,0-.39.36,7.29,7.29,0,0,0,13.23,0,.28.28,0,0,0-.38-.36,3,3,0,0,1-4.35-3.39Z"/><path class="cls-9" d="M1251.1,48.4a3,3,0,0,1,4.34-2,.28.28,0,0,0,.39-.36,7.29,7.29,0,0,0-13.23,0,.28.28,0,0,0,.39.36,3,3,0,0,1,2-.28,3,3,0,1,1-2,5.64.28.28,0,0,0-.38.36,7.29,7.29,0,0,0,13.23,0,.28.28,0,0,0-.39-.36,3,3,0,0,1-1.4.34A3,3,0,0,1,1251.1,48.4Z"/><path class="cls-9" d="M1269.73,48.4a3,3,0,0,1,4.34-2,.28.28,0,0,0,.39-.36,7.29,7.29,0,0,0-13.23,0,.28.28,0,0,0,.39.36,3,3,0,1,1,0,5.36.28.28,0,0,0-.38.36,7.29,7.29,0,0,0,13.23,0,.28.28,0,0,0-.38-.36,3,3,0,0,1-4.35-3.39Z"/><path class="cls-9" d="M1288.56,48.4a3,3,0,0,1,2.32-2.25,3,3,0,0,1,2,.28.28.28,0,0,0,.39-.36,7.29,7.29,0,0,0-13.23,0,.28.28,0,0,0,.39.36,3,3,0,1,1,1.4,5.7,3,3,0,0,1-1.4-.34.28.28,0,0,0-.39.36,7.29,7.29,0,0,0,13.23,0,.28.28,0,0,0-.38-.36,3,3,0,0,1-4.35-3.39Z"/><path class="cls-9" d="M1307.39,48.4a3,3,0,0,1,4.35-2,.28.28,0,0,0,.39-.36,7.29,7.29,0,0,0-13.23,0,.28.28,0,0,0,.39.36,3,3,0,0,1,2-.28,3,3,0,0,1-.63,6,3,3,0,0,1-1.4-.34.28.28,0,0,0-.38.36,7.29,7.29,0,0,0,13.23,0,.28.28,0,0,0-.39-.36,3,3,0,0,1-1.4.34A3,3,0,0,1,1307.39,48.4Z"/><path class="cls-9" d="M1326.23,48.4a3,3,0,0,1,4.34-2,.28.28,0,0,0,.39-.36,7.29,7.29,0,0,0-13.23,0,.28.28,0,0,0,.39.36,3,3,0,1,1,0,5.36.28.28,0,0,0-.38.36,7.29,7.29,0,0,0,13.23,0,.28.28,0,0,0-.38-.36,3,3,0,0,1-4.35-3.39Z"/><path class="cls-9" d="M10.37,48.4a3,3,0,0,1,4.34-2,.28.28,0,0,0,.39-.36,7.29,7.29,0,0,0-13.23,0,.28.28,0,0,0,.39.36,3,3,0,1,1,0,5.36.28.28,0,0,0-.38.36,7.29,7.29,0,0,0,13.23,0,.28.28,0,0,0-.38-.36,3,3,0,0,1-4.35-3.39Z"/><path class="cls-9" d="M29.2,48.4a3,3,0,0,1,2.32-2.25,3,3,0,0,1,2,.28.28.28,0,0,0,.39-.36,7.29,7.29,0,0,0-13.23,0,.28.28,0,0,0,.39.36,3,3,0,1,1,1.4,5.7,3,3,0,0,1-1.4-.34.28.28,0,0,0-.39.36,7.29,7.29,0,0,0,13.23,0,.28.28,0,0,0-.38-.36,3,3,0,0,1-1.4.34A3,3,0,0,1,29.2,48.4Z"/><path class="cls-9" d="M48,48.4a3,3,0,0,1,4.34-2,.28.28,0,0,0,.39-.36,7.29,7.29,0,0,0-13.23,0,.28.28,0,0,0,.39.36,3,3,0,1,1,0,5.36.28.28,0,0,0-.38.36,7.29,7.29,0,0,0,13.23,0,.28.28,0,0,0-.39-.36,3,3,0,0,1-1.4.34A3,3,0,0,1,48,48.4Z"/><path class="cls-9" d="M66.87,48.4a3,3,0,0,1,4.34-2,.28.28,0,0,0,.39-.36,7.29,7.29,0,0,0-13.23,0,.28.28,0,0,0,.39.36,3,3,0,1,1,1.4,5.7,3,3,0,0,1-1.4-.34.28.28,0,0,0-.39.36,7.29,7.29,0,0,0,13.23,0,.28.28,0,0,0-.38-.36,3,3,0,0,1-4.35-3.39Z"/><path class="cls-9" d="M85.7,48.4a3,3,0,0,1,4.35-2,.28.28,0,0,0,.39-.36,7.29,7.29,0,0,0-13.23,0,.28.28,0,0,0,.39.36,3,3,0,0,1,2-.28,3,3,0,0,1-.63,6,3,3,0,0,1-1.4-.34.28.28,0,0,0-.38.36,7.29,7.29,0,0,0,13.23,0,.28.28,0,0,0-.39-.36,3,3,0,0,1-1.4.34A3,3,0,0,1,85.7,48.4Z"/><path class="cls-9" d="M104.54,48.4a3,3,0,0,1,4.34-2,.28.28,0,0,0,.39-.36,7.29,7.29,0,0,0-13.23,0,.28.28,0,0,0,.39.36,3,3,0,1,1,0,5.36.28.28,0,0,0-.38.36,7.29,7.29,0,0,0,13.23,0,.28.28,0,0,0-.38-.36,3,3,0,0,1-4.35-3.39Z"/><path class="cls-9" d="M123.37,48.4a3,3,0,0,1,2.32-2.25,3,3,0,0,1,2,.28.28.28,0,0,0,.39-.36,7.29,7.29,0,0,0-13.23,0,.28.28,0,0,0,.39.36,3,3,0,1,1,1.4,5.7,3,3,0,0,1-1.4-.34.28.28,0,0,0-.39.36,7.29,7.29,0,0,0,13.23,0,.28.28,0,0,0-.38-.36,3,3,0,0,1-1.4.34A3,3,0,0,1,123.37,48.4Z"/><path class="cls-9" d="M142.21,48.4a3,3,0,0,1,4.34-2,.28.28,0,0,0,.39-.36,7.29,7.29,0,0,0-13.23,0,.28.28,0,0,0,.39.36,3,3,0,0,1,2-.28,3,3,0,1,1-2,5.64.28.28,0,0,0-.38.36,7.29,7.29,0,0,0,13.23,0,.28.28,0,0,0-.39-.36,3,3,0,0,1-1.4.34A3,3,0,0,1,142.21,48.4Z"/><path class="cls-9" d="M161,48.4a3,3,0,0,1,4.34-2,.28.28,0,0,0,.39-.36,7.29,7.29,0,0,0-13.23,0,.28.28,0,0,0,.39.36,3,3,0,1,1,0,5.36.28.28,0,0,0-.38.36,7.29,7.29,0,0,0,13.23,0,.28.28,0,0,0-.38-.36A3,3,0,0,1,161,48.4Z"/><path class="cls-9" d="M179.87,48.4a3,3,0,0,1,4.35-2,.28.28,0,0,0,.39-.36,7.29,7.29,0,0,0-13.23,0,.28.28,0,0,0,.39.36,3,3,0,0,1,2-.28,3,3,0,0,1-.63,6,3,3,0,0,1-1.4-.34.28.28,0,0,0-.38.36,7.29,7.29,0,0,0,13.23,0,.28.28,0,0,0-.39-.36,3,3,0,0,1-1.4.34A3,3,0,0,1,179.87,48.4Z"/><path class="cls-9" d="M198.71,48.4a3,3,0,0,1,4.34-2,.28.28,0,0,0,.39-.36,7.29,7.29,0,0,0-13.23,0,.28.28,0,0,0,.39.36,3,3,0,1,1,0,5.36.28.28,0,0,0-.38.36,7.29,7.29,0,0,0,13.23,0,.28.28,0,0,0-.38-.36,3,3,0,0,1-4.35-3.39Z"/><path class="cls-9" d="M217.54,48.4a3,3,0,0,1,2.32-2.25,3,3,0,0,1,2,.28.28.28,0,0,0,.39-.36,7.29,7.29,0,0,0-13.23,0,.28.28,0,0,0,.39.36,3,3,0,1,1,1.4,5.7,3,3,0,0,1-1.4-.34.28.28,0,0,0-.39.36,7.29,7.29,0,0,0,13.23,0,.28.28,0,0,0-.38-.36,3,3,0,0,1-4.35-3.39Z"/><path class="cls-9" d="M236.38,48.4a3,3,0,0,1,4.34-2,.28.28,0,0,0,.39-.36,7.29,7.29,0,0,0-13.23,0,.28.28,0,0,0,.39.36,3,3,0,0,1,2-.28,3,3,0,1,1-2,5.64.28.28,0,0,0-.38.36,7.29,7.29,0,0,0,13.23,0,.28.28,0,0,0-.39-.36,3,3,0,0,1-1.4.34A3,3,0,0,1,236.38,48.4Z"/><path class="cls-9" d="M255.21,48.4a3,3,0,0,1,4.34-2,.28.28,0,0,0,.39-.36,7.29,7.29,0,0,0-13.23,0,.28.28,0,0,0,.39.36,3,3,0,1,1,0,5.36.28.28,0,0,0-.38.36,7.29,7.29,0,0,0,13.23,0,.28.28,0,0,0-.38-.36,3,3,0,0,1-4.35-3.39Z"/><path class="cls-9" d="M274,48.4a3,3,0,0,1,4.35-2,.28.28,0,0,0,.38-.36,7.28,7.28,0,0,0-13.22,0,.28.28,0,0,0,.38.36,3,3,0,1,1,1.4,5.7,3,3,0,0,1-1.4-.34.28.28,0,0,0-.38.36,7.29,7.29,0,0,0,13.23,0,.28.28,0,0,0-.39-.36,3,3,0,0,1-1.4.34A3,3,0,0,1,274,48.4Z"/><path class="cls-9" d="M292.88,48.4a3,3,0,0,1,4.34-2,.28.28,0,0,0,.39-.36,7.29,7.29,0,0,0-13.23,0,.28.28,0,0,0,.39.36,3,3,0,1,1,0,5.36.28.28,0,0,0-.38.36,7.29,7.29,0,0,0,13.23,0,.28.28,0,0,0-.38-.36,3,3,0,0,1-4.35-3.39Z"/><path class="cls-9" d="M311.51,48.4a3,3,0,0,1,4.34-2,.28.28,0,0,0,.39-.36,7.29,7.29,0,0,0-13.23,0,.28.28,0,0,0,.39.36,3,3,0,1,1,0,5.36.28.28,0,0,0-.38.36,7.29,7.29,0,0,0,13.23,0,.28.28,0,0,0-.38-.36,3,3,0,0,1-4.35-3.39Z"/><path class="cls-9" d="M330.34,48.4a3,3,0,0,1,2.32-2.25,3,3,0,0,1,2,.28.28.28,0,0,0,.39-.36,7.29,7.29,0,0,0-13.23,0,.28.28,0,0,0,.39.36,3,3,0,1,1,1.4,5.7,3,3,0,0,1-1.4-.34.28.28,0,0,0-.39.36,7.29,7.29,0,0,0,13.23,0,.28.28,0,0,0-.38-.36,3,3,0,0,1-1.4.34A3,3,0,0,1,330.34,48.4Z"/><path class="cls-9" d="M349.18,48.4a3,3,0,0,1,4.34-2,.28.28,0,0,0,.39-.36,7.29,7.29,0,0,0-13.23,0,.28.28,0,0,0,.39.36,3,3,0,1,1,0,5.36.28.28,0,0,0-.38.36,7.29,7.29,0,0,0,13.23,0,.28.28,0,0,0-.39-.36,3,3,0,0,1-1.4.34A3,3,0,0,1,349.18,48.4Z"/><path class="cls-9" d="M368,48.4a3,3,0,0,1,4.34-2,.28.28,0,0,0,.39-.36,7.29,7.29,0,0,0-13.23,0,.28.28,0,0,0,.39.36,3,3,0,1,1,1.4,5.7,3,3,0,0,1-1.4-.34.28.28,0,0,0-.39.36,7.29,7.29,0,0,0,13.23,0,.28.28,0,0,0-.38-.36A3,3,0,0,1,368,48.4Z"/><path class="cls-9" d="M386.3,48.4a3,3,0,0,1,4.34-2,.28.28,0,0,0,.39-.36,7.29,7.29,0,0,0-13.23,0,.28.28,0,0,0,.39.36,3,3,0,0,1,2-.28,3,3,0,1,1-2,5.64.28.28,0,0,0-.38.36,7.29,7.29,0,0,0,13.23,0,.28.28,0,0,0-.39-.36,3,3,0,0,1-1.4.34A3,3,0,0,1,386.3,48.4Z"/><path class="cls-9" d="M405.13,48.4a3,3,0,0,1,4.34-2,.28.28,0,0,0,.39-.36,7.29,7.29,0,0,0-13.23,0,.28.28,0,0,0,.39.36,3,3,0,1,1,0,5.36.28.28,0,0,0-.38.36,7.29,7.29,0,0,0,13.23,0,.28.28,0,0,0-.38-.36,3,3,0,0,1-4.35-3.39Z"/><path class="cls-9" d="M424,48.4a3,3,0,0,1,4.35-2,.28.28,0,0,0,.38-.36,7.28,7.28,0,0,0-13.22,0,.28.28,0,0,0,.38.36,3,3,0,1,1,1.4,5.7,3,3,0,0,1-1.4-.34.28.28,0,0,0-.38.36,7.29,7.29,0,0,0,13.23,0,.28.28,0,0,0-.39-.36,3,3,0,0,1-1.4.34A3,3,0,0,1,424,48.4Z"/><path class="cls-9" d="M442.8,48.4a3,3,0,0,1,4.34-2,.28.28,0,0,0,.39-.36,7.29,7.29,0,0,0-13.23,0,.28.28,0,0,0,.39.36,3,3,0,1,1,0,5.36.28.28,0,0,0-.38.36,7.29,7.29,0,0,0,13.23,0,.28.28,0,0,0-.38-.36,3,3,0,0,1-4.35-3.39Z"/><path class="cls-9" d="M461.63,48.4A3,3,0,0,1,464,46.15a3,3,0,0,1,2,.28.28.28,0,0,0,.39-.36,7.29,7.29,0,0,0-13.23,0,.28.28,0,0,0,.39.36,3,3,0,1,1,1.4,5.7,3,3,0,0,1-1.4-.34.28.28,0,0,0-.39.36,7.29,7.29,0,0,0,13.23,0,.28.28,0,0,0-.38-.36,3,3,0,0,1-4.35-3.39Z"/><path class="cls-9" d="M480.47,48.4a3,3,0,0,1,4.34-2,.28.28,0,0,0,.39-.36,7.29,7.29,0,0,0-13.23,0,.28.28,0,0,0,.39.36,3,3,0,0,1,2-.28,3,3,0,1,1-2,5.64.28.28,0,0,0-.38.36,7.29,7.29,0,0,0,13.23,0,.28.28,0,0,0-.39-.36,3,3,0,0,1-1.4.34A3,3,0,0,1,480.47,48.4Z"/><path class="cls-9" d="M499.3,48.4a3,3,0,0,1,4.34-2,.28.28,0,0,0,.39-.36,7.29,7.29,0,0,0-13.23,0,.28.28,0,0,0,.39.36,3,3,0,1,1,0,5.36.28.28,0,0,0-.38.36,7.29,7.29,0,0,0,13.23,0,.28.28,0,0,0-.38-.36,3,3,0,0,1-4.35-3.39Z"/><path class="cls-9" d="M518.13,48.4a3,3,0,0,1,4.35-2,.28.28,0,0,0,.38-.36,7.28,7.28,0,0,0-13.22,0,.28.28,0,0,0,.38.36,3,3,0,1,1,1.4,5.7,3,3,0,0,1-1.4-.34.28.28,0,0,0-.39.36,7.29,7.29,0,0,0,13.23,0,.28.28,0,0,0-.38-.36,3,3,0,0,1-1.4.34A3,3,0,0,1,518.13,48.4Z"/><path class="cls-9" d="M537,48.4a3,3,0,0,1,4.34-2,.28.28,0,0,0,.39-.36,7.29,7.29,0,0,0-13.23,0,.28.28,0,0,0,.39.36,3,3,0,1,1,0,5.36.28.28,0,0,0-.38.36,7.29,7.29,0,0,0,13.23,0,.28.28,0,0,0-.38-.36A3,3,0,0,1,537,48.4Z"/><path class="cls-9" d="M555.8,48.4a3,3,0,0,1,2.32-2.25,3,3,0,0,1,2,.28.28.28,0,0,0,.39-.36,7.29,7.29,0,0,0-13.23,0,.28.28,0,0,0,.39.36,3,3,0,1,1,1.4,5.7,3,3,0,0,1-1.4-.34.28.28,0,0,0-.39.36,7.29,7.29,0,0,0,13.23,0,.28.28,0,0,0-.38-.36,3,3,0,0,1-4.35-3.39Z"/><path class="cls-9" d="M780.73,48.4a3,3,0,0,1,2.32-2.25,3,3,0,0,1,2,.28.28.28,0,0,0,.39-.36,7.29,7.29,0,0,0-13.23,0,.28.28,0,0,0,.39.36,3,3,0,1,1,1.4,5.7,3,3,0,0,1-1.4-.34.28.28,0,0,0-.39.36,7.29,7.29,0,0,0,13.23,0,.28.28,0,0,0-.38-.36,3,3,0,0,1-4.35-3.39Z"/><path class="cls-9" d="M799.56,48.4a3,3,0,0,1,4.35-2,.28.28,0,0,0,.39-.36,7.29,7.29,0,0,0-13.23,0,.28.28,0,0,0,.39.36,3,3,0,0,1,2-.28,3,3,0,0,1-.63,6,3,3,0,0,1-1.4-.34.28.28,0,0,0-.38.36,7.29,7.29,0,0,0,13.23,0,.28.28,0,0,0-.39-.36,3,3,0,0,1-1.4.34A3,3,0,0,1,799.56,48.4Z"/><path class="cls-9" d="M818.4,48.4a3,3,0,0,1,4.34-2,.28.28,0,0,0,.39-.36,7.29,7.29,0,0,0-13.23,0,.28.28,0,0,0,.39.36,3,3,0,1,1,0,5.36.28.28,0,0,0-.38.36,7.29,7.29,0,0,0,13.23,0,.28.28,0,0,0-.38-.36,3,3,0,0,1-4.35-3.39Z"/><path class="cls-9" d="M837.23,48.4a3,3,0,0,1,2.32-2.25,3,3,0,0,1,2,.28.28.28,0,0,0,.39-.36,7.29,7.29,0,0,0-13.23,0,.28.28,0,0,0,.39.36,3,3,0,1,1,1.4,5.7,3,3,0,0,1-1.4-.34.28.28,0,0,0-.39.36,7.29,7.29,0,0,0,13.23,0,.28.28,0,0,0-.38-.36,3,3,0,0,1-1.4.34A3,3,0,0,1,837.23,48.4Z"/><path class="cls-9" d="M856.07,48.4a3,3,0,0,1,4.34-2,.28.28,0,0,0,.39-.36,7.29,7.29,0,0,0-13.23,0,.28.28,0,0,0,.39.36,3,3,0,1,1,0,5.36.28.28,0,0,0-.38.36,7.29,7.29,0,0,0,13.23,0,.28.28,0,0,0-.39-.36,3,3,0,0,1-1.4.34A3,3,0,0,1,856.07,48.4Z"/><path class="cls-9" d="M874.9,48.4a3,3,0,0,1,4.34-2,.28.28,0,0,0,.39-.36,7.29,7.29,0,0,0-13.23,0,.28.28,0,0,0,.39.36,3,3,0,1,1,1.4,5.7,3,3,0,0,1-1.4-.34.28.28,0,0,0-.39.36,7.29,7.29,0,0,0,13.23,0,.28.28,0,0,0-.38-.36,3,3,0,0,1-4.35-3.39Z"/><path class="cls-9" d="M893.53,48.4a3,3,0,0,1,2.32-2.25,3,3,0,0,1,2,.28.28.28,0,0,0,.39-.36,7.29,7.29,0,0,0-13.23,0,.28.28,0,0,0,.39.36,3,3,0,1,1,1.4,5.7,3,3,0,0,1-1.4-.34.28.28,0,0,0-.39.36,7.29,7.29,0,0,0,13.23,0,.28.28,0,0,0-.38-.36,3,3,0,0,1-4.35-3.39Z"/><path class="cls-9" d="M912.37,48.4a3,3,0,0,1,4.34-2,.28.28,0,0,0,.39-.36,7.29,7.29,0,0,0-13.23,0,.28.28,0,0,0,.39.36,3,3,0,0,1,2-.28,3,3,0,1,1-2,5.64.28.28,0,0,0-.38.36,7.29,7.29,0,0,0,13.23,0,.28.28,0,0,0-.39-.36,3,3,0,0,1-1.4.34A3,3,0,0,1,912.37,48.4Z"/><path class="cls-9" d="M931.2,48.4a3,3,0,0,1,4.34-2,.28.28,0,0,0,.39-.36,7.29,7.29,0,0,0-13.23,0,.28.28,0,0,0,.39.36,3,3,0,1,1,0,5.36.28.28,0,0,0-.38.36,7.29,7.29,0,0,0,13.23,0,.28.28,0,0,0-.38-.36,3,3,0,0,1-4.35-3.39Z"/><path class="cls-9" d="M950,48.4a3,3,0,0,1,4.35-2,.28.28,0,0,0,.38-.36,7.28,7.28,0,0,0-13.22,0,.28.28,0,0,0,.38.36,3,3,0,1,1,1.4,5.7,3,3,0,0,1-1.4-.34.28.28,0,0,0-.39.36,7.29,7.29,0,0,0,13.23,0,.28.28,0,0,0-.38-.36,3,3,0,0,1-1.4.34A3,3,0,0,1,950,48.4Z"/><path class="cls-9" d="M968.59,48.4a3,3,0,0,1,4.34-2,.28.28,0,0,0,.39-.36,7.29,7.29,0,0,0-13.23,0,.28.28,0,0,0,.39.36,3,3,0,1,1,0,5.36.28.28,0,0,0-.38.36,7.29,7.29,0,0,0,13.23,0,.28.28,0,0,0-.38-.36,3,3,0,0,1-4.35-3.39Z"/><path class="cls-9" d="M987.42,48.4a3,3,0,0,1,2.32-2.25,3,3,0,0,1,2,.28.28.28,0,0,0,.39-.36,7.29,7.29,0,0,0-13.23,0,.28.28,0,0,0,.39.36,3,3,0,1,1,1.4,5.7,3,3,0,0,1-1.4-.34.28.28,0,0,0-.39.36,7.29,7.29,0,0,0,13.23,0,.28.28,0,0,0-.38-.36,3,3,0,0,1-4.35-3.39Z"/><path class="cls-9" d="M1006.25,48.4a3,3,0,0,1,4.35-2,.28.28,0,0,0,.39-.36,7.29,7.29,0,0,0-13.23,0,.28.28,0,0,0,.39.36,3,3,0,0,1,2-.28,3,3,0,0,1-.63,6,3,3,0,0,1-1.4-.34.28.28,0,0,0-.38.36,7.29,7.29,0,0,0,13.23,0,.28.28,0,0,0-.39-.36,3,3,0,0,1-1.4.34A3,3,0,0,1,1006.25,48.4Z"/><path class="cls-9" d="M1025.09,48.4a3,3,0,0,1,4.34-2,.28.28,0,0,0,.39-.36,7.29,7.29,0,0,0-13.23,0,.28.28,0,0,0,.39.36,3,3,0,1,1,0,5.36.28.28,0,0,0-.38.36,7.29,7.29,0,0,0,13.23,0,.28.28,0,0,0-.38-.36,3,3,0,0,1-4.35-3.39Z"/><path class="cls-9" d="M1043.92,48.4a3,3,0,0,1,2.32-2.25,3,3,0,0,1,2,.28.28.28,0,0,0,.39-.36,7.29,7.29,0,0,0-13.23,0,.28.28,0,0,0,.39.36,3,3,0,1,1,1.4,5.7,3,3,0,0,1-1.4-.34.28.28,0,0,0-.39.36,7.29,7.29,0,0,0,13.23,0,.28.28,0,0,0-.38-.36,3,3,0,0,1-1.4.34A3,3,0,0,1,1043.92,48.4Z"/><path class="cls-9" d="M1062.76,48.4a3,3,0,0,1,4.34-2,.28.28,0,0,0,.39-.36,7.29,7.29,0,0,0-13.23,0,.28.28,0,0,0,.39.36,3,3,0,1,1,0,5.36.28.28,0,0,0-.38.36,7.29,7.29,0,0,0,13.23,0,.28.28,0,0,0-.39-.36,3,3,0,0,1-1.4.34A3,3,0,0,1,1062.76,48.4Z"/><path class="cls-9" d="M1081.59,48.4a3,3,0,0,1,4.34-2,.28.28,0,0,0,.39-.36,7.29,7.29,0,0,0-13.23,0,.28.28,0,0,0,.39.36,3,3,0,1,1,1.4,5.7,3,3,0,0,1-1.4-.34.28.28,0,0,0-.39.36,7.29,7.29,0,0,0,13.23,0,.28.28,0,0,0-.38-.36,3,3,0,0,1-4.35-3.39Z"/><path class="cls-9" d="M1100.42,48.4a3,3,0,0,1,4.35-2,.28.28,0,0,0,.39-.36,7.29,7.29,0,0,0-13.23,0,.28.28,0,0,0,.39.36,3,3,0,0,1,2-.28,3,3,0,0,1-.63,6,3,3,0,0,1-1.4-.34.28.28,0,0,0-.38.36,7.29,7.29,0,0,0,13.23,0,.28.28,0,0,0-.39-.36,3,3,0,0,1-1.4.34A3,3,0,0,1,1100.42,48.4Z"/><path class="cls-9" d="M1119.26,48.4a3,3,0,0,1,4.34-2,.28.28,0,0,0,.39-.36,7.29,7.29,0,0,0-13.23,0,.28.28,0,0,0,.39.36,3,3,0,1,1,0,5.36.28.28,0,0,0-.38.36,7.29,7.29,0,0,0,13.23,0,.28.28,0,0,0-.38-.36,3,3,0,0,1-4.35-3.39Z"/><path class="cls-9" d="M1138.09,48.4a3,3,0,0,1,2.32-2.25,3,3,0,0,1,2,.28.28.28,0,0,0,.39-.36,7.29,7.29,0,0,0-13.23,0,.28.28,0,0,0,.39.36,3,3,0,1,1,1.4,5.7,3,3,0,0,1-1.4-.34.28.28,0,0,0-.39.36,7.29,7.29,0,0,0,13.23,0,.28.28,0,0,0-.38-.36,3,3,0,0,1-1.4.34A3,3,0,0,1,1138.09,48.4Z"/><path class="cls-9" d="M1156.93,48.4a3,3,0,0,1,4.34-2,.28.28,0,0,0,.39-.36,7.29,7.29,0,0,0-13.23,0,.28.28,0,0,0,.39.36,3,3,0,0,1,2-.28,3,3,0,1,1-2,5.64.28.28,0,0,0-.38.36,7.29,7.29,0,0,0,13.23,0,.28.28,0,0,0-.39-.36,3,3,0,0,1-1.4.34A3,3,0,0,1,1156.93,48.4Z"/><path class="cls-9" d="M1175.76,48.4a3,3,0,0,1,4.34-2,.28.28,0,0,0,.39-.36,7.29,7.29,0,0,0-13.23,0,.28.28,0,0,0,.39.36,3,3,0,1,1,0,5.36.28.28,0,0,0-.38.36,7.29,7.29,0,0,0,13.23,0,.28.28,0,0,0-.38-.36,3,3,0,0,1-4.35-3.39Z"/><path class="cls-9" d="M1194.59,48.4a3,3,0,0,1,4.35-2,.28.28,0,0,0,.39-.36,7.29,7.29,0,0,0-13.23,0,.28.28,0,0,0,.38.36,3,3,0,1,1,1.4,5.7,3,3,0,0,1-1.4-.34.28.28,0,0,0-.38.36,7.29,7.29,0,0,0,13.23,0,.28.28,0,0,0-.39-.36,3,3,0,0,1-1.4.34A3,3,0,0,1,1194.59,48.4Z"/><path class="cls-9" d="M1213.43,48.4a3,3,0,0,1,4.34-2,.28.28,0,0,0,.39-.36,7.29,7.29,0,0,0-13.23,0,.28.28,0,0,0,.39.36,3,3,0,1,1,0,5.36.28.28,0,0,0-.38.36,7.29,7.29,0,0,0,13.23,0,.28.28,0,0,0-.38-.36,3,3,0,0,1-4.35-3.39Z"/><path class="cls-9" d="M1232.26,48.4a3,3,0,0,1,2.32-2.25,3,3,0,0,1,2,.28.28.28,0,0,0,.39-.36,7.29,7.29,0,0,0-13.23,0,.28.28,0,0,0,.39.36,3,3,0,1,1,1.4,5.7,3,3,0,0,1-1.4-.34.28.28,0,0,0-.39.36,7.29,7.29,0,0,0,13.23,0,.28.28,0,0,0-.38-.36,3,3,0,0,1-4.35-3.39Z"/><path class="cls-9" d="M1251.1,48.4a3,3,0,0,1,4.34-2,.28.28,0,0,0,.39-.36,7.29,7.29,0,0,0-13.23,0,.28.28,0,0,0,.39.36,3,3,0,0,1,2-.28,3,3,0,1,1-2,5.64.28.28,0,0,0-.38.36,7.29,7.29,0,0,0,13.23,0,.28.28,0,0,0-.39-.36,3,3,0,0,1-1.4.34A3,3,0,0,1,1251.1,48.4Z"/><path class="cls-9" d="M1269.73,48.4a3,3,0,0,1,4.34-2,.28.28,0,0,0,.39-.36,7.29,7.29,0,0,0-13.23,0,.28.28,0,0,0,.39.36,3,3,0,1,1,0,5.36.28.28,0,0,0-.38.36,7.29,7.29,0,0,0,13.23,0,.28.28,0,0,0-.38-.36,3,3,0,0,1-4.35-3.39Z"/><path class="cls-9" d="M1288.56,48.4a3,3,0,0,1,2.32-2.25,3,3,0,0,1,2,.28.28.28,0,0,0,.39-.36,7.29,7.29,0,0,0-13.23,0,.28.28,0,0,0,.39.36,3,3,0,1,1,1.4,5.7,3,3,0,0,1-1.4-.34.28.28,0,0,0-.39.36,7.29,7.29,0,0,0,13.23,0,.28.28,0,0,0-.38-.36,3,3,0,0,1-4.35-3.39Z"/><path class="cls-9" d="M1307.39,48.4a3,3,0,0,1,4.35-2,.28.28,0,0,0,.39-.36,7.29,7.29,0,0,0-13.23,0,.28.28,0,0,0,.39.36,3,3,0,0,1,2-.28,3,3,0,0,1-.63,6,3,3,0,0,1-1.4-.34.28.28,0,0,0-.38.36,7.29,7.29,0,0,0,13.23,0,.28.28,0,0,0-.39-.36,3,3,0,0,1-1.4.34A3,3,0,0,1,1307.39,48.4Z"/><path class="cls-9" d="M1326.23,48.4a3,3,0,0,1,4.34-2,.28.28,0,0,0,.39-.36,7.29,7.29,0,0,0-13.23,0,.28.28,0,0,0,.39.36,3,3,0,1,1,0,5.36.28.28,0,0,0-.38.36,7.29,7.29,0,0,0,13.23,0,.28.28,0,0,0-.38-.36,3,3,0,0,1-4.35-3.39Z"/><rect class="cls-7" x="135.23" y="29.75" width="1063.33" height="7.81"/><rect class="cls-7" x="532.88" y="29.37" width="266.79" height="1.68"/><rect class="cls-10" x="800.52" y="9.67" width="391.64" height="4.18" transform="translate(1992.68 23.53) rotate(180)"/><rect class="cls-10" x="800.52" y="27.41" width="388.73" height="3.64" transform="translate(1989.77 58.46) rotate(180)"/><path class="cls-11" d="M1189.61,3.83a3.77,3.77,0,1,0,3.77-3.75A3.77,3.77,0,0,0,1189.61,3.83Z"/><path class="cls-12" d="M1192.16,5.61c-1.81-.92-2.1-3.54-2.1-3.54a3.71,3.71,0,0,0-.45,1.76A3.76,3.76,0,0,0,1197,4.9h0C1195.87,6.23,1193.45,6.27,1192.16,5.61Z"/><rect class="cls-10" x="1189.25" y="6.25" width="8.25" height="31.72" transform="translate(2386.75 44.23) rotate(180)"/><rect class="cls-10" x="1197.5" y="27.69" width="10.52" height="10.28" transform="translate(2405.52 65.67) rotate(180)"/><rect class="cls-12" x="806.73" y="12.91" width="382.52" height="0.94" transform="translate(1995.98 26.77) rotate(180)"/><rect class="cls-13" x="806.73" y="10.57" width="382.52" height="0.94" transform="translate(1995.98 22.08) rotate(180)"/><rect class="cls-12" x="806.73" y="30.11" width="382.52" height="0.94" transform="translate(1995.98 61.16) rotate(180)"/><rect class="cls-13" x="806.73" y="27.79" width="382.52" height="0.94" transform="translate(1995.98 56.53) rotate(180)"/><path class="cls-11" d="M800,3.66A3.26,3.26,0,1,0,803.29.4,3.25,3.25,0,0,0,800,3.66Z"/><path class="cls-12" d="M802.24,5.2c-1.57-.8-1.83-3.08-1.83-3.08A3.31,3.31,0,0,0,800,3.66a3.26,3.26,0,0,0,6.39.92h0A3.74,3.74,0,0,1,802.24,5.2Z"/><path class="cls-13" d="M805.65,2.12a.86.86,0,1,1-.86-.86A.86.86,0,0,1,805.65,2.12Z"/><rect class="cls-10" x="799.67" y="6.25" width="7.25" height="24.8" transform="translate(1606.58 37.3) rotate(180)"/><rect class="cls-12" x="799.82" y="6.25" width="0.97" height="24.8" transform="translate(1600.61 37.3) rotate(180)"/><path class="cls-13" d="M1196.1,2.06a1,1,0,1,1-2,0,1,1,0,0,1,2,0Z"/><polygon class="cls-13" points="1196.46 28.55 1196.46 6.25 1195.1 6.25 1195.1 28.55 1195.1 29.75 1195.1 29.91 1208.06 29.91 1208.06 28.55 1196.46 28.55"/><polygon class="cls-12" points="1190.61 35.44 1190.61 6.25 1189.25 6.25 1189.25 35.44 1189.25 37.56 1190.61 37.56 1208.06 37.56 1208.06 35.44 1190.61 35.44"/><path class="cls-10" d="M857.79,21.17a3,3,0,0,0,2.36,2.22,3.07,3.07,0,0,0,2-.32.29.29,0,0,1,.4.36,7.32,7.32,0,0,1-13.28.24.29.29,0,0,1,.39-.37,3,3,0,1,0-.11-5.38.28.28,0,0,1-.39-.36,7.32,7.32,0,0,1,13.28-.24.28.28,0,0,1-.38.37,3.07,3.07,0,0,0-1.41-.32A3,3,0,0,0,857.79,21.17Z"/><path class="cls-14" d="M849.83,23.28l-.2-.1a.28.28,0,0,0-.38.37,7.28,7.28,0,0,0,8.51,4A9.75,9.75,0,0,1,849.83,23.28Z"/><path class="cls-14" d="M857.77,19.78a3.06,3.06,0,0,1,2.33-2.26,3.21,3.21,0,0,1,.87,0,2.84,2.84,0,0,0-2.8.31A3,3,0,0,0,859,23,3.06,3.06,0,0,1,857.77,19.78Z"/><path class="cls-15" d="M862.52,17.44s-2.79-3.58-6.23-3.58A15.87,15.87,0,0,1,862.52,17.44Z"/><path class="cls-15" d="M862.52,23.55s-1.63,3-4.37,3.34C858.15,26.89,860,26.34,862.52,23.55Z"/><path class="cls-10" d="M838.88,21.17a3,3,0,0,0,2.37,2.22,3.09,3.09,0,0,0,2-.32.29.29,0,0,1,.4.36,7.32,7.32,0,0,1-13.28.24.28.28,0,0,1,.38-.37,3,3,0,1,0,1.3-5.75,3,3,0,0,0-1.4.37.28.28,0,0,1-.39-.36,7.31,7.31,0,0,1,13.27-.24.28.28,0,0,1-.37.37,3.08,3.08,0,0,0-1.42-.32A3,3,0,0,0,838.88,21.17Z"/><path class="cls-14" d="M830.93,23.28a1.24,1.24,0,0,1-.2-.1.29.29,0,0,0-.39.37,7.3,7.3,0,0,0,8.52,4A9.75,9.75,0,0,1,830.93,23.28Z"/><path class="cls-14" d="M838.87,19.78a3,3,0,0,1,2.33-2.26,3.21,3.21,0,0,1,.87,0,2.86,2.86,0,0,0-2.81.31,3,3,0,0,0,.82,5.18A3,3,0,0,1,838.87,19.78Z"/><path class="cls-15" d="M843.62,17.44s-2.79-3.58-6.23-3.58A16,16,0,0,1,843.62,17.44Z"/><path class="cls-15" d="M843.62,23.55s-1.63,3-4.37,3.34C839.25,26.89,841.14,26.34,843.62,23.55Z"/><path class="cls-10" d="M820,21.17a3,3,0,0,0,2.37,2.22,3.09,3.09,0,0,0,2-.32.28.28,0,0,1,.39.36,7.31,7.31,0,0,1-13.27.24.28.28,0,0,1,.38-.37,3.06,3.06,0,0,0,2,.24,3,3,0,0,0-.74-6,3,3,0,0,0-1.4.37.28.28,0,0,1-.39-.36,7.31,7.31,0,0,1,13.27-.24.28.28,0,0,1-.38.37,3,3,0,0,0-4.3,3.48Z"/><path class="cls-14" d="M812,23.28a1.24,1.24,0,0,1-.2-.1.29.29,0,0,0-.39.37,7.3,7.3,0,0,0,8.52,4A9.73,9.73,0,0,1,812,23.28Z"/><path class="cls-14" d="M820,19.78a3,3,0,0,1,2.33-2.26,3.18,3.18,0,0,1,.87,0,2.86,2.86,0,0,0-2.81.31,3,3,0,0,0,.82,5.18A3,3,0,0,1,820,19.78Z"/><path class="cls-15" d="M824.72,17.44s-2.79-3.58-6.23-3.58A16,16,0,0,1,824.72,17.44Z"/><path class="cls-15" d="M824.72,23.55s-1.63,3-4.37,3.34C820.35,26.89,822.24,26.34,824.72,23.55Z"/><path class="cls-10" d="M914.29,21.34a3,3,0,0,0,4.39,1.91.28.28,0,0,1,.4.35,7.32,7.32,0,0,1-13.28.24.29.29,0,0,1,.39-.37,3,3,0,0,0,2,.24,3,3,0,1,0-2.14-5.62.28.28,0,0,1-.39-.35A7.32,7.32,0,0,1,919,17.49a.28.28,0,0,1-.38.37,3.05,3.05,0,0,0-4.3,3.48Z"/><path class="cls-14" d="M906.33,23.45l-.2-.09a.28.28,0,0,0-.38.36A7.3,7.3,0,0,0,912.39,28a7.66,7.66,0,0,0,1.87-.24A9.79,9.79,0,0,1,906.33,23.45Z"/><path class="cls-14" d="M914.28,20a3,3,0,0,1,2.32-2.25,3.23,3.23,0,0,1,.87-.05,2.85,2.85,0,0,0-2.8.32,3,3,0,0,0,.81,5.17A3,3,0,0,1,914.28,20Z"/><path class="cls-15" d="M919,17.61S916.24,14,912.79,14A15.87,15.87,0,0,1,919,17.61Z"/><path class="cls-15" d="M919,23.72s-1.64,3-4.38,3.34C914.65,27.06,916.55,26.51,919,23.72Z"/><path class="cls-10" d="M895.39,21.34a3,3,0,0,0,2.36,2.22,3.07,3.07,0,0,0,2-.31.28.28,0,0,1,.4.35,7.32,7.32,0,0,1-13.28.24.29.29,0,0,1,.39-.37,3,3,0,0,0,2,.24,3,3,0,0,0-.74-6,3,3,0,0,0-1.4.37.28.28,0,0,1-.39-.35,7.32,7.32,0,0,1,13.28-.25.28.28,0,0,1-.38.37,3.06,3.06,0,0,0-1.41-.31A3,3,0,0,0,895.39,21.34Z"/><path class="cls-14" d="M887.43,23.45l-.2-.09a.27.27,0,0,0-.38.36A7.3,7.3,0,0,0,893.48,28a7.75,7.75,0,0,0,1.88-.24A9.78,9.78,0,0,1,887.43,23.45Z"/><path class="cls-14" d="M895.37,20a3,3,0,0,1,2.33-2.25,3.23,3.23,0,0,1,.87-.05,2.84,2.84,0,0,0-2.8.32,3,3,0,0,0-1.14,2.72,3,3,0,0,0,2,2.45A3.06,3.06,0,0,1,895.37,20Z"/><path class="cls-15" d="M900.12,17.61S897.33,14,893.89,14A15.87,15.87,0,0,1,900.12,17.61Z"/><path class="cls-15" d="M900.12,23.72s-1.63,3-4.37,3.34C895.75,27.06,897.64,26.51,900.12,23.72Z"/><path class="cls-10" d="M876.49,21.34a3,3,0,0,0,2.36,2.22,3.09,3.09,0,0,0,2-.31.28.28,0,0,1,.4.35,7.32,7.32,0,0,1-13.28.24.28.28,0,0,1,.38-.37,3,3,0,0,0,2,.24,3,3,0,0,0-.74-6,3,3,0,0,0-1.4.37.28.28,0,0,1-.39-.35,7.31,7.31,0,0,1,13.27-.25.28.28,0,0,1-.37.37,3.08,3.08,0,0,0-1.42-.31A3,3,0,0,0,876.49,21.34Z"/><path class="cls-14" d="M868.53,23.45l-.2-.09a.28.28,0,0,0-.39.36A7.32,7.32,0,0,0,874.58,28a7.75,7.75,0,0,0,1.88-.24A9.78,9.78,0,0,1,868.53,23.45Z"/><path class="cls-14" d="M876.47,20a3,3,0,0,1,2.33-2.25,3.23,3.23,0,0,1,.87-.05,2.86,2.86,0,0,0-2.81.32,3,3,0,0,0,.82,5.17A3,3,0,0,1,876.47,20Z"/><path class="cls-15" d="M881.22,17.61S878.43,14,875,14A16,16,0,0,1,881.22,17.61Z"/><path class="cls-15" d="M881.22,23.72s-1.63,3-4.37,3.34C876.85,27.06,878.74,26.51,881.22,23.72Z"/><path class="cls-10" d="M971,21.26a3,3,0,0,0,4.39,1.9.28.28,0,0,1,.4.35,7.31,7.31,0,0,1-13.28.24.28.28,0,0,1,.39-.36,3.09,3.09,0,0,0,2,.24,3,3,0,0,0-.74-6,2.89,2.89,0,0,0-1.4.37.28.28,0,0,1-.39-.36,7.32,7.32,0,0,1,13.28-.24.28.28,0,0,1-.38.37,3.07,3.07,0,0,0-1.41-.32A3,3,0,0,0,971,21.26Z"/><path class="cls-14" d="M963,23.36l-.2-.09a.28.28,0,0,0-.38.36,7.28,7.28,0,0,0,8.51,4A9.75,9.75,0,0,1,963,23.36Z"/><path class="cls-14" d="M970.94,19.87a3,3,0,0,1,2.33-2.26,2.86,2.86,0,0,1,.87,0,2.84,2.84,0,0,0-2.8.31,3,3,0,0,0,.81,5.18A3.06,3.06,0,0,1,970.94,19.87Z"/><path class="cls-15" d="M975.69,17.53s-2.79-3.59-6.23-3.59A15.83,15.83,0,0,1,975.69,17.53Z"/><path class="cls-15" d="M975.69,23.63s-1.63,3-4.37,3.34C971.32,27,973.21,26.42,975.69,23.63Z"/><path class="cls-10" d="M952.06,21.26a3,3,0,0,0,2.36,2.21,3,3,0,0,0,2-.31.28.28,0,0,1,.4.35,7.31,7.31,0,0,1-13.28.24.28.28,0,0,1,.38-.36,3.13,3.13,0,0,0,2,.24,3,3,0,0,0-.74-6,2.89,2.89,0,0,0-1.4.37.28.28,0,0,1-.39-.36,7.31,7.31,0,0,1,13.27-.24.28.28,0,0,1-.37.37,3.08,3.08,0,0,0-1.42-.32A3,3,0,0,0,952.06,21.26Z"/><path class="cls-14" d="M944.1,23.36l-.2-.09a.28.28,0,0,0-.39.36,7.29,7.29,0,0,0,8.52,4A9.75,9.75,0,0,1,944.1,23.36Z"/><path class="cls-14" d="M952,19.87a3,3,0,0,1,2.33-2.26,2.86,2.86,0,0,1,.87,0,2.86,2.86,0,0,0-2.81.31,3,3,0,0,0,.82,5.18A3.06,3.06,0,0,1,952,19.87Z"/><path class="cls-15" d="M956.79,17.53s-2.79-3.59-6.23-3.59A15.83,15.83,0,0,1,956.79,17.53Z"/><path class="cls-15" d="M956.79,23.63s-1.63,3-4.37,3.34C952.42,27,954.31,26.42,956.79,23.63Z"/><path class="cls-10" d="M933.15,21.26a3.05,3.05,0,0,0,4.4,1.9.28.28,0,0,1,.39.35,7.31,7.31,0,0,1-13.27.24.27.27,0,0,1,.38-.36,3.12,3.12,0,0,0,2,.24,3,3,0,0,0-.74-6A2.86,2.86,0,0,0,925,18a.28.28,0,0,1-.39-.36,7.31,7.31,0,0,1,13.27-.24.28.28,0,0,1-.37.37,3.08,3.08,0,0,0-1.42-.32A3,3,0,0,0,933.15,21.26Z"/><path class="cls-14" d="M925.2,23.36l-.2-.09a.28.28,0,0,0-.39.36,7.29,7.29,0,0,0,8.52,4A9.73,9.73,0,0,1,925.2,23.36Z"/><path class="cls-14" d="M933.14,19.87a3,3,0,0,1,2.33-2.26,2.84,2.84,0,0,1,.87,0,2.86,2.86,0,0,0-2.81.31,3,3,0,0,0,.82,5.18A3,3,0,0,1,933.14,19.87Z"/><path class="cls-15" d="M937.89,17.53s-2.79-3.59-6.23-3.59A15.9,15.9,0,0,1,937.89,17.53Z"/><path class="cls-15" d="M937.89,23.63s-1.63,3-4.37,3.34C933.52,27,935.41,26.42,937.89,23.63Z"/><path class="cls-10" d="M1027.46,21.43a3,3,0,0,0,4.39,1.9.28.28,0,0,1,.4.36,7.31,7.31,0,0,1-13.27.24.28.28,0,0,1,.38-.37,3,3,0,1,0-.11-5.38.28.28,0,0,1-.39-.36,7.32,7.32,0,0,1,13.28-.24.28.28,0,0,1-.38.37,3,3,0,0,0-4.3,3.48Z"/><path class="cls-14" d="M1019.5,23.53l-.2-.09a.28.28,0,0,0-.38.37,7.31,7.31,0,0,0,6.64,4.24,7.21,7.21,0,0,0,1.87-.25A9.74,9.74,0,0,1,1019.5,23.53Z"/><path class="cls-14" d="M1027.45,20a3,3,0,0,1,2.32-2.26,3.21,3.21,0,0,1,.87,0,2.84,2.84,0,0,0-2.8.31,3,3,0,0,0,.82,5.18A3,3,0,0,1,1027.45,20Z"/><path class="cls-15" d="M1032.2,17.7s-2.79-3.59-6.23-3.59A16.07,16.07,0,0,1,1032.2,17.7Z"/><path class="cls-15" d="M1032.2,23.81s-1.64,3-4.37,3.33C1027.83,27.14,1029.72,26.6,1032.2,23.81Z"/><path class="cls-10" d="M1008.56,21.43a3,3,0,0,0,4.39,1.9.28.28,0,0,1,.4.36,7.32,7.32,0,0,1-13.28.24.29.29,0,0,1,.39-.37,3,3,0,1,0-.11-5.38.28.28,0,0,1-.39-.36,7.32,7.32,0,0,1,13.28-.24.28.28,0,0,1-.38.37,3,3,0,0,0-4.3,3.48Z"/><path class="cls-14" d="M1000.6,23.53l-.2-.09a.28.28,0,0,0-.38.37,7.28,7.28,0,0,0,8.51,4A9.72,9.72,0,0,1,1000.6,23.53Z"/><path class="cls-14" d="M1008.55,20a3,3,0,0,1,2.32-2.26,3.21,3.21,0,0,1,.87,0,2.84,2.84,0,0,0-2.8.31,3,3,0,0,0,.81,5.18A3,3,0,0,1,1008.55,20Z"/><path class="cls-15" d="M1013.29,17.7s-2.79-3.59-6.23-3.59A16,16,0,0,1,1013.29,17.7Z"/><path class="cls-15" d="M1013.29,23.81s-1.63,3-4.37,3.33C1008.92,27.14,1010.81,26.6,1013.29,23.81Z"/><path class="cls-10" d="M989.66,21.43A3,3,0,0,0,992,23.65a3.08,3.08,0,0,0,2-.32.29.29,0,0,1,.4.36,7.32,7.32,0,0,1-13.28.24.29.29,0,0,1,.39-.37,3,3,0,1,0-.11-5.38.28.28,0,0,1-.39-.36,7.32,7.32,0,0,1,13.28-.24A.28.28,0,0,1,994,18a3.07,3.07,0,0,0-1.41-.32A3,3,0,0,0,989.66,21.43Z"/><path class="cls-14" d="M981.7,23.53a1.21,1.21,0,0,1-.2-.09.29.29,0,0,0-.39.37,7.3,7.3,0,0,0,8.52,4A9.72,9.72,0,0,1,981.7,23.53Z"/><path class="cls-14" d="M989.64,20A3,3,0,0,1,992,17.78a3.21,3.21,0,0,1,.87,0,2.84,2.84,0,0,0-2.8.31,3,3,0,0,0,.81,5.18A3.06,3.06,0,0,1,989.64,20Z"/><path class="cls-15" d="M994.39,17.7s-2.79-3.59-6.23-3.59A16,16,0,0,1,994.39,17.7Z"/><path class="cls-15" d="M994.39,23.81s-1.63,3-4.37,3.33C990,27.14,991.91,26.6,994.39,23.81Z"/><path class="cls-10" d="M1065.73,21a3,3,0,0,0,2.36,2.22,3.07,3.07,0,0,0,2-.32.29.29,0,0,1,.4.36,7.32,7.32,0,0,1-13.28.24.29.29,0,0,1,.39-.37,3,3,0,1,0-.11-5.38.28.28,0,0,1-.39-.36,7.32,7.32,0,0,1,13.28-.24.28.28,0,0,1-.38.37,3,3,0,0,0-4.3,3.48Z"/><path class="cls-14" d="M1057.77,23.15l-.2-.1a.28.28,0,0,0-.38.37,7.28,7.28,0,0,0,8.51,4A9.75,9.75,0,0,1,1057.77,23.15Z"/><path class="cls-14" d="M1065.71,19.65A3,3,0,0,1,1068,17.4a2.87,2.87,0,0,1,.87,0,2.82,2.82,0,0,0-2.8.32,3,3,0,0,0-1.14,2.72,3,3,0,0,0,2,2.45A3.06,3.06,0,0,1,1065.71,19.65Z"/><path class="cls-15" d="M1070.46,17.31s-2.79-3.58-6.23-3.58A15.87,15.87,0,0,1,1070.46,17.31Z"/><path class="cls-15" d="M1070.46,23.42s-1.63,3-4.37,3.34C1066.09,26.76,1068,26.21,1070.46,23.42Z"/><path class="cls-10" d="M1046.83,21a3,3,0,0,0,2.36,2.22,3.09,3.09,0,0,0,2-.32.29.29,0,0,1,.4.36,7.32,7.32,0,0,1-13.28.24.28.28,0,0,1,.38-.37,3,3,0,1,0,1.3-5.75,3,3,0,0,0-1.4.37.28.28,0,0,1-.39-.36,7.31,7.31,0,0,1,13.27-.24.28.28,0,0,1-.37.37,3.08,3.08,0,0,0-1.42-.32A3,3,0,0,0,1046.83,21Z"/><path class="cls-14" d="M1038.87,23.15a1.24,1.24,0,0,1-.2-.1.29.29,0,0,0-.39.37,7.3,7.3,0,0,0,8.52,4A9.75,9.75,0,0,1,1038.87,23.15Z"/><path class="cls-14" d="M1046.81,19.65a3,3,0,0,1,2.33-2.25,3.23,3.23,0,0,1,.87,0,2.84,2.84,0,0,0-2.81.32,3,3,0,0,0,.82,5.17A3,3,0,0,1,1046.81,19.65Z"/><path class="cls-15" d="M1051.56,17.31s-2.79-3.58-6.23-3.58A16,16,0,0,1,1051.56,17.31Z"/><path class="cls-15" d="M1051.56,23.42s-1.63,3-4.37,3.34C1047.19,26.76,1049.08,26.21,1051.56,23.42Z"/><path class="cls-10" d="M1122.23,21.22a3,3,0,0,0,4.39,1.9.28.28,0,0,1,.4.35,7.32,7.32,0,0,1-13.28.24.29.29,0,0,1,.39-.37,3,3,0,0,0,4.32-2.06A3,3,0,0,0,1114,18a.28.28,0,0,1-.39-.35,7.32,7.32,0,0,1,13.28-.25.29.29,0,0,1-.38.38,2.9,2.9,0,0,0-1.41-.32A3,3,0,0,0,1122.23,21.22Z"/><path class="cls-14" d="M1114.27,23.32l-.2-.09a.28.28,0,0,0-.38.36,7.3,7.3,0,0,0,6.64,4.24,7.21,7.21,0,0,0,1.87-.24A9.79,9.79,0,0,1,1114.27,23.32Z"/><path class="cls-14" d="M1122.22,19.83a3,3,0,0,1,2.32-2.26,3.23,3.23,0,0,1,.87-.05,2.85,2.85,0,0,0-2.8.32,3,3,0,0,0,.81,5.17A3,3,0,0,1,1122.22,19.83Z"/><path class="cls-15" d="M1127,17.48s-2.79-3.58-6.23-3.58A16,16,0,0,1,1127,17.48Z"/><path class="cls-15" d="M1127,23.59s-1.64,3-4.38,3.34C1122.59,26.93,1124.49,26.38,1127,23.59Z"/><path class="cls-10" d="M1103.33,21.22a3,3,0,0,0,2.36,2.21,3.07,3.07,0,0,0,2-.31.28.28,0,0,1,.4.35,7.32,7.32,0,0,1-13.28.24.29.29,0,0,1,.39-.37,3,3,0,0,0,2,.24,3,3,0,0,0,2.29-2.3,3,3,0,0,0-3-3.69,3,3,0,0,0-1.4.37.28.28,0,0,1-.39-.35,7.32,7.32,0,0,1,13.28-.25.29.29,0,0,1-.38.38,3,3,0,0,0-1.41-.32A3,3,0,0,0,1103.33,21.22Z"/><path class="cls-14" d="M1095.37,23.32l-.2-.09a.28.28,0,0,0-.38.36,7.33,7.33,0,0,0,8.51,4A9.78,9.78,0,0,1,1095.37,23.32Z"/><path class="cls-14" d="M1103.31,19.83a3,3,0,0,1,2.33-2.26,3.23,3.23,0,0,1,.87-.05,2.84,2.84,0,0,0-2.8.32,3,3,0,0,0,.81,5.17A3,3,0,0,1,1103.31,19.83Z"/><path class="cls-15" d="M1108.06,17.48s-2.79-3.58-6.23-3.58A15.87,15.87,0,0,1,1108.06,17.48Z"/><path class="cls-15" d="M1108.06,23.59s-1.63,3-4.37,3.34C1103.69,26.93,1105.58,26.38,1108.06,23.59Z"/><path class="cls-10" d="M1084.43,21.22a3,3,0,0,0,2.36,2.21,3.09,3.09,0,0,0,2-.31.28.28,0,0,1,.4.35,7.32,7.32,0,0,1-13.28.24.28.28,0,0,1,.38-.37,3,3,0,0,0,4.33-2.06,3,3,0,0,0-3-3.69,3,3,0,0,0-1.4.37.28.28,0,0,1-.39-.35,7.31,7.31,0,0,1,13.27-.25.28.28,0,0,1-.37.38,3,3,0,0,0-1.42-.32A3,3,0,0,0,1084.43,21.22Z"/><path class="cls-14" d="M1076.47,23.32l-.2-.09a.28.28,0,0,0-.39.36,7.35,7.35,0,0,0,8.52,4A9.78,9.78,0,0,1,1076.47,23.32Z"/><path class="cls-14" d="M1084.41,19.83a3,3,0,0,1,2.33-2.26,3.23,3.23,0,0,1,.87-.05,2.86,2.86,0,0,0-2.81.32,3,3,0,0,0,.82,5.17A3,3,0,0,1,1084.41,19.83Z"/><path class="cls-15" d="M1089.16,17.48s-2.79-3.58-6.23-3.58A16,16,0,0,1,1089.16,17.48Z"/><path class="cls-15" d="M1089.16,23.59s-1.63,3-4.37,3.34C1084.79,26.93,1086.68,26.38,1089.16,23.59Z"/><path class="cls-10" d="M1178.9,21.13a3,3,0,0,0,4.39,1.9.28.28,0,0,1,.4.35,7.32,7.32,0,0,1-13.28.25.28.28,0,0,1,.39-.37,3.09,3.09,0,0,0,2,.24,3,3,0,0,0-.74-6,3,3,0,0,0-1.4.37.28.28,0,0,1-.39-.36,7.32,7.32,0,0,1,13.28-.24.28.28,0,0,1-.38.37,3.07,3.07,0,0,0-1.41-.32A3,3,0,0,0,1178.9,21.13Z"/><path class="cls-14" d="M1170.94,23.23l-.2-.09a.28.28,0,0,0-.38.36,7.28,7.28,0,0,0,8.51,4A9.75,9.75,0,0,1,1170.94,23.23Z"/><path class="cls-14" d="M1178.89,19.74a3,3,0,0,1,2.32-2.26,3.21,3.21,0,0,1,.87,0,2.84,2.84,0,0,0-2.8.31,3,3,0,0,0,.81,5.18A3,3,0,0,1,1178.89,19.74Z"/><path class="cls-15" d="M1183.63,17.4s-2.79-3.59-6.23-3.59A15.83,15.83,0,0,1,1183.63,17.4Z"/><path class="cls-15" d="M1183.63,23.5s-1.63,3-4.37,3.34C1179.26,26.84,1181.15,26.29,1183.63,23.5Z"/><path class="cls-10" d="M1160,21.13a3,3,0,0,0,2.36,2.21,3,3,0,0,0,2-.31.28.28,0,0,1,.4.35,7.32,7.32,0,0,1-13.28.25.28.28,0,0,1,.39-.37,3.09,3.09,0,0,0,2,.24,3,3,0,0,0-.74-6,3,3,0,0,0-1.4.37.28.28,0,0,1-.39-.36,7.32,7.32,0,0,1,13.28-.24.28.28,0,0,1-.38.37,3.08,3.08,0,0,0-1.42-.32A3,3,0,0,0,1160,21.13Z"/><path class="cls-14" d="M1152,23.23a1.21,1.21,0,0,1-.2-.09.28.28,0,0,0-.39.36,7.29,7.29,0,0,0,8.52,4A9.75,9.75,0,0,1,1152,23.23Z"/><path class="cls-14" d="M1160,19.74a3,3,0,0,1,2.33-2.26,3.21,3.21,0,0,1,.87,0,2.86,2.86,0,0,0-2.81.31,3,3,0,0,0,.82,5.18A3.06,3.06,0,0,1,1160,19.74Z"/><path class="cls-15" d="M1164.73,17.4s-2.79-3.59-6.23-3.59A15.83,15.83,0,0,1,1164.73,17.4Z"/><path class="cls-15" d="M1164.73,23.5s-1.63,3-4.37,3.34C1160.36,26.84,1162.25,26.29,1164.73,23.5Z"/><path class="cls-10" d="M1141.09,21.13a3.05,3.05,0,0,0,4.4,1.9.28.28,0,0,1,.39.35,7.31,7.31,0,0,1-13.27.25.28.28,0,0,1,.38-.37,3.12,3.12,0,0,0,2,.24,3,3,0,1,0-2.14-5.62.28.28,0,0,1-.39-.36,7.31,7.31,0,0,1,13.27-.24.28.28,0,0,1-.37.37,3.08,3.08,0,0,0-1.42-.32A3,3,0,0,0,1141.09,21.13Z"/><path class="cls-14" d="M1133.14,23.23a1.21,1.21,0,0,1-.2-.09.28.28,0,0,0-.39.36,7.29,7.29,0,0,0,8.52,4A9.73,9.73,0,0,1,1133.14,23.23Z"/><path class="cls-14" d="M1141.08,19.74a3,3,0,0,1,2.33-2.26,3.21,3.21,0,0,1,.87,0,2.86,2.86,0,0,0-2.81.31,3,3,0,0,0,.82,5.18A3,3,0,0,1,1141.08,19.74Z"/><path class="cls-15" d="M1145.83,17.4s-2.79-3.59-6.23-3.59A15.9,15.9,0,0,1,1145.83,17.4Z"/><path class="cls-15" d="M1145.83,23.5s-1.63,3-4.37,3.34C1141.46,26.84,1143.35,26.29,1145.83,23.5Z"/><rect class="cls-13" x="805.06" y="6.25" width="0.97" height="24.8" transform="translate(1611.09 37.3) rotate(180)"/><rect class="cls-10" x="144.87" y="9.6" width="391.64" height="4.18"/><rect class="cls-10" x="147.78" y="27.33" width="388.73" height="3.64"/><path class="cls-11" d="M139.9,3.76A3.76,3.76,0,1,0,143.66,0,3.75,3.75,0,0,0,139.9,3.76Z"/><path class="cls-12" d="M142.45,5.54C140.63,4.61,140.34,2,140.34,2a3.76,3.76,0,1,0,6.92,2.84h0C146.16,6.15,143.74,6.2,142.45,5.54Z"/><polygon class="cls-11" points="139.53 6.18 139.53 27.62 129.02 27.62 129.02 37.9 139.53 37.9 147.78 37.9 147.78 6.18 139.53 6.18"/><rect class="cls-12" x="147.78" y="12.84" width="382.52" height="0.94"/><rect class="cls-13" x="147.78" y="10.49" width="382.52" height="0.94"/><rect class="cls-12" x="147.78" y="30.03" width="382.52" height="0.94"/><rect class="cls-16" x="147.78" y="27.72" width="382.52" height="0.94"/><path class="cls-11" d="M530.48,3.58A3.27,3.27,0,1,0,533.74.32,3.26,3.26,0,0,0,530.48,3.58Z"/><path class="cls-12" d="M532.69,5.13c-1.57-.81-1.83-3.08-1.83-3.08a3.3,3.3,0,0,0-.38,1.53,3.26,3.26,0,0,0,6.39.93h0A3.77,3.77,0,0,1,532.69,5.13Z"/><path class="cls-13" d="M536.11,2.05a.87.87,0,1,1-.87-.86A.86.86,0,0,1,536.11,2.05Z"/><rect class="cls-10" x="530.12" y="6.18" width="7.25" height="24.8" transform="translate(1067.49 37.15) rotate(180)"/><rect class="cls-12" x="530.27" y="6.18" width="0.97" height="24.8" transform="translate(1061.51 37.15) rotate(180)"/><path class="cls-13" d="M146.38,2a1,1,0,1,1-1-1A1,1,0,0,1,146.38,2Z"/><polygon class="cls-12" points="139.53 27.62 139.4 6.18 140.76 6.18 140.76 28.48 140.76 28.62 140.76 28.62 128.97 28.66 129.02 27.62 139.53 27.62"/><polygon class="cls-13" points="146.43 36.21 146.43 6.18 147.78 6.18 147.78 35.36 147.78 37.48 146.43 37.48 128.97 37.48 128.97 36.21 146.43 36.21"/><path class="cls-10" d="M199.75,21.1a3,3,0,0,0,4.39,1.9.28.28,0,0,1,.4.35,7.32,7.32,0,0,1-13.28.24.28.28,0,0,1,.39-.36,3.09,3.09,0,0,0,2,.24,3,3,0,0,0-.74-6,3.13,3.13,0,0,0-1.4.37.28.28,0,0,1-.39-.35,7.31,7.31,0,0,1,13.28-.24.28.28,0,0,1-.38.37,3,3,0,0,0-1.41-.32A3,3,0,0,0,199.75,21.1Z"/><path class="cls-14" d="M191.79,23.2l-.2-.09a.28.28,0,0,0-.38.36,7.28,7.28,0,0,0,8.51,4A9.78,9.78,0,0,1,191.79,23.2Z"/><path class="cls-14" d="M199.73,19.71a3,3,0,0,1,2.33-2.26,2.86,2.86,0,0,1,.87,0,2.84,2.84,0,0,0-2.8.31,3,3,0,0,0,.81,5.17A3,3,0,0,1,199.73,19.71Z"/><path class="cls-15" d="M204.48,17.37s-2.79-3.59-6.23-3.59A15.83,15.83,0,0,1,204.48,17.37Z"/><path class="cls-15" d="M204.48,23.47s-1.63,3-4.37,3.34C200.11,26.81,202,26.26,204.48,23.47Z"/><path class="cls-10" d="M180.84,21.1a3.05,3.05,0,0,0,4.4,1.9.28.28,0,0,1,.4.35,7.32,7.32,0,0,1-13.28.24.27.27,0,0,1,.38-.36,3.12,3.12,0,0,0,2,.24,3,3,0,0,0-.74-6,3.13,3.13,0,0,0-1.4.37.28.28,0,0,1-.39-.35,7.31,7.31,0,0,1,13.27-.24.28.28,0,0,1-.37.37,3,3,0,0,0-1.42-.32A3,3,0,0,0,180.84,21.1Z"/><path class="cls-14" d="M172.89,23.2l-.2-.09a.28.28,0,0,0-.39.36,7.29,7.29,0,0,0,8.52,4A9.78,9.78,0,0,1,172.89,23.2Z"/><path class="cls-14" d="M180.83,19.71a3,3,0,0,1,2.33-2.26,2.86,2.86,0,0,1,.87,0,2.86,2.86,0,0,0-2.81.31,3,3,0,0,0,.82,5.17A3,3,0,0,1,180.83,19.71Z"/><path class="cls-15" d="M185.58,17.37s-2.79-3.59-6.23-3.59A15.9,15.9,0,0,1,185.58,17.37Z"/><path class="cls-15" d="M185.58,23.47s-1.63,3-4.37,3.34C181.21,26.81,183.1,26.26,185.58,23.47Z"/><path class="cls-10" d="M161.94,21.1a3.05,3.05,0,0,0,4.4,1.9.28.28,0,0,1,.39.35,7.31,7.31,0,0,1-13.27.24.27.27,0,0,1,.38-.36,3.12,3.12,0,0,0,2,.24,3,3,0,0,0-.74-6,3.1,3.1,0,0,0-1.4.37.28.28,0,0,1-.39-.35,7.31,7.31,0,0,1,13.27-.24.28.28,0,0,1-.38.37,2.9,2.9,0,0,0-1.41-.32A3,3,0,0,0,161.94,21.1Z"/><path class="cls-14" d="M154,23.2l-.2-.09a.28.28,0,0,0-.39.36,7.29,7.29,0,0,0,8.52,4A9.76,9.76,0,0,1,154,23.2Z"/><path class="cls-14" d="M161.93,19.71a3,3,0,0,1,2.33-2.26,2.83,2.83,0,0,1,.87,0,2.86,2.86,0,0,0-2.81.31,3,3,0,0,0,.82,5.17A3,3,0,0,1,161.93,19.71Z"/><path class="cls-15" d="M166.68,17.37s-2.79-3.59-6.23-3.59A15.9,15.9,0,0,1,166.68,17.37Z"/><path class="cls-15" d="M166.68,23.47s-1.63,3-4.37,3.34C162.31,26.81,164.2,26.26,166.68,23.47Z"/><path class="cls-10" d="M256.25,21.27a3,3,0,0,0,4.39,1.9.28.28,0,0,1,.4.35,7.32,7.32,0,0,1-13.28.25.28.28,0,0,1,.39-.37,3.09,3.09,0,0,0,2,.24A3,3,0,1,0,248,18a.28.28,0,0,1-.39-.36,7.32,7.32,0,0,1,13.28-.24.28.28,0,0,1-.38.37,3,3,0,0,0-4.3,3.48Z"/><path class="cls-14" d="M248.29,23.37l-.2-.09a.28.28,0,0,0-.38.36,7.29,7.29,0,0,0,6.64,4.25,7.21,7.21,0,0,0,1.87-.25A9.77,9.77,0,0,1,248.29,23.37Z"/><path class="cls-14" d="M256.24,19.88a3,3,0,0,1,2.32-2.26,3.21,3.21,0,0,1,.87,0,2.84,2.84,0,0,0-2.8.31,3,3,0,0,0,.81,5.18A3,3,0,0,1,256.24,19.88Z"/><path class="cls-15" d="M261,17.54S258.2,14,254.75,14A15.83,15.83,0,0,1,261,17.54Z"/><path class="cls-15" d="M261,23.64s-1.64,3-4.38,3.34C256.61,27,258.51,26.43,261,23.64Z"/><path class="cls-10" d="M237.35,21.27a3,3,0,0,0,4.39,1.9.28.28,0,0,1,.4.35,7.32,7.32,0,0,1-13.28.25.28.28,0,0,1,.39-.37,3.09,3.09,0,0,0,2,.24,3,3,0,0,0-.74-6,3,3,0,0,0-1.4.37.28.28,0,0,1-.39-.36A7.32,7.32,0,0,1,242,17.42a.28.28,0,0,1-.38.37,3.07,3.07,0,0,0-1.41-.32A3,3,0,0,0,237.35,21.27Z"/><path class="cls-14" d="M229.39,23.37l-.2-.09a.28.28,0,0,0-.38.36,7.28,7.28,0,0,0,8.51,4A9.75,9.75,0,0,1,229.39,23.37Z"/><path class="cls-14" d="M237.33,19.88a3,3,0,0,1,2.33-2.26,3.21,3.21,0,0,1,.87,0,2.84,2.84,0,0,0-2.8.31,3,3,0,0,0,.81,5.18A3.06,3.06,0,0,1,237.33,19.88Z"/><path class="cls-15" d="M242.08,17.54S239.29,14,235.85,14A15.83,15.83,0,0,1,242.08,17.54Z"/><path class="cls-15" d="M242.08,23.64s-1.63,3-4.37,3.34C237.71,27,239.6,26.43,242.08,23.64Z"/><path class="cls-10" d="M218.45,21.27a3,3,0,0,0,2.36,2.21,3,3,0,0,0,2-.31.28.28,0,0,1,.4.35,7.32,7.32,0,0,1-13.28.25.28.28,0,0,1,.38-.37,3.13,3.13,0,0,0,2,.24,3,3,0,0,0-.74-6,3,3,0,0,0-1.4.37.28.28,0,0,1-.39-.36,7.31,7.31,0,0,1,13.27-.24.28.28,0,0,1-.37.37,3.08,3.08,0,0,0-1.42-.32A3,3,0,0,0,218.45,21.27Z"/><path class="cls-14" d="M210.49,23.37a1.21,1.21,0,0,1-.2-.09.28.28,0,0,0-.39.36,7.29,7.29,0,0,0,8.52,4A9.75,9.75,0,0,1,210.49,23.37Z"/><path class="cls-14" d="M218.43,19.88a3,3,0,0,1,2.33-2.26,3.21,3.21,0,0,1,.87,0,2.86,2.86,0,0,0-2.81.31,3,3,0,0,0,.82,5.18A3,3,0,0,1,218.43,19.88Z"/><path class="cls-15" d="M223.18,17.54S220.39,14,217,14A15.9,15.9,0,0,1,223.18,17.54Z"/><path class="cls-15" d="M223.18,23.64s-1.63,3-4.37,3.34C218.81,27,220.7,26.43,223.18,23.64Z"/><path class="cls-10" d="M312.92,21.18a3,3,0,0,0,2.36,2.22,3.07,3.07,0,0,0,2-.32.29.29,0,0,1,.4.36,7.32,7.32,0,0,1-13.28.24.29.29,0,0,1,.39-.37,3,3,0,1,0-.11-5.38.28.28,0,0,1-.39-.36,7.32,7.32,0,0,1,13.28-.24.28.28,0,0,1-.38.37,3,3,0,0,0-4.3,3.48Z"/><path class="cls-14" d="M305,23.29l-.2-.1a.28.28,0,0,0-.38.37,7.28,7.28,0,0,0,8.51,4A9.75,9.75,0,0,1,305,23.29Z"/><path class="cls-14" d="M312.9,19.79a3,3,0,0,1,2.33-2.25,2.87,2.87,0,0,1,.87-.05,2.82,2.82,0,0,0-2.8.32,3,3,0,0,0,.81,5.17A3.06,3.06,0,0,1,312.9,19.79Z"/><path class="cls-15" d="M317.65,17.45s-2.79-3.58-6.23-3.58A15.87,15.87,0,0,1,317.65,17.45Z"/><path class="cls-15" d="M317.65,23.56s-1.63,3-4.37,3.34C313.28,26.9,315.17,26.35,317.65,23.56Z"/><path class="cls-10" d="M294,21.18a3,3,0,0,0,2.36,2.22,3.09,3.09,0,0,0,2-.32.29.29,0,0,1,.4.36,7.32,7.32,0,0,1-13.28.24.28.28,0,0,1,.39-.37,3,3,0,1,0-.11-5.38.28.28,0,0,1-.39-.36,7.31,7.31,0,0,1,13.27-.24.28.28,0,0,1-.37.37,3.08,3.08,0,0,0-1.42-.32A3,3,0,0,0,294,21.18Z"/><path class="cls-14" d="M286.06,23.29l-.2-.1a.29.29,0,0,0-.39.37,7.3,7.3,0,0,0,8.52,4A9.75,9.75,0,0,1,286.06,23.29Z"/><path class="cls-14" d="M294,19.79a3,3,0,0,1,2.33-2.25,2.87,2.87,0,0,1,.87-.05,2.84,2.84,0,0,0-2.81.32,3,3,0,0,0-1.13,2.72A3,3,0,0,0,295.21,23,3.06,3.06,0,0,1,294,19.79Z"/><path class="cls-15" d="M298.75,17.45s-2.79-3.58-6.23-3.58A15.87,15.87,0,0,1,298.75,17.45Z"/><path class="cls-15" d="M298.75,23.56s-1.63,3-4.37,3.34C294.38,26.9,296.27,26.35,298.75,23.56Z"/><path class="cls-10" d="M275.11,21.18a3,3,0,0,0,2.37,2.22,3.09,3.09,0,0,0,2-.32.28.28,0,0,1,.39.36,7.31,7.31,0,0,1-13.27.24.28.28,0,0,1,.38-.37,3.06,3.06,0,0,0,2,.24,3,3,0,0,0-.74-6,3,3,0,0,0-1.4.37.28.28,0,0,1-.39-.36,7.31,7.31,0,0,1,13.27-.24.28.28,0,0,1-.37.37,3.08,3.08,0,0,0-1.42-.32A3,3,0,0,0,275.11,21.18Z"/><path class="cls-14" d="M267.16,23.29a1.24,1.24,0,0,1-.2-.1.29.29,0,0,0-.39.37,7.3,7.3,0,0,0,8.52,4A9.73,9.73,0,0,1,267.16,23.29Z"/><path class="cls-14" d="M275.1,19.79a3,3,0,0,1,2.33-2.25,2.85,2.85,0,0,1,.87-.05,2.84,2.84,0,0,0-2.81.32,3,3,0,0,0,.82,5.17A3,3,0,0,1,275.1,19.79Z"/><path class="cls-15" d="M279.85,17.45s-2.79-3.58-6.23-3.58A16,16,0,0,1,279.85,17.45Z"/><path class="cls-15" d="M279.85,23.56s-1.63,3-4.37,3.34C275.48,26.9,277.37,26.35,279.85,23.56Z"/><path class="cls-10" d="M369.42,21.36a3,3,0,0,0,4.39,1.9.28.28,0,0,1,.4.35,7.31,7.31,0,0,1-13.27.24.28.28,0,0,1,.38-.37,3,3,0,0,0,4.32-2.06,3,3,0,0,0-3-3.69,3.17,3.17,0,0,0-1.4.37.28.28,0,0,1-.39-.35,7.32,7.32,0,0,1,13.28-.25.29.29,0,0,1-.38.38,2.9,2.9,0,0,0-1.41-.32A3,3,0,0,0,369.42,21.36Z"/><path class="cls-14" d="M361.47,23.46l-.21-.09a.28.28,0,0,0-.38.36A7.3,7.3,0,0,0,367.52,28a7.21,7.21,0,0,0,1.87-.24A9.75,9.75,0,0,1,361.47,23.46Z"/><path class="cls-14" d="M369.41,20a3,3,0,0,1,2.32-2.26,3.23,3.23,0,0,1,.87-.05,2.85,2.85,0,0,0-2.8.32,3,3,0,0,0,.82,5.17A3,3,0,0,1,369.41,20Z"/><path class="cls-15" d="M374.16,17.62S371.37,14,367.93,14A16,16,0,0,1,374.16,17.62Z"/><path class="cls-15" d="M374.16,23.73s-1.64,3-4.37,3.34C369.79,27.07,371.68,26.52,374.16,23.73Z"/><path class="cls-10" d="M350.52,21.36a3,3,0,0,0,4.39,1.9.28.28,0,0,1,.4.35,7.32,7.32,0,0,1-13.28.24.29.29,0,0,1,.39-.37,3,3,0,0,0,2,.24,3,3,0,0,0,2.29-2.3,3,3,0,0,0-3-3.69,3.17,3.17,0,0,0-1.4.37.28.28,0,0,1-.39-.35,7.32,7.32,0,0,1,13.28-.25.29.29,0,0,1-.38.38,2.92,2.92,0,0,0-1.41-.32A3,3,0,0,0,350.52,21.36Z"/><path class="cls-14" d="M342.56,23.46l-.2-.09a.28.28,0,0,0-.38.36,7.33,7.33,0,0,0,8.51,4A9.78,9.78,0,0,1,342.56,23.46Z"/><path class="cls-14" d="M350.51,20a3,3,0,0,1,2.32-2.26,3.23,3.23,0,0,1,.87-.05,2.84,2.84,0,0,0-2.8.32,3,3,0,0,0,.81,5.17A3,3,0,0,1,350.51,20Z"/><path class="cls-15" d="M355.25,17.62S352.46,14,349,14A15.87,15.87,0,0,1,355.25,17.62Z"/><path class="cls-15" d="M355.25,23.73s-1.63,3-4.37,3.34C350.88,27.07,352.77,26.52,355.25,23.73Z"/><path class="cls-10" d="M331.62,21.36A3,3,0,0,0,334,23.57a3.08,3.08,0,0,0,2-.31.28.28,0,0,1,.4.35,7.32,7.32,0,0,1-13.28.24.29.29,0,0,1,.39-.37,3,3,0,0,0,2,.24,3,3,0,0,0,2.29-2.3,3,3,0,0,0-3-3.69,3.13,3.13,0,0,0-1.4.37.28.28,0,0,1-.39-.35,7.32,7.32,0,0,1,13.28-.25.29.29,0,0,1-.38.38,3,3,0,0,0-1.41-.32A3,3,0,0,0,331.62,21.36Z"/><path class="cls-14" d="M323.66,23.46l-.2-.09a.28.28,0,0,0-.39.36,7.35,7.35,0,0,0,8.52,4A9.78,9.78,0,0,1,323.66,23.46Z"/><path class="cls-14" d="M331.6,20a3,3,0,0,1,2.33-2.26,3.23,3.23,0,0,1,.87-.05A2.84,2.84,0,0,0,332,18a3,3,0,0,0-1.14,2.72,3,3,0,0,0,1.95,2.45A3,3,0,0,1,331.6,20Z"/><path class="cls-15" d="M336.35,17.62S333.56,14,330.12,14A15.87,15.87,0,0,1,336.35,17.62Z"/><path class="cls-15" d="M336.35,23.73s-1.63,3-4.37,3.34C332,27.07,333.87,26.52,336.35,23.73Z"/><path class="cls-10" d="M407.69,21a3,3,0,0,0,4.39,1.9.28.28,0,0,1,.4.35,7.31,7.31,0,0,1-13.28.24.28.28,0,0,1,.39-.36,3.09,3.09,0,0,0,2,.24,3,3,0,1,0-2.14-5.62.28.28,0,0,1-.39-.36,7.31,7.31,0,0,1,13.28-.24.28.28,0,0,1-.38.37,3.07,3.07,0,0,0-1.41-.32A3,3,0,0,0,407.69,21Z"/><path class="cls-14" d="M399.73,23.07l-.2-.09a.28.28,0,0,0-.38.36,7.28,7.28,0,0,0,8.51,4A9.75,9.75,0,0,1,399.73,23.07Z"/><path class="cls-14" d="M407.67,19.58A3,3,0,0,1,410,17.32a2.86,2.86,0,0,1,.87,0,2.84,2.84,0,0,0-2.8.31,3,3,0,0,0,.81,5.18A3.06,3.06,0,0,1,407.67,19.58Z"/><path class="cls-15" d="M412.42,17.24s-2.79-3.59-6.23-3.59A15.83,15.83,0,0,1,412.42,17.24Z"/><path class="cls-15" d="M412.42,23.34s-1.63,3-4.37,3.34C408.05,26.68,409.94,26.13,412.42,23.34Z"/><path class="cls-10" d="M388.79,21a3,3,0,0,0,2.36,2.21,3,3,0,0,0,2-.31.28.28,0,0,1,.4.35,7.31,7.31,0,0,1-13.28.24.27.27,0,0,1,.38-.36,3.12,3.12,0,0,0,2,.24,3,3,0,1,0-2.14-5.62.28.28,0,0,1-.39-.36,7.31,7.31,0,0,1,13.27-.24.28.28,0,0,1-.37.37,3.08,3.08,0,0,0-1.42-.32A3,3,0,0,0,388.79,21Z"/><path class="cls-14" d="M380.83,23.07l-.2-.09a.28.28,0,0,0-.39.36,7.29,7.29,0,0,0,8.52,4A9.75,9.75,0,0,1,380.83,23.07Z"/><path class="cls-14" d="M388.77,19.58a3,3,0,0,1,2.33-2.26,2.86,2.86,0,0,1,.87,0,2.86,2.86,0,0,0-2.81.31,3,3,0,0,0,.82,5.18A3,3,0,0,1,388.77,19.58Z"/><path class="cls-15" d="M393.52,17.24s-2.79-3.59-6.23-3.59A15.9,15.9,0,0,1,393.52,17.24Z"/><path class="cls-15" d="M393.52,23.34s-1.63,3-4.37,3.34C389.15,26.68,391,26.13,393.52,23.34Z"/><path class="cls-10" d="M464.19,21.14a3,3,0,0,0,4.39,1.9.28.28,0,0,1,.4.35,7.32,7.32,0,0,1-13.28.25.29.29,0,0,1,.39-.37,3.11,3.11,0,0,0,2,.24A3,3,0,1,0,456,17.89a.28.28,0,0,1-.39-.36,7.32,7.32,0,0,1,13.28-.24.28.28,0,0,1-.38.37,3,3,0,0,0-4.3,3.48Z"/><path class="cls-14" d="M456.23,23.24l-.2-.09a.28.28,0,0,0-.38.37,7.31,7.31,0,0,0,6.64,4.24,7.21,7.21,0,0,0,1.87-.25A9.74,9.74,0,0,1,456.23,23.24Z"/><path class="cls-14" d="M464.18,19.75a3,3,0,0,1,2.32-2.26,3.21,3.21,0,0,1,.87,0,2.84,2.84,0,0,0-2.8.31,3,3,0,0,0,.81,5.18A3,3,0,0,1,464.18,19.75Z"/><path class="cls-15" d="M468.93,17.41s-2.79-3.59-6.23-3.59A15.9,15.9,0,0,1,468.93,17.41Z"/><path class="cls-15" d="M468.93,23.52s-1.64,3-4.38,3.33C464.55,26.85,466.45,26.3,468.93,23.52Z"/><path class="cls-10" d="M445.29,21.14a3,3,0,0,0,2.36,2.22,3.07,3.07,0,0,0,2-.32.28.28,0,0,1,.4.35,7.32,7.32,0,0,1-13.28.25.29.29,0,0,1,.39-.37,3.09,3.09,0,0,0,2,.24,3,3,0,0,0-.74-6,3,3,0,0,0-1.4.37.28.28,0,0,1-.39-.36A7.32,7.32,0,0,1,450,17.29a.28.28,0,0,1-.38.37,3.07,3.07,0,0,0-1.41-.32A3,3,0,0,0,445.29,21.14Z"/><path class="cls-14" d="M437.33,23.24l-.2-.09a.28.28,0,0,0-.38.37,7.28,7.28,0,0,0,8.51,4A9.72,9.72,0,0,1,437.33,23.24Z"/><path class="cls-14" d="M445.27,19.75a3,3,0,0,1,2.33-2.26,3.21,3.21,0,0,1,.87,0,2.84,2.84,0,0,0-2.8.31,3,3,0,0,0,.81,5.18A3.06,3.06,0,0,1,445.27,19.75Z"/><path class="cls-15" d="M450,17.41s-2.79-3.59-6.23-3.59A15.83,15.83,0,0,1,450,17.41Z"/><path class="cls-15" d="M450,23.52s-1.63,3-4.37,3.33C445.65,26.85,447.54,26.3,450,23.52Z"/><path class="cls-10" d="M426.39,21.14a3,3,0,0,0,2.36,2.22,3.09,3.09,0,0,0,2-.32.28.28,0,0,1,.4.35,7.32,7.32,0,0,1-13.28.25.28.28,0,0,1,.38-.37,3.13,3.13,0,0,0,2,.24,3,3,0,0,0-.74-6,3,3,0,0,0-1.4.37.28.28,0,0,1-.39-.36,7.31,7.31,0,0,1,13.27-.24.28.28,0,0,1-.37.37,3.08,3.08,0,0,0-1.42-.32A3,3,0,0,0,426.39,21.14Z"/><path class="cls-14" d="M418.43,23.24a1.21,1.21,0,0,1-.2-.09.29.29,0,0,0-.39.37,7.3,7.3,0,0,0,8.52,4A9.72,9.72,0,0,1,418.43,23.24Z"/><path class="cls-14" d="M426.37,19.75a3,3,0,0,1,2.33-2.26,3.21,3.21,0,0,1,.87,0,2.86,2.86,0,0,0-2.81.31,3,3,0,0,0,.82,5.18A3.06,3.06,0,0,1,426.37,19.75Z"/><path class="cls-15" d="M431.12,17.41s-2.79-3.59-6.23-3.59A15.9,15.9,0,0,1,431.12,17.41Z"/><path class="cls-15" d="M431.12,23.52s-1.63,3-4.37,3.33C426.75,26.85,428.64,26.3,431.12,23.52Z"/><path class="cls-10" d="M520.86,21.05a3,3,0,0,0,4.39,1.9.29.29,0,0,1,.4.36,7.32,7.32,0,0,1-13.28.24.29.29,0,0,1,.39-.37,3,3,0,0,0,2,.24,3,3,0,0,0-.74-6,3,3,0,0,0-1.4.37.28.28,0,0,1-.39-.36,7.32,7.32,0,0,1,13.28-.24.28.28,0,0,1-.38.37,3.2,3.2,0,0,0-1.41-.32A3,3,0,0,0,520.86,21.05Z"/><path class="cls-14" d="M512.9,23.16l-.2-.09a.28.28,0,0,0-.38.36A7.3,7.3,0,0,0,519,27.67a7.73,7.73,0,0,0,1.87-.24A9.78,9.78,0,0,1,512.9,23.16Z"/><path class="cls-14" d="M520.85,19.66a3,3,0,0,1,2.32-2.25,3.23,3.23,0,0,1,.87-.05,2.82,2.82,0,0,0-2.8.32,3,3,0,0,0,.81,5.17A3,3,0,0,1,520.85,19.66Z"/><path class="cls-15" d="M525.59,17.32s-2.79-3.58-6.23-3.58A15.87,15.87,0,0,1,525.59,17.32Z"/><path class="cls-15" d="M525.59,23.43s-1.63,3-4.37,3.34C521.22,26.77,523.11,26.22,525.59,23.43Z"/><path class="cls-10" d="M502,21.05a3,3,0,0,0,2.36,2.22,3.08,3.08,0,0,0,2-.32.29.29,0,0,1,.4.36,7.32,7.32,0,0,1-13.28.24.28.28,0,0,1,.39-.37,3,3,0,0,0,2,.24,3,3,0,0,0-.74-6,3,3,0,0,0-1.4.37.28.28,0,0,1-.39-.36,7.32,7.32,0,0,1,13.28-.24.28.28,0,0,1-.38.37,3.22,3.22,0,0,0-1.42-.32A3,3,0,0,0,502,21.05Z"/><path class="cls-14" d="M494,23.16l-.2-.09a.28.28,0,0,0-.39.36,7.32,7.32,0,0,0,6.64,4.24,7.75,7.75,0,0,0,1.88-.24A9.78,9.78,0,0,1,494,23.16Z"/><path class="cls-14" d="M501.94,19.66a3,3,0,0,1,2.33-2.25,3.23,3.23,0,0,1,.87-.05,2.84,2.84,0,0,0-2.81.32,3,3,0,0,0-1.13,2.72,3,3,0,0,0,1.95,2.45A3.06,3.06,0,0,1,501.94,19.66Z"/><path class="cls-15" d="M506.69,17.32s-2.79-3.58-6.23-3.58A15.87,15.87,0,0,1,506.69,17.32Z"/><path class="cls-15" d="M506.69,23.43s-1.63,3-4.37,3.34C502.32,26.77,504.21,26.22,506.69,23.43Z"/><path class="cls-10" d="M483.05,21.05a3,3,0,0,0,2.37,2.22,3.09,3.09,0,0,0,2-.32.28.28,0,0,1,.39.36,7.31,7.31,0,0,1-13.27.24.28.28,0,0,1,.38-.37,3,3,0,0,0,4.32-2.06,3,3,0,0,0-4.42-3.32.28.28,0,0,1-.39-.36,7.31,7.31,0,0,1,13.27-.24.28.28,0,0,1-.37.37,3.22,3.22,0,0,0-1.42-.32A3,3,0,0,0,483.05,21.05Z"/><path class="cls-14" d="M475.1,23.16l-.2-.09a.28.28,0,0,0-.39.36,7.32,7.32,0,0,0,6.64,4.24,7.75,7.75,0,0,0,1.88-.24A9.76,9.76,0,0,1,475.1,23.16Z"/><path class="cls-14" d="M483,19.66a3,3,0,0,1,2.33-2.25,3.23,3.23,0,0,1,.87-.05,2.84,2.84,0,0,0-2.81.32,3,3,0,0,0,.82,5.17A3,3,0,0,1,483,19.66Z"/><path class="cls-15" d="M487.79,17.32s-2.79-3.58-6.23-3.58A16,16,0,0,1,487.79,17.32Z"/><path class="cls-15" d="M487.79,23.43s-1.63,3-4.37,3.34C483.42,26.77,485.31,26.22,487.79,23.43Z"/><rect class="cls-13" x="535.51" y="6.18" width="0.97" height="24.8" transform="translate(1071.99 37.15) rotate(180)"/><polygon points="516.83 30.89 496.72 59.66 516.83 59.66 516.83 30.89"/><polygon class="cls-7" points="530.3 30.71 516.83 37.06 515.53 44.23 513.78 51.51 512.63 59.66 815.68 59.66 821.97 59.66 818.92 37.06 819.02 33.97 806.03 31.05 530.3 30.71"/><rect class="cls-17" x="507.73" y="59.66" width="317.62" height="9.68"/><rect class="cls-17" x="507.73" y="61.27" width="317.62" height="0.84"/><ellipse class="cls-10" cx="836.77" cy="80.81" rx="3.26" ry="3.26"/><path class="cls-12" d="M835.72,82.36c-1.57-.8-1.83-3.08-1.83-3.08a3.3,3.3,0,0,0-.38,1.53,3.26,3.26,0,0,0,6.39.93h0A3.77,3.77,0,0,1,835.72,82.36Z"/><path class="cls-13" d="M839.14,79.28a.87.87,0,1,1-.87-.86A.86.86,0,0,1,839.14,79.28Z"/><rect class="cls-10" x="833.15" y="83.41" width="7.25" height="24.8" transform="translate(1673.55 191.62) rotate(180)"/><rect class="cls-12" x="833.3" y="83.41" width="0.97" height="24.8" transform="translate(1667.57 191.62) rotate(180)"/><rect class="cls-13" x="838.54" y="83.41" width="0.97" height="24.8" transform="translate(1678.05 191.62) rotate(180)"/><polygon points="507.67 67.19 478.56 106.21 504.87 105.78 507.67 67.19"/><path class="cls-11" d="M493.52,80.81a3.27,3.27,0,1,0,3.27-3.26A3.27,3.27,0,0,0,493.52,80.81Z"/><path class="cls-12" d="M495.73,82.36c-1.57-.8-1.82-3.08-1.82-3.08a3.19,3.19,0,0,0-.39,1.53,3.26,3.26,0,0,0,6.39.93h0A3.77,3.77,0,0,1,495.73,82.36Z"/><circle class="cls-13" cx="498.29" cy="79.28" r="0.86"/><rect class="cls-10" x="493.16" y="83.41" width="7.25" height="24.8" transform="translate(993.57 191.62) rotate(180)"/><rect class="cls-12" x="493.32" y="83.41" width="0.97" height="24.8" transform="translate(987.6 191.62) rotate(180)"/><rect class="cls-13" x="498.56" y="83.41" width="0.97" height="24.8" transform="translate(998.08 191.62) rotate(180)"/><polygon class="cls-7" points="830.73 97.35 829.33 91.15 829.33 87.55 828.52 87.55 827.83 84.5 827.83 77.68 826.29 77.68 826.07 76.72 826.07 68.47 825.05 68.47 824.89 67.19 507.67 67.19 507.55 68.47 506.71 68.47 506.71 76.72 506.5 77.68 504.2 77.68 504.2 86.56 504.58 86.56 504.37 87.55 502.28 87.55 502.28 96.43 502.45 96.43 502.25 97.35 500.35 97.35 500.35 105.92 500.4 105.92 500.35 106.16 832.66 105.92 832.66 97.35 830.73 97.35"/><rect class="cls-17" x="500.38" y="99.61" width="332.77" height="8.6"/><rect class="cls-17" x="500.38" y="100.91" width="332.77" height="0.84"/><rect class="cls-17" x="502.32" y="89.77" width="327.48" height="8.91"/><rect class="cls-17" x="502.32" y="91.38" width="327.48" height="0.84"/><rect class="cls-17" x="504.25" y="79.87" width="324.05" height="8.91"/><rect class="cls-17" x="504.25" y="81.48" width="324.05" height="0.84"/><rect class="cls-17" x="506.76" y="70.62" width="319.77" height="8.28"/><rect class="cls-17" x="506.76" y="72.23" width="319.77" height="0.84"/><rect class="cls-17" x="512.63" y="52.51" width="309.9" height="6.17"/><rect class="cls-17" x="512.63" y="53.59" width="309.9" height="0.69"/><rect class="cls-17" x="513.78" y="45.34" width="307.94" height="6.17"/><rect class="cls-17" x="513.78" y="46.42" width="307.94" height="0.69"/><rect class="cls-17" x="515.53" y="38.06" width="304.45" height="6.17"/><rect class="cls-17" x="515.53" y="39.14" width="304.45" height="0.69"/><rect class="cls-17" x="516.82" y="30.89" width="302.1" height="6.17"/><rect class="cls-17" x="516.82" y="31.97" width="302.1" height="0.69"/></g></g></g></svg>