<svg xmlns="http://www.w3.org/2000/svg" viewBox="0 0 386.75 253.18"><defs><style>.cls-1{fill:#72695e;opacity:0.8;}.cls-2,.cls-9{font-size:13.54px;}.cls-2{font-family:FZCUJINLJW--GB1-0, FZJinLS-B-GB;}.cls-3{fill:#231f20;}.cls-4{fill:#1b3046;}.cls-5{fill:#f8d069;}.cls-6{fill:#f7c768;}.cls-13,.cls-7{font-size:13.08px;}.cls-7{font-family:QingYang;}.cls-8{fill:#174076;}.cls-13,.cls-9{fill:#fff;font-family:FZXZTFW--GB1-0, FZXiaoZhuanTi-S13T;}.cls-10{fill:#c42c2c;}.cls-11{fill:#dd9eb2;}.cls-12{fill:#026258;}.cls-14{fill:#1c3148;}.cls-15{fill:#1c3047;}.cls-16{fill:#20344b;}.cls-17{fill:#ef7903;}.cls-18{fill:#1d3248;}.cls-19{fill:#23374e;}.cls-20{fill:#293d53;}.cls-21{fill:#3c3140;}.cls-22{fill:#1e3249;}.cls-23{fill:#23364a;}.cls-24{fill:#25394f;}.cls-25{fill:#28394b;}.cls-26{fill:#1e3349;}.cls-27{fill:#779fbe;}</style></defs><title>temp_material</title><g id="图层_2" data-name="图层 2"><g id="图层_1-2" data-name="图层 1"><path class="cls-1" d="M247.37,200.18a1.34,1.34,0,1,1-1.34-1.34A1.34,1.34,0,0,1,247.37,200.18Z"/><path class="cls-1" d="M247.37,202.5a1.34,1.34,0,1,1-1.34-1.33A1.34,1.34,0,0,1,247.37,202.5Z"/><text class="cls-2" transform="translate(24.96 95.64)">金类</text><text class="cls-2" transform="translate(127.36 95.64)">匏类</text><text class="cls-2" transform="translate(232.77 95.64)">革类</text><text class="cls-2" transform="translate(331.86 95.64)">木类</text><text class="cls-2" transform="translate(26.33 239.87)">竹类</text><text class="cls-2" transform="translate(126.87 239.87)">丝类</text><text class="cls-2" transform="translate(232.49 239.87)">石类</text><text class="cls-2" transform="translate(334.71 239.87)">土类</text><path class="cls-3" d="M209.44,63.53l.05,0-.05,0Z"/><path class="cls-4" d="M346.08,59.36c0-1.77.13-3.56-.76-5.31-.2,1.82-.42,3.65-.6,5.48a.64.64,0,0,0,.67.77C345.93,60.27,346.08,59.82,346.08,59.36Z"/><path class="cls-4" d="M345.37,61.57c-.79,0-.52,1.06-.54,1.67s-.21,1.36.65,1.31c.7,0,.48-.8.5-1.38C345.8,62.65,346.21,61.57,345.37,61.57Z"/><path class="cls-4" d="M345.73,67h0l-5.17,0-.29,0a3.18,3.18,0,0,0,.48.28,18.12,18.12,0,0,0,4.88.06,17.08,17.08,0,0,1,4-.23,5.26,5.26,0,0,0,.85-.09h0Z"/><path class="cls-4" d="M347.41,68a17.82,17.82,0,0,1-2.31-.06,2.83,2.83,0,0,0-2,.2c.92,0,1.84,0,2.75,0a6.87,6.87,0,0,0,1.81-.17A2.43,2.43,0,0,1,347.41,68Z"/><path class="cls-4" d="M353.52,28.77c-1.31,3.6-.64,7.36-1.46,10.94-1.11,4.84-3,9.3-6.69,12.74a10.07,10.07,0,0,0-2.72,3.41,13.79,13.79,0,0,0-.39,10.82c-1.77.16-3.47-.18-5.12.29a42.31,42.31,0,0,1,4.91-.12h.24c.27-.21.22-.61,0-1.41a11.2,11.2,0,0,1-.48-4.57,12.76,12.76,0,0,1,4.13-8.44c3.72-3.35,5.44-8,6.55-12.83.73-3.13.28-6.37,1-9.49.37-1.51,0-1.89-1.61-1.84a1.71,1.71,0,0,0-1.35.4l.18.15A6.75,6.75,0,0,1,353.52,28.77Z"/><path class="cls-4" d="M347.34,66.85A.88.88,0,0,1,347,67c.32,0,.73,0,.72.44s-.46.43-.78.42a8.17,8.17,0,0,1-2.14-.16c-.68-.2-1.44-.38-1.92.44a2.8,2.8,0,0,1,2-.2,18,18,0,0,0,2.32.06,2.43,2.43,0,0,0,.27,0,1.43,1.43,0,0,0,.41-.21.61.61,0,0,0,.09-.39C347.91,67,347.66,66.86,347.34,66.85Z"/><path class="cls-4" d="M347.74,66.85a42.31,42.31,0,0,0-4.91.12h0c1.59,0,3.18,0,4.76,0h0a.88.88,0,0,0,.35-.15Z"/><path class="cls-4" d="M241.3,55.65a49.7,49.7,0,0,0,8.16.4,2.47,2.47,0,0,1,1.44.27,3.8,3.8,0,0,0,.42-.57C247.92,55.55,244.53,55.77,241.3,55.65Z"/><path class="cls-4" d="M245.86,56.32a1.17,1.17,0,0,1,.24.21,1,1,0,0,0,.66-.75l-.49,0A4.57,4.57,0,0,1,245.86,56.32Z"/><path class="cls-4" d="M251.72,56.32a2.47,2.47,0,0,0-1.44-.27,49.7,49.7,0,0,1-8.16-.4c3.23.12,6.62-.1,10,.1a2.29,2.29,0,0,0,.14-.27,3.83,3.83,0,0,0-2.45-.33c-2.84.07-5.69,0-8.53,0-.36,0-.91-.09-.94.41s.57.56,1,.59a74.06,74.06,0,0,0,10.21.39l.13-.15Z"/><path d="M34.3,104.72c-.7.11-.77.17-.77.94v1a6.69,6.69,0,0,0,.07,1.15,15.68,15.68,0,0,1-2.84.41c-2.79,0-4.42-1.71-4.42-4.09,0-2.64,2.15-4,4.65-4a16.82,16.82,0,0,1,2.45.28c0,.5.11,1.35.19,2l-.43.08a2.17,2.17,0,0,0-1.44-1.76,4,4,0,0,0-1.05-.14c-1.59,0-2.71,1.25-2.71,3.36s.82,3.79,2.92,3.79a1.8,1.8,0,0,0,.85-.18c.21-.12.32-.3.32-.71v-1c0-.86-.14-.94-1.2-1v-.41H34.3Z"/><path d="M38.09,102.55a2.64,2.64,0,0,1,2.71,2.7,2.76,2.76,0,1,1-5.52.16A2.8,2.8,0,0,1,38.09,102.55ZM38,103c-.59,0-1.15.6-1.15,2s.56,2.63,1.39,2.63c.56,0,1.09-.39,1.09-2.11C39.28,104,38.8,103,38,103Z"/><path d="M41.48,108v-.38c.71-.1.76-.16.76-.93v-5.55c0-.67-.07-.74-.74-.86v-.36a11.84,11.84,0,0,0,2.08-.4v7.17c0,.8.05.85.76.93V108Z"/><path d="M51,107.69a17,17,0,0,0-2.18.46v-.72l-.74.45a1.37,1.37,0,0,1-.72.26A2.55,2.55,0,0,1,45,105.49a3.09,3.09,0,0,1,3.25-2.94,2.55,2.55,0,0,1,.6.07v-1.51c0-.68-.07-.73-.85-.82v-.37a14.85,14.85,0,0,0,2.19-.4v7c0,.64.08.71.53.76l.31,0Zm-2.18-4a1.14,1.14,0,0,0-1-.6c-.44,0-1.32.29-1.32,2,0,1.53.88,2.17,1.5,2.18a1.56,1.56,0,0,0,.85-.28Z"/><path d="M233.71,105.93c-.09.47-.43,1.73-.54,2.07h-5.82v-.41c1.07-.08,1.16-.16,1.16-1.17v-4.63c0-1-.12-1.1-1-1.18v-.41H231v.41c-.94.09-1.07.16-1.07,1.18v4.73c0,.68,0,.94.72,1h.74a1.21,1.21,0,0,0,1.12-.43,4.69,4.69,0,0,0,.74-1.25Z"/><path d="M239.17,106.88a2.72,2.72,0,0,1-2.13,1.26,2.43,2.43,0,0,1-2.46-2.6,3.15,3.15,0,0,1,.86-2.14,2.65,2.65,0,0,1,1.84-.85,1.93,1.93,0,0,1,1.93,1.92c0,.22,0,.39-.18.43s-1.87.15-3.13.2c0,1.39.82,2,1.68,2a2,2,0,0,0,1.38-.57ZM237,103c-.51,0-1,.55-1.07,1.5.56,0,1.09,0,1.66,0,.19,0,.26,0,.26-.24C237.89,103.65,237.57,103,237,103Z"/><path d="M243.86,108.14a1,1,0,0,1-.68-.24,1.13,1.13,0,0,1-.31-.48,4,4,0,0,1-1.33.72,1.54,1.54,0,0,1-1.57-1.52c0-.62.3-.94.95-1.18a9.93,9.93,0,0,0,1.91-.79v-.43c0-.7-.29-1.1-.85-1.1a.61.61,0,0,0-.51.26,2.35,2.35,0,0,0-.3.78.42.42,0,0,1-.45.36.68.68,0,0,1-.65-.59c0-.2.15-.35.41-.53a5.84,5.84,0,0,1,1.85-.85,2,2,0,0,1,1.16.34,1.64,1.64,0,0,1,.64,1.45v2.16c0,.56.2.72.4.72a1,1,0,0,0,.39-.11l.13.38Zm-1-3-.82.42c-.4.19-.64.41-.64.83a.84.84,0,0,0,.78.92,1,1,0,0,0,.68-.28Z"/><path d="M247.84,108a1.23,1.23,0,0,1-.49.14c-.87,0-1.37-.44-1.37-1.49v-3.39h-.79l-.06-.15.34-.41H246v-1c.35-.27.85-.63,1.2-.91l.17.08c0,.38,0,1,0,1.83h1.26a.46.46,0,0,1-.09.56h-1.17v3c0,1,.38,1.08.64,1.08a1.66,1.66,0,0,0,.63-.14l.12.39Z"/><path d="M252.52,108v-.38c.59-.08.65-.16.65-.86V104.7c0-1-.39-1.32-1-1.32a1.4,1.4,0,0,0-1,.44v2.94c0,.7.07.78.68.86V108h-2.77v-.38c.63-.07.75-.11.75-.89V101.1c0-.58-.05-.72-.77-.82v-.36a9.67,9.67,0,0,0,2.11-.4v3.85a2.57,2.57,0,0,1,1.66-.82c1,0,1.67.66,1.67,2v2.17c0,.77.09.79.71.88V108Z"/><path d="M260.51,106.88a2.71,2.71,0,0,1-2.12,1.26,2.43,2.43,0,0,1-2.46-2.6,3.15,3.15,0,0,1,.86-2.14,2.63,2.63,0,0,1,1.84-.85,1.93,1.93,0,0,1,1.93,1.92c0,.22,0,.39-.19.43s-1.86.15-3.12.2c0,1.39.82,2,1.68,2a2,2,0,0,0,1.38-.57ZM258.37,103c-.5,0-.95.55-1.06,1.5l1.66,0c.19,0,.26,0,.26-.24C259.24,103.65,258.91,103,258.37,103Z"/><path d="M264.3,108h-3v-.38c.68-.08.74-.13.74-.87v-2.59c0-.66,0-.71-.66-.82V103a9.51,9.51,0,0,0,2-.47v1.31c.5-.76.95-1.28,1.48-1.28a.69.69,0,0,1,.75.67,1.06,1.06,0,0,1-.54.9.31.31,0,0,1-.35-.05c-.19-.17-.35-.34-.55-.34s-.56.23-.79.74v2.27c0,.75.07.79.94.88Z"/><path class="cls-5" d="M38.5,77A38.5,38.5,0,1,1,77,38.5,38.54,38.54,0,0,1,38.5,77Zm0-74A35.5,35.5,0,1,0,74,38.5,35.54,35.54,0,0,0,38.5,3Z"/><path class="cls-4" d="M24.76,29.38c2.78,2.43,5.58,4.85,8.34,7.3s5.67,4.57,8.23,7.18c.37.38.75.3,1.26.2,2.47-.47,5-.86,7.45-1.29a32,32,0,0,1,4.38-1.32h0c1.1-.38,2.21-.75,3.3-1.15a1.13,1.13,0,0,0,.64-1.87c-1.31-2.16-2.25-4.51-3.51-6.69-.48-.83-.57-1.82-1.45-2.52C48.1,25,42.72,20.89,37.13,17.07a5.54,5.54,0,0,0-2.42-1.27v0a.35.35,0,0,1-.05.08c-.15,1,.81,1.3,1.38,1.74,4.72,3.62,9.32,7.39,14.07,11a9.9,9.9,0,0,1,2.67,2.46,24.52,24.52,0,0,0-4.58,1.22c-2.18,1-3.68.25-5.31-1.26-3.71-3.42-7.43-6.85-11.38-10-1.1-.88-2.26-1.69-3.45-2.67,1.91-.61,3.63-1.22,5.37-1.77a1.94,1.94,0,0,0,1.23-.67s0-.08,0-.12h0c-.07-.87-.58-.91-1.27-.68l-7,2.3a1,1,0,0,0-.61.53c-1.25,2.41-2.48,4.82-3.71,7.23a1,1,0,0,0,0,1.16A21.88,21.88,0,0,0,24.76,29.38Zm24.91,4.11a9.54,9.54,0,0,0,2.58-.57c1.47-.53,2.22,0,2.7,1.39s1.17,2.85,1.82,4.24c.23.48.29.69-.32.89A115.66,115.66,0,0,1,43.32,43c.67-2.4,2-4.29,2.58-6.42A3.65,3.65,0,0,1,49.67,33.49ZM23.72,24.43c.74-1.62,1.58-3.18,2.27-4.81.4-.93.73-.8,1.35-.24q6,5.46,12.11,10.88c1.47,1.31,3,2.56,4.48,3.83.48.42,1,.9,1.78.52l-3.87,7.82c-.3.07-.48-.26-.7-.45-5.41-4.84-11.06-9.38-16.63-14C22.77,26.52,22.78,26.47,23.72,24.43Z"/><path class="cls-4" d="M34.66,15.91a.35.35,0,0,0,.05-.08v0h0S34.67,15.87,34.66,15.91Z"/><path class="cls-4" d="M30.86,61a1.93,1.93,0,0,0,1.61.28c4.7-1.53,9.54-2.65,14.17-4.43.62-.23,1-.52.53-1.22a81.27,81.27,0,0,0-4.53-7.25,1.38,1.38,0,0,0-1.79-.51,61.47,61.47,0,0,0-5.73,2.27C34,50.6,33,51,32,49.79a5.3,5.3,0,0,0-1.24-.93c-5.87-4-11-9-17.1-13.26l6.88-3.45c.44-.22,1.2-.36.89-1s-.93-.2-1.37,0c-2.09,1-4.16,2.11-6.25,3.16a2.24,2.24,0,0,0-1.15,1.18c-.93,2.5-2.42,4.72-3.5,7.15-.33.77-.44,1.21.34,1.74a59.37,59.37,0,0,1,6.53,5.31A89.84,89.84,0,0,0,30.86,61Zm3-8.4a2,2,0,0,1,1.44-1.65c1.91-.6,3.81-1.27,5.68-2a.87.87,0,0,1,1.31.51c1,1.92,1.95,3.83,3,5.72.39.71.34,1-.52,1.22-3.64,1-7.3,2-10.86,3.28l-2.55.92C32.72,57.93,33.08,55.18,33.84,52.56ZM10.3,43.3c1.12-2.25,2.13-4.56,3.27-7l7.88,7A54.48,54.48,0,0,0,31.92,51c1,.52,1.12,1.1.73,2.11A49.3,49.3,0,0,0,31,58.42c-.27,1.08-.62.93-1.37.46A91.75,91.75,0,0,1,18.24,50.2a73.11,73.11,0,0,0-7.6-6C10.3,44,10,43.9,10.3,43.3Z"/><path class="cls-4" d="M63.41,44.54c-.69-1.21-1.44-1.21-2.62-.95-2.55.57-4.86,1.94-7.52,2.07-.35,0-.49.42-.59.73-1,3.4-2.69,6.56-3.49,10-.32,1.4-.09,1.74,1.28,1.38,3.65-1,7.29-2,10.93-3,2-.54,3.94-1,5.74-1.52.59.25,1,.19,1.16-.2s-.11-.83-.31-1.15C66.47,49.46,64.84,47.06,63.41,44.54Zm2,7.85a139.18,139.18,0,0,0-14.69,4.42c.48-2.66,1.61-5,2.12-7.4a3.5,3.5,0,0,1,3.42-3.19A33.18,33.18,0,0,0,61.38,45c.77-.22,1.09.06,1.41.68,1,1.9,2,3.81,3.07,5.66C66.27,52,66.13,52.18,65.37,52.39Z"/><path class="cls-4" d="M67.73,24.26c-1.8-.36-3.68-.61-4.09-3-.06-.38-.19-1.05-.78-1s-.49.69-.55,1a3.14,3.14,0,0,1-3.11,2.79,6.81,6.81,0,0,0-1.47.4c-.38.15-.83.31-.86.82s.49.62.85.75c2.51.91,4.36,2.37,4.52,5.28a1.35,1.35,0,0,0,.24.64c.09.15.28.23.4.32a.85.85,0,0,0,.75-.61,8.83,8.83,0,0,0,.69-2.11c.13-1.92,1.46-2.64,2.94-3.29.26-.11.51-.22.76-.35.41-.21.92-.43.88-1S68.25,24.36,67.73,24.26ZM63,30c-.5-2.14-1.29-3.86-3.61-4.42,1.81-.61,3.65-.89,3.51-3.45.19,2.32,2.18,2.33,3.72,3.1C64.57,26.2,62.94,27.38,63,30Z"/><polygon class="cls-6" points="7.33 18.59 16.8 18.59 21.54 10.38 16.8 2.18 7.33 2.18 2.59 10.38 7.33 18.59"/><text class="cls-7" transform="translate(5.19 14.81)">金</text><path class="cls-5" d="M140.9,77a38.5,38.5,0,1,1,38.5-38.5A38.54,38.54,0,0,1,140.9,77Zm0-74a35.5,35.5,0,1,0,35.5,35.5A35.53,35.53,0,0,0,140.9,3Z"/><path class="cls-4" d="M131.29,63.31c2,1.18,4.18,1.52,6.34,2.1a35,35,0,0,0,11.48,1.13c7-.48,13.45-7.29,10.6-15.73a21,21,0,0,0-6.5-9.08h0a1.23,1.23,0,0,1-1.19,0l-7.94-.85c-2.46.44-5,.09-7.43.56-2.86.54-2.87.47-3.84-2.3C131,33.78,131.42,27.5,136.7,23.7a11.38,11.38,0,0,0,2-2.07c1.2-1.48,2.23-3.07,1.93-5.12-.11-.75.29-.86.86-.85,1.22,0,2.44.05,3.67,0,1,0,2-.16.88-1.43-.3-.35,0-.41.08-.59,1-2.93.38-3.82-2.71-3.75h-.3c-2.59.11-2.83.38-2.6,2.93a3.73,3.73,0,0,1,0,.46c-.06.49.26,1.09-.17,1.44s-.71-.64-1.41-.34c1.17,1.95.64,3.71-.52,5.4a15.74,15.74,0,0,1-3.34,3.33,11.09,11.09,0,0,0-3.68,4.6c-1.83,4.75-1.74,9.34,1.23,13.67.16.24.71.5.32.83-.66.56-.94,1.4-1.72,1.9a12.45,12.45,0,0,0-3.47,3.61C123.91,53.49,125.33,59.74,131.29,63.31Zm10.81-52c.46,0,.92.09,1.37,0,1.08-.11,1.52.3,1.19,1.36-.17.55.18,1,.36,1.51h-1.27c-1.92.06-2.29-.37-2.3-2.35C141.45,11.26,141.77,11.29,142.1,11.28ZM128.33,49.6a12.69,12.69,0,0,1,6.45-6.22,12.29,12.29,0,0,1,5.69-1.13,41.42,41.42,0,0,1,11.91.81,2,2,0,0,1,.91.52A16.49,16.49,0,0,1,159,54.34a6.67,6.67,0,0,1-.45,3.27h0a8.49,8.49,0,0,1-2.29,4.07,7.72,7.72,0,0,1-6.37,3.41A37.21,37.21,0,0,1,141.3,65h0c-4-.29-7.79-1.27-10.88-4.11C127,57.74,126.17,53.78,128.33,49.6Z"/><path class="cls-4" d="M153.88,28.48a12.43,12.43,0,0,1,.59,12.08c-.25.16-.5.32-.75.46l-.46.64a4.57,4.57,0,0,0,3.16-3.5c.93-4.21.53-8.21-2.53-11.58a63.34,63.34,0,0,1-4.33-4.93,9.42,9.42,0,0,1-1.94-6.88,12,12,0,0,0,0-1.34,7.43,7.43,0,0,0-.54,6c.79,2.66,2.7,4.64,4.36,6.75h0C152.83,26.34,153.35,27.55,153.88,28.48Z"/><path class="cls-4" d="M154.11,40.47l-.39.55c.25-.14.5-.3.75-.46a12.43,12.43,0,0,0-.59-12.08c-.53-.93-1-2.14-2.42-2.29h0a18,18,0,0,1,1.69,1.92A12.29,12.29,0,0,1,154.11,40.47Z"/><polygon class="cls-8" points="109.77 18.59 119.25 18.59 123.99 10.38 119.25 2.18 109.77 2.18 105.03 10.38 109.77 18.59"/><text class="cls-9" transform="translate(107.74 15.4)">匏</text><path class="cls-5" d="M246.56,77a38.5,38.5,0,1,1,38.5-38.5A38.54,38.54,0,0,1,246.56,77Zm0-74a35.5,35.5,0,1,0,35.5,35.5A35.53,35.53,0,0,0,246.56,3Z"/><path class="cls-4" d="M223.69,41.4a9.3,9.3,0,0,0,5.69,1.31c1.5-.14,2.64-.86,2.65-2.57a.8.8,0,0,1,.68-.91A15.66,15.66,0,0,0,238.9,35a14.65,14.65,0,0,0,2-3.38,4.08,4.08,0,0,0,.23-2.1c-.11-.54-.22-1.27-.82-1.28-.78,0-.52.8-.59,1.28a9,9,0,0,1-3.56,5.5h0a14.78,14.78,0,0,1-7.92,4.17c.65.56,1.57.39,2.46.55a1.75,1.75,0,0,1-2,1.27c-.44,0-.88,0-1.32-.07-3.54-.5-4.3-1.49-3.75-5,.17-1.08.43-2.14.65-3.22a18.9,18.9,0,0,1,4.92-8.41,7.4,7.4,0,0,1,2.32-1.54c.78-.33,1.57-.71,1.83.61.1.48.54.53.93.44s.51-.53.52-.92c0-1.92.1-3.85,0-5.76,0-1.07.32-1.11,1.11-.69a9.85,9.85,0,0,1,2.76,2.3c.73.85.18,1.61.06,2.42-.08.5-.56,1.08.06,1.51.47.33.94.08,1.35-.25s.91,0,1.31.24c3.69,2.14,5,5.82,3.62,10a11.36,11.36,0,0,1-1.68,3.53h0c-1.6,3-3.73,5.32-7.25,6.22,3.2,1.16,4.59,2.31,4.57,5.12,0,3,.18,6,.33,9a4.76,4.76,0,0,0,.7,2.93,2.4,2.4,0,0,0,1-2.23c.08-2.92,0-5.83-.22-8.73-.18-2.47-.43-4.91-3.32-6.13,3.15-1.1,4.72-3.4,6.2-5.82,1.42-2.85,2.37-5.8,1.76-9.05a8.72,8.72,0,0,0-3.82-5.64c2.83-.33,12,3.12,14.94,5.55-1.76,1.64-3.53,3.27-5.27,4.92-.41.4-1.1.87-.5,1.49s1.06-.06,1.47-.47c1.49-1.47,3-2.89,4.42-4.44.75-.83,1.24-.87,2.12-.17,2.28,1.83,2.33,1.79.39,3.94-1.48,1.63-3,3.23-4.48,4.85-.44.49-1.08,1.06-.45,1.69s1.16-.11,1.55-.57c1.84-2.12,3.68-4.23,5.44-6.41.52-.64.85-.78,1.37-.11l.11.12c1.08,1.31,2.8,2.49,3.09,4s-2,2.19-3.07,3.36c-1.3,1.48-2.88,2.71-4.33,4.06-.43.41-1,.85-.49,1.51s1.1.15,1.54-.26c1.28-1.22,2.54-2.44,3.78-3.69a20.46,20.46,0,0,0,3.39-3.91A17.1,17.1,0,0,1,271,48.5c-.07.76-.44,1-1.17,1q-5.77,0-11.56.07c-.55,0-.74-.18-.82-.73a8,8,0,0,0-.55-1.53c-2.5-2.69-4.81-2.6-7.12.32-2.08,2.63-2.22,5.67-1.63,8.78.5,2.65,1.49,5.07,4.1,6.41.2-.89-.42-1.5-.79-2.16a13.38,13.38,0,0,1-1.62-9.36,6.28,6.28,0,0,1,1.63-3.17c1.91-2,4.3-1.58,5,1.15.33,1.35,1,1.47,2.07,1.5,3.89.12,7.75.73,11.73.37-.35,1.93-1.47,3.33-2.18,4.91a1,1,0,0,1-.66.75C264.26,62,259.33,64,253.65,64.7a3.68,3.68,0,0,1-1.94-.19,9,9,0,0,1-3.66-.85c-1.72-.72-3.47-1.38-5.24-2-4.53-1.5-9.14-2.43-13.94-1.58a3.39,3.39,0,0,0-2.7,1.55c.19.06.32.15.4.12,4.19-1.48,8.33-.71,12.49.24,3.38.78,6.52,2.27,9.9,3.07a16.84,16.84,0,0,0,12.45-1.38,24.47,24.47,0,0,0,5.16-3.8c4.47-4.24,7-9.31,6.16-15.62-.66-5.13-3.36-9.23-6.91-12.82a36.26,36.26,0,0,0-24.08-10.82c-.73-.05-.71-.34-.82-.86a7.07,7.07,0,0,0-5.35-5c-1.09-.16-2-.05-2.06,1.36-.06,1.21-.16,2.41-.24,3.61,0,.67-.19,1.07-1,1.12a7.64,7.64,0,0,0-5.2,2.89,20.48,20.48,0,0,0-5.27,14.35A3.76,3.76,0,0,0,223.69,41.4Z"/><path class="cls-4" d="M234,31.2H234c-.07-.76-.11-1.53-.2-2.29a1,1,0,0,0-.91-1c-.64,0-1.35.25-1.42.89a20,20,0,0,0-.06,4.09c.08.88,1,.94,1.7.9s1-.55.89-1.26C234,32.07,234,31.63,234,31.2Z"/><polygon class="cls-10" points="212.3 18.59 221.77 18.59 226.51 10.38 221.77 2.18 212.3 2.18 207.56 10.38 212.3 18.59"/><text class="cls-9" transform="translate(210.21 15.97)">革</text><path d="M132.75,104.72c-.7.11-.77.17-.77.94v1a6.69,6.69,0,0,0,.07,1.15,15.68,15.68,0,0,1-2.84.41c-2.78,0-4.42-1.71-4.42-4.09,0-2.64,2.15-4,4.65-4a16.82,16.82,0,0,1,2.45.28c0,.5.11,1.35.2,2l-.43.08a2.19,2.19,0,0,0-1.45-1.76,4,4,0,0,0-1.05-.14c-1.59,0-2.71,1.25-2.71,3.36s.82,3.79,2.92,3.79a1.77,1.77,0,0,0,.85-.18c.21-.12.33-.3.33-.71v-1c0-.86-.15-.94-1.21-1v-.41h3.41Z"/><path d="M136.55,102.55a2.63,2.63,0,0,1,2.7,2.7,2.76,2.76,0,1,1-5.52.16A2.81,2.81,0,0,1,136.55,102.55Zm-.15.46c-.59,0-1.15.6-1.15,2s.56,2.63,1.39,2.63c.56,0,1.1-.39,1.1-2.11C137.74,104,137.25,103,136.4,103Z"/><path d="M146,107.72a19.82,19.82,0,0,0-2.12.42v-.85a2.79,2.79,0,0,1-1.72.85c-.94,0-1.55-.59-1.55-1.74V104c0-.58-.08-.65-.39-.72l-.29-.07v-.36a20.34,20.34,0,0,0,2.05-.21c0,.46,0,1.07,0,1.79v1.71c0,.88.45,1.15.91,1.15a1.38,1.38,0,0,0,1-.42V104c0-.59-.09-.68-.45-.74l-.37-.06v-.36a21.68,21.68,0,0,0,2.16-.21v4c0,.61.08.73.49.76l.29,0Z"/><path d="M149.64,108h-3v-.38c.68-.08.74-.13.74-.87v-2.59c0-.66-.05-.71-.66-.82V103a9.51,9.51,0,0,0,2-.47v1.31c.49-.76,1-1.28,1.48-1.28a.69.69,0,0,1,.75.67,1.06,1.06,0,0,1-.54.9.31.31,0,0,1-.35-.05c-.2-.17-.35-.34-.56-.34s-.55.23-.78.74v2.27c0,.75.07.79.94.88Z"/><path d="M157.37,107.69a17.68,17.68,0,0,0-2.18.46v-.72c-.21.14-.52.31-.73.45a1.42,1.42,0,0,1-.72.26,2.55,2.55,0,0,1-2.39-2.65,3.09,3.09,0,0,1,3.25-2.94,2.43,2.43,0,0,1,.59.07v-1.51c0-.68-.06-.73-.85-.82v-.37a15,15,0,0,0,2.2-.4v7c0,.64.08.71.53.76l.3,0Zm-2.18-4a1.1,1.1,0,0,0-1-.6c-.44,0-1.32.3-1.32,2,0,1.53.88,2.17,1.5,2.18a1.51,1.51,0,0,0,.84-.28Z"/><path class="cls-5" d="M345.4,77a38.5,38.5,0,1,1,38.5-38.5A38.54,38.54,0,0,1,345.4,77Zm0-74a35.5,35.5,0,1,0,35.5,35.5A35.53,35.53,0,0,0,345.4,3Z"/><path class="cls-4" d="M349.5,67.7a8.17,8.17,0,0,0,2.14.16c.33,0,.76,0,.78-.42S352,67,351.7,67a5.26,5.26,0,0,1-.85.09,17.08,17.08,0,0,0-4,.23,18.12,18.12,0,0,1-4.88-.06,3.18,3.18,0,0,1-.48-.28c-4.1.29-4.1.19-4.05-4.06,0-1.54,0-3.09,0-4.62.14-4.19,2.58-6.66,6.23-8.17a15,15,0,0,1,1.6-.54c.2-.16.41-.31.63-.46,1.6-.87,3.41-1.28,4.94-2.36a6.88,6.88,0,0,0,3-7.78c-1.07-4.56-4.86-7.44-10-7.61-.87,0-1.73,0-2.6,0-.66,0-1.52.2-1.83-.52a1.85,1.85,0,0,1,.63-2.2h0a3.76,3.76,0,0,0-3.4-3.51c-.38-.05-.4-.27-.45-.59-.42-2.55-1.4-3.33-4-3.22-.39,0-.85.36-1.17-.18-1.35-2.25-3.57-2.38-5.83-2.37-2.63,0-4,1.41-3.74,4,.06.74-.12.86-.78,1a4.69,4.69,0,0,0-3.41,2.66c-1.17,2.25.81,5.64,3.29,5.75,4.45.19,8.89.41,13.33.63a6.53,6.53,0,0,0,3.56-.37c1.56-.9,3.15-.65,4.73-.52a14.18,14.18,0,0,1,7.35,2.35,7.51,7.51,0,0,1,3.33,7.27c-.36,3-2.57,4.66-5.35,5.91.19-1.3.14-2.46-1-2.92a2.32,2.32,0,0,1-1.5-2,3.44,3.44,0,0,0-2.92-2.82c-2-.25-3.27.29-4.1,1.94-.28.56-.44.52-.92.28-1.39-.65-2.15-.35-2.7,1.08a1.44,1.44,0,0,1-.9.95c-1.62.69-2.25,2.18-1.83,4.11.35,1.6,1.66,1.7,2.93,1.78,1.5.08,3,.05,4.5.11.44,0,.95-.2,1.5.44a5.36,5.36,0,0,0-.54.26,8.52,8.52,0,0,0-3.9,6.45c-.39,2.52.14,5,0,7.52-.14,2.85-.2,3,2.5,3.33a36.71,36.71,0,0,0,8.95.2C348.06,67.32,348.82,67.5,349.5,67.7ZM338.39,29.93c-.69,2.07-1.4,2.37-3.52,1.87-3-.69-6.05-.46-9.08-.56h0c-1.49.05-3,.05-4.47.15s-2.1-1-2.78-1.94a2.46,2.46,0,0,1,0-2.85c.95-1.6,2.18-2.05,4.84-1.82,0-.09.08-.22,0-.26a2.93,2.93,0,0,1-.78-3.29c.56-1.33,1.83-1.52,3-1.53,1.7,0,3.4.16,4.57,1.67.16.71.36,1.32,1.32.87a1.76,1.76,0,0,1,.86,0,2.59,2.59,0,0,1,2.47,1.2,2.1,2.1,0,0,1-.63,2.48.55.55,0,0,0,.75.23c1.31-.74,2.22,0,3.05.82A2.79,2.79,0,0,1,338.39,29.93Zm-2.75,19c-.93,0-1.9.38-2.79-.21h0a5.33,5.33,0,0,1-.14-2.14,1.83,1.83,0,0,1,.92-1.55c.7-.44.69.66,1.4.63,0-.61,0-1.25.1-1.88.17-1.17.84-1.54,1.79-.89s1.17.42,1.47-.53A2.62,2.62,0,0,1,341,40.51c1.23-.06,2.29.18,2.77,1.51a.84.84,0,0,1,.4.73c.12,1.09.33,2,1.65,2.33.83.22.93,1.14.75,2a1.71,1.71,0,0,1-1.7,1.49C341.82,48.68,338.73,48.83,335.64,48.92Z"/><path class="cls-4" d="M339.4,30.85c.31.72,1.17.49,1.83.52.87,0,1.73,0,2.6,0,5.16.17,8.95,3.05,10,7.61a6.88,6.88,0,0,1-3,7.78c-1.53,1.08-3.34,1.49-4.94,2.36-.22.15-.43.3-.63.46.28-.09.57-.17.85-.27h0A19.3,19.3,0,0,0,351,47.16a7.39,7.39,0,0,0,3.29-4.41,9.65,9.65,0,0,0-7.06-11.21c-2.52-.7-5.07-.55-7.71-.58.19-.82.37-1.56.54-2.31h0A1.85,1.85,0,0,0,339.4,30.85Z"/><path class="cls-4" d="M372.16,21.82c-.58-.2-1.05-.26-1-1.08A2.48,2.48,0,0,0,369.26,18a2.81,2.81,0,0,0-3.36,1.35c-.31.52-.46.5-.94.17-1.93-1.33-3.38-.83-4,1.45-.19.7-.43.83-1.06.73a2.73,2.73,0,0,0-2.79,1.1c-1.88,2.45-.51,5.53,2.71,6-.53,1.2-1.05,2.4-1.61,3.69a12,12,0,0,0-6-3.26,37.53,37.53,0,0,0-11.82-.55h0a12.26,12.26,0,0,0,4.13.4c4.65.19,9.09,1,13.06,3.6,1.08.71,1.32.55,1.66-.72a4,4,0,0,1,.48-1.5,1.81,1.81,0,0,1,.37-.24l.33-1.35h0l.14-.06-.18-.15a1.71,1.71,0,0,1,1.35-.4c1.59-.05,2,.33,1.61,1.84-.77,3.12-.32,6.36-1,9.49-1.12,4.84-2.84,9.48-6.56,12.83a12.76,12.76,0,0,0-4.13,8.44,11,11,0,0,0,.49,4.57c.22.8.27,1.2,0,1.41.31,0,.57.1.58.55a.61.61,0,0,1-.09.39c.5-.38.47-1.14.19-2.63a3.31,3.31,0,0,1-.12-.42c-.05-4.11-.67-8.4,3.55-11.15a5.52,5.52,0,0,0,1-1,24.68,24.68,0,0,0,6.34-15.8c.12-2.32-.08-4.64.25-7,.11-.74.3-1.09,1.16-1.08,1.88.05,3.77,0,5.66-.09a4.9,4.9,0,0,0,3.84-2.24C375.59,24.83,374.42,22.59,372.16,21.82Zm1.34,3.54a2.77,2.77,0,0,1-3,2c-2.61-.38-5.21.23-7.81.14h0c-1.19.18-2.38.38-3.58.52-.8.1-1.91-1.85-1.75-3A2.49,2.49,0,0,1,360,22.65c.85,0,1.5-.1,1.67-1.13a1.84,1.84,0,0,1,1.51-1.74c.92-.09,1.41.66,1.81,1.39.33,0,.75.67,1-.16a2.64,2.64,0,0,1,.49-.88c.55-.79,1.2-1.46,2.27-1.17a2,2,0,0,1,1.56,2.17c0,1.06.31,1.38,1.32,1.58A2.33,2.33,0,0,1,373.5,25.36Z"/><path class="cls-4" d="M341.53,29.24c1.87.15,3.75.27,5.63.44a20.87,20.87,0,0,1,10.44,3.54c1.38,1,1.59.77,1.91-.85.12-.66.33-1.3.49-1.95h0l.05-.19a1.81,1.81,0,0,0-.37.24,4,4,0,0,0-.48,1.5c-.34,1.27-.58,1.43-1.66.72-4-2.63-8.41-3.41-13.06-3.6a12.26,12.26,0,0,1-4.13-.4C340.51,29.37,341.08,29.2,341.53,29.24Z"/><polygon class="cls-11" points="313.18 18.59 322.66 18.59 327.4 10.38 322.66 2.18 313.18 2.18 308.44 10.38 313.18 18.59"/><text class="cls-9" transform="translate(311.15 15.43)">木</text><path d="M342,100.61c-.86.11-1,.26-1.33,1.25s-1.27,3.93-2,6.27h-.58c-.61-1.78-1.34-3.74-2-5.53-.65,1.9-1.29,3.76-1.87,5.53h-.59c-.53-1.82-1.26-4.22-1.93-6.33-.3-.93-.46-1.11-1.21-1.19v-.41h3.39v.41c-.9.09-.92.25-.75.87.42,1.46.86,2.93,1.29,4.37.63-1.76,1.25-3.67,1.83-5.57h.54c.67,1.91,1.35,3.73,2,5.58.46-1.4,1.08-3.45,1.28-4.25s.06-.9-1-1v-.41H342Z"/><path d="M344.12,102.55a2.63,2.63,0,0,1,2.7,2.7,2.76,2.76,0,1,1-5.51.16A2.8,2.8,0,0,1,344.12,102.55ZM344,103c-.59,0-1.15.6-1.15,2s.56,2.63,1.39,2.63c.56,0,1.1-.39,1.1-2.11C345.31,104,344.83,103,344,103Z"/><path d="M350.54,102.55a2.63,2.63,0,0,1,2.7,2.7,2.76,2.76,0,1,1-5.51.16A2.8,2.8,0,0,1,350.54,102.55Zm-.15.46c-.59,0-1.15.6-1.15,2s.56,2.63,1.39,2.63c.56,0,1.1-.39,1.1-2.11C351.73,104,351.25,103,350.39,103Z"/><path d="M360.17,107.69a17,17,0,0,0-2.18.46v-.72l-.74.45a1.37,1.37,0,0,1-.72.26,2.54,2.54,0,0,1-2.38-2.65,3.08,3.08,0,0,1,3.24-2.94,2.45,2.45,0,0,1,.6.07v-1.51c0-.68-.07-.73-.85-.82v-.37a14.85,14.85,0,0,0,2.19-.4v7c0,.64.08.71.53.76l.31,0Zm-2.18-4a1.11,1.11,0,0,0-1-.6c-.44,0-1.32.3-1.32,2,0,1.53.89,2.17,1.51,2.18A1.51,1.51,0,0,0,358,107Z"/><path class="cls-5" d="M39.87,220a38.5,38.5,0,1,1,38.5-38.5A38.54,38.54,0,0,1,39.87,220Zm0-74a35.5,35.5,0,1,0,35.5,35.5A35.53,35.53,0,0,0,39.87,146Z"/><path class="cls-4" d="M63.45,189.64a.69.69,0,0,1,.24-.31c.55-.29.63-.43.37-.81a1.73,1.73,0,0,0-1.47-.74,9.9,9.9,0,0,0-3.11.37,24.39,24.39,0,0,0-8.37,3.65c-.19-3.42-.16-6.75-.21-10.08a1.72,1.72,0,0,1,1-1.93c.88-.41,1.71-1,.93-2.2-1.27-1.08-.2-1.41.58-1.82h0c.54-1.07-.16-1.6-.94-2a2.61,2.61,0,0,1-1.36-2.7c.27-6,.44-12,.66-18,0-1-.25-1.12-1.13-.62-2.26,1.31-4.57,2.55-6.88,3.77-1,.54-1.84.62-2.51-.7-1.75-3.42-6.82-5.89-10.65-5.42-1.24.14-1.4.7-.89,1.68.18.34.36.68.56,1a13.89,13.89,0,0,0,8.54,6.58l-1.17.46a9.84,9.84,0,0,0-5.1,4.76c-.4.81-.49,1.39.79,1.64a8.57,8.57,0,0,0,7.73-1.92c.22-.18.35-.63.88-.32a27,27,0,0,0,.43,6.34,2.59,2.59,0,0,1-1.54,3.27c-1.38.73-1.38,1.5-.36,2.77.2.24.48.29.15.76a1.74,1.74,0,0,0,.66,2.83,1.27,1.27,0,0,1,.83,1.3q-.2,4.65-.16,9.3c0,2.55.07,5-1.78,7.12a1.5,1.5,0,0,0,.47,2.52c.19.12.48.2.12.6-1.24,1.39-1.19,1.71.5,2.69a1.52,1.52,0,0,1,.84,1.67,52.35,52.35,0,0,0,0,6.86c.08,1.11.54,1.52,1.55,1.53,1.63,0,3.25.06,4.87.07s2.45-.75,2.34-2.39c-.14-2.14-.37-4.27-.6-6.4A1.59,1.59,0,0,1,51,203a2.35,2.35,0,0,0,1.22-2.54l-1.9-1.16c.61-.64,1.1-.89,1.54.12a5.08,5.08,0,0,0,.77,1h0A12.41,12.41,0,0,0,62.31,203c.84-.12,1.34-.08,1.85.63.43-4.53-2.6-6.55-6.13-8.3C60.33,193.76,62.35,192.13,63.45,189.64ZM37,157.24c-3-1.24-5.09-3.53-7-6.3a12.54,12.54,0,0,1,8.85,3.61c.91.91,2.16,2.31,1.57,3.22S38.09,157.71,37,157.24Zm4,5.56a9,9,0,0,1-5.57,2.6c-.66,0-1.32,0-2.24,0a11.06,11.06,0,0,1,7.51-5.32c.36-.08.53,0,.62.33C41.47,161.26,41.72,162.08,40.93,162.8Zm.3,12.31c-.26-.55.55-.84,1-1,1.5-.63,1.79-1.69,1.63-3.21-.4-3.69-.68-7.38-.85-11.09-.1-2.15-.23-2.14,1.92-2.92a33,33,0,0,0,5.92-3.51c-.19,2.1-.31,4-.52,5.81a70.81,70.81,0,0,0-.27,10.7c0,1.77-.15,3.81,1.9,4.87-2.5,2.13-5.4,1.25-8.15,1.33h0a6.62,6.62,0,0,1-1,.09A1.94,1.94,0,0,1,41.23,175.11Zm9.27,26.81a2.1,2.1,0,0,0-1.16,2.4c.27,2,.3,4.07.38,6.11,0,.57.26,1.22-.23,1.74H47.18l-1.7,0h0c-2.25.21-2.25.21-2.32-2.1,0-1.76-.14-3.52-.15-5.27,0-1.12-.21-2-1.45-2.36-.24-.07-.43-.33-.74-.6,1.08-.66,2.44-.45,3.21-1.46,1.34-.54,2.78.16,4.12-.25a3.19,3.19,0,0,1,2.15.24C51.49,200.82,51.34,201.42,50.5,201.92Zm0-4.26A5.65,5.65,0,0,1,46.31,199h0a10.9,10.9,0,0,1-5.11,0c-.5-1.18.53-1.79,1.07-2.48a3.77,3.77,0,0,0,.93-2.44c-.05-4.65-.11-9.31-.15-14,0-.61-.37-.77-.82-1s-1-.4-.82-1,.79-.68,1.27-.6c1,.16,1.83-.57,2.79-.28,1.76.09,3.51.21,5.27.27.6,0,1.14.23,1.22.75s-.57.69-.94.66c-1-.05-.75.66-.77,1.15-.22,4-.33,7.91-.19,11.87.06,1.72-.78,3.63.86,5.13C51.23,197.38,50.72,197.49,50.53,197.66Zm8.56-.56A10.58,10.58,0,0,1,63,201.61a13,13,0,0,1-9.78-2.06c-.54-.39-1-.83-.8-1.51s-.14-1.07-.76-1.67C54.36,196.65,56.8,195.36,59.09,197.1ZM58,193.66a9.3,9.3,0,0,1-5.4,1.58c-.46,0-1.25.36-1.34-.31s-.32-1.73.6-2.32c3.35-2.16,7.09-3.08,11.39-3.67C61.22,190.67,59.88,192.46,58,193.66Z"/><path class="cls-4" d="M35.91,207.77c-.68-.27-.73-.72-.69-1.36a88,88,0,0,0,.14-10,1.52,1.52,0,0,1,.81-1.62c1-.59,1-1.25,0-1.95a4.38,4.38,0,0,0-1.41-.56A4,4,0,0,1,35.87,191a.66.66,0,0,0,.12-1.1c-.73-.57-.62-1.32-.61-2.06,0-2.72,0-5.44,0-8.16a1.13,1.13,0,0,1,.67-1.23c1.05-.51,1-1.49.67-2.36s-.69-1.59-1.9-1.52c-2.7.15-5.41.12-8.12.21-1,0-1.23.95-1.56,1.66a1.07,1.07,0,0,0,.56,1.56c.92.32.86,1,.85,1.7,0,2-.06,3.92-.09,5.87,0,.62-.07,1.24,0,1.86,0,1-.6,1.24-1.34,1.35s-.4-.65-.55-1a4.11,4.11,0,0,0-1-1.55,12.23,12.23,0,0,0-9.39-3c-1.77.19-1.8.37-1,1.88a9.9,9.9,0,0,0,2.26,2.73,29.56,29.56,0,0,0,3.64,2.23c.63-.15,1.17.24,1.77.32.26,0,.68,0,.69.31s-.35.52-.7.56h0c-.48.5-1,1-1.44,1.51-.81,1-1.83,1.89-1.73,3.36a.67.67,0,0,0,.79-.44c1.38-2.54,3.86-3.83,6.08-5.43.15-.1.31-.26.5-.12s.22.49.12.76a7.89,7.89,0,0,1-2.46,3.59,8,8,0,0,1-4.23,2.13h0c-.17.2-.5.43-.47.61,0,.33.43.29.69.26.6-.06,1.19-.18,1.79-.28h0a10.51,10.51,0,0,0,4-2.69c.44-.52.67-.32.88.16h0c.52.37,1.48.28,1.37,1.31-.39,3.59.18,7.14.35,10.71.05,1.09,0,1.88-1.26,2.21a1.39,1.39,0,0,0-1,1.45c0,.62.59.77,1.09,1a19.93,19.93,0,0,0,9.12,1,2.31,2.31,0,0,0,2-2.13A2.06,2.06,0,0,0,35.91,207.77ZM13.79,184.14c4,.36,7.64,1.4,10.23,4.89C20.41,189.79,14.77,187.09,13.79,184.14Zm13.13,4.7a1.67,1.67,0,0,0,.66-1.6c-.06-3-.12-5.89-.15-8.83,0-.48-.05-.74-.58-.94-1.23-.46-1.22-.81,0-1.71,2.79-.45,5.59.24,8.38,0,.44,0,.57.26.67.59a.82.82,0,0,1-.39,1.1,1.52,1.52,0,0,0-.89,1.48c-.09,2.86-.23,5.71-.34,8.56,0,1-.23,2.06,1.09,2.59-2,1.52-4.18,1-6.21,1.14h0A2.77,2.77,0,0,1,27.2,191C25.84,190.26,25.72,189.74,26.92,188.84ZM36,210a2,2,0,0,1-1.71,1.31c-1,.09-2.08,0-3.12,0h0c-1.62.33-3.08-.37-4.59-.72-.21,0-.51-.08-.54-.38a.54.54,0,0,1,.51-.58c1.32-.24,1.62-1.24,1.64-2.32.08-4-.67-7.88-.55-11.85,0-.46-.37-.74-.66-1.05s-1.18-.17-.91-.83a1.88,1.88,0,0,1,1.53-1.15c.7-.07,1.42,0,2.14,0,1.37-.05,2.74-.18,4.11-.12.94,0,1.55.79,2.38,1.54-1.44.12-1.74,1-1.85,2h0q0,3.15-.1,6.28c0,1.14-.1,2.27-.17,3.4s-.26,2.44,1.33,3A1.05,1.05,0,0,1,36,210Z"/><polygon class="cls-12" points="8.7 162.29 18.17 162.29 22.91 154.08 18.17 145.87 8.7 145.87 3.96 154.08 8.7 162.29"/><text class="cls-13" transform="translate(6.56 158.51)">竹</text><path d="M23.63,248.73c1.23.22,2.13.8,2.13,2a2.11,2.11,0,0,1-1.15,1.83,4.48,4.48,0,0,1-2.21.49H19.18v-.41c1-.09,1-.17,1-1.15v-4.66c0-1-.14-1.1-1-1.17v-.41h3.47a3.44,3.44,0,0,1,1.92.42,1.55,1.55,0,0,1,.73,1.34A1.94,1.94,0,0,1,23.63,248.73Zm-1.47-.15c1.2,0,1.67-.5,1.67-1.43a1.35,1.35,0,0,0-1.46-1.45,1.17,1.17,0,0,0-.6.1c-.12.08-.13.2-.13.5v2.28Zm-.52,2.83c0,.86.33,1.11,1.05,1.1a1.53,1.53,0,0,0,1.5-1.72c0-1.18-.69-1.73-2.07-1.73h-.48Z"/><path d="M30.66,253.14a1,1,0,0,1-.68-.24,1.2,1.2,0,0,1-.3-.48,4.12,4.12,0,0,1-1.33.72,1.54,1.54,0,0,1-1.57-1.52c0-.62.29-.94.94-1.18a9.8,9.8,0,0,0,1.92-.79v-.43c0-.7-.3-1.1-.86-1.1a.61.61,0,0,0-.5.26,2.35,2.35,0,0,0-.3.78.43.43,0,0,1-.46.36.68.68,0,0,1-.65-.59c0-.2.15-.35.41-.53a5.9,5.9,0,0,1,1.86-.85,2,2,0,0,1,1.15.34,1.65,1.65,0,0,1,.65,1.45v2.16c0,.56.19.72.39.72a1,1,0,0,0,.39-.11l.13.38Zm-1-3-.83.42c-.4.19-.64.41-.64.83a.84.84,0,0,0,.78.92,1,1,0,0,0,.69-.28Z"/><path d="M38.9,253v-.38c.56-.08.65-.12.65-.89v-2c0-1-.41-1.25-.91-1.25a1.62,1.62,0,0,0-1,.46c0,.14,0,.31,0,.51v2.39c0,.7.07.75.65.83V253H35.62v-.38c.61-.08.67-.11.67-.84v-2.15c0-.86-.31-1.21-.85-1.21a1.79,1.79,0,0,0-1.07.45v2.91c0,.71.08.76.61.84V253H32.29v-.38c.7-.08.75-.13.75-.87v-2.53c0-.7,0-.79-.62-.89V248a10.74,10.74,0,0,0,1.95-.46v.92c.26-.18.49-.36.79-.54a1.83,1.83,0,0,1,1-.35,1.38,1.38,0,0,1,1.33.94l.87-.62a1.83,1.83,0,0,1,1-.32c1,0,1.56.7,1.56,1.9v2.33c0,.71.07.75.69.84V253Z"/><path d="M44.66,247.74a1.91,1.91,0,0,1,.74-.19,2.45,2.45,0,0,1,2.41,2.54,3.08,3.08,0,0,1-3.08,3,5.27,5.27,0,0,1-2-.43c0-.29,0-.63,0-.93v-5.64c0-.7-.06-.79-.77-.84v-.38a13.77,13.77,0,0,0,2.11-.4V248ZM44,251.66a1.18,1.18,0,0,0,.06.41,1.15,1.15,0,0,0,1,.58c.78,0,1.26-.77,1.26-2.2s-.78-2.15-1.59-2.15a1.74,1.74,0,0,0-.7.14Z"/><path d="M51.52,247.55a2.64,2.64,0,0,1,2.71,2.7,2.76,2.76,0,1,1-5.52.16A2.8,2.8,0,0,1,51.52,247.55Zm-.14.46c-.59,0-1.15.6-1.15,2s.55,2.63,1.39,2.63c.55,0,1.09-.39,1.09-2.11C52.71,249,52.23,248,51.38,248Z"/><path d="M57.94,247.55a2.64,2.64,0,0,1,2.71,2.7,2.76,2.76,0,1,1-5.52.16A2.8,2.8,0,0,1,57.94,247.55Zm-.14.46c-.59,0-1.15.6-1.15,2s.55,2.63,1.39,2.63c.55,0,1.09-.39,1.09-2.11C59.13,249,58.65,248,57.8,248Z"/><path class="cls-5" d="M140.41,220a38.5,38.5,0,1,1,38.5-38.5A38.54,38.54,0,0,1,140.41,220Zm0-74a35.5,35.5,0,1,0,35.5,35.5A35.53,35.53,0,0,0,140.41,146Z"/><path class="cls-14" d="M151.14,195.57a33.39,33.39,0,0,0,.36-7.33c-.13-7-.12-14.05-.39-21.07-.17-4.45-1.1-5.89-4.63-7.45a11.7,11.7,0,0,0-3-.93c-.66-.1-.76-.26-.75-.93,0-.82.49-1.91-.62-2.4-3.05-1.34-6.17-2.08-9.45-.78-.59.23-1.26.51-1.15,1.24.29,1.85-.67,2.54-2.28,2.94A8.92,8.92,0,0,0,127,160a6.2,6.2,0,0,0-3.24,5.68c-.09,7.6-.39,15.2-.55,22.8a35.58,35.58,0,0,0,0,5.93c.68,4.67,4.4,8.16,8.51,7.94l.6,0h0a63.15,63.15,0,0,0,7.66-.05c.77-.46,1.6-.17,2.41-.19h0a6.5,6.5,0,0,0,2.62-.39A7.21,7.21,0,0,0,151.14,195.57Zm-18-40a9.9,9.9,0,0,1,3.21-.25c1.75-.18,3.27.66,4.84,1.2,1,.35.28,1.29.61,2.14-1.8-.74-3.52-.43-5.15-.79-1.29.74-2.53-.24-3.82-.19-.38,0-.35-1-.43-1.5S132.73,155.66,133.1,155.59Zm-6.61,6c2.73-1.81,5.62-3,9-2.61,3.14.39,6.37.25,9.4,1.37a12.24,12.24,0,0,1,3.2,1.78,4.48,4.48,0,0,1,1.51,1.83c.56,1.39.42,1.54-1.06,1.54-7.9,0-15.74.46-23.55,2.69,0-1.46,0-2.83,0-4.19A2.75,2.75,0,0,1,126.49,161.63Zm-.86,7.2a43.71,43.71,0,0,1,4.69-.79A74.78,74.78,0,0,1,141.4,167c2.49-.15,5-.17,7.48-.33.79,0,1.08.08,1,.94a42.6,42.6,0,0,0,0,4.52c.07,1.1-.23,1.49-1.38,1.33-3.87-.54-7.75-1-11.62-1.5l-6.31-.76h0l-4.76,0c-.47,0-1.06.08-.9-.65C125.1,169.92,124.45,169.06,125.63,168.83Zm-.74,3.56c0-.74.45-.62.93-.66,1.56-.16,3,.7,4.55.58a69.4,69.4,0,0,1,9,1.22c3.29.48,6.58.94,9.93,1.18a29.07,29.07,0,0,1-5.81,2.34l-13.37,4.06h0L125.52,183c-.55.23-.86.18-.84-.55Q124.83,177.4,124.89,172.39Zm-.28,14.07a.61.61,0,0,0,0-.14c0-2.3,0-2.31,2.19-3,.89-.29,1.79-.52,2.69-.78,4.35-1.55,8.84-2.62,13.25-3.93,2.44-.72,4.89-1.37,6.92-3.09.14.2.27.31.27.41.08,3.11.13,6.23.23,9.34,0,.81-.16,1.12-1,.87a12.1,12.1,0,0,0-3.8-.15c-5.28.16-10.56.1-15.83.49h0c-1.39.22-2.79.38-4.16.67C124.66,187.27,124.52,187.07,124.61,186.46Zm-.16,3.73c.1-2.61.1-2.61,2.73-2.61a29.11,29.11,0,0,1,6-.3c4.38-.07,8.77.07,13.14-.23a7.67,7.67,0,0,0,2.37-.32c1.44-.59,1.54.1,1.49,1.23-.05,1.45,0,2.9,0,4.46a9.57,9.57,0,0,0-3.32-.31c-7.31.27-14.58-.73-21.89-.53-.22,0-.49.07-.54-.27h0C124.46,190.94,124.44,190.56,124.45,190.19ZM144,200.87c-1.92.17-3.86.23-5.79.33l-5.47.31a8.21,8.21,0,0,1-8.42-8.31c.06-1,.45-1,1.21-.94a178.79,178.79,0,0,0,19.91,1,16.08,16.08,0,0,0,3.92-.42c.77-.22.82.06.89.71a5.88,5.88,0,0,1-1,3.56A6.5,6.5,0,0,1,144,200.87Z"/><path class="cls-15" d="M165.68,187.12c-.28-.2-.5.08-.7.28-1,1-2.08,2.06-3.14,3.06a175.92,175.92,0,0,0-15.06,15.71,9.27,9.27,0,0,0-1.65,3.58c-.09,1.7.83,2.44,2.28,2a7.73,7.73,0,0,0,3.9-2.67c4.72-6.25,9.12-12.71,13.37-19.28a18.62,18.62,0,0,0,1-1.86C165.82,187.65,166,187.31,165.68,187.12Zm-6.06,8.22L151.1,207.5h0a15.1,15.1,0,0,1-3.86,2.93c-.82.45-1.15,0-1-.79a6.12,6.12,0,0,1,2.24-3.64c3.48-3.78,7.13-7.41,10.8-11a3.63,3.63,0,0,1,1.74-1.42Z"/><path class="cls-16" d="M141.65,202.72c.19,1,.13,2-1.24,2.41a11.42,11.42,0,0,1-5.82.38h0c-1.83,0-1.84,0-2.19-2.79a1.19,1.19,0,0,1-.66-.33,6.33,6.33,0,0,0-.22,2.08c0,.52-.05,1,.6,1.27a13.81,13.81,0,0,0,7,1.08c3-.43,3.65-1.4,3.2-4.42,0-.09,0-.18.06-.27a2.17,2.17,0,0,1-.87.31A.67.67,0,0,1,141.65,202.72Z"/><polygon class="cls-17" points="109.28 161.26 118.76 161.26 123.5 153.05 118.76 144.84 109.28 144.84 104.54 153.05 109.28 161.26"/><text class="cls-9" transform="translate(107.25 158.07)">丝</text><path d="M135.57,247.13c-.23-.78-.56-1.62-1.68-1.62a1.14,1.14,0,0,0-1.19,1.21c0,.72.48,1.13,1.51,1.65,1.34.67,2.09,1.27,2.09,2.44a2.52,2.52,0,0,1-2.8,2.37,6.15,6.15,0,0,1-2-.38c-.08-.3-.26-1.39-.34-2l.43-.1c.24.77.86,2,2.06,2a1.18,1.18,0,0,0,1.25-1.28c0-.78-.45-1.17-1.47-1.72-1.25-.68-2-1.27-2-2.47s.95-2.19,2.67-2.19a8.48,8.48,0,0,1,1.67.22c.05.44.12,1,.21,1.77Z"/><path d="M137.14,253v-.38c.69-.08.77-.13.77-1v-2.39c0-.78-.06-.83-.67-.92V248a11,11,0,0,0,2-.44v4.11c0,.81.06.89.79,1V253Zm1.35-6.35a.8.8,0,0,1-.78-.78.78.78,0,0,1,.79-.78.77.77,0,0,1,.78.78A.79.79,0,0,1,138.49,246.65Z"/><path d="M140.52,253v-.38c.71-.1.76-.16.76-.93v-5.55c0-.67-.07-.74-.74-.86v-.36a11,11,0,0,0,2.08-.4v7.17c0,.8,0,.85.76.93V253Z"/><path d="M150.12,253c-.84,0-1.61,0-2,0l-1.72-2.38c-.13-.16-.2-.22-.27-.23H146v1.3c0,.79.06.82.75.91V253H143.9v-.38c.69-.09.75-.14.75-.91v-5.56c0-.7-.06-.74-.74-.87v-.36a8.92,8.92,0,0,0,2.08-.4v5.55a1.45,1.45,0,0,0,.71-.45,8,8,0,0,0,.89-1.08c.18-.29,0-.41-.47-.47v-.37l2.53-.1V248a2.23,2.23,0,0,0-1.56.74c-.2.2-.56.63-.87,1,.28.42,1.44,1.9,1.8,2.31a1.39,1.39,0,0,0,1.1.62Z"/><path class="cls-1" d="M259.39,195.53a1.34,1.34,0,1,1-1.34-1.33A1.34,1.34,0,0,1,259.39,195.53Z"/><path class="cls-5" d="M246,220a38.5,38.5,0,1,1,38.5-38.5A38.54,38.54,0,0,1,246,220Zm0-74a35.5,35.5,0,1,0,35.5,35.5A35.54,35.54,0,0,0,246,146Z"/><path class="cls-18" d="M275.69,180.7c.13-.56-.35-.82-.9-.9-2-.32-4.07-.69-6.11-1-1.89-.27-3.76-.43-4.46,2-.08.27-.39.48-.53.74a2.05,2.05,0,0,1-2.16,1.09,72.36,72.36,0,0,0-8.95.3c-1.17.11-1.17.12-1.5-1.12h1.31c3,0,6.06.22,9.05-.5,1.36-.33,1.5-.54,1.12-1.77-.07-.22.09-.3.17-.44.28-.47.08-.92,0-1.39-.53-2.63-1.81-5-2.65-7.49-.49-1.48-1.3-2.46-2.84-2.37-2.35.14-2.83-1.2-3.06-3.13-.21-1.77-.74-2.19-2.46-2.34a36,36,0,0,1-7.79-1.16,1.66,1.66,0,0,0-2.2,1.1,29.2,29.2,0,0,1-2.45,4.49c-.55.81-1,1.06-1.86.45A7.35,7.35,0,0,0,229,167c-3,1.67-6.28,2.65-9.12,4.56a1.7,1.7,0,0,0,1.14.4,1,1,0,0,1,1-.3q5.75.66,11.46,1.56a2.19,2.19,0,0,1,.48.26,2.36,2.36,0,0,1,2.17.94c1.76,1.89,3.47,3.84,5.41,5.56a2.2,2.2,0,0,0,1.72.68,2.15,2.15,0,0,1,2.39,1.74c.27,1,.22,2.31,1.48,2.93.31.15,0,.55-.2.8a.43.43,0,0,1,.09.1,1.23,1.23,0,0,1-.14,1c-.73,1.41-1.26,2.9-1.87,4.35-.29.7-.72,1.26-1.56,1.14-3.3-.46-6.63-.59-9.92-1.15a6.37,6.37,0,0,1-3.89-2.17c.48,1-.1,1.27-.83,1.43a8,8,0,0,1-3.51-.31c-2.47-.57-4.91-1.29-7.37-1.95a1.41,1.41,0,0,1-1.22-1.79,58.65,58.65,0,0,1,3.13-13c.17-.46.26-1.07,1-1.06-.07-.86-.56-.54-.84-.21a5.2,5.2,0,0,0-.77,1.36,58,58,0,0,0-3.65,14c-.14.85.18,1.28,1,1.5,1.74.44,3.46,1,5.19,1.46a24.13,24.13,0,0,0,6.57,1.27c.86,0,1.77.05,2.09-1.24a2.66,2.66,0,0,0,2.33,1.49c1.65.23,3.26.67,4.94.77s3.14.32,4.71.52c.86.11,1.42.45.88,1.45a3.76,3.76,0,0,0-.31.87c-.43,1.66-.28,1.9,1.4,2.27a9.14,9.14,0,0,1,1.27.34c3.91,1.51,8.07,1.78,12.15,2.24,3.26.37,6.57-.34,9.85-.48a4.82,4.82,0,0,0,4.07-2.2,3.17,3.17,0,0,1,3-1.53c1.1,0,1.54-.56,1.68-1.58a41,41,0,0,0,0-9.06C276.12,184.15,275.27,182.51,275.69,180.7Zm-36-13.13a14.7,14.7,0,0,0,2.69-4.33c.26-.58.54-1.18,1.35-.84,2.32,1,4.79,1,7.23,1.24,1.17.1,1.82.44,2,1.84.34,2.37,1,4.7,1.59,7.05.1.42.19,1,.76.88s.71-.7.57-1.25c-.23-1-.46-2-.75-2.93-.19-.62-.07-.81.59-.68,1.52.32,2.83.64,3.3,2.55a62.35,62.35,0,0,0,2.37,6.49c.12.33.3.67-.05,1-1.16.94-2.09,2.23-3.85,2.18-1.18,0-2.36.09-3.55.14-.57,0-1.14,0-1.71,0-1.87.07-2.51-.3-3.11-2.11a24.73,24.73,0,0,1-1-3.94,1.82,1.82,0,0,0-1.28-1.63,18.91,18.91,0,0,0-4.3-1.18c-.34,0-.8.09-.7-.46.28-1.6-1-2.14-2-2.78C239.29,168.39,239.1,168.19,239.71,167.57ZM246.55,181c-.14-.93-1-1-1.59-1.12a7.28,7.28,0,0,1-4.16-2.5,61.15,61.15,0,0,0-5.29-4.88,2.23,2.23,0,0,0-1.51-.59,35.93,35.93,0,0,1-6.94-.57,39.58,39.58,0,0,1-4.66-.43l1.52-.54c2.62-1.08,5.26-2.13,7.85-3.27a3.12,3.12,0,0,1,2.75.16,38.72,38.72,0,0,1,5.15,2.88,1.75,1.75,0,0,1,.92,1.72,12.8,12.8,0,0,0,.19,2.22c.07.5.25,1,.87.93s.54-.68.44-1.17c-.07-.3-.12-.59-.2-1a15.27,15.27,0,0,1,4.52,1.39c.44.17.5.56.58,1,.21,1,.48,2,.67,3.08a7.76,7.76,0,0,0,2,3.62c.22.25.6.65.13.8-1,.32-1.39,1.15-2,1.85A21.16,21.16,0,0,1,246.55,181Zm28.5,12.68c-.05.89-.23,1.34-1.32,1.49a33.25,33.25,0,0,0-7.26,1.8c-.48.18-1.14.34-.88,1.05s.89.45,1.44.27c1-.33,2.07-.61,3.3-1a2.42,2.42,0,0,1-2.19,1.5c-2.93.24-5.84.61-8.77.94-.56.06-1,.13-1.42-.52s-1.2-.42-1.83-.43c-2.19,0-4.4.13-6.53-.59-.4-.14-.87-.12-1.22-.44-1.14-.3-2.27-.62-3.42-.88-.7-.17-.75-.53-.53-1.13a91.17,91.17,0,0,1,4.24-10.41,1.73,1.73,0,0,1,1.91-1.21c1.27.1,2.59-.21,3.91-.11,4.08-.26,8.16,0,12.24,0,.22,0,.44,0,.66,0,.44,0,.79-.19.79-.68s-.37-.68-.8-.69c-1,0-2,0-3.16,0l1.7-2.53a1.07,1.07,0,0,1,1.19-.32c2.17.35,4.33.74,6.48,1.12a.73.73,0,0,1,.67.67A49.17,49.17,0,0,1,275.05,193.66Z"/><path class="cls-18" d="M233.89,173.45a2.19,2.19,0,0,0-.48-.26q-5.72-.9-11.46-1.56a1,1,0,0,0-1,.3l12.67,1.56Z"/><path class="cls-18" d="M219.77,173.75a58.65,58.65,0,0,0-3.13,13,1.41,1.41,0,0,0,1.22,1.79c2.46.66,4.9,1.38,7.37,1.95a8,8,0,0,0,3.51.31c.73-.16,1.31-.43.83-1.43a6.37,6.37,0,0,0,3.89,2.17c3.29.56,6.62.69,9.92,1.15.84.12,1.27-.44,1.56-1.14.61-1.45,1.14-2.94,1.87-4.35a1.23,1.23,0,0,0,.14-1,.43.43,0,0,0-.09-.1l0,0c-.81,1.93-1.64,3.86-2.43,5.8a.65.65,0,0,1-.9.47c-2.14-.52-4.35-.43-6.52-.74-2.59-.38-5.4-.19-7.2-2.72a.78.78,0,0,0-1.07-.14c0,.64.85.84.89,1.48a6.12,6.12,0,0,1-2.48.18c-3.27-.48-6.36-1.65-9.57-2.32-.64-.14-.66-.51-.6-1.06a55.72,55.72,0,0,1,2-9.51,17.78,17.78,0,0,1,1.84-4.88C220,172.68,219.94,173.29,219.77,173.75Z"/><path class="cls-19" d="M251.87,188.75c.42.5.19,1.05.06,1.58-.37,1.55-.74,3.11-1.12,4.67a6,6,0,0,0,.86-2.49c.29-1.19.54-2.38.79-3.58a1.89,1.89,0,0,0-.07-1.22A.93.93,0,0,1,251.87,188.75Z"/><path class="cls-19" d="M252.46,188.93c-.25,1.2-.5,2.39-.79,3.58a6,6,0,0,1-.86,2.49c.38-1.56.75-3.12,1.12-4.67.13-.53.36-1.08-.06-1.58h0a3.86,3.86,0,0,1-.08.91,49.44,49.44,0,0,1-1.4,4.93c-.17.41-.39,1,.22,1.26s.73-.45.84-.88c.47-2,1-4,1.36-6,.1-.51.49-1.24-.42-1.54l0,.3A1.89,1.89,0,0,1,252.46,188.93Z"/><path class="cls-19" d="M252.39,187.71l-.08-.16c-.15.4-.31.79-.46,1.19h0A.93.93,0,0,0,252.39,187.71Z"/><path class="cls-20" d="M254.6,192.15c-.7,0-.33,1.09-.47,1.69s-.34,1.59.42,1.63c1,.05.35-1,.6-1.6C254.76,193.35,255.44,192.2,254.6,192.15Z"/><polygon class="cls-21" points="215.77 161.26 225.25 161.26 229.99 153.05 225.25 144.84 215.77 144.84 211.03 153.05 215.77 161.26"/><text class="cls-9" transform="translate(213.69 158.64)">石</text><path d="M236.83,247.13c-.23-.78-.56-1.62-1.68-1.62a1.14,1.14,0,0,0-1.18,1.21c0,.72.47,1.13,1.5,1.65,1.34.67,2.09,1.27,2.09,2.44a2.52,2.52,0,0,1-2.8,2.37,6,6,0,0,1-1.95-.38c-.08-.3-.27-1.39-.35-2l.43-.1c.24.77.86,2,2.06,2a1.18,1.18,0,0,0,1.25-1.28c0-.78-.45-1.17-1.47-1.72-1.25-.68-2-1.27-2-2.47s1-2.19,2.67-2.19a8.36,8.36,0,0,1,1.67.22c.05.44.12,1,.22,1.77Z"/><path d="M240.87,253a1.32,1.32,0,0,1-.49.14c-.87,0-1.37-.44-1.37-1.49v-3.39h-.79l-.07-.15.34-.41H239v-1c.34-.27.84-.63,1.2-.91l.16.08c0,.38,0,1,0,1.83h1.26a.46.46,0,0,1-.09.56h-1.17v3c0,.95.39,1.08.64,1.08a1.62,1.62,0,0,0,.63-.14l.12.39Z"/><path d="M244.9,247.55a2.64,2.64,0,0,1,2.71,2.7,2.76,2.76,0,1,1-5.52.16A2.8,2.8,0,0,1,244.9,247.55Zm-.14.46c-.59,0-1.15.6-1.15,2s.55,2.63,1.39,2.63c.55,0,1.09-.39,1.09-2.11C246.09,249,245.61,248,244.76,248Z"/><path d="M251.8,253v-.38c.57-.08.62-.14.62-1v-2c0-.85-.37-1.22-.93-1.22a1.72,1.72,0,0,0-1.05.45v2.87c0,.77.06.8.63.88V253h-2.72v-.38c.69-.1.76-.13.76-.91v-2.49c0-.74-.09-.77-.66-.88V248a10.47,10.47,0,0,0,2-.46c0,.2,0,.61,0,.89.24-.17.5-.35.79-.53a1.69,1.69,0,0,1,1-.33c1,0,1.57.71,1.57,1.91v2.27c0,.77.07.81.69.89V253Z"/><path d="M259.77,251.88a2.73,2.73,0,0,1-2.13,1.26,2.43,2.43,0,0,1-2.46-2.6,3.15,3.15,0,0,1,.86-2.14,2.63,2.63,0,0,1,1.84-.85,1.93,1.93,0,0,1,1.93,1.92c0,.22,0,.39-.19.43s-1.86.15-3.12.2c0,1.39.82,2,1.68,2a2,2,0,0,0,1.38-.57ZM257.62,248c-.5,0-.95.55-1.06,1.5l1.66,0c.19,0,.26-.05.26-.24C258.49,248.65,258.16,248,257.62,248Z"/><path class="cls-22" d="M373.93,186.84c-.85.06-1-.49-1.34-1a7.19,7.19,0,0,0-8.07-3,11.45,11.45,0,0,0-5.89,3.7c-1.09,1.22-2.48,1.23-2.91.13-1.68-4.22-5.11-5.85-9.58-4.65a5,5,0,0,0-3.95,4c-.19.95-.57,1.12-1.41,1.11-2.58,0-5.17.05-7.76,0-3.68-.05-7.37-.07-11,.23-.84.07-1.41.12-.89,1.23,4.89,10.63,12.71,17.3,24.7,18.38h0l5.3,0h0c1.13-.24,2.27-.41,3.38-.72,6.8-1.86,12.92-4.9,17.58-10.38a15.45,15.45,0,0,0,3.47-7C375.84,187.21,375.49,186.74,373.93,186.84Zm.49,2.51c-2.52,6.09-7.28,9.88-13,12.7a33.58,33.58,0,0,1-14.07,3.74c-4.1.1-8-1.34-11.65-3.15-5.94-2.92-9.94-7.84-13.31-13.34-.69-1.14.14-1,.82-1,6,.11,12,.72,18,.67,1,0,1.5-.13,1.69-1.36.47-3.14,2.26-4.52,5.44-4.57s5.32,1.37,6,4.44c.2.95.54,1.32,1.48,1.32,1.22,0,2.61.52,3.39-.92,2.33-4.34,8.48-5.44,11.83-2,1,1,2,1.94,3.47,2h0c.7.42.09.81,0,1.21A.39.39,0,0,1,374.42,189.35Z"/><path class="cls-23" d="M352.56,169.88c0-2.27-2-4.06-4.64-4.06a3.85,3.85,0,0,0-4,4.05,4.07,4.07,0,0,0,4.24,4A4.43,4.43,0,0,0,352.56,169.88Zm-7.58,0a3.08,3.08,0,0,1,2.68-3.31,3.36,3.36,0,0,1,3.68,3.17,3.08,3.08,0,0,1-2.83,2.82C346.52,172.6,345,171.47,345,169.89Z"/><path class="cls-24" d="M348,180.57a2.45,2.45,0,0,0,2.75-2.22,2.36,2.36,0,0,0-2.28-2.81A2.58,2.58,0,0,0,345.8,178,2.35,2.35,0,0,0,348,180.57Zm.51-3.79c.79,0,1.14.48,1.17,1.33a1.39,1.39,0,0,1-1.45,1.35c-.76,0-1.31-.35-1.26-1.14A1.53,1.53,0,0,1,348.46,176.78Z"/><path class="cls-25" d="M348.23,188.33c-.73,0-.92.51-1,1.07a1,1,0,0,0,1,1.22c.71,0,.92-.44,1-1.08S349,188.36,348.23,188.33Z"/><path class="cls-5" d="M348.25,220a38.5,38.5,0,1,1,38.5-38.5A38.54,38.54,0,0,1,348.25,220Zm0-74a35.5,35.5,0,1,0,35.5,35.5A35.54,35.54,0,0,0,348.25,146Z"/><path class="cls-26" d="M345,155.4h0a10.12,10.12,0,0,1,4.24,2c2.25,2.1,2.89,5.31,1.46,7.61a6.51,6.51,0,0,1-7.5,2.24,10.75,10.75,0,0,1-1.21-.52c-3.23-1.69-4.1-4.76-2.22-7.93a9.37,9.37,0,0,1,3.89-3.46c-3.83-.09-7.16,5.24-5.67,9.06a7.49,7.49,0,0,0,12.37,2.32c2.08-2.26,2.71-4.87,1.68-7C350.9,157.37,347.47,155.26,345,155.4Z"/><path class="cls-26" d="M339.78,158.83c-1.88,3.17-1,6.24,2.22,7.93a10.75,10.75,0,0,0,1.21.52,6.51,6.51,0,0,0,7.5-2.24c1.43-2.3.79-5.51-1.46-7.61a10.12,10.12,0,0,0-4.24-2c-.36,1.07.56.53.85.59a6.71,6.71,0,0,1,5.15,7.19c-.41,2.62-3.23,4.38-6.44,4-4.16-.45-6.45-4.1-4.75-7.66a7.57,7.57,0,0,1,2.87-3.1c.38-.25,1.17-.26,1-1.08A9.37,9.37,0,0,0,339.78,158.83Z"/><path class="cls-16" d="M335.15,174.25c.05-2.3-2.44-5-4.71-5.11s-4.88,2.83-5,5.31c-.08,2.14,2.15,4,5,4A4.45,4.45,0,0,0,335.15,174.25Zm-8.54.07c0-1.78,2.22-4.12,3.89-4.08s3.64,1.93,3.62,3.28a3.71,3.71,0,0,1-3.56,3.61C328.57,177.1,326.63,175.72,326.61,174.32Z"/><polygon class="cls-27" points="318.06 161.26 327.54 161.26 332.28 153.05 327.54 144.84 318.06 144.84 313.32 153.05 318.06 161.26"/><text class="cls-9" transform="translate(315.98 158.64)">土</text><path d="M343.5,247.13c-.23-.78-.56-1.62-1.67-1.62a1.14,1.14,0,0,0-1.19,1.21c0,.72.47,1.13,1.51,1.65,1.33.67,2.08,1.27,2.08,2.44a2.51,2.51,0,0,1-2.8,2.37,6.08,6.08,0,0,1-1.95-.38c-.08-.3-.27-1.39-.35-2l.43-.1c.24.77.87,2,2.07,2a1.18,1.18,0,0,0,1.25-1.28c0-.78-.46-1.17-1.48-1.72-1.25-.68-2-1.27-2-2.47S340.32,245,342,245a8.36,8.36,0,0,1,1.67.22c.05.44.12,1,.22,1.77Z"/><path d="M348,247.55a2.64,2.64,0,0,1,2.71,2.7,2.76,2.76,0,1,1-5.52.16A2.8,2.8,0,0,1,348,247.55Zm-.14.46c-.59,0-1.15.6-1.15,2s.55,2.63,1.39,2.63c.56,0,1.09-.39,1.09-2.11C349.16,249,348.68,248,347.83,248Z"/><path d="M351.41,253v-.38c.69-.08.76-.13.76-1v-2.39c0-.78-.05-.83-.66-.92V248a11,11,0,0,0,2-.44v4.11c0,.81.06.89.79,1V253Zm1.35-6.35a.8.8,0,0,1-.78-.78.78.78,0,0,1,.79-.78.77.77,0,0,1,.78.78A.79.79,0,0,1,352.76,246.65Z"/><path d="M354.79,253v-.38c.71-.1.76-.16.76-.93v-5.55c0-.67-.07-.74-.74-.86v-.36a11,11,0,0,0,2.08-.4v7.17c0,.8.05.85.76.93V253Z"/></g></g></svg>