<svg xmlns="http://www.w3.org/2000/svg" viewBox="0 0 285.39 285.39"><defs><style>.cls-1{opacity:0.3;}.cls-2{fill:#eab6b2;}.cls-3{fill:#c42c2c;}</style></defs><title>temp_instrument</title><g id="图层_2" data-name="图层 2"><g id="图层_1-2" data-name="图层 1"><g class="cls-1"><circle class="cls-2" cx="142.69" cy="142.69" r="142.69"/></g><path class="cls-3" d="M142.69,264.44A121.75,121.75,0,1,1,264.44,142.69,121.89,121.89,0,0,1,142.69,264.44Zm0-240.5A118.75,118.75,0,1,0,261.44,142.69,118.88,118.88,0,0,0,142.69,23.94Z"/><path class="cls-3" d="M86.22,83.21l-.11,52.67-14.55,0,.07-34.52a43.51,43.51,0,0,1-6.85,4.33,52.92,52.92,0,0,1-8.29,3.17l0-11.8a35,35,0,0,0,11.43-5.67,23,23,0,0,0,6.37-8.18Z"/><path class="cls-3" d="M126.51,126.28l-26.21,0,0-11.84,26.28-31.1,12.54,0-.07,31.83,6.5,0,0,11.16h-6.5l0,9.68-12.54,0Zm0-11.16,0-16.3-13.89,16.27Z"/><path class="cls-3" d="M191.75,96,177.44,97.7a7.62,7.62,0,0,0-1.88-4.24,4.58,4.58,0,0,0-3.27-1.24q-3.49,0-5.44,3.52-1.42,2.54-2.11,10.87a18.36,18.36,0,0,1,5.31-3.86,15,15,0,0,1,6.29-1.24,15.7,15.7,0,0,1,11.7,5A17.34,17.34,0,0,1,192.8,119a18.55,18.55,0,0,1-2.44,9.35,15.74,15.74,0,0,1-6.73,6.4,23.71,23.71,0,0,1-10.76,2.15q-7.77,0-12.46-2.67a18.62,18.62,0,0,1-7.49-8.48q-2.8-5.82-2.78-15.39,0-14,5.94-20.53t16.37-6.49a27.27,27.27,0,0,1,9.77,1.45,15,15,0,0,1,5.94,4.2A18.51,18.51,0,0,1,191.75,96Zm-26.54,23a9.59,9.59,0,0,0,2.1,6.59,6.72,6.72,0,0,0,5.19,2.4,6.05,6.05,0,0,0,4.74-2.15q1.92-2.14,1.92-6.42c0-2.92-.65-5.15-2-6.69a6.22,6.22,0,0,0-4.91-2.3,6.53,6.53,0,0,0-5,2.21A9.12,9.12,0,0,0,165.21,119Z"/><path class="cls-3" d="M119.47,181.12v.47a2.76,2.76,0,0,0-.16.78,14.44,14.44,0,0,1-.78,2.52,9.27,9.27,0,0,1-2,3.3,5,5,0,0,1-3,1.57,3.45,3.45,0,0,1-1.57-.32,1.92,1.92,0,0,1-.79-1.57,3.08,3.08,0,0,1,.63-2.2,3.26,3.26,0,0,1,1.41-.94q.78-.31,1.41-.63c.84-.52,1.63-1,2.36-1.41a5.24,5.24,0,0,0,.47-.63c.42-.52.73-.94.94-1.26l.32-.31c.21-.31.36-.42.47-.31S119.47,180.49,119.47,181.12Zm14.76-18.22a52.84,52.84,0,0,1-7.07,1.73c-2.51.31-5,.58-7.38.79a1.81,1.81,0,0,1-.78.15q-.31,4.25-1.1,10.21l7.07-.32V172c0-.63-.06-1.57-.16-2.82V167a.45.45,0,0,1,.31.15,15.75,15.75,0,0,1,3,.79c1.15.42,1.72.84,1.72,1.26s-.42.73-1.25,1.25v4.87l6-.32,2-3.45a24.42,24.42,0,0,1,3.46,2.51c.84.63,1.2,1.15,1.1,1.57s-.63.47-1.89.47c-3.45.11-7,.26-10.67.47,0,5.34,0,8.33.16,8.95v4.56a3.52,3.52,0,0,1-2.2,3.29c-.84.53-1.41.68-1.73.48a.42.42,0,0,1-.47-.48c0-.1,0-.15-.16-.15a1,1,0,0,1-.15-.63,5.36,5.36,0,0,0-1.42-1.88,4.21,4.21,0,0,0-1.25-1.1c-.63-.53-.89-.89-.79-1.1s.58-.21,1.41,0h.48a4.38,4.38,0,0,0,.94.15,1.59,1.59,0,0,0,1.25-.15c.21-.11.32-.53.32-1.26V176.72c-.74,0-1.84.05-3.3.16s-2.72.21-3.45.31a11.55,11.55,0,0,1-1.73,1.89,12.09,12.09,0,0,1-2.2-.94,14.09,14.09,0,0,1-1.41-1.57c.1-.11.31-.37.62-.79a5.33,5.33,0,0,1,.63-.78q.78-1.89,1.26-9.9a4.87,4.87,0,0,0,0-1.72v-.94l4.08,1.72a.9.9,0,0,0,.63-.16,46.52,46.52,0,0,0,8-2.82,14.55,14.55,0,0,0,4.09-2.67,10.57,10.57,0,0,1,2.66,2c1.05.84,1.58,1.41,1.58,1.72C136.43,162.9,135.69,163.11,134.23,162.9ZM141.77,185a4.53,4.53,0,0,1-.16,1.41,2,2,0,0,1-.94,1.57,2.29,2.29,0,0,1-1.26.63,2.14,2.14,0,0,1-1.57-.63,3.88,3.88,0,0,1-1.1-1.88.93.93,0,0,1-.15-.63,5.23,5.23,0,0,0-.79-1.41,7.3,7.3,0,0,0-1.88-2.51c-.11-.32-.58-.68-1.42-1.1-.42-.32-.62-.58-.62-.79s.36-.31,1.09-.31a13.14,13.14,0,0,1,6.13,2.2A5,5,0,0,1,141.77,185Z"/><path class="cls-3" d="M184.63,179.07a.61.61,0,0,1-.47.62,4.18,4.18,0,0,0-.94.48,3.52,3.52,0,0,0-1.26,1.1c-.21.21-.37.36-.47.47l-.63.62a5.58,5.58,0,0,1-.62.79,6,6,0,0,1-1.1-.16.47.47,0,0,1-.32-.15,8.59,8.59,0,0,1-1.88-.63,23.6,23.6,0,0,1-3.14-2,29.06,29.06,0,0,1-5.66-5.65l-3,.15c-.63,1.05-1.25,2-1.88,3a15.46,15.46,0,0,1-6.13,4.24,3.23,3.23,0,0,1-1.25.62c.52-.2.42-.15-.31.16.73.32,1.41.63,2,.94H159c.94-.1,1.67-.15,2.2-.15l1.25-1.73a13.64,13.64,0,0,0,1.1.94,10.3,10.3,0,0,1,1.42,1.1c.62.53.94.94.94,1.26s-.16.42-.47.63a7.25,7.25,0,0,0-.79.47c0,.42-.05,1.25-.15,2.51a9.33,9.33,0,0,0-.16,1.57c.63.52.89.83.78.94,0,.31-.36.47-1.1.47h-2.51a10.68,10.68,0,0,1-2.2.16,18.09,18.09,0,0,1-2,.16,3,3,0,0,1-.78,1.88,2.59,2.59,0,0,1-.94.63c-.53.31-.89.42-1.1.31s-.32-.31-.32-.94v-2.35q0-3-.16-6.44a13.55,13.55,0,0,0-.15-1.73l-.94.31a35,35,0,0,1-3.62.95c-.62,0-.94,0-.94-.16-.1-.31.16-.57.79-.79q6.75-2.51,9.73-5.33a20.82,20.82,0,0,0,2.51-3.46c-2.19.11-4.29.26-6.28.47-.42,0-1.25.06-2.51.16a16.27,16.27,0,0,1-2,.16l-.79-1.73h5l7.22-.32.31-.94a17.58,17.58,0,0,0,.79-2.82h-.47a5.42,5.42,0,0,1-1.26.15c-1,0-2.46.06-4.24.16a2.85,2.85,0,0,1-1.1,1.73.43.43,0,0,0-.31.16,2.25,2.25,0,0,1-1.26.62.72.72,0,0,1-.47-.78v-2.2c0-.73,0-2.14-.16-4.24a9.92,9.92,0,0,1-.15-1.41v-1.41a15.72,15.72,0,0,1-.16-1.89,10.72,10.72,0,0,0,1.26.47c.73.32,1.3.58,1.72.79a1.81,1.81,0,0,0,.48.31,2.12,2.12,0,0,1,.47.32c1.57-.11,2.77-.16,3.61-.16l1.25-1.73c.42.31,1,.78,1.73,1.41a2.89,2.89,0,0,0,.79.63c.62.53.94.89.94,1.1a.63.63,0,0,1-.47.63,1.55,1.55,0,0,1-.79.63,20.8,20.8,0,0,1-.47,3.14c.63.62.94,1,.94,1.1s-.05.31-.15.31a1.52,1.52,0,0,0,.62.31c1.36.63,2.05,1.1,2.05,1.42s-.42.73-1.26.94a1.16,1.16,0,0,1-.16.47,1.81,1.81,0,0,1-.31.63c.94,0,2.09-.06,3.45-.16,1.57,0,2.93,0,4.09-.16l1.88-2.83a16.83,16.83,0,0,1,2.67,1.89c1,.63,1.57,1.15,1.57,1.57-.21.42-.84.63-1.88.63h-4.71l-3.14.16a20.93,20.93,0,0,0,5.33,2.82,34.86,34.86,0,0,0,7.07,1.26l1.57.15C184.32,178.75,184.63,178.86,184.63,179.07Zm-23.4-15.55c-.42,0-1.31.06-2.67.16a12.09,12.09,0,0,1-1.72.16,13,13,0,0,1,.16,2.51c.1,1.16.15,2,.15,2.67,1.36-.1,2.52-.16,3.46-.16a6.92,6.92,0,0,1,.15-1.09A41.47,41.47,0,0,1,161.23,163.52Zm.16,21q-.78,0-2.19.15a7,7,0,0,0-2.2.16,15.24,15.24,0,0,1,.16,3c.1,1.16.15,2.1.15,2.83a19.89,19.89,0,0,0,2.2-.16h1.41a6.78,6.78,0,0,0,.16-2C161.18,187,161.29,185.72,161.39,184.57Zm17.28,6c0,.21-.32.37-.95.47h-2.67c-.41,0-1.41.05-3,.16a18.44,18.44,0,0,1-2,.16,4.76,4.76,0,0,1-2,2.67,4.47,4.47,0,0,1-.94.15c-.21-.1-.32-.37-.32-.78v-2.67q0-2.35-.15-6.44c0-.31-.06-1-.16-2a6.12,6.12,0,0,1-.16-1.1c.63.21,1.36.47,2.2.79l1.88.94,3.46-.16,1.25-1.41a7.24,7.24,0,0,0,.95.62c.62.53,1.15,1,1.57,1.26l.15.16c.63.31.95.63.95.94s-.48.68-1.42,1.1l-.15,3.45C178.14,189.64,178.67,190.22,178.67,190.53Zm3.76-19.63a1.55,1.55,0,0,1-.31,1.42,2.12,2.12,0,0,1-1.26.47c-1.05.21-1.73-.52-2-2.2a2.05,2.05,0,0,0-.78-1.26l-.16-.15a.14.14,0,0,1-.16-.16,3.6,3.6,0,0,1-1.1.16c-.52,0-1.36,0-2.51.15l-4.4.16c-.73,1-1.51,1.52-2.35,1.41-.21,0-.31-.2-.31-.62v-2a12.28,12.28,0,0,1-.16-2.52,24.82,24.82,0,0,1-.16-2.51v-.94a20.81,20.81,0,0,1-.16-2.36c1.15.53,2,.94,2.67,1.26a3.39,3.39,0,0,1,1.26.63h1.25a21,21,0,0,1,2.36-.16l1.25-1.57c.32.21.74.53,1.26.94a10.48,10.48,0,0,1,1.26.94c.63.53.94,1,.94,1.26s-.16.42-.47.63a1.89,1.89,0,0,0-.79.47l-.47,3.3a1.74,1.74,0,0,1,.63.62l.16.16h.47Q182.43,168.71,182.43,170.9Zm-8.47,13h-1.58c-1.15.1-2,.15-2.66.15l.31,6c1.36-.1,2.56-.16,3.61-.16Q173.64,189.12,174,183.94Zm.15-21c-.63,0-1.47,0-2.51.15h-1.73v.47c.1,1.58.16,3.15.16,4.72.52,0,1.25-.06,2.2-.16h1.57a23,23,0,0,1,.15-2.36A24.24,24.24,0,0,0,174.11,162.9Z"/><path class="cls-3" d="M222.45,105.89a.45.45,0,0,1-.36.47l-.7.24a.35.35,0,0,1-.12.24,8.92,8.92,0,0,0-.94,1.41,2.77,2.77,0,0,0-.35.47,5.58,5.58,0,0,0-.71,1.06l-.12,7.54v8.36a2.35,2.35,0,0,1-.59,1.53,4.64,4.64,0,0,1-.47.35,1.59,1.59,0,0,1-.47.35,2.65,2.65,0,0,1-1.06.36c-.24,0-.35-.12-.35-.36-.08,0-.08-.07,0-.23v-.47a14.38,14.38,0,0,1,.23-2.36c.08-.94.12-1.57.12-1.88v-1.41q.24-4.61.24-9.31c-.48.47-1.38,1.26-2.71,2.36a4.62,4.62,0,0,0-.71.47,10.29,10.29,0,0,1-1.29.82,3.83,3.83,0,0,1-.83.36c-.16,0-.23,0-.23-.12s.19-.39.58-.71a42.84,42.84,0,0,0,6.6-9.3c.08-.16.19-.43.35-.83.24-.78.43-1.41.59-1.88a7.77,7.77,0,0,1,1.41.82,5.5,5.5,0,0,0,.71.48C222.05,105.27,222.45,105.66,222.45,105.89Zm16.6,11c-.08.15-.47.23-1.17.23-1,0-2.16,0-3.42.12-.24,0-.87,0-1.88.12s-1.69.11-2.24.11l.23,6.13v2a4.39,4.39,0,0,1-.11,2,2.67,2.67,0,0,1-1,.94,2.56,2.56,0,0,1-.94.36h-.12a.78.78,0,0,1-.7.11c-.24,0-.36-.23-.36-.7a25.39,25.39,0,0,0,.12-3.06c.08-.87.12-2.16.12-3.89v-3.77l-4,.24a32.26,32.26,0,0,0-3.3.35c-.08-.16-.2-.39-.35-.71a4.27,4.27,0,0,0-.24-.58c.86,0,2.12,0,3.77-.12l4.12-.12v-5.18l-3.65.23a24.09,24.09,0,0,1-2.36,3.42c-.47.47-.78.63-.94.47s-.12-.35.12-.82c.08-.24.27-.71.59-1.42s.59-1.45.82-2a3.64,3.64,0,0,0,.24-.82c.23-.87.55-2.32.94-4.36,0-.16,0-.59.12-1.3a9.56,9.56,0,0,0,.12-1.29,6.74,6.74,0,0,1,.59.35c.15.08.74.43,1.76,1.06a3.12,3.12,0,0,0,.83.59.48.48,0,0,1,.23.59c.08.23-.08.43-.47.59h-.24l-.47.23a29.83,29.83,0,0,1-1.41,3.54l3.18-.12v-3.89c0-1.18,0-2.47-.12-3.88a11,11,0,0,1,2.12.7c1.18.32,1.73.67,1.65,1.06,0,.24-.35.59-1.06,1.06v4.83c.55,0,1.26,0,2.12-.12a7.74,7.74,0,0,1,.71-1.29,13.07,13.07,0,0,0,.7-1.18c.16.16.43.39.83.71.7.47,1.29.9,1.76,1.29.47.55.67.94.59,1.18s-.43.23-1.29.23H232.1a16.78,16.78,0,0,1-1.88.12c0,1.18,0,2.91.12,5.18h1.41c1-.07,1.84-.11,2.47-.11a18.65,18.65,0,0,1,1.54-2.59,9.68,9.68,0,0,0,1.05.82,10.39,10.39,0,0,1,1.54,1.18C239,116.14,239.21,116.53,239.05,116.85Z"/><path class="cls-3" d="M96.09,221v-.78c1.79-.18,2-.3,2-2.24v-8.89c0-1.95-.21-2.1-2-2.26v-.78h6.77v.78c-1.78.18-2,.31-2,2.26V218c0,1.93.2,2,2,2.24V221Z"/><path class="cls-3" d="M110.47,221v-.73c1.09-.14,1.19-.26,1.19-1.84v-3.88c0-1.63-.73-2.33-1.78-2.33a3.29,3.29,0,0,0-2,.86v5.5c0,1.47.11,1.55,1.2,1.69V221h-5.21v-.73c1.31-.2,1.45-.24,1.45-1.75V213.8c0-1.42-.17-1.49-1.27-1.7v-.69a18.51,18.51,0,0,0,3.86-.89c0,.4,0,1.18,0,1.72.46-.33,1-.67,1.51-1a3.31,3.31,0,0,1,1.83-.63c1.86,0,3,1.36,3,3.67v4.35c0,1.47.14,1.54,1.32,1.7V221Z"/><path class="cls-3" d="M122.94,213.77c-.54-1.51-1.26-2.31-2.45-2.31a1.26,1.26,0,0,0-1.29,1.31c0,.87.61,1.32,1.84,1.87,1.9.87,3.07,1.62,3.07,3.33,0,2.23-2.1,3.34-4,3.34a6.93,6.93,0,0,1-2.85-.67c-.1-.58-.31-2-.39-2.84l.73-.13c.46,1.46,1.35,2.76,2.89,2.76a1.3,1.3,0,0,0,1.41-1.33c0-.82-.44-1.35-1.79-2-1.55-.75-3-1.53-3-3.35s1.47-3.15,3.82-3.15a10.75,10.75,0,0,1,2.38.33c.07.6.26,2.06.36,2.66Z"/><path class="cls-3" d="M130,221.05a2.46,2.46,0,0,1-.95.26c-1.67,0-2.63-.85-2.63-2.85V212H125l-.12-.28.65-.8h1V209c.67-.52,1.63-1.2,2.31-1.72l.31.13c0,.74-.07,2-.05,3.51h2.41a.89.89,0,0,1-.17,1.08H129v5.72c0,1.82.73,2.07,1.23,2.07a3.11,3.11,0,0,0,1.21-.28l.22.75Z"/><path class="cls-3" d="M138.32,221h-5.79v-.73c1.3-.14,1.42-.26,1.42-1.68v-4.94c0-1.28-.09-1.38-1.26-1.59v-.66a18.58,18.58,0,0,0,3.82-.9V213c1-1.45,1.83-2.45,2.85-2.45a1.33,1.33,0,0,1,1.44,1.29,2,2,0,0,1-1,1.71.57.57,0,0,1-.67-.09c-.38-.33-.67-.65-1.07-.65s-1.06.44-1.51,1.42v4.35c0,1.43.15,1.52,1.81,1.69Z"/><path class="cls-3" d="M153.52,220.49c-1.28.18-2.67.48-4.07.82v-1.63a5.28,5.28,0,0,1-3.29,1.63c-1.8,0-3-1.13-3-3.34v-4.66c0-1.12-.16-1.24-.76-1.39l-.54-.13v-.68c1.11-.05,2.82-.23,3.93-.4-.06.88-.07,2-.07,3.43v3.28c0,1.68.86,2.21,1.75,2.21a2.59,2.59,0,0,0,1.94-.82v-5.48c0-1.12-.17-1.3-.86-1.41l-.71-.13v-.68c1.39-.06,3.22-.25,4.15-.4v7.57c0,1.18.16,1.4.94,1.46l.55,0Z"/><path class="cls-3" d="M167.29,221v-.73c1.07-.14,1.23-.23,1.23-1.71v-3.93c0-1.81-.78-2.4-1.74-2.4a3.22,3.22,0,0,0-2,.88c0,.28.06.6.06,1v4.58c0,1.34.11,1.46,1.24,1.6V221H161v-.73c1.15-.14,1.29-.22,1.29-1.62v-4.1c0-1.66-.61-2.33-1.65-2.33a3.47,3.47,0,0,0-2,.86v5.57c0,1.37.15,1.48,1.16,1.62V221h-5.15v-.73c1.35-.16,1.44-.25,1.44-1.68V213.8c0-1.36,0-1.52-1.2-1.71v-.68a18.81,18.81,0,0,0,3.75-.89v1.78c.5-.36.94-.69,1.51-1a3.4,3.4,0,0,1,1.91-.68,2.66,2.66,0,0,1,2.55,1.8c.58-.45,1.09-.79,1.66-1.18a3.46,3.46,0,0,1,1.84-.62c1.92,0,3,1.34,3,3.65v4.45c0,1.36.12,1.45,1.31,1.62V221Z"/><path class="cls-3" d="M182.56,218.89a5.21,5.21,0,0,1-4.07,2.42,4.65,4.65,0,0,1-4.71-5,6,6,0,0,1,1.64-4.1,5,5,0,0,1,3.53-1.64,3.71,3.71,0,0,1,3.7,3.69c0,.41-.05.74-.36.82s-3.58.28-6,.37c0,2.66,1.58,3.91,3.23,3.91a3.93,3.93,0,0,0,2.64-1.08Zm-4.1-7.38c-1,0-1.84,1.05-2,2.88,1.06,0,2.08,0,3.18-.07.36,0,.49-.08.49-.46C180.12,212.69,179.49,211.51,178.46,211.51Z"/><path class="cls-3" d="M190.62,221v-.73c1.1-.14,1.19-.26,1.19-1.84v-3.88c0-1.63-.72-2.33-1.78-2.33a3.24,3.24,0,0,0-2,.86v5.5c0,1.47.11,1.55,1.19,1.69V221H184v-.73c1.31-.2,1.44-.24,1.44-1.75V213.8c0-1.42-.17-1.49-1.26-1.7v-.69a18.66,18.66,0,0,0,3.86-.89c0,.4,0,1.18,0,1.72.46-.33.95-.67,1.5-1a3.34,3.34,0,0,1,1.84-.63c1.85,0,3,1.36,3,3.67v4.35c0,1.47.13,1.54,1.32,1.7V221Z"/><path class="cls-3" d="M201.52,221.05a2.42,2.42,0,0,1-1,.26c-1.66,0-2.62-.85-2.62-2.85V212h-1.52l-.12-.28.65-.8h1V209c.66-.52,1.62-1.2,2.3-1.72l.31.13c0,.74-.06,2-.05,3.51h2.41a.89.89,0,0,1-.16,1.08h-2.25v5.72c0,1.82.74,2.07,1.23,2.07a3,3,0,0,0,1.21-.28l.22.75Z"/></g></g></svg>