<svg xmlns="http://www.w3.org/2000/svg" viewBox="0 0 230 230"><defs><style>.cls-1{opacity:0.3;}.cls-2{fill:#eab6b2;}.cls-3{fill:#c42c2c;}.cls-4{fill:#fff;}</style></defs><title>temp_prop</title><g id="图层_2" data-name="图层 2"><g id="图层_1-2" data-name="图层 1"><g class="cls-1"><circle class="cls-2" cx="115" cy="115" r="115"/></g><circle class="cls-3" cx="115" cy="115" r="98.43"/><path class="cls-4" d="M70.88,94.85l9.65-1.22a5.12,5.12,0,0,0,1.28,2.86,3.16,3.16,0,0,0,2.22.83A4,4,0,0,0,87.68,95q.94-1.74,1.43-7.37a12,12,0,0,1-3.58,2.62,10.09,10.09,0,0,1-4.24.84,10.57,10.57,0,0,1-7.92-3.34,11.61,11.61,0,0,1-3.23-8.44A12.52,12.52,0,0,1,71.78,73a10.8,10.8,0,0,1,4.53-4.33,15.87,15.87,0,0,1,7.24-1.47A17,17,0,0,1,92,69,12.64,12.64,0,0,1,97,74.67,24.07,24.07,0,0,1,98.92,85c0,6.31-1.32,10.92-4,13.86s-6.33,4.39-11,4.39a18.26,18.26,0,0,1-6.58-1,10.23,10.23,0,0,1-4-2.83A12.89,12.89,0,0,1,70.88,94.85ZM88.75,79.26a6.46,6.46,0,0,0-1.43-4.44,4.45,4.45,0,0,0-3.48-1.61,4.08,4.08,0,0,0-3.21,1.45A6.45,6.45,0,0,0,79.36,79a6.71,6.71,0,0,0,1.32,4.48A4.14,4.14,0,0,0,84,85.05a4.41,4.41,0,0,0,3.41-1.5A6.15,6.15,0,0,0,88.75,79.26Z"/><path class="cls-4" d="M108.84,83.91a9.26,9.26,0,0,1-3.34-2.72,8.08,8.08,0,0,1-1.43-4.72,8.38,8.38,0,0,1,4.12-7.17,15.11,15.11,0,0,1,8.51-2.15q7,0,10.36,2.67a8.25,8.25,0,0,1,3.34,6.72A7.9,7.9,0,0,1,129.07,81a11.06,11.06,0,0,1-3.15,3,9.71,9.71,0,0,1,4.23,3.6,9.17,9.17,0,0,1,1.4,4.95,10.25,10.25,0,0,1-1.21,4.9,9.67,9.67,0,0,1-3,3.51A12,12,0,0,1,123,102.7a25.45,25.45,0,0,1-5.57.58A21.57,21.57,0,0,1,109,102a9.61,9.61,0,0,1-4.46-3.86A10.94,10.94,0,0,1,103,92.42a8.41,8.41,0,0,1,5.84-8.51Zm3.83,8.17a5.24,5.24,0,0,0,1.41,3.78,4.33,4.33,0,0,0,3.22,1.46,4.14,4.14,0,0,0,3.12-1.49,5.85,5.85,0,0,0,0-7.56,4.31,4.31,0,0,0-3.23-1.48A4.22,4.22,0,0,0,114,88.22,5.39,5.39,0,0,0,112.67,92.08Zm.53-15A3.9,3.9,0,0,0,114.33,80a4.11,4.11,0,0,0,3,1.11A3.68,3.68,0,0,0,120.09,80a3.91,3.91,0,0,0,1.07-2.84A4,4,0,0,0,120,74.2a4.24,4.24,0,0,0-5.73,0A3.89,3.89,0,0,0,113.2,77Z"/><path class="cls-4" d="M151.06,84.4a.41.41,0,0,1-.31.42l-.62.2a.29.29,0,0,1-.1.21,7.67,7.67,0,0,0-.82,1.23,2.93,2.93,0,0,0-.31.41,5.18,5.18,0,0,0-.61.92l-.11,6.57v7.29a2,2,0,0,1-.51,1.33,2.93,2.93,0,0,1-.41.31,1.84,1.84,0,0,1-.41.31,2.42,2.42,0,0,1-.92.3c-.21,0-.31-.1-.31-.3q-.1,0,0-.21V103a13.58,13.58,0,0,1,.2-2c.07-.82.11-1.37.11-1.64V98.05c.13-2.66.2-5.37.2-8.1-.41.41-1.2,1.09-2.36,2a4,4,0,0,0-.61.41,10.46,10.46,0,0,1-1.13.72,3.59,3.59,0,0,1-.72.31c-.14,0-.21,0-.21-.11s.17-.34.52-.61a37.51,37.51,0,0,0,5.74-8.11c.07-.14.17-.37.31-.72l.51-1.64a7.21,7.21,0,0,1,1.24.72,4.92,4.92,0,0,0,.61.41C150.71,83.86,151.06,84.2,151.06,84.4ZM165.53,94c-.07.14-.41.2-1,.2-.89,0-1.88,0-3,.11-.21,0-.76,0-1.65.1s-1.47.1-1.95.1l.21,5.34v1.74a3.86,3.86,0,0,1-.1,1.75,2.47,2.47,0,0,1-.82.82,2.29,2.29,0,0,1-.83.31h-.1a.68.68,0,0,1-.61.1c-.21,0-.31-.2-.31-.62a22.33,22.33,0,0,0,.1-2.66c.07-.76.1-1.88.1-3.39V94.57l-3.49.2a28.06,28.06,0,0,0-2.87.31l-.31-.62c-.07-.2-.14-.37-.2-.51.75,0,1.84,0,3.28-.1l3.59-.11V89.23l-3.18.2a21,21,0,0,1-2,3c-.41.41-.69.55-.82.41s-.1-.31.1-.72q.1-.3.51-1.23l.72-1.74a3.24,3.24,0,0,0,.21-.72c.2-.76.48-2,.82-3.8,0-.14,0-.51.1-1.13a8.09,8.09,0,0,0,.1-1.13,5,5,0,0,1,.52.31l1.54.92a2.56,2.56,0,0,0,.72.52.41.41,0,0,1,.2.51c.07.21-.07.38-.41.51h-.21l-.41.21a26.47,26.47,0,0,1-1.23,3.08l2.77-.1V84.92c0-1,0-2.16-.1-3.39a9.78,9.78,0,0,1,1.85.62c1,.27,1.5.58,1.44.92s-.31.51-.93.92V88.2c.48,0,1.09,0,1.85-.1a6.79,6.79,0,0,1,.61-1.13,9,9,0,0,0,.62-1,9.08,9.08,0,0,0,.72.62c.61.41,1.13.79,1.54,1.13s.58.82.51,1-.38.2-1.13.2h-3.08a14.48,14.48,0,0,1-1.64.1c0,1,0,2.54.1,4.52h1.24c.88-.07,1.6-.1,2.15-.1a16.79,16.79,0,0,1,1.33-2.26,8.66,8.66,0,0,0,.93.72,9.55,9.55,0,0,1,1.33,1C165.46,93.33,165.66,93.68,165.53,94Z"/><path class="cls-4" d="M94,129.89c-.07,0-.18.07-.32.22a1,1,0,0,0-.33.22c-.44.21-.69.25-.76.11s0-.19.32-.55a9.17,9.17,0,0,0,1.75-2.18,14.1,14.1,0,0,0,2.07-4.9,6,6,0,0,1,1.09.43l.65.33c.87.44,1.31.76,1.31,1s-.33.44-1,.66a10.48,10.48,0,0,1-1,1.3,3.68,3.68,0,0,1-.33.44c.44,0,1.42,0,2.94-.11q4.68-.21,6.32-.33a2.7,2.7,0,0,0,.33-.65,11.33,11.33,0,0,1,.76-1.2,17.9,17.9,0,0,1,2.4,1.53c.43.21.61.43.54.65s-.4.36-1.2.44l-2.61.1q-4.47,0-10.35.44c-.37.36-.76.73-1.2,1.09a5.73,5.73,0,0,1,1.31.22c.65.14,1,.36,1,.65a2.4,2.4,0,0,1-.44.66v.76l1.42-.11a12,12,0,0,0-.33-2.94,4.78,4.78,0,0,1,1.64.43c.72.22,1.12.4,1.19.55s-.21.47-.65.76l.11,1.09h1.52v-3.16l1.64.54c.72.3,1.09.55,1.09.77.07.07,0,.18-.22.32l-.22.11-.22.22v.33a3.24,3.24,0,0,0-.1.76l1.52-.11a5.31,5.31,0,0,0,.11-1.2,3.33,3.33,0,0,0,.11-1,6.84,6.84,0,0,0,.11-1c.14.08.47.22,1,.44s.61.25.76.32.33.19.55.33l.21.11c.22.07.29.18.22.33s-.15.36-.65.65a3.24,3.24,0,0,0-.11.87l1.09-.11a6.64,6.64,0,0,1,1.2-1.74,16.27,16.27,0,0,1,1.63,1.31c.65.43.91.76.76,1s-.36.29-1.09.22h-1.3c-.66.07-1.13.11-1.42.11h-1.09a19.63,19.63,0,0,1-.22,2.17,9.86,9.86,0,0,1-.22,1.2l3-.22a13,13,0,0,1,1.2-1.85c.15.15.47.44,1,.87a7.12,7.12,0,0,1,.88.66c.58.36.79.65.65.87s-.22.25-.65.33h-1a9.74,9.74,0,0,0-2.17,0l-3.38.21a1.84,1.84,0,0,1,.54.11,1.52,1.52,0,0,1,.55.22c.65.15,1,.33,1,.55s-.26.43-.76.65V138l1.19-.11c.29-.58.59-1.12.88-1.63.07,0,.14.07.21.22a17.82,17.82,0,0,0,1.64,1c.58.36.8.65.65.87s-.36.33-1.09.33h-2.61l-.87.1v3.49h1.3l1.42-2.07a4.92,4.92,0,0,1,.65.44l1.2,1c.58.51.84.87.76,1.09s-.43.32-1.09.32h-2.61a11.17,11.17,0,0,1-1.52.11c0,.66,0,1.75.1,3.27a3.07,3.07,0,0,1-.43,1.74c-.22.15-.51.33-.87.55a1.64,1.64,0,0,1-1.09.22.43.43,0,0,1-.44-.33V147c.07-.72.11-1.3.11-1.74l.11-2.07-1.63.11a4.91,4.91,0,0,0-.44.54c-.36.37-.58.55-.65.55a4.08,4.08,0,0,1-1.86-1.42,1.9,1.9,0,0,1,.66-.54,11.48,11.48,0,0,0,.43-3.16,4.55,4.55,0,0,0,.66.22c.58.22.94.36,1.09.43.58.22.83.44.76.66s-.22.4-.65.54a6.35,6.35,0,0,1-.22,1.31l1.85-.11v-3.49l-1.85.11h-.33l-1.85.22-.44-1c.87,0,1.75,0,2.62-.11h1.85a16.37,16.37,0,0,0-.11-2.4l-8.93.44c.07,0,.14.07.22.22a4.25,4.25,0,0,0,.87.43c.43.29.65.55.65.77s-.33.4-1,.54a11.13,11.13,0,0,1-1,1.09l2.18-.11c.07-.07.25-.29.54-.65-.14.22-.07.11.22-.33a1.17,1.17,0,0,0,.33.22c.14.07.58.36,1.31.87q.65.54.54.87c.07.15-.22.33-.87.55a14.91,14.91,0,0,1-10.24,8c-.44.14-.69.14-.76,0s.1-.33.54-.55a16.44,16.44,0,0,0,5.56-4c-.66.15-1.09-.18-1.31-1a3.36,3.36,0,0,0-.55-1.41,10.69,10.69,0,0,1-3,1.74,1.57,1.57,0,0,1-.65.22c-.07-.22.07-.44.44-.66q4.14-3.91,4.9-6.64l-1.85.11-3,.32-.44-1.08c.8,0,2,0,3.49-.11h2.07c-.08-.73-.19-1.86-.33-3.38l-1.2.11a6.34,6.34,0,0,0-1.2.22,1.21,1.21,0,0,0-.54.1l-.55-1.19h3.38a1.49,1.49,0,0,1-.11-.77,3.45,3.45,0,0,1-.22-.87,1.9,1.9,0,0,1-.11-.54Zm4.58,9.91-2.83.22c-.37.37-.77.73-1.2,1.09a3.42,3.42,0,0,1,1.52.55,1.32,1.32,0,0,1,.66,1.3A10.22,10.22,0,0,0,98.6,139.8Zm.44-4.57c0-.36,0-1.13-.11-2.29a5.73,5.73,0,0,1-.11-1H97.4a2.68,2.68,0,0,1,.11,1.09c.07.87.14,1.63.22,2.29Zm3.15-3.49-1.52.11a9.35,9.35,0,0,1,.11,1.64c.07.72.11,1.27.11,1.63h1.2C102.16,133.74,102.19,132.61,102.19,131.74Zm3.38-.22-1.41.11v1.09c-.08.95-.11,1.71-.11,2.29l1.09-.11a3,3,0,0,1,.1-.65C105.32,134,105.42,133.05,105.57,131.52Z"/><path class="cls-4" d="M142.61,137.84a.43.43,0,0,1-.33.44,2.66,2.66,0,0,0-.65.33,2.3,2.3,0,0,0-.87.76l-.33.33-.43.43a3.78,3.78,0,0,1-.44.55,4.8,4.8,0,0,1-.76-.11.31.31,0,0,1-.22-.11,6.22,6.22,0,0,1-1.31-.44,16.68,16.68,0,0,1-2.18-1.41,20.25,20.25,0,0,1-3.92-3.93l-2.07.11c-.43.73-.87,1.42-1.3,2.07a10.67,10.67,0,0,1-4.25,2.94,2.42,2.42,0,0,1-.88.44c.37-.15.29-.11-.21.11.5.22,1,.43,1.41.65h1c.66-.07,1.16-.11,1.53-.11l.87-1.19c.15.14.4.36.76.65a5.89,5.89,0,0,1,1,.76c.44.37.66.65.66.87s-.11.29-.33.44a4.39,4.39,0,0,0-.54.32c0,.3,0,.88-.11,1.75a6.05,6.05,0,0,0-.11,1.09c.43.36.61.58.54.65,0,.22-.25.33-.76.33H126.6a7.41,7.41,0,0,1-1.53.11,12.49,12.49,0,0,1-1.41.11,2.05,2.05,0,0,1-.55,1.3,1.74,1.74,0,0,1-.65.44c-.37.22-.62.29-.77.22s-.21-.22-.21-.66v-1.63c0-1.38,0-2.87-.11-4.47a9.57,9.57,0,0,0-.11-1.2l-.65.22a24.29,24.29,0,0,1-2.51.66c-.44,0-.65,0-.65-.11-.08-.22.1-.4.54-.55a20.19,20.19,0,0,0,6.75-3.7,14.48,14.48,0,0,0,1.75-2.4c-1.53.07-3,.18-4.36.33-.29,0-.87,0-1.74.11a12.81,12.81,0,0,1-1.42.11l-.54-1.2h3.48l5-.22.22-.65a13.12,13.12,0,0,0,.55-2h-.33a3.69,3.69,0,0,1-.87.1c-.73,0-1.71,0-2.94.11a2,2,0,0,1-.77,1.2.31.31,0,0,0-.21.11,1.65,1.65,0,0,1-.88.44.52.52,0,0,1-.32-.55v-1.52c0-.51,0-1.49-.11-2.95a6.84,6.84,0,0,1-.11-1v-1a12.17,12.17,0,0,1-.11-1.3,8.76,8.76,0,0,0,.87.32c.51.22.91.4,1.2.55a1.43,1.43,0,0,0,.33.22,1.26,1.26,0,0,1,.32.21c1.09-.07,1.93-.1,2.51-.1l.87-1.2c.29.22.69.54,1.2,1a2.3,2.3,0,0,0,.54.43c.44.37.66.62.66.77a.43.43,0,0,1-.33.43,1.08,1.08,0,0,1-.54.44,14,14,0,0,1-.33,2.18,2.76,2.76,0,0,1,.65.76c0,.15,0,.22-.11.22a1.28,1.28,0,0,0,.44.21c.94.44,1.42.77,1.42,1s-.3.51-.88.66a.87.87,0,0,1-.1.33,1.37,1.37,0,0,1-.22.43c.65,0,1.45,0,2.39-.11,1.09,0,2,0,2.84-.11l1.3-2a11.61,11.61,0,0,1,1.86,1.31c.72.44,1.09.8,1.09,1.09-.15.29-.59.43-1.31.43h-3.27l-2.18.11a14.36,14.36,0,0,0,3.71,2,23.61,23.61,0,0,0,4.9.88l1.09.1C142.39,137.62,142.61,137.7,142.61,137.84Zm-16.23-10.78c-.29,0-.91,0-1.85.11a9.57,9.57,0,0,1-1.2.11,9,9,0,0,1,.11,1.74c.07.8.11,1.42.11,1.85.94-.07,1.74-.11,2.39-.11a5,5,0,0,1,.11-.76A27.44,27.44,0,0,1,126.38,127.06Zm.11,14.6a15.08,15.08,0,0,0-1.53.1,4.82,4.82,0,0,0-1.52.11,10.62,10.62,0,0,1,.11,2.07c.07.8.11,1.46.11,2a14.91,14.91,0,0,0,1.52-.1h1a5,5,0,0,0,.11-1.42C126.34,143.36,126.41,142.46,126.49,141.66Zm12,4.14c0,.14-.22.25-.65.32H136c-.3,0-1,0-2.07.11a12.81,12.81,0,0,1-1.42.11,3.32,3.32,0,0,1-1.42,1.85,3.19,3.19,0,0,1-.65.11c-.15-.07-.22-.25-.22-.54V145.9c0-1.08,0-2.57-.11-4.46,0-.22,0-.69-.11-1.42a5,5,0,0,1-.11-.76c.44.14.95.33,1.53.54l1.31.66,2.39-.11.88-1a3.75,3.75,0,0,0,.65.43c.43.37.8.66,1.09.88l.11.1c.43.22.65.44.65.66s-.33.47-1,.76l-.11,2.4C138.11,145.18,138.47,145.58,138.47,145.8Zm2.62-13.62a1.07,1.07,0,0,1-.22,1,1.44,1.44,0,0,1-.87.33c-.73.14-1.2-.37-1.42-1.53a1.43,1.43,0,0,0-.54-.87l-.11-.11a.1.1,0,0,1-.11-.11,2.55,2.55,0,0,1-.77.11c-.36,0-.94,0-1.74.11l-3.05.11c-.51.72-1,1.05-1.63,1-.15,0-.22-.15-.22-.44v-1.41a9.09,9.09,0,0,1-.11-1.75c-.07-.72-.11-1.3-.11-1.74v-.65a16.18,16.18,0,0,1-.11-1.64l1.85.87a2.59,2.59,0,0,1,.88.44h.87a16,16,0,0,1,1.63-.11l.87-1.09q.33.23.87.66a6.38,6.38,0,0,1,.88.65c.43.36.65.65.65.87s-.11.29-.33.44a1.39,1.39,0,0,0-.54.32l-.33,2.29a1.22,1.22,0,0,1,.44.44l.11.11h.32C140.14,130.58,141.09,131.16,141.09,132.18Zm-5.89,9h-1.09c-.8.07-1.41.11-1.85.11l.22,4.14c.94-.07,1.78-.11,2.51-.11Q135,144.82,135.2,141.22Zm.11-14.6c-.43,0-1,0-1.74.11h-1.2v.33c.07,1.09.11,2.18.11,3.27.36,0,.87,0,1.52-.11h1.09a16.18,16.18,0,0,1,.11-1.64A18.25,18.25,0,0,0,135.31,126.62Z"/><path class="cls-4" d="M100.1,153.57a7.22,7.22,0,0,1,4.05,1,3.85,3.85,0,0,1,1.69,3.39c0,3.34-2.84,4.73-5.2,4.74a4.08,4.08,0,0,1-.67,0l-1.42-.37v3.29c0,1.93.16,2,2.2,2.21v.78h-7v-.78c1.81-.21,2-.3,2-2.22v-8.91c0-2-.24-2.12-2-2.26v-.78Zm-1.55,7.77a3.49,3.49,0,0,0,1.38.25c1.22,0,3-.68,3-3.66,0-2.56-1.49-3.47-3.14-3.47a1.65,1.65,0,0,0-1,.24c-.17.15-.22.4-.22.84Z"/><path class="cls-4" d="M113.1,168.52h-5.79v-.73c1.3-.14,1.42-.26,1.42-1.68v-4.94c0-1.28-.09-1.38-1.26-1.59v-.66a18.58,18.58,0,0,0,3.82-.9v2.5c1-1.45,1.83-2.45,2.85-2.45a1.33,1.33,0,0,1,1.44,1.29,2,2,0,0,1-1,1.71.57.57,0,0,1-.67-.09c-.38-.33-.67-.65-1.07-.65s-1.06.44-1.51,1.42v4.36c0,1.42.15,1.51,1.81,1.68Z"/><path class="cls-4" d="M121.77,158.07a5.05,5.05,0,0,1,5.19,5.18,5.29,5.29,0,1,1-10.58.3A5.37,5.37,0,0,1,121.77,158.07Zm-.28.88c-1.13,0-2.2,1.14-2.2,3.91s1.06,5,2.66,5c1.07,0,2.1-.75,2.1-4C124.05,160.85,123.12,159,121.49,159Z"/><path class="cls-4" d="M128.36,158.86a25.88,25.88,0,0,0,3.92-1v1.72c.05,0,1.66-1,1.74-1a3.06,3.06,0,0,1,1.44-.48c2.53,0,4,2.25,4,4.49,0,3.4-2.7,5.62-5.68,6.24a4.1,4.1,0,0,1-1.51-.28v2.88c0,1.43.13,1.57,1.79,1.76v.72h-5.92v-.72c1.44-.15,1.56-.32,1.56-1.68V161.15c0-1.29-.1-1.41-1.35-1.58Zm3.92,8a3.22,3.22,0,0,0,2,.86c1.49,0,2.52-1.56,2.52-4.07,0-2.71-1.42-3.9-2.74-3.9a3.2,3.2,0,0,0-1.77.67Z"/></g></g></svg>