<svg xmlns="http://www.w3.org/2000/svg" xmlns:xlink="http://www.w3.org/1999/xlink" viewBox="0 0 57.97 57.97"><defs><style>.cls-1,.cls-2{fill:none;}.cls-2{stroke:#f8d069;stroke-miterlimit:10;stroke-width:3px;}.cls-3{clip-path:url(#clip-path);}.cls-4{fill:#32445a;}.cls-5{fill:#1f334a;}</style><clipPath id="clip-path"><circle class="cls-1" cx="28.83" cy="29.99" r="27.49"/></clipPath></defs><title>乐生</title><g id="图层_2" data-name="图层 2"><g id="图层_1-2" data-name="图层 1"><circle class="cls-2" cx="28.99" cy="28.99" r="27.49"/><g class="cls-3"><path class="cls-4" d="M36.67,16.42c-.26.48-.55.94-.77,1.43-.1.24-.54.54.08.82.26.12-.07.42-.23.56-.74.7-1.51,1.37-2.27,2.06s-.83,1.14.22,1.61c.78.35.56.64.15,1s-.38.73.12,1.05a6,6,0,0,1,.79.72c.14.16.3.34.16.57s-.38.18-.58.09c-.55-.26-.78-.16-.73.51a1.48,1.48,0,0,1-.27.8c-.38.63-.16,1,.41,1.41A38.54,38.54,0,0,0,37.32,31a2.1,2.1,0,0,1,1.29,1.67c0,.38.18.41.5.26a10.47,10.47,0,0,1,2.81-1,1,1,0,0,1,.63,0,.32.32,0,0,1,.24.32.28.28,0,0,1-.26.28c-3.19.58-5.77,2.41-8.42,4.07a73.4,73.4,0,0,0-6.42,4.71,4.87,4.87,0,0,1-1.86,1c.26-.47.66-.6.94-.86s.32-.32.07-.61a11.67,11.67,0,0,1-2.44-7.16c0-1,.79-1.58,1-2.45,0-.14.18-.12.29-.05s.1.2.06.31a11,11,0,0,1-.87,1.87.72.72,0,0,0-.17.59,15.63,15.63,0,0,0,2.24,6c.55.82.61.8,1.33.2a56.36,56.36,0,0,1,9.37-6.57c.45-.24.43-.58.41-1a.85.85,0,0,0-.52-.84,21.06,21.06,0,0,1-4.06-2.22c-.49-.36-1-.73-.93-1.48,0-.3-.18-.29-.38-.27-1.65.21-3.3.46-4.95.62-.65.06-.49.57-.64.89s-.13,1-.48.85c-.51-.18,0-.62.13-.92a3.21,3.21,0,0,0-1.12-3.5c-.23-.18-.23-.18-.85.19,1,1.52.83,3-.39,3.86a4.5,4.5,0,0,1,.51-1.76,1.8,1.8,0,0,0-.59-1.89,1.37,1.37,0,0,0-1.61.33c-.3.3-.45.15-.52-.18a9.33,9.33,0,0,0-.51-1.63.66.66,0,0,0-.95-.35c-.38.14,0,.49-.05.75s.13.24.19.37a2.25,2.25,0,0,1,.07,2.07A10.06,10.06,0,0,0,20,33c0,.23-.1.61.41.64.21,0,.08.37.05.57a64.43,64.43,0,0,0-.56,11.19,18.2,18.2,0,0,0,.76,4.5c-.58-.19-.73-.73-.92-1.21a9,9,0,0,1-.51-2.66,4.09,4.09,0,0,0-.55-1.74,40.12,40.12,0,0,1-2.6-7.22c-.07-.23-.06-.42.2-.52.87,2.24,1.63,4.54,2.63,6.76.27-.14.22-.32.23-.47A41.22,41.22,0,0,1,20,34.36c0-.14.09-.27-.1-.36-.44-.22-.5-.66-.58-1.08a2.21,2.21,0,0,0-.75-1.62c-.21-.15-.24-.45-.31-.7A2.88,2.88,0,0,0,17,29c-.35-.23-.44-.17-.51.26a3,3,0,0,0,1.29,2.83c.14.12.44.3.28.41-.34.24-.16.71-.46.89s-.3-.13-.26-.28c.14-.53-.22-.82-.49-1.18a3.4,3.4,0,0,1-.71-1.45c0-.23-.09-.45-.39-.39S15,30,15,30.49a7.52,7.52,0,0,0,0,4c.2.54.41,1.11,1,1.33.18.07.17.25.22.39a2.6,2.6,0,0,1-.4.1c-.31,0-.46-.23-.62-.43a5.21,5.21,0,0,1-.75-4.62,1.52,1.52,0,0,1,.06-.2c.19-.78.16-.81-.63-.7-3.68.5-7.35,1.08-11,1.39-.8.06-1.11-.13-1.35-.87a14.21,14.21,0,0,1-.33-2c-.07-.36.16-.33.37-.34,3.79-.19,7.54-.67,11.3-1.13.48-.06.73-.14.58-.73a2.06,2.06,0,0,1,.22-1.53c.09-.16.25-.35.45-.23s0,.28-.07.42a1.87,1.87,0,0,0-.13.4C13.62,27,14,27.33,15.35,27c-.2-.57-.9-.84-.93-1.64l1.27,1.15c.2-.31,0-.48-.11-.64a3.05,3.05,0,0,1-.34-1.73c0-.43.15-.86.6-.93s.58.31.74.63c.37.72.74,1.44,1.12,2.16a1.08,1.08,0,0,0,.33.39,8.5,8.5,0,0,0-.55-3.73c.57.29.66.84.82,1.34a9,9,0,0,1,.26,2.13c0,.42.19.5.58.45,1-.12,1-.09.74-1.08a14.31,14.31,0,0,0-.74-1.81,2.08,2.08,0,0,0-1.38-1.25c-.18-.06-.43,0-.36-.29s.32-.25.54-.19a2.69,2.69,0,0,1,1.76,1.46c.2.45.42.69.93.59a.65.65,0,0,1,.86.53,3.68,3.68,0,0,0,.21.45c.23.68.39,1.05,1.39.75.74-.23,1.78-.69,2.67,0,.11.09.37,0,.55,0,2.09-.17,4.18-.34,6.26-.54.25,0,.39.14.79.27-.64-.58-1-1.07-.27-1.62.21-.17,0-.32-.11-.47-1.52-1.5-1.54-1.23.15-2.74l.06-.05c1.17-.88,2.36-1.73,2.56-3.37a1.8,1.8,0,0,1,.63-1.1C36.39,16.3,36.47,16.42,36.67,16.42ZM16.05,28.32a1.76,1.76,0,0,1,1.44.46,1.3,1.3,0,0,0,2.15-.71l.15-.4c.26-.68.24-.7-.5-.6-1.93.26-3.87.53-5.81.78-3.42.44-6.84.79-10.29,1-1.67.11-1.78.36-1.13,2,.13.33.29.4.64.37,4.28-.46,8.53-1.14,12.79-1.73C16.21,29.38,16.37,29,16.05,28.32Zm11.26-.44c1.67-.21,3.34-.43,5-.62.49-.05.84-.16.76-.75s-.31-.84-.88-.79l-5.54.44c-.33,0-.43.15-.24.45a2.17,2.17,0,0,1,.47,1C26.91,27.92,27.11,27.89,27.31,27.88ZM16,23.62c-.23.1-.27.31-.29.53-.11,1,.62,1.76,1,2.6.09.19.41.12.59,0s.07-.29,0-.43a19.07,19.07,0,0,1-1.07-2.4C16.18,23.8,16.16,23.64,16,23.62ZM19,31.2a2.89,2.89,0,0,0,.17-1.41c0-.24-.23-.16-.38-.13s-.39,0-.27.29S18.69,30.82,19,31.2Z"/><path class="cls-5" d="M46.55,29.62l-.1.37a.83.83,0,0,0-.28,1l0,.34c0,.06,0,.14,0,.18s.15.08.22,0a.61.61,0,0,1,.44,0c.13.24.33.18.53.14a5.51,5.51,0,0,1,3.21,2.45c0,.17,0,.29.23.31a1.14,1.14,0,0,1,.34.54c0,.27.06.51.37.6a2,2,0,0,1,.37.77c-.05.18,0,.33.19.38a2.66,2.66,0,0,1,.38,1.05c0,.34,0,.7.3.95l.06.29c-.17.2-.15.34.11.42l.06.43c-.17.11-.14.21,0,.29a.57.57,0,0,1,.07.44.37.37,0,0,0,.06.55,5.7,5.7,0,0,1,0,1.43c-.18.14-.15.33-.1.52a.73.73,0,0,1-.4.74c-.05-1.25-.11-2.42-.16-3.58.08-.25.23-.52-.14-.69,0-.2-.07-.4-.1-.61a2,2,0,0,0-.45-1.39,16.4,16.4,0,0,0-2-3.52q0-.32-.27-.33a12.76,12.76,0,0,0-1.7-1.33c0-.23-.2-.25-.39-.19A7.19,7.19,0,0,0,44,32.11v-.28a4.33,4.33,0,0,1,1.49-.39c.37-.15.22-.44.17-.7a6.34,6.34,0,0,1,2.08-3.86,6.51,6.51,0,0,0,.87-.94,2.69,2.69,0,0,0,.65-1c.08-.44-.51-.42-.76-.67a19.51,19.51,0,0,1-3.61-4.18,10.38,10.38,0,0,1-1.51-6.48c.1-.7-.17-.74-.72-.66a8.68,8.68,0,0,0-3.94,1.56L38,15c-.28,0-.3-.21-.29-.42a3.91,3.91,0,0,1,1.39-1c.17,0,.29,0,.33-.21l.51-.23a2,2,0,0,0,1.2-.46.77.77,0,0,1,.51-.11c.18,0,.36.06.48-.12l.5,0a9.09,9.09,0,0,0,1.73,0l.78,0a.3.3,0,0,0,.36.11.72.72,0,0,1,.49.14,3.69,3.69,0,0,0,1.49.58l.22.08a1.05,1.05,0,0,0,.9.5,6.5,6.5,0,0,1,3,5,20.77,20.77,0,0,1-.06,3.78.88.88,0,0,0,.1.61,4.3,4.3,0,0,1,.5,2.81c0,.14-.13.29,0,.4,1.09.76.69,1.87.65,2.87,0,.34-.11.62.15.91a1.18,1.18,0,0,1,.21.67,2.65,2.65,0,0,0,.42,1.1,3.57,3.57,0,0,1,.11,2.9c-.06.16-.31.35-.09.49s.21-.2.32-.3.39-.13.54.07a1,1,0,0,1,.19.68c0,.58-.1,1.14.6,1.42.21.08.21.36.07.56a.43.43,0,0,1-.69.08c-.72-.79-1.7-1.35-2.18-2.36a1.39,1.39,0,0,1,0-1.37c.28-.44,0-.66-.14-1a5,5,0,0,1-.9-3.38c.06-.34-.1-.46-.33-.63a2.52,2.52,0,0,1-1.27-2.1,2.62,2.62,0,0,0,0-.28c0-.32.51-.69.11-.88s-.46.49-.79.64c-.18,0-.24.13-.24.29a1.38,1.38,0,0,1-.49.55c-.38.09,0,.69-.51.71l-.55.32c-.22,0-.31.11-.29.32l-.13.24A.61.61,0,0,0,46.55,29.62Z"/><path class="cls-4" d="M43.67,25.25a2,2,0,0,1-.9,1.62,8.19,8.19,0,0,1-3.24,1.38c-.22.06-.46.06-.51-.22s.18-.36.38-.43c.61-.2,1.23-.37,1.83-.59a3.71,3.71,0,0,0,1.47-1,1.29,1.29,0,0,0,.21-1.58c-.3-.55-.79-.52-1.31-.36-.2.06-.52.23-.6-.09s.27-.28.46-.34A1.56,1.56,0,0,1,43.67,25.25Z"/><path class="cls-4" d="M37,22.4a1.76,1.76,0,0,1-1.54-1.17c0-.13-.07-.24.06-.31s.23,0,.3.12c.43.63.94,1,1.72.54a.23.23,0,0,1,.31.08c.12.15,0,.27,0,.39A.93.93,0,0,1,37,22.4Z"/><path class="cls-4" d="M22.6,29.37c0-.85.55-1.61.32-2.53C23.51,27.21,23.32,28.63,22.6,29.37Z"/><path class="cls-4" d="M37.67,14.58c0,.21,0,.41.29.42a.86.86,0,0,1-.44.42c-.22-.61-.42.13-.64,0A2.06,2.06,0,0,1,37.67,14.58Z"/><path class="cls-4" d="M44.32,12.39a9.09,9.09,0,0,1-1.73,0A2.45,2.45,0,0,1,44.32,12.39Z"/><path class="cls-4" d="M47.44,13.25A3.69,3.69,0,0,1,46,12.67,3.11,3.11,0,0,1,47.44,13.25Z"/><path class="cls-5" d="M36.88,15.42c.22.13.42-.61.64,0l-.41.43a.29.29,0,0,1-.31-.31Z"/><path class="cls-4" d="M51.75,37.56A2,2,0,0,1,52.2,39,5.65,5.65,0,0,1,51.75,37.56Z"/><path class="cls-4" d="M47.81,28.11c.47,0,.13-.62.51-.71C48.33,28.26,48.33,28.26,47.81,28.11Z"/><path class="cls-4" d="M41.1,12.65a2,2,0,0,1-1.2.46A2.4,2.4,0,0,1,41.1,12.65Z"/><path class="cls-4" d="M36.8,15.54a.29.29,0,0,0,.31.31,1,1,0,0,1-.4.51l-.32-.27A.91.91,0,0,1,36.8,15.54Z"/><path class="cls-4" d="M46.17,31a.83.83,0,0,1,.28-1A2.82,2.82,0,0,1,46.17,31Z"/><path class="cls-4" d="M48.56,13.83a1.05,1.05,0,0,1-.9-.5A1.75,1.75,0,0,1,48.56,13.83Z"/><path class="cls-4" d="M52.72,38.72c-.31-.25-.26-.61-.3-.95A1.62,1.62,0,0,1,52.72,38.72Z"/><path class="cls-4" d="M46.55,29.62a.61.61,0,0,1,.29-.63A.89.89,0,0,1,46.55,29.62Z"/><path class="cls-4" d="M45.6,30.74c0,.26.2.55-.17.7C45.47,31.2,45.4,30.94,45.6,30.74Z"/><path class="cls-4" d="M51.48,35.57c-.31-.09-.36-.33-.37-.6A1.06,1.06,0,0,1,51.48,35.57Z"/><path class="cls-4" d="M52.3,39.56c.37.17.22.44.14.69A1.17,1.17,0,0,1,52.3,39.56Z"/><path class="cls-4" d="M53.1,41.14a.37.37,0,0,1-.06-.55A.63.63,0,0,1,53.1,41.14Z"/><path class="cls-4" d="M47.33,31.67c-.2,0-.4.1-.53-.14A.5.5,0,0,1,47.33,31.67Z"/><path class="cls-4" d="M43.94,31.83v.28c-.1.1-.24.13-.28,0S43.76,31.84,43.94,31.83Z"/><path class="cls-4" d="M52.89,39.43c-.26-.08-.28-.22-.11-.42A.46.46,0,0,1,52.89,39.43Z"/><path class="cls-4" d="M42.09,12.42c-.12.18-.3.15-.48.12A.42.42,0,0,1,42.09,12.42Z"/><path class="cls-4" d="M53,43.09c0-.19-.08-.38.1-.52A.5.5,0,0,1,53,43.09Z"/><path class="cls-4" d="M49.52,33.71q.31,0,.27.33A.44.44,0,0,1,49.52,33.71Z"/><path class="cls-5" d="M36.39,16.09l.32.27v0l0,0c-.2,0-.28-.12-.29-.31Z"/><path class="cls-4" d="M39.39,13.34c0,.19-.16.23-.33.21A.39.39,0,0,1,39.39,13.34Z"/><path class="cls-4" d="M46.36,31.49c-.07.08-.16.09-.22,0s0-.12,0-.18Z"/><path class="cls-4" d="M52,36.72c-.21,0-.24-.2-.19-.38A.41.41,0,0,1,52,36.72Z"/><path class="cls-4" d="M47,28.75c0-.21.07-.32.29-.32Z"/><path class="cls-4" d="M48.81,26.85c0-.16.06-.27.24-.29A.33.33,0,0,1,48.81,26.85Z"/><path class="cls-4" d="M47.43,32.19c.19-.06.34,0,.39.19A.45.45,0,0,1,47.43,32.19Z"/><path class="cls-4" d="M53,40.15c-.16-.08-.19-.18,0-.29Z"/><path class="cls-4" d="M45.46,12.53a.3.3,0,0,1-.36-.11A.27.27,0,0,1,45.46,12.53Z"/><path class="cls-4" d="M50.77,34.43c-.19,0-.25-.14-.23-.31A.36.36,0,0,1,50.77,34.43Z"/></g></g></g></svg>