<svg xmlns="http://www.w3.org/2000/svg" viewBox="0 0 50.63 50.63"><defs><style>.cls-1{fill:#1c3048;}.cls-2{fill:#20354c;}.cls-3{fill:none;stroke:#f8d069;stroke-miterlimit:10;stroke-width:3px;}</style></defs><title>口齿清楚</title><g id="图层_2" data-name="图层 2"><g id="图层_1-2" data-name="图层 1"><path class="cls-1" d="M12.63,25.27l.12,0,.67-.3s0,0,0-.05l.18-.06c.2-.07.23-.18.06-.33a1.79,1.79,0,0,1-.27-.28c-.17-.21-.06-.42,0-.68.15.19.19.42.35.57.34.34.52.36.92.12a14.45,14.45,0,0,1,3.76-1.74,4.72,4.72,0,0,1,1.34-.24,14.5,14.5,0,0,1,3.29.16c.06,0,.12,0,.23,0l-.69-1c0-.05-.09-.07-.11-.11s-.09-.25,0-.33.19,0,.27.08l.69.78a3.7,3.7,0,0,0,2.07,1.25,3.07,3.07,0,0,0,1.53-.15,8.61,8.61,0,0,0,2.53-1.6.22.22,0,0,1,.34,0c.14.11.09.24,0,.35a4.37,4.37,0,0,1-.7.85h1.6a7.09,7.09,0,0,1,3.82,1.16,1,1,0,0,0,1.26,0,5,5,0,0,0,1.22-1.2,1.49,1.49,0,0,1,.12-.14s.07-.11.15-.07.07.12,0,.18a2,2,0,0,1-.47.73,6,6,0,0,1-1.26.93c-.16.09-.16.13,0,.22l1,.69a.33.33,0,0,0,.4,0A4.77,4.77,0,0,0,38.3,23.9l.19-.2s.06-.06.11,0,0,.07,0,.13a1.56,1.56,0,0,1-.48.73,6.87,6.87,0,0,1-.74.69c-.13.11-.09.14,0,.2a6.86,6.86,0,0,0,2.17.89,2.31,2.31,0,0,0,1.24-.2,2,2,0,0,1,.73-.17c-.09.23-.31.32-.49.49a3.59,3.59,0,0,0,1.47-.18,6.36,6.36,0,0,0,.62-.19c.08,0,.17-.07.22,0s-.08.12-.13.14a4.46,4.46,0,0,1-3.74.72,4.14,4.14,0,0,0-2.39,0,5.21,5.21,0,0,0-1.5.69,4.62,4.62,0,0,1-1.08.44c-.73.25-1.44.55-2.18.77a34.49,34.49,0,0,1-4.49,1.07,22.45,22.45,0,0,1-4.41.15,14.51,14.51,0,0,1-3.37-.63,17.47,17.47,0,0,1-3.48-1.4,7.31,7.31,0,0,1-1.44-.88,2.67,2.67,0,0,0-1.27-.51,10.5,10.5,0,0,0-2.17-.3,5.81,5.81,0,0,0-.83.07,4.88,4.88,0,0,1-3-.41c-.36-.19-.74-.33-1.08-.55l0-.1,1.94.46a.12.12,0,0,0,.11.09,11,11,0,0,0,2.56-.19s.05-.05.08-.08a5.68,5.68,0,0,1,.7-.22C12.42,25.42,12.57,25.44,12.63,25.27Zm3.5-.43c.09,0,.17.05.24,0a1.79,1.79,0,0,0,.48-.92c0-.12-.09-.06-.16,0l-1.43.76c-.08,0-.14,0-.13.12s.07.06.11,0a.21.21,0,0,1,.2,0c0,.08.1.07.17,0A.84.84,0,0,1,16.13,24.84Zm5.14-1.95c-.46,0-.92,0-1.37,0a5,5,0,0,0-1.33.24c-.1,0-.18.05-.19.17a7,7,0,0,0-.13.92c0,.54,0,.55.5.71a18.5,18.5,0,0,0,1.93.56c.54.11,1.08.15,1.63.22a7.37,7.37,0,0,0,3.39-.29.64.64,0,0,0,.49-.52c0-.23,0-.45.11-.67s0-.39-.3-.41a3.06,3.06,0,0,1-1.63-.5,2.34,2.34,0,0,0-.93-.32C22.72,22.89,22,22.93,21.27,22.89ZM36,25.29a19.49,19.49,0,0,0-1.87-1.18,6.36,6.36,0,0,0-3.41-.92c-.72,0-1.45,0-2.17,0-.32,0-.55.1-.52.53a6.61,6.61,0,0,1,0,1.09.53.53,0,0,0,.46.6,15.36,15.36,0,0,0,3.28.58,9,9,0,0,0,1.64-.06C34.27,25.77,35.12,25.51,36,25.29Z"/><path class="cls-2" d="M8.28,21.25a2.23,2.23,0,0,1,.52-.62A53.64,53.64,0,0,1,13,17.19,52.86,52.86,0,0,1,17.91,14a6.24,6.24,0,0,1,2.38-1,3.86,3.86,0,0,1,1.58.16,17.58,17.58,0,0,1,2.28.67A6.3,6.3,0,0,1,26.06,15a1.35,1.35,0,0,1,.39.55c0,.13.11.15.19,0a3.51,3.51,0,0,1,1.72-1.27c.62-.29,1.23-.62,1.87-.85a4.44,4.44,0,0,1,3.07-.06,15.39,15.39,0,0,1,4.2,2.41c.83.66,1.59,1.4,2.4,2.07a35.39,35.39,0,0,1,3.26,3.22c.11.12.2.25.09.37s-.25,0-.34-.1c-1.14-1-2.42-1.89-3.61-2.86a25.49,25.49,0,0,0-4.75-3.06A7.86,7.86,0,0,0,29,14.8,3.14,3.14,0,0,0,27,16c-.07.11-.18.33-.37.11,0,0-.05,0-.05,0-.29.3-.36-.07-.49-.17a6,6,0,0,0-1.93-1.15,10,10,0,0,0-3.73-.26,9.44,9.44,0,0,0-3,.91,35,35,0,0,0-3.94,2.16,52.68,52.68,0,0,0-4.57,3.27A2.36,2.36,0,0,1,8.28,21.25Z"/><path class="cls-2" d="M11.61,30.31a11.46,11.46,0,0,0,1.76,2,13.27,13.27,0,0,0,2.11,1.71,28.18,28.18,0,0,0,4.14,2.36,19,19,0,0,0,3.59,1.14,15.71,15.71,0,0,0,5,.17,16.35,16.35,0,0,0,3.71-1,23.68,23.68,0,0,0,4.91-2.63,42.08,42.08,0,0,0,3.74-2.91c.47-.41.92-.84,1.38-1.26.06,0,.09-.11.2-.08,0,.19-.19.3-.29.45a18.55,18.55,0,0,1-3.46,3.51,23.1,23.1,0,0,1-3.63,2.41,18.27,18.27,0,0,1-3.44,1.47,17,17,0,0,1-3.61.73,14.77,14.77,0,0,1-3.19-.06,16,16,0,0,1-3.32-.76,20.6,20.6,0,0,1-5.88-3.24,18.82,18.82,0,0,1-2.34-2,12.6,12.6,0,0,1-1.21-1.42A.82.82,0,0,1,11.61,30.31Zm13.8,8v0h1.72v0Z"/><path class="cls-2" d="M34.48,17.7a1.53,1.53,0,0,1-.15.76c0,.11-.11.26-.25.21s-.07-.18-.08-.29a12.37,12.37,0,0,0,0-1.49,3,3,0,0,0-.68-1.32c-.05-.07-.14-.14-.06-.2s.12,0,.18.09a3.91,3.91,0,0,1,.77.94A3.32,3.32,0,0,1,34.48,17.7Z"/><path class="cls-2" d="M36,30.59a2.79,2.79,0,0,1-.08,1.78l-.45,1.56c0,.13-.12.25-.28.22s-.09-.18-.09-.28.14-.38.21-.57a8,8,0,0,0,.56-2.42C35.82,30.74,35.83,30.74,36,30.59Z"/><path class="cls-2" d="M33.27,35.7A6.91,6.91,0,0,0,34,34.09a14.77,14.77,0,0,0,.6-2.55c.08-.51,0-1,.08-1.52,0-.08-.06-.22.09-.21s.09.14.09.22a10.26,10.26,0,0,1-.17,2,12.51,12.51,0,0,1-1,3.17c-.08.17-.14.36-.38.39C33.28,35.6,33.25,35.67,33.27,35.7Z"/><path class="cls-2" d="M19.88,15.93a17.38,17.38,0,0,0-1.21,2.35,7.91,7.91,0,0,0-.16.82c0,.07,0,.16-.1.17s-.07-.1-.09-.16a2,2,0,0,1,.32-1.59,6.41,6.41,0,0,1,1-1.51C19.73,15.94,19.77,15.84,19.88,15.93Z"/><path class="cls-2" d="M37.17,23.83a.43.43,0,0,1,.12-.29,4.76,4.76,0,0,0,1.32-2.4c0-.08,0-.18.14-.17s.12.12.13.22a1.71,1.71,0,0,1-.31,1.14,7,7,0,0,1-1,1.31A1,1,0,0,1,37.17,23.83Z"/><path class="cls-2" d="M19,15.15c0,.06,0,.11,0,.12a10.78,10.78,0,0,0-1.83,2.84A3.79,3.79,0,0,1,19,15.15Z"/><path class="cls-2" d="M14.85,32.44a7.71,7.71,0,0,1,.75-2.39c0-.05,0-.18.12-.12s0,.12,0,.18c-.13.54-.29,1.07-.42,1.61-.08.37-.14.75-.22,1.12,0,.07,0,.19-.1.19s-.11-.13-.12-.21A2.17,2.17,0,0,1,14.85,32.44Z"/><path class="cls-2" d="M37.39,31.08a5,5,0,0,1-.5,1.59c0,.08-.17.19-.28.11s-.09-.26,0-.37a8.43,8.43,0,0,0,.38-1c.08-.26,0-.53.15-.78,0-.07,0-.16.11-.15s.07.09.08.14A1.17,1.17,0,0,1,37.39,31.08Z"/><path class="cls-2" d="M11.7,22.51a1.58,1.58,0,0,1,0,.38,2,2,0,0,0,.47,1.95s.08.07.11.11a.17.17,0,0,1,0,.18c-.06.06-.11,0-.16,0a1.63,1.63,0,0,1-.74-1.21,1.88,1.88,0,0,1,.36-1.37Z"/><path class="cls-2" d="M36.27,20.23c.32.64.06,1.24-1.06,2.46v0h0s0,0,0,0A9.41,9.41,0,0,0,36,21.4a2,2,0,0,0,.22-1C36.21,20.3,36.2,20.24,36.27,20.23Z"/><path class="cls-2" d="M17.47,32.28a11.29,11.29,0,0,0-.18,1.3.22.22,0,0,1-.22.22c-.08,0-.14-.11-.14-.21A4.75,4.75,0,0,1,17.31,32s.06,0,.1,0a.07.07,0,0,1,.07.08C17.48,32.13,17.47,32.2,17.47,32.28Z"/><path class="cls-2" d="M25.32,21.25a1.32,1.32,0,0,0,.48.95,7.74,7.74,0,0,0,1,.55,1.13,1.13,0,0,1-1.18-.52C25.37,22,25.1,21.67,25.32,21.25Z"/><path class="cls-2" d="M26.93,22.53a3.32,3.32,0,0,0,1-1l.06-.13c0-.09-.07-.3.13-.23a.29.29,0,0,1,.13.37,1.68,1.68,0,0,1-.61.76A1.31,1.31,0,0,1,26.93,22.53Z"/><path class="cls-2" d="M38.94,29.17a4.33,4.33,0,0,1-.09,1.53,9.6,9.6,0,0,1-.25,1.06s0,.11-.08.1-.07-.07-.06-.13a9.25,9.25,0,0,0,.34-2.28A.36.36,0,0,1,38.94,29.17Z"/><path class="cls-2" d="M13.44,24.89s0,.05,0,.05l-.67.3c.22-.12.11-.22,0-.34a1.53,1.53,0,0,1-.52-1.38c.12,0,.1.11.1.17a1.58,1.58,0,0,0,.6,1.1A.39.39,0,0,0,13.44,24.89Z"/><path class="cls-2" d="M35.72,17.62c0,.35,0,.62-.34.75s-.27,0-.19-.17a1.84,1.84,0,0,0,.14-.92c0-.09,0-.18.1-.21s.11.09.14.14S35.76,17.51,35.72,17.62Z"/><path class="cls-2" d="M10.4,22.33a3.65,3.65,0,0,0-.62,1.72A1.56,1.56,0,0,1,10.4,22.33Z"/><path class="cls-2" d="M11.58,25.65s-.05.08-.08.08a11,11,0,0,1-2.56.19.12.12,0,0,1-.11-.09h1.68c0-.23-.28-.19-.32-.43A1.82,1.82,0,0,0,11.58,25.65Z"/><path class="cls-2" d="M20.11,18a1.62,1.62,0,0,1,.26-.53.88.88,0,0,1,.19-.27c.09-.08.07-.33.25-.23s-.07.18-.11.28a3.78,3.78,0,0,0-.23.67.49.49,0,0,1-.08.23c0,.07-.06.2-.19.15S20.11,18.16,20.11,18Z"/><path class="cls-2" d="M16.4,31.59c.09,0,.07.12.05.19a5.72,5.72,0,0,0-.27,1.54s0,.13-.07.14-.1-.06-.11-.14a3.23,3.23,0,0,1,.1-.82,5.09,5.09,0,0,1,.19-.77A.16.16,0,0,1,16.4,31.59Z"/><path class="cls-2" d="M38,30.37a.67.67,0,0,1,.15.65,1.34,1.34,0,0,1-.14.62s0,.11-.1.08-.09-.06-.07-.12A5,5,0,0,0,38,30.37Z"/><path class="cls-2" d="M36.31,17.88c.24.23.31.67.14.84s-.1.15-.2.09-.07-.11-.08-.18A1.78,1.78,0,0,1,36.31,17.88Z"/><path class="cls-2" d="M12.63,25.27c-.06.17-.21.15-.35.16A.66.66,0,0,1,12.63,25.27Z"/><path class="cls-2" d="M11.71,22.52c.07-.05,0-.17.1-.2s-.12.1-.11.19Z"/><path class="cls-2" d="M15.26,24.62l0,.14s-.09,0-.11,0S15.18,24.62,15.26,24.62Z"/><path class="cls-2" d="M15.44,24.8a.11.11,0,0,1,.17,0C15.54,24.87,15.48,24.88,15.44,24.8Z"/><path class="cls-1" d="M25.41,38.33h1.73v0H25.42Z"/><circle class="cls-3" cx="25.32" cy="25.32" r="23.82"/></g></g></svg>