<svg xmlns="http://www.w3.org/2000/svg" viewBox="0 0 50.63 50.63"><defs><style>.cls-1{fill:#182d45;}.cls-2{fill:none;stroke:#f8d069;stroke-miterlimit:10;stroke-width:3px;}</style></defs><title>声音悦耳</title><g id="图层_2" data-name="图层 2"><g id="图层_1-2" data-name="图层 1"><path class="cls-1" d="M31.89,13.89H33a.3.3,0,0,1,.29.16,30,30,0,0,0,2.83,3.53,19,19,0,0,1,2.4,3.17,4.29,4.29,0,0,1,.61,2.79,4.15,4.15,0,0,1-.92,1.91c-.26.34-.56.66-.84,1a.24.24,0,0,1-.38,0c-.65-.49-.65-.49-.4-1.26A3.43,3.43,0,0,0,36.72,24a1.57,1.57,0,0,0-1.3-1.67A9,9,0,0,0,33.48,22c-.24,0-.3,0-.3.28,0,2.5,0,5,0,7.49a3.19,3.19,0,0,1-.8,2.14A7.81,7.81,0,0,1,30,33.75a8.66,8.66,0,0,1-2.67,1,5.41,5.41,0,0,1-2.82-.1,1.75,1.75,0,0,1-1.19-2.14,4.64,4.64,0,0,1,1.57-2.24,9.45,9.45,0,0,1,4.6-2.09,3.54,3.54,0,0,1,.73,0c.27,0,.36-.07.36-.36,0-1.93,0-3.86,0-5.79,0-2.57,0-5.15,0-7.72,0-.26.06-.36.34-.34s.64,0,1,0Zm-5.4,19H26c-.2,0-.38,0-.37.3s.18.27.36.28a5.56,5.56,0,0,0,2.25-.35,7.47,7.47,0,0,0,2.62-1.65c.34-.33.69-.65,1-1,.13-.13.24-.29.06-.48s-.31,0-.46.05-.05.06-.08.08c-.36.35-.71.7-1.08,1A6.18,6.18,0,0,1,26.49,32.88Zm7.18-16.24a.21.21,0,0,0,0,.12A17,17,0,0,0,35.38,19a.22.22,0,0,0,.34,0c.1-.1,0-.21,0-.3-.2-.25-.4-.49-.61-.73a17.23,17.23,0,0,1-1-1.4c-.06-.09-.13-.17-.26-.13S33.66,16.52,33.67,16.64Zm3.7,4.5a.84.84,0,0,0,0-.17,12.73,12.73,0,0,0-.86-1.18.22.22,0,0,0-.29-.08.19.19,0,0,0-.06.28c.3.43.61.86.92,1.28a.18.18,0,0,0,.21.05C37.32,21.28,37.38,21.23,37.37,21.14Z"/><path class="cls-1" d="M28.59,20.33c0,1.05,0,2.1,0,3.16a1.51,1.51,0,0,1-.54,1.25,3.91,3.91,0,0,1-2.93,1.1.91.91,0,0,1-.71-1.58,3.8,3.8,0,0,1,2.52-1.41c.19,0,.24-.09.25-.27,0-1.1,0-2.21,0-3.31,0-.2-.07-.26-.27-.26-1.34,0-2.67,0-4,0-.22,0-.3.06-.3.29,0,1.34,0,2.68,0,4a1.83,1.83,0,0,1-.7,1.54,3.87,3.87,0,0,1-2.94,1,1,1,0,0,1-.76-.43.83.83,0,0,1,.07-1A3.46,3.46,0,0,1,20.16,23a2.52,2.52,0,0,1,.82-.19c.22,0,.21-.18.21-.34,0-1.81,0-3.61,0-5.41,0-.53,0-.53.54-.54,2.18,0,4.35,0,6.52,0,.27,0,.33.08.32.33,0,1.15,0,2.3,0,3.45Zm-2.11-2.72c.22,0,.32-.1.31-.27a.27.27,0,0,0-.29-.26.25.25,0,0,0-.25.27C26.25,17.5,26.33,17.63,26.48,17.61Zm1.08-.19c0-.19-.09-.29-.26-.29a.27.27,0,0,0-.28.28.28.28,0,0,0,.29.26A.23.23,0,0,0,27.56,17.42Z"/><path class="cls-1" d="M8.1,31.29A3.63,3.63,0,0,0,9,31a.69.69,0,0,1,1,.58,3.77,3.77,0,0,0,.5,1.7,6.76,6.76,0,0,0,.77.83,9.1,9.1,0,0,1,1.57,2.08,2.55,2.55,0,0,1,.21,1,10.16,10.16,0,0,1,0,1.46,2.55,2.55,0,0,1-.71,1.66,3.06,3.06,0,0,0-.41.7A2.67,2.67,0,0,1,9.6,42.32c-.37,0-.6-.25-.47-.55a.62.62,0,0,1,.51-.33,2,2,0,0,0,1.77-1.34A8.68,8.68,0,0,0,12,38.63a3.74,3.74,0,0,0-.48-2.83c-.49-.67-1-1.32-1.5-2a3,3,0,0,1-.43-1.75c0-.35,0-.38-.36-.27-.61.2-1.24.27-1.86.43-.24.06-.47.23-.74.07s-.3-.17-.24-.48a1.84,1.84,0,0,1,1.11-1.27c.56-.3,1.09-.65,1.66-1A7.79,7.79,0,0,1,6.94,27a1,1,0,0,1-.2-.68c0-.06,0-.15.07-.17s.08.06.11.11a8.52,8.52,0,0,0,1,1.4,6.42,6.42,0,0,0,1.65,1.51.51.51,0,0,1,.08.82,7.45,7.45,0,0,1-1.1.92A1.25,1.25,0,0,0,8.1,31.29Z"/><path class="cls-1" d="M17,20a.47.47,0,0,1,.42.3.6.6,0,0,1-.11.68c-.68.78-1.44,1.5-2.16,2.26a15.78,15.78,0,0,1-3,2.53,2.82,2.82,0,0,1-.38.21.24.24,0,0,1-.32-.05.27.27,0,0,1-.07-.31,1.57,1.57,0,0,1,.35-.49c1.62-1.54,3.07-3.24,4.62-4.85A.76.76,0,0,1,17,20Z"/><path class="cls-1" d="M2.57,19.59a7.88,7.88,0,0,0,3.21,2.57c.21.1.41.22.62.31s.27.3.28.53A9.16,9.16,0,0,1,6,25.82a1.1,1.1,0,0,1-.42.73c-.09.06,0,.18,0,.28a1.8,1.8,0,0,1,0,.61c0,.08-.05.15-.17.15s-.14-.08-.16-.17a4.83,4.83,0,0,1,0-1.93c.17-.65.55-1.21.73-1.85.07-.22,0-.35-.18-.42a6.46,6.46,0,0,1-2.76-2l-.28-.32A1.05,1.05,0,0,1,2.57,19.59Z"/><path class="cls-1" d="M15.38,36c.45,0,.9,0,1.34.06.6,0,1.19.15,1.78.23,1.07.13,2.1.43,3.15.59.55.09,1.09.16,1.64.22s.66.26.62.6a.6.6,0,0,1-.72.51,18.08,18.08,0,0,1-3.4-.73l-2.24-.57a8,8,0,0,1-1.46-.38A2,2,0,0,1,15.38,36Z"/><path class="cls-1" d="M15.55,30.37c-.22,0-.58.12-1,.08,0,0-.1,0-.14,0s-.39-.08-.41-.27.16-.26.31-.33a4.92,4.92,0,0,1,1.06-.3c.65-.15,1.32-.21,2-.39l1.21-.31c.45-.12.8,0,.91.31a.53.53,0,0,1-.36.71,8.4,8.4,0,0,1-2,.36C16.66,30.24,16.19,30.4,15.55,30.37Z"/><circle class="cls-2" cx="25.32" cy="25.32" r="23.82"/></g></g></svg>