<svg xmlns="http://www.w3.org/2000/svg" viewBox="0 0 51.31 51.31"><defs><style>.cls-1,.cls-4{fill:none;}.cls-2{fill:#1d3249;}.cls-3{fill:#1a2f47;}.cls-4{stroke:#e3494e;stroke-miterlimit:10;stroke-width:3px;}</style></defs><title>文化程度</title><g id="图层_2" data-name="图层 2"><g id="图层_1-2" data-name="图层 1"><path class="cls-1" d="M24.58,28.93a13.78,13.78,0,0,0,3.77.57A8.94,8.94,0,0,0,34,27.64a8.16,8.16,0,0,0,1.19-1.4l-1.67-1.67A23.74,23.74,0,0,1,24.58,28.93Z"/><path class="cls-1" d="M24.58,28.93a13.78,13.78,0,0,0,3.77.57A8.94,8.94,0,0,0,34,27.64a4.52,4.52,0,0,0,.48-.49c-.68-.59-1.37-1.17-2.07-1.76A23.78,23.78,0,0,1,24.58,28.93Z"/><path class="cls-1" d="M33.49,24.57l-.14.11,1.77,1.61,0-.05Z"/><path class="cls-2" d="M5.28,38.89c-.38-.45-.2-.74.18-1.11,3.05-2.9,6.22-5.66,9.37-8.46,1.22-1.09,2.34-2.28,3.51-3.43.26-.26.54-.5.82-.75.12-.11.28-.19.42,0s.08.32,0,.46l-1.59,1.69c-2.61,2.82-5.53,5.3-8.39,7.86L5.64,38.62C5.52,38.72,5.43,38.87,5.28,38.89Z"/><path class="cls-2" d="M2.12,21.42c-.3,0-.32-.09-.28-.21A2.77,2.77,0,0,1,2.44,20a84.63,84.63,0,0,1,7.91-7.11,14.32,14.32,0,0,1,2.75-1.67c.16-.08.35-.2.47,0s-.07.35-.21.47c-1.17,1-2.34,1.9-3.5,2.86-2.57,2.12-5,4.43-7.45,6.65C2.29,21.25,2.19,21.41,2.12,21.42Z"/><path class="cls-2" d="M6.35,27.24a2.83,2.83,0,0,1,.86-1.52,25.2,25.2,0,0,1,3.15-3l5.3-4.61a6.69,6.69,0,0,1,1.47-1c.2-.09.41-.17.56.05s0,.37-.15.51c-1.05,1-2.2,2-3.29,3C12.26,22.49,10,24,8,25.77,7.43,26.25,6.88,26.73,6.35,27.24Z"/><path class="cls-2" d="M26.58,27.08a.5.5,0,0,1,.47.28.35.35,0,0,1-.11.47c-2.39,1.62-3.85,4.12-5.89,6.07C20,35,18.82,36,17.75,37.07c-.08.09-.17.24-.31.08s0-.23.1-.32a31.93,31.93,0,0,1,2.5-3c1.41-1.55,2.72-3.18,4.08-4.76a10.11,10.11,0,0,1,1.8-1.66A1.34,1.34,0,0,1,26.58,27.08Z"/><path class="cls-3" d="M36.18,27.28A8.35,8.35,0,0,0,37,26l-3.38-3.38a16.78,16.78,0,0,1-1.31,1.09A188.27,188.27,0,0,0,15.7,10.56s-.88,0,.88,1.76c.91.92,7.78,6.36,14.66,12.11a21.74,21.74,0,0,1-11.95,3.71h-.07a18.83,18.83,0,0,0,9.12,2.8,10.69,10.69,0,0,0,1.27-.08,10.53,10.53,0,0,0,2.89-.71,10.17,10.17,0,0,0,2.35-1.38,5.53,5.53,0,0,0,.69-.69c4.69,4,8.74,7.78,10,9.73h.88l-.88-.88C42.55,33.49,39.33,30.25,36.18,27.28ZM34,27.64a8.94,8.94,0,0,1-5.62,1.86,13.78,13.78,0,0,1-3.77-.57,23.78,23.78,0,0,0,7.8-3.54c.37-.25.69-.49,1-.71l.14-.11,1.67,1.67,0,.05c-.22.31-.46.61-.67.86A4.52,4.52,0,0,1,34,27.64Z"/><path class="cls-3" d="M41.32,21.6c1.54-2.26,3.79-5.11,5.69-7.35a18.62,18.62,0,0,0-1.27-2.1c-2.3,2-5.4,4.42-7.8,6.06-3.54,2.42-3.57,3.58-3.57,3.58l3.38,3.38S38.91,25.14,41.32,21.6Z"/><circle class="cls-4" cx="25.66" cy="25.66" r="24.16"/></g></g></svg>