<svg xmlns="http://www.w3.org/2000/svg" viewBox="0 0 1101 360"><defs><style>.cls-1,.cls-2,.cls-3,.cls-5,.cls-7{fill:none;stroke:#fff;stroke-miterlimit:10;}.cls-1{stroke-width:2px;}.cls-3{stroke-width:0.96px;}.cls-4{fill:#fff;}.cls-5{stroke-width:1.01px;}.cls-6{writing-mode:tb;text-orientation:upright;glyph-orientation-vertical:0deg;font-size:16px;fill:#f2f7d9;font-family:FZCUJINLJW--GB1-0, FZJinLS-B-GB;}.cls-7{stroke-width:1.98px;}</style></defs><title>浏阳孔庙乐舞仪式空间布局图</title><g id="图层_2" data-name="图层 2"><g id="图层_1-2" data-name="图层 1"><polygon class="cls-1" points="72.76 94.34 31.76 94.45 32.25 271.45 73.25 271.34 73.39 320.34 1074.38 317.55 1074.12 220.55 1029.12 220.67 1028.87 133.67 1073.87 133.55 1073.61 39.55 72.61 42.34 72.76 94.34"/><rect class="cls-2" x="114" y="115" width="102" height="126"/><line class="cls-2" x1="84" y1="161" x2="115" y2="161"/><line class="cls-2" x1="84" y1="203" x2="115" y2="203"/><line class="cls-2" x1="89" y1="161" x2="89" y2="203"/><polyline class="cls-2" points="95 161 95 203 95 266 254 266 254 297"/><line class="cls-2" x1="102" y1="161" x2="102" y2="203"/><line class="cls-2" x1="108" y1="161" x2="108" y2="203"/><polyline class="cls-2" points="268 297 268 266 349 266 349 200 378 200 378 161 347 161 347 95 268 95 268 65"/><polyline class="cls-2" points="254 63 254 94.63 95 94.63 95 160"/><rect class="cls-2" x="286" y="103" width="51" height="47"/><rect class="cls-2" x="286" y="211" width="51" height="47"/><rect class="cls-2" x="355" y="171" width="16" height="19"/><polygon class="cls-2" points="454.93 111 441.07 111 434.14 123 441.07 135 454.93 135 461.86 123 454.93 111"/><circle class="cls-2" cx="448" cy="124" r="4"/><polygon class="cls-2" points="454.93 225 441.07 225 434.14 237 441.07 249 454.93 249 461.86 237 454.93 225"/><circle class="cls-2" cx="448" cy="238" r="4"/><polygon class="cls-2" points="532.93 225 519.07 225 512.14 237 519.07 249 532.93 249 539.86 237 532.93 225"/><circle class="cls-2" cx="526" cy="238" r="4"/><polygon class="cls-2" points="532.93 111 519.07 111 512.14 123 519.07 135 532.93 135 539.86 123 532.93 111"/><circle class="cls-2" cx="526" cy="124" r="4"/><polygon class="cls-2" points="588.93 111 575.07 111 568.14 123 575.07 135 588.93 135 595.86 123 588.93 111"/><circle class="cls-2" cx="582" cy="124" r="4"/><polygon class="cls-2" points="588.93 225 575.07 225 568.14 237 575.07 249 588.93 249 595.86 237 588.93 225"/><circle class="cls-2" cx="582" cy="238" r="4"/><polyline class="cls-2" points="489.61 93 489.61 154 415 154 415 93 660 93"/><polyline class="cls-2" points="501 93 501 154 635 154 635 128 652 128"/><polyline class="cls-2" points="489 267 489 206 415 206 415 267 658 267"/><polyline class="cls-3" points="501 268 501 206 635 206 635 232.43 652 232.43"/><line class="cls-2" x1="351.88" y1="161" x2="351.88" y2="200"/><line class="cls-2" x1="374" y1="161" x2="374" y2="200"/><line class="cls-2" x1="358.75" y1="161" x2="358.75" y2="170"/><line class="cls-2" x1="359" y1="191" x2="359" y2="199"/><line class="cls-2" x1="367" y1="162" x2="367" y2="171"/><line class="cls-2" x1="367" y1="191" x2="367" y2="200"/><rect class="cls-4" x="633" y="96" width="27" height="29"/><rect class="cls-5" x="652" y="128" width="97" height="104"/><polyline class="cls-2" points="720 132 720 231 720 267 777 267 777 300 1063 300 1063 319"/><polyline class="cls-2" points="720 228 720 129 720 93 777 93 777 60 1063 60 1063 41"/><line class="cls-2" x1="727.33" y1="129" x2="727.33" y2="228"/><line class="cls-2" x1="734.67" y1="129" x2="734.67" y2="228"/><line class="cls-2" x1="742" y1="129" x2="742" y2="228"/><path class="cls-2" d="M686,129v8H675a17.15,17.15,0,0,0,10,8s-6,3-8.5,8.5H686V168H671s3,7,15,12"/><path class="cls-2" d="M686,230v-8H675a17.15,17.15,0,0,1,10-8s-6-3-8.5-8.5H686V191H671s3-7,15-12"/><rect class="cls-2" x="783" y="66" width="89" height="27"/><rect class="cls-2" x="783" y="267" width="89" height="27"/><rect class="cls-2" x="974" y="66" width="89" height="27"/><rect class="cls-2" x="974" y="266" width="89" height="27"/><text class="cls-6" transform="translate(162.35 156.14)">大成殿</text><rect class="cls-4" x="186" y="163" width="30" height="42"/><text class="cls-6" transform="translate(59.35 156.14)">御碑厅</text><text class="cls-6" transform="translate(703.35 156.14)">大成门</text><text class="cls-6" transform="translate(620.35 221.14)">鼓亭</text><text class="cls-6" transform="translate(620.35 107.14)">钟亭</text><text class="cls-6" transform="translate(312.35 217.14)">舞亭</text><text class="cls-6" transform="translate(312.35 109.14)">舞亭</text><polyline class="cls-1" points="1 354.07 1 1 1100 1 1100 359 686 359"/><rect class="cls-4" x="634" y="235" width="24" height="29"/><line class="cls-7" x1="1" y1="359" x2="686" y2="359"/><line class="cls-1" x1="1" y1="342" x2="1" y2="360"/></g></g></svg>